G04 #@! TF.GenerationSoftware,KiCad,Pcbnew,(6.0.1-0)*
G04 #@! TF.CreationDate,2022-08-23T11:47:08-04:00*
G04 #@! TF.ProjectId,mobo,6d6f626f-2e6b-4696-9361-645f70636258,rev?*
G04 #@! TF.SameCoordinates,Original*
G04 #@! TF.FileFunction,Paste,Top*
G04 #@! TF.FilePolarity,Positive*
%FSLAX46Y46*%
G04 Gerber Fmt 4.6, Leading zero omitted, Abs format (unit mm)*
G04 Created by KiCad (PCBNEW (6.0.1-0)) date 2022-08-23 11:47:08*
%MOMM*%
%LPD*%
G01*
G04 APERTURE LIST*
G04 Aperture macros list*
%AMRoundRect*
0 Rectangle with rounded corners*
0 $1 Rounding radius*
0 $2 $3 $4 $5 $6 $7 $8 $9 X,Y pos of 4 corners*
0 Add a 4 corners polygon primitive as box body*
4,1,4,$2,$3,$4,$5,$6,$7,$8,$9,$2,$3,0*
0 Add four circle primitives for the rounded corners*
1,1,$1+$1,$2,$3*
1,1,$1+$1,$4,$5*
1,1,$1+$1,$6,$7*
1,1,$1+$1,$8,$9*
0 Add four rect primitives between the rounded corners*
20,1,$1+$1,$2,$3,$4,$5,0*
20,1,$1+$1,$4,$5,$6,$7,0*
20,1,$1+$1,$6,$7,$8,$9,0*
20,1,$1+$1,$8,$9,$2,$3,0*%
G04 Aperture macros list end*
%ADD10RoundRect,0.250000X-0.450000X0.262500X-0.450000X-0.262500X0.450000X-0.262500X0.450000X0.262500X0*%
%ADD11RoundRect,0.250000X0.450000X-0.262500X0.450000X0.262500X-0.450000X0.262500X-0.450000X-0.262500X0*%
%ADD12RoundRect,0.250000X-0.250000X-0.475000X0.250000X-0.475000X0.250000X0.475000X-0.250000X0.475000X0*%
%ADD13R,0.750000X0.650000*%
%ADD14R,0.500000X0.250000*%
%ADD15RoundRect,0.075000X-0.075000X0.662500X-0.075000X-0.662500X0.075000X-0.662500X0.075000X0.662500X0*%
%ADD16RoundRect,0.075000X-0.662500X0.075000X-0.662500X-0.075000X0.662500X-0.075000X0.662500X0.075000X0*%
%ADD17RoundRect,0.075000X-0.075000X0.575000X-0.075000X-0.575000X0.075000X-0.575000X0.075000X0.575000X0*%
%ADD18RoundRect,0.075000X-0.575000X0.075000X-0.575000X-0.075000X0.575000X-0.075000X0.575000X0.075000X0*%
%ADD19RoundRect,0.243750X-0.243750X-0.456250X0.243750X-0.456250X0.243750X0.456250X-0.243750X0.456250X0*%
%ADD20R,1.500000X2.000000*%
%ADD21R,3.800000X2.000000*%
%ADD22R,2.100000X1.800000*%
%ADD23RoundRect,0.250000X0.550000X-1.137500X0.550000X1.137500X-0.550000X1.137500X-0.550000X-1.137500X0*%
%ADD24RoundRect,0.250000X-0.550000X1.137500X-0.550000X-1.137500X0.550000X-1.137500X0.550000X1.137500X0*%
%ADD25RoundRect,0.250000X0.475000X-0.250000X0.475000X0.250000X-0.475000X0.250000X-0.475000X-0.250000X0*%
%ADD26RoundRect,0.100000X0.035355X0.459619X-0.459619X-0.035355X-0.035355X-0.459619X0.459619X0.035355X0*%
%ADD27RoundRect,0.075000X0.212132X-0.530330X0.530330X-0.212132X-0.212132X0.530330X-0.530330X0.212132X0*%
%ADD28R,0.650000X0.750000*%
%ADD29R,0.250000X0.500000*%
%ADD30RoundRect,0.200000X0.600000X-0.200000X0.600000X0.200000X-0.600000X0.200000X-0.600000X-0.200000X0*%
%ADD31RoundRect,0.250001X1.249999X-0.799999X1.249999X0.799999X-1.249999X0.799999X-1.249999X-0.799999X0*%
%ADD32RoundRect,0.250000X0.262500X0.450000X-0.262500X0.450000X-0.262500X-0.450000X0.262500X-0.450000X0*%
%ADD33RoundRect,0.200000X-0.200000X-0.600000X0.200000X-0.600000X0.200000X0.600000X-0.200000X0.600000X0*%
%ADD34RoundRect,0.250001X-0.799999X-1.249999X0.799999X-1.249999X0.799999X1.249999X-0.799999X1.249999X0*%
%ADD35RoundRect,0.150000X-0.825000X-0.150000X0.825000X-0.150000X0.825000X0.150000X-0.825000X0.150000X0*%
%ADD36RoundRect,0.250000X0.250000X0.475000X-0.250000X0.475000X-0.250000X-0.475000X0.250000X-0.475000X0*%
%ADD37R,2.400000X1.500000*%
%ADD38RoundRect,0.232500X-0.232500X0.232500X-0.232500X-0.232500X0.232500X-0.232500X0.232500X0.232500X0*%
%ADD39RoundRect,0.062500X-0.062500X0.375000X-0.062500X-0.375000X0.062500X-0.375000X0.062500X0.375000X0*%
%ADD40RoundRect,0.062500X-0.375000X0.062500X-0.375000X-0.062500X0.375000X-0.062500X0.375000X0.062500X0*%
%ADD41RoundRect,0.250000X-0.475000X0.250000X-0.475000X-0.250000X0.475000X-0.250000X0.475000X0.250000X0*%
%ADD42RoundRect,0.250000X0.250000X-0.400000X0.250000X0.400000X-0.250000X0.400000X-0.250000X-0.400000X0*%
%ADD43RoundRect,0.150000X0.925000X-0.600000X0.925000X0.600000X-0.925000X0.600000X-0.925000X-0.600000X0*%
%ADD44RoundRect,0.150000X-0.150000X0.825000X-0.150000X-0.825000X0.150000X-0.825000X0.150000X0.825000X0*%
%ADD45R,0.900000X1.200000*%
G04 APERTURE END LIST*
D10*
X119700000Y-34237500D03*
X119700000Y-36062500D03*
D11*
X101800000Y-111012500D03*
X101800000Y-109187500D03*
D12*
X109800000Y-97750000D03*
X111700000Y-97750000D03*
X93350000Y-70200000D03*
X95250000Y-70200000D03*
D13*
X122300000Y-67400000D03*
X122300000Y-66600000D03*
D14*
X123250000Y-67750000D03*
X123250000Y-67250000D03*
X123250000Y-66750000D03*
X123250000Y-66250000D03*
X121350000Y-66250000D03*
X121350000Y-66750000D03*
X121350000Y-67250000D03*
X121350000Y-67750000D03*
D10*
X116000000Y-68287500D03*
X116000000Y-70112500D03*
D15*
X104863335Y-72350240D03*
X104363335Y-72350240D03*
X103863335Y-72350240D03*
X103363335Y-72350240D03*
X102863335Y-72350240D03*
X102363335Y-72350240D03*
X101863335Y-72350240D03*
X101363335Y-72350240D03*
X100863335Y-72350240D03*
X100363335Y-72350240D03*
X99863335Y-72350240D03*
X99363335Y-72350240D03*
D16*
X97950835Y-73762740D03*
X97950835Y-74262740D03*
X97950835Y-74762740D03*
X97950835Y-75262740D03*
X97950835Y-75762740D03*
X97950835Y-76262740D03*
X97950835Y-76762740D03*
X97950835Y-77262740D03*
X97950835Y-77762740D03*
X97950835Y-78262740D03*
X97950835Y-78762740D03*
X97950835Y-79262740D03*
D15*
X99363335Y-80675240D03*
X99863335Y-80675240D03*
X100363335Y-80675240D03*
D17*
X100863335Y-80762740D03*
X101363335Y-80762740D03*
X101863335Y-80762740D03*
X102363335Y-80762740D03*
X102863335Y-80762740D03*
X103363335Y-80762740D03*
X103863335Y-80762740D03*
X104363335Y-80762740D03*
D15*
X104863335Y-80675240D03*
D16*
X106275835Y-79262740D03*
D18*
X106365835Y-78762740D03*
X106365835Y-78262740D03*
X106365835Y-77762740D03*
X106365835Y-77262740D03*
X106365835Y-76762740D03*
X106365835Y-76262740D03*
X106365835Y-75762740D03*
X106365835Y-75262740D03*
D16*
X106275835Y-74762740D03*
X106275835Y-74262740D03*
X106275835Y-73762740D03*
D10*
X104900000Y-34187500D03*
X104900000Y-36012500D03*
D19*
X108162500Y-32300000D03*
X110037500Y-32300000D03*
D10*
X99900000Y-34175000D03*
X99900000Y-36000000D03*
D20*
X114950000Y-100100000D03*
D21*
X112650000Y-106400000D03*
D20*
X112650000Y-100100000D03*
X110350000Y-100100000D03*
D22*
X104637740Y-66861905D03*
X101737740Y-66861905D03*
X101737740Y-69161905D03*
X104637740Y-69161905D03*
D12*
X93350000Y-78600000D03*
X95250000Y-78600000D03*
D11*
X101800000Y-106912500D03*
X101800000Y-105087500D03*
D10*
X114800000Y-34237500D03*
X114800000Y-36062500D03*
X129550000Y-34287500D03*
X129550000Y-36112500D03*
D23*
X97700000Y-114262500D03*
X97700000Y-110137500D03*
D24*
X97700000Y-97837500D03*
X97700000Y-101962500D03*
D12*
X111250000Y-73800000D03*
X113150000Y-73800000D03*
D10*
X124600000Y-34287500D03*
X124600000Y-36112500D03*
D25*
X108400000Y-75250000D03*
X108400000Y-73350000D03*
D26*
X92187868Y-40192031D03*
X94592031Y-37787868D03*
D27*
X93602082Y-35949390D03*
X90349390Y-39202082D03*
D12*
X96050000Y-107300000D03*
X97950000Y-107300000D03*
D28*
X115500000Y-73200000D03*
X116300000Y-73200000D03*
D29*
X115150000Y-74150000D03*
X115650000Y-74150000D03*
X116150000Y-74150000D03*
X116650000Y-74150000D03*
X116650000Y-72250000D03*
X116150000Y-72250000D03*
X115650000Y-72250000D03*
X115150000Y-72250000D03*
D30*
X126600000Y-70125000D03*
X126600000Y-68875000D03*
X126600000Y-67625000D03*
X126600000Y-66375000D03*
X126600000Y-65125000D03*
X126600000Y-63875000D03*
D31*
X129500000Y-61325000D03*
X129500000Y-72675000D03*
D12*
X113600000Y-97750000D03*
X115500000Y-97750000D03*
X93350000Y-76500000D03*
X95250000Y-76500000D03*
D32*
X113112500Y-68500000D03*
X111287500Y-68500000D03*
D19*
X122962500Y-32400000D03*
X124837500Y-32400000D03*
D12*
X111250000Y-71100000D03*
X113150000Y-71100000D03*
D19*
X103262500Y-32300000D03*
X105137500Y-32300000D03*
D33*
X115275000Y-76900000D03*
X116525000Y-76900000D03*
D34*
X119075000Y-79800000D03*
X112725000Y-79800000D03*
D35*
X117825000Y-97595000D03*
X117825000Y-98865000D03*
X117825000Y-100135000D03*
X117825000Y-101405000D03*
X122775000Y-101405000D03*
X122775000Y-100135000D03*
X122775000Y-98865000D03*
X122775000Y-97595000D03*
D32*
X97412500Y-80800000D03*
X95587500Y-80800000D03*
D36*
X108150000Y-71400000D03*
X106250000Y-71400000D03*
D37*
X104700000Y-102850000D03*
X104700000Y-97350000D03*
D38*
X102613335Y-77012740D03*
D39*
X104363335Y-74575240D03*
X103863335Y-74575240D03*
X103363335Y-74575240D03*
X102863335Y-74575240D03*
X102363335Y-74575240D03*
X101863335Y-74575240D03*
X101363335Y-74575240D03*
X100863335Y-74575240D03*
D40*
X100175835Y-75262740D03*
X100175835Y-75762740D03*
X100175835Y-76262740D03*
X100175835Y-76762740D03*
X100175835Y-77262740D03*
X100175835Y-77762740D03*
X100175835Y-78262740D03*
X100175835Y-78762740D03*
D39*
X100863335Y-79450240D03*
X101363335Y-79450240D03*
X101863335Y-79450240D03*
X102363335Y-79450240D03*
X102863335Y-79450240D03*
X103363335Y-79450240D03*
X103863335Y-79450240D03*
X104363335Y-79450240D03*
D40*
X105050835Y-78762740D03*
X105050835Y-78262740D03*
X105050835Y-77762740D03*
X105050835Y-77262740D03*
X105050835Y-76762740D03*
X105050835Y-76262740D03*
X105050835Y-75762740D03*
X105050835Y-75262740D03*
D12*
X121350000Y-69900000D03*
X123250000Y-69900000D03*
D19*
X98262500Y-32287500D03*
X100137500Y-32287500D03*
D41*
X107187740Y-67061905D03*
X107187740Y-68961905D03*
D19*
X118062500Y-32350000D03*
X119937500Y-32350000D03*
D12*
X93350000Y-74400000D03*
X95250000Y-74400000D03*
D42*
X127645000Y-111000000D03*
X127645000Y-108500000D03*
X127645000Y-106000000D03*
X127645000Y-103500000D03*
X127645000Y-101000000D03*
D43*
X129795000Y-112900000D03*
X129795000Y-99100000D03*
D11*
X110000000Y-110600000D03*
X110000000Y-108775000D03*
D25*
X99187740Y-68961905D03*
X99187740Y-67061905D03*
D12*
X93350000Y-72300000D03*
X95250000Y-72300000D03*
D19*
X113162500Y-32350000D03*
X115037500Y-32350000D03*
D44*
X107605000Y-105525000D03*
X106335000Y-105525000D03*
X105065000Y-105525000D03*
X103795000Y-105525000D03*
X103795000Y-110475000D03*
X105065000Y-110475000D03*
X106335000Y-110475000D03*
X107605000Y-110475000D03*
D26*
X86687868Y-45692031D03*
X89092031Y-43287868D03*
D27*
X88102082Y-41449390D03*
X84849390Y-44702082D03*
D19*
X127912500Y-32400000D03*
X129787500Y-32400000D03*
D10*
X109800000Y-34187500D03*
X109800000Y-36012500D03*
D25*
X118800000Y-70150000D03*
X118800000Y-68250000D03*
D45*
X99250000Y-104900000D03*
X95950000Y-104900000D03*
M02*
