G04 #@! TF.GenerationSoftware,KiCad,Pcbnew,(6.0.1-0)*
G04 #@! TF.CreationDate,2022-08-23T11:47:09-04:00*
G04 #@! TF.ProjectId,mobo,6d6f626f-2e6b-4696-9361-645f70636258,rev?*
G04 #@! TF.SameCoordinates,Original*
G04 #@! TF.FileFunction,Legend,Bot*
G04 #@! TF.FilePolarity,Positive*
%FSLAX46Y46*%
G04 Gerber Fmt 4.6, Leading zero omitted, Abs format (unit mm)*
G04 Created by KiCad (PCBNEW (6.0.1-0)) date 2022-08-23 11:47:09*
%MOMM*%
%LPD*%
G01*
G04 APERTURE LIST*
%ADD10C,0.120000*%
%ADD11C,0.100000*%
%ADD12C,0.150000*%
G04 APERTURE END LIST*
D10*
X91300000Y-113000000D02*
G75*
G03*
X91300000Y-113000000I-3000000J0D01*
G01*
X127300000Y-79000000D02*
G75*
G03*
X127300000Y-79000000I-3000000J0D01*
G01*
X127300000Y-60500000D02*
G75*
G03*
X127300000Y-60500000I-3000000J0D01*
G01*
X98300000Y-65000000D02*
G75*
G03*
X98300000Y-65000000I-3000000J0D01*
G01*
X89300000Y-78000000D02*
G75*
G03*
X89300000Y-78000000I-3000000J0D01*
G01*
X89300000Y-69000000D02*
G75*
G03*
X89300000Y-69000000I-3000000J0D01*
G01*
D11*
X98678571Y-95302380D02*
X98607142Y-95326190D01*
X98488095Y-95326190D01*
X98440476Y-95302380D01*
X98416666Y-95278571D01*
X98392857Y-95230952D01*
X98392857Y-95183333D01*
X98416666Y-95135714D01*
X98440476Y-95111904D01*
X98488095Y-95088095D01*
X98583333Y-95064285D01*
X98630952Y-95040476D01*
X98654761Y-95016666D01*
X98678571Y-94969047D01*
X98678571Y-94921428D01*
X98654761Y-94873809D01*
X98630952Y-94850000D01*
X98583333Y-94826190D01*
X98464285Y-94826190D01*
X98392857Y-94850000D01*
X98226190Y-94826190D02*
X98107142Y-95326190D01*
X98011904Y-94969047D01*
X97916666Y-95326190D01*
X97797619Y-94826190D01*
X97607142Y-95326190D02*
X97607142Y-94826190D01*
X97488095Y-94826190D01*
X97416666Y-94850000D01*
X97369047Y-94897619D01*
X97345238Y-94945238D01*
X97321428Y-95040476D01*
X97321428Y-95111904D01*
X97345238Y-95207142D01*
X97369047Y-95254761D01*
X97416666Y-95302380D01*
X97488095Y-95326190D01*
X97607142Y-95326190D01*
D12*
X120073928Y-37147380D02*
X119883452Y-37147380D01*
X119788214Y-37195000D01*
X119692976Y-37290238D01*
X119645357Y-37480714D01*
X119645357Y-37814047D01*
X119692976Y-38004523D01*
X119788214Y-38099761D01*
X119883452Y-38147380D01*
X120073928Y-38147380D01*
X120169166Y-38099761D01*
X120264404Y-38004523D01*
X120312023Y-37814047D01*
X120312023Y-37480714D01*
X120264404Y-37290238D01*
X120169166Y-37195000D01*
X120073928Y-37147380D01*
X119216785Y-37480714D02*
X119216785Y-38480714D01*
X119216785Y-37528333D02*
X119121547Y-37480714D01*
X118931071Y-37480714D01*
X118835833Y-37528333D01*
X118788214Y-37575952D01*
X118740595Y-37671190D01*
X118740595Y-37956904D01*
X118788214Y-38052142D01*
X118835833Y-38099761D01*
X118931071Y-38147380D01*
X119121547Y-38147380D01*
X119216785Y-38099761D01*
X117883452Y-37480714D02*
X117883452Y-38147380D01*
X118312023Y-37480714D02*
X118312023Y-38004523D01*
X118264404Y-38099761D01*
X118169166Y-38147380D01*
X118026309Y-38147380D01*
X117931071Y-38099761D01*
X117883452Y-38052142D01*
X117264404Y-38147380D02*
X117359642Y-38099761D01*
X117407261Y-38004523D01*
X117407261Y-37147380D01*
X116740595Y-38147380D02*
X116835833Y-38099761D01*
X116883452Y-38052142D01*
X116931071Y-37956904D01*
X116931071Y-37671190D01*
X116883452Y-37575952D01*
X116835833Y-37528333D01*
X116740595Y-37480714D01*
X116597738Y-37480714D01*
X116502500Y-37528333D01*
X116454880Y-37575952D01*
X116407261Y-37671190D01*
X116407261Y-37956904D01*
X116454880Y-38052142D01*
X116502500Y-38099761D01*
X116597738Y-38147380D01*
X116740595Y-38147380D01*
X114883452Y-37623571D02*
X115216785Y-37623571D01*
X115216785Y-38147380D02*
X115216785Y-37147380D01*
X114740595Y-37147380D01*
X113978690Y-38099761D02*
X114073928Y-38147380D01*
X114264404Y-38147380D01*
X114359642Y-38099761D01*
X114407261Y-38004523D01*
X114407261Y-37623571D01*
X114359642Y-37528333D01*
X114264404Y-37480714D01*
X114073928Y-37480714D01*
X113978690Y-37528333D01*
X113931071Y-37623571D01*
X113931071Y-37718809D01*
X114407261Y-37814047D01*
X113121547Y-38099761D02*
X113216785Y-38147380D01*
X113407261Y-38147380D01*
X113502500Y-38099761D01*
X113550119Y-38004523D01*
X113550119Y-37623571D01*
X113502500Y-37528333D01*
X113407261Y-37480714D01*
X113216785Y-37480714D01*
X113121547Y-37528333D01*
X113073928Y-37623571D01*
X113073928Y-37718809D01*
X113550119Y-37814047D01*
X112216785Y-38147380D02*
X112216785Y-37147380D01*
X112216785Y-38099761D02*
X112312023Y-38147380D01*
X112502500Y-38147380D01*
X112597738Y-38099761D01*
X112645357Y-38052142D01*
X112692976Y-37956904D01*
X112692976Y-37671190D01*
X112645357Y-37575952D01*
X112597738Y-37528333D01*
X112502500Y-37480714D01*
X112312023Y-37480714D01*
X112216785Y-37528333D01*
X111359642Y-38099761D02*
X111454880Y-38147380D01*
X111645357Y-38147380D01*
X111740595Y-38099761D01*
X111788214Y-38004523D01*
X111788214Y-37623571D01*
X111740595Y-37528333D01*
X111645357Y-37480714D01*
X111454880Y-37480714D01*
X111359642Y-37528333D01*
X111312023Y-37623571D01*
X111312023Y-37718809D01*
X111788214Y-37814047D01*
X110883452Y-38147380D02*
X110883452Y-37480714D01*
X110883452Y-37671190D02*
X110835833Y-37575952D01*
X110788214Y-37528333D01*
X110692976Y-37480714D01*
X110597738Y-37480714D01*
X119692976Y-39757380D02*
X120026309Y-39281190D01*
X120264404Y-39757380D02*
X120264404Y-38757380D01*
X119883452Y-38757380D01*
X119788214Y-38805000D01*
X119740595Y-38852619D01*
X119692976Y-38947857D01*
X119692976Y-39090714D01*
X119740595Y-39185952D01*
X119788214Y-39233571D01*
X119883452Y-39281190D01*
X120264404Y-39281190D01*
X119264404Y-39233571D02*
X118931071Y-39233571D01*
X118788214Y-39757380D02*
X119264404Y-39757380D01*
X119264404Y-38757380D01*
X118788214Y-38757380D01*
X118502500Y-38757380D02*
X118169166Y-39757380D01*
X117835833Y-38757380D01*
X117312023Y-38757380D02*
X117216785Y-38757380D01*
X117121547Y-38805000D01*
X117073928Y-38852619D01*
X117026309Y-38947857D01*
X116978690Y-39138333D01*
X116978690Y-39376428D01*
X117026309Y-39566904D01*
X117073928Y-39662142D01*
X117121547Y-39709761D01*
X117216785Y-39757380D01*
X117312023Y-39757380D01*
X117407261Y-39709761D01*
X117454880Y-39662142D01*
X117502500Y-39566904D01*
X117550119Y-39376428D01*
X117550119Y-39138333D01*
X117502500Y-38947857D01*
X117454880Y-38852619D01*
X117407261Y-38805000D01*
X117312023Y-38757380D01*
X116645357Y-38757380D02*
X115978690Y-38757380D01*
X116407261Y-39757380D01*
D10*
X101235000Y-89535000D02*
X101235000Y-93065000D01*
X94830000Y-88210000D02*
X94830000Y-89535000D01*
X94765000Y-89535000D02*
X94765000Y-93065000D01*
X94765000Y-89535000D02*
X94830000Y-89535000D01*
X101170000Y-93065000D02*
X101235000Y-93065000D01*
X94765000Y-93065000D02*
X94830000Y-93065000D01*
X101170000Y-89535000D02*
X101235000Y-89535000D01*
M02*
