M48
INCH,TZ
T1C0.0118
T2C0.0157
%
G90
G05
T1
X33110Y-17913
X35000Y-16024
X35276Y-15748
X36220Y-29252
X36220Y-29646
X36220Y-30000
X36220Y-30394
X36220Y-30748
X36260Y-31339
X36339Y-27638
X36339Y-28465
X36772Y-31457
X37165Y-13858
X37323Y-41142
X37323Y-41457
X37362Y-42087
X37362Y-42402
X37598Y-36063
X37638Y-32717
X37874Y-39646
X37874Y-39961
X37874Y-40276
X37874Y-40591
X37874Y-42835
X37874Y-43150
X37874Y-43465
X37874Y-43780
X37913Y-30394
X37913Y-30945
X37992Y-29646
X37992Y-30000
X38031Y-29252
X38031Y-32717
X38071Y-30669
X38071Y-36063
X38110Y-28583
X38346Y-34370
X38425Y-32717
X38622Y-27598
X38858Y-28780
X38976Y-27717
X38976Y-39291
X39488Y-43110
X39606Y-36063
X39646Y-25630
X39646Y-32244
X39724Y-27795
X39764Y-41732
X39882Y-13504
X39882Y-32480
X40055Y-27795
X40197Y-32480
X40512Y-32480
X40551Y-41024
X40551Y-43701
X40709Y-42205
X40714Y-27913
X40827Y-32480
X40984Y-29882
X41024Y-42205
X41337Y-29346
X41535Y-25630
X41772Y-13504
X41890Y-31575
X42205Y-28110
X42205Y-28701
X42480Y-31048
X42520Y-30241
X42598Y-25866
X42677Y-29252
X42716Y-30832
X42717Y-27598
X42741Y-30026
X42756Y-26850
X43543Y-27441
X43740Y-28504
X43898Y-13504
X44016Y-37913
X44173Y-27480
X44173Y-35394
X44291Y-37913
X44350Y-40118
X44350Y-40413
X44350Y-40728
X44350Y-41043
X44961Y-40079
X45236Y-40079
X45315Y-35236
X45472Y-28819
X45512Y-40079
X45669Y-34882
X45709Y-13504
X45748Y-28150
X45787Y-28819
X45787Y-39173
X45787Y-39567
X46043Y-34508
X46142Y-37362
X46181Y-28425
X46220Y-28819
X46378Y-38110
X46752Y-28386
X46752Y-28721
X46752Y-29036
X46929Y-38937
X46929Y-39409
X46929Y-39921
X47323Y-27913
X47638Y-13504
X47795Y-26969
X48150Y-25827
X48150Y-26220
X48150Y-26535
X48346Y-40315
X48976Y-40079
X49331Y-26142
X49331Y-26614
X49331Y-27087
X49567Y-13465
X49685Y-42717
X49803Y-39606
X49961Y-39291
X50472Y-25630
X50472Y-25945
X50472Y-27323
X50472Y-38819
X50472Y-39213
X50472Y-44252
X50472Y-44646
X50669Y-39606
X50669Y-39921
X51535Y-13465
X51732Y-38819
X51732Y-39213
X51732Y-44252
X51732Y-44646
T2
X40182Y-30103
X40182Y-30537
X40615Y-30103
X40615Y-30537
T0
M30
