G04 #@! TF.GenerationSoftware,KiCad,Pcbnew,(6.0.1-0)*
G04 #@! TF.CreationDate,2022-08-23T11:55:35-04:00*
G04 #@! TF.ProjectId,feederFloor,66656564-6572-4466-9c6f-6f722e6b6963,rev?*
G04 #@! TF.SameCoordinates,Original*
G04 #@! TF.FileFunction,Copper,L2,Bot*
G04 #@! TF.FilePolarity,Positive*
%FSLAX46Y46*%
G04 Gerber Fmt 4.6, Leading zero omitted, Abs format (unit mm)*
G04 Created by KiCad (PCBNEW (6.0.1-0)) date 2022-08-23 11:55:35*
%MOMM*%
%LPD*%
G01*
G04 APERTURE LIST*
G04 Aperture macros list*
%AMRoundRect*
0 Rectangle with rounded corners*
0 $1 Rounding radius*
0 $2 $3 $4 $5 $6 $7 $8 $9 X,Y pos of 4 corners*
0 Add a 4 corners polygon primitive as box body*
4,1,4,$2,$3,$4,$5,$6,$7,$8,$9,$2,$3,0*
0 Add four circle primitives for the rounded corners*
1,1,$1+$1,$2,$3*
1,1,$1+$1,$4,$5*
1,1,$1+$1,$6,$7*
1,1,$1+$1,$8,$9*
0 Add four rect primitives between the rounded corners*
20,1,$1+$1,$2,$3,$4,$5,0*
20,1,$1+$1,$4,$5,$6,$7,0*
20,1,$1+$1,$6,$7,$8,$9,0*
20,1,$1+$1,$8,$9,$2,$3,0*%
G04 Aperture macros list end*
G04 #@! TA.AperFunction,ComponentPad*
%ADD10R,1.727200X1.727200*%
G04 #@! TD*
G04 #@! TA.AperFunction,ComponentPad*
%ADD11O,1.727200X1.727200*%
G04 #@! TD*
G04 #@! TA.AperFunction,SMDPad,CuDef*
%ADD12RoundRect,0.500000X-1.000000X0.500000X-1.000000X-0.500000X1.000000X-0.500000X1.000000X0.500000X0*%
G04 #@! TD*
G04 #@! TA.AperFunction,ViaPad*
%ADD13C,0.800000*%
G04 #@! TD*
G04 #@! TA.AperFunction,Conductor*
%ADD14C,0.250000*%
G04 #@! TD*
G04 #@! TA.AperFunction,Conductor*
%ADD15C,1.000000*%
G04 #@! TD*
G04 #@! TA.AperFunction,Conductor*
%ADD16C,0.200000*%
G04 #@! TD*
G04 APERTURE END LIST*
D10*
X25650114Y-65813687D03*
D11*
X28190114Y-65813687D03*
X25650114Y-63273687D03*
X28190114Y-63273687D03*
X25650114Y-60733687D03*
X28190114Y-60733687D03*
D12*
X32550114Y-27113687D03*
X32550114Y-29613687D03*
X32550114Y-32113687D03*
X32550114Y-34613687D03*
X32550114Y-37113687D03*
D13*
X28100000Y-33000000D03*
X30400000Y-28400000D03*
X30400000Y-27100000D03*
X30400000Y-25900000D03*
X33400000Y-43800000D03*
X29200000Y-33000000D03*
X27000000Y-33000000D03*
X29400000Y-37000000D03*
X27000000Y-36700000D03*
X27000000Y-38500000D03*
D14*
X31786313Y-34613687D02*
X29400000Y-37000000D01*
X32550114Y-34613687D02*
X31786313Y-34613687D01*
D15*
X32550114Y-37113687D02*
X31600000Y-38063801D01*
X29626313Y-63273687D02*
X28190114Y-63273687D01*
X31600000Y-38063801D02*
X31600000Y-61300000D01*
X25650114Y-63273687D02*
X28190114Y-63273687D01*
X31600000Y-61300000D02*
X29626313Y-63273687D01*
D16*
X27000000Y-36700000D02*
X27500000Y-36700000D01*
X32086313Y-32113687D02*
X32550114Y-32113687D01*
X27500000Y-36700000D02*
X32086313Y-32113687D01*
X30700000Y-29900000D02*
X30986313Y-29613687D01*
X26200000Y-36400000D02*
X26700000Y-35900000D01*
X26200000Y-37700000D02*
X26200000Y-36400000D01*
X30986313Y-29613687D02*
X32550114Y-29613687D01*
X27700000Y-35900000D02*
X30700000Y-32900000D01*
X30700000Y-32900000D02*
X30700000Y-29900000D01*
X26700000Y-35900000D02*
X27700000Y-35900000D01*
X27000000Y-38500000D02*
X26200000Y-37700000D01*
G04 #@! TA.AperFunction,Conductor*
G36*
X31467836Y-25432594D02*
G01*
X31503800Y-25482094D01*
X31503800Y-25543280D01*
X31467836Y-25592780D01*
X31429213Y-25609734D01*
X31258721Y-25644111D01*
X31249509Y-25646928D01*
X31075951Y-25719173D01*
X31067449Y-25723732D01*
X30911235Y-25828309D01*
X30903790Y-25834423D01*
X30770850Y-25967363D01*
X30764736Y-25974808D01*
X30660159Y-26131022D01*
X30655600Y-26139524D01*
X30583355Y-26313082D01*
X30580538Y-26322294D01*
X30543147Y-26507735D01*
X30542236Y-26514993D01*
X30542177Y-26516160D01*
X30542114Y-26518640D01*
X30542114Y-26844007D01*
X30546236Y-26856692D01*
X30550357Y-26859687D01*
X32705114Y-26859687D01*
X32763305Y-26878594D01*
X32799269Y-26928094D01*
X32804114Y-26958687D01*
X32804114Y-27268687D01*
X32785207Y-27326878D01*
X32735707Y-27362842D01*
X32705114Y-27367687D01*
X30557794Y-27367687D01*
X30545109Y-27371809D01*
X30542114Y-27375930D01*
X30542114Y-27708718D01*
X30542177Y-27711214D01*
X30542236Y-27712381D01*
X30543147Y-27719639D01*
X30580538Y-27905080D01*
X30583355Y-27914292D01*
X30655600Y-28087850D01*
X30660159Y-28096352D01*
X30764736Y-28252566D01*
X30770850Y-28260011D01*
X30903790Y-28392951D01*
X30911232Y-28399063D01*
X30942345Y-28419891D01*
X30980183Y-28467974D01*
X30982533Y-28529114D01*
X30964643Y-28563923D01*
X30868450Y-28684421D01*
X30790287Y-28846110D01*
X30749888Y-29021098D01*
X30749614Y-29025850D01*
X30749614Y-29242985D01*
X30730707Y-29301176D01*
X30720618Y-29312989D01*
X30394516Y-29639091D01*
X30394513Y-29639095D01*
X30371950Y-29661658D01*
X30360998Y-29683154D01*
X30352884Y-29696393D01*
X30338704Y-29715910D01*
X30336296Y-29723321D01*
X30331248Y-29738857D01*
X30325305Y-29753203D01*
X30314354Y-29774696D01*
X30313136Y-29782389D01*
X30313135Y-29782391D01*
X30310581Y-29798519D01*
X30306956Y-29813620D01*
X30299500Y-29836567D01*
X30299500Y-32693099D01*
X30280593Y-32751290D01*
X30270504Y-32763103D01*
X27563103Y-35470504D01*
X27508586Y-35498281D01*
X27493099Y-35499500D01*
X26636567Y-35499500D01*
X26613620Y-35506956D01*
X26598519Y-35510581D01*
X26582391Y-35513135D01*
X26582389Y-35513136D01*
X26574696Y-35514354D01*
X26553201Y-35525306D01*
X26538855Y-35531249D01*
X26523320Y-35536296D01*
X26523316Y-35536298D01*
X26515911Y-35538704D01*
X26496390Y-35552887D01*
X26483151Y-35560999D01*
X26468597Y-35568414D01*
X26468595Y-35568416D01*
X26461658Y-35571950D01*
X26439095Y-35594513D01*
X26439091Y-35594516D01*
X25894516Y-36139091D01*
X25894513Y-36139095D01*
X25871950Y-36161658D01*
X25860998Y-36183154D01*
X25852884Y-36196393D01*
X25838704Y-36215910D01*
X25836296Y-36223321D01*
X25831248Y-36238857D01*
X25825305Y-36253203D01*
X25814354Y-36274696D01*
X25813136Y-36282389D01*
X25813135Y-36282391D01*
X25810581Y-36298519D01*
X25806956Y-36313620D01*
X25799500Y-36336567D01*
X25799500Y-37763433D01*
X25806955Y-37786375D01*
X25810581Y-37801481D01*
X25811833Y-37809383D01*
X25814354Y-37825304D01*
X25825305Y-37846797D01*
X25831248Y-37861143D01*
X25838704Y-37884090D01*
X25843285Y-37890395D01*
X25852883Y-37903605D01*
X25860998Y-37916846D01*
X25871950Y-37938342D01*
X25894513Y-37960905D01*
X25894516Y-37960909D01*
X26275208Y-38341601D01*
X26302985Y-38396118D01*
X26303357Y-38424526D01*
X26299346Y-38454996D01*
X26294394Y-38492611D01*
X26295049Y-38498544D01*
X26295049Y-38498548D01*
X26296841Y-38514778D01*
X26312999Y-38661135D01*
X26371266Y-38820356D01*
X26374591Y-38825305D01*
X26374592Y-38825306D01*
X26387689Y-38844796D01*
X26465830Y-38961083D01*
X26591233Y-39075191D01*
X26740235Y-39156092D01*
X26775189Y-39165262D01*
X26898464Y-39197603D01*
X26898468Y-39197604D01*
X26904233Y-39199116D01*
X26910194Y-39199210D01*
X26910197Y-39199210D01*
X26988965Y-39200447D01*
X27073760Y-39201779D01*
X27079575Y-39200447D01*
X27079577Y-39200447D01*
X27233206Y-39165262D01*
X27233209Y-39165261D01*
X27239029Y-39163928D01*
X27254610Y-39156092D01*
X27385165Y-39090429D01*
X27390498Y-39087747D01*
X27395035Y-39083872D01*
X27395038Y-39083870D01*
X27514888Y-38981508D01*
X27514891Y-38981505D01*
X27519423Y-38977634D01*
X27618361Y-38839947D01*
X27681601Y-38682634D01*
X27705490Y-38514778D01*
X27705645Y-38500000D01*
X27690489Y-38374758D01*
X27685993Y-38337602D01*
X27685992Y-38337599D01*
X27685276Y-38331680D01*
X27625345Y-38173077D01*
X27611121Y-38152380D01*
X27532692Y-38038267D01*
X27529312Y-38033349D01*
X27402721Y-37920560D01*
X27395724Y-37916855D01*
X27345749Y-37890395D01*
X27252881Y-37841224D01*
X27158867Y-37817609D01*
X27094231Y-37801373D01*
X27094228Y-37801373D01*
X27088441Y-37799919D01*
X27001133Y-37799462D01*
X26924859Y-37799062D01*
X26924857Y-37799062D01*
X26918895Y-37799031D01*
X26917450Y-37799378D01*
X26859178Y-37787627D01*
X26837775Y-37771382D01*
X26629496Y-37563103D01*
X26601719Y-37508586D01*
X26600500Y-37493099D01*
X26600500Y-37445670D01*
X26619407Y-37387479D01*
X26668907Y-37351515D01*
X26730093Y-37351515D01*
X26735179Y-37353347D01*
X26740235Y-37356092D01*
X26822234Y-37377604D01*
X26898464Y-37397603D01*
X26898468Y-37397604D01*
X26904233Y-37399116D01*
X26910194Y-37399210D01*
X26910197Y-37399210D01*
X26988996Y-37400447D01*
X27073760Y-37401779D01*
X27079575Y-37400447D01*
X27079577Y-37400447D01*
X27233206Y-37365262D01*
X27233209Y-37365261D01*
X27239029Y-37363928D01*
X27254610Y-37356092D01*
X27325662Y-37320356D01*
X27390498Y-37287747D01*
X27395035Y-37283872D01*
X27395038Y-37283870D01*
X27514888Y-37181508D01*
X27514891Y-37181505D01*
X27519423Y-37177634D01*
X27556309Y-37126302D01*
X27605619Y-37090081D01*
X27613898Y-37088070D01*
X27617606Y-37086865D01*
X27625304Y-37085646D01*
X27646797Y-37074695D01*
X27661143Y-37068752D01*
X27676679Y-37063704D01*
X27684090Y-37061296D01*
X27703607Y-37047116D01*
X27716846Y-37039002D01*
X27738342Y-37028050D01*
X27760905Y-37005487D01*
X27760909Y-37005484D01*
X30580610Y-34185783D01*
X30635127Y-34158006D01*
X30695559Y-34167577D01*
X30738824Y-34210842D01*
X30749614Y-34255787D01*
X30749615Y-35007630D01*
X30730708Y-35065821D01*
X30720619Y-35077634D01*
X29527493Y-36270759D01*
X29472976Y-36298536D01*
X29456971Y-36299754D01*
X29324861Y-36299062D01*
X29324859Y-36299062D01*
X29318895Y-36299031D01*
X29313099Y-36300423D01*
X29313095Y-36300423D01*
X29205703Y-36326207D01*
X29154032Y-36338612D01*
X29078700Y-36377494D01*
X29008675Y-36413636D01*
X29008673Y-36413638D01*
X29003369Y-36416375D01*
X28875604Y-36527831D01*
X28778113Y-36666547D01*
X28716524Y-36824513D01*
X28694394Y-36992611D01*
X28695049Y-36998544D01*
X28695049Y-36998548D01*
X28712344Y-37155204D01*
X28712999Y-37161135D01*
X28771266Y-37320356D01*
X28774591Y-37325305D01*
X28774592Y-37325306D01*
X28787689Y-37344796D01*
X28865830Y-37461083D01*
X28991233Y-37575191D01*
X29140235Y-37656092D01*
X29175189Y-37665262D01*
X29298464Y-37697603D01*
X29298468Y-37697604D01*
X29304233Y-37699116D01*
X29310194Y-37699210D01*
X29310197Y-37699210D01*
X29388965Y-37700447D01*
X29473760Y-37701779D01*
X29479575Y-37700447D01*
X29479577Y-37700447D01*
X29633206Y-37665262D01*
X29633209Y-37665261D01*
X29639029Y-37663928D01*
X29654610Y-37656092D01*
X29785165Y-37590429D01*
X29790498Y-37587747D01*
X29795035Y-37583872D01*
X29795038Y-37583870D01*
X29914888Y-37481508D01*
X29914891Y-37481505D01*
X29919423Y-37477634D01*
X29934875Y-37456130D01*
X30014877Y-37344796D01*
X30014878Y-37344794D01*
X30018361Y-37339947D01*
X30038268Y-37290429D01*
X30079377Y-37188167D01*
X30079378Y-37188165D01*
X30081601Y-37182634D01*
X30094773Y-37090081D01*
X30105034Y-37017985D01*
X30105034Y-37017979D01*
X30105490Y-37014778D01*
X30105645Y-37000000D01*
X30100217Y-36955149D01*
X30111996Y-36895110D01*
X30128496Y-36873252D01*
X30586572Y-36415176D01*
X30641089Y-36387399D01*
X30701521Y-36396970D01*
X30744786Y-36440235D01*
X30754357Y-36500667D01*
X30753038Y-36507451D01*
X30750831Y-36517011D01*
X30750830Y-36517017D01*
X30749888Y-36521098D01*
X30749614Y-36525850D01*
X30749615Y-37701523D01*
X30749888Y-37706276D01*
X30750830Y-37710357D01*
X30750831Y-37710363D01*
X30778970Y-37832244D01*
X30790287Y-37881264D01*
X30795588Y-37892230D01*
X30802919Y-37957590D01*
X30801018Y-37965821D01*
X30801017Y-37965826D01*
X30799774Y-37971212D01*
X30799755Y-37976746D01*
X30799634Y-38011282D01*
X30799601Y-38012282D01*
X30799500Y-38013084D01*
X30799500Y-38049693D01*
X30799147Y-38150801D01*
X30799406Y-38151960D01*
X30799500Y-38153695D01*
X30799500Y-60927414D01*
X30780593Y-60985605D01*
X30770504Y-60997418D01*
X29323731Y-62444191D01*
X29269214Y-62471968D01*
X29253727Y-62473187D01*
X29077944Y-62473187D01*
X29019753Y-62454280D01*
X29010743Y-62446885D01*
X28977154Y-62415836D01*
X28901809Y-62346188D01*
X28877537Y-62330873D01*
X28724705Y-62234444D01*
X28720868Y-62232023D01*
X28522153Y-62152743D01*
X28312317Y-62111004D01*
X28205352Y-62109604D01*
X28102927Y-62108263D01*
X28102923Y-62108263D01*
X28098388Y-62108204D01*
X28093913Y-62108973D01*
X28093912Y-62108973D01*
X27892001Y-62143668D01*
X27887532Y-62144436D01*
X27795375Y-62178434D01*
X27691072Y-62216913D01*
X27691069Y-62216914D01*
X27686809Y-62218486D01*
X27682906Y-62220808D01*
X27682904Y-62220809D01*
X27664055Y-62232023D01*
X27502942Y-62327876D01*
X27499527Y-62330871D01*
X27499524Y-62330873D01*
X27365261Y-62448619D01*
X27309045Y-62472772D01*
X27299986Y-62473187D01*
X26537944Y-62473187D01*
X26479753Y-62454280D01*
X26470743Y-62446885D01*
X26437154Y-62415836D01*
X26361809Y-62346188D01*
X26337537Y-62330873D01*
X26184705Y-62234444D01*
X26180868Y-62232023D01*
X25982153Y-62152743D01*
X25772317Y-62111004D01*
X25665352Y-62109604D01*
X25562927Y-62108263D01*
X25562923Y-62108263D01*
X25558388Y-62108204D01*
X25553913Y-62108973D01*
X25553912Y-62108973D01*
X25352001Y-62143668D01*
X25347532Y-62144436D01*
X25255375Y-62178434D01*
X25151072Y-62216913D01*
X25151069Y-62216914D01*
X25146809Y-62218486D01*
X25142906Y-62220808D01*
X25142904Y-62220809D01*
X25124055Y-62232023D01*
X24962942Y-62327876D01*
X24959527Y-62330871D01*
X24959524Y-62330873D01*
X24942061Y-62346188D01*
X24802088Y-62468941D01*
X24669635Y-62636957D01*
X24570018Y-62826297D01*
X24506574Y-63030620D01*
X24481428Y-63243084D01*
X24495420Y-63456572D01*
X24548084Y-63663936D01*
X24637655Y-63858230D01*
X24761133Y-64032948D01*
X24914384Y-64182238D01*
X24918157Y-64184759D01*
X25031919Y-64260773D01*
X25069798Y-64308823D01*
X25072200Y-64369961D01*
X25038207Y-64420835D01*
X24976917Y-64442088D01*
X24741103Y-64442088D01*
X24735763Y-64442377D01*
X24682479Y-64448165D01*
X24670494Y-64451014D01*
X24546659Y-64497438D01*
X24534406Y-64504146D01*
X24429258Y-64582950D01*
X24419377Y-64592831D01*
X24340573Y-64697979D01*
X24333865Y-64710232D01*
X24287442Y-64834065D01*
X24284591Y-64846054D01*
X24278803Y-64899339D01*
X24278514Y-64904673D01*
X24278514Y-65544007D01*
X24282636Y-65556692D01*
X24286757Y-65559687D01*
X29524916Y-65559687D01*
X29536867Y-65555804D01*
X29537195Y-65546148D01*
X29493979Y-65374098D01*
X29491366Y-65366422D01*
X29404675Y-65167045D01*
X29400842Y-65159898D01*
X29282750Y-64977356D01*
X29277811Y-64970942D01*
X29131483Y-64810129D01*
X29125560Y-64804605D01*
X28954935Y-64669854D01*
X28948191Y-64665374D01*
X28757849Y-64560299D01*
X28750463Y-64556979D01*
X28667235Y-64527507D01*
X28618694Y-64490259D01*
X28601316Y-64431594D01*
X28621740Y-64373918D01*
X28660016Y-64343744D01*
X28661331Y-64343159D01*
X28665625Y-64341701D01*
X28669577Y-64339488D01*
X28669581Y-64339486D01*
X28848333Y-64239379D01*
X28852292Y-64237162D01*
X29016783Y-64100356D01*
X29017418Y-64101119D01*
X29067885Y-64075406D01*
X29083372Y-64074187D01*
X29617322Y-64074187D01*
X29618360Y-64074192D01*
X29707720Y-64075128D01*
X29750954Y-64065780D01*
X29760829Y-64064164D01*
X29772326Y-64062874D01*
X29799288Y-64059850D01*
X29799292Y-64059849D01*
X29804785Y-64059233D01*
X29810005Y-64057415D01*
X29810010Y-64057414D01*
X29837630Y-64047795D01*
X29849268Y-64044524D01*
X29877843Y-64038346D01*
X29883255Y-64037176D01*
X29888269Y-64034838D01*
X29888275Y-64034836D01*
X29923337Y-64018486D01*
X29932619Y-64014717D01*
X29969157Y-64001993D01*
X29974386Y-64000172D01*
X30003879Y-63981743D01*
X30014500Y-63975977D01*
X30041006Y-63963617D01*
X30041013Y-63963613D01*
X30046020Y-63961278D01*
X30050386Y-63957891D01*
X30050393Y-63957887D01*
X30080972Y-63934167D01*
X30089188Y-63928435D01*
X30126688Y-63905003D01*
X30155141Y-63876748D01*
X30155850Y-63876085D01*
X30156490Y-63875588D01*
X30182350Y-63849728D01*
X30182595Y-63849485D01*
X30251712Y-63780849D01*
X30251718Y-63780842D01*
X30254120Y-63778457D01*
X30254755Y-63777456D01*
X30255915Y-63776163D01*
X32159712Y-61872366D01*
X32160450Y-61871636D01*
X32181848Y-61850682D01*
X32236653Y-61823478D01*
X32296981Y-61833682D01*
X32339790Y-61877398D01*
X32350114Y-61921416D01*
X32350114Y-71214687D01*
X32331207Y-71272878D01*
X32281707Y-71308842D01*
X32251114Y-71313687D01*
X21649114Y-71313687D01*
X21590923Y-71294780D01*
X21554959Y-71245280D01*
X21550114Y-71214687D01*
X21550114Y-66722698D01*
X24278515Y-66722698D01*
X24278804Y-66728038D01*
X24284592Y-66781322D01*
X24287441Y-66793307D01*
X24333865Y-66917142D01*
X24340573Y-66929395D01*
X24419377Y-67034543D01*
X24429258Y-67044424D01*
X24534406Y-67123228D01*
X24546659Y-67129936D01*
X24670492Y-67176359D01*
X24682481Y-67179210D01*
X24735766Y-67184998D01*
X24741100Y-67185287D01*
X25380434Y-67185287D01*
X25393119Y-67181165D01*
X25396114Y-67177044D01*
X25396114Y-67169606D01*
X25904114Y-67169606D01*
X25908236Y-67182291D01*
X25912357Y-67185286D01*
X26559125Y-67185286D01*
X26564465Y-67184997D01*
X26617749Y-67179209D01*
X26629734Y-67176360D01*
X26753569Y-67129936D01*
X26765822Y-67123228D01*
X26870970Y-67044424D01*
X26880851Y-67034543D01*
X26959655Y-66929395D01*
X26966363Y-66917142D01*
X27012785Y-66793311D01*
X27013585Y-66789947D01*
X27014783Y-66787983D01*
X27014966Y-66787494D01*
X27015059Y-66787529D01*
X27045439Y-66737707D01*
X27101915Y-66714168D01*
X27161442Y-66728319D01*
X27184730Y-66748025D01*
X27224511Y-66793949D01*
X27230294Y-66799612D01*
X27397573Y-66938491D01*
X27404208Y-66943137D01*
X27591930Y-67052832D01*
X27599226Y-67056328D01*
X27802344Y-67133891D01*
X27810114Y-67136149D01*
X27920751Y-67158658D01*
X27933960Y-67157153D01*
X27936114Y-67148972D01*
X27936114Y-67148351D01*
X28444114Y-67148351D01*
X28448236Y-67161036D01*
X28449764Y-67162147D01*
X28454998Y-67162637D01*
X28472234Y-67160429D01*
X28480157Y-67158745D01*
X28688397Y-67096269D01*
X28695945Y-67093311D01*
X28891192Y-66997661D01*
X28898147Y-66993514D01*
X29075151Y-66867259D01*
X29081335Y-66862033D01*
X29235339Y-66708566D01*
X29240595Y-66702389D01*
X29367461Y-66525836D01*
X29371634Y-66518891D01*
X29467966Y-66323979D01*
X29470946Y-66316455D01*
X29534152Y-66108418D01*
X29535862Y-66100505D01*
X29538136Y-66083232D01*
X29535706Y-66070118D01*
X29534404Y-66068882D01*
X29529122Y-66067687D01*
X28459794Y-66067687D01*
X28447109Y-66071809D01*
X28444114Y-66075930D01*
X28444114Y-67148351D01*
X27936114Y-67148351D01*
X27936114Y-66083367D01*
X27931992Y-66070682D01*
X27927871Y-66067687D01*
X25919794Y-66067687D01*
X25907109Y-66071809D01*
X25904114Y-66075930D01*
X25904114Y-67169606D01*
X25396114Y-67169606D01*
X25396114Y-66083367D01*
X25391992Y-66070682D01*
X25387871Y-66067687D01*
X24294195Y-66067687D01*
X24281510Y-66071809D01*
X24278515Y-66075930D01*
X24278515Y-66722698D01*
X21550114Y-66722698D01*
X21550114Y-60703084D01*
X24481428Y-60703084D01*
X24495420Y-60916572D01*
X24496536Y-60920965D01*
X24496536Y-60920967D01*
X24519378Y-61010907D01*
X24548084Y-61123936D01*
X24637655Y-61318230D01*
X24761133Y-61492948D01*
X24914384Y-61642238D01*
X25092274Y-61761101D01*
X25288846Y-61845555D01*
X25497518Y-61892772D01*
X25604409Y-61896972D01*
X25706766Y-61900994D01*
X25706767Y-61900994D01*
X25711299Y-61901172D01*
X25923032Y-61870472D01*
X25927331Y-61869013D01*
X25927334Y-61869012D01*
X26121324Y-61803161D01*
X26125625Y-61801701D01*
X26186251Y-61767749D01*
X26308333Y-61699379D01*
X26312292Y-61697162D01*
X26476783Y-61560356D01*
X26613589Y-61395865D01*
X26718128Y-61209198D01*
X26786899Y-61006605D01*
X26799953Y-60916572D01*
X26817179Y-60797771D01*
X26817179Y-60797765D01*
X26817599Y-60794872D01*
X26819201Y-60733687D01*
X26816389Y-60703084D01*
X27021428Y-60703084D01*
X27035420Y-60916572D01*
X27036536Y-60920965D01*
X27036536Y-60920967D01*
X27059378Y-61010907D01*
X27088084Y-61123936D01*
X27177655Y-61318230D01*
X27301133Y-61492948D01*
X27454384Y-61642238D01*
X27632274Y-61761101D01*
X27828846Y-61845555D01*
X28037518Y-61892772D01*
X28144409Y-61896972D01*
X28246766Y-61900994D01*
X28246767Y-61900994D01*
X28251299Y-61901172D01*
X28463032Y-61870472D01*
X28467331Y-61869013D01*
X28467334Y-61869012D01*
X28661324Y-61803161D01*
X28665625Y-61801701D01*
X28726251Y-61767749D01*
X28848333Y-61699379D01*
X28852292Y-61697162D01*
X29016783Y-61560356D01*
X29153589Y-61395865D01*
X29258128Y-61209198D01*
X29326899Y-61006605D01*
X29339953Y-60916572D01*
X29357179Y-60797771D01*
X29357179Y-60797765D01*
X29357599Y-60794872D01*
X29359201Y-60733687D01*
X29339625Y-60520638D01*
X29281551Y-60314724D01*
X29269667Y-60290626D01*
X29188936Y-60126918D01*
X29188934Y-60126914D01*
X29186925Y-60122841D01*
X29058915Y-59951415D01*
X28901809Y-59806188D01*
X28877537Y-59790873D01*
X28724705Y-59694444D01*
X28720868Y-59692023D01*
X28522153Y-59612743D01*
X28312317Y-59571004D01*
X28205352Y-59569604D01*
X28102927Y-59568263D01*
X28102923Y-59568263D01*
X28098388Y-59568204D01*
X28093913Y-59568973D01*
X28093912Y-59568973D01*
X27892001Y-59603668D01*
X27887532Y-59604436D01*
X27795375Y-59638434D01*
X27691072Y-59676913D01*
X27691069Y-59676914D01*
X27686809Y-59678486D01*
X27682906Y-59680808D01*
X27682904Y-59680809D01*
X27664055Y-59692023D01*
X27502942Y-59787876D01*
X27499527Y-59790871D01*
X27499524Y-59790873D01*
X27482061Y-59806188D01*
X27342088Y-59928941D01*
X27209635Y-60096957D01*
X27110018Y-60286297D01*
X27046574Y-60490620D01*
X27021428Y-60703084D01*
X26816389Y-60703084D01*
X26799625Y-60520638D01*
X26741551Y-60314724D01*
X26729667Y-60290626D01*
X26648936Y-60126918D01*
X26648934Y-60126914D01*
X26646925Y-60122841D01*
X26518915Y-59951415D01*
X26361809Y-59806188D01*
X26337537Y-59790873D01*
X26184705Y-59694444D01*
X26180868Y-59692023D01*
X25982153Y-59612743D01*
X25772317Y-59571004D01*
X25665352Y-59569604D01*
X25562927Y-59568263D01*
X25562923Y-59568263D01*
X25558388Y-59568204D01*
X25553913Y-59568973D01*
X25553912Y-59568973D01*
X25352001Y-59603668D01*
X25347532Y-59604436D01*
X25255375Y-59638434D01*
X25151072Y-59676913D01*
X25151069Y-59676914D01*
X25146809Y-59678486D01*
X25142906Y-59680808D01*
X25142904Y-59680809D01*
X25124055Y-59692023D01*
X24962942Y-59787876D01*
X24959527Y-59790871D01*
X24959524Y-59790873D01*
X24942061Y-59806188D01*
X24802088Y-59928941D01*
X24669635Y-60096957D01*
X24570018Y-60286297D01*
X24506574Y-60490620D01*
X24481428Y-60703084D01*
X21550114Y-60703084D01*
X21550114Y-45156920D01*
X26045020Y-45156920D01*
X26045360Y-45160482D01*
X26045360Y-45160489D01*
X26068062Y-45398422D01*
X26071216Y-45431479D01*
X26136771Y-45699381D01*
X26240313Y-45955013D01*
X26379672Y-46193022D01*
X26551930Y-46408419D01*
X26753478Y-46596695D01*
X26980093Y-46753903D01*
X26983298Y-46755498D01*
X26983304Y-46755501D01*
X27223813Y-46875153D01*
X27223818Y-46875155D01*
X27227028Y-46876752D01*
X27230439Y-46877870D01*
X27230441Y-46877871D01*
X27485707Y-46961551D01*
X27485710Y-46961552D01*
X27489112Y-46962667D01*
X27760852Y-47009849D01*
X27811274Y-47012359D01*
X27846758Y-47014126D01*
X27846771Y-47014126D01*
X27847990Y-47014187D01*
X28020184Y-47014187D01*
X28225197Y-46999312D01*
X28255604Y-46992599D01*
X28491018Y-46940624D01*
X28491024Y-46940622D01*
X28494517Y-46939851D01*
X28497866Y-46938582D01*
X28497870Y-46938581D01*
X28661065Y-46876752D01*
X28752433Y-46842136D01*
X28993542Y-46708212D01*
X29212792Y-46540885D01*
X29405591Y-46343661D01*
X29517490Y-46189929D01*
X29565796Y-46123563D01*
X29567901Y-46120671D01*
X29696320Y-45876586D01*
X29788159Y-45616519D01*
X29841494Y-45345919D01*
X29855208Y-45070454D01*
X29854868Y-45066892D01*
X29854868Y-45066885D01*
X29829353Y-44799466D01*
X29829352Y-44799462D01*
X29829012Y-44795895D01*
X29763457Y-44527993D01*
X29659915Y-44272361D01*
X29520556Y-44034352D01*
X29348298Y-43818955D01*
X29146750Y-43630679D01*
X28920135Y-43473471D01*
X28916930Y-43471876D01*
X28916924Y-43471873D01*
X28676415Y-43352221D01*
X28676410Y-43352219D01*
X28673200Y-43350622D01*
X28669789Y-43349504D01*
X28669787Y-43349503D01*
X28414521Y-43265823D01*
X28414518Y-43265822D01*
X28411116Y-43264707D01*
X28139376Y-43217525D01*
X28088954Y-43215015D01*
X28053470Y-43213248D01*
X28053457Y-43213248D01*
X28052238Y-43213187D01*
X27880044Y-43213187D01*
X27675031Y-43228062D01*
X27671520Y-43228837D01*
X27671521Y-43228837D01*
X27409210Y-43286750D01*
X27409204Y-43286752D01*
X27405711Y-43287523D01*
X27402362Y-43288792D01*
X27402358Y-43288793D01*
X27298299Y-43328217D01*
X27147795Y-43385238D01*
X26906686Y-43519162D01*
X26687436Y-43686489D01*
X26494637Y-43883713D01*
X26492528Y-43886610D01*
X26492525Y-43886614D01*
X26334432Y-44103811D01*
X26332327Y-44106703D01*
X26203908Y-44350788D01*
X26112069Y-44610855D01*
X26058734Y-44881455D01*
X26045020Y-45156920D01*
X21550114Y-45156920D01*
X21550114Y-32512687D01*
X21569021Y-32454496D01*
X21618521Y-32418532D01*
X21649114Y-32413687D01*
X29594497Y-32413687D01*
X29604159Y-32414160D01*
X29611555Y-32414885D01*
X29620332Y-32417427D01*
X29629433Y-32416639D01*
X29629435Y-32416639D01*
X29659255Y-32414056D01*
X29667797Y-32413687D01*
X29678019Y-32413687D01*
X29682497Y-32412853D01*
X29682508Y-32412852D01*
X29685868Y-32412226D01*
X29695450Y-32410921D01*
X29702252Y-32410332D01*
X29722568Y-32408573D01*
X29722570Y-32408572D01*
X29731674Y-32407784D01*
X29739885Y-32403770D01*
X29745539Y-32402202D01*
X29750998Y-32400095D01*
X29759984Y-32398422D01*
X29790951Y-32379334D01*
X29799420Y-32374669D01*
X29823867Y-32362719D01*
X29823868Y-32362718D01*
X29832080Y-32358704D01*
X29838294Y-32352005D01*
X29842997Y-32348512D01*
X29847341Y-32344573D01*
X29855121Y-32339778D01*
X29877133Y-32310831D01*
X29883356Y-32303428D01*
X29901870Y-32283470D01*
X29901870Y-32283469D01*
X29908085Y-32276770D01*
X29911472Y-32268281D01*
X29914602Y-32263330D01*
X29917235Y-32258095D01*
X29922768Y-32250818D01*
X29932880Y-32215898D01*
X29936021Y-32206749D01*
X29946911Y-32179454D01*
X29946911Y-32179453D01*
X29949499Y-32172967D01*
X29950114Y-32166694D01*
X29950114Y-32165756D01*
X29950846Y-32161387D01*
X29950420Y-32161345D01*
X29951312Y-32152246D01*
X29953854Y-32143469D01*
X29952436Y-32127089D01*
X29950483Y-32104546D01*
X29950114Y-32096004D01*
X29950114Y-25512687D01*
X29969021Y-25454496D01*
X30018521Y-25418532D01*
X30049114Y-25413687D01*
X31409645Y-25413687D01*
X31467836Y-25432594D01*
G37*
G04 #@! TD.AperFunction*
G04 #@! TA.AperFunction,Conductor*
G36*
X34285946Y-38084744D02*
G01*
X34333764Y-38122917D01*
X34350114Y-38177414D01*
X34350114Y-44714687D01*
X34331207Y-44772878D01*
X34281707Y-44808842D01*
X34251114Y-44813687D01*
X32705731Y-44813687D01*
X32696069Y-44813214D01*
X32688673Y-44812489D01*
X32679896Y-44809947D01*
X32670795Y-44810735D01*
X32670793Y-44810735D01*
X32640973Y-44813318D01*
X32632431Y-44813687D01*
X32622209Y-44813687D01*
X32617731Y-44814521D01*
X32617720Y-44814522D01*
X32614360Y-44815148D01*
X32604778Y-44816453D01*
X32597976Y-44817042D01*
X32577660Y-44818801D01*
X32577658Y-44818802D01*
X32568554Y-44819590D01*
X32560341Y-44823605D01*
X32554683Y-44825174D01*
X32549228Y-44827279D01*
X32540244Y-44828952D01*
X32534043Y-44832774D01*
X32474044Y-44836024D01*
X32422672Y-44802790D01*
X32400500Y-44740353D01*
X32400500Y-38513187D01*
X32419407Y-38454996D01*
X32468907Y-38419032D01*
X32499500Y-38414187D01*
X33620537Y-38414186D01*
X33637950Y-38414186D01*
X33642703Y-38413913D01*
X33646784Y-38412971D01*
X33646790Y-38412970D01*
X33812304Y-38374758D01*
X33812307Y-38374757D01*
X33817691Y-38373514D01*
X33979380Y-38295351D01*
X34119734Y-38183307D01*
X34173745Y-38115650D01*
X34224824Y-38081969D01*
X34285946Y-38084744D01*
G37*
G04 #@! TD.AperFunction*
M02*
