G04 #@! TF.GenerationSoftware,KiCad,Pcbnew,(6.0.1-0)*
G04 #@! TF.CreationDate,2022-08-23T12:06:24-04:00*
G04 #@! TF.ProjectId,indexingWheel,696e6465-7869-46e6-9757-6865656c2e6b,rev?*
G04 #@! TF.SameCoordinates,Original*
G04 #@! TF.FileFunction,Legend,Top*
G04 #@! TF.FilePolarity,Positive*
%FSLAX46Y46*%
G04 Gerber Fmt 4.6, Leading zero omitted, Abs format (unit mm)*
G04 Created by KiCad (PCBNEW (6.0.1-0)) date 2022-08-23 12:06:24*
%MOMM*%
%LPD*%
G01*
G04 APERTURE LIST*
%ADD10C,0.120000*%
%ADD11C,0.150000*%
%ADD12C,0.010000*%
G04 APERTURE END LIST*
D10*
X153500000Y-93000000D02*
G75*
G03*
X153500000Y-93000000I-4000000J0D01*
G01*
D11*
X144095238Y-99642380D02*
X144095238Y-98642380D01*
X144571428Y-98975714D02*
X144571428Y-99642380D01*
X144571428Y-99070952D02*
X144619047Y-99023333D01*
X144714285Y-98975714D01*
X144857142Y-98975714D01*
X144952380Y-99023333D01*
X145000000Y-99118571D01*
X145000000Y-99642380D01*
X145904761Y-99642380D02*
X145904761Y-98642380D01*
X145904761Y-99594761D02*
X145809523Y-99642380D01*
X145619047Y-99642380D01*
X145523809Y-99594761D01*
X145476190Y-99547142D01*
X145428571Y-99451904D01*
X145428571Y-99166190D01*
X145476190Y-99070952D01*
X145523809Y-99023333D01*
X145619047Y-98975714D01*
X145809523Y-98975714D01*
X145904761Y-99023333D01*
X146761904Y-99594761D02*
X146666666Y-99642380D01*
X146476190Y-99642380D01*
X146380952Y-99594761D01*
X146333333Y-99499523D01*
X146333333Y-99118571D01*
X146380952Y-99023333D01*
X146476190Y-98975714D01*
X146666666Y-98975714D01*
X146761904Y-99023333D01*
X146809523Y-99118571D01*
X146809523Y-99213809D01*
X146333333Y-99309047D01*
X147142857Y-99642380D02*
X147666666Y-98975714D01*
X147142857Y-98975714D02*
X147666666Y-99642380D01*
X148047619Y-99642380D02*
X148047619Y-98975714D01*
X148047619Y-98642380D02*
X148000000Y-98690000D01*
X148047619Y-98737619D01*
X148095238Y-98690000D01*
X148047619Y-98642380D01*
X148047619Y-98737619D01*
X148523809Y-98975714D02*
X148523809Y-99642380D01*
X148523809Y-99070952D02*
X148571428Y-99023333D01*
X148666666Y-98975714D01*
X148809523Y-98975714D01*
X148904761Y-99023333D01*
X148952380Y-99118571D01*
X148952380Y-99642380D01*
X149857142Y-98975714D02*
X149857142Y-99785238D01*
X149809523Y-99880476D01*
X149761904Y-99928095D01*
X149666666Y-99975714D01*
X149523809Y-99975714D01*
X149428571Y-99928095D01*
X149857142Y-99594761D02*
X149761904Y-99642380D01*
X149571428Y-99642380D01*
X149476190Y-99594761D01*
X149428571Y-99547142D01*
X149380952Y-99451904D01*
X149380952Y-99166190D01*
X149428571Y-99070952D01*
X149476190Y-99023333D01*
X149571428Y-98975714D01*
X149761904Y-98975714D01*
X149857142Y-99023333D01*
X151000000Y-98642380D02*
X151238095Y-99642380D01*
X151428571Y-98928095D01*
X151619047Y-99642380D01*
X151857142Y-98642380D01*
X152238095Y-99642380D02*
X152238095Y-98642380D01*
X152666666Y-99642380D02*
X152666666Y-99118571D01*
X152619047Y-99023333D01*
X152523809Y-98975714D01*
X152380952Y-98975714D01*
X152285714Y-99023333D01*
X152238095Y-99070952D01*
X153523809Y-99594761D02*
X153428571Y-99642380D01*
X153238095Y-99642380D01*
X153142857Y-99594761D01*
X153095238Y-99499523D01*
X153095238Y-99118571D01*
X153142857Y-99023333D01*
X153238095Y-98975714D01*
X153428571Y-98975714D01*
X153523809Y-99023333D01*
X153571428Y-99118571D01*
X153571428Y-99213809D01*
X153095238Y-99309047D01*
X154380952Y-99594761D02*
X154285714Y-99642380D01*
X154095238Y-99642380D01*
X154000000Y-99594761D01*
X153952380Y-99499523D01*
X153952380Y-99118571D01*
X154000000Y-99023333D01*
X154095238Y-98975714D01*
X154285714Y-98975714D01*
X154380952Y-99023333D01*
X154428571Y-99118571D01*
X154428571Y-99213809D01*
X153952380Y-99309047D01*
X155000000Y-99642380D02*
X154904761Y-99594761D01*
X154857142Y-99499523D01*
X154857142Y-98642380D01*
X147976190Y-101252380D02*
X147642857Y-100776190D01*
X147404761Y-101252380D02*
X147404761Y-100252380D01*
X147785714Y-100252380D01*
X147880952Y-100300000D01*
X147928571Y-100347619D01*
X147976190Y-100442857D01*
X147976190Y-100585714D01*
X147928571Y-100680952D01*
X147880952Y-100728571D01*
X147785714Y-100776190D01*
X147404761Y-100776190D01*
X148404761Y-100728571D02*
X148738095Y-100728571D01*
X148880952Y-101252380D02*
X148404761Y-101252380D01*
X148404761Y-100252380D01*
X148880952Y-100252380D01*
X149166666Y-100252380D02*
X149500000Y-101252380D01*
X149833333Y-100252380D01*
X150357142Y-100252380D02*
X150452380Y-100252380D01*
X150547619Y-100300000D01*
X150595238Y-100347619D01*
X150642857Y-100442857D01*
X150690476Y-100633333D01*
X150690476Y-100871428D01*
X150642857Y-101061904D01*
X150595238Y-101157142D01*
X150547619Y-101204761D01*
X150452380Y-101252380D01*
X150357142Y-101252380D01*
X150261904Y-101204761D01*
X150214285Y-101157142D01*
X150166666Y-101061904D01*
X150119047Y-100871428D01*
X150119047Y-100633333D01*
X150166666Y-100442857D01*
X150214285Y-100347619D01*
X150261904Y-100300000D01*
X150357142Y-100252380D01*
X151023809Y-100252380D02*
X151642857Y-100252380D01*
X151309523Y-100633333D01*
X151452380Y-100633333D01*
X151547619Y-100680952D01*
X151595238Y-100728571D01*
X151642857Y-100823809D01*
X151642857Y-101061904D01*
X151595238Y-101157142D01*
X151547619Y-101204761D01*
X151452380Y-101252380D01*
X151166666Y-101252380D01*
X151071428Y-101204761D01*
X151023809Y-101157142D01*
X146047619Y-101862380D02*
X146238095Y-101862380D01*
X146333333Y-101910000D01*
X146428571Y-102005238D01*
X146476190Y-102195714D01*
X146476190Y-102529047D01*
X146428571Y-102719523D01*
X146333333Y-102814761D01*
X146238095Y-102862380D01*
X146047619Y-102862380D01*
X145952380Y-102814761D01*
X145857142Y-102719523D01*
X145809523Y-102529047D01*
X145809523Y-102195714D01*
X145857142Y-102005238D01*
X145952380Y-101910000D01*
X146047619Y-101862380D01*
X146904761Y-102195714D02*
X146904761Y-103195714D01*
X146904761Y-102243333D02*
X147000000Y-102195714D01*
X147190476Y-102195714D01*
X147285714Y-102243333D01*
X147333333Y-102290952D01*
X147380952Y-102386190D01*
X147380952Y-102671904D01*
X147333333Y-102767142D01*
X147285714Y-102814761D01*
X147190476Y-102862380D01*
X147000000Y-102862380D01*
X146904761Y-102814761D01*
X148238095Y-102195714D02*
X148238095Y-102862380D01*
X147809523Y-102195714D02*
X147809523Y-102719523D01*
X147857142Y-102814761D01*
X147952380Y-102862380D01*
X148095238Y-102862380D01*
X148190476Y-102814761D01*
X148238095Y-102767142D01*
X148857142Y-102862380D02*
X148761904Y-102814761D01*
X148714285Y-102719523D01*
X148714285Y-101862380D01*
X149380952Y-102862380D02*
X149285714Y-102814761D01*
X149238095Y-102767142D01*
X149190476Y-102671904D01*
X149190476Y-102386190D01*
X149238095Y-102290952D01*
X149285714Y-102243333D01*
X149380952Y-102195714D01*
X149523809Y-102195714D01*
X149619047Y-102243333D01*
X149666666Y-102290952D01*
X149714285Y-102386190D01*
X149714285Y-102671904D01*
X149666666Y-102767142D01*
X149619047Y-102814761D01*
X149523809Y-102862380D01*
X149380952Y-102862380D01*
X150904761Y-102862380D02*
X150904761Y-101862380D01*
X151380952Y-102195714D02*
X151380952Y-102862380D01*
X151380952Y-102290952D02*
X151428571Y-102243333D01*
X151523809Y-102195714D01*
X151666666Y-102195714D01*
X151761904Y-102243333D01*
X151809523Y-102338571D01*
X151809523Y-102862380D01*
X152714285Y-102814761D02*
X152619047Y-102862380D01*
X152428571Y-102862380D01*
X152333333Y-102814761D01*
X152285714Y-102767142D01*
X152238095Y-102671904D01*
X152238095Y-102386190D01*
X152285714Y-102290952D01*
X152333333Y-102243333D01*
X152428571Y-102195714D01*
X152619047Y-102195714D01*
X152714285Y-102243333D01*
X153142857Y-102767142D02*
X153190476Y-102814761D01*
X153142857Y-102862380D01*
X153095238Y-102814761D01*
X153142857Y-102767142D01*
X153142857Y-102862380D01*
D12*
X149669333Y-82056102D02*
X149763869Y-82065788D01*
X149763869Y-82065788D02*
X150022960Y-82106461D01*
X150022960Y-82106461D02*
X150278270Y-82175028D01*
X150278270Y-82175028D02*
X150529979Y-82271540D01*
X150529979Y-82271540D02*
X150650055Y-82328050D01*
X150650055Y-82328050D02*
X150792674Y-82403651D01*
X150792674Y-82403651D02*
X150919534Y-82481262D01*
X150919534Y-82481262D02*
X151037813Y-82566129D01*
X151037813Y-82566129D02*
X151154691Y-82663492D01*
X151154691Y-82663492D02*
X151277345Y-82778597D01*
X151277345Y-82778597D02*
X151306554Y-82807557D01*
X151306554Y-82807557D02*
X151426386Y-82932508D01*
X151426386Y-82932508D02*
X151527294Y-83050062D01*
X151527294Y-83050062D02*
X151614522Y-83167398D01*
X151614522Y-83167398D02*
X151693312Y-83291694D01*
X151693312Y-83291694D02*
X151768909Y-83430130D01*
X151768909Y-83430130D02*
X151786061Y-83464055D01*
X151786061Y-83464055D02*
X151896061Y-83714092D01*
X151896061Y-83714092D02*
X151978089Y-83967644D01*
X151978089Y-83967644D02*
X152032199Y-84224891D01*
X152032199Y-84224891D02*
X152048323Y-84350241D01*
X152048323Y-84350241D02*
X152058008Y-84444778D01*
X152058008Y-84444778D02*
X152350444Y-84444778D01*
X152350444Y-84444778D02*
X152350444Y-84769333D01*
X152350444Y-84769333D02*
X152057399Y-84769333D01*
X152057399Y-84769333D02*
X152047535Y-84864583D01*
X152047535Y-84864583D02*
X152007659Y-85121009D01*
X152007659Y-85121009D02*
X151941477Y-85371033D01*
X151941477Y-85371033D02*
X151848236Y-85617208D01*
X151848236Y-85617208D02*
X151786061Y-85750055D01*
X151786061Y-85750055D02*
X151710460Y-85892674D01*
X151710460Y-85892674D02*
X151632848Y-86019534D01*
X151632848Y-86019534D02*
X151547982Y-86137813D01*
X151547982Y-86137813D02*
X151450619Y-86254691D01*
X151450619Y-86254691D02*
X151335514Y-86377345D01*
X151335514Y-86377345D02*
X151306554Y-86406554D01*
X151306554Y-86406554D02*
X151181603Y-86526386D01*
X151181603Y-86526386D02*
X151064049Y-86627294D01*
X151064049Y-86627294D02*
X150946713Y-86714522D01*
X150946713Y-86714522D02*
X150822416Y-86793312D01*
X150822416Y-86793312D02*
X150683980Y-86868909D01*
X150683980Y-86868909D02*
X150650055Y-86886061D01*
X150650055Y-86886061D02*
X150400019Y-86996061D01*
X150400019Y-86996061D02*
X150146466Y-87078089D01*
X150146466Y-87078089D02*
X149889220Y-87132199D01*
X149889220Y-87132199D02*
X149763869Y-87148323D01*
X149763869Y-87148323D02*
X149669333Y-87158008D01*
X149669333Y-87158008D02*
X149669333Y-87450444D01*
X149669333Y-87450444D02*
X149344778Y-87450444D01*
X149344778Y-87450444D02*
X149344778Y-87158008D01*
X149344778Y-87158008D02*
X149250241Y-87148323D01*
X149250241Y-87148323D02*
X148991151Y-87107649D01*
X148991151Y-87107649D02*
X148735840Y-87039083D01*
X148735840Y-87039083D02*
X148484132Y-86942570D01*
X148484132Y-86942570D02*
X148364055Y-86886061D01*
X148364055Y-86886061D02*
X148221437Y-86810460D01*
X148221437Y-86810460D02*
X148094577Y-86732848D01*
X148094577Y-86732848D02*
X147976298Y-86647982D01*
X147976298Y-86647982D02*
X147859420Y-86550619D01*
X147859420Y-86550619D02*
X147736765Y-86435514D01*
X147736765Y-86435514D02*
X147707557Y-86406554D01*
X147707557Y-86406554D02*
X147587725Y-86281603D01*
X147587725Y-86281603D02*
X147486817Y-86164049D01*
X147486817Y-86164049D02*
X147399589Y-86046713D01*
X147399589Y-86046713D02*
X147320798Y-85922416D01*
X147320798Y-85922416D02*
X147245202Y-85783980D01*
X147245202Y-85783980D02*
X147228050Y-85750055D01*
X147228050Y-85750055D02*
X147118050Y-85500019D01*
X147118050Y-85500019D02*
X147036021Y-85246466D01*
X147036021Y-85246466D02*
X146981912Y-84989220D01*
X146981912Y-84989220D02*
X146965788Y-84863869D01*
X146965788Y-84863869D02*
X146956102Y-84769333D01*
X146956102Y-84769333D02*
X146663667Y-84769333D01*
X146663667Y-84769333D02*
X146663667Y-84444778D01*
X146663667Y-84444778D02*
X146956102Y-84444778D01*
X146956102Y-84444778D02*
X147294769Y-84444778D01*
X147294769Y-84444778D02*
X148709778Y-84444778D01*
X148709778Y-84444778D02*
X148709778Y-84769333D01*
X148709778Y-84769333D02*
X147294769Y-84769333D01*
X147294769Y-84769333D02*
X147304476Y-84864583D01*
X147304476Y-84864583D02*
X147340361Y-85084313D01*
X147340361Y-85084313D02*
X147402406Y-85304567D01*
X147402406Y-85304567D02*
X147488889Y-85521475D01*
X147488889Y-85521475D02*
X147598093Y-85731165D01*
X147598093Y-85731165D02*
X147728296Y-85929766D01*
X147728296Y-85929766D02*
X147840199Y-86070858D01*
X147840199Y-86070858D02*
X147993404Y-86228821D01*
X147993404Y-86228821D02*
X148168050Y-86373377D01*
X148168050Y-86373377D02*
X148359457Y-86501804D01*
X148359457Y-86501804D02*
X148562945Y-86611383D01*
X148562945Y-86611383D02*
X148773835Y-86699390D01*
X148773835Y-86699390D02*
X148987446Y-86763106D01*
X148987446Y-86763106D02*
X149056532Y-86778102D01*
X149056532Y-86778102D02*
X149129763Y-86792329D01*
X149129763Y-86792329D02*
X149182120Y-86801925D01*
X149182120Y-86801925D02*
X149220380Y-86807910D01*
X149220380Y-86807910D02*
X149251318Y-86811303D01*
X149251318Y-86811303D02*
X149281713Y-86813125D01*
X149281713Y-86813125D02*
X149291861Y-86813523D01*
X149291861Y-86813523D02*
X149344778Y-86815444D01*
X149344778Y-86815444D02*
X149344778Y-86321555D01*
X149344778Y-86321555D02*
X149669333Y-86321555D01*
X149669333Y-86321555D02*
X149669333Y-86819342D01*
X149669333Y-86819342D02*
X149764583Y-86809635D01*
X149764583Y-86809635D02*
X149983298Y-86773883D01*
X149983298Y-86773883D02*
X150202090Y-86712335D01*
X150202090Y-86712335D02*
X150416909Y-86627114D01*
X150416909Y-86627114D02*
X150623706Y-86520343D01*
X150623706Y-86520343D02*
X150818431Y-86394146D01*
X150818431Y-86394146D02*
X150997033Y-86250645D01*
X150997033Y-86250645D02*
X151155463Y-86091964D01*
X151155463Y-86091964D02*
X151173912Y-86070858D01*
X151173912Y-86070858D02*
X151318922Y-85883270D01*
X151318922Y-85883270D02*
X151444237Y-85681651D01*
X151444237Y-85681651D02*
X151548139Y-85469873D01*
X151548139Y-85469873D02*
X151628907Y-85251808D01*
X151628907Y-85251808D02*
X151684824Y-85031326D01*
X151684824Y-85031326D02*
X151709635Y-84864583D01*
X151709635Y-84864583D02*
X151719342Y-84769333D01*
X151719342Y-84769333D02*
X151221555Y-84769333D01*
X151221555Y-84769333D02*
X151221555Y-84444778D01*
X151221555Y-84444778D02*
X151719342Y-84444778D01*
X151719342Y-84444778D02*
X151709635Y-84349528D01*
X151709635Y-84349528D02*
X151673749Y-84129798D01*
X151673749Y-84129798D02*
X151611705Y-83909544D01*
X151611705Y-83909544D02*
X151525222Y-83692636D01*
X151525222Y-83692636D02*
X151416018Y-83482946D01*
X151416018Y-83482946D02*
X151285814Y-83284345D01*
X151285814Y-83284345D02*
X151173912Y-83143253D01*
X151173912Y-83143253D02*
X151018331Y-82982797D01*
X151018331Y-82982797D02*
X150842063Y-82837253D01*
X150842063Y-82837253D02*
X150649159Y-82708743D01*
X150649159Y-82708743D02*
X150443669Y-82599391D01*
X150443669Y-82599391D02*
X150229643Y-82511319D01*
X150229643Y-82511319D02*
X150011131Y-82446651D01*
X150011131Y-82446651D02*
X149792182Y-82407509D01*
X149792182Y-82407509D02*
X149764583Y-82404476D01*
X149764583Y-82404476D02*
X149669333Y-82394769D01*
X149669333Y-82394769D02*
X149669333Y-83809778D01*
X149669333Y-83809778D02*
X149344778Y-83809778D01*
X149344778Y-83809778D02*
X149344778Y-82394769D01*
X149344778Y-82394769D02*
X149249528Y-82404476D01*
X149249528Y-82404476D02*
X149030813Y-82440228D01*
X149030813Y-82440228D02*
X148812021Y-82501776D01*
X148812021Y-82501776D02*
X148597202Y-82586997D01*
X148597202Y-82586997D02*
X148390405Y-82693767D01*
X148390405Y-82693767D02*
X148195680Y-82819965D01*
X148195680Y-82819965D02*
X148017078Y-82963466D01*
X148017078Y-82963466D02*
X147858648Y-83122147D01*
X147858648Y-83122147D02*
X147840199Y-83143253D01*
X147840199Y-83143253D02*
X147695189Y-83330841D01*
X147695189Y-83330841D02*
X147569874Y-83532460D01*
X147569874Y-83532460D02*
X147465972Y-83744238D01*
X147465972Y-83744238D02*
X147385204Y-83962303D01*
X147385204Y-83962303D02*
X147329287Y-84182784D01*
X147329287Y-84182784D02*
X147304476Y-84349528D01*
X147304476Y-84349528D02*
X147294769Y-84444778D01*
X147294769Y-84444778D02*
X146956102Y-84444778D01*
X146956102Y-84444778D02*
X146965788Y-84350241D01*
X146965788Y-84350241D02*
X147006461Y-84091151D01*
X147006461Y-84091151D02*
X147075028Y-83835840D01*
X147075028Y-83835840D02*
X147171540Y-83584132D01*
X147171540Y-83584132D02*
X147228050Y-83464055D01*
X147228050Y-83464055D02*
X147303651Y-83321437D01*
X147303651Y-83321437D02*
X147381262Y-83194577D01*
X147381262Y-83194577D02*
X147466129Y-83076298D01*
X147466129Y-83076298D02*
X147563492Y-82959420D01*
X147563492Y-82959420D02*
X147678597Y-82836765D01*
X147678597Y-82836765D02*
X147707557Y-82807557D01*
X147707557Y-82807557D02*
X147832508Y-82687725D01*
X147832508Y-82687725D02*
X147950062Y-82586817D01*
X147950062Y-82586817D02*
X148067398Y-82499589D01*
X148067398Y-82499589D02*
X148191694Y-82420798D01*
X148191694Y-82420798D02*
X148330130Y-82345202D01*
X148330130Y-82345202D02*
X148364055Y-82328050D01*
X148364055Y-82328050D02*
X148614092Y-82218050D01*
X148614092Y-82218050D02*
X148867644Y-82136021D01*
X148867644Y-82136021D02*
X149124891Y-82081912D01*
X149124891Y-82081912D02*
X149250241Y-82065788D01*
X149250241Y-82065788D02*
X149344778Y-82056102D01*
X149344778Y-82056102D02*
X149344778Y-81763667D01*
X149344778Y-81763667D02*
X149669333Y-81763667D01*
X149669333Y-81763667D02*
X149669333Y-82056102D01*
X149669333Y-82056102D02*
X149669333Y-82056102D01*
G36*
X147006461Y-84091151D02*
G01*
X147075028Y-83835840D01*
X147171540Y-83584132D01*
X147228050Y-83464055D01*
X147303651Y-83321437D01*
X147381262Y-83194577D01*
X147466129Y-83076298D01*
X147563492Y-82959420D01*
X147678597Y-82836765D01*
X147707557Y-82807557D01*
X147832508Y-82687725D01*
X147950062Y-82586817D01*
X148067398Y-82499589D01*
X148191694Y-82420798D01*
X148330130Y-82345202D01*
X148364055Y-82328050D01*
X148614092Y-82218050D01*
X148867644Y-82136021D01*
X149124891Y-82081912D01*
X149250241Y-82065788D01*
X149344778Y-82056102D01*
X149344778Y-81763667D01*
X149669333Y-81763667D01*
X149669333Y-82056102D01*
X149763869Y-82065788D01*
X150022960Y-82106461D01*
X150278270Y-82175028D01*
X150529979Y-82271540D01*
X150650055Y-82328050D01*
X150792674Y-82403651D01*
X150919534Y-82481262D01*
X151037813Y-82566129D01*
X151154691Y-82663492D01*
X151277345Y-82778597D01*
X151306554Y-82807557D01*
X151426386Y-82932508D01*
X151527294Y-83050062D01*
X151614522Y-83167398D01*
X151693312Y-83291694D01*
X151768909Y-83430130D01*
X151786061Y-83464055D01*
X151896061Y-83714092D01*
X151978089Y-83967644D01*
X152032199Y-84224891D01*
X152048323Y-84350241D01*
X152058008Y-84444778D01*
X152350444Y-84444778D01*
X152350444Y-84769333D01*
X152057399Y-84769333D01*
X152047535Y-84864583D01*
X152007659Y-85121009D01*
X151941477Y-85371033D01*
X151848236Y-85617208D01*
X151786061Y-85750055D01*
X151710460Y-85892674D01*
X151632848Y-86019534D01*
X151547982Y-86137813D01*
X151450619Y-86254691D01*
X151335514Y-86377345D01*
X151306554Y-86406554D01*
X151181603Y-86526386D01*
X151064049Y-86627294D01*
X150946713Y-86714522D01*
X150822416Y-86793312D01*
X150683980Y-86868909D01*
X150650055Y-86886061D01*
X150400019Y-86996061D01*
X150146466Y-87078089D01*
X149889220Y-87132199D01*
X149763869Y-87148323D01*
X149669333Y-87158008D01*
X149669333Y-87450444D01*
X149344778Y-87450444D01*
X149344778Y-87158008D01*
X149250241Y-87148323D01*
X148991151Y-87107649D01*
X148735840Y-87039083D01*
X148484132Y-86942570D01*
X148364055Y-86886061D01*
X148221437Y-86810460D01*
X148094577Y-86732848D01*
X147976298Y-86647982D01*
X147859420Y-86550619D01*
X147736765Y-86435514D01*
X147707557Y-86406554D01*
X147587725Y-86281603D01*
X147486817Y-86164049D01*
X147399589Y-86046713D01*
X147320798Y-85922416D01*
X147245202Y-85783980D01*
X147228050Y-85750055D01*
X147118050Y-85500019D01*
X147036021Y-85246466D01*
X146981912Y-84989220D01*
X146965788Y-84863869D01*
X146956102Y-84769333D01*
X146663667Y-84769333D01*
X146663667Y-84444778D01*
X146956102Y-84444778D01*
X147294769Y-84444778D01*
X148709778Y-84444778D01*
X148709778Y-84769333D01*
X147294769Y-84769333D01*
X147304476Y-84864583D01*
X147340361Y-85084313D01*
X147402406Y-85304567D01*
X147488889Y-85521475D01*
X147598093Y-85731165D01*
X147728296Y-85929766D01*
X147840199Y-86070858D01*
X147993404Y-86228821D01*
X148168050Y-86373377D01*
X148359457Y-86501804D01*
X148562945Y-86611383D01*
X148773835Y-86699390D01*
X148987446Y-86763106D01*
X149056532Y-86778102D01*
X149129763Y-86792329D01*
X149182120Y-86801925D01*
X149220380Y-86807910D01*
X149251318Y-86811303D01*
X149281713Y-86813125D01*
X149291861Y-86813523D01*
X149344778Y-86815444D01*
X149344778Y-86321555D01*
X149669333Y-86321555D01*
X149669333Y-86819342D01*
X149764583Y-86809635D01*
X149983298Y-86773883D01*
X150202090Y-86712335D01*
X150416909Y-86627114D01*
X150623706Y-86520343D01*
X150818431Y-86394146D01*
X150997033Y-86250645D01*
X151155463Y-86091964D01*
X151173912Y-86070858D01*
X151318922Y-85883270D01*
X151444237Y-85681651D01*
X151548139Y-85469873D01*
X151628907Y-85251808D01*
X151684824Y-85031326D01*
X151709635Y-84864583D01*
X151719342Y-84769333D01*
X151221555Y-84769333D01*
X151221555Y-84444778D01*
X151719342Y-84444778D01*
X151709635Y-84349528D01*
X151673749Y-84129798D01*
X151611705Y-83909544D01*
X151525222Y-83692636D01*
X151416018Y-83482946D01*
X151285814Y-83284345D01*
X151173912Y-83143253D01*
X151018331Y-82982797D01*
X150842063Y-82837253D01*
X150649159Y-82708743D01*
X150443669Y-82599391D01*
X150229643Y-82511319D01*
X150011131Y-82446651D01*
X149792182Y-82407509D01*
X149764583Y-82404476D01*
X149669333Y-82394769D01*
X149669333Y-83809778D01*
X149344778Y-83809778D01*
X149344778Y-82394769D01*
X149249528Y-82404476D01*
X149030813Y-82440228D01*
X148812021Y-82501776D01*
X148597202Y-82586997D01*
X148390405Y-82693767D01*
X148195680Y-82819965D01*
X148017078Y-82963466D01*
X147858648Y-83122147D01*
X147840199Y-83143253D01*
X147695189Y-83330841D01*
X147569874Y-83532460D01*
X147465972Y-83744238D01*
X147385204Y-83962303D01*
X147329287Y-84182784D01*
X147304476Y-84349528D01*
X147294769Y-84444778D01*
X146956102Y-84444778D01*
X146965788Y-84350241D01*
X147006461Y-84091151D01*
G37*
X147006461Y-84091151D02*
X147075028Y-83835840D01*
X147171540Y-83584132D01*
X147228050Y-83464055D01*
X147303651Y-83321437D01*
X147381262Y-83194577D01*
X147466129Y-83076298D01*
X147563492Y-82959420D01*
X147678597Y-82836765D01*
X147707557Y-82807557D01*
X147832508Y-82687725D01*
X147950062Y-82586817D01*
X148067398Y-82499589D01*
X148191694Y-82420798D01*
X148330130Y-82345202D01*
X148364055Y-82328050D01*
X148614092Y-82218050D01*
X148867644Y-82136021D01*
X149124891Y-82081912D01*
X149250241Y-82065788D01*
X149344778Y-82056102D01*
X149344778Y-81763667D01*
X149669333Y-81763667D01*
X149669333Y-82056102D01*
X149763869Y-82065788D01*
X150022960Y-82106461D01*
X150278270Y-82175028D01*
X150529979Y-82271540D01*
X150650055Y-82328050D01*
X150792674Y-82403651D01*
X150919534Y-82481262D01*
X151037813Y-82566129D01*
X151154691Y-82663492D01*
X151277345Y-82778597D01*
X151306554Y-82807557D01*
X151426386Y-82932508D01*
X151527294Y-83050062D01*
X151614522Y-83167398D01*
X151693312Y-83291694D01*
X151768909Y-83430130D01*
X151786061Y-83464055D01*
X151896061Y-83714092D01*
X151978089Y-83967644D01*
X152032199Y-84224891D01*
X152048323Y-84350241D01*
X152058008Y-84444778D01*
X152350444Y-84444778D01*
X152350444Y-84769333D01*
X152057399Y-84769333D01*
X152047535Y-84864583D01*
X152007659Y-85121009D01*
X151941477Y-85371033D01*
X151848236Y-85617208D01*
X151786061Y-85750055D01*
X151710460Y-85892674D01*
X151632848Y-86019534D01*
X151547982Y-86137813D01*
X151450619Y-86254691D01*
X151335514Y-86377345D01*
X151306554Y-86406554D01*
X151181603Y-86526386D01*
X151064049Y-86627294D01*
X150946713Y-86714522D01*
X150822416Y-86793312D01*
X150683980Y-86868909D01*
X150650055Y-86886061D01*
X150400019Y-86996061D01*
X150146466Y-87078089D01*
X149889220Y-87132199D01*
X149763869Y-87148323D01*
X149669333Y-87158008D01*
X149669333Y-87450444D01*
X149344778Y-87450444D01*
X149344778Y-87158008D01*
X149250241Y-87148323D01*
X148991151Y-87107649D01*
X148735840Y-87039083D01*
X148484132Y-86942570D01*
X148364055Y-86886061D01*
X148221437Y-86810460D01*
X148094577Y-86732848D01*
X147976298Y-86647982D01*
X147859420Y-86550619D01*
X147736765Y-86435514D01*
X147707557Y-86406554D01*
X147587725Y-86281603D01*
X147486817Y-86164049D01*
X147399589Y-86046713D01*
X147320798Y-85922416D01*
X147245202Y-85783980D01*
X147228050Y-85750055D01*
X147118050Y-85500019D01*
X147036021Y-85246466D01*
X146981912Y-84989220D01*
X146965788Y-84863869D01*
X146956102Y-84769333D01*
X146663667Y-84769333D01*
X146663667Y-84444778D01*
X146956102Y-84444778D01*
X147294769Y-84444778D01*
X148709778Y-84444778D01*
X148709778Y-84769333D01*
X147294769Y-84769333D01*
X147304476Y-84864583D01*
X147340361Y-85084313D01*
X147402406Y-85304567D01*
X147488889Y-85521475D01*
X147598093Y-85731165D01*
X147728296Y-85929766D01*
X147840199Y-86070858D01*
X147993404Y-86228821D01*
X148168050Y-86373377D01*
X148359457Y-86501804D01*
X148562945Y-86611383D01*
X148773835Y-86699390D01*
X148987446Y-86763106D01*
X149056532Y-86778102D01*
X149129763Y-86792329D01*
X149182120Y-86801925D01*
X149220380Y-86807910D01*
X149251318Y-86811303D01*
X149281713Y-86813125D01*
X149291861Y-86813523D01*
X149344778Y-86815444D01*
X149344778Y-86321555D01*
X149669333Y-86321555D01*
X149669333Y-86819342D01*
X149764583Y-86809635D01*
X149983298Y-86773883D01*
X150202090Y-86712335D01*
X150416909Y-86627114D01*
X150623706Y-86520343D01*
X150818431Y-86394146D01*
X150997033Y-86250645D01*
X151155463Y-86091964D01*
X151173912Y-86070858D01*
X151318922Y-85883270D01*
X151444237Y-85681651D01*
X151548139Y-85469873D01*
X151628907Y-85251808D01*
X151684824Y-85031326D01*
X151709635Y-84864583D01*
X151719342Y-84769333D01*
X151221555Y-84769333D01*
X151221555Y-84444778D01*
X151719342Y-84444778D01*
X151709635Y-84349528D01*
X151673749Y-84129798D01*
X151611705Y-83909544D01*
X151525222Y-83692636D01*
X151416018Y-83482946D01*
X151285814Y-83284345D01*
X151173912Y-83143253D01*
X151018331Y-82982797D01*
X150842063Y-82837253D01*
X150649159Y-82708743D01*
X150443669Y-82599391D01*
X150229643Y-82511319D01*
X150011131Y-82446651D01*
X149792182Y-82407509D01*
X149764583Y-82404476D01*
X149669333Y-82394769D01*
X149669333Y-83809778D01*
X149344778Y-83809778D01*
X149344778Y-82394769D01*
X149249528Y-82404476D01*
X149030813Y-82440228D01*
X148812021Y-82501776D01*
X148597202Y-82586997D01*
X148390405Y-82693767D01*
X148195680Y-82819965D01*
X148017078Y-82963466D01*
X147858648Y-83122147D01*
X147840199Y-83143253D01*
X147695189Y-83330841D01*
X147569874Y-83532460D01*
X147465972Y-83744238D01*
X147385204Y-83962303D01*
X147329287Y-84182784D01*
X147304476Y-84349528D01*
X147294769Y-84444778D01*
X146956102Y-84444778D01*
X146965788Y-84350241D01*
X147006461Y-84091151D01*
X149672439Y-84257805D02*
X149676389Y-84437722D01*
X149676389Y-84437722D02*
X149856305Y-84441671D01*
X149856305Y-84441671D02*
X150036222Y-84445621D01*
X150036222Y-84445621D02*
X150036222Y-84768490D01*
X150036222Y-84768490D02*
X149856305Y-84772439D01*
X149856305Y-84772439D02*
X149676389Y-84776389D01*
X149676389Y-84776389D02*
X149672439Y-84956305D01*
X149672439Y-84956305D02*
X149668490Y-85136222D01*
X149668490Y-85136222D02*
X149345621Y-85136222D01*
X149345621Y-85136222D02*
X149341671Y-84956305D01*
X149341671Y-84956305D02*
X149337722Y-84776389D01*
X149337722Y-84776389D02*
X149157805Y-84772439D01*
X149157805Y-84772439D02*
X148977889Y-84768490D01*
X148977889Y-84768490D02*
X148977889Y-84445621D01*
X148977889Y-84445621D02*
X149157805Y-84441671D01*
X149157805Y-84441671D02*
X149337722Y-84437722D01*
X149337722Y-84437722D02*
X149341671Y-84257805D01*
X149341671Y-84257805D02*
X149345621Y-84077889D01*
X149345621Y-84077889D02*
X149668490Y-84077889D01*
X149668490Y-84077889D02*
X149672439Y-84257805D01*
X149672439Y-84257805D02*
X149672439Y-84257805D01*
G36*
X149672439Y-84257805D02*
G01*
X149676389Y-84437722D01*
X149856305Y-84441671D01*
X150036222Y-84445621D01*
X150036222Y-84768490D01*
X149856305Y-84772439D01*
X149676389Y-84776389D01*
X149672439Y-84956305D01*
X149668490Y-85136222D01*
X149345621Y-85136222D01*
X149341671Y-84956305D01*
X149337722Y-84776389D01*
X149157805Y-84772439D01*
X148977889Y-84768490D01*
X148977889Y-84445621D01*
X149157805Y-84441671D01*
X149337722Y-84437722D01*
X149341671Y-84257805D01*
X149345621Y-84077889D01*
X149668490Y-84077889D01*
X149672439Y-84257805D01*
G37*
X149672439Y-84257805D02*
X149676389Y-84437722D01*
X149856305Y-84441671D01*
X150036222Y-84445621D01*
X150036222Y-84768490D01*
X149856305Y-84772439D01*
X149676389Y-84776389D01*
X149672439Y-84956305D01*
X149668490Y-85136222D01*
X149345621Y-85136222D01*
X149341671Y-84956305D01*
X149337722Y-84776389D01*
X149157805Y-84772439D01*
X148977889Y-84768490D01*
X148977889Y-84445621D01*
X149157805Y-84441671D01*
X149337722Y-84437722D01*
X149341671Y-84257805D01*
X149345621Y-84077889D01*
X149668490Y-84077889D01*
X149672439Y-84257805D01*
M02*
