G04 #@! TF.GenerationSoftware,KiCad,Pcbnew,(6.0.1-0)*
G04 #@! TF.CreationDate,2022-08-23T12:06:24-04:00*
G04 #@! TF.ProjectId,indexingWheel,696e6465-7869-46e6-9757-6865656c2e6b,rev?*
G04 #@! TF.SameCoordinates,Original*
G04 #@! TF.FileFunction,Legend,Bot*
G04 #@! TF.FilePolarity,Positive*
%FSLAX46Y46*%
G04 Gerber Fmt 4.6, Leading zero omitted, Abs format (unit mm)*
G04 Created by KiCad (PCBNEW (6.0.1-0)) date 2022-08-23 12:06:24*
%MOMM*%
%LPD*%
G01*
G04 APERTURE LIST*
%ADD10C,0.120000*%
%ADD11C,0.150000*%
%ADD12C,0.010000*%
G04 APERTURE END LIST*
D10*
X153500000Y-93000000D02*
G75*
G03*
X153500000Y-93000000I-4000000J0D01*
G01*
D11*
X154904761Y-99642380D02*
X154904761Y-98642380D01*
X154428571Y-98975714D02*
X154428571Y-99642380D01*
X154428571Y-99070952D02*
X154380952Y-99023333D01*
X154285714Y-98975714D01*
X154142857Y-98975714D01*
X154047619Y-99023333D01*
X154000000Y-99118571D01*
X154000000Y-99642380D01*
X153095238Y-99642380D02*
X153095238Y-98642380D01*
X153095238Y-99594761D02*
X153190476Y-99642380D01*
X153380952Y-99642380D01*
X153476190Y-99594761D01*
X153523809Y-99547142D01*
X153571428Y-99451904D01*
X153571428Y-99166190D01*
X153523809Y-99070952D01*
X153476190Y-99023333D01*
X153380952Y-98975714D01*
X153190476Y-98975714D01*
X153095238Y-99023333D01*
X152238095Y-99594761D02*
X152333333Y-99642380D01*
X152523809Y-99642380D01*
X152619047Y-99594761D01*
X152666666Y-99499523D01*
X152666666Y-99118571D01*
X152619047Y-99023333D01*
X152523809Y-98975714D01*
X152333333Y-98975714D01*
X152238095Y-99023333D01*
X152190476Y-99118571D01*
X152190476Y-99213809D01*
X152666666Y-99309047D01*
X151857142Y-99642380D02*
X151333333Y-98975714D01*
X151857142Y-98975714D02*
X151333333Y-99642380D01*
X150952380Y-99642380D02*
X150952380Y-98975714D01*
X150952380Y-98642380D02*
X151000000Y-98690000D01*
X150952380Y-98737619D01*
X150904761Y-98690000D01*
X150952380Y-98642380D01*
X150952380Y-98737619D01*
X150476190Y-98975714D02*
X150476190Y-99642380D01*
X150476190Y-99070952D02*
X150428571Y-99023333D01*
X150333333Y-98975714D01*
X150190476Y-98975714D01*
X150095238Y-99023333D01*
X150047619Y-99118571D01*
X150047619Y-99642380D01*
X149142857Y-98975714D02*
X149142857Y-99785238D01*
X149190476Y-99880476D01*
X149238095Y-99928095D01*
X149333333Y-99975714D01*
X149476190Y-99975714D01*
X149571428Y-99928095D01*
X149142857Y-99594761D02*
X149238095Y-99642380D01*
X149428571Y-99642380D01*
X149523809Y-99594761D01*
X149571428Y-99547142D01*
X149619047Y-99451904D01*
X149619047Y-99166190D01*
X149571428Y-99070952D01*
X149523809Y-99023333D01*
X149428571Y-98975714D01*
X149238095Y-98975714D01*
X149142857Y-99023333D01*
X148000000Y-98642380D02*
X147761904Y-99642380D01*
X147571428Y-98928095D01*
X147380952Y-99642380D01*
X147142857Y-98642380D01*
X146761904Y-99642380D02*
X146761904Y-98642380D01*
X146333333Y-99642380D02*
X146333333Y-99118571D01*
X146380952Y-99023333D01*
X146476190Y-98975714D01*
X146619047Y-98975714D01*
X146714285Y-99023333D01*
X146761904Y-99070952D01*
X145476190Y-99594761D02*
X145571428Y-99642380D01*
X145761904Y-99642380D01*
X145857142Y-99594761D01*
X145904761Y-99499523D01*
X145904761Y-99118571D01*
X145857142Y-99023333D01*
X145761904Y-98975714D01*
X145571428Y-98975714D01*
X145476190Y-99023333D01*
X145428571Y-99118571D01*
X145428571Y-99213809D01*
X145904761Y-99309047D01*
X144619047Y-99594761D02*
X144714285Y-99642380D01*
X144904761Y-99642380D01*
X145000000Y-99594761D01*
X145047619Y-99499523D01*
X145047619Y-99118571D01*
X145000000Y-99023333D01*
X144904761Y-98975714D01*
X144714285Y-98975714D01*
X144619047Y-99023333D01*
X144571428Y-99118571D01*
X144571428Y-99213809D01*
X145047619Y-99309047D01*
X144000000Y-99642380D02*
X144095238Y-99594761D01*
X144142857Y-99499523D01*
X144142857Y-98642380D01*
X151023809Y-101252380D02*
X151357142Y-100776190D01*
X151595238Y-101252380D02*
X151595238Y-100252380D01*
X151214285Y-100252380D01*
X151119047Y-100300000D01*
X151071428Y-100347619D01*
X151023809Y-100442857D01*
X151023809Y-100585714D01*
X151071428Y-100680952D01*
X151119047Y-100728571D01*
X151214285Y-100776190D01*
X151595238Y-100776190D01*
X150595238Y-100728571D02*
X150261904Y-100728571D01*
X150119047Y-101252380D02*
X150595238Y-101252380D01*
X150595238Y-100252380D01*
X150119047Y-100252380D01*
X149833333Y-100252380D02*
X149500000Y-101252380D01*
X149166666Y-100252380D01*
X148642857Y-100252380D02*
X148547619Y-100252380D01*
X148452380Y-100300000D01*
X148404761Y-100347619D01*
X148357142Y-100442857D01*
X148309523Y-100633333D01*
X148309523Y-100871428D01*
X148357142Y-101061904D01*
X148404761Y-101157142D01*
X148452380Y-101204761D01*
X148547619Y-101252380D01*
X148642857Y-101252380D01*
X148738095Y-101204761D01*
X148785714Y-101157142D01*
X148833333Y-101061904D01*
X148880952Y-100871428D01*
X148880952Y-100633333D01*
X148833333Y-100442857D01*
X148785714Y-100347619D01*
X148738095Y-100300000D01*
X148642857Y-100252380D01*
X147976190Y-100252380D02*
X147357142Y-100252380D01*
X147690476Y-100633333D01*
X147547619Y-100633333D01*
X147452380Y-100680952D01*
X147404761Y-100728571D01*
X147357142Y-100823809D01*
X147357142Y-101061904D01*
X147404761Y-101157142D01*
X147452380Y-101204761D01*
X147547619Y-101252380D01*
X147833333Y-101252380D01*
X147928571Y-101204761D01*
X147976190Y-101157142D01*
X152952380Y-101862380D02*
X152761904Y-101862380D01*
X152666666Y-101910000D01*
X152571428Y-102005238D01*
X152523809Y-102195714D01*
X152523809Y-102529047D01*
X152571428Y-102719523D01*
X152666666Y-102814761D01*
X152761904Y-102862380D01*
X152952380Y-102862380D01*
X153047619Y-102814761D01*
X153142857Y-102719523D01*
X153190476Y-102529047D01*
X153190476Y-102195714D01*
X153142857Y-102005238D01*
X153047619Y-101910000D01*
X152952380Y-101862380D01*
X152095238Y-102195714D02*
X152095238Y-103195714D01*
X152095238Y-102243333D02*
X152000000Y-102195714D01*
X151809523Y-102195714D01*
X151714285Y-102243333D01*
X151666666Y-102290952D01*
X151619047Y-102386190D01*
X151619047Y-102671904D01*
X151666666Y-102767142D01*
X151714285Y-102814761D01*
X151809523Y-102862380D01*
X152000000Y-102862380D01*
X152095238Y-102814761D01*
X150761904Y-102195714D02*
X150761904Y-102862380D01*
X151190476Y-102195714D02*
X151190476Y-102719523D01*
X151142857Y-102814761D01*
X151047619Y-102862380D01*
X150904761Y-102862380D01*
X150809523Y-102814761D01*
X150761904Y-102767142D01*
X150142857Y-102862380D02*
X150238095Y-102814761D01*
X150285714Y-102719523D01*
X150285714Y-101862380D01*
X149619047Y-102862380D02*
X149714285Y-102814761D01*
X149761904Y-102767142D01*
X149809523Y-102671904D01*
X149809523Y-102386190D01*
X149761904Y-102290952D01*
X149714285Y-102243333D01*
X149619047Y-102195714D01*
X149476190Y-102195714D01*
X149380952Y-102243333D01*
X149333333Y-102290952D01*
X149285714Y-102386190D01*
X149285714Y-102671904D01*
X149333333Y-102767142D01*
X149380952Y-102814761D01*
X149476190Y-102862380D01*
X149619047Y-102862380D01*
X148095238Y-102862380D02*
X148095238Y-101862380D01*
X147619047Y-102195714D02*
X147619047Y-102862380D01*
X147619047Y-102290952D02*
X147571428Y-102243333D01*
X147476190Y-102195714D01*
X147333333Y-102195714D01*
X147238095Y-102243333D01*
X147190476Y-102338571D01*
X147190476Y-102862380D01*
X146285714Y-102814761D02*
X146380952Y-102862380D01*
X146571428Y-102862380D01*
X146666666Y-102814761D01*
X146714285Y-102767142D01*
X146761904Y-102671904D01*
X146761904Y-102386190D01*
X146714285Y-102290952D01*
X146666666Y-102243333D01*
X146571428Y-102195714D01*
X146380952Y-102195714D01*
X146285714Y-102243333D01*
X145857142Y-102767142D02*
X145809523Y-102814761D01*
X145857142Y-102862380D01*
X145904761Y-102814761D01*
X145857142Y-102767142D01*
X145857142Y-102862380D01*
D12*
X149330667Y-82056102D02*
X149236131Y-82065788D01*
X149236131Y-82065788D02*
X148977040Y-82106461D01*
X148977040Y-82106461D02*
X148721730Y-82175028D01*
X148721730Y-82175028D02*
X148470021Y-82271540D01*
X148470021Y-82271540D02*
X148349945Y-82328050D01*
X148349945Y-82328050D02*
X148207326Y-82403651D01*
X148207326Y-82403651D02*
X148080466Y-82481262D01*
X148080466Y-82481262D02*
X147962187Y-82566129D01*
X147962187Y-82566129D02*
X147845309Y-82663492D01*
X147845309Y-82663492D02*
X147722655Y-82778597D01*
X147722655Y-82778597D02*
X147693446Y-82807557D01*
X147693446Y-82807557D02*
X147573614Y-82932508D01*
X147573614Y-82932508D02*
X147472706Y-83050062D01*
X147472706Y-83050062D02*
X147385478Y-83167398D01*
X147385478Y-83167398D02*
X147306688Y-83291694D01*
X147306688Y-83291694D02*
X147231091Y-83430130D01*
X147231091Y-83430130D02*
X147213939Y-83464055D01*
X147213939Y-83464055D02*
X147103939Y-83714092D01*
X147103939Y-83714092D02*
X147021911Y-83967644D01*
X147021911Y-83967644D02*
X146967801Y-84224891D01*
X146967801Y-84224891D02*
X146951677Y-84350241D01*
X146951677Y-84350241D02*
X146941992Y-84444778D01*
X146941992Y-84444778D02*
X146649556Y-84444778D01*
X146649556Y-84444778D02*
X146649556Y-84769333D01*
X146649556Y-84769333D02*
X146942601Y-84769333D01*
X146942601Y-84769333D02*
X146952465Y-84864583D01*
X146952465Y-84864583D02*
X146992341Y-85121009D01*
X146992341Y-85121009D02*
X147058523Y-85371033D01*
X147058523Y-85371033D02*
X147151764Y-85617208D01*
X147151764Y-85617208D02*
X147213939Y-85750055D01*
X147213939Y-85750055D02*
X147289540Y-85892674D01*
X147289540Y-85892674D02*
X147367152Y-86019534D01*
X147367152Y-86019534D02*
X147452018Y-86137813D01*
X147452018Y-86137813D02*
X147549381Y-86254691D01*
X147549381Y-86254691D02*
X147664486Y-86377345D01*
X147664486Y-86377345D02*
X147693446Y-86406554D01*
X147693446Y-86406554D02*
X147818397Y-86526386D01*
X147818397Y-86526386D02*
X147935951Y-86627294D01*
X147935951Y-86627294D02*
X148053287Y-86714522D01*
X148053287Y-86714522D02*
X148177584Y-86793312D01*
X148177584Y-86793312D02*
X148316020Y-86868909D01*
X148316020Y-86868909D02*
X148349945Y-86886061D01*
X148349945Y-86886061D02*
X148599981Y-86996061D01*
X148599981Y-86996061D02*
X148853534Y-87078089D01*
X148853534Y-87078089D02*
X149110780Y-87132199D01*
X149110780Y-87132199D02*
X149236131Y-87148323D01*
X149236131Y-87148323D02*
X149330667Y-87158008D01*
X149330667Y-87158008D02*
X149330667Y-87450444D01*
X149330667Y-87450444D02*
X149655222Y-87450444D01*
X149655222Y-87450444D02*
X149655222Y-87158008D01*
X149655222Y-87158008D02*
X149749759Y-87148323D01*
X149749759Y-87148323D02*
X150008849Y-87107649D01*
X150008849Y-87107649D02*
X150264160Y-87039083D01*
X150264160Y-87039083D02*
X150515868Y-86942570D01*
X150515868Y-86942570D02*
X150635945Y-86886061D01*
X150635945Y-86886061D02*
X150778563Y-86810460D01*
X150778563Y-86810460D02*
X150905423Y-86732848D01*
X150905423Y-86732848D02*
X151023702Y-86647982D01*
X151023702Y-86647982D02*
X151140580Y-86550619D01*
X151140580Y-86550619D02*
X151263235Y-86435514D01*
X151263235Y-86435514D02*
X151292443Y-86406554D01*
X151292443Y-86406554D02*
X151412275Y-86281603D01*
X151412275Y-86281603D02*
X151513183Y-86164049D01*
X151513183Y-86164049D02*
X151600411Y-86046713D01*
X151600411Y-86046713D02*
X151679202Y-85922416D01*
X151679202Y-85922416D02*
X151754798Y-85783980D01*
X151754798Y-85783980D02*
X151771950Y-85750055D01*
X151771950Y-85750055D02*
X151881950Y-85500019D01*
X151881950Y-85500019D02*
X151963979Y-85246466D01*
X151963979Y-85246466D02*
X152018088Y-84989220D01*
X152018088Y-84989220D02*
X152034212Y-84863869D01*
X152034212Y-84863869D02*
X152043898Y-84769333D01*
X152043898Y-84769333D02*
X152336333Y-84769333D01*
X152336333Y-84769333D02*
X152336333Y-84444778D01*
X152336333Y-84444778D02*
X152043898Y-84444778D01*
X152043898Y-84444778D02*
X151705231Y-84444778D01*
X151705231Y-84444778D02*
X150290222Y-84444778D01*
X150290222Y-84444778D02*
X150290222Y-84769333D01*
X150290222Y-84769333D02*
X151705231Y-84769333D01*
X151705231Y-84769333D02*
X151695524Y-84864583D01*
X151695524Y-84864583D02*
X151659639Y-85084313D01*
X151659639Y-85084313D02*
X151597594Y-85304567D01*
X151597594Y-85304567D02*
X151511111Y-85521475D01*
X151511111Y-85521475D02*
X151401907Y-85731165D01*
X151401907Y-85731165D02*
X151271704Y-85929766D01*
X151271704Y-85929766D02*
X151159801Y-86070858D01*
X151159801Y-86070858D02*
X151006596Y-86228821D01*
X151006596Y-86228821D02*
X150831950Y-86373377D01*
X150831950Y-86373377D02*
X150640543Y-86501804D01*
X150640543Y-86501804D02*
X150437055Y-86611383D01*
X150437055Y-86611383D02*
X150226165Y-86699390D01*
X150226165Y-86699390D02*
X150012554Y-86763106D01*
X150012554Y-86763106D02*
X149943468Y-86778102D01*
X149943468Y-86778102D02*
X149870237Y-86792329D01*
X149870237Y-86792329D02*
X149817880Y-86801925D01*
X149817880Y-86801925D02*
X149779620Y-86807910D01*
X149779620Y-86807910D02*
X149748682Y-86811303D01*
X149748682Y-86811303D02*
X149718287Y-86813125D01*
X149718287Y-86813125D02*
X149708139Y-86813523D01*
X149708139Y-86813523D02*
X149655222Y-86815444D01*
X149655222Y-86815444D02*
X149655222Y-86321555D01*
X149655222Y-86321555D02*
X149330667Y-86321555D01*
X149330667Y-86321555D02*
X149330667Y-86819342D01*
X149330667Y-86819342D02*
X149235417Y-86809635D01*
X149235417Y-86809635D02*
X149016702Y-86773883D01*
X149016702Y-86773883D02*
X148797910Y-86712335D01*
X148797910Y-86712335D02*
X148583091Y-86627114D01*
X148583091Y-86627114D02*
X148376294Y-86520343D01*
X148376294Y-86520343D02*
X148181569Y-86394146D01*
X148181569Y-86394146D02*
X148002967Y-86250645D01*
X148002967Y-86250645D02*
X147844537Y-86091964D01*
X147844537Y-86091964D02*
X147826088Y-86070858D01*
X147826088Y-86070858D02*
X147681078Y-85883270D01*
X147681078Y-85883270D02*
X147555763Y-85681651D01*
X147555763Y-85681651D02*
X147451861Y-85469873D01*
X147451861Y-85469873D02*
X147371093Y-85251808D01*
X147371093Y-85251808D02*
X147315176Y-85031326D01*
X147315176Y-85031326D02*
X147290365Y-84864583D01*
X147290365Y-84864583D02*
X147280658Y-84769333D01*
X147280658Y-84769333D02*
X147778445Y-84769333D01*
X147778445Y-84769333D02*
X147778445Y-84444778D01*
X147778445Y-84444778D02*
X147280658Y-84444778D01*
X147280658Y-84444778D02*
X147290365Y-84349528D01*
X147290365Y-84349528D02*
X147326251Y-84129798D01*
X147326251Y-84129798D02*
X147388295Y-83909544D01*
X147388295Y-83909544D02*
X147474778Y-83692636D01*
X147474778Y-83692636D02*
X147583982Y-83482946D01*
X147583982Y-83482946D02*
X147714186Y-83284345D01*
X147714186Y-83284345D02*
X147826088Y-83143253D01*
X147826088Y-83143253D02*
X147981669Y-82982797D01*
X147981669Y-82982797D02*
X148157937Y-82837253D01*
X148157937Y-82837253D02*
X148350841Y-82708743D01*
X148350841Y-82708743D02*
X148556331Y-82599391D01*
X148556331Y-82599391D02*
X148770357Y-82511319D01*
X148770357Y-82511319D02*
X148988869Y-82446651D01*
X148988869Y-82446651D02*
X149207818Y-82407509D01*
X149207818Y-82407509D02*
X149235417Y-82404476D01*
X149235417Y-82404476D02*
X149330667Y-82394769D01*
X149330667Y-82394769D02*
X149330667Y-83809778D01*
X149330667Y-83809778D02*
X149655222Y-83809778D01*
X149655222Y-83809778D02*
X149655222Y-82394769D01*
X149655222Y-82394769D02*
X149750472Y-82404476D01*
X149750472Y-82404476D02*
X149969187Y-82440228D01*
X149969187Y-82440228D02*
X150187979Y-82501776D01*
X150187979Y-82501776D02*
X150402798Y-82586997D01*
X150402798Y-82586997D02*
X150609595Y-82693767D01*
X150609595Y-82693767D02*
X150804320Y-82819965D01*
X150804320Y-82819965D02*
X150982922Y-82963466D01*
X150982922Y-82963466D02*
X151141352Y-83122147D01*
X151141352Y-83122147D02*
X151159801Y-83143253D01*
X151159801Y-83143253D02*
X151304811Y-83330841D01*
X151304811Y-83330841D02*
X151430126Y-83532460D01*
X151430126Y-83532460D02*
X151534028Y-83744238D01*
X151534028Y-83744238D02*
X151614796Y-83962303D01*
X151614796Y-83962303D02*
X151670713Y-84182784D01*
X151670713Y-84182784D02*
X151695524Y-84349528D01*
X151695524Y-84349528D02*
X151705231Y-84444778D01*
X151705231Y-84444778D02*
X152043898Y-84444778D01*
X152043898Y-84444778D02*
X152034212Y-84350241D01*
X152034212Y-84350241D02*
X151993539Y-84091151D01*
X151993539Y-84091151D02*
X151924972Y-83835840D01*
X151924972Y-83835840D02*
X151828460Y-83584132D01*
X151828460Y-83584132D02*
X151771950Y-83464055D01*
X151771950Y-83464055D02*
X151696349Y-83321437D01*
X151696349Y-83321437D02*
X151618738Y-83194577D01*
X151618738Y-83194577D02*
X151533871Y-83076298D01*
X151533871Y-83076298D02*
X151436508Y-82959420D01*
X151436508Y-82959420D02*
X151321403Y-82836765D01*
X151321403Y-82836765D02*
X151292443Y-82807557D01*
X151292443Y-82807557D02*
X151167492Y-82687725D01*
X151167492Y-82687725D02*
X151049938Y-82586817D01*
X151049938Y-82586817D02*
X150932602Y-82499589D01*
X150932602Y-82499589D02*
X150808306Y-82420798D01*
X150808306Y-82420798D02*
X150669870Y-82345202D01*
X150669870Y-82345202D02*
X150635945Y-82328050D01*
X150635945Y-82328050D02*
X150385908Y-82218050D01*
X150385908Y-82218050D02*
X150132356Y-82136021D01*
X150132356Y-82136021D02*
X149875109Y-82081912D01*
X149875109Y-82081912D02*
X149749759Y-82065788D01*
X149749759Y-82065788D02*
X149655222Y-82056102D01*
X149655222Y-82056102D02*
X149655222Y-81763667D01*
X149655222Y-81763667D02*
X149330667Y-81763667D01*
X149330667Y-81763667D02*
X149330667Y-82056102D01*
X149330667Y-82056102D02*
X149330667Y-82056102D01*
G36*
X152336333Y-84769333D02*
G01*
X152043898Y-84769333D01*
X152034212Y-84863869D01*
X152018088Y-84989220D01*
X151963979Y-85246466D01*
X151881950Y-85500019D01*
X151771950Y-85750055D01*
X151754798Y-85783980D01*
X151679202Y-85922416D01*
X151600411Y-86046713D01*
X151513183Y-86164049D01*
X151412275Y-86281603D01*
X151292443Y-86406554D01*
X151263235Y-86435514D01*
X151140580Y-86550619D01*
X151023702Y-86647982D01*
X150905423Y-86732848D01*
X150778563Y-86810460D01*
X150635945Y-86886061D01*
X150515868Y-86942570D01*
X150264160Y-87039083D01*
X150008849Y-87107649D01*
X149749759Y-87148323D01*
X149655222Y-87158008D01*
X149655222Y-87450444D01*
X149330667Y-87450444D01*
X149330667Y-87158008D01*
X149236131Y-87148323D01*
X149110780Y-87132199D01*
X148853534Y-87078089D01*
X148599981Y-86996061D01*
X148349945Y-86886061D01*
X148316020Y-86868909D01*
X148177584Y-86793312D01*
X148053287Y-86714522D01*
X147935951Y-86627294D01*
X147818397Y-86526386D01*
X147693446Y-86406554D01*
X147664486Y-86377345D01*
X147549381Y-86254691D01*
X147452018Y-86137813D01*
X147367152Y-86019534D01*
X147289540Y-85892674D01*
X147213939Y-85750055D01*
X147151764Y-85617208D01*
X147058523Y-85371033D01*
X146992341Y-85121009D01*
X146952465Y-84864583D01*
X146942601Y-84769333D01*
X147280658Y-84769333D01*
X147290365Y-84864583D01*
X147315176Y-85031326D01*
X147371093Y-85251808D01*
X147451861Y-85469873D01*
X147555763Y-85681651D01*
X147681078Y-85883270D01*
X147826088Y-86070858D01*
X147844537Y-86091964D01*
X148002967Y-86250645D01*
X148181569Y-86394146D01*
X148376294Y-86520343D01*
X148583091Y-86627114D01*
X148797910Y-86712335D01*
X149016702Y-86773883D01*
X149235417Y-86809635D01*
X149330667Y-86819342D01*
X149330667Y-86321555D01*
X149655222Y-86321555D01*
X149655222Y-86815444D01*
X149708139Y-86813523D01*
X149718287Y-86813125D01*
X149748682Y-86811303D01*
X149779620Y-86807910D01*
X149817880Y-86801925D01*
X149870237Y-86792329D01*
X149943468Y-86778102D01*
X150012554Y-86763106D01*
X150226165Y-86699390D01*
X150437055Y-86611383D01*
X150640543Y-86501804D01*
X150831950Y-86373377D01*
X151006596Y-86228821D01*
X151159801Y-86070858D01*
X151271704Y-85929766D01*
X151401907Y-85731165D01*
X151511111Y-85521475D01*
X151597594Y-85304567D01*
X151659639Y-85084313D01*
X151695524Y-84864583D01*
X151705231Y-84769333D01*
X150290222Y-84769333D01*
X150290222Y-84444778D01*
X151705231Y-84444778D01*
X151695524Y-84349528D01*
X151670713Y-84182784D01*
X151614796Y-83962303D01*
X151534028Y-83744238D01*
X151430126Y-83532460D01*
X151304811Y-83330841D01*
X151159801Y-83143253D01*
X151141352Y-83122147D01*
X150982922Y-82963466D01*
X150804320Y-82819965D01*
X150609595Y-82693767D01*
X150402798Y-82586997D01*
X150187979Y-82501776D01*
X149969187Y-82440228D01*
X149750472Y-82404476D01*
X149655222Y-82394769D01*
X149655222Y-83809778D01*
X149330667Y-83809778D01*
X149330667Y-82394769D01*
X149235417Y-82404476D01*
X149207818Y-82407509D01*
X148988869Y-82446651D01*
X148770357Y-82511319D01*
X148556331Y-82599391D01*
X148350841Y-82708743D01*
X148157937Y-82837253D01*
X147981669Y-82982797D01*
X147826088Y-83143253D01*
X147714186Y-83284345D01*
X147583982Y-83482946D01*
X147474778Y-83692636D01*
X147388295Y-83909544D01*
X147326251Y-84129798D01*
X147290365Y-84349528D01*
X147280658Y-84444778D01*
X147778445Y-84444778D01*
X147778445Y-84769333D01*
X147280658Y-84769333D01*
X146942601Y-84769333D01*
X146649556Y-84769333D01*
X146649556Y-84444778D01*
X146941992Y-84444778D01*
X146951677Y-84350241D01*
X146967801Y-84224891D01*
X147021911Y-83967644D01*
X147103939Y-83714092D01*
X147213939Y-83464055D01*
X147231091Y-83430130D01*
X147306688Y-83291694D01*
X147385478Y-83167398D01*
X147472706Y-83050062D01*
X147573614Y-82932508D01*
X147693446Y-82807557D01*
X147722655Y-82778597D01*
X147845309Y-82663492D01*
X147962187Y-82566129D01*
X148080466Y-82481262D01*
X148207326Y-82403651D01*
X148349945Y-82328050D01*
X148470021Y-82271540D01*
X148721730Y-82175028D01*
X148977040Y-82106461D01*
X149236131Y-82065788D01*
X149330667Y-82056102D01*
X149330667Y-81763667D01*
X149655222Y-81763667D01*
X149655222Y-82056102D01*
X149749759Y-82065788D01*
X149875109Y-82081912D01*
X150132356Y-82136021D01*
X150385908Y-82218050D01*
X150635945Y-82328050D01*
X150669870Y-82345202D01*
X150808306Y-82420798D01*
X150932602Y-82499589D01*
X151049938Y-82586817D01*
X151167492Y-82687725D01*
X151292443Y-82807557D01*
X151321403Y-82836765D01*
X151436508Y-82959420D01*
X151533871Y-83076298D01*
X151618738Y-83194577D01*
X151696349Y-83321437D01*
X151771950Y-83464055D01*
X151828460Y-83584132D01*
X151924972Y-83835840D01*
X151993539Y-84091151D01*
X152034212Y-84350241D01*
X152043898Y-84444778D01*
X152336333Y-84444778D01*
X152336333Y-84769333D01*
G37*
X152336333Y-84769333D02*
X152043898Y-84769333D01*
X152034212Y-84863869D01*
X152018088Y-84989220D01*
X151963979Y-85246466D01*
X151881950Y-85500019D01*
X151771950Y-85750055D01*
X151754798Y-85783980D01*
X151679202Y-85922416D01*
X151600411Y-86046713D01*
X151513183Y-86164049D01*
X151412275Y-86281603D01*
X151292443Y-86406554D01*
X151263235Y-86435514D01*
X151140580Y-86550619D01*
X151023702Y-86647982D01*
X150905423Y-86732848D01*
X150778563Y-86810460D01*
X150635945Y-86886061D01*
X150515868Y-86942570D01*
X150264160Y-87039083D01*
X150008849Y-87107649D01*
X149749759Y-87148323D01*
X149655222Y-87158008D01*
X149655222Y-87450444D01*
X149330667Y-87450444D01*
X149330667Y-87158008D01*
X149236131Y-87148323D01*
X149110780Y-87132199D01*
X148853534Y-87078089D01*
X148599981Y-86996061D01*
X148349945Y-86886061D01*
X148316020Y-86868909D01*
X148177584Y-86793312D01*
X148053287Y-86714522D01*
X147935951Y-86627294D01*
X147818397Y-86526386D01*
X147693446Y-86406554D01*
X147664486Y-86377345D01*
X147549381Y-86254691D01*
X147452018Y-86137813D01*
X147367152Y-86019534D01*
X147289540Y-85892674D01*
X147213939Y-85750055D01*
X147151764Y-85617208D01*
X147058523Y-85371033D01*
X146992341Y-85121009D01*
X146952465Y-84864583D01*
X146942601Y-84769333D01*
X147280658Y-84769333D01*
X147290365Y-84864583D01*
X147315176Y-85031326D01*
X147371093Y-85251808D01*
X147451861Y-85469873D01*
X147555763Y-85681651D01*
X147681078Y-85883270D01*
X147826088Y-86070858D01*
X147844537Y-86091964D01*
X148002967Y-86250645D01*
X148181569Y-86394146D01*
X148376294Y-86520343D01*
X148583091Y-86627114D01*
X148797910Y-86712335D01*
X149016702Y-86773883D01*
X149235417Y-86809635D01*
X149330667Y-86819342D01*
X149330667Y-86321555D01*
X149655222Y-86321555D01*
X149655222Y-86815444D01*
X149708139Y-86813523D01*
X149718287Y-86813125D01*
X149748682Y-86811303D01*
X149779620Y-86807910D01*
X149817880Y-86801925D01*
X149870237Y-86792329D01*
X149943468Y-86778102D01*
X150012554Y-86763106D01*
X150226165Y-86699390D01*
X150437055Y-86611383D01*
X150640543Y-86501804D01*
X150831950Y-86373377D01*
X151006596Y-86228821D01*
X151159801Y-86070858D01*
X151271704Y-85929766D01*
X151401907Y-85731165D01*
X151511111Y-85521475D01*
X151597594Y-85304567D01*
X151659639Y-85084313D01*
X151695524Y-84864583D01*
X151705231Y-84769333D01*
X150290222Y-84769333D01*
X150290222Y-84444778D01*
X151705231Y-84444778D01*
X151695524Y-84349528D01*
X151670713Y-84182784D01*
X151614796Y-83962303D01*
X151534028Y-83744238D01*
X151430126Y-83532460D01*
X151304811Y-83330841D01*
X151159801Y-83143253D01*
X151141352Y-83122147D01*
X150982922Y-82963466D01*
X150804320Y-82819965D01*
X150609595Y-82693767D01*
X150402798Y-82586997D01*
X150187979Y-82501776D01*
X149969187Y-82440228D01*
X149750472Y-82404476D01*
X149655222Y-82394769D01*
X149655222Y-83809778D01*
X149330667Y-83809778D01*
X149330667Y-82394769D01*
X149235417Y-82404476D01*
X149207818Y-82407509D01*
X148988869Y-82446651D01*
X148770357Y-82511319D01*
X148556331Y-82599391D01*
X148350841Y-82708743D01*
X148157937Y-82837253D01*
X147981669Y-82982797D01*
X147826088Y-83143253D01*
X147714186Y-83284345D01*
X147583982Y-83482946D01*
X147474778Y-83692636D01*
X147388295Y-83909544D01*
X147326251Y-84129798D01*
X147290365Y-84349528D01*
X147280658Y-84444778D01*
X147778445Y-84444778D01*
X147778445Y-84769333D01*
X147280658Y-84769333D01*
X146942601Y-84769333D01*
X146649556Y-84769333D01*
X146649556Y-84444778D01*
X146941992Y-84444778D01*
X146951677Y-84350241D01*
X146967801Y-84224891D01*
X147021911Y-83967644D01*
X147103939Y-83714092D01*
X147213939Y-83464055D01*
X147231091Y-83430130D01*
X147306688Y-83291694D01*
X147385478Y-83167398D01*
X147472706Y-83050062D01*
X147573614Y-82932508D01*
X147693446Y-82807557D01*
X147722655Y-82778597D01*
X147845309Y-82663492D01*
X147962187Y-82566129D01*
X148080466Y-82481262D01*
X148207326Y-82403651D01*
X148349945Y-82328050D01*
X148470021Y-82271540D01*
X148721730Y-82175028D01*
X148977040Y-82106461D01*
X149236131Y-82065788D01*
X149330667Y-82056102D01*
X149330667Y-81763667D01*
X149655222Y-81763667D01*
X149655222Y-82056102D01*
X149749759Y-82065788D01*
X149875109Y-82081912D01*
X150132356Y-82136021D01*
X150385908Y-82218050D01*
X150635945Y-82328050D01*
X150669870Y-82345202D01*
X150808306Y-82420798D01*
X150932602Y-82499589D01*
X151049938Y-82586817D01*
X151167492Y-82687725D01*
X151292443Y-82807557D01*
X151321403Y-82836765D01*
X151436508Y-82959420D01*
X151533871Y-83076298D01*
X151618738Y-83194577D01*
X151696349Y-83321437D01*
X151771950Y-83464055D01*
X151828460Y-83584132D01*
X151924972Y-83835840D01*
X151993539Y-84091151D01*
X152034212Y-84350241D01*
X152043898Y-84444778D01*
X152336333Y-84444778D01*
X152336333Y-84769333D01*
X149327561Y-84257805D02*
X149323611Y-84437722D01*
X149323611Y-84437722D02*
X149143695Y-84441671D01*
X149143695Y-84441671D02*
X148963778Y-84445621D01*
X148963778Y-84445621D02*
X148963778Y-84768490D01*
X148963778Y-84768490D02*
X149143695Y-84772439D01*
X149143695Y-84772439D02*
X149323611Y-84776389D01*
X149323611Y-84776389D02*
X149327561Y-84956305D01*
X149327561Y-84956305D02*
X149331510Y-85136222D01*
X149331510Y-85136222D02*
X149654379Y-85136222D01*
X149654379Y-85136222D02*
X149658329Y-84956305D01*
X149658329Y-84956305D02*
X149662278Y-84776389D01*
X149662278Y-84776389D02*
X149842195Y-84772439D01*
X149842195Y-84772439D02*
X150022111Y-84768490D01*
X150022111Y-84768490D02*
X150022111Y-84445621D01*
X150022111Y-84445621D02*
X149842195Y-84441671D01*
X149842195Y-84441671D02*
X149662278Y-84437722D01*
X149662278Y-84437722D02*
X149658329Y-84257805D01*
X149658329Y-84257805D02*
X149654379Y-84077889D01*
X149654379Y-84077889D02*
X149331510Y-84077889D01*
X149331510Y-84077889D02*
X149327561Y-84257805D01*
X149327561Y-84257805D02*
X149327561Y-84257805D01*
G36*
X149658329Y-84257805D02*
G01*
X149662278Y-84437722D01*
X149842195Y-84441671D01*
X150022111Y-84445621D01*
X150022111Y-84768490D01*
X149842195Y-84772439D01*
X149662278Y-84776389D01*
X149658329Y-84956305D01*
X149654379Y-85136222D01*
X149331510Y-85136222D01*
X149327561Y-84956305D01*
X149323611Y-84776389D01*
X149143695Y-84772439D01*
X148963778Y-84768490D01*
X148963778Y-84445621D01*
X149143695Y-84441671D01*
X149323611Y-84437722D01*
X149327561Y-84257805D01*
X149331510Y-84077889D01*
X149654379Y-84077889D01*
X149658329Y-84257805D01*
G37*
X149658329Y-84257805D02*
X149662278Y-84437722D01*
X149842195Y-84441671D01*
X150022111Y-84445621D01*
X150022111Y-84768490D01*
X149842195Y-84772439D01*
X149662278Y-84776389D01*
X149658329Y-84956305D01*
X149654379Y-85136222D01*
X149331510Y-85136222D01*
X149327561Y-84956305D01*
X149323611Y-84776389D01*
X149143695Y-84772439D01*
X148963778Y-84768490D01*
X148963778Y-84445621D01*
X149143695Y-84441671D01*
X149323611Y-84437722D01*
X149327561Y-84257805D01*
X149331510Y-84077889D01*
X149654379Y-84077889D01*
X149658329Y-84257805D01*
M02*
