G04 #@! TF.GenerationSoftware,KiCad,Pcbnew,(6.0.1-0)*
G04 #@! TF.CreationDate,2022-12-09T09:44:15-05:00*
G04 #@! TF.ProjectId,mobo,6d6f626f-2e6b-4696-9361-645f70636258,rev?*
G04 #@! TF.SameCoordinates,Original*
G04 #@! TF.FileFunction,Copper,L2,Bot*
G04 #@! TF.FilePolarity,Positive*
%FSLAX46Y46*%
G04 Gerber Fmt 4.6, Leading zero omitted, Abs format (unit mm)*
G04 Created by KiCad (PCBNEW (6.0.1-0)) date 2022-12-09 09:44:15*
%MOMM*%
%LPD*%
G01*
G04 APERTURE LIST*
G04 #@! TA.AperFunction,ComponentPad*
%ADD10R,1.700000X1.700000*%
G04 #@! TD*
G04 #@! TA.AperFunction,ComponentPad*
%ADD11O,1.700000X1.700000*%
G04 #@! TD*
G04 #@! TA.AperFunction,SMDPad,CuDef*
%ADD12R,0.740000X2.400000*%
G04 #@! TD*
G04 #@! TA.AperFunction,ViaPad*
%ADD13C,0.600000*%
G04 #@! TD*
G04 #@! TA.AperFunction,ViaPad*
%ADD14C,0.800000*%
G04 #@! TD*
G04 #@! TA.AperFunction,Conductor*
%ADD15C,1.000000*%
G04 #@! TD*
G04 #@! TA.AperFunction,Conductor*
%ADD16C,2.000000*%
G04 #@! TD*
G04 #@! TA.AperFunction,Conductor*
%ADD17C,0.200000*%
G04 #@! TD*
G04 #@! TA.AperFunction,Conductor*
%ADD18C,0.250000*%
G04 #@! TD*
G04 #@! TA.AperFunction,Conductor*
%ADD19C,0.500000*%
G04 #@! TD*
G04 APERTURE END LIST*
D10*
X117900000Y-117000000D03*
D11*
X115360000Y-117000000D03*
X112820000Y-117000000D03*
X110280000Y-117000000D03*
X107740000Y-117000000D03*
X105200000Y-117000000D03*
D12*
X95460000Y-89350000D03*
X95460000Y-93250000D03*
X96730000Y-89350000D03*
X96730000Y-93250000D03*
X98000000Y-89350000D03*
X98000000Y-93250000D03*
X99270000Y-89350000D03*
X99270000Y-93250000D03*
X100540000Y-89350000D03*
X100540000Y-93250000D03*
D13*
X124800000Y-105400000D03*
X131300000Y-107850000D03*
X108600000Y-68200000D03*
X120200000Y-117250000D03*
X105600000Y-46000000D03*
X102100000Y-107300000D03*
X109150000Y-74250000D03*
X103100000Y-107300000D03*
X96600000Y-110900000D03*
X128200000Y-69400000D03*
X96600000Y-109150000D03*
X120750000Y-96050000D03*
X120850000Y-118400000D03*
X115650000Y-94850000D03*
X125300000Y-68800000D03*
X103200000Y-46100000D03*
X124200000Y-117250000D03*
X112550000Y-89900000D03*
X100950000Y-70750000D03*
X101750000Y-89200000D03*
X100400000Y-46100000D03*
X131850000Y-107050000D03*
X111550000Y-72450000D03*
X123050000Y-114200000D03*
X100700000Y-65100000D03*
X111500000Y-95900000D03*
X114850000Y-101550000D03*
X107700000Y-95000000D03*
X93350000Y-79900000D03*
X105500000Y-65100000D03*
X108400000Y-79600000D03*
X103100000Y-108200000D03*
X110950000Y-75200000D03*
X107200000Y-70700000D03*
X131550000Y-105400000D03*
X97550000Y-68150000D03*
X96600000Y-108300000D03*
X114700000Y-95400000D03*
X128900000Y-104850000D03*
X107700000Y-93850000D03*
D14*
X103163335Y-76462740D03*
D13*
X92000000Y-79100000D03*
X111800000Y-89300000D03*
D14*
X102063335Y-77562740D03*
D13*
X96600000Y-110050000D03*
X108200000Y-65700000D03*
X92300000Y-68800000D03*
X115800000Y-95800000D03*
X115250000Y-102350000D03*
X130350000Y-104600000D03*
X123800000Y-118400000D03*
X119850000Y-96050000D03*
X117400000Y-73200000D03*
X128800000Y-68850000D03*
X106500000Y-84050000D03*
X121550000Y-112650000D03*
D14*
X103163335Y-77562740D03*
D13*
X96400000Y-78550000D03*
X107400000Y-84300000D03*
X120700000Y-116500000D03*
X124400000Y-112600000D03*
X123900000Y-113500000D03*
X121900000Y-111750000D03*
X112250000Y-95100000D03*
X129850000Y-107850000D03*
X92300000Y-71200000D03*
X107400000Y-108900000D03*
X110550000Y-103100000D03*
X115500000Y-73200000D03*
X121400000Y-68500000D03*
X96700000Y-102000000D03*
X96700000Y-102800000D03*
X114050000Y-107900000D03*
X122700000Y-111400000D03*
X96450000Y-73300000D03*
X114450000Y-102350000D03*
X92300000Y-70200000D03*
X115600000Y-101550000D03*
X128300000Y-105600000D03*
X123650000Y-111650000D03*
X122300000Y-66600000D03*
X123650000Y-105400000D03*
X107600000Y-74500000D03*
X128700000Y-107050000D03*
X113250000Y-89300000D03*
X120200000Y-70900000D03*
X122300000Y-65600000D03*
X123200000Y-116500000D03*
X107200000Y-83400000D03*
X107450000Y-111500000D03*
X102100000Y-108200000D03*
X114100000Y-101550000D03*
X92300000Y-72300000D03*
X116300000Y-73200000D03*
X104995835Y-74537740D03*
X111500000Y-94300000D03*
X92300000Y-73350000D03*
D14*
X102063335Y-76462740D03*
D13*
X96700000Y-103600000D03*
X99000000Y-37900000D03*
X122300000Y-67400000D03*
X107700000Y-91550000D03*
X96600000Y-85100000D03*
X107700000Y-92700000D03*
X103412835Y-70900000D03*
X96700000Y-101200000D03*
X107600000Y-73750000D03*
X97600000Y-83100000D03*
X112550000Y-99900000D03*
X112550000Y-102950000D03*
X118050000Y-89600000D03*
X115000000Y-89600000D03*
X116150000Y-107000000D03*
X112550000Y-106200000D03*
X96600000Y-83100000D03*
X118750000Y-72250000D03*
X99800000Y-71050000D03*
X112550000Y-101350000D03*
X118750000Y-73900000D03*
X112550000Y-104500000D03*
X95600000Y-83100000D03*
X112250000Y-69600000D03*
X128200000Y-65900000D03*
X118749511Y-73100000D03*
X128200000Y-65100000D03*
X116600000Y-89650000D03*
X109200000Y-62050000D03*
X106300000Y-80400000D03*
X100550000Y-91300000D03*
X97250000Y-69400000D03*
X101738556Y-70600000D03*
X123900000Y-97350000D03*
X102100000Y-82500000D03*
X123850000Y-101150000D03*
X101300000Y-82500000D03*
X117000000Y-96300000D03*
X100700000Y-81900000D03*
X95450000Y-91300000D03*
X110050000Y-62850000D03*
X105550000Y-81900000D03*
X107450000Y-79750000D03*
X110800000Y-62100000D03*
X96700000Y-91300000D03*
X92000000Y-78100000D03*
X96400000Y-77600000D03*
X96300000Y-76750000D03*
X101100000Y-77750000D03*
X92000000Y-77200000D03*
X116200000Y-71500000D03*
X108499242Y-78312240D03*
X109150000Y-78800000D03*
X117300000Y-72200000D03*
X107500000Y-40400000D03*
X113100000Y-63550000D03*
X107600000Y-75300000D03*
X103700000Y-82500000D03*
X125500000Y-95050000D03*
X102000000Y-109900000D03*
X111600000Y-109900000D03*
X125300000Y-67600000D03*
X108550000Y-76812240D03*
X125300000Y-66400000D03*
X109150000Y-76264982D03*
X106600000Y-108500000D03*
X107300000Y-105350000D03*
X124750000Y-96100000D03*
X102900000Y-82500000D03*
X125850000Y-106550000D03*
X117400000Y-102400000D03*
X96450000Y-75900000D03*
X92000000Y-76200000D03*
X92000000Y-75300000D03*
X96450000Y-75000000D03*
X92000000Y-74300000D03*
X96450000Y-74150000D03*
D15*
X128200000Y-67900000D02*
X128200000Y-65900000D01*
X118749511Y-73100000D02*
X118749511Y-72250489D01*
D16*
X109500000Y-99900000D02*
X112550000Y-99900000D01*
D15*
X118749511Y-73100000D02*
X118749511Y-73899511D01*
D17*
X110280000Y-116920000D02*
X110280000Y-117000000D01*
D16*
X97600000Y-83100000D02*
X96600000Y-83100000D01*
D17*
X116150000Y-111050000D02*
X110280000Y-116920000D01*
D16*
X96600000Y-83100000D02*
X95600000Y-83100000D01*
D15*
X115000000Y-89600000D02*
X118050000Y-89600000D01*
D16*
X98100000Y-83100000D02*
X105600000Y-90600000D01*
D18*
X112550000Y-102950000D02*
X112550000Y-101350000D01*
D15*
X118050000Y-74600000D02*
X118050000Y-89600000D01*
D16*
X112550000Y-101650000D02*
X112550000Y-103300000D01*
X112550000Y-99900000D02*
X112550000Y-101650000D01*
D17*
X116150000Y-107000000D02*
X116150000Y-111050000D01*
D15*
X118749511Y-73899511D02*
X118750000Y-73900000D01*
X118750000Y-72250000D02*
X118900000Y-72100000D01*
D16*
X105600000Y-96000000D02*
X109500000Y-99900000D01*
D15*
X118900000Y-72100000D02*
X124000000Y-72100000D01*
X128200000Y-65100000D02*
X128200000Y-65900000D01*
D19*
X95460000Y-89350000D02*
X95460000Y-83240000D01*
D16*
X105600000Y-90600000D02*
X105600000Y-96000000D01*
D17*
X111750000Y-69600000D02*
X112250000Y-69600000D01*
D16*
X112550000Y-103300000D02*
X112550000Y-104700000D01*
D15*
X118749511Y-72250489D02*
X118750000Y-72250000D01*
D16*
X97600000Y-83100000D02*
X98100000Y-83100000D01*
D15*
X124000000Y-72100000D02*
X128200000Y-67900000D01*
D19*
X95460000Y-83240000D02*
X95600000Y-83100000D01*
D16*
X112550000Y-104700000D02*
X112550000Y-106200000D01*
D17*
X107600000Y-73750000D02*
X111750000Y-69600000D01*
D15*
X118750000Y-73900000D02*
X118050000Y-74600000D01*
D17*
X97250000Y-69400000D02*
X97900000Y-70050000D01*
X109200000Y-69800000D02*
X105750000Y-73250000D01*
X105750000Y-79850000D02*
X105750000Y-73250000D01*
X100550000Y-93240000D02*
X100540000Y-93250000D01*
X105750000Y-73250000D02*
X104400000Y-73250000D01*
X101750000Y-70600000D02*
X101738556Y-70600000D01*
X100550000Y-91300000D02*
X100550000Y-93240000D01*
X97900000Y-70050000D02*
X101188556Y-70050000D01*
X104400000Y-73250000D02*
X101750000Y-70600000D01*
X106300000Y-80400000D02*
X105750000Y-79850000D01*
X101188556Y-70050000D02*
X101738556Y-70600000D01*
X109200000Y-62050000D02*
X109200000Y-69800000D01*
X123900000Y-97350000D02*
X123900000Y-94100000D01*
D18*
X119400000Y-116450000D02*
X120100960Y-115749040D01*
D17*
X121900000Y-92100000D02*
X111700000Y-92100000D01*
D18*
X127300000Y-100500000D02*
X124600000Y-100500000D01*
X127400000Y-104600000D02*
X128200000Y-103800000D01*
X112820000Y-117000000D02*
X114220000Y-118400000D01*
X128200000Y-103800000D02*
X128200000Y-101400000D01*
X119000000Y-118400000D02*
X119400000Y-118000000D01*
X123900000Y-99800000D02*
X123900000Y-97350000D01*
D17*
X123900000Y-94100000D02*
X121900000Y-92100000D01*
X111700000Y-92100000D02*
X102100000Y-82500000D01*
D18*
X124600000Y-100500000D02*
X123900000Y-99800000D01*
X127400000Y-112000000D02*
X127400000Y-104600000D01*
X123650960Y-115749040D02*
X127400000Y-112000000D01*
X119400000Y-118000000D02*
X119400000Y-116450000D01*
X114220000Y-118400000D02*
X119000000Y-118400000D01*
X120100960Y-115749040D02*
X123650960Y-115749040D01*
X128200000Y-101400000D02*
X127300000Y-100500000D01*
X116850000Y-115150000D02*
X115360000Y-116640000D01*
X126750000Y-104200000D02*
X126750000Y-111800000D01*
X123850000Y-101150000D02*
X127000000Y-101150000D01*
X123400000Y-115150000D02*
X116850000Y-115150000D01*
D17*
X123200000Y-94200000D02*
X121661444Y-92661444D01*
D18*
X127000000Y-101150000D02*
X127500000Y-101650000D01*
X127500000Y-103450000D02*
X126750000Y-104200000D01*
X126750000Y-111800000D02*
X123400000Y-115150000D01*
D17*
X123200000Y-100500000D02*
X123200000Y-94200000D01*
D18*
X115360000Y-116640000D02*
X115360000Y-117000000D01*
D17*
X121661444Y-92661444D02*
X111461444Y-92661444D01*
X123850000Y-101150000D02*
X123200000Y-100500000D01*
X111461444Y-92661444D02*
X101300000Y-82500000D01*
D18*
X127500000Y-101650000D02*
X127500000Y-103450000D01*
D17*
X111222873Y-93200000D02*
X100700000Y-82677127D01*
X115850000Y-93200000D02*
X111222873Y-93200000D01*
X117000000Y-96300000D02*
X117000000Y-94350000D01*
X117000000Y-94350000D02*
X115850000Y-93200000D01*
X100700000Y-82677127D02*
X100700000Y-81900000D01*
X95460000Y-91310000D02*
X95460000Y-93250000D01*
X106250000Y-79450000D02*
X106250000Y-73500000D01*
X106850000Y-80050000D02*
X106250000Y-79450000D01*
X106250000Y-73500000D02*
X110050000Y-69700000D01*
X106850000Y-81100000D02*
X106850000Y-80050000D01*
X95450000Y-91300000D02*
X95460000Y-91310000D01*
X106050000Y-81900000D02*
X106850000Y-81100000D01*
X105550000Y-81900000D02*
X106050000Y-81900000D01*
X110050000Y-69700000D02*
X110050000Y-62850000D01*
X110800000Y-62100000D02*
X110800000Y-69750000D01*
X96700000Y-91300000D02*
X96700000Y-93220000D01*
X96700000Y-93220000D02*
X96730000Y-93250000D01*
X110800000Y-69750000D02*
X106750000Y-73800000D01*
X106750000Y-79050000D02*
X107450000Y-79750000D01*
X106750000Y-73800000D02*
X106750000Y-79050000D01*
X92200000Y-77900000D02*
X92000000Y-78100000D01*
X96100000Y-77900000D02*
X92200000Y-77900000D01*
X96400000Y-77600000D02*
X96100000Y-77900000D01*
X96300000Y-76750000D02*
X95650000Y-76750000D01*
X96300000Y-76750000D02*
X96400000Y-76650000D01*
X95650000Y-76750000D02*
X95200000Y-77200000D01*
X96400000Y-76650000D02*
X100000000Y-76650000D01*
X100000000Y-76650000D02*
X101100000Y-77750000D01*
X95200000Y-77200000D02*
X92000000Y-77200000D01*
X115600000Y-71500000D02*
X116200000Y-71500000D01*
X114250000Y-75500000D02*
X114250000Y-72850000D01*
X108560993Y-78250489D02*
X111499511Y-78250489D01*
X108499242Y-78312240D02*
X108560993Y-78250489D01*
X111499511Y-78250489D02*
X114250000Y-75500000D01*
X114250000Y-72850000D02*
X115600000Y-71500000D01*
X114800000Y-72900000D02*
X115500000Y-72200000D01*
X109150000Y-78800000D02*
X111800000Y-78800000D01*
X115500000Y-72200000D02*
X117300000Y-72200000D01*
X114800000Y-75800000D02*
X114800000Y-72900000D01*
X111800000Y-78800000D02*
X114800000Y-75800000D01*
X107600000Y-75300000D02*
X107850000Y-75300000D01*
X111656241Y-70543759D02*
X112556241Y-70543759D01*
D18*
X107500000Y-56300000D02*
X113100000Y-61900000D01*
X107500000Y-40400000D02*
X107500000Y-56300000D01*
D17*
X108350000Y-73850000D02*
X111656241Y-70543759D01*
X108350000Y-74800000D02*
X108350000Y-73850000D01*
D18*
X113100000Y-61900000D02*
X113100000Y-63550000D01*
D17*
X113100000Y-70000000D02*
X113100000Y-63550000D01*
X112556241Y-70543759D02*
X113100000Y-70000000D01*
X107850000Y-75300000D02*
X108350000Y-74800000D01*
X112100000Y-90900000D02*
X103700000Y-82500000D01*
X122400000Y-90900000D02*
X112100000Y-90900000D01*
X125500000Y-94000000D02*
X122400000Y-90900000D01*
X125500000Y-95050000D02*
X125500000Y-94000000D01*
D18*
X102000000Y-109900000D02*
X111600000Y-109900000D01*
D17*
X108550000Y-76812240D02*
X108552253Y-76814493D01*
X116150000Y-70100000D02*
X122800000Y-70100000D01*
X113650000Y-75150000D02*
X113650000Y-72600000D01*
X122800000Y-70100000D02*
X125300000Y-67600000D01*
X113650000Y-72600000D02*
X116150000Y-70100000D01*
X108552253Y-76814493D02*
X111985507Y-76814493D01*
X111985507Y-76814493D02*
X113650000Y-75150000D01*
X122200000Y-69500000D02*
X125300000Y-66400000D01*
X109150000Y-76264982D02*
X111735018Y-76264982D01*
X111735018Y-76264982D02*
X113100000Y-74900000D01*
X113100000Y-72350000D02*
X115950000Y-69500000D01*
X115950000Y-69500000D02*
X122200000Y-69500000D01*
X113100000Y-74900000D02*
X113100000Y-72350000D01*
X107300000Y-107800000D02*
X107300000Y-105350000D01*
X106600000Y-108500000D02*
X107300000Y-107800000D01*
X122150000Y-91500000D02*
X111900000Y-91500000D01*
X111900000Y-91500000D02*
X102900000Y-82500000D01*
X124750000Y-94100000D02*
X122150000Y-91500000D01*
X124750000Y-96100000D02*
X124750000Y-94100000D01*
X121600000Y-106600000D02*
X125800000Y-106600000D01*
X117400000Y-102400000D02*
X121600000Y-106600000D01*
X125800000Y-106600000D02*
X125850000Y-106550000D01*
X96450000Y-75900000D02*
X95225000Y-75900000D01*
X94925000Y-76200000D02*
X92000000Y-76200000D01*
X95225000Y-75900000D02*
X94925000Y-76200000D01*
X94700000Y-75300000D02*
X92000000Y-75300000D01*
X96450000Y-75000000D02*
X95000000Y-75000000D01*
X95000000Y-75000000D02*
X94700000Y-75300000D01*
X96300000Y-74300000D02*
X92000000Y-74300000D01*
X96450000Y-74150000D02*
X96300000Y-74300000D01*
G04 #@! TA.AperFunction,Conductor*
G36*
X109288227Y-30202518D02*
G01*
X109299642Y-30205143D01*
X109310516Y-30202682D01*
X109321665Y-30202702D01*
X109321663Y-30203716D01*
X109331524Y-30203105D01*
X109387538Y-30208622D01*
X109446370Y-30214416D01*
X109465400Y-30218202D01*
X109500985Y-30228996D01*
X109596817Y-30258066D01*
X109614745Y-30265492D01*
X109665229Y-30292476D01*
X109735856Y-30330227D01*
X109751991Y-30341008D01*
X109858152Y-30428131D01*
X109871869Y-30441848D01*
X109881454Y-30453527D01*
X109958992Y-30548009D01*
X109969772Y-30564143D01*
X110003923Y-30628033D01*
X110034507Y-30685252D01*
X110041934Y-30703183D01*
X110081798Y-30834598D01*
X110085584Y-30853633D01*
X110094763Y-30946838D01*
X110094616Y-30967642D01*
X110094131Y-30971941D01*
X110092880Y-30977396D01*
X110092883Y-30982994D01*
X110092883Y-30982997D01*
X110095780Y-35872417D01*
X110100013Y-43015557D01*
X110101252Y-43020973D01*
X110106271Y-43042916D01*
X110108459Y-43057224D01*
X110118216Y-43181195D01*
X110162310Y-43364860D01*
X110163797Y-43368449D01*
X110233102Y-43535770D01*
X110233105Y-43535775D01*
X110234592Y-43539366D01*
X110236624Y-43542681D01*
X110236626Y-43542686D01*
X110283938Y-43619892D01*
X110333284Y-43700417D01*
X110455954Y-43844046D01*
X110599583Y-43966716D01*
X110680109Y-44016062D01*
X110757314Y-44063374D01*
X110757319Y-44063376D01*
X110760634Y-44065408D01*
X110764225Y-44066895D01*
X110764230Y-44066898D01*
X110802726Y-44082843D01*
X110935140Y-44137690D01*
X111118805Y-44181784D01*
X111122670Y-44182088D01*
X111122675Y-44182089D01*
X111289301Y-44195203D01*
X111295356Y-44196137D01*
X111295357Y-44196127D01*
X111300923Y-44196768D01*
X111306391Y-44198035D01*
X111307107Y-44198036D01*
X111318738Y-44195383D01*
X111340786Y-44192904D01*
X117736926Y-44195070D01*
X132001036Y-44199899D01*
X132059218Y-44218826D01*
X132095165Y-44268338D01*
X132100000Y-44298899D01*
X132100000Y-77876150D01*
X132081093Y-77934341D01*
X132071004Y-77946154D01*
X131598500Y-78418657D01*
X131187222Y-78829935D01*
X131181521Y-78835023D01*
X131172295Y-78839453D01*
X131165333Y-78848159D01*
X131154132Y-78862165D01*
X131146819Y-78870338D01*
X131142636Y-78874521D01*
X131139682Y-78879220D01*
X131139662Y-78879246D01*
X131133195Y-78888345D01*
X131123771Y-78900130D01*
X131115306Y-78910715D01*
X131112969Y-78920882D01*
X131112313Y-78922066D01*
X131111937Y-78923366D01*
X131106386Y-78932197D01*
X131103648Y-78956414D01*
X131103168Y-78960658D01*
X131101277Y-78971721D01*
X131100000Y-78977277D01*
X131100000Y-78983104D01*
X131099373Y-78994226D01*
X131098691Y-79000262D01*
X131096135Y-79022866D01*
X131099555Y-79032660D01*
X131100000Y-79040614D01*
X131100000Y-98959487D01*
X131099567Y-98967118D01*
X131096175Y-98976777D01*
X131097408Y-98987857D01*
X131097408Y-98987859D01*
X131099392Y-99005682D01*
X131100000Y-99016633D01*
X131100000Y-99022546D01*
X131101237Y-99027967D01*
X131101241Y-99028005D01*
X131103098Y-99038991D01*
X131105033Y-99056380D01*
X131105035Y-99056386D01*
X131106268Y-99067464D01*
X131111803Y-99076306D01*
X131112177Y-99077607D01*
X131112829Y-99078790D01*
X131115150Y-99088962D01*
X131122097Y-99097680D01*
X131133004Y-99111368D01*
X131139485Y-99120521D01*
X131142511Y-99125354D01*
X131146637Y-99129480D01*
X131154055Y-99137785D01*
X131172015Y-99160323D01*
X131181357Y-99164829D01*
X131187287Y-99170130D01*
X132071004Y-100053847D01*
X132098781Y-100108364D01*
X132100000Y-100123851D01*
X132100000Y-105884487D01*
X132097245Y-105904831D01*
X132097424Y-105904859D01*
X132096553Y-105910389D01*
X132095064Y-105915784D01*
X132095033Y-105916499D01*
X132096051Y-105922009D01*
X132096442Y-105927599D01*
X132096417Y-105927601D01*
X132097108Y-105934070D01*
X132102626Y-106117815D01*
X132112495Y-106174307D01*
X132134366Y-106299500D01*
X132137275Y-106316153D01*
X132199823Y-106507533D01*
X132201387Y-106510699D01*
X132287430Y-106684884D01*
X132287434Y-106684890D01*
X132288995Y-106688051D01*
X132290991Y-106690958D01*
X132290993Y-106690961D01*
X132348463Y-106774651D01*
X132402971Y-106854027D01*
X132539429Y-107002074D01*
X132542175Y-107004309D01*
X132542177Y-107004311D01*
X132569252Y-107026348D01*
X132681250Y-107117508D01*
X132686156Y-107122184D01*
X132686187Y-107122149D01*
X132690370Y-107125867D01*
X132694107Y-107130031D01*
X132694692Y-107130443D01*
X132705236Y-107134746D01*
X132724996Y-107145580D01*
X132926625Y-107288196D01*
X133184192Y-107470378D01*
X133199547Y-107483815D01*
X133201942Y-107486392D01*
X133201945Y-107486394D01*
X133209534Y-107494562D01*
X133219913Y-107498630D01*
X133229129Y-107504906D01*
X133228714Y-107505515D01*
X133237254Y-107510501D01*
X133346714Y-107599690D01*
X133359133Y-107611763D01*
X133428976Y-107692712D01*
X133466367Y-107736049D01*
X133476493Y-107750106D01*
X133560417Y-107891180D01*
X133567937Y-107906786D01*
X133625984Y-108060328D01*
X133630669Y-108077007D01*
X133661061Y-108238317D01*
X133662767Y-108255558D01*
X133664573Y-108419700D01*
X133663247Y-108436973D01*
X133636413Y-108598909D01*
X133632097Y-108615687D01*
X133578598Y-108767203D01*
X133577442Y-108770476D01*
X133570266Y-108786245D01*
X133501015Y-108908708D01*
X133494993Y-108916288D01*
X133495700Y-108916776D01*
X133489369Y-108925950D01*
X133481153Y-108933490D01*
X133477020Y-108943846D01*
X133477018Y-108943849D01*
X133476842Y-108944290D01*
X133466248Y-108964009D01*
X130702720Y-112949097D01*
X126687539Y-118739104D01*
X126674840Y-118757416D01*
X126626143Y-118794459D01*
X126593487Y-118800000D01*
X119301576Y-118800000D01*
X119243385Y-118781093D01*
X119207421Y-118731593D01*
X119207421Y-118670407D01*
X119225735Y-118637367D01*
X119237447Y-118623410D01*
X119243270Y-118617056D01*
X119617064Y-118243263D01*
X119623417Y-118237441D01*
X119653194Y-118212455D01*
X119672629Y-118178792D01*
X119677269Y-118171509D01*
X119681546Y-118165402D01*
X119699553Y-118139684D01*
X119701795Y-118131318D01*
X119704262Y-118126027D01*
X119706255Y-118120550D01*
X119710588Y-118113045D01*
X119717337Y-118074769D01*
X119719206Y-118066337D01*
X119722150Y-118055351D01*
X119729263Y-118028807D01*
X119725877Y-117990103D01*
X119725500Y-117981475D01*
X119725500Y-116625834D01*
X119744407Y-116567643D01*
X119754496Y-116555830D01*
X120206790Y-116103536D01*
X120261307Y-116075759D01*
X120276794Y-116074540D01*
X123632426Y-116074540D01*
X123641055Y-116074917D01*
X123679767Y-116078304D01*
X123689265Y-116075759D01*
X123717309Y-116068244D01*
X123725744Y-116066374D01*
X123755477Y-116061132D01*
X123755479Y-116061131D01*
X123764005Y-116059628D01*
X123771504Y-116055298D01*
X123776989Y-116053302D01*
X123782276Y-116050836D01*
X123790644Y-116048594D01*
X123822471Y-116026308D01*
X123829755Y-116021667D01*
X123863415Y-116002234D01*
X123888391Y-115972469D01*
X123894225Y-115966101D01*
X127617069Y-112243258D01*
X127623424Y-112237435D01*
X127653194Y-112212455D01*
X127672636Y-112178781D01*
X127677261Y-112171522D01*
X127694587Y-112146778D01*
X127694587Y-112146777D01*
X127699554Y-112139684D01*
X127701795Y-112131322D01*
X127704258Y-112126040D01*
X127706257Y-112120546D01*
X127710588Y-112113045D01*
X127717337Y-112074771D01*
X127719206Y-112066344D01*
X127727022Y-112037173D01*
X127727022Y-112037170D01*
X127729263Y-112028807D01*
X127725877Y-111990103D01*
X127725500Y-111981475D01*
X127725500Y-104775834D01*
X127744407Y-104717643D01*
X127754496Y-104705830D01*
X128417057Y-104043269D01*
X128423425Y-104037434D01*
X128434085Y-104028489D01*
X128453194Y-104012455D01*
X128472629Y-103978792D01*
X128477268Y-103971511D01*
X128487617Y-103956731D01*
X128499554Y-103939684D01*
X128501796Y-103931316D01*
X128504262Y-103926029D01*
X128506258Y-103920544D01*
X128510588Y-103913045D01*
X128517334Y-103874783D01*
X128519204Y-103866349D01*
X128527022Y-103837174D01*
X128529264Y-103828807D01*
X128525877Y-103790091D01*
X128525500Y-103781463D01*
X128525500Y-101418526D01*
X128525877Y-101409898D01*
X128528508Y-101379820D01*
X128529263Y-101371193D01*
X128527022Y-101362830D01*
X128527022Y-101362827D01*
X128519206Y-101333656D01*
X128517337Y-101325228D01*
X128512092Y-101295485D01*
X128510588Y-101286955D01*
X128506257Y-101279454D01*
X128504258Y-101273960D01*
X128501795Y-101268678D01*
X128499554Y-101260316D01*
X128477259Y-101228475D01*
X128472636Y-101221219D01*
X128453194Y-101187545D01*
X128423435Y-101162574D01*
X128417067Y-101156740D01*
X127543268Y-100282941D01*
X127537434Y-100276574D01*
X127518022Y-100253440D01*
X127518021Y-100253439D01*
X127512455Y-100246806D01*
X127478792Y-100227371D01*
X127471511Y-100222732D01*
X127467215Y-100219724D01*
X127439684Y-100200446D01*
X127431316Y-100198204D01*
X127426029Y-100195738D01*
X127420544Y-100193742D01*
X127413045Y-100189412D01*
X127404519Y-100187909D01*
X127404517Y-100187908D01*
X127374784Y-100182666D01*
X127366349Y-100180796D01*
X127365342Y-100180526D01*
X127328807Y-100170736D01*
X127320178Y-100171491D01*
X127290095Y-100174123D01*
X127281466Y-100174500D01*
X124775835Y-100174500D01*
X124717644Y-100155593D01*
X124705832Y-100145504D01*
X124254497Y-99694170D01*
X124226719Y-99639653D01*
X124225500Y-99624166D01*
X124225500Y-97774424D01*
X124244407Y-97716233D01*
X124251102Y-97707988D01*
X124314468Y-97637982D01*
X124319200Y-97632754D01*
X124381710Y-97503733D01*
X124405496Y-97362354D01*
X124405647Y-97350000D01*
X124385323Y-97208082D01*
X124325984Y-97077572D01*
X124279192Y-97023268D01*
X124237007Y-96974309D01*
X124237005Y-96974307D01*
X124232400Y-96968963D01*
X124232512Y-96968866D01*
X124202998Y-96919549D01*
X124200500Y-96897449D01*
X124200500Y-96495816D01*
X124219407Y-96437625D01*
X124268907Y-96401661D01*
X124330093Y-96401661D01*
X124375283Y-96432114D01*
X124383960Y-96442436D01*
X124412970Y-96476948D01*
X124418841Y-96480856D01*
X124418842Y-96480857D01*
X124431143Y-96489045D01*
X124532313Y-96556390D01*
X124616701Y-96582754D01*
X124662425Y-96597039D01*
X124662426Y-96597039D01*
X124669157Y-96599142D01*
X124740828Y-96600456D01*
X124805445Y-96601641D01*
X124805447Y-96601641D01*
X124812499Y-96601770D01*
X124819302Y-96599915D01*
X124819304Y-96599915D01*
X124894503Y-96579413D01*
X124950817Y-96564060D01*
X125072991Y-96489045D01*
X125080403Y-96480857D01*
X125164468Y-96387982D01*
X125169200Y-96382754D01*
X125231710Y-96253733D01*
X125232986Y-96246152D01*
X125254862Y-96116124D01*
X125254862Y-96116120D01*
X125255496Y-96112354D01*
X125255647Y-96100000D01*
X125235323Y-95958082D01*
X125195070Y-95869549D01*
X125178905Y-95833996D01*
X125178904Y-95833995D01*
X125175984Y-95827572D01*
X125113210Y-95754719D01*
X125087007Y-95724309D01*
X125087005Y-95724307D01*
X125082400Y-95718963D01*
X125082512Y-95718866D01*
X125052998Y-95669549D01*
X125050500Y-95647449D01*
X125050500Y-95536909D01*
X125069407Y-95478718D01*
X125118907Y-95442754D01*
X125180093Y-95442754D01*
X125204356Y-95454497D01*
X125282313Y-95506390D01*
X125363433Y-95531733D01*
X125412425Y-95547039D01*
X125412426Y-95547039D01*
X125419157Y-95549142D01*
X125490828Y-95550456D01*
X125555445Y-95551641D01*
X125555447Y-95551641D01*
X125562499Y-95551770D01*
X125569302Y-95549915D01*
X125569304Y-95549915D01*
X125644503Y-95529413D01*
X125700817Y-95514060D01*
X125822991Y-95439045D01*
X125919200Y-95332754D01*
X125981710Y-95203733D01*
X126005496Y-95062354D01*
X126005647Y-95050000D01*
X125985323Y-94908082D01*
X125925984Y-94777572D01*
X125879192Y-94723267D01*
X125837007Y-94674309D01*
X125837005Y-94674307D01*
X125832400Y-94668963D01*
X125832512Y-94668866D01*
X125802998Y-94619549D01*
X125800500Y-94597449D01*
X125800500Y-94053508D01*
X125800803Y-94049383D01*
X125802425Y-94044658D01*
X125800570Y-93995239D01*
X125800500Y-93991526D01*
X125800500Y-93972052D01*
X125799675Y-93967622D01*
X125799338Y-93962417D01*
X125798569Y-93941925D01*
X125798226Y-93932792D01*
X125794620Y-93924398D01*
X125794619Y-93924395D01*
X125793683Y-93922217D01*
X125787317Y-93901266D01*
X125785209Y-93889947D01*
X125771232Y-93867271D01*
X125764548Y-93854404D01*
X125756795Y-93836358D01*
X125756794Y-93836357D01*
X125754036Y-93829937D01*
X125750022Y-93825051D01*
X125745658Y-93820687D01*
X125731387Y-93802632D01*
X125731264Y-93802433D01*
X125726468Y-93794652D01*
X125703231Y-93776982D01*
X125693161Y-93768190D01*
X122650320Y-90725349D01*
X122647620Y-90722220D01*
X122645425Y-90717731D01*
X122609178Y-90684107D01*
X122606502Y-90681531D01*
X122592723Y-90667752D01*
X122589013Y-90665207D01*
X122585100Y-90661771D01*
X122570055Y-90647815D01*
X122563354Y-90641599D01*
X122552664Y-90637334D01*
X122533348Y-90627020D01*
X122531393Y-90625679D01*
X122531390Y-90625678D01*
X122523854Y-90620508D01*
X122497941Y-90614359D01*
X122484116Y-90609986D01*
X122465868Y-90602706D01*
X122465866Y-90602706D01*
X122459378Y-90600117D01*
X122453085Y-90599500D01*
X122446916Y-90599500D01*
X122424057Y-90596825D01*
X122423827Y-90596770D01*
X122423825Y-90596770D01*
X122414934Y-90594660D01*
X122386013Y-90598596D01*
X122372663Y-90599500D01*
X112265479Y-90599500D01*
X112207288Y-90580593D01*
X112195475Y-90570504D01*
X111306076Y-89681105D01*
X114299031Y-89681105D01*
X114300423Y-89686901D01*
X114300423Y-89686905D01*
X114311141Y-89731546D01*
X114338612Y-89845968D01*
X114350009Y-89868049D01*
X114399334Y-89963614D01*
X114416375Y-89996631D01*
X114527831Y-90124396D01*
X114532713Y-90127827D01*
X114532714Y-90127828D01*
X114615998Y-90186361D01*
X114666547Y-90221887D01*
X114680828Y-90227455D01*
X114797880Y-90273092D01*
X114824513Y-90283476D01*
X114830428Y-90284255D01*
X114830429Y-90284255D01*
X114943624Y-90299157D01*
X114953826Y-90300500D01*
X118041231Y-90300500D01*
X118041750Y-90300501D01*
X118125138Y-90300938D01*
X118125140Y-90300938D01*
X118131105Y-90300969D01*
X118168723Y-90291938D01*
X118179924Y-90289923D01*
X118218320Y-90285276D01*
X118250568Y-90273090D01*
X118262444Y-90269436D01*
X118295968Y-90261388D01*
X118330329Y-90243653D01*
X118340741Y-90239017D01*
X118371340Y-90227455D01*
X118371343Y-90227454D01*
X118376923Y-90225345D01*
X118381836Y-90221968D01*
X118381846Y-90221963D01*
X118405335Y-90205818D01*
X118416006Y-90199431D01*
X118446631Y-90183625D01*
X118451130Y-90179701D01*
X118451132Y-90179699D01*
X118475779Y-90158199D01*
X118484783Y-90151214D01*
X118491936Y-90146298D01*
X118516651Y-90129312D01*
X118539582Y-90103575D01*
X118548418Y-90094831D01*
X118569899Y-90076092D01*
X118574396Y-90072169D01*
X118577826Y-90067288D01*
X118577830Y-90067284D01*
X118596633Y-90040530D01*
X118603711Y-90031599D01*
X118612202Y-90022069D01*
X118629440Y-90002721D01*
X118645572Y-89972254D01*
X118652066Y-89961656D01*
X118667429Y-89939796D01*
X118671887Y-89933453D01*
X118685933Y-89897427D01*
X118690677Y-89887064D01*
X118705984Y-89858155D01*
X118705985Y-89858152D01*
X118708776Y-89852881D01*
X118710230Y-89847093D01*
X118717174Y-89819448D01*
X118720953Y-89807606D01*
X118725126Y-89796903D01*
X118733476Y-89775487D01*
X118738525Y-89737139D01*
X118740660Y-89725947D01*
X118748627Y-89694231D01*
X118748627Y-89694228D01*
X118750081Y-89688441D01*
X118750288Y-89648903D01*
X118750342Y-89647371D01*
X118750500Y-89646174D01*
X118750500Y-89608769D01*
X118750501Y-89608250D01*
X118750947Y-89523115D01*
X118750947Y-89523113D01*
X118750969Y-89518895D01*
X118750619Y-89517439D01*
X118750500Y-89515371D01*
X118750500Y-78952749D01*
X122495572Y-78952749D01*
X122496199Y-78965795D01*
X122508408Y-79219980D01*
X122560602Y-79482378D01*
X122561842Y-79485833D01*
X122561843Y-79485835D01*
X122646295Y-79721053D01*
X122651008Y-79734179D01*
X122652746Y-79737414D01*
X122652748Y-79737418D01*
X122689245Y-79805342D01*
X122777639Y-79969851D01*
X122937714Y-80184217D01*
X123127716Y-80372569D01*
X123130675Y-80374739D01*
X123130679Y-80374742D01*
X123166244Y-80400819D01*
X123343471Y-80530767D01*
X123580239Y-80655337D01*
X123583710Y-80656549D01*
X123583712Y-80656550D01*
X123614218Y-80667203D01*
X123832819Y-80743542D01*
X123836419Y-80744226D01*
X123836421Y-80744226D01*
X124092054Y-80792759D01*
X124092056Y-80792759D01*
X124095663Y-80793444D01*
X124229329Y-80798695D01*
X124359325Y-80803803D01*
X124359328Y-80803803D01*
X124362995Y-80803947D01*
X124499613Y-80788985D01*
X124625303Y-80775220D01*
X124625306Y-80775219D01*
X124628944Y-80774821D01*
X124887666Y-80706705D01*
X125133478Y-80601096D01*
X125228272Y-80542436D01*
X125357854Y-80462249D01*
X125357859Y-80462245D01*
X125360980Y-80460314D01*
X125565174Y-80287451D01*
X125586998Y-80262566D01*
X125739149Y-80089071D01*
X125739153Y-80089066D01*
X125741575Y-80086304D01*
X125886306Y-79861294D01*
X125911511Y-79805342D01*
X125994681Y-79620710D01*
X125994682Y-79620708D01*
X125996189Y-79617362D01*
X126000367Y-79602548D01*
X126067813Y-79363404D01*
X126067814Y-79363401D01*
X126068810Y-79359868D01*
X126102573Y-79094469D01*
X126103851Y-79045658D01*
X126104982Y-79002492D01*
X126104982Y-79002487D01*
X126105047Y-79000000D01*
X126104863Y-78997527D01*
X126104863Y-78997517D01*
X126085492Y-78736851D01*
X126085491Y-78736845D01*
X126085220Y-78733197D01*
X126026175Y-78472255D01*
X126016987Y-78448628D01*
X125930539Y-78226326D01*
X125930537Y-78226321D01*
X125929209Y-78222907D01*
X125925442Y-78216315D01*
X125798274Y-77993819D01*
X125796452Y-77990631D01*
X125630820Y-77780528D01*
X125628147Y-77778014D01*
X125628142Y-77778008D01*
X125505540Y-77662676D01*
X125435953Y-77597215D01*
X125216131Y-77444719D01*
X125201428Y-77437468D01*
X125000596Y-77338429D01*
X124976183Y-77326390D01*
X124972686Y-77325271D01*
X124972682Y-77325269D01*
X124724882Y-77245948D01*
X124721380Y-77244827D01*
X124485369Y-77206390D01*
X124460937Y-77202411D01*
X124460936Y-77202411D01*
X124457320Y-77201822D01*
X124453656Y-77201774D01*
X124323562Y-77200071D01*
X124189805Y-77198320D01*
X124186177Y-77198814D01*
X124186173Y-77198814D01*
X124066303Y-77215128D01*
X123924710Y-77234398D01*
X123667859Y-77309263D01*
X123664523Y-77310801D01*
X123664520Y-77310802D01*
X123609907Y-77335979D01*
X123424896Y-77421270D01*
X123201157Y-77567960D01*
X123198425Y-77570399D01*
X123198423Y-77570400D01*
X123004299Y-77743662D01*
X123004295Y-77743666D01*
X123001558Y-77746109D01*
X122999211Y-77748931D01*
X122999209Y-77748933D01*
X122887911Y-77882754D01*
X122830483Y-77951804D01*
X122828579Y-77954941D01*
X122828578Y-77954943D01*
X122783431Y-78029343D01*
X122691691Y-78180526D01*
X122588231Y-78427250D01*
X122587327Y-78430811D01*
X122587326Y-78430813D01*
X122543942Y-78601641D01*
X122522376Y-78686557D01*
X122495572Y-78952749D01*
X118750500Y-78952749D01*
X118750500Y-74931164D01*
X118769407Y-74872973D01*
X118779496Y-74861160D01*
X119232899Y-74407757D01*
X119237823Y-74403158D01*
X119269410Y-74375603D01*
X119273907Y-74371680D01*
X119279374Y-74363902D01*
X119290732Y-74350461D01*
X119298767Y-74342510D01*
X119298771Y-74342505D01*
X119303010Y-74338310D01*
X119306130Y-74333219D01*
X119323222Y-74305328D01*
X119329719Y-74295978D01*
X119353583Y-74265543D01*
X119356038Y-74260107D01*
X119356041Y-74260101D01*
X119358862Y-74253852D01*
X119367579Y-74238570D01*
X119367968Y-74237844D01*
X119371398Y-74232964D01*
X119374893Y-74224001D01*
X119382714Y-74208245D01*
X119391598Y-74193747D01*
X119403355Y-74156908D01*
X119407439Y-74146269D01*
X119420899Y-74116457D01*
X119420900Y-74116455D01*
X119423355Y-74111017D01*
X119425647Y-74098649D01*
X119430748Y-74080740D01*
X119432987Y-74074998D01*
X119434286Y-74065129D01*
X119438125Y-74047960D01*
X119441332Y-74037909D01*
X119443146Y-74032225D01*
X119445777Y-73993632D01*
X119447206Y-73982325D01*
X119448662Y-73974471D01*
X119454252Y-73944308D01*
X119452863Y-73920216D01*
X119452268Y-73909900D01*
X119452333Y-73897467D01*
X119453689Y-73877572D01*
X119454678Y-73863070D01*
X119451485Y-73844774D01*
X119450011Y-73827754D01*
X119450011Y-72899500D01*
X119468918Y-72841309D01*
X119518418Y-72805345D01*
X119549011Y-72800500D01*
X123972271Y-72800500D01*
X123979005Y-72800729D01*
X124036930Y-72804678D01*
X124042801Y-72803653D01*
X124042806Y-72803653D01*
X124099820Y-72793702D01*
X124104947Y-72792945D01*
X124162396Y-72785993D01*
X124162397Y-72785993D01*
X124168320Y-72785276D01*
X124176932Y-72782022D01*
X124194895Y-72777108D01*
X124203954Y-72775527D01*
X124241301Y-72759133D01*
X124262404Y-72749870D01*
X124267202Y-72747912D01*
X124321339Y-72727455D01*
X124326923Y-72725345D01*
X124331838Y-72721967D01*
X124331846Y-72721963D01*
X124334505Y-72720135D01*
X124350778Y-72711077D01*
X124353739Y-72709777D01*
X124359202Y-72707379D01*
X124363934Y-72703748D01*
X124363939Y-72703745D01*
X124409854Y-72668513D01*
X124414046Y-72665467D01*
X124461732Y-72632693D01*
X124461733Y-72632692D01*
X124466651Y-72629312D01*
X124470618Y-72624859D01*
X124470622Y-72624856D01*
X124508115Y-72582774D01*
X124512028Y-72578628D01*
X128675735Y-68414922D01*
X128680659Y-68410323D01*
X128719899Y-68376092D01*
X128724396Y-68372169D01*
X128761103Y-68319939D01*
X128764188Y-68315786D01*
X128799900Y-68270242D01*
X128799902Y-68270239D01*
X128803584Y-68265543D01*
X128807367Y-68257165D01*
X128816604Y-68240969D01*
X128818456Y-68238334D01*
X128821887Y-68233453D01*
X128841201Y-68183918D01*
X128845078Y-68173973D01*
X128847086Y-68169197D01*
X128870899Y-68116455D01*
X128873355Y-68111016D01*
X128875031Y-68101974D01*
X128880134Y-68084058D01*
X128883476Y-68075487D01*
X128891810Y-68012181D01*
X128892619Y-68007070D01*
X128903164Y-67950180D01*
X128903164Y-67950177D01*
X128904252Y-67944308D01*
X128900664Y-67882075D01*
X128900500Y-67876378D01*
X128900500Y-65057484D01*
X128893243Y-64997517D01*
X128885993Y-64937602D01*
X128885992Y-64937599D01*
X128885276Y-64931680D01*
X128825345Y-64773077D01*
X128800448Y-64736851D01*
X128732692Y-64638267D01*
X128729312Y-64633349D01*
X128602721Y-64520560D01*
X128452881Y-64441224D01*
X128370661Y-64420571D01*
X128294231Y-64401373D01*
X128294228Y-64401373D01*
X128288441Y-64399919D01*
X128202841Y-64399471D01*
X128124861Y-64399062D01*
X128124859Y-64399062D01*
X128118895Y-64399031D01*
X128113099Y-64400423D01*
X128113095Y-64400423D01*
X128015477Y-64423860D01*
X127954032Y-64438612D01*
X127895478Y-64468834D01*
X127808675Y-64513636D01*
X127808673Y-64513638D01*
X127803369Y-64516375D01*
X127675604Y-64627831D01*
X127578113Y-64766547D01*
X127516524Y-64924513D01*
X127515745Y-64930428D01*
X127515745Y-64930429D01*
X127512807Y-64952749D01*
X127499500Y-65053826D01*
X127499500Y-67568836D01*
X127480593Y-67627027D01*
X127470504Y-67638840D01*
X123738839Y-71370504D01*
X123684322Y-71398281D01*
X123668835Y-71399500D01*
X118927729Y-71399500D01*
X118920995Y-71399271D01*
X118920683Y-71399250D01*
X118863070Y-71395322D01*
X118857199Y-71396347D01*
X118857194Y-71396347D01*
X118800180Y-71406298D01*
X118795053Y-71407055D01*
X118737604Y-71414007D01*
X118737603Y-71414007D01*
X118731680Y-71414724D01*
X118723068Y-71417978D01*
X118705105Y-71422892D01*
X118696046Y-71424473D01*
X118690578Y-71426873D01*
X118690579Y-71426873D01*
X118637596Y-71450130D01*
X118632798Y-71452088D01*
X118581203Y-71471584D01*
X118573077Y-71474655D01*
X118568162Y-71478033D01*
X118568154Y-71478037D01*
X118565495Y-71479865D01*
X118549222Y-71488923D01*
X118540798Y-71492621D01*
X118536066Y-71496252D01*
X118536061Y-71496255D01*
X118490146Y-71531487D01*
X118485954Y-71534533D01*
X118460875Y-71551770D01*
X118433349Y-71570688D01*
X118429382Y-71575141D01*
X118429378Y-71575144D01*
X118391886Y-71617224D01*
X118387974Y-71621369D01*
X118273776Y-71735567D01*
X118268852Y-71740166D01*
X118225115Y-71778320D01*
X118199248Y-71815126D01*
X118188414Y-71830541D01*
X118185329Y-71834694D01*
X118145927Y-71884946D01*
X118143469Y-71890389D01*
X118143469Y-71890390D01*
X118142144Y-71893324D01*
X118132909Y-71909517D01*
X118127624Y-71917036D01*
X118125457Y-71922595D01*
X118125455Y-71922598D01*
X118104433Y-71976516D01*
X118102425Y-71981292D01*
X118076156Y-72039473D01*
X118075069Y-72045340D01*
X118074480Y-72048515D01*
X118069378Y-72066427D01*
X118066035Y-72075002D01*
X118062787Y-72099680D01*
X118057703Y-72138297D01*
X118056895Y-72143403D01*
X118052910Y-72164900D01*
X118046405Y-72200000D01*
X118045259Y-72206181D01*
X118046410Y-72226146D01*
X118048847Y-72268413D01*
X118049011Y-72274111D01*
X118049011Y-73569324D01*
X118030104Y-73627515D01*
X118020015Y-73639328D01*
X117574265Y-74085078D01*
X117569341Y-74089677D01*
X117525604Y-74127831D01*
X117498692Y-74166124D01*
X117488903Y-74180052D01*
X117485812Y-74184214D01*
X117454615Y-74224001D01*
X117446416Y-74234457D01*
X117443958Y-74239900D01*
X117443958Y-74239901D01*
X117442633Y-74242835D01*
X117433398Y-74259028D01*
X117428113Y-74266547D01*
X117425946Y-74272106D01*
X117425944Y-74272109D01*
X117404922Y-74326027D01*
X117402914Y-74330803D01*
X117391234Y-74356672D01*
X117376645Y-74388984D01*
X117375558Y-74394851D01*
X117374969Y-74398026D01*
X117369867Y-74415938D01*
X117366524Y-74424513D01*
X117365745Y-74430432D01*
X117358192Y-74487808D01*
X117357384Y-74492914D01*
X117345748Y-74555692D01*
X117346092Y-74561654D01*
X117349336Y-74617924D01*
X117349500Y-74623622D01*
X117349500Y-88800500D01*
X117330593Y-88858691D01*
X117281093Y-88894655D01*
X117250500Y-88899500D01*
X114957484Y-88899500D01*
X114934557Y-88902274D01*
X114837602Y-88914007D01*
X114837599Y-88914008D01*
X114831680Y-88914724D01*
X114673077Y-88974655D01*
X114668160Y-88978035D01*
X114668157Y-88978036D01*
X114555769Y-89055279D01*
X114533349Y-89070688D01*
X114420560Y-89197279D01*
X114341224Y-89347119D01*
X114299919Y-89511559D01*
X114299471Y-89597159D01*
X114299200Y-89648903D01*
X114299031Y-89681105D01*
X111306076Y-89681105D01*
X104231771Y-82606800D01*
X104203994Y-82552283D01*
X104204148Y-82520366D01*
X104204862Y-82516125D01*
X104204863Y-82516119D01*
X104205496Y-82512354D01*
X104205647Y-82500000D01*
X104185323Y-82358082D01*
X104151556Y-82283814D01*
X104128905Y-82233996D01*
X104128904Y-82233995D01*
X104125984Y-82227572D01*
X104043105Y-82131387D01*
X104037005Y-82124307D01*
X104037004Y-82124306D01*
X104032400Y-82118963D01*
X103912095Y-82040985D01*
X103774739Y-81999907D01*
X103691497Y-81999398D01*
X103638427Y-81999074D01*
X103638426Y-81999074D01*
X103631376Y-81999031D01*
X103624599Y-82000968D01*
X103624598Y-82000968D01*
X103500309Y-82036490D01*
X103500307Y-82036491D01*
X103493529Y-82038428D01*
X103372280Y-82114930D01*
X103367612Y-82120216D01*
X103364090Y-82123213D01*
X103307521Y-82146529D01*
X103248052Y-82132142D01*
X103236311Y-82123502D01*
X103232400Y-82118963D01*
X103112095Y-82040985D01*
X102974739Y-81999907D01*
X102891497Y-81999398D01*
X102838427Y-81999074D01*
X102838426Y-81999074D01*
X102831376Y-81999031D01*
X102824599Y-82000968D01*
X102824598Y-82000968D01*
X102700309Y-82036490D01*
X102700307Y-82036491D01*
X102693529Y-82038428D01*
X102572280Y-82114930D01*
X102567612Y-82120216D01*
X102564090Y-82123213D01*
X102507521Y-82146529D01*
X102448052Y-82132142D01*
X102436311Y-82123502D01*
X102432400Y-82118963D01*
X102312095Y-82040985D01*
X102174739Y-81999907D01*
X102091497Y-81999398D01*
X102038427Y-81999074D01*
X102038426Y-81999074D01*
X102031376Y-81999031D01*
X102024599Y-82000968D01*
X102024598Y-82000968D01*
X101900309Y-82036490D01*
X101900307Y-82036491D01*
X101893529Y-82038428D01*
X101772280Y-82114930D01*
X101767612Y-82120216D01*
X101764090Y-82123213D01*
X101707521Y-82146529D01*
X101648052Y-82132142D01*
X101636311Y-82123502D01*
X101632400Y-82118963D01*
X101512095Y-82040985D01*
X101374739Y-81999907D01*
X101303987Y-81999475D01*
X101245913Y-81980213D01*
X101210252Y-81930494D01*
X101205801Y-81906910D01*
X101205600Y-81903828D01*
X101205647Y-81900000D01*
X101185323Y-81758082D01*
X101125984Y-81627572D01*
X101032400Y-81518963D01*
X100912095Y-81440985D01*
X100774739Y-81399907D01*
X100691497Y-81399398D01*
X100638427Y-81399074D01*
X100638426Y-81399074D01*
X100631376Y-81399031D01*
X100624599Y-81400968D01*
X100624598Y-81400968D01*
X100500309Y-81436490D01*
X100500307Y-81436491D01*
X100493529Y-81438428D01*
X100372280Y-81514930D01*
X100367613Y-81520214D01*
X100367611Y-81520216D01*
X100282044Y-81617103D01*
X100282042Y-81617105D01*
X100277377Y-81622388D01*
X100216447Y-81752163D01*
X100194391Y-81893823D01*
X100195306Y-81900820D01*
X100195306Y-81900821D01*
X100208154Y-81999074D01*
X100212980Y-82035979D01*
X100215821Y-82042435D01*
X100215821Y-82042436D01*
X100263157Y-82150014D01*
X100270720Y-82167203D01*
X100321465Y-82227572D01*
X100358432Y-82271549D01*
X100362970Y-82276948D01*
X100366999Y-82279630D01*
X100397265Y-82331636D01*
X100399500Y-82352554D01*
X100399500Y-82623619D01*
X100399197Y-82627744D01*
X100397575Y-82632469D01*
X100397918Y-82641603D01*
X100399430Y-82681888D01*
X100399500Y-82685601D01*
X100399500Y-82705075D01*
X100400325Y-82709505D01*
X100400661Y-82714698D01*
X100401774Y-82744335D01*
X100405380Y-82752729D01*
X100405381Y-82752732D01*
X100406317Y-82754910D01*
X100412683Y-82775861D01*
X100414791Y-82787180D01*
X100419588Y-82794962D01*
X100428768Y-82809855D01*
X100435451Y-82822722D01*
X100445964Y-82847190D01*
X100449978Y-82852076D01*
X100454342Y-82856440D01*
X100468613Y-82874495D01*
X100473532Y-82882475D01*
X100496769Y-82900145D01*
X100506839Y-82908937D01*
X110972553Y-93374651D01*
X110975253Y-93377780D01*
X110977448Y-93382269D01*
X110984151Y-93388487D01*
X111013695Y-93415893D01*
X111016371Y-93418469D01*
X111030150Y-93432248D01*
X111033860Y-93434793D01*
X111037773Y-93438229D01*
X111059519Y-93458401D01*
X111068005Y-93461787D01*
X111068007Y-93461788D01*
X111070210Y-93462667D01*
X111089521Y-93472978D01*
X111091480Y-93474322D01*
X111091483Y-93474323D01*
X111099019Y-93479493D01*
X111107911Y-93481603D01*
X111107913Y-93481604D01*
X111124939Y-93485644D01*
X111138758Y-93490014D01*
X111163495Y-93499883D01*
X111169788Y-93500500D01*
X111175958Y-93500500D01*
X111198814Y-93503175D01*
X111207939Y-93505340D01*
X111236861Y-93501404D01*
X111250210Y-93500500D01*
X115684521Y-93500500D01*
X115742712Y-93519407D01*
X115754525Y-93529496D01*
X116670504Y-94445475D01*
X116698281Y-94499992D01*
X116699500Y-94515479D01*
X116699500Y-95847333D01*
X116680593Y-95905524D01*
X116672061Y-95914737D01*
X116672280Y-95914930D01*
X116582044Y-96017103D01*
X116582042Y-96017105D01*
X116577377Y-96022388D01*
X116574381Y-96028770D01*
X116574380Y-96028771D01*
X116554847Y-96070374D01*
X116516447Y-96152163D01*
X116494391Y-96293823D01*
X116495306Y-96300820D01*
X116495306Y-96300821D01*
X116505190Y-96376409D01*
X116512980Y-96435979D01*
X116515821Y-96442435D01*
X116515821Y-96442436D01*
X116564243Y-96552482D01*
X116570720Y-96567203D01*
X116599668Y-96601641D01*
X116658431Y-96671549D01*
X116658434Y-96671551D01*
X116662970Y-96676948D01*
X116668841Y-96680856D01*
X116668842Y-96680857D01*
X116681143Y-96689045D01*
X116782313Y-96756390D01*
X116882920Y-96787821D01*
X116912425Y-96797039D01*
X116912426Y-96797039D01*
X116919157Y-96799142D01*
X116990828Y-96800456D01*
X117055445Y-96801641D01*
X117055447Y-96801641D01*
X117062499Y-96801770D01*
X117069302Y-96799915D01*
X117069304Y-96799915D01*
X117144503Y-96779413D01*
X117200817Y-96764060D01*
X117322991Y-96689045D01*
X117330403Y-96680857D01*
X117414468Y-96587982D01*
X117419200Y-96582754D01*
X117481710Y-96453733D01*
X117484143Y-96439275D01*
X117504862Y-96316124D01*
X117504862Y-96316120D01*
X117505496Y-96312354D01*
X117505647Y-96300000D01*
X117485323Y-96158082D01*
X117425984Y-96027572D01*
X117360574Y-95951660D01*
X117337007Y-95924309D01*
X117337005Y-95924307D01*
X117332400Y-95918963D01*
X117332512Y-95918866D01*
X117302998Y-95869549D01*
X117300500Y-95847449D01*
X117300500Y-94403514D01*
X117300803Y-94399385D01*
X117302426Y-94394658D01*
X117300570Y-94345223D01*
X117300500Y-94341509D01*
X117300500Y-94322052D01*
X117299675Y-94317622D01*
X117299339Y-94312436D01*
X117298569Y-94291925D01*
X117298569Y-94291924D01*
X117298226Y-94282792D01*
X117294620Y-94274398D01*
X117294619Y-94274395D01*
X117293683Y-94272217D01*
X117287317Y-94251266D01*
X117285209Y-94239947D01*
X117271230Y-94217269D01*
X117264550Y-94204409D01*
X117256792Y-94186352D01*
X117256791Y-94186351D01*
X117254036Y-94179938D01*
X117250023Y-94175051D01*
X117245657Y-94170685D01*
X117231385Y-94152629D01*
X117231264Y-94152432D01*
X117231263Y-94152431D01*
X117226468Y-94144652D01*
X117203244Y-94126992D01*
X117193165Y-94118193D01*
X116205919Y-93130948D01*
X116178142Y-93076431D01*
X116187713Y-93015999D01*
X116230978Y-92972734D01*
X116275923Y-92961944D01*
X121495965Y-92961944D01*
X121554156Y-92980851D01*
X121565969Y-92990940D01*
X122870504Y-94295475D01*
X122898281Y-94349992D01*
X122899500Y-94365479D01*
X122899500Y-100446492D01*
X122899197Y-100450617D01*
X122897575Y-100455342D01*
X122898210Y-100472255D01*
X122899430Y-100504761D01*
X122899500Y-100508474D01*
X122899500Y-100527948D01*
X122900325Y-100532378D01*
X122900661Y-100537571D01*
X122901774Y-100567208D01*
X122905380Y-100575602D01*
X122905381Y-100575605D01*
X122906317Y-100577783D01*
X122912683Y-100598734D01*
X122914791Y-100610053D01*
X122919588Y-100617835D01*
X122928768Y-100632728D01*
X122935451Y-100645595D01*
X122945964Y-100670063D01*
X122949978Y-100674949D01*
X122954342Y-100679313D01*
X122968613Y-100697368D01*
X122973532Y-100705348D01*
X122996769Y-100723018D01*
X123006839Y-100731810D01*
X123318869Y-101043840D01*
X123346646Y-101098357D01*
X123346687Y-101129072D01*
X123345476Y-101136851D01*
X123344391Y-101143823D01*
X123362980Y-101285979D01*
X123365821Y-101292435D01*
X123365821Y-101292436D01*
X123417506Y-101409898D01*
X123420720Y-101417203D01*
X123466845Y-101472076D01*
X123508431Y-101521549D01*
X123508434Y-101521551D01*
X123512970Y-101526948D01*
X123632313Y-101606390D01*
X123711820Y-101631229D01*
X123762425Y-101647039D01*
X123762426Y-101647039D01*
X123769157Y-101649142D01*
X123840828Y-101650456D01*
X123905445Y-101651641D01*
X123905447Y-101651641D01*
X123912499Y-101651770D01*
X123919302Y-101649915D01*
X123919304Y-101649915D01*
X123994503Y-101629413D01*
X124050817Y-101614060D01*
X124172991Y-101539045D01*
X124177727Y-101533813D01*
X124201035Y-101508063D01*
X124254103Y-101477610D01*
X124274432Y-101475500D01*
X126824166Y-101475500D01*
X126882357Y-101494407D01*
X126894170Y-101504496D01*
X127145504Y-101755830D01*
X127173281Y-101810347D01*
X127174500Y-101825834D01*
X127174500Y-103274165D01*
X127155593Y-103332356D01*
X127145504Y-103344169D01*
X126532943Y-103956731D01*
X126526575Y-103962566D01*
X126496806Y-103987545D01*
X126492477Y-103995044D01*
X126477373Y-104021205D01*
X126472732Y-104028489D01*
X126450446Y-104060316D01*
X126448204Y-104068684D01*
X126445738Y-104073971D01*
X126443742Y-104079456D01*
X126439412Y-104086955D01*
X126437909Y-104095481D01*
X126437908Y-104095483D01*
X126432666Y-104125216D01*
X126430796Y-104133650D01*
X126420736Y-104171193D01*
X126421491Y-104179822D01*
X126424123Y-104209905D01*
X126424500Y-104218534D01*
X126424500Y-106183375D01*
X126405593Y-106241566D01*
X126356093Y-106277530D01*
X126294907Y-106277530D01*
X126250501Y-106247998D01*
X126187005Y-106174307D01*
X126187004Y-106174306D01*
X126182400Y-106168963D01*
X126062095Y-106090985D01*
X125924739Y-106049907D01*
X125841497Y-106049398D01*
X125788427Y-106049074D01*
X125788426Y-106049074D01*
X125781376Y-106049031D01*
X125774599Y-106050968D01*
X125774598Y-106050968D01*
X125650309Y-106086490D01*
X125650307Y-106086491D01*
X125643529Y-106088428D01*
X125522280Y-106164930D01*
X125517613Y-106170214D01*
X125517611Y-106170216D01*
X125505990Y-106183375D01*
X125439892Y-106258218D01*
X125432989Y-106266034D01*
X125380297Y-106297134D01*
X125358785Y-106299500D01*
X121765479Y-106299500D01*
X121707288Y-106280593D01*
X121695475Y-106270504D01*
X117931771Y-102506800D01*
X117903994Y-102452283D01*
X117904148Y-102420366D01*
X117904862Y-102416125D01*
X117904863Y-102416119D01*
X117905496Y-102412354D01*
X117905647Y-102400000D01*
X117885323Y-102258082D01*
X117825984Y-102127572D01*
X117732400Y-102018963D01*
X117612095Y-101940985D01*
X117474739Y-101899907D01*
X117391497Y-101899398D01*
X117338427Y-101899074D01*
X117338426Y-101899074D01*
X117331376Y-101899031D01*
X117324599Y-101900968D01*
X117324598Y-101900968D01*
X117200309Y-101936490D01*
X117200307Y-101936491D01*
X117193529Y-101938428D01*
X117148857Y-101966614D01*
X117095528Y-102000262D01*
X117072280Y-102014930D01*
X117067613Y-102020214D01*
X117067611Y-102020216D01*
X116982044Y-102117103D01*
X116982042Y-102117105D01*
X116977377Y-102122388D01*
X116916447Y-102252163D01*
X116915362Y-102259132D01*
X116915361Y-102259135D01*
X116908457Y-102303478D01*
X116894391Y-102393823D01*
X116895306Y-102400820D01*
X116895306Y-102400821D01*
X116902775Y-102457938D01*
X116912980Y-102535979D01*
X116915821Y-102542435D01*
X116915821Y-102542436D01*
X116966033Y-102656550D01*
X116970720Y-102667203D01*
X117002704Y-102705253D01*
X117058431Y-102771549D01*
X117058434Y-102771551D01*
X117062970Y-102776948D01*
X117182313Y-102856390D01*
X117282920Y-102887821D01*
X117312425Y-102897039D01*
X117312426Y-102897039D01*
X117319157Y-102899142D01*
X117392526Y-102900487D01*
X117437124Y-102901305D01*
X117494958Y-102921276D01*
X117505313Y-102930284D01*
X121349680Y-106774651D01*
X121352380Y-106777780D01*
X121354575Y-106782269D01*
X121361278Y-106788487D01*
X121390822Y-106815893D01*
X121393498Y-106818469D01*
X121407277Y-106832248D01*
X121410987Y-106834793D01*
X121414900Y-106838229D01*
X121436646Y-106858401D01*
X121445134Y-106861788D01*
X121445135Y-106861788D01*
X121447336Y-106862666D01*
X121466652Y-106872980D01*
X121468607Y-106874321D01*
X121468610Y-106874322D01*
X121476146Y-106879492D01*
X121502058Y-106885641D01*
X121515884Y-106890014D01*
X121534132Y-106897294D01*
X121534134Y-106897294D01*
X121540622Y-106899883D01*
X121546915Y-106900500D01*
X121553084Y-106900500D01*
X121575943Y-106903175D01*
X121576173Y-106903230D01*
X121576175Y-106903230D01*
X121585066Y-106905340D01*
X121613988Y-106901404D01*
X121627337Y-106900500D01*
X125447085Y-106900500D01*
X125505276Y-106919407D01*
X125509488Y-106922806D01*
X125512970Y-106926948D01*
X125518841Y-106930856D01*
X125518842Y-106930857D01*
X125531143Y-106939045D01*
X125632313Y-107006390D01*
X125707598Y-107029910D01*
X125762425Y-107047039D01*
X125762426Y-107047039D01*
X125769157Y-107049142D01*
X125840828Y-107050456D01*
X125905445Y-107051641D01*
X125905447Y-107051641D01*
X125912499Y-107051770D01*
X125919302Y-107049915D01*
X125919304Y-107049915D01*
X126043246Y-107016124D01*
X126050817Y-107014060D01*
X126172991Y-106939045D01*
X126177726Y-106933814D01*
X126252102Y-106851644D01*
X126305170Y-106821190D01*
X126366003Y-106827745D01*
X126411366Y-106868804D01*
X126424500Y-106918080D01*
X126424500Y-111624165D01*
X126405593Y-111682356D01*
X126395504Y-111694169D01*
X123294170Y-114795504D01*
X123239653Y-114823281D01*
X123224166Y-114824500D01*
X116868526Y-114824500D01*
X116859898Y-114824123D01*
X116856576Y-114823832D01*
X116821193Y-114820737D01*
X116812830Y-114822978D01*
X116812827Y-114822978D01*
X116783656Y-114830794D01*
X116775229Y-114832663D01*
X116736955Y-114839412D01*
X116729454Y-114843743D01*
X116723960Y-114845742D01*
X116718678Y-114848205D01*
X116710316Y-114850446D01*
X116703223Y-114855413D01*
X116703222Y-114855413D01*
X116678478Y-114872739D01*
X116671219Y-114877364D01*
X116637545Y-114896806D01*
X116631975Y-114903444D01*
X116612574Y-114926565D01*
X116606740Y-114932933D01*
X115606950Y-115932724D01*
X115552433Y-115960501D01*
X115526598Y-115961178D01*
X115372185Y-115944949D01*
X115372183Y-115944949D01*
X115367369Y-115944443D01*
X115311800Y-115949500D01*
X115167022Y-115962675D01*
X115167017Y-115962676D01*
X115162203Y-115963114D01*
X114964572Y-116021280D01*
X114960288Y-116023519D01*
X114960287Y-116023520D01*
X114905126Y-116052358D01*
X114782002Y-116116726D01*
X114778231Y-116119758D01*
X114625220Y-116242781D01*
X114625217Y-116242783D01*
X114621447Y-116245815D01*
X114618333Y-116249526D01*
X114618332Y-116249527D01*
X114494898Y-116396630D01*
X114489024Y-116403630D01*
X114486689Y-116407878D01*
X114486688Y-116407879D01*
X114479955Y-116420126D01*
X114389776Y-116584162D01*
X114388313Y-116588775D01*
X114388311Y-116588779D01*
X114376557Y-116625834D01*
X114327484Y-116780532D01*
X114326944Y-116785344D01*
X114326944Y-116785345D01*
X114314084Y-116900000D01*
X114304520Y-116985262D01*
X114321759Y-117190553D01*
X114378544Y-117388586D01*
X114472712Y-117571818D01*
X114600677Y-117733270D01*
X114604357Y-117736402D01*
X114604359Y-117736404D01*
X114694544Y-117813157D01*
X114757564Y-117866791D01*
X114761787Y-117869151D01*
X114761791Y-117869154D01*
X114797447Y-117889081D01*
X114839019Y-117933974D01*
X114846264Y-117994729D01*
X114816413Y-118048139D01*
X114760871Y-118073804D01*
X114749149Y-118074500D01*
X114395834Y-118074500D01*
X114337643Y-118055593D01*
X114325830Y-118045504D01*
X113808923Y-117528597D01*
X113781146Y-117474080D01*
X113784988Y-117427344D01*
X113785850Y-117424755D01*
X113849351Y-117233863D01*
X113856643Y-117176145D01*
X113874823Y-117032228D01*
X113875171Y-117029474D01*
X113875583Y-117000000D01*
X113865534Y-116897510D01*
X113855952Y-116799780D01*
X113855951Y-116799776D01*
X113855480Y-116794970D01*
X113852520Y-116785164D01*
X113797333Y-116602380D01*
X113795935Y-116597749D01*
X113699218Y-116415849D01*
X113569011Y-116256200D01*
X113556458Y-116245815D01*
X113414002Y-116127965D01*
X113414000Y-116127964D01*
X113410275Y-116124882D01*
X113296429Y-116063326D01*
X113233309Y-116029197D01*
X113233308Y-116029197D01*
X113229055Y-116026897D01*
X113149382Y-116002234D01*
X113036875Y-115967407D01*
X113036871Y-115967406D01*
X113032254Y-115965977D01*
X113027446Y-115965472D01*
X113027443Y-115965471D01*
X112832185Y-115944949D01*
X112832183Y-115944949D01*
X112827369Y-115944443D01*
X112771800Y-115949500D01*
X112627022Y-115962675D01*
X112627017Y-115962676D01*
X112622203Y-115963114D01*
X112424572Y-116021280D01*
X112420288Y-116023519D01*
X112420287Y-116023520D01*
X112365126Y-116052358D01*
X112242002Y-116116726D01*
X112238231Y-116119758D01*
X112085220Y-116242781D01*
X112085217Y-116242783D01*
X112081447Y-116245815D01*
X112078333Y-116249526D01*
X112078332Y-116249527D01*
X111954898Y-116396630D01*
X111949024Y-116403630D01*
X111946689Y-116407878D01*
X111946688Y-116407879D01*
X111939955Y-116420126D01*
X111849776Y-116584162D01*
X111848313Y-116588775D01*
X111848311Y-116588779D01*
X111836557Y-116625834D01*
X111787484Y-116780532D01*
X111786944Y-116785344D01*
X111786944Y-116785345D01*
X111774084Y-116900000D01*
X111764520Y-116985262D01*
X111781759Y-117190553D01*
X111838544Y-117388586D01*
X111932712Y-117571818D01*
X112060677Y-117733270D01*
X112064357Y-117736402D01*
X112064359Y-117736404D01*
X112154544Y-117813157D01*
X112217564Y-117866791D01*
X112221787Y-117869151D01*
X112221791Y-117869154D01*
X112327498Y-117928231D01*
X112397398Y-117967297D01*
X112401996Y-117968791D01*
X112588724Y-118029463D01*
X112588726Y-118029464D01*
X112593329Y-118030959D01*
X112797894Y-118055351D01*
X112802716Y-118054980D01*
X112802719Y-118054980D01*
X112870541Y-118049761D01*
X113003300Y-118039546D01*
X113201725Y-117984145D01*
X113214625Y-117977629D01*
X113221666Y-117974072D01*
X113232164Y-117968769D01*
X113292629Y-117959408D01*
X113346805Y-117987131D01*
X113976731Y-118617057D01*
X113982566Y-118623426D01*
X113994262Y-118637365D01*
X114017182Y-118694095D01*
X114002379Y-118753463D01*
X113955508Y-118792792D01*
X113918423Y-118800000D01*
X83333960Y-118800000D01*
X83311773Y-118797482D01*
X83300358Y-118794857D01*
X83289484Y-118797318D01*
X83278335Y-118797298D01*
X83278337Y-118796284D01*
X83268476Y-118796895D01*
X83212462Y-118791378D01*
X83153630Y-118785584D01*
X83134600Y-118781798D01*
X83041189Y-118753463D01*
X83003183Y-118741934D01*
X82985255Y-118734508D01*
X82864143Y-118669772D01*
X82848009Y-118658992D01*
X82804671Y-118623426D01*
X82741848Y-118571869D01*
X82728131Y-118558152D01*
X82641008Y-118451991D01*
X82630227Y-118435856D01*
X82565492Y-118314745D01*
X82558066Y-118296817D01*
X82532475Y-118212455D01*
X82518202Y-118165400D01*
X82514416Y-118146368D01*
X82503103Y-118031501D01*
X82502626Y-118021629D01*
X82502644Y-118011225D01*
X82505143Y-118000358D01*
X82502441Y-117988417D01*
X82500000Y-117966568D01*
X82500000Y-117109404D01*
X104054621Y-117109404D01*
X104058995Y-117176145D01*
X104060408Y-117185064D01*
X104110200Y-117381121D01*
X104113220Y-117389649D01*
X104197904Y-117573341D01*
X104202422Y-117581167D01*
X104319171Y-117746363D01*
X104325035Y-117753229D01*
X104469931Y-117894381D01*
X104476954Y-117900068D01*
X104645138Y-118012446D01*
X104653093Y-118016764D01*
X104838929Y-118096606D01*
X104847540Y-118099404D01*
X105044826Y-118144044D01*
X105053785Y-118145224D01*
X105084334Y-118146424D01*
X105097169Y-118142805D01*
X105099783Y-118139489D01*
X105100000Y-118138272D01*
X105100000Y-118131929D01*
X105300000Y-118131929D01*
X105304122Y-118144614D01*
X105305292Y-118145465D01*
X105311272Y-118145975D01*
X105465115Y-118123668D01*
X105473914Y-118121556D01*
X105665450Y-118056538D01*
X105673714Y-118052858D01*
X105850194Y-117954026D01*
X105857652Y-117948900D01*
X106013157Y-117819568D01*
X106019568Y-117813157D01*
X106148900Y-117657652D01*
X106154026Y-117650194D01*
X106252858Y-117473714D01*
X106256538Y-117465450D01*
X106321556Y-117273914D01*
X106323668Y-117265115D01*
X106345359Y-117115518D01*
X106343100Y-117102372D01*
X106342065Y-117101363D01*
X106336218Y-117100000D01*
X105315680Y-117100000D01*
X105302995Y-117104122D01*
X105300000Y-117108243D01*
X105300000Y-118131929D01*
X105100000Y-118131929D01*
X105100000Y-117115680D01*
X105095878Y-117102995D01*
X105091757Y-117100000D01*
X104069685Y-117100000D01*
X104057000Y-117104122D01*
X104054925Y-117106978D01*
X104054621Y-117109404D01*
X82500000Y-117109404D01*
X82500000Y-116985262D01*
X106684520Y-116985262D01*
X106701759Y-117190553D01*
X106758544Y-117388586D01*
X106852712Y-117571818D01*
X106980677Y-117733270D01*
X106984357Y-117736402D01*
X106984359Y-117736404D01*
X107074544Y-117813157D01*
X107137564Y-117866791D01*
X107141787Y-117869151D01*
X107141791Y-117869154D01*
X107247498Y-117928231D01*
X107317398Y-117967297D01*
X107321996Y-117968791D01*
X107508724Y-118029463D01*
X107508726Y-118029464D01*
X107513329Y-118030959D01*
X107717894Y-118055351D01*
X107722716Y-118054980D01*
X107722719Y-118054980D01*
X107790541Y-118049761D01*
X107923300Y-118039546D01*
X108121725Y-117984145D01*
X108126038Y-117981966D01*
X108126044Y-117981964D01*
X108301289Y-117893441D01*
X108301291Y-117893440D01*
X108305610Y-117891258D01*
X108309427Y-117888276D01*
X108464135Y-117767406D01*
X108464139Y-117767402D01*
X108467951Y-117764424D01*
X108477615Y-117753229D01*
X108566551Y-117650194D01*
X108602564Y-117608472D01*
X108604957Y-117604260D01*
X108701934Y-117433550D01*
X108701935Y-117433547D01*
X108704323Y-117429344D01*
X108717882Y-117388586D01*
X108767824Y-117238454D01*
X108767824Y-117238452D01*
X108769351Y-117233863D01*
X108776643Y-117176145D01*
X108794823Y-117032228D01*
X108795171Y-117029474D01*
X108795583Y-117000000D01*
X108794138Y-116985262D01*
X109224520Y-116985262D01*
X109241759Y-117190553D01*
X109298544Y-117388586D01*
X109392712Y-117571818D01*
X109520677Y-117733270D01*
X109524357Y-117736402D01*
X109524359Y-117736404D01*
X109614544Y-117813157D01*
X109677564Y-117866791D01*
X109681787Y-117869151D01*
X109681791Y-117869154D01*
X109787498Y-117928231D01*
X109857398Y-117967297D01*
X109861996Y-117968791D01*
X110048724Y-118029463D01*
X110048726Y-118029464D01*
X110053329Y-118030959D01*
X110257894Y-118055351D01*
X110262716Y-118054980D01*
X110262719Y-118054980D01*
X110330541Y-118049761D01*
X110463300Y-118039546D01*
X110661725Y-117984145D01*
X110666038Y-117981966D01*
X110666044Y-117981964D01*
X110841289Y-117893441D01*
X110841291Y-117893440D01*
X110845610Y-117891258D01*
X110849427Y-117888276D01*
X111004135Y-117767406D01*
X111004139Y-117767402D01*
X111007951Y-117764424D01*
X111017615Y-117753229D01*
X111106551Y-117650194D01*
X111142564Y-117608472D01*
X111144957Y-117604260D01*
X111241934Y-117433550D01*
X111241935Y-117433547D01*
X111244323Y-117429344D01*
X111257882Y-117388586D01*
X111307824Y-117238454D01*
X111307824Y-117238452D01*
X111309351Y-117233863D01*
X111316643Y-117176145D01*
X111334823Y-117032228D01*
X111335171Y-117029474D01*
X111335583Y-117000000D01*
X111325534Y-116897510D01*
X111315952Y-116799780D01*
X111315951Y-116799776D01*
X111315480Y-116794970D01*
X111312574Y-116785345D01*
X111257334Y-116602381D01*
X111257332Y-116602376D01*
X111255935Y-116597749D01*
X111253666Y-116593481D01*
X111253662Y-116593472D01*
X111210933Y-116513111D01*
X111200308Y-116452856D01*
X111228341Y-116396630D01*
X116324651Y-111300320D01*
X116327780Y-111297620D01*
X116332269Y-111295425D01*
X116365893Y-111259178D01*
X116368469Y-111256502D01*
X116382248Y-111242723D01*
X116384793Y-111239013D01*
X116388229Y-111235100D01*
X116402187Y-111220053D01*
X116408401Y-111213354D01*
X116411788Y-111204866D01*
X116412667Y-111202663D01*
X116422978Y-111183352D01*
X116424322Y-111181393D01*
X116424323Y-111181390D01*
X116429493Y-111173854D01*
X116435644Y-111147934D01*
X116440014Y-111134115D01*
X116449883Y-111109378D01*
X116450500Y-111103085D01*
X116450500Y-111096915D01*
X116453175Y-111074056D01*
X116453230Y-111073826D01*
X116455340Y-111064934D01*
X116451404Y-111036012D01*
X116450500Y-111022663D01*
X116450500Y-107452044D01*
X116469407Y-107393853D01*
X116476102Y-107385608D01*
X116564468Y-107287982D01*
X116569200Y-107282754D01*
X116631710Y-107153733D01*
X116633082Y-107145582D01*
X116654862Y-107016124D01*
X116654862Y-107016120D01*
X116655496Y-107012354D01*
X116655647Y-107000000D01*
X116635323Y-106858082D01*
X116598431Y-106776942D01*
X116578905Y-106733996D01*
X116578904Y-106733995D01*
X116575984Y-106727572D01*
X116482400Y-106618963D01*
X116362095Y-106540985D01*
X116224739Y-106499907D01*
X116141497Y-106499398D01*
X116088427Y-106499074D01*
X116088426Y-106499074D01*
X116081376Y-106499031D01*
X116074599Y-106500968D01*
X116074598Y-106500968D01*
X115950309Y-106536490D01*
X115950307Y-106536491D01*
X115943529Y-106538428D01*
X115822280Y-106614930D01*
X115817613Y-106620214D01*
X115817611Y-106620216D01*
X115732044Y-106717103D01*
X115732042Y-106717105D01*
X115727377Y-106722388D01*
X115666447Y-106852163D01*
X115665362Y-106859132D01*
X115665361Y-106859135D01*
X115653734Y-106933814D01*
X115644391Y-106993823D01*
X115645306Y-107000820D01*
X115645306Y-107000821D01*
X115661176Y-107122184D01*
X115662980Y-107135979D01*
X115665821Y-107142435D01*
X115665821Y-107142436D01*
X115680320Y-107175386D01*
X115720720Y-107267203D01*
X115779541Y-107337180D01*
X115803206Y-107365332D01*
X115812970Y-107376948D01*
X115816999Y-107379630D01*
X115847265Y-107431636D01*
X115849500Y-107452554D01*
X115849500Y-110884520D01*
X115830593Y-110942711D01*
X115820504Y-110954524D01*
X113289194Y-113485835D01*
X110776396Y-115998633D01*
X110721879Y-116026410D01*
X110677119Y-116023202D01*
X110587947Y-115995599D01*
X110496875Y-115967407D01*
X110496871Y-115967406D01*
X110492254Y-115965977D01*
X110487446Y-115965472D01*
X110487443Y-115965471D01*
X110292185Y-115944949D01*
X110292183Y-115944949D01*
X110287369Y-115944443D01*
X110231800Y-115949500D01*
X110087022Y-115962675D01*
X110087017Y-115962676D01*
X110082203Y-115963114D01*
X109884572Y-116021280D01*
X109880288Y-116023519D01*
X109880287Y-116023520D01*
X109825126Y-116052358D01*
X109702002Y-116116726D01*
X109698231Y-116119758D01*
X109545220Y-116242781D01*
X109545217Y-116242783D01*
X109541447Y-116245815D01*
X109538333Y-116249526D01*
X109538332Y-116249527D01*
X109414898Y-116396630D01*
X109409024Y-116403630D01*
X109406689Y-116407878D01*
X109406688Y-116407879D01*
X109399955Y-116420126D01*
X109309776Y-116584162D01*
X109308313Y-116588775D01*
X109308311Y-116588779D01*
X109296557Y-116625834D01*
X109247484Y-116780532D01*
X109246944Y-116785344D01*
X109246944Y-116785345D01*
X109234084Y-116900000D01*
X109224520Y-116985262D01*
X108794138Y-116985262D01*
X108785534Y-116897510D01*
X108775952Y-116799780D01*
X108775951Y-116799776D01*
X108775480Y-116794970D01*
X108772520Y-116785164D01*
X108717333Y-116602380D01*
X108715935Y-116597749D01*
X108619218Y-116415849D01*
X108489011Y-116256200D01*
X108476458Y-116245815D01*
X108334002Y-116127965D01*
X108334000Y-116127964D01*
X108330275Y-116124882D01*
X108216429Y-116063326D01*
X108153309Y-116029197D01*
X108153308Y-116029197D01*
X108149055Y-116026897D01*
X108069382Y-116002234D01*
X107956875Y-115967407D01*
X107956871Y-115967406D01*
X107952254Y-115965977D01*
X107947446Y-115965472D01*
X107947443Y-115965471D01*
X107752185Y-115944949D01*
X107752183Y-115944949D01*
X107747369Y-115944443D01*
X107691800Y-115949500D01*
X107547022Y-115962675D01*
X107547017Y-115962676D01*
X107542203Y-115963114D01*
X107344572Y-116021280D01*
X107340288Y-116023519D01*
X107340287Y-116023520D01*
X107285126Y-116052358D01*
X107162002Y-116116726D01*
X107158231Y-116119758D01*
X107005220Y-116242781D01*
X107005217Y-116242783D01*
X107001447Y-116245815D01*
X106998333Y-116249526D01*
X106998332Y-116249527D01*
X106874898Y-116396630D01*
X106869024Y-116403630D01*
X106866689Y-116407878D01*
X106866688Y-116407879D01*
X106859955Y-116420126D01*
X106769776Y-116584162D01*
X106768313Y-116588775D01*
X106768311Y-116588779D01*
X106756557Y-116625834D01*
X106707484Y-116780532D01*
X106706944Y-116785344D01*
X106706944Y-116785345D01*
X106694084Y-116900000D01*
X106684520Y-116985262D01*
X82500000Y-116985262D01*
X82500000Y-116884428D01*
X104055570Y-116884428D01*
X104058172Y-116897510D01*
X104059747Y-116898966D01*
X104064461Y-116900000D01*
X105084320Y-116900000D01*
X105097005Y-116895878D01*
X105100000Y-116891757D01*
X105100000Y-116884320D01*
X105300000Y-116884320D01*
X105304122Y-116897005D01*
X105308243Y-116900000D01*
X106330058Y-116900000D01*
X106342743Y-116895878D01*
X106344412Y-116893582D01*
X106344816Y-116889965D01*
X106336003Y-116794048D01*
X106334356Y-116785164D01*
X106279449Y-116590481D01*
X106276208Y-116582037D01*
X106186745Y-116400624D01*
X106182020Y-116392914D01*
X106060994Y-116230840D01*
X106054945Y-116224122D01*
X105906405Y-116086814D01*
X105899240Y-116081315D01*
X105728163Y-115973374D01*
X105720110Y-115969271D01*
X105532229Y-115894314D01*
X105523571Y-115891749D01*
X105325176Y-115852286D01*
X105316185Y-115851341D01*
X105315676Y-115851334D01*
X105302941Y-115855289D01*
X105300004Y-115859222D01*
X105300000Y-115859246D01*
X105300000Y-116884320D01*
X105100000Y-116884320D01*
X105100000Y-115865926D01*
X105095878Y-115853241D01*
X105095274Y-115852802D01*
X105088127Y-115852286D01*
X104905559Y-115883657D01*
X104896823Y-115885998D01*
X104707050Y-115956009D01*
X104698887Y-115959902D01*
X104525047Y-116063326D01*
X104517745Y-116068631D01*
X104365657Y-116202010D01*
X104359434Y-116208568D01*
X104234209Y-116367415D01*
X104229284Y-116374998D01*
X104135097Y-116554018D01*
X104131643Y-116562358D01*
X104071658Y-116755538D01*
X104069777Y-116764388D01*
X104055570Y-116884428D01*
X82500000Y-116884428D01*
X82500000Y-112952749D01*
X85995572Y-112952749D01*
X85996199Y-112965795D01*
X86008408Y-113219980D01*
X86060602Y-113482378D01*
X86061842Y-113485833D01*
X86061843Y-113485835D01*
X86109066Y-113617362D01*
X86151008Y-113734179D01*
X86277639Y-113969851D01*
X86437714Y-114184217D01*
X86627716Y-114372569D01*
X86630675Y-114374739D01*
X86630679Y-114374742D01*
X86744145Y-114457938D01*
X86843471Y-114530767D01*
X87080239Y-114655337D01*
X87332819Y-114743542D01*
X87336419Y-114744226D01*
X87336421Y-114744226D01*
X87592054Y-114792759D01*
X87592056Y-114792759D01*
X87595663Y-114793444D01*
X87729329Y-114798696D01*
X87859325Y-114803803D01*
X87859328Y-114803803D01*
X87862995Y-114803947D01*
X87999613Y-114788985D01*
X88125303Y-114775220D01*
X88125306Y-114775219D01*
X88128944Y-114774821D01*
X88387666Y-114706705D01*
X88633478Y-114601096D01*
X88750636Y-114528597D01*
X88857854Y-114462249D01*
X88857859Y-114462245D01*
X88860980Y-114460314D01*
X89065174Y-114287451D01*
X89086998Y-114262566D01*
X89239149Y-114089071D01*
X89239153Y-114089066D01*
X89241575Y-114086304D01*
X89386306Y-113861294D01*
X89445127Y-113730717D01*
X89494681Y-113620710D01*
X89494682Y-113620708D01*
X89496189Y-113617362D01*
X89568810Y-113359868D01*
X89602573Y-113094469D01*
X89605047Y-113000000D01*
X89604863Y-112997527D01*
X89604863Y-112997517D01*
X89585492Y-112736851D01*
X89585491Y-112736845D01*
X89585220Y-112733197D01*
X89526175Y-112472255D01*
X89508674Y-112427250D01*
X89430539Y-112226326D01*
X89430537Y-112226321D01*
X89429209Y-112222907D01*
X89401861Y-112175057D01*
X89298274Y-111993819D01*
X89296452Y-111990631D01*
X89130820Y-111780528D01*
X89128147Y-111778014D01*
X89128142Y-111778008D01*
X88979430Y-111638114D01*
X88935953Y-111597215D01*
X88716131Y-111444719D01*
X88476183Y-111326390D01*
X88472686Y-111325271D01*
X88472682Y-111325269D01*
X88224882Y-111245948D01*
X88221380Y-111244827D01*
X87957320Y-111201822D01*
X87953656Y-111201774D01*
X87823562Y-111200071D01*
X87689805Y-111198320D01*
X87686177Y-111198814D01*
X87686173Y-111198814D01*
X87557257Y-111216359D01*
X87424710Y-111234398D01*
X87167859Y-111309263D01*
X87164523Y-111310801D01*
X87164520Y-111310802D01*
X87127178Y-111328017D01*
X86924896Y-111421270D01*
X86701157Y-111567960D01*
X86698425Y-111570399D01*
X86698423Y-111570400D01*
X86504299Y-111743662D01*
X86504295Y-111743666D01*
X86501558Y-111746109D01*
X86499211Y-111748931D01*
X86499209Y-111748933D01*
X86417995Y-111846582D01*
X86330483Y-111951804D01*
X86328579Y-111954941D01*
X86328578Y-111954943D01*
X86306922Y-111990631D01*
X86191691Y-112180526D01*
X86088231Y-112427250D01*
X86087327Y-112430811D01*
X86087326Y-112430813D01*
X86065544Y-112516583D01*
X86022376Y-112686557D01*
X85995572Y-112952749D01*
X82500000Y-112952749D01*
X82500000Y-109893823D01*
X101494391Y-109893823D01*
X101495306Y-109900820D01*
X101495306Y-109900821D01*
X101496814Y-109912354D01*
X101512980Y-110035979D01*
X101515821Y-110042435D01*
X101515821Y-110042436D01*
X101523586Y-110060082D01*
X101570720Y-110167203D01*
X101583792Y-110182754D01*
X101658431Y-110271549D01*
X101658434Y-110271551D01*
X101662970Y-110276948D01*
X101668841Y-110280856D01*
X101668842Y-110280857D01*
X101681143Y-110289045D01*
X101782313Y-110356390D01*
X101882920Y-110387821D01*
X101912425Y-110397039D01*
X101912426Y-110397039D01*
X101919157Y-110399142D01*
X101990828Y-110400456D01*
X102055445Y-110401641D01*
X102055447Y-110401641D01*
X102062499Y-110401770D01*
X102069302Y-110399915D01*
X102069304Y-110399915D01*
X102144503Y-110379413D01*
X102200817Y-110364060D01*
X102322991Y-110289045D01*
X102327727Y-110283813D01*
X102351035Y-110258063D01*
X102404103Y-110227610D01*
X102424432Y-110225500D01*
X111173612Y-110225500D01*
X111231803Y-110244407D01*
X111249394Y-110260797D01*
X111262970Y-110276948D01*
X111268841Y-110280856D01*
X111268842Y-110280857D01*
X111281143Y-110289045D01*
X111382313Y-110356390D01*
X111482920Y-110387821D01*
X111512425Y-110397039D01*
X111512426Y-110397039D01*
X111519157Y-110399142D01*
X111590828Y-110400456D01*
X111655445Y-110401641D01*
X111655447Y-110401641D01*
X111662499Y-110401770D01*
X111669302Y-110399915D01*
X111669304Y-110399915D01*
X111744503Y-110379413D01*
X111800817Y-110364060D01*
X111922991Y-110289045D01*
X111930403Y-110280857D01*
X112014468Y-110187982D01*
X112019200Y-110182754D01*
X112081710Y-110053733D01*
X112085875Y-110028982D01*
X112104862Y-109916124D01*
X112104862Y-109916120D01*
X112105496Y-109912354D01*
X112105647Y-109900000D01*
X112085323Y-109758082D01*
X112025984Y-109627572D01*
X111932400Y-109518963D01*
X111812095Y-109440985D01*
X111674739Y-109399907D01*
X111591497Y-109399398D01*
X111538427Y-109399074D01*
X111538426Y-109399074D01*
X111531376Y-109399031D01*
X111524599Y-109400968D01*
X111524598Y-109400968D01*
X111400309Y-109436490D01*
X111400307Y-109436491D01*
X111393529Y-109438428D01*
X111272280Y-109514930D01*
X111267613Y-109520214D01*
X111267611Y-109520216D01*
X111249226Y-109541034D01*
X111196534Y-109572134D01*
X111175022Y-109574500D01*
X102425632Y-109574500D01*
X102367441Y-109555593D01*
X102350634Y-109540124D01*
X102337006Y-109524308D01*
X102337004Y-109524306D01*
X102332400Y-109518963D01*
X102212095Y-109440985D01*
X102074739Y-109399907D01*
X101991497Y-109399398D01*
X101938427Y-109399074D01*
X101938426Y-109399074D01*
X101931376Y-109399031D01*
X101924599Y-109400968D01*
X101924598Y-109400968D01*
X101800309Y-109436490D01*
X101800307Y-109436491D01*
X101793529Y-109438428D01*
X101672280Y-109514930D01*
X101667613Y-109520214D01*
X101667611Y-109520216D01*
X101582044Y-109617103D01*
X101582042Y-109617105D01*
X101577377Y-109622388D01*
X101516447Y-109752163D01*
X101494391Y-109893823D01*
X82500000Y-109893823D01*
X82500000Y-108493823D01*
X106094391Y-108493823D01*
X106095306Y-108500820D01*
X106095306Y-108500821D01*
X106112065Y-108628982D01*
X106112980Y-108635979D01*
X106115821Y-108642435D01*
X106115821Y-108642436D01*
X106123586Y-108660082D01*
X106170720Y-108767203D01*
X106188187Y-108787982D01*
X106258431Y-108871549D01*
X106258434Y-108871551D01*
X106262970Y-108876948D01*
X106268841Y-108880856D01*
X106268842Y-108880857D01*
X106281143Y-108889045D01*
X106382313Y-108956390D01*
X106482920Y-108987821D01*
X106512425Y-108997039D01*
X106512426Y-108997039D01*
X106519157Y-108999142D01*
X106590828Y-109000456D01*
X106655445Y-109001641D01*
X106655447Y-109001641D01*
X106662499Y-109001770D01*
X106669302Y-108999915D01*
X106669304Y-108999915D01*
X106744503Y-108979413D01*
X106800817Y-108964060D01*
X106922991Y-108889045D01*
X106930403Y-108880857D01*
X107014468Y-108787982D01*
X107019200Y-108782754D01*
X107081710Y-108653733D01*
X107085875Y-108628982D01*
X107104862Y-108516124D01*
X107104862Y-108516120D01*
X107105496Y-108512354D01*
X107105647Y-108500000D01*
X107102561Y-108478452D01*
X107113028Y-108418170D01*
X107130557Y-108394414D01*
X107474651Y-108050320D01*
X107477780Y-108047620D01*
X107482269Y-108045425D01*
X107515893Y-108009178D01*
X107518469Y-108006502D01*
X107532247Y-107992724D01*
X107534792Y-107989013D01*
X107538220Y-107985108D01*
X107558401Y-107963354D01*
X107562666Y-107952664D01*
X107572980Y-107933348D01*
X107574321Y-107931393D01*
X107574322Y-107931390D01*
X107579492Y-107923854D01*
X107585641Y-107897941D01*
X107590014Y-107884116D01*
X107597294Y-107865868D01*
X107597294Y-107865866D01*
X107599883Y-107859378D01*
X107600500Y-107853085D01*
X107600500Y-107846916D01*
X107603175Y-107824057D01*
X107603230Y-107823827D01*
X107603230Y-107823825D01*
X107605340Y-107814934D01*
X107601404Y-107786012D01*
X107600500Y-107772663D01*
X107600500Y-105802044D01*
X107619407Y-105743853D01*
X107626102Y-105735608D01*
X107714468Y-105637982D01*
X107719200Y-105632754D01*
X107781710Y-105503733D01*
X107785875Y-105478982D01*
X107804862Y-105366124D01*
X107804862Y-105366120D01*
X107805496Y-105362354D01*
X107805647Y-105350000D01*
X107785323Y-105208082D01*
X107725984Y-105077572D01*
X107632400Y-104968963D01*
X107512095Y-104890985D01*
X107374739Y-104849907D01*
X107291497Y-104849398D01*
X107238427Y-104849074D01*
X107238426Y-104849074D01*
X107231376Y-104849031D01*
X107224599Y-104850968D01*
X107224598Y-104850968D01*
X107100309Y-104886490D01*
X107100307Y-104886491D01*
X107093529Y-104888428D01*
X106972280Y-104964930D01*
X106967613Y-104970214D01*
X106967611Y-104970216D01*
X106882044Y-105067103D01*
X106882042Y-105067105D01*
X106877377Y-105072388D01*
X106816447Y-105202163D01*
X106794391Y-105343823D01*
X106795306Y-105350820D01*
X106795306Y-105350821D01*
X106796814Y-105362354D01*
X106812980Y-105485979D01*
X106815821Y-105492435D01*
X106815821Y-105492436D01*
X106823586Y-105510082D01*
X106870720Y-105617203D01*
X106962970Y-105726948D01*
X106966999Y-105729630D01*
X106997265Y-105781636D01*
X106999500Y-105802554D01*
X106999500Y-107634521D01*
X106980593Y-107692712D01*
X106970504Y-107704525D01*
X106704366Y-107970663D01*
X106649849Y-107998440D01*
X106633762Y-107999657D01*
X106554505Y-107999172D01*
X106538427Y-107999074D01*
X106538426Y-107999074D01*
X106531376Y-107999031D01*
X106524599Y-108000968D01*
X106524598Y-108000968D01*
X106400309Y-108036490D01*
X106400307Y-108036491D01*
X106393529Y-108038428D01*
X106272280Y-108114930D01*
X106267613Y-108120214D01*
X106267611Y-108120216D01*
X106182044Y-108217103D01*
X106182042Y-108217105D01*
X106177377Y-108222388D01*
X106174381Y-108228770D01*
X106174380Y-108228771D01*
X106154847Y-108270374D01*
X106116447Y-108352163D01*
X106115362Y-108359132D01*
X106115361Y-108359135D01*
X106106170Y-108418170D01*
X106094391Y-108493823D01*
X82500000Y-108493823D01*
X82500000Y-100952749D01*
X85995572Y-100952749D01*
X85996199Y-100965795D01*
X86008408Y-101219980D01*
X86035508Y-101356220D01*
X86059654Y-101477610D01*
X86060602Y-101482378D01*
X86061842Y-101485833D01*
X86061843Y-101485835D01*
X86120523Y-101649271D01*
X86151008Y-101734179D01*
X86152746Y-101737414D01*
X86152748Y-101737418D01*
X86191934Y-101810347D01*
X86277639Y-101969851D01*
X86279839Y-101972797D01*
X86387598Y-102117103D01*
X86437714Y-102184217D01*
X86627716Y-102372569D01*
X86630675Y-102374739D01*
X86630679Y-102374742D01*
X86670345Y-102403826D01*
X86843471Y-102530767D01*
X87080239Y-102655337D01*
X87083710Y-102656549D01*
X87083712Y-102656550D01*
X87114218Y-102667203D01*
X87332819Y-102743542D01*
X87336419Y-102744226D01*
X87336421Y-102744226D01*
X87592054Y-102792759D01*
X87592056Y-102792759D01*
X87595663Y-102793444D01*
X87729329Y-102798695D01*
X87859325Y-102803803D01*
X87859328Y-102803803D01*
X87862995Y-102803947D01*
X87999613Y-102788985D01*
X88125303Y-102775220D01*
X88125306Y-102775219D01*
X88128944Y-102774821D01*
X88387666Y-102706705D01*
X88633478Y-102601096D01*
X88728272Y-102542436D01*
X88857854Y-102462249D01*
X88857859Y-102462245D01*
X88860980Y-102460314D01*
X88908169Y-102420366D01*
X89062374Y-102289821D01*
X89065174Y-102287451D01*
X89086998Y-102262566D01*
X89239149Y-102089071D01*
X89239153Y-102089066D01*
X89241575Y-102086304D01*
X89386306Y-101861294D01*
X89445127Y-101730717D01*
X89494681Y-101620710D01*
X89494682Y-101620708D01*
X89496189Y-101617362D01*
X89498691Y-101608492D01*
X89567813Y-101363404D01*
X89567814Y-101363401D01*
X89568810Y-101359868D01*
X89602573Y-101094469D01*
X89604877Y-101006498D01*
X89604982Y-101002492D01*
X89604982Y-101002487D01*
X89605047Y-101000000D01*
X89604863Y-100997527D01*
X89604863Y-100997517D01*
X89585492Y-100736851D01*
X89585491Y-100736845D01*
X89585220Y-100733197D01*
X89526175Y-100472255D01*
X89519598Y-100455342D01*
X89430539Y-100226326D01*
X89430537Y-100226321D01*
X89429209Y-100222907D01*
X89419212Y-100205415D01*
X89332583Y-100053847D01*
X89296452Y-99990631D01*
X89130820Y-99780528D01*
X89128147Y-99778014D01*
X89128142Y-99778008D01*
X88988288Y-99646447D01*
X88935953Y-99597215D01*
X88716131Y-99444719D01*
X88476183Y-99326390D01*
X88472686Y-99325271D01*
X88472682Y-99325269D01*
X88224882Y-99245948D01*
X88221380Y-99244827D01*
X87957320Y-99201822D01*
X87953656Y-99201774D01*
X87823563Y-99200071D01*
X87689805Y-99198320D01*
X87686177Y-99198814D01*
X87686173Y-99198814D01*
X87557258Y-99216359D01*
X87424710Y-99234398D01*
X87167859Y-99309263D01*
X87164523Y-99310801D01*
X87164520Y-99310802D01*
X87071177Y-99353834D01*
X86924896Y-99421270D01*
X86701157Y-99567960D01*
X86698425Y-99570399D01*
X86698423Y-99570400D01*
X86504299Y-99743662D01*
X86504295Y-99743666D01*
X86501558Y-99746109D01*
X86499211Y-99748931D01*
X86499209Y-99748933D01*
X86427974Y-99834584D01*
X86330483Y-99951804D01*
X86328579Y-99954941D01*
X86328578Y-99954943D01*
X86315737Y-99976105D01*
X86191691Y-100180526D01*
X86088231Y-100427250D01*
X86087327Y-100430811D01*
X86087326Y-100430813D01*
X86024216Y-100679313D01*
X86022376Y-100686557D01*
X85995572Y-100952749D01*
X82500000Y-100952749D01*
X82500000Y-83194594D01*
X94398074Y-83194594D01*
X94398843Y-83199067D01*
X94398843Y-83199072D01*
X94434668Y-83407565D01*
X94434670Y-83407571D01*
X94435438Y-83412043D01*
X94511804Y-83619043D01*
X94624614Y-83808659D01*
X94770090Y-83974543D01*
X94773652Y-83977351D01*
X94939795Y-84108327D01*
X94939798Y-84108329D01*
X94943360Y-84111137D01*
X94947375Y-84113249D01*
X94947382Y-84113254D01*
X94956597Y-84118102D01*
X94999291Y-84161929D01*
X95009500Y-84205715D01*
X95009500Y-87909733D01*
X94990593Y-87967924D01*
X94965502Y-87992048D01*
X94945448Y-88005448D01*
X94901133Y-88071769D01*
X94889500Y-88130252D01*
X94889500Y-90569748D01*
X94890448Y-90574512D01*
X94898374Y-90614359D01*
X94901133Y-90628231D01*
X94945448Y-90694552D01*
X95011769Y-90738867D01*
X95069646Y-90750379D01*
X95123029Y-90780275D01*
X95148645Y-90835840D01*
X95136708Y-90895850D01*
X95121551Y-90914286D01*
X95122280Y-90914930D01*
X95032044Y-91017103D01*
X95032042Y-91017105D01*
X95027377Y-91022388D01*
X94966447Y-91152163D01*
X94965362Y-91159132D01*
X94965361Y-91159135D01*
X94955806Y-91220508D01*
X94944391Y-91293823D01*
X94945306Y-91300820D01*
X94945306Y-91300821D01*
X94946814Y-91312354D01*
X94962980Y-91435979D01*
X94965821Y-91442435D01*
X94965821Y-91442436D01*
X94973586Y-91460082D01*
X95020720Y-91567203D01*
X95033792Y-91582754D01*
X95108432Y-91671550D01*
X95108433Y-91671551D01*
X95112970Y-91676948D01*
X95116952Y-91679599D01*
X95147206Y-91731582D01*
X95141021Y-91792454D01*
X95100238Y-91838065D01*
X95069756Y-91849599D01*
X95057213Y-91852094D01*
X95021334Y-91859230D01*
X95021332Y-91859231D01*
X95011769Y-91861133D01*
X94945448Y-91905448D01*
X94901133Y-91971769D01*
X94889500Y-92030252D01*
X94889500Y-94469748D01*
X94901133Y-94528231D01*
X94945448Y-94594552D01*
X95011769Y-94638867D01*
X95021332Y-94640769D01*
X95021334Y-94640770D01*
X95044005Y-94645279D01*
X95070252Y-94650500D01*
X95849748Y-94650500D01*
X95875995Y-94645279D01*
X95898666Y-94640770D01*
X95898668Y-94640769D01*
X95908231Y-94638867D01*
X95974552Y-94594552D01*
X96012685Y-94537483D01*
X96060735Y-94499604D01*
X96121873Y-94497202D01*
X96172747Y-94531195D01*
X96177315Y-94537483D01*
X96215448Y-94594552D01*
X96281769Y-94638867D01*
X96291332Y-94640769D01*
X96291334Y-94640770D01*
X96314005Y-94645279D01*
X96340252Y-94650500D01*
X97119748Y-94650500D01*
X97145995Y-94645279D01*
X97168666Y-94640770D01*
X97168668Y-94640769D01*
X97178231Y-94638867D01*
X97244552Y-94594552D01*
X97282685Y-94537483D01*
X97330735Y-94499604D01*
X97391873Y-94497202D01*
X97442747Y-94531195D01*
X97447315Y-94537483D01*
X97485448Y-94594552D01*
X97551769Y-94638867D01*
X97561332Y-94640769D01*
X97561334Y-94640770D01*
X97584005Y-94645279D01*
X97610252Y-94650500D01*
X98389748Y-94650500D01*
X98415995Y-94645279D01*
X98438666Y-94640770D01*
X98438668Y-94640769D01*
X98448231Y-94638867D01*
X98514552Y-94594552D01*
X98552685Y-94537483D01*
X98600735Y-94499604D01*
X98661873Y-94497202D01*
X98712747Y-94531195D01*
X98717315Y-94537483D01*
X98755448Y-94594552D01*
X98821769Y-94638867D01*
X98831332Y-94640769D01*
X98831334Y-94640770D01*
X98854005Y-94645279D01*
X98880252Y-94650500D01*
X99659748Y-94650500D01*
X99685995Y-94645279D01*
X99708666Y-94640770D01*
X99708668Y-94640769D01*
X99718231Y-94638867D01*
X99784552Y-94594552D01*
X99822685Y-94537483D01*
X99870735Y-94499604D01*
X99931873Y-94497202D01*
X99982747Y-94531195D01*
X99987315Y-94537483D01*
X100025448Y-94594552D01*
X100091769Y-94638867D01*
X100101332Y-94640769D01*
X100101334Y-94640770D01*
X100124005Y-94645279D01*
X100150252Y-94650500D01*
X100929748Y-94650500D01*
X100955995Y-94645279D01*
X100978666Y-94640770D01*
X100978668Y-94640769D01*
X100988231Y-94638867D01*
X101054552Y-94594552D01*
X101098867Y-94528231D01*
X101110500Y-94469748D01*
X101110500Y-92030252D01*
X101098867Y-91971769D01*
X101054552Y-91905448D01*
X100988231Y-91861133D01*
X100978668Y-91859231D01*
X100978666Y-91859230D01*
X100930186Y-91849587D01*
X100876802Y-91819690D01*
X100851186Y-91764125D01*
X100850500Y-91752489D01*
X100850500Y-91752044D01*
X100869407Y-91693853D01*
X100876102Y-91685608D01*
X100964468Y-91587982D01*
X100969200Y-91582754D01*
X101031710Y-91453733D01*
X101035875Y-91428982D01*
X101054862Y-91316124D01*
X101054862Y-91316120D01*
X101055496Y-91312354D01*
X101055647Y-91300000D01*
X101035323Y-91158082D01*
X100975984Y-91027572D01*
X100951718Y-90999410D01*
X100928057Y-90942988D01*
X100942080Y-90883431D01*
X100986529Y-90844312D01*
X101074514Y-90805231D01*
X101089321Y-90795054D01*
X101155367Y-90728892D01*
X101165517Y-90714069D01*
X101204000Y-90627020D01*
X101207873Y-90612815D01*
X101209668Y-90597420D01*
X101210000Y-90591708D01*
X101210000Y-89465680D01*
X101205878Y-89452995D01*
X101201757Y-89450000D01*
X100539000Y-89450000D01*
X100480809Y-89431093D01*
X100444845Y-89381593D01*
X100440000Y-89351000D01*
X100440000Y-87865680D01*
X100435878Y-87852995D01*
X100431757Y-87850000D01*
X100128361Y-87850000D01*
X100122515Y-87850346D01*
X100106647Y-87852234D01*
X100092481Y-87856128D01*
X100005486Y-87894770D01*
X99990679Y-87904946D01*
X99924637Y-87971104D01*
X99919830Y-87978124D01*
X99871353Y-88015455D01*
X99810191Y-88017163D01*
X99783142Y-88004506D01*
X99776306Y-87999938D01*
X99718231Y-87961133D01*
X99708668Y-87959231D01*
X99708666Y-87959230D01*
X99685995Y-87954721D01*
X99659748Y-87949500D01*
X98880252Y-87949500D01*
X98854005Y-87954721D01*
X98831334Y-87959230D01*
X98831332Y-87959231D01*
X98821769Y-87961133D01*
X98763694Y-87999938D01*
X98756858Y-88004506D01*
X98697970Y-88021115D01*
X98640566Y-87999938D01*
X98620269Y-87978268D01*
X98615051Y-87970676D01*
X98548892Y-87904633D01*
X98534069Y-87894483D01*
X98447020Y-87856000D01*
X98432815Y-87852127D01*
X98417420Y-87850332D01*
X98411708Y-87850000D01*
X98115680Y-87850000D01*
X98102995Y-87854122D01*
X98100000Y-87858243D01*
X98100000Y-90834320D01*
X98104122Y-90847005D01*
X98108243Y-90850000D01*
X98411639Y-90850000D01*
X98417485Y-90849654D01*
X98433353Y-90847766D01*
X98447519Y-90843872D01*
X98534514Y-90805230D01*
X98549321Y-90795054D01*
X98615363Y-90728896D01*
X98620170Y-90721876D01*
X98668647Y-90684545D01*
X98729809Y-90682837D01*
X98756857Y-90695494D01*
X98821769Y-90738867D01*
X98831332Y-90740769D01*
X98831334Y-90740770D01*
X98854005Y-90745279D01*
X98880252Y-90750500D01*
X99659748Y-90750500D01*
X99685995Y-90745279D01*
X99708666Y-90740770D01*
X99708668Y-90740769D01*
X99718231Y-90738867D01*
X99783142Y-90695494D01*
X99842030Y-90678885D01*
X99899434Y-90700062D01*
X99919731Y-90721732D01*
X99924949Y-90729324D01*
X99991108Y-90795367D01*
X100005931Y-90805517D01*
X100092983Y-90844002D01*
X100094224Y-90844340D01*
X100095209Y-90844986D01*
X100099790Y-90847011D01*
X100099455Y-90847769D01*
X100145393Y-90877886D01*
X100167072Y-90935102D01*
X100150979Y-90994133D01*
X100142392Y-91005386D01*
X100132044Y-91017103D01*
X100132042Y-91017105D01*
X100127377Y-91022388D01*
X100066447Y-91152163D01*
X100065362Y-91159132D01*
X100065361Y-91159135D01*
X100055806Y-91220508D01*
X100044391Y-91293823D01*
X100045306Y-91300820D01*
X100045306Y-91300821D01*
X100046814Y-91312354D01*
X100062980Y-91435979D01*
X100065821Y-91442435D01*
X100065821Y-91442436D01*
X100073586Y-91460082D01*
X100120720Y-91567203D01*
X100212970Y-91676948D01*
X100215361Y-91678540D01*
X100245171Y-91729766D01*
X100238985Y-91790638D01*
X100198200Y-91836248D01*
X100158107Y-91849206D01*
X100155120Y-91849500D01*
X100150252Y-91849500D01*
X100145483Y-91850449D01*
X100145479Y-91850449D01*
X100101334Y-91859230D01*
X100101332Y-91859231D01*
X100091769Y-91861133D01*
X100025448Y-91905448D01*
X100020029Y-91913558D01*
X99987315Y-91962517D01*
X99939265Y-92000396D01*
X99878127Y-92002798D01*
X99827253Y-91968805D01*
X99822685Y-91962517D01*
X99789971Y-91913558D01*
X99784552Y-91905448D01*
X99718231Y-91861133D01*
X99708668Y-91859231D01*
X99708666Y-91859230D01*
X99680184Y-91853565D01*
X99659748Y-91849500D01*
X98880252Y-91849500D01*
X98859816Y-91853565D01*
X98831334Y-91859230D01*
X98831332Y-91859231D01*
X98821769Y-91861133D01*
X98755448Y-91905448D01*
X98750029Y-91913558D01*
X98717315Y-91962517D01*
X98669265Y-92000396D01*
X98608127Y-92002798D01*
X98557253Y-91968805D01*
X98552685Y-91962517D01*
X98519971Y-91913558D01*
X98514552Y-91905448D01*
X98448231Y-91861133D01*
X98438668Y-91859231D01*
X98438666Y-91859230D01*
X98410184Y-91853565D01*
X98389748Y-91849500D01*
X97610252Y-91849500D01*
X97589816Y-91853565D01*
X97561334Y-91859230D01*
X97561332Y-91859231D01*
X97551769Y-91861133D01*
X97485448Y-91905448D01*
X97480029Y-91913558D01*
X97447315Y-91962517D01*
X97399265Y-92000396D01*
X97338127Y-92002798D01*
X97287253Y-91968805D01*
X97282685Y-91962517D01*
X97249971Y-91913558D01*
X97244552Y-91905448D01*
X97178231Y-91861133D01*
X97168668Y-91859231D01*
X97168666Y-91859230D01*
X97140184Y-91853565D01*
X97119748Y-91849500D01*
X97100898Y-91849500D01*
X97042707Y-91830593D01*
X97006743Y-91781093D01*
X97006743Y-91719907D01*
X97027500Y-91684064D01*
X97114468Y-91587982D01*
X97119200Y-91582754D01*
X97181710Y-91453733D01*
X97185875Y-91428982D01*
X97204862Y-91316124D01*
X97204862Y-91316120D01*
X97205496Y-91312354D01*
X97205647Y-91300000D01*
X97185323Y-91158082D01*
X97125984Y-91027572D01*
X97110063Y-91009095D01*
X97086401Y-90952670D01*
X97100424Y-90893113D01*
X97146776Y-90853174D01*
X97158822Y-90849011D01*
X97177520Y-90843871D01*
X97264514Y-90805230D01*
X97279321Y-90795054D01*
X97294965Y-90779382D01*
X97349457Y-90751557D01*
X97409897Y-90761075D01*
X97434973Y-90779260D01*
X97451108Y-90795367D01*
X97465931Y-90805517D01*
X97552980Y-90844000D01*
X97567185Y-90847873D01*
X97582580Y-90849668D01*
X97588292Y-90850000D01*
X97884320Y-90850000D01*
X97897005Y-90845878D01*
X97900000Y-90841757D01*
X97900000Y-89465680D01*
X97895878Y-89452995D01*
X97891757Y-89450000D01*
X96729000Y-89450000D01*
X96670809Y-89431093D01*
X96634845Y-89381593D01*
X96630000Y-89351000D01*
X96630000Y-89234320D01*
X96830000Y-89234320D01*
X96834122Y-89247005D01*
X96838243Y-89250000D01*
X97884320Y-89250000D01*
X97897005Y-89245878D01*
X97900000Y-89241757D01*
X97900000Y-87865680D01*
X97895878Y-87852995D01*
X97891757Y-87850000D01*
X97588361Y-87850000D01*
X97582515Y-87850346D01*
X97566647Y-87852234D01*
X97552481Y-87856128D01*
X97465486Y-87894770D01*
X97450679Y-87904946D01*
X97435035Y-87920618D01*
X97380543Y-87948443D01*
X97320103Y-87938925D01*
X97295027Y-87920740D01*
X97278892Y-87904633D01*
X97264069Y-87894483D01*
X97177020Y-87856000D01*
X97162815Y-87852127D01*
X97147420Y-87850332D01*
X97141708Y-87850000D01*
X96845680Y-87850000D01*
X96832995Y-87854122D01*
X96830000Y-87858243D01*
X96830000Y-89234320D01*
X96630000Y-89234320D01*
X96630000Y-87865680D01*
X96625878Y-87852995D01*
X96621757Y-87850000D01*
X96318361Y-87850000D01*
X96312515Y-87850346D01*
X96296647Y-87852234D01*
X96282481Y-87856128D01*
X96195486Y-87894770D01*
X96180679Y-87904946D01*
X96114637Y-87971104D01*
X96109830Y-87978124D01*
X96061353Y-88015455D01*
X96000191Y-88017163D01*
X95973145Y-88004508D01*
X95954496Y-87992047D01*
X95916618Y-87943997D01*
X95910500Y-87909733D01*
X95910500Y-84399500D01*
X95929407Y-84341309D01*
X95978907Y-84305345D01*
X96009500Y-84300500D01*
X97561728Y-84300500D01*
X97619919Y-84319407D01*
X97631732Y-84329496D01*
X100983232Y-87680996D01*
X101011009Y-87735513D01*
X101001438Y-87795945D01*
X100958173Y-87839210D01*
X100913228Y-87850000D01*
X100655680Y-87850000D01*
X100642995Y-87854122D01*
X100640000Y-87858243D01*
X100640000Y-89234320D01*
X100644122Y-89247005D01*
X100648243Y-89250000D01*
X101194320Y-89250000D01*
X101207005Y-89245878D01*
X101210000Y-89241757D01*
X101210000Y-88146772D01*
X101228907Y-88088581D01*
X101278407Y-88052617D01*
X101339593Y-88052617D01*
X101379004Y-88076768D01*
X104370504Y-91068268D01*
X104398281Y-91122785D01*
X104399500Y-91138272D01*
X104399500Y-95956153D01*
X104399288Y-95962627D01*
X104394770Y-96031560D01*
X104395303Y-96036063D01*
X104395303Y-96036065D01*
X104405736Y-96124212D01*
X104406007Y-96126789D01*
X104414546Y-96219711D01*
X104415777Y-96224077D01*
X104415778Y-96224080D01*
X104416727Y-96227443D01*
X104419760Y-96242691D01*
X104420169Y-96246152D01*
X104420171Y-96246160D01*
X104420704Y-96250667D01*
X104448384Y-96339812D01*
X104449094Y-96342211D01*
X104474435Y-96432064D01*
X104476441Y-96436131D01*
X104477991Y-96439275D01*
X104483746Y-96453702D01*
X104484781Y-96457036D01*
X104484787Y-96457051D01*
X104486131Y-96461379D01*
X104488242Y-96465390D01*
X104488243Y-96465394D01*
X104529567Y-96543938D01*
X104530743Y-96546247D01*
X104570012Y-96625876D01*
X104572020Y-96629947D01*
X104574734Y-96633582D01*
X104574738Y-96633588D01*
X104576833Y-96636394D01*
X104585116Y-96649520D01*
X104588863Y-96656641D01*
X104591673Y-96660206D01*
X104591674Y-96660207D01*
X104646645Y-96729937D01*
X104648197Y-96731961D01*
X104704033Y-96806733D01*
X104707366Y-96809814D01*
X104767874Y-96865747D01*
X104770677Y-96868441D01*
X108620126Y-100717890D01*
X108624553Y-100722618D01*
X108670090Y-100774543D01*
X108673652Y-100777351D01*
X108743369Y-100832311D01*
X108745383Y-100833942D01*
X108817117Y-100893602D01*
X108824137Y-100897533D01*
X108837045Y-100906159D01*
X108843360Y-100911137D01*
X108847377Y-100913250D01*
X108847384Y-100913255D01*
X108925936Y-100954584D01*
X108928213Y-100955820D01*
X109005655Y-100999190D01*
X109005664Y-100999194D01*
X109009621Y-101001410D01*
X109017234Y-101003994D01*
X109031507Y-101010126D01*
X109038620Y-101013869D01*
X109042954Y-101015215D01*
X109042957Y-101015216D01*
X109090663Y-101030029D01*
X109127762Y-101041548D01*
X109130191Y-101042338D01*
X109218548Y-101072331D01*
X109223044Y-101072983D01*
X109226504Y-101073485D01*
X109241653Y-101076912D01*
X109243368Y-101077445D01*
X109244997Y-101077951D01*
X109244999Y-101077951D01*
X109249333Y-101079297D01*
X109253838Y-101079830D01*
X109253842Y-101079831D01*
X109342017Y-101090267D01*
X109344587Y-101090606D01*
X109388246Y-101096936D01*
X109436902Y-101103991D01*
X109441434Y-101103813D01*
X109441435Y-101103813D01*
X109523821Y-101100576D01*
X109527708Y-101100500D01*
X111250500Y-101100500D01*
X111308691Y-101119407D01*
X111344655Y-101168907D01*
X111349500Y-101199500D01*
X111349500Y-106255970D01*
X111364546Y-106419711D01*
X111365779Y-106424083D01*
X111421094Y-106620216D01*
X111424435Y-106632064D01*
X111426443Y-106636136D01*
X111426445Y-106636141D01*
X111474702Y-106733996D01*
X111522020Y-106829947D01*
X111654033Y-107006733D01*
X111657366Y-107009814D01*
X111800836Y-107142436D01*
X111816051Y-107156501D01*
X111819884Y-107158919D01*
X111819886Y-107158921D01*
X111841232Y-107172389D01*
X112002650Y-107274236D01*
X112207579Y-107355994D01*
X112423976Y-107399038D01*
X112532653Y-107400461D01*
X112640054Y-107401867D01*
X112640059Y-107401867D01*
X112644594Y-107401926D01*
X112649067Y-107401157D01*
X112649072Y-107401157D01*
X112857565Y-107365332D01*
X112857571Y-107365330D01*
X112862043Y-107364562D01*
X113043165Y-107297743D01*
X113064780Y-107289769D01*
X113064783Y-107289768D01*
X113069043Y-107288196D01*
X113078191Y-107282754D01*
X113137910Y-107247225D01*
X113258659Y-107175386D01*
X113262074Y-107172391D01*
X113262077Y-107172389D01*
X113399763Y-107051641D01*
X113424543Y-107029910D01*
X113451111Y-106996209D01*
X113558327Y-106860205D01*
X113558329Y-106860202D01*
X113561137Y-106856640D01*
X113600266Y-106782269D01*
X113661759Y-106665391D01*
X113661760Y-106665388D01*
X113663869Y-106661380D01*
X113711640Y-106507533D01*
X113727950Y-106455006D01*
X113727951Y-106455003D01*
X113729297Y-106450667D01*
X113750500Y-106271524D01*
X113750500Y-99915025D01*
X113750508Y-99913729D01*
X113751867Y-99809946D01*
X113751867Y-99809941D01*
X113751926Y-99805406D01*
X113747652Y-99780528D01*
X113741892Y-99747009D01*
X113740877Y-99739303D01*
X113735869Y-99684807D01*
X113735454Y-99680289D01*
X113723994Y-99639653D01*
X113721710Y-99629558D01*
X113714562Y-99587957D01*
X113706443Y-99565949D01*
X113694050Y-99532355D01*
X113691648Y-99524963D01*
X113676798Y-99472308D01*
X113675565Y-99467936D01*
X113656895Y-99430078D01*
X113652805Y-99420557D01*
X113639770Y-99385223D01*
X113639769Y-99385221D01*
X113638196Y-99380957D01*
X113607901Y-99330036D01*
X113604191Y-99323204D01*
X113579985Y-99274119D01*
X113577980Y-99270053D01*
X113552726Y-99236233D01*
X113546970Y-99227619D01*
X113527712Y-99195250D01*
X113527710Y-99195247D01*
X113525386Y-99191341D01*
X113506785Y-99170130D01*
X113494679Y-99156327D01*
X113486312Y-99146786D01*
X113481422Y-99140747D01*
X113445967Y-99093267D01*
X113414975Y-99064618D01*
X113407747Y-99057198D01*
X113382904Y-99028870D01*
X113382899Y-99028865D01*
X113379910Y-99025457D01*
X113376349Y-99022650D01*
X113376343Y-99022644D01*
X113333369Y-98988766D01*
X113327458Y-98983718D01*
X113308166Y-98965885D01*
X113283949Y-98943499D01*
X113248243Y-98920970D01*
X113239796Y-98915000D01*
X113206640Y-98888863D01*
X113154196Y-98861271D01*
X113147466Y-98857385D01*
X113101187Y-98828185D01*
X113097350Y-98825764D01*
X113058147Y-98810123D01*
X113048740Y-98805787D01*
X113015394Y-98788243D01*
X113015395Y-98788243D01*
X113011380Y-98786131D01*
X113007051Y-98784787D01*
X113007049Y-98784786D01*
X112954782Y-98768557D01*
X112947455Y-98765962D01*
X112896634Y-98745687D01*
X112896636Y-98745687D01*
X112892421Y-98744006D01*
X112851023Y-98735771D01*
X112840984Y-98733222D01*
X112826965Y-98728869D01*
X112805006Y-98722050D01*
X112805003Y-98722049D01*
X112800667Y-98720703D01*
X112796157Y-98720169D01*
X112796156Y-98720169D01*
X112741814Y-98713737D01*
X112734138Y-98712521D01*
X112680479Y-98701848D01*
X112680477Y-98701848D01*
X112676024Y-98700962D01*
X112633816Y-98700410D01*
X112627335Y-98699984D01*
X112627333Y-98700015D01*
X112624423Y-98699843D01*
X112621524Y-98699500D01*
X112565025Y-98699500D01*
X112563729Y-98699492D01*
X112459946Y-98698133D01*
X112459941Y-98698133D01*
X112455406Y-98698074D01*
X112450929Y-98698843D01*
X112446463Y-98699195D01*
X112438692Y-98699500D01*
X110038272Y-98699500D01*
X109980081Y-98680593D01*
X109968268Y-98670504D01*
X106829496Y-95531733D01*
X106801719Y-95477216D01*
X106800500Y-95461729D01*
X106800500Y-90643848D01*
X106800712Y-90637373D01*
X106802220Y-90614359D01*
X106805230Y-90568440D01*
X106794262Y-90475772D01*
X106793991Y-90473195D01*
X106785869Y-90384809D01*
X106785454Y-90380289D01*
X106783273Y-90372554D01*
X106780244Y-90357326D01*
X106779832Y-90353846D01*
X106779830Y-90353837D01*
X106779297Y-90349333D01*
X106751612Y-90260171D01*
X106750894Y-90257746D01*
X106746920Y-90243653D01*
X106734448Y-90199431D01*
X106726799Y-90172310D01*
X106726798Y-90172306D01*
X106725565Y-90167936D01*
X106722009Y-90160725D01*
X106716254Y-90146298D01*
X106715219Y-90142964D01*
X106715213Y-90142949D01*
X106713869Y-90138621D01*
X106711759Y-90134610D01*
X106711755Y-90134601D01*
X106670428Y-90056051D01*
X106669252Y-90053743D01*
X106629989Y-89974127D01*
X106627980Y-89970053D01*
X106623168Y-89963609D01*
X106614874Y-89950463D01*
X106613254Y-89947383D01*
X106613251Y-89947379D01*
X106611137Y-89943360D01*
X106553336Y-89870040D01*
X106551832Y-89868079D01*
X106495967Y-89793267D01*
X106432111Y-89734239D01*
X106429309Y-89731546D01*
X98979881Y-82282118D01*
X98975453Y-82277389D01*
X98970332Y-82271549D01*
X98929910Y-82225457D01*
X98856562Y-82167634D01*
X98854651Y-82166087D01*
X98782883Y-82106398D01*
X98775863Y-82102467D01*
X98762955Y-82093841D01*
X98756640Y-82088863D01*
X98752623Y-82086750D01*
X98752616Y-82086745D01*
X98674064Y-82045416D01*
X98671787Y-82044180D01*
X98594345Y-82000810D01*
X98594336Y-82000806D01*
X98590379Y-81998590D01*
X98582765Y-81996006D01*
X98568493Y-81989874D01*
X98561380Y-81986131D01*
X98557046Y-81984785D01*
X98557043Y-81984784D01*
X98509337Y-81969971D01*
X98472238Y-81958452D01*
X98469809Y-81957662D01*
X98381452Y-81927669D01*
X98376223Y-81926911D01*
X98373496Y-81926515D01*
X98358347Y-81923088D01*
X98356632Y-81922555D01*
X98355003Y-81922049D01*
X98355001Y-81922049D01*
X98350667Y-81920703D01*
X98346162Y-81920170D01*
X98346158Y-81920169D01*
X98257983Y-81909733D01*
X98255413Y-81909394D01*
X98206004Y-81902230D01*
X98163098Y-81896009D01*
X98158566Y-81896187D01*
X98158565Y-81896187D01*
X98076179Y-81899424D01*
X98072292Y-81899500D01*
X95544030Y-81899500D01*
X95380289Y-81914546D01*
X95375917Y-81915779D01*
X95225938Y-81958077D01*
X95167936Y-81974435D01*
X95163864Y-81976443D01*
X95163859Y-81976445D01*
X94999753Y-82057373D01*
X94970053Y-82072020D01*
X94793267Y-82204033D01*
X94790186Y-82207366D01*
X94648750Y-82360371D01*
X94643499Y-82366051D01*
X94641081Y-82369884D01*
X94641079Y-82369886D01*
X94546134Y-82520366D01*
X94525764Y-82552650D01*
X94444006Y-82757579D01*
X94400962Y-82973976D01*
X94398074Y-83194594D01*
X82500000Y-83194594D01*
X82500000Y-77952749D01*
X84495572Y-77952749D01*
X84496199Y-77965795D01*
X84508408Y-78219980D01*
X84524144Y-78299089D01*
X84559301Y-78475835D01*
X84560602Y-78482378D01*
X84561842Y-78485833D01*
X84561843Y-78485835D01*
X84609066Y-78617362D01*
X84651008Y-78734179D01*
X84652746Y-78737414D01*
X84652748Y-78737418D01*
X84704889Y-78834456D01*
X84777639Y-78969851D01*
X84937714Y-79184217D01*
X85127716Y-79372569D01*
X85130675Y-79374739D01*
X85130679Y-79374742D01*
X85190572Y-79418657D01*
X85343471Y-79530767D01*
X85580239Y-79655337D01*
X85832819Y-79743542D01*
X85836419Y-79744226D01*
X85836421Y-79744226D01*
X86092054Y-79792759D01*
X86092056Y-79792759D01*
X86095663Y-79793444D01*
X86229329Y-79798695D01*
X86359325Y-79803803D01*
X86359328Y-79803803D01*
X86362995Y-79803947D01*
X86499613Y-79788985D01*
X86625303Y-79775220D01*
X86625306Y-79775219D01*
X86628944Y-79774821D01*
X86887666Y-79706705D01*
X87133478Y-79601096D01*
X87272004Y-79515374D01*
X87357854Y-79462249D01*
X87357859Y-79462245D01*
X87360980Y-79460314D01*
X87565174Y-79287451D01*
X87567593Y-79284693D01*
X87739149Y-79089071D01*
X87739153Y-79089066D01*
X87741575Y-79086304D01*
X87886306Y-78861294D01*
X87902055Y-78826334D01*
X87994681Y-78620710D01*
X87994682Y-78620708D01*
X87996189Y-78617362D01*
X87997185Y-78613831D01*
X88067813Y-78363404D01*
X88067814Y-78363401D01*
X88068810Y-78359868D01*
X88102573Y-78094469D01*
X88102590Y-78093823D01*
X91494391Y-78093823D01*
X91495306Y-78100820D01*
X91495306Y-78100821D01*
X91502785Y-78158016D01*
X91512980Y-78235979D01*
X91515821Y-78242435D01*
X91515821Y-78242436D01*
X91567493Y-78359868D01*
X91570720Y-78367203D01*
X91616845Y-78422076D01*
X91658431Y-78471549D01*
X91658434Y-78471551D01*
X91662970Y-78476948D01*
X91668841Y-78480856D01*
X91668842Y-78480857D01*
X91679508Y-78487957D01*
X91782313Y-78556390D01*
X91882920Y-78587821D01*
X91912425Y-78597039D01*
X91912426Y-78597039D01*
X91919157Y-78599142D01*
X91990828Y-78600456D01*
X92055445Y-78601641D01*
X92055447Y-78601641D01*
X92062499Y-78601770D01*
X92069302Y-78599915D01*
X92069304Y-78599915D01*
X92168073Y-78572987D01*
X92200817Y-78564060D01*
X92322991Y-78489045D01*
X92330403Y-78480857D01*
X92414468Y-78387982D01*
X92419200Y-78382754D01*
X92480450Y-78256334D01*
X92522838Y-78212210D01*
X92569544Y-78200500D01*
X96046492Y-78200500D01*
X96050617Y-78200803D01*
X96055342Y-78202425D01*
X96104761Y-78200570D01*
X96108474Y-78200500D01*
X96127948Y-78200500D01*
X96132378Y-78199675D01*
X96137571Y-78199339D01*
X96153602Y-78198737D01*
X96158075Y-78198569D01*
X96167208Y-78198226D01*
X96175602Y-78194620D01*
X96175605Y-78194619D01*
X96177783Y-78193683D01*
X96198734Y-78187317D01*
X96210053Y-78185209D01*
X96232729Y-78171232D01*
X96245596Y-78164548D01*
X96263642Y-78156795D01*
X96263643Y-78156794D01*
X96270063Y-78154036D01*
X96274949Y-78150022D01*
X96279313Y-78145658D01*
X96297368Y-78131387D01*
X96305348Y-78126468D01*
X96307057Y-78124220D01*
X96359452Y-78100672D01*
X96371959Y-78100110D01*
X96385028Y-78100350D01*
X96455445Y-78101641D01*
X96455447Y-78101641D01*
X96462499Y-78101770D01*
X96469302Y-78099915D01*
X96469304Y-78099915D01*
X96550449Y-78077792D01*
X96600817Y-78064060D01*
X96722991Y-77989045D01*
X96743791Y-77966066D01*
X96814468Y-77887982D01*
X96819200Y-77882754D01*
X96881710Y-77753733D01*
X96883378Y-77743823D01*
X96904862Y-77616124D01*
X96904862Y-77616120D01*
X96905496Y-77612354D01*
X96905647Y-77600000D01*
X96885323Y-77458082D01*
X96832742Y-77342436D01*
X96828905Y-77333996D01*
X96828904Y-77333995D01*
X96825984Y-77327572D01*
X96765582Y-77257472D01*
X96737005Y-77224307D01*
X96737004Y-77224306D01*
X96732400Y-77218963D01*
X96715466Y-77207987D01*
X96676921Y-77160471D01*
X96673666Y-77099372D01*
X96695917Y-77058477D01*
X96714468Y-77037982D01*
X96719200Y-77032754D01*
X96722273Y-77026412D01*
X96722276Y-77026407D01*
X96732000Y-77006335D01*
X96774387Y-76962211D01*
X96821094Y-76950500D01*
X99834521Y-76950500D01*
X99892712Y-76969407D01*
X99904525Y-76979496D01*
X100568869Y-77643840D01*
X100596646Y-77698357D01*
X100596687Y-77729072D01*
X100596045Y-77733197D01*
X100594391Y-77743823D01*
X100612980Y-77885979D01*
X100615821Y-77892435D01*
X100615821Y-77892436D01*
X100659955Y-77992737D01*
X100670720Y-78017203D01*
X100710107Y-78064060D01*
X100758431Y-78121549D01*
X100758434Y-78121551D01*
X100762970Y-78126948D01*
X100768841Y-78130856D01*
X100768842Y-78130857D01*
X100778774Y-78137468D01*
X100882313Y-78206390D01*
X100977024Y-78235979D01*
X101012425Y-78247039D01*
X101012426Y-78247039D01*
X101019157Y-78249142D01*
X101090828Y-78250456D01*
X101155445Y-78251641D01*
X101155447Y-78251641D01*
X101162499Y-78251770D01*
X101169302Y-78249915D01*
X101169304Y-78249915D01*
X101255826Y-78226326D01*
X101300817Y-78214060D01*
X101422991Y-78139045D01*
X101430403Y-78130857D01*
X101514468Y-78037982D01*
X101519200Y-78032754D01*
X101581710Y-77903733D01*
X101585875Y-77878982D01*
X101604862Y-77766124D01*
X101604862Y-77766120D01*
X101605496Y-77762354D01*
X101605647Y-77750000D01*
X101585323Y-77608082D01*
X101531332Y-77489334D01*
X101528905Y-77483996D01*
X101528904Y-77483995D01*
X101525984Y-77477572D01*
X101457332Y-77397898D01*
X101437005Y-77374307D01*
X101437004Y-77374306D01*
X101432400Y-77368963D01*
X101312095Y-77290985D01*
X101174739Y-77249907D01*
X101103032Y-77249469D01*
X101064610Y-77249234D01*
X101006536Y-77229972D01*
X100995211Y-77220240D01*
X100250320Y-76475349D01*
X100247620Y-76472220D01*
X100245425Y-76467731D01*
X100209178Y-76434107D01*
X100206502Y-76431531D01*
X100192723Y-76417752D01*
X100189013Y-76415207D01*
X100185100Y-76411771D01*
X100170055Y-76397815D01*
X100163354Y-76391599D01*
X100152664Y-76387334D01*
X100133348Y-76377020D01*
X100131393Y-76375679D01*
X100131390Y-76375678D01*
X100123854Y-76370508D01*
X100097941Y-76364359D01*
X100084116Y-76359986D01*
X100065868Y-76352706D01*
X100065866Y-76352706D01*
X100059378Y-76350117D01*
X100053085Y-76349500D01*
X100046916Y-76349500D01*
X100024057Y-76346825D01*
X100023827Y-76346770D01*
X100023825Y-76346770D01*
X100014934Y-76344660D01*
X99986013Y-76348596D01*
X99972663Y-76349500D01*
X96941412Y-76349500D01*
X96883221Y-76330593D01*
X96847257Y-76281093D01*
X96847257Y-76219907D01*
X96861845Y-76194720D01*
X96860524Y-76193829D01*
X96864468Y-76187982D01*
X96869200Y-76182754D01*
X96931710Y-76053733D01*
X96933879Y-76040846D01*
X96954862Y-75916124D01*
X96954862Y-75916120D01*
X96955496Y-75912354D01*
X96955647Y-75900000D01*
X96935323Y-75758082D01*
X96896616Y-75672949D01*
X96878905Y-75633996D01*
X96878904Y-75633995D01*
X96875984Y-75627572D01*
X96786603Y-75523841D01*
X96786602Y-75523839D01*
X96782400Y-75518963D01*
X96783246Y-75518234D01*
X96755324Y-75471583D01*
X96760760Y-75410639D01*
X96778426Y-75383041D01*
X96864468Y-75287982D01*
X96869200Y-75282754D01*
X96931710Y-75153733D01*
X96949109Y-75050320D01*
X96954862Y-75016124D01*
X96954862Y-75016120D01*
X96955496Y-75012354D01*
X96955647Y-75000000D01*
X96935323Y-74858082D01*
X96908853Y-74799864D01*
X96878905Y-74733996D01*
X96878904Y-74733995D01*
X96875984Y-74727572D01*
X96799606Y-74638931D01*
X96775945Y-74582506D01*
X96789969Y-74522949D01*
X96801207Y-74507872D01*
X96864468Y-74437982D01*
X96869200Y-74432754D01*
X96931710Y-74303733D01*
X96933017Y-74295968D01*
X96954862Y-74166124D01*
X96954862Y-74166120D01*
X96955496Y-74162354D01*
X96955647Y-74150000D01*
X96935323Y-74008082D01*
X96908998Y-73950182D01*
X96878905Y-73883996D01*
X96878904Y-73883995D01*
X96875984Y-73877572D01*
X96815582Y-73807472D01*
X96787005Y-73774307D01*
X96787004Y-73774306D01*
X96782400Y-73768963D01*
X96662095Y-73690985D01*
X96524739Y-73649907D01*
X96441497Y-73649398D01*
X96388427Y-73649074D01*
X96388426Y-73649074D01*
X96381376Y-73649031D01*
X96374599Y-73650968D01*
X96374598Y-73650968D01*
X96250309Y-73686490D01*
X96250307Y-73686491D01*
X96243529Y-73688428D01*
X96122280Y-73764930D01*
X96117613Y-73770214D01*
X96117611Y-73770216D01*
X96089604Y-73801929D01*
X96027377Y-73872388D01*
X96024380Y-73878772D01*
X96024379Y-73878773D01*
X95994424Y-73942574D01*
X95952579Y-73987213D01*
X95904810Y-73999500D01*
X92447173Y-73999500D01*
X92388982Y-73980593D01*
X92372174Y-73965123D01*
X92337005Y-73924307D01*
X92337004Y-73924306D01*
X92332400Y-73918963D01*
X92212095Y-73840985D01*
X92074739Y-73799907D01*
X91991497Y-73799398D01*
X91938427Y-73799074D01*
X91938426Y-73799074D01*
X91931376Y-73799031D01*
X91924599Y-73800968D01*
X91924598Y-73800968D01*
X91800309Y-73836490D01*
X91800307Y-73836491D01*
X91793529Y-73838428D01*
X91672280Y-73914930D01*
X91667613Y-73920214D01*
X91667611Y-73920216D01*
X91582044Y-74017103D01*
X91582042Y-74017105D01*
X91577377Y-74022388D01*
X91516447Y-74152163D01*
X91515362Y-74159132D01*
X91515361Y-74159135D01*
X91503634Y-74234457D01*
X91494391Y-74293823D01*
X91495306Y-74300820D01*
X91495306Y-74300821D01*
X91504572Y-74371680D01*
X91512980Y-74435979D01*
X91515821Y-74442435D01*
X91515821Y-74442436D01*
X91544614Y-74507872D01*
X91570720Y-74567203D01*
X91598709Y-74600500D01*
X91658431Y-74671549D01*
X91658434Y-74671551D01*
X91662970Y-74676948D01*
X91668841Y-74680856D01*
X91668842Y-74680857D01*
X91723897Y-74717505D01*
X91761860Y-74765489D01*
X91764369Y-74826623D01*
X91730464Y-74877556D01*
X91721867Y-74883643D01*
X91710424Y-74890863D01*
X91672280Y-74914930D01*
X91667613Y-74920214D01*
X91667611Y-74920216D01*
X91582044Y-75017103D01*
X91582042Y-75017105D01*
X91577377Y-75022388D01*
X91516447Y-75152163D01*
X91494391Y-75293823D01*
X91495306Y-75300820D01*
X91495306Y-75300821D01*
X91496945Y-75313354D01*
X91512980Y-75435979D01*
X91515821Y-75442435D01*
X91515821Y-75442436D01*
X91564943Y-75554073D01*
X91570720Y-75567203D01*
X91662970Y-75676948D01*
X91664716Y-75678110D01*
X91694352Y-75729025D01*
X91688170Y-75789897D01*
X91671795Y-75815479D01*
X91577377Y-75922388D01*
X91516447Y-76052163D01*
X91515362Y-76059132D01*
X91515361Y-76059135D01*
X91505244Y-76124117D01*
X91494391Y-76193823D01*
X91495306Y-76200820D01*
X91495306Y-76200821D01*
X91511726Y-76326390D01*
X91512980Y-76335979D01*
X91515821Y-76342435D01*
X91515821Y-76342436D01*
X91567844Y-76460666D01*
X91570720Y-76467203D01*
X91614038Y-76518736D01*
X91658431Y-76571549D01*
X91658434Y-76571551D01*
X91662970Y-76576948D01*
X91668841Y-76580856D01*
X91668842Y-76580857D01*
X91723897Y-76617505D01*
X91761860Y-76665489D01*
X91764369Y-76726623D01*
X91730464Y-76777556D01*
X91721867Y-76783643D01*
X91672280Y-76814930D01*
X91667613Y-76820214D01*
X91667611Y-76820216D01*
X91582044Y-76917103D01*
X91582042Y-76917105D01*
X91577377Y-76922388D01*
X91574381Y-76928770D01*
X91574380Y-76928771D01*
X91562218Y-76954676D01*
X91516447Y-77052163D01*
X91515362Y-77059132D01*
X91515361Y-77059135D01*
X91503912Y-77132669D01*
X91494391Y-77193823D01*
X91495306Y-77200820D01*
X91495306Y-77200821D01*
X91511726Y-77326390D01*
X91512980Y-77335979D01*
X91515821Y-77342435D01*
X91515821Y-77342436D01*
X91566707Y-77458082D01*
X91570720Y-77467203D01*
X91662970Y-77576948D01*
X91664716Y-77578110D01*
X91694352Y-77629025D01*
X91688170Y-77689897D01*
X91671795Y-77715479D01*
X91577377Y-77822388D01*
X91516447Y-77952163D01*
X91515362Y-77959132D01*
X91515361Y-77959135D01*
X91507236Y-78011322D01*
X91494391Y-78093823D01*
X88102590Y-78093823D01*
X88104279Y-78029343D01*
X88104982Y-78002492D01*
X88104982Y-78002487D01*
X88105047Y-78000000D01*
X88104863Y-77997527D01*
X88104863Y-77997517D01*
X88085492Y-77736851D01*
X88085491Y-77736845D01*
X88085220Y-77733197D01*
X88026175Y-77472255D01*
X88024845Y-77468834D01*
X87930539Y-77226326D01*
X87930537Y-77226321D01*
X87929209Y-77222907D01*
X87917131Y-77201774D01*
X87798274Y-76993819D01*
X87796452Y-76990631D01*
X87630820Y-76780528D01*
X87628147Y-76778014D01*
X87628142Y-76778008D01*
X87479430Y-76638114D01*
X87435953Y-76597215D01*
X87216131Y-76444719D01*
X87201428Y-76437468D01*
X87054545Y-76365034D01*
X86976183Y-76326390D01*
X86972686Y-76325271D01*
X86972682Y-76325269D01*
X86724882Y-76245948D01*
X86721380Y-76244827D01*
X86457320Y-76201822D01*
X86453656Y-76201774D01*
X86323562Y-76200071D01*
X86189805Y-76198320D01*
X86186177Y-76198814D01*
X86186173Y-76198814D01*
X86057257Y-76216359D01*
X85924710Y-76234398D01*
X85667859Y-76309263D01*
X85664523Y-76310801D01*
X85664520Y-76310802D01*
X85627178Y-76328017D01*
X85424896Y-76421270D01*
X85201157Y-76567960D01*
X85198425Y-76570399D01*
X85198423Y-76570400D01*
X85004299Y-76743662D01*
X85004295Y-76743666D01*
X85001558Y-76746109D01*
X84999211Y-76748931D01*
X84999209Y-76748933D01*
X84902575Y-76865123D01*
X84830483Y-76951804D01*
X84691691Y-77180526D01*
X84588231Y-77427250D01*
X84587327Y-77430811D01*
X84587326Y-77430813D01*
X84531457Y-77650802D01*
X84522376Y-77686557D01*
X84495572Y-77952749D01*
X82500000Y-77952749D01*
X82500000Y-71043823D01*
X99294391Y-71043823D01*
X99295306Y-71050820D01*
X99295306Y-71050821D01*
X99304547Y-71121490D01*
X99312980Y-71185979D01*
X99315821Y-71192435D01*
X99315821Y-71192436D01*
X99346706Y-71262626D01*
X99370720Y-71317203D01*
X99383792Y-71332754D01*
X99458431Y-71421549D01*
X99458434Y-71421551D01*
X99462970Y-71426948D01*
X99468841Y-71430856D01*
X99468842Y-71430857D01*
X99499361Y-71451172D01*
X99582313Y-71506390D01*
X99682920Y-71537821D01*
X99712425Y-71547039D01*
X99712426Y-71547039D01*
X99719157Y-71549142D01*
X99790828Y-71550456D01*
X99855445Y-71551641D01*
X99855447Y-71551641D01*
X99862499Y-71551770D01*
X99869302Y-71549915D01*
X99869304Y-71549915D01*
X99993246Y-71516124D01*
X100000817Y-71514060D01*
X100122991Y-71439045D01*
X100130403Y-71430857D01*
X100214468Y-71337982D01*
X100219200Y-71332754D01*
X100272750Y-71222226D01*
X100278634Y-71210082D01*
X100281710Y-71203733D01*
X100285875Y-71178982D01*
X100304862Y-71066124D01*
X100304862Y-71066120D01*
X100305496Y-71062354D01*
X100305647Y-71050000D01*
X100285323Y-70908082D01*
X100237976Y-70803947D01*
X100228905Y-70783996D01*
X100228904Y-70783995D01*
X100225984Y-70777572D01*
X100132400Y-70668963D01*
X100012095Y-70590985D01*
X99874739Y-70549907D01*
X99791497Y-70549398D01*
X99738427Y-70549074D01*
X99738426Y-70549074D01*
X99731376Y-70549031D01*
X99724599Y-70550968D01*
X99724598Y-70550968D01*
X99600309Y-70586490D01*
X99600307Y-70586491D01*
X99593529Y-70588428D01*
X99472280Y-70664930D01*
X99467613Y-70670214D01*
X99467611Y-70670216D01*
X99382044Y-70767103D01*
X99382042Y-70767105D01*
X99377377Y-70772388D01*
X99374381Y-70778770D01*
X99374380Y-70778771D01*
X99362560Y-70803947D01*
X99316447Y-70902163D01*
X99315362Y-70909132D01*
X99315361Y-70909135D01*
X99301365Y-70999031D01*
X99294391Y-71043823D01*
X82500000Y-71043823D01*
X82500000Y-68952749D01*
X84495572Y-68952749D01*
X84496199Y-68965795D01*
X84508408Y-69219980D01*
X84526447Y-69310667D01*
X84558281Y-69470707D01*
X84560602Y-69482378D01*
X84561842Y-69485833D01*
X84561843Y-69485835D01*
X84632741Y-69683302D01*
X84651008Y-69734179D01*
X84652746Y-69737414D01*
X84652748Y-69737418D01*
X84695913Y-69817752D01*
X84777639Y-69969851D01*
X84784747Y-69979370D01*
X84876267Y-70101929D01*
X84937714Y-70184217D01*
X85127716Y-70372569D01*
X85130675Y-70374739D01*
X85130679Y-70374742D01*
X85235583Y-70451660D01*
X85343471Y-70530767D01*
X85580239Y-70655337D01*
X85583710Y-70656549D01*
X85583712Y-70656550D01*
X85670555Y-70686877D01*
X85832819Y-70743542D01*
X85836419Y-70744226D01*
X85836421Y-70744226D01*
X86092054Y-70792759D01*
X86092056Y-70792759D01*
X86095663Y-70793444D01*
X86206409Y-70797795D01*
X86359325Y-70803803D01*
X86359328Y-70803803D01*
X86362995Y-70803947D01*
X86499613Y-70788985D01*
X86625303Y-70775220D01*
X86625306Y-70775219D01*
X86628944Y-70774821D01*
X86887666Y-70706705D01*
X87133478Y-70601096D01*
X87169069Y-70579072D01*
X87357854Y-70462249D01*
X87357859Y-70462245D01*
X87360980Y-70460314D01*
X87431553Y-70400570D01*
X87474103Y-70364548D01*
X87565174Y-70287451D01*
X87567593Y-70284693D01*
X87739149Y-70089071D01*
X87739153Y-70089066D01*
X87741575Y-70086304D01*
X87886306Y-69861294D01*
X87899131Y-69832825D01*
X87994681Y-69620710D01*
X87994682Y-69620708D01*
X87996189Y-69617362D01*
X87997185Y-69613831D01*
X88059234Y-69393823D01*
X96744391Y-69393823D01*
X96745306Y-69400820D01*
X96745306Y-69400821D01*
X96752794Y-69458082D01*
X96762980Y-69535979D01*
X96765821Y-69542435D01*
X96765821Y-69542436D01*
X96815582Y-69655525D01*
X96820720Y-69667203D01*
X96860842Y-69714934D01*
X96908431Y-69771549D01*
X96908434Y-69771551D01*
X96912970Y-69776948D01*
X96918841Y-69780856D01*
X96918842Y-69780857D01*
X96931577Y-69789334D01*
X97032313Y-69856390D01*
X97093575Y-69875529D01*
X97162425Y-69897039D01*
X97162426Y-69897039D01*
X97169157Y-69899142D01*
X97242526Y-69900487D01*
X97287124Y-69901305D01*
X97344958Y-69921276D01*
X97355313Y-69930284D01*
X97649680Y-70224651D01*
X97652380Y-70227780D01*
X97654575Y-70232269D01*
X97661278Y-70238487D01*
X97690822Y-70265893D01*
X97693498Y-70268469D01*
X97707277Y-70282248D01*
X97710987Y-70284793D01*
X97714900Y-70288229D01*
X97736646Y-70308401D01*
X97745132Y-70311787D01*
X97745134Y-70311788D01*
X97747337Y-70312667D01*
X97766648Y-70322978D01*
X97768607Y-70324322D01*
X97768610Y-70324323D01*
X97776146Y-70329493D01*
X97785038Y-70331603D01*
X97785040Y-70331604D01*
X97802066Y-70335644D01*
X97815885Y-70340014D01*
X97840622Y-70349883D01*
X97846915Y-70350500D01*
X97853085Y-70350500D01*
X97875941Y-70353175D01*
X97885066Y-70355340D01*
X97913988Y-70351404D01*
X97927337Y-70350500D01*
X101023077Y-70350500D01*
X101081268Y-70369407D01*
X101093081Y-70379496D01*
X101207425Y-70493840D01*
X101235202Y-70548357D01*
X101235243Y-70579072D01*
X101234032Y-70586851D01*
X101232947Y-70593823D01*
X101251536Y-70735979D01*
X101254377Y-70742435D01*
X101254377Y-70742436D01*
X101299717Y-70845478D01*
X101309276Y-70867203D01*
X101349509Y-70915066D01*
X101396987Y-70971549D01*
X101396990Y-70971551D01*
X101401526Y-70976948D01*
X101407397Y-70980856D01*
X101407398Y-70980857D01*
X101437610Y-71000968D01*
X101520869Y-71056390D01*
X101621476Y-71087821D01*
X101650981Y-71097039D01*
X101650982Y-71097039D01*
X101657713Y-71099142D01*
X101714115Y-71100176D01*
X101787338Y-71101519D01*
X101845172Y-71121490D01*
X101855527Y-71130498D01*
X104149680Y-73424651D01*
X104152380Y-73427780D01*
X104154575Y-73432269D01*
X104161278Y-73438487D01*
X104190822Y-73465893D01*
X104193498Y-73468469D01*
X104207277Y-73482248D01*
X104210987Y-73484793D01*
X104214900Y-73488229D01*
X104236646Y-73508401D01*
X104245134Y-73511788D01*
X104245135Y-73511788D01*
X104247336Y-73512666D01*
X104266652Y-73522980D01*
X104268607Y-73524321D01*
X104268610Y-73524322D01*
X104276146Y-73529492D01*
X104302058Y-73535641D01*
X104315884Y-73540014D01*
X104334132Y-73547294D01*
X104334134Y-73547294D01*
X104340622Y-73549883D01*
X104346915Y-73550500D01*
X104353084Y-73550500D01*
X104375943Y-73553175D01*
X104376173Y-73553230D01*
X104376175Y-73553230D01*
X104385066Y-73555340D01*
X104413988Y-73551404D01*
X104427337Y-73550500D01*
X105350500Y-73550500D01*
X105408691Y-73569407D01*
X105444655Y-73618907D01*
X105449500Y-73649500D01*
X105449500Y-79796492D01*
X105449197Y-79800617D01*
X105447575Y-79805342D01*
X105447918Y-79814476D01*
X105449430Y-79854761D01*
X105449500Y-79858474D01*
X105449500Y-79877948D01*
X105450325Y-79882378D01*
X105450662Y-79887583D01*
X105451405Y-79907368D01*
X105451774Y-79917208D01*
X105455380Y-79925602D01*
X105455381Y-79925605D01*
X105456317Y-79927783D01*
X105462683Y-79948734D01*
X105464791Y-79960053D01*
X105478768Y-79982728D01*
X105485451Y-79995595D01*
X105495964Y-80020063D01*
X105499978Y-80024949D01*
X105504342Y-80029313D01*
X105518613Y-80047368D01*
X105523532Y-80055348D01*
X105546769Y-80073018D01*
X105556839Y-80081810D01*
X105768869Y-80293840D01*
X105796646Y-80348357D01*
X105796687Y-80379072D01*
X105795476Y-80386851D01*
X105794391Y-80393823D01*
X105812980Y-80535979D01*
X105815821Y-80542435D01*
X105815821Y-80542436D01*
X105866033Y-80656550D01*
X105870720Y-80667203D01*
X105902704Y-80705253D01*
X105958431Y-80771549D01*
X105958434Y-80771551D01*
X105962970Y-80776948D01*
X106082313Y-80856390D01*
X106182920Y-80887821D01*
X106212425Y-80897039D01*
X106212426Y-80897039D01*
X106219157Y-80899142D01*
X106290828Y-80900456D01*
X106355445Y-80901641D01*
X106355447Y-80901641D01*
X106362499Y-80901770D01*
X106369304Y-80899915D01*
X106375388Y-80899157D01*
X106435469Y-80910728D01*
X106477275Y-80955404D01*
X106484837Y-81016120D01*
X106457627Y-81067402D01*
X106013133Y-81511896D01*
X105958616Y-81539673D01*
X105898184Y-81530102D01*
X105883373Y-81520092D01*
X105882400Y-81518963D01*
X105762095Y-81440985D01*
X105624739Y-81399907D01*
X105541497Y-81399398D01*
X105488427Y-81399074D01*
X105488426Y-81399074D01*
X105481376Y-81399031D01*
X105474599Y-81400968D01*
X105474598Y-81400968D01*
X105350309Y-81436490D01*
X105350307Y-81436491D01*
X105343529Y-81438428D01*
X105222280Y-81514930D01*
X105217613Y-81520214D01*
X105217611Y-81520216D01*
X105132044Y-81617103D01*
X105132042Y-81617105D01*
X105127377Y-81622388D01*
X105066447Y-81752163D01*
X105044391Y-81893823D01*
X105045306Y-81900820D01*
X105045306Y-81900821D01*
X105058154Y-81999074D01*
X105062980Y-82035979D01*
X105065821Y-82042435D01*
X105065821Y-82042436D01*
X105113157Y-82150014D01*
X105120720Y-82167203D01*
X105166845Y-82222076D01*
X105208431Y-82271549D01*
X105208434Y-82271551D01*
X105212970Y-82276948D01*
X105218841Y-82280856D01*
X105218842Y-82280857D01*
X105231143Y-82289045D01*
X105332313Y-82356390D01*
X105432920Y-82387821D01*
X105462425Y-82397039D01*
X105462426Y-82397039D01*
X105469157Y-82399142D01*
X105540828Y-82400456D01*
X105605445Y-82401641D01*
X105605447Y-82401641D01*
X105612499Y-82401770D01*
X105619302Y-82399915D01*
X105619304Y-82399915D01*
X105694503Y-82379413D01*
X105750817Y-82364060D01*
X105872991Y-82289045D01*
X105880403Y-82280857D01*
X105923595Y-82233138D01*
X105976663Y-82202684D01*
X106003722Y-82201869D01*
X106005342Y-82202425D01*
X106054761Y-82200570D01*
X106058474Y-82200500D01*
X106077948Y-82200500D01*
X106082378Y-82199675D01*
X106087571Y-82199339D01*
X106103602Y-82198737D01*
X106108075Y-82198569D01*
X106117208Y-82198226D01*
X106125602Y-82194620D01*
X106125605Y-82194619D01*
X106127783Y-82193683D01*
X106148734Y-82187317D01*
X106160053Y-82185209D01*
X106182729Y-82171232D01*
X106195596Y-82164548D01*
X106213642Y-82156795D01*
X106213643Y-82156794D01*
X106220063Y-82154036D01*
X106224949Y-82150022D01*
X106229313Y-82145658D01*
X106247368Y-82131387D01*
X106255348Y-82126468D01*
X106273018Y-82103231D01*
X106281810Y-82093161D01*
X107024651Y-81350320D01*
X107027780Y-81347620D01*
X107032269Y-81345425D01*
X107065893Y-81309178D01*
X107068469Y-81306502D01*
X107082248Y-81292723D01*
X107084793Y-81289013D01*
X107088229Y-81285100D01*
X107102187Y-81270053D01*
X107108401Y-81263354D01*
X107111788Y-81254866D01*
X107112667Y-81252663D01*
X107122978Y-81233352D01*
X107124322Y-81231393D01*
X107124323Y-81231390D01*
X107129493Y-81223854D01*
X107135644Y-81197934D01*
X107140014Y-81184115D01*
X107149883Y-81159378D01*
X107150500Y-81153085D01*
X107150500Y-81146915D01*
X107153175Y-81124056D01*
X107153230Y-81123826D01*
X107155340Y-81114934D01*
X107151404Y-81086012D01*
X107150500Y-81072663D01*
X107150500Y-80315479D01*
X107169407Y-80257288D01*
X107218907Y-80221324D01*
X107279021Y-80220983D01*
X107362422Y-80247038D01*
X107369157Y-80249142D01*
X107440828Y-80250456D01*
X107505445Y-80251641D01*
X107505447Y-80251641D01*
X107512499Y-80251770D01*
X107519302Y-80249915D01*
X107519304Y-80249915D01*
X107624173Y-80221324D01*
X107650817Y-80214060D01*
X107772991Y-80139045D01*
X107820730Y-80086304D01*
X107864468Y-80037982D01*
X107869200Y-80032754D01*
X107931710Y-79903733D01*
X107935334Y-79882197D01*
X107954862Y-79766124D01*
X107954862Y-79766120D01*
X107955496Y-79762354D01*
X107955647Y-79750000D01*
X107935323Y-79608082D01*
X107899184Y-79528597D01*
X107878905Y-79483996D01*
X107878904Y-79483995D01*
X107875984Y-79477572D01*
X107782400Y-79368963D01*
X107662095Y-79290985D01*
X107524739Y-79249907D01*
X107453032Y-79249469D01*
X107414610Y-79249234D01*
X107356536Y-79229972D01*
X107345211Y-79220240D01*
X107079496Y-78954525D01*
X107051719Y-78900008D01*
X107050500Y-78884521D01*
X107050500Y-78306063D01*
X107993633Y-78306063D01*
X108012222Y-78448219D01*
X108069962Y-78579443D01*
X108113493Y-78631229D01*
X108157673Y-78683789D01*
X108157676Y-78683791D01*
X108162212Y-78689188D01*
X108281555Y-78768630D01*
X108354353Y-78791373D01*
X108411667Y-78809279D01*
X108411668Y-78809279D01*
X108418399Y-78811382D01*
X108561741Y-78814010D01*
X108561679Y-78817369D01*
X108608041Y-78826334D01*
X108649812Y-78871042D01*
X108658292Y-78900130D01*
X108661692Y-78926132D01*
X108662980Y-78935979D01*
X108665821Y-78942435D01*
X108665821Y-78942436D01*
X108713157Y-79050014D01*
X108720720Y-79067203D01*
X108747867Y-79099498D01*
X108808431Y-79171549D01*
X108808434Y-79171551D01*
X108812970Y-79176948D01*
X108818841Y-79180856D01*
X108818842Y-79180857D01*
X108850544Y-79201960D01*
X108932313Y-79256390D01*
X109031736Y-79287451D01*
X109062425Y-79297039D01*
X109062426Y-79297039D01*
X109069157Y-79299142D01*
X109140828Y-79300456D01*
X109205445Y-79301641D01*
X109205447Y-79301641D01*
X109212499Y-79301770D01*
X109219302Y-79299915D01*
X109219304Y-79299915D01*
X109303086Y-79277073D01*
X109350817Y-79264060D01*
X109472991Y-79189045D01*
X109480403Y-79180857D01*
X109523662Y-79133064D01*
X109576730Y-79102610D01*
X109597060Y-79100500D01*
X111746492Y-79100500D01*
X111750617Y-79100803D01*
X111755342Y-79102425D01*
X111804761Y-79100570D01*
X111808474Y-79100500D01*
X111827948Y-79100500D01*
X111832378Y-79099675D01*
X111837571Y-79099339D01*
X111853602Y-79098737D01*
X111858075Y-79098569D01*
X111867208Y-79098226D01*
X111875602Y-79094620D01*
X111875605Y-79094619D01*
X111877783Y-79093683D01*
X111898734Y-79087317D01*
X111910053Y-79085209D01*
X111932729Y-79071232D01*
X111945596Y-79064548D01*
X111963642Y-79056795D01*
X111963643Y-79056794D01*
X111970063Y-79054036D01*
X111974949Y-79050022D01*
X111979313Y-79045658D01*
X111997368Y-79031387D01*
X112005348Y-79026468D01*
X112023018Y-79003231D01*
X112031810Y-78993161D01*
X114974651Y-76050320D01*
X114977780Y-76047620D01*
X114982269Y-76045425D01*
X115015893Y-76009178D01*
X115018469Y-76006502D01*
X115032248Y-75992723D01*
X115034793Y-75989013D01*
X115038229Y-75985100D01*
X115052187Y-75970053D01*
X115058401Y-75963354D01*
X115061788Y-75954866D01*
X115062667Y-75952663D01*
X115072978Y-75933352D01*
X115074322Y-75931393D01*
X115074323Y-75931390D01*
X115079493Y-75923854D01*
X115085644Y-75897934D01*
X115090014Y-75884115D01*
X115099883Y-75859378D01*
X115100500Y-75853085D01*
X115100500Y-75846915D01*
X115103175Y-75824056D01*
X115103230Y-75823826D01*
X115105340Y-75814934D01*
X115101404Y-75786012D01*
X115100500Y-75772663D01*
X115100500Y-73065479D01*
X115119407Y-73007288D01*
X115129496Y-72995475D01*
X115595475Y-72529496D01*
X115649992Y-72501719D01*
X115665479Y-72500500D01*
X116852597Y-72500500D01*
X116910788Y-72519407D01*
X116928380Y-72535798D01*
X116958431Y-72571549D01*
X116958434Y-72571551D01*
X116962970Y-72576948D01*
X116968841Y-72580856D01*
X116968842Y-72580857D01*
X116981143Y-72589045D01*
X117082313Y-72656390D01*
X117179159Y-72686646D01*
X117212425Y-72697039D01*
X117212426Y-72697039D01*
X117219157Y-72699142D01*
X117290828Y-72700456D01*
X117355445Y-72701641D01*
X117355447Y-72701641D01*
X117362499Y-72701770D01*
X117369302Y-72699915D01*
X117369304Y-72699915D01*
X117444503Y-72679413D01*
X117500817Y-72664060D01*
X117622991Y-72589045D01*
X117630403Y-72580857D01*
X117714468Y-72487982D01*
X117719200Y-72482754D01*
X117770274Y-72377337D01*
X117778634Y-72360082D01*
X117781710Y-72353733D01*
X117786386Y-72325943D01*
X117804862Y-72216124D01*
X117804862Y-72216120D01*
X117805496Y-72212354D01*
X117805555Y-72207570D01*
X117805600Y-72203826D01*
X117805647Y-72200000D01*
X117785323Y-72058082D01*
X117725984Y-71927572D01*
X117642852Y-71831093D01*
X117637005Y-71824307D01*
X117637004Y-71824306D01*
X117632400Y-71818963D01*
X117512095Y-71740985D01*
X117374739Y-71699907D01*
X117291497Y-71699398D01*
X117238427Y-71699074D01*
X117238426Y-71699074D01*
X117231376Y-71699031D01*
X117224599Y-71700968D01*
X117224598Y-71700968D01*
X117100309Y-71736490D01*
X117100307Y-71736491D01*
X117093529Y-71738428D01*
X116972280Y-71814930D01*
X116967613Y-71820214D01*
X116967611Y-71820216D01*
X116927147Y-71866034D01*
X116874455Y-71897134D01*
X116852943Y-71899500D01*
X116720610Y-71899500D01*
X116662419Y-71880593D01*
X116626455Y-71831093D01*
X116626455Y-71769907D01*
X116631516Y-71757335D01*
X116678633Y-71660085D01*
X116678634Y-71660082D01*
X116681710Y-71653733D01*
X116687853Y-71617224D01*
X116704862Y-71516124D01*
X116704862Y-71516120D01*
X116705496Y-71512354D01*
X116705647Y-71500000D01*
X116685323Y-71358082D01*
X116625984Y-71227572D01*
X116532400Y-71118963D01*
X116412095Y-71040985D01*
X116274739Y-70999907D01*
X116191497Y-70999398D01*
X116138427Y-70999074D01*
X116138426Y-70999074D01*
X116131376Y-70999031D01*
X116124599Y-71000968D01*
X116124598Y-71000968D01*
X116000309Y-71036490D01*
X116000307Y-71036491D01*
X115993529Y-71038428D01*
X115872280Y-71114930D01*
X115867613Y-71120214D01*
X115867611Y-71120216D01*
X115827147Y-71166034D01*
X115774455Y-71197134D01*
X115752943Y-71199500D01*
X115714479Y-71199500D01*
X115656288Y-71180593D01*
X115620324Y-71131093D01*
X115620324Y-71069907D01*
X115644475Y-71030496D01*
X116245475Y-70429496D01*
X116299992Y-70401719D01*
X116315479Y-70400500D01*
X122746492Y-70400500D01*
X122750617Y-70400803D01*
X122755342Y-70402425D01*
X122804761Y-70400570D01*
X122808474Y-70400500D01*
X122827948Y-70400500D01*
X122832378Y-70399675D01*
X122837571Y-70399339D01*
X122853602Y-70398737D01*
X122858075Y-70398569D01*
X122867208Y-70398226D01*
X122875602Y-70394620D01*
X122875605Y-70394619D01*
X122877783Y-70393683D01*
X122898734Y-70387317D01*
X122910053Y-70385209D01*
X122932729Y-70371232D01*
X122945596Y-70364548D01*
X122963642Y-70356795D01*
X122963643Y-70356794D01*
X122970063Y-70354036D01*
X122974949Y-70350022D01*
X122979313Y-70345658D01*
X122997368Y-70331387D01*
X123005348Y-70326468D01*
X123023018Y-70303231D01*
X123031810Y-70293161D01*
X125195959Y-68129012D01*
X125250476Y-68101235D01*
X125267774Y-68100033D01*
X125312090Y-68100846D01*
X125355446Y-68101641D01*
X125355448Y-68101641D01*
X125362499Y-68101770D01*
X125369302Y-68099915D01*
X125369304Y-68099915D01*
X125480614Y-68069568D01*
X125500817Y-68064060D01*
X125622991Y-67989045D01*
X125719200Y-67882754D01*
X125781710Y-67753733D01*
X125783405Y-67743662D01*
X125804862Y-67616124D01*
X125804862Y-67616120D01*
X125805496Y-67612354D01*
X125805647Y-67600000D01*
X125785323Y-67458082D01*
X125725984Y-67327572D01*
X125632400Y-67218963D01*
X125512095Y-67140985D01*
X125374739Y-67099907D01*
X125329408Y-67099630D01*
X125264141Y-67099231D01*
X125206067Y-67079969D01*
X125170406Y-67030250D01*
X125170780Y-66969065D01*
X125194742Y-66930229D01*
X125195959Y-66929012D01*
X125250476Y-66901235D01*
X125267774Y-66900033D01*
X125312090Y-66900846D01*
X125355446Y-66901641D01*
X125355448Y-66901641D01*
X125362499Y-66901770D01*
X125369302Y-66899915D01*
X125369304Y-66899915D01*
X125444503Y-66879413D01*
X125500817Y-66864060D01*
X125622991Y-66789045D01*
X125719200Y-66682754D01*
X125781710Y-66553733D01*
X125789896Y-66505082D01*
X125804862Y-66416124D01*
X125804862Y-66416120D01*
X125805496Y-66412354D01*
X125805647Y-66400000D01*
X125785323Y-66258082D01*
X125725984Y-66127572D01*
X125632400Y-66018963D01*
X125512095Y-65940985D01*
X125374739Y-65899907D01*
X125291497Y-65899398D01*
X125238427Y-65899074D01*
X125238426Y-65899074D01*
X125231376Y-65899031D01*
X125224599Y-65900968D01*
X125224598Y-65900968D01*
X125100309Y-65936490D01*
X125100307Y-65936491D01*
X125093529Y-65938428D01*
X125048857Y-65966614D01*
X124995528Y-66000262D01*
X124972280Y-66014930D01*
X124967613Y-66020214D01*
X124967611Y-66020216D01*
X124882044Y-66117103D01*
X124882042Y-66117105D01*
X124877377Y-66122388D01*
X124816447Y-66252163D01*
X124815362Y-66259132D01*
X124815361Y-66259135D01*
X124808457Y-66303478D01*
X124794391Y-66393823D01*
X124795306Y-66400820D01*
X124795306Y-66400822D01*
X124798107Y-66422242D01*
X124786905Y-66482393D01*
X124769947Y-66505082D01*
X122104525Y-69170504D01*
X122050008Y-69198281D01*
X122034521Y-69199500D01*
X116003514Y-69199500D01*
X115999385Y-69199197D01*
X115994658Y-69197574D01*
X115953266Y-69199128D01*
X115945223Y-69199430D01*
X115941509Y-69199500D01*
X115922052Y-69199500D01*
X115917622Y-69200325D01*
X115912436Y-69200661D01*
X115891925Y-69201431D01*
X115891924Y-69201431D01*
X115882792Y-69201774D01*
X115874398Y-69205380D01*
X115874395Y-69205381D01*
X115872217Y-69206317D01*
X115851266Y-69212683D01*
X115839947Y-69214791D01*
X115817269Y-69228770D01*
X115804410Y-69235450D01*
X115779938Y-69245964D01*
X115775051Y-69249977D01*
X115770685Y-69254343D01*
X115752629Y-69268615D01*
X115752432Y-69268736D01*
X115752431Y-69268737D01*
X115744652Y-69273532D01*
X115739120Y-69280807D01*
X115739119Y-69280808D01*
X115726993Y-69296755D01*
X115718193Y-69306835D01*
X112925349Y-72099680D01*
X112922220Y-72102380D01*
X112917731Y-72104575D01*
X112911513Y-72111278D01*
X112884107Y-72140822D01*
X112881531Y-72143498D01*
X112867752Y-72157277D01*
X112865207Y-72160987D01*
X112861771Y-72164900D01*
X112841599Y-72186646D01*
X112838212Y-72195134D01*
X112838212Y-72195135D01*
X112837334Y-72197336D01*
X112827020Y-72216652D01*
X112825679Y-72218607D01*
X112825678Y-72218610D01*
X112820508Y-72226146D01*
X112818398Y-72235038D01*
X112814359Y-72252058D01*
X112809986Y-72265884D01*
X112806704Y-72274111D01*
X112800117Y-72290622D01*
X112799500Y-72296915D01*
X112799500Y-72303084D01*
X112796825Y-72325943D01*
X112794660Y-72335066D01*
X112798596Y-72363987D01*
X112799500Y-72377337D01*
X112799500Y-74734521D01*
X112780593Y-74792712D01*
X112770504Y-74804525D01*
X111639543Y-75935486D01*
X111585026Y-75963263D01*
X111569539Y-75964482D01*
X109597173Y-75964482D01*
X109538982Y-75945575D01*
X109522174Y-75930105D01*
X109487005Y-75889289D01*
X109487004Y-75889288D01*
X109482400Y-75883945D01*
X109362095Y-75805967D01*
X109224739Y-75764889D01*
X109141497Y-75764380D01*
X109088427Y-75764056D01*
X109088426Y-75764056D01*
X109081376Y-75764013D01*
X109074599Y-75765950D01*
X109074598Y-75765950D01*
X108950309Y-75801472D01*
X108950307Y-75801473D01*
X108943529Y-75803410D01*
X108822280Y-75879912D01*
X108817613Y-75885196D01*
X108817611Y-75885198D01*
X108732044Y-75982085D01*
X108732042Y-75982087D01*
X108727377Y-75987370D01*
X108666447Y-76117145D01*
X108650448Y-76219907D01*
X108649199Y-76227927D01*
X108621565Y-76282516D01*
X108567122Y-76310437D01*
X108550773Y-76311695D01*
X108488427Y-76311314D01*
X108488426Y-76311314D01*
X108481376Y-76311271D01*
X108474599Y-76313208D01*
X108474598Y-76313208D01*
X108350309Y-76348730D01*
X108350307Y-76348731D01*
X108343529Y-76350668D01*
X108222280Y-76427170D01*
X108217613Y-76432454D01*
X108217611Y-76432456D01*
X108132044Y-76529343D01*
X108132042Y-76529345D01*
X108127377Y-76534628D01*
X108066447Y-76664403D01*
X108065362Y-76671372D01*
X108065361Y-76671375D01*
X108054523Y-76740985D01*
X108044391Y-76806063D01*
X108062980Y-76948219D01*
X108065821Y-76954675D01*
X108065821Y-76954676D01*
X108115918Y-77068529D01*
X108120720Y-77079443D01*
X108153930Y-77118951D01*
X108208431Y-77183789D01*
X108208434Y-77183791D01*
X108212970Y-77189188D01*
X108218841Y-77193096D01*
X108218842Y-77193097D01*
X108250544Y-77214200D01*
X108332313Y-77268630D01*
X108397400Y-77288964D01*
X108462425Y-77309279D01*
X108462426Y-77309279D01*
X108469157Y-77311382D01*
X108540828Y-77312696D01*
X108605445Y-77313881D01*
X108605447Y-77313881D01*
X108612499Y-77314010D01*
X108619302Y-77312155D01*
X108619304Y-77312155D01*
X108719302Y-77284892D01*
X108750817Y-77276300D01*
X108872991Y-77201285D01*
X108879745Y-77193823D01*
X108921623Y-77147557D01*
X108974691Y-77117103D01*
X108995021Y-77114993D01*
X111931999Y-77114993D01*
X111936124Y-77115296D01*
X111940849Y-77116918D01*
X111966420Y-77115958D01*
X112025278Y-77132669D01*
X112063074Y-77180785D01*
X112065369Y-77241927D01*
X112040137Y-77284892D01*
X111404036Y-77920993D01*
X111349519Y-77948770D01*
X111334032Y-77949989D01*
X108888769Y-77949989D01*
X108831911Y-77931515D01*
X108831642Y-77931203D01*
X108711337Y-77853225D01*
X108573981Y-77812147D01*
X108490739Y-77811638D01*
X108437669Y-77811314D01*
X108437668Y-77811314D01*
X108430618Y-77811271D01*
X108423841Y-77813208D01*
X108423840Y-77813208D01*
X108299551Y-77848730D01*
X108299549Y-77848731D01*
X108292771Y-77850668D01*
X108171522Y-77927170D01*
X108166855Y-77932454D01*
X108166853Y-77932456D01*
X108081286Y-78029343D01*
X108081284Y-78029345D01*
X108076619Y-78034628D01*
X108073623Y-78041010D01*
X108073622Y-78041011D01*
X108061930Y-78065914D01*
X108015689Y-78164403D01*
X108014604Y-78171372D01*
X108014603Y-78171375D01*
X108002823Y-78247039D01*
X107993633Y-78306063D01*
X107050500Y-78306063D01*
X107050500Y-75695816D01*
X107069407Y-75637625D01*
X107118907Y-75601661D01*
X107180093Y-75601661D01*
X107225283Y-75632114D01*
X107262970Y-75676948D01*
X107268841Y-75680856D01*
X107268842Y-75680857D01*
X107279887Y-75688209D01*
X107382313Y-75756390D01*
X107477133Y-75786013D01*
X107512425Y-75797039D01*
X107512426Y-75797039D01*
X107519157Y-75799142D01*
X107590828Y-75800456D01*
X107655445Y-75801641D01*
X107655447Y-75801641D01*
X107662499Y-75801770D01*
X107669302Y-75799915D01*
X107669304Y-75799915D01*
X107744661Y-75779370D01*
X107800817Y-75764060D01*
X107922991Y-75689045D01*
X107930403Y-75680857D01*
X108014468Y-75587982D01*
X108019200Y-75582754D01*
X108033096Y-75554073D01*
X108052410Y-75528279D01*
X108055348Y-75526468D01*
X108073018Y-75503231D01*
X108081810Y-75493161D01*
X108524651Y-75050320D01*
X108527780Y-75047620D01*
X108532269Y-75045425D01*
X108558542Y-75017103D01*
X108565893Y-75009178D01*
X108568469Y-75006502D01*
X108582248Y-74992723D01*
X108584793Y-74989013D01*
X108588229Y-74985100D01*
X108602187Y-74970053D01*
X108608401Y-74963354D01*
X108611788Y-74954866D01*
X108612667Y-74952663D01*
X108622978Y-74933352D01*
X108624322Y-74931393D01*
X108624323Y-74931390D01*
X108629493Y-74923854D01*
X108635644Y-74897934D01*
X108640014Y-74884115D01*
X108649883Y-74859378D01*
X108650500Y-74853085D01*
X108650500Y-74846915D01*
X108653175Y-74824056D01*
X108653230Y-74823826D01*
X108655340Y-74814934D01*
X108651404Y-74786012D01*
X108650500Y-74772663D01*
X108650500Y-74015479D01*
X108669407Y-73957288D01*
X108679496Y-73945475D01*
X111751716Y-70873255D01*
X111806233Y-70845478D01*
X111821720Y-70844259D01*
X112502733Y-70844259D01*
X112506858Y-70844562D01*
X112511583Y-70846184D01*
X112561002Y-70844329D01*
X112564715Y-70844259D01*
X112584189Y-70844259D01*
X112588619Y-70843434D01*
X112593812Y-70843098D01*
X112609843Y-70842496D01*
X112614316Y-70842328D01*
X112623449Y-70841985D01*
X112631843Y-70838379D01*
X112631846Y-70838378D01*
X112634024Y-70837442D01*
X112654975Y-70831076D01*
X112666294Y-70828968D01*
X112688970Y-70814991D01*
X112701837Y-70808307D01*
X112719883Y-70800554D01*
X112719884Y-70800553D01*
X112726304Y-70797795D01*
X112731190Y-70793781D01*
X112735554Y-70789417D01*
X112753609Y-70775146D01*
X112761589Y-70770227D01*
X112779259Y-70746990D01*
X112788052Y-70736920D01*
X113274657Y-70250316D01*
X113277783Y-70247618D01*
X113282269Y-70245425D01*
X113315881Y-70209191D01*
X113318457Y-70206515D01*
X113332248Y-70192724D01*
X113334793Y-70189013D01*
X113338234Y-70185094D01*
X113352185Y-70170055D01*
X113352185Y-70170054D01*
X113358401Y-70163354D01*
X113361787Y-70154866D01*
X113361789Y-70154863D01*
X113362667Y-70152662D01*
X113372981Y-70133346D01*
X113374322Y-70131391D01*
X113374323Y-70131389D01*
X113379492Y-70123854D01*
X113385641Y-70097941D01*
X113390014Y-70084116D01*
X113397294Y-70065868D01*
X113397294Y-70065866D01*
X113399883Y-70059378D01*
X113400500Y-70053085D01*
X113400500Y-70046916D01*
X113403175Y-70024057D01*
X113403230Y-70023827D01*
X113403230Y-70023825D01*
X113405340Y-70014934D01*
X113401404Y-69986012D01*
X113400500Y-69972663D01*
X113400500Y-64002044D01*
X113419407Y-63943853D01*
X113426102Y-63935608D01*
X113514468Y-63837982D01*
X113519200Y-63832754D01*
X113581710Y-63703733D01*
X113585875Y-63678982D01*
X113604862Y-63566124D01*
X113604862Y-63566120D01*
X113605496Y-63562354D01*
X113605647Y-63550000D01*
X113585323Y-63408082D01*
X113525984Y-63277572D01*
X113449500Y-63188808D01*
X113425840Y-63132386D01*
X113425500Y-63124187D01*
X113425500Y-61918534D01*
X113425877Y-61909905D01*
X113425944Y-61909135D01*
X113429264Y-61871193D01*
X113419204Y-61833650D01*
X113417334Y-61825216D01*
X113412092Y-61795483D01*
X113412091Y-61795481D01*
X113410588Y-61786955D01*
X113406258Y-61779456D01*
X113404262Y-61773971D01*
X113401796Y-61768684D01*
X113399554Y-61760316D01*
X113377268Y-61728489D01*
X113372627Y-61721205D01*
X113371333Y-61718963D01*
X113353194Y-61687545D01*
X113323429Y-61662569D01*
X113317061Y-61656735D01*
X112113075Y-60452749D01*
X122495572Y-60452749D01*
X122496199Y-60465795D01*
X122508408Y-60719980D01*
X122560602Y-60982378D01*
X122561842Y-60985833D01*
X122561843Y-60985835D01*
X122609066Y-61117362D01*
X122651008Y-61234179D01*
X122777639Y-61469851D01*
X122779839Y-61472797D01*
X122876267Y-61601929D01*
X122937714Y-61684217D01*
X123127716Y-61872569D01*
X123130675Y-61874739D01*
X123130679Y-61874742D01*
X123190404Y-61918534D01*
X123343471Y-62030767D01*
X123580239Y-62155337D01*
X123832819Y-62243542D01*
X123836419Y-62244226D01*
X123836421Y-62244226D01*
X124092054Y-62292759D01*
X124092056Y-62292759D01*
X124095663Y-62293444D01*
X124229329Y-62298696D01*
X124359325Y-62303803D01*
X124359328Y-62303803D01*
X124362995Y-62303947D01*
X124499613Y-62288985D01*
X124625303Y-62275220D01*
X124625306Y-62275219D01*
X124628944Y-62274821D01*
X124887666Y-62206705D01*
X125133478Y-62101096D01*
X125174301Y-62075834D01*
X125357854Y-61962249D01*
X125357859Y-61962245D01*
X125360980Y-61960314D01*
X125370609Y-61952163D01*
X125520564Y-61825216D01*
X125565174Y-61787451D01*
X125595193Y-61753221D01*
X125739149Y-61589071D01*
X125739153Y-61589066D01*
X125741575Y-61586304D01*
X125886306Y-61361294D01*
X125945127Y-61230717D01*
X125994681Y-61120710D01*
X125994682Y-61120708D01*
X125996189Y-61117362D01*
X126068810Y-60859868D01*
X126102573Y-60594469D01*
X126105047Y-60500000D01*
X126104863Y-60497527D01*
X126104863Y-60497517D01*
X126085492Y-60236851D01*
X126085491Y-60236845D01*
X126085220Y-60233197D01*
X126026175Y-59972255D01*
X126008674Y-59927250D01*
X125930539Y-59726326D01*
X125930537Y-59726321D01*
X125929209Y-59722907D01*
X125796452Y-59490631D01*
X125630820Y-59280528D01*
X125628147Y-59278014D01*
X125628142Y-59278008D01*
X125438625Y-59099729D01*
X125435953Y-59097215D01*
X125216131Y-58944719D01*
X124976183Y-58826390D01*
X124972686Y-58825271D01*
X124972682Y-58825269D01*
X124724882Y-58745948D01*
X124721380Y-58744827D01*
X124457320Y-58701822D01*
X124453656Y-58701774D01*
X124323562Y-58700071D01*
X124189805Y-58698320D01*
X124186177Y-58698814D01*
X124186173Y-58698814D01*
X124057257Y-58716359D01*
X123924710Y-58734398D01*
X123667859Y-58809263D01*
X123664523Y-58810801D01*
X123664520Y-58810802D01*
X123627178Y-58828017D01*
X123424896Y-58921270D01*
X123201157Y-59067960D01*
X123198425Y-59070399D01*
X123198423Y-59070400D01*
X123004299Y-59243662D01*
X123004295Y-59243666D01*
X123001558Y-59246109D01*
X122999211Y-59248931D01*
X122999209Y-59248933D01*
X122883620Y-59387913D01*
X122830483Y-59451804D01*
X122691691Y-59680526D01*
X122588231Y-59927250D01*
X122587327Y-59930811D01*
X122587326Y-59930813D01*
X122565544Y-60016583D01*
X122522376Y-60186557D01*
X122495572Y-60452749D01*
X112113075Y-60452749D01*
X107854496Y-56194170D01*
X107826719Y-56139653D01*
X107825500Y-56124166D01*
X107825500Y-41250000D01*
X108345254Y-41250000D01*
X108346101Y-41256433D01*
X108362357Y-41379904D01*
X108364157Y-41393579D01*
X108419576Y-41527373D01*
X108507735Y-41642265D01*
X108622627Y-41730424D01*
X108756421Y-41785843D01*
X108762850Y-41786689D01*
X108762852Y-41786690D01*
X108893567Y-41803899D01*
X108900000Y-41804746D01*
X108906433Y-41803899D01*
X109037148Y-41786690D01*
X109037150Y-41786689D01*
X109043579Y-41785843D01*
X109177373Y-41730424D01*
X109292265Y-41642265D01*
X109380424Y-41527373D01*
X109435843Y-41393579D01*
X109437644Y-41379904D01*
X109453899Y-41256433D01*
X109454746Y-41250000D01*
X109439751Y-41136102D01*
X109436690Y-41112852D01*
X109436689Y-41112850D01*
X109435843Y-41106421D01*
X109380424Y-40972627D01*
X109292265Y-40857735D01*
X109177373Y-40769576D01*
X109043579Y-40714157D01*
X109037150Y-40713311D01*
X109037148Y-40713310D01*
X108906433Y-40696101D01*
X108900000Y-40695254D01*
X108893567Y-40696101D01*
X108762852Y-40713310D01*
X108762850Y-40713311D01*
X108756421Y-40714157D01*
X108622627Y-40769576D01*
X108507735Y-40857735D01*
X108419576Y-40972627D01*
X108364157Y-41106421D01*
X108363311Y-41112850D01*
X108363310Y-41112852D01*
X108360249Y-41136102D01*
X108345254Y-41250000D01*
X107825500Y-41250000D01*
X107825500Y-40824424D01*
X107844407Y-40766233D01*
X107851102Y-40757988D01*
X107914468Y-40687982D01*
X107919200Y-40682754D01*
X107981710Y-40553733D01*
X107985875Y-40528982D01*
X108004862Y-40416124D01*
X108004862Y-40416120D01*
X108005496Y-40412354D01*
X108005647Y-40400000D01*
X107985323Y-40258082D01*
X107925984Y-40127572D01*
X107844416Y-40032908D01*
X107837005Y-40024307D01*
X107837004Y-40024306D01*
X107832400Y-40018963D01*
X107712095Y-39940985D01*
X107574739Y-39899907D01*
X107491497Y-39899398D01*
X107438427Y-39899074D01*
X107438426Y-39899074D01*
X107431376Y-39899031D01*
X107424599Y-39900968D01*
X107424598Y-39900968D01*
X107300309Y-39936490D01*
X107300307Y-39936491D01*
X107293529Y-39938428D01*
X107172280Y-40014930D01*
X107167613Y-40020214D01*
X107167611Y-40020216D01*
X107082044Y-40117103D01*
X107082042Y-40117105D01*
X107077377Y-40122388D01*
X107016447Y-40252163D01*
X106994391Y-40393823D01*
X106995306Y-40400820D01*
X106995306Y-40400821D01*
X106996814Y-40412354D01*
X107012980Y-40535979D01*
X107015821Y-40542435D01*
X107015821Y-40542436D01*
X107023586Y-40560082D01*
X107070720Y-40667203D01*
X107109477Y-40713310D01*
X107151283Y-40763045D01*
X107174253Y-40819755D01*
X107174500Y-40826747D01*
X107174500Y-56281466D01*
X107174123Y-56290095D01*
X107170736Y-56328807D01*
X107172978Y-56337174D01*
X107180796Y-56366349D01*
X107182666Y-56374783D01*
X107189412Y-56413045D01*
X107193742Y-56420544D01*
X107195738Y-56426029D01*
X107198204Y-56431316D01*
X107200446Y-56439684D01*
X107221013Y-56469056D01*
X107222732Y-56471511D01*
X107227371Y-56478792D01*
X107246806Y-56512455D01*
X107276571Y-56537431D01*
X107282939Y-56543265D01*
X112745504Y-62005830D01*
X112773281Y-62060347D01*
X112774500Y-62075834D01*
X112774500Y-63124959D01*
X112755593Y-63183150D01*
X112749716Y-63190479D01*
X112677377Y-63272388D01*
X112616447Y-63402163D01*
X112615362Y-63409132D01*
X112615361Y-63409135D01*
X112610074Y-63443094D01*
X112594391Y-63543823D01*
X112595306Y-63550820D01*
X112595306Y-63550821D01*
X112602183Y-63603410D01*
X112612980Y-63685979D01*
X112615821Y-63692435D01*
X112615821Y-63692436D01*
X112655855Y-63783419D01*
X112670720Y-63817203D01*
X112762970Y-63926948D01*
X112766999Y-63929630D01*
X112797265Y-63981636D01*
X112799500Y-64002554D01*
X112799500Y-69204361D01*
X112780593Y-69262552D01*
X112731093Y-69298516D01*
X112669907Y-69298516D01*
X112625501Y-69268984D01*
X112587005Y-69224307D01*
X112587004Y-69224306D01*
X112582400Y-69218963D01*
X112462095Y-69140985D01*
X112324739Y-69099907D01*
X112241497Y-69099398D01*
X112188427Y-69099074D01*
X112188426Y-69099074D01*
X112181376Y-69099031D01*
X112174599Y-69100968D01*
X112174598Y-69100968D01*
X112050309Y-69136490D01*
X112050307Y-69136491D01*
X112043529Y-69138428D01*
X111922280Y-69214930D01*
X111904158Y-69235450D01*
X111877212Y-69265960D01*
X111824520Y-69297061D01*
X111796154Y-69298089D01*
X111794658Y-69297575D01*
X111745238Y-69299430D01*
X111741525Y-69299500D01*
X111722052Y-69299500D01*
X111717622Y-69300325D01*
X111712429Y-69300661D01*
X111693298Y-69301379D01*
X111691926Y-69301431D01*
X111682791Y-69301774D01*
X111674394Y-69305382D01*
X111674393Y-69305382D01*
X111672212Y-69306319D01*
X111651263Y-69312683D01*
X111648936Y-69313116D01*
X111648931Y-69313118D01*
X111639947Y-69314791D01*
X111619212Y-69327572D01*
X111617272Y-69328768D01*
X111604404Y-69335452D01*
X111586358Y-69343205D01*
X111586357Y-69343206D01*
X111579937Y-69345964D01*
X111575051Y-69349978D01*
X111570687Y-69354342D01*
X111552632Y-69368613D01*
X111544652Y-69373532D01*
X111526982Y-69396769D01*
X111518190Y-69406839D01*
X111269504Y-69655525D01*
X111214987Y-69683302D01*
X111154555Y-69673731D01*
X111111290Y-69630466D01*
X111100500Y-69585521D01*
X111100500Y-62552044D01*
X111119407Y-62493853D01*
X111126102Y-62485608D01*
X111214468Y-62387982D01*
X111219200Y-62382754D01*
X111281710Y-62253733D01*
X111283310Y-62244226D01*
X111304862Y-62116124D01*
X111304862Y-62116120D01*
X111305496Y-62112354D01*
X111305647Y-62100000D01*
X111285323Y-61958082D01*
X111225984Y-61827572D01*
X111140608Y-61728489D01*
X111137005Y-61724307D01*
X111137004Y-61724306D01*
X111132400Y-61718963D01*
X111012095Y-61640985D01*
X110874739Y-61599907D01*
X110791497Y-61599398D01*
X110738427Y-61599074D01*
X110738426Y-61599074D01*
X110731376Y-61599031D01*
X110724599Y-61600968D01*
X110724598Y-61600968D01*
X110600309Y-61636490D01*
X110600307Y-61636491D01*
X110593529Y-61638428D01*
X110472280Y-61714930D01*
X110467613Y-61720214D01*
X110467611Y-61720216D01*
X110382044Y-61817103D01*
X110382042Y-61817105D01*
X110377377Y-61822388D01*
X110374381Y-61828770D01*
X110374380Y-61828771D01*
X110372089Y-61833651D01*
X110316447Y-61952163D01*
X110315362Y-61959132D01*
X110315361Y-61959135D01*
X110303943Y-62032475D01*
X110294391Y-62093823D01*
X110295306Y-62100820D01*
X110295306Y-62100821D01*
X110296315Y-62108533D01*
X110312980Y-62235979D01*
X110315821Y-62242436D01*
X110317693Y-62249140D01*
X110315131Y-62310272D01*
X110277126Y-62358222D01*
X110218194Y-62374676D01*
X110193975Y-62370612D01*
X110131503Y-62351929D01*
X110131497Y-62351928D01*
X110124739Y-62349907D01*
X110041497Y-62349398D01*
X109988427Y-62349074D01*
X109988426Y-62349074D01*
X109981376Y-62349031D01*
X109974599Y-62350968D01*
X109974598Y-62350968D01*
X109850309Y-62386490D01*
X109850307Y-62386491D01*
X109843529Y-62388428D01*
X109774536Y-62431959D01*
X109715234Y-62447020D01*
X109658405Y-62424348D01*
X109625755Y-62372601D01*
X109629757Y-62311547D01*
X109632615Y-62305067D01*
X109678633Y-62210085D01*
X109678634Y-62210082D01*
X109681710Y-62203733D01*
X109685875Y-62178982D01*
X109704862Y-62066124D01*
X109704862Y-62066120D01*
X109705496Y-62062354D01*
X109705647Y-62050000D01*
X109685323Y-61908082D01*
X109651638Y-61833996D01*
X109628905Y-61783996D01*
X109628904Y-61783995D01*
X109625984Y-61777572D01*
X109554873Y-61695044D01*
X109537005Y-61674307D01*
X109537004Y-61674306D01*
X109532400Y-61668963D01*
X109412095Y-61590985D01*
X109274739Y-61549907D01*
X109191497Y-61549398D01*
X109138427Y-61549074D01*
X109138426Y-61549074D01*
X109131376Y-61549031D01*
X109124599Y-61550968D01*
X109124598Y-61550968D01*
X109000309Y-61586490D01*
X109000307Y-61586491D01*
X108993529Y-61588428D01*
X108872280Y-61664930D01*
X108867613Y-61670214D01*
X108867611Y-61670216D01*
X108782044Y-61767103D01*
X108782042Y-61767105D01*
X108777377Y-61772388D01*
X108716447Y-61902163D01*
X108715362Y-61909132D01*
X108715361Y-61909135D01*
X108707393Y-61960314D01*
X108694391Y-62043823D01*
X108695306Y-62050820D01*
X108695306Y-62050821D01*
X108696552Y-62060347D01*
X108712980Y-62185979D01*
X108715821Y-62192435D01*
X108715821Y-62192436D01*
X108742793Y-62253733D01*
X108770720Y-62317203D01*
X108862970Y-62426948D01*
X108866999Y-62429630D01*
X108897265Y-62481636D01*
X108899500Y-62502554D01*
X108899500Y-69634521D01*
X108880593Y-69692712D01*
X108870504Y-69704525D01*
X105654525Y-72920504D01*
X105600008Y-72948281D01*
X105584521Y-72949500D01*
X104565479Y-72949500D01*
X104507288Y-72930593D01*
X104495475Y-72920504D01*
X102271847Y-70696876D01*
X102244070Y-70642359D01*
X102243247Y-70618025D01*
X102243417Y-70616126D01*
X102244052Y-70612354D01*
X102244203Y-70600000D01*
X102223879Y-70458082D01*
X102191703Y-70387315D01*
X102167461Y-70333996D01*
X102167460Y-70333995D01*
X102164540Y-70327572D01*
X102090232Y-70241334D01*
X102075561Y-70224307D01*
X102075560Y-70224306D01*
X102070956Y-70218963D01*
X101950651Y-70140985D01*
X101813295Y-70099907D01*
X101741588Y-70099469D01*
X101703166Y-70099234D01*
X101645092Y-70079972D01*
X101633767Y-70070240D01*
X101438876Y-69875349D01*
X101436176Y-69872220D01*
X101433981Y-69867731D01*
X101397734Y-69834107D01*
X101395058Y-69831531D01*
X101381279Y-69817752D01*
X101377569Y-69815207D01*
X101373656Y-69811771D01*
X101358611Y-69797815D01*
X101351910Y-69791599D01*
X101341220Y-69787334D01*
X101321904Y-69777020D01*
X101319949Y-69775679D01*
X101319946Y-69775678D01*
X101312410Y-69770508D01*
X101286497Y-69764359D01*
X101272672Y-69759986D01*
X101254424Y-69752706D01*
X101254422Y-69752706D01*
X101247934Y-69750117D01*
X101241641Y-69749500D01*
X101235472Y-69749500D01*
X101212613Y-69746825D01*
X101212383Y-69746770D01*
X101212381Y-69746770D01*
X101203490Y-69744660D01*
X101174569Y-69748596D01*
X101161219Y-69749500D01*
X98065479Y-69749500D01*
X98007288Y-69730593D01*
X97995475Y-69720504D01*
X97781771Y-69506800D01*
X97753994Y-69452283D01*
X97754148Y-69420366D01*
X97754862Y-69416125D01*
X97754863Y-69416119D01*
X97755496Y-69412354D01*
X97755564Y-69406839D01*
X97755600Y-69403826D01*
X97755647Y-69400000D01*
X97735323Y-69258082D01*
X97709721Y-69201774D01*
X97678905Y-69133996D01*
X97678904Y-69133995D01*
X97675984Y-69127572D01*
X97582400Y-69018963D01*
X97462095Y-68940985D01*
X97324739Y-68899907D01*
X97241497Y-68899398D01*
X97188427Y-68899074D01*
X97188426Y-68899074D01*
X97181376Y-68899031D01*
X97174599Y-68900968D01*
X97174598Y-68900968D01*
X97050309Y-68936490D01*
X97050307Y-68936491D01*
X97043529Y-68938428D01*
X96922280Y-69014930D01*
X96917613Y-69020214D01*
X96917611Y-69020216D01*
X96832044Y-69117103D01*
X96832042Y-69117105D01*
X96827377Y-69122388D01*
X96766447Y-69252163D01*
X96765362Y-69259132D01*
X96765361Y-69259135D01*
X96758672Y-69302098D01*
X96744391Y-69393823D01*
X88059234Y-69393823D01*
X88067813Y-69363404D01*
X88067814Y-69363401D01*
X88068810Y-69359868D01*
X88102573Y-69094469D01*
X88103256Y-69068390D01*
X88104982Y-69002492D01*
X88104982Y-69002487D01*
X88105047Y-69000000D01*
X88104863Y-68997527D01*
X88104863Y-68997517D01*
X88085492Y-68736851D01*
X88085491Y-68736845D01*
X88085220Y-68733197D01*
X88026175Y-68472255D01*
X88008674Y-68427250D01*
X87930539Y-68226326D01*
X87930537Y-68226321D01*
X87929209Y-68222907D01*
X87875544Y-68129012D01*
X87808775Y-68012192D01*
X87796452Y-67990631D01*
X87630820Y-67780528D01*
X87628147Y-67778014D01*
X87628142Y-67778008D01*
X87488288Y-67646447D01*
X87435953Y-67597215D01*
X87216131Y-67444719D01*
X86976183Y-67326390D01*
X86972686Y-67325271D01*
X86972682Y-67325269D01*
X86724882Y-67245948D01*
X86721380Y-67244827D01*
X86457320Y-67201822D01*
X86453656Y-67201774D01*
X86323563Y-67200071D01*
X86189805Y-67198320D01*
X86186177Y-67198814D01*
X86186173Y-67198814D01*
X86066317Y-67215126D01*
X85924710Y-67234398D01*
X85667859Y-67309263D01*
X85664523Y-67310801D01*
X85664520Y-67310802D01*
X85571177Y-67353834D01*
X85424896Y-67421270D01*
X85201157Y-67567960D01*
X85198425Y-67570399D01*
X85198423Y-67570400D01*
X85004299Y-67743662D01*
X85004295Y-67743666D01*
X85001558Y-67746109D01*
X84999211Y-67748931D01*
X84999209Y-67748933D01*
X84893214Y-67876378D01*
X84830483Y-67951804D01*
X84828579Y-67954941D01*
X84828578Y-67954943D01*
X84806922Y-67990631D01*
X84691691Y-68180526D01*
X84588231Y-68427250D01*
X84587327Y-68430811D01*
X84587326Y-68430813D01*
X84565544Y-68516583D01*
X84522376Y-68686557D01*
X84495572Y-68952749D01*
X82500000Y-68952749D01*
X82500000Y-64952749D01*
X93495572Y-64952749D01*
X93496199Y-64965795D01*
X93508408Y-65219980D01*
X93560602Y-65482378D01*
X93561842Y-65485833D01*
X93561843Y-65485835D01*
X93609066Y-65617362D01*
X93651008Y-65734179D01*
X93777639Y-65969851D01*
X93779839Y-65972797D01*
X93887598Y-66117103D01*
X93937714Y-66184217D01*
X94127716Y-66372569D01*
X94130675Y-66374739D01*
X94130679Y-66374742D01*
X94195461Y-66422242D01*
X94343471Y-66530767D01*
X94580239Y-66655337D01*
X94832819Y-66743542D01*
X94836419Y-66744226D01*
X94836421Y-66744226D01*
X95092054Y-66792759D01*
X95092056Y-66792759D01*
X95095663Y-66793444D01*
X95229329Y-66798695D01*
X95359325Y-66803803D01*
X95359328Y-66803803D01*
X95362995Y-66803947D01*
X95499613Y-66788985D01*
X95625303Y-66775220D01*
X95625306Y-66775219D01*
X95628944Y-66774821D01*
X95887666Y-66706705D01*
X96133478Y-66601096D01*
X96250636Y-66528597D01*
X96357854Y-66462249D01*
X96357859Y-66462245D01*
X96360980Y-66460314D01*
X96405953Y-66422242D01*
X96562374Y-66289821D01*
X96565174Y-66287451D01*
X96586998Y-66262566D01*
X96739149Y-66089071D01*
X96739153Y-66089066D01*
X96741575Y-66086304D01*
X96886306Y-65861294D01*
X96945127Y-65730717D01*
X96994681Y-65620710D01*
X96994682Y-65620708D01*
X96996189Y-65617362D01*
X97068810Y-65359868D01*
X97102573Y-65094469D01*
X97105047Y-65000000D01*
X97104863Y-64997527D01*
X97104863Y-64997517D01*
X97085492Y-64736851D01*
X97085491Y-64736845D01*
X97085220Y-64733197D01*
X97026175Y-64472255D01*
X97014108Y-64441224D01*
X96930539Y-64226326D01*
X96930537Y-64226321D01*
X96929209Y-64222907D01*
X96796452Y-63990631D01*
X96630820Y-63780528D01*
X96628147Y-63778014D01*
X96628142Y-63778008D01*
X96438625Y-63599729D01*
X96435953Y-63597215D01*
X96216131Y-63444719D01*
X95976183Y-63326390D01*
X95972686Y-63325271D01*
X95972682Y-63325269D01*
X95724882Y-63245948D01*
X95721380Y-63244827D01*
X95457320Y-63201822D01*
X95453656Y-63201774D01*
X95323562Y-63200071D01*
X95189805Y-63198320D01*
X95186177Y-63198814D01*
X95186173Y-63198814D01*
X95057257Y-63216359D01*
X94924710Y-63234398D01*
X94667859Y-63309263D01*
X94664523Y-63310801D01*
X94664520Y-63310802D01*
X94627178Y-63328017D01*
X94424896Y-63421270D01*
X94257754Y-63530853D01*
X94209708Y-63562354D01*
X94201157Y-63567960D01*
X94198425Y-63570399D01*
X94198423Y-63570400D01*
X94004299Y-63743662D01*
X94004295Y-63743666D01*
X94001558Y-63746109D01*
X93999211Y-63748931D01*
X93999209Y-63748933D01*
X93925148Y-63837982D01*
X93830483Y-63951804D01*
X93828579Y-63954941D01*
X93828578Y-63954943D01*
X93799687Y-64002554D01*
X93691691Y-64180526D01*
X93588231Y-64427250D01*
X93587327Y-64430811D01*
X93587326Y-64430813D01*
X93536897Y-64629381D01*
X93522376Y-64686557D01*
X93495572Y-64952749D01*
X82500000Y-64952749D01*
X82500000Y-44123851D01*
X82518907Y-44065660D01*
X82528996Y-44053847D01*
X84381802Y-42201041D01*
X85544212Y-42201041D01*
X85545059Y-42207474D01*
X85561315Y-42330946D01*
X85563115Y-42344620D01*
X85618534Y-42478414D01*
X85706694Y-42593306D01*
X85821585Y-42681466D01*
X85827579Y-42683949D01*
X85827583Y-42683951D01*
X85914159Y-42719811D01*
X85955380Y-42736885D01*
X85961809Y-42737731D01*
X85961811Y-42737732D01*
X86092526Y-42754941D01*
X86098959Y-42755788D01*
X86105392Y-42754941D01*
X86236107Y-42737732D01*
X86236109Y-42737731D01*
X86242538Y-42736885D01*
X86283759Y-42719811D01*
X86370335Y-42683951D01*
X86370339Y-42683949D01*
X86376333Y-42681466D01*
X86491224Y-42593306D01*
X86579384Y-42478414D01*
X86634803Y-42344620D01*
X86636604Y-42330946D01*
X86652859Y-42207474D01*
X86653706Y-42201041D01*
X86643832Y-42126041D01*
X86635650Y-42063893D01*
X86635649Y-42063891D01*
X86634803Y-42057462D01*
X86579384Y-41923668D01*
X86491224Y-41808776D01*
X86484869Y-41803899D01*
X86381482Y-41724567D01*
X86376333Y-41720616D01*
X86370339Y-41718133D01*
X86370335Y-41718131D01*
X86283759Y-41682271D01*
X86242538Y-41665197D01*
X86236109Y-41664351D01*
X86236107Y-41664350D01*
X86105392Y-41647141D01*
X86098959Y-41646294D01*
X86092526Y-41647141D01*
X85961811Y-41664350D01*
X85961809Y-41664351D01*
X85955380Y-41665197D01*
X85821586Y-41720616D01*
X85706694Y-41808776D01*
X85618534Y-41923668D01*
X85563115Y-42057462D01*
X85562269Y-42063891D01*
X85562268Y-42063893D01*
X85554086Y-42126041D01*
X85544212Y-42201041D01*
X84381802Y-42201041D01*
X85583884Y-40998959D01*
X86746296Y-40998959D01*
X86765198Y-41142538D01*
X86820618Y-41276331D01*
X86908777Y-41391223D01*
X87023668Y-41479382D01*
X87157462Y-41534802D01*
X87301041Y-41553704D01*
X87444620Y-41534802D01*
X87578414Y-41479382D01*
X87693305Y-41391223D01*
X87781464Y-41276331D01*
X87836884Y-41142538D01*
X87855786Y-40998959D01*
X87836884Y-40855380D01*
X87781464Y-40721587D01*
X87693305Y-40606695D01*
X87578414Y-40518536D01*
X87444620Y-40463116D01*
X87301041Y-40444214D01*
X87157462Y-40463116D01*
X87023669Y-40518536D01*
X86908777Y-40606695D01*
X86820618Y-40721587D01*
X86765198Y-40855380D01*
X86746296Y-40998959D01*
X85583884Y-40998959D01*
X87032843Y-39550000D01*
X108345254Y-39550000D01*
X108346101Y-39556433D01*
X108362357Y-39679904D01*
X108364157Y-39693579D01*
X108419576Y-39827373D01*
X108507735Y-39942265D01*
X108622627Y-40030424D01*
X108756421Y-40085843D01*
X108762850Y-40086689D01*
X108762852Y-40086690D01*
X108893567Y-40103899D01*
X108900000Y-40104746D01*
X108906433Y-40103899D01*
X109037148Y-40086690D01*
X109037150Y-40086689D01*
X109043579Y-40085843D01*
X109177373Y-40030424D01*
X109292265Y-39942265D01*
X109380424Y-39827373D01*
X109435843Y-39693579D01*
X109437644Y-39679904D01*
X109453899Y-39556433D01*
X109454746Y-39550000D01*
X109444872Y-39475000D01*
X109436690Y-39412852D01*
X109436689Y-39412850D01*
X109435843Y-39406421D01*
X109380424Y-39272627D01*
X109292265Y-39157735D01*
X109177373Y-39069576D01*
X109043579Y-39014157D01*
X109037150Y-39013311D01*
X109037148Y-39013310D01*
X108906433Y-38996101D01*
X108900000Y-38995254D01*
X108893567Y-38996101D01*
X108762852Y-39013310D01*
X108762850Y-39013311D01*
X108756421Y-39014157D01*
X108622627Y-39069576D01*
X108507735Y-39157735D01*
X108419576Y-39272627D01*
X108364157Y-39406421D01*
X108363311Y-39412850D01*
X108363310Y-39412852D01*
X108355128Y-39475000D01*
X108345254Y-39550000D01*
X87032843Y-39550000D01*
X90981802Y-35601041D01*
X92144212Y-35601041D01*
X92145059Y-35607474D01*
X92161315Y-35730946D01*
X92163115Y-35744620D01*
X92218534Y-35878414D01*
X92306694Y-35993306D01*
X92421585Y-36081466D01*
X92427579Y-36083949D01*
X92427583Y-36083951D01*
X92514159Y-36119811D01*
X92555380Y-36136885D01*
X92561809Y-36137731D01*
X92561811Y-36137732D01*
X92692526Y-36154941D01*
X92698959Y-36155788D01*
X92705392Y-36154941D01*
X92836107Y-36137732D01*
X92836109Y-36137731D01*
X92842538Y-36136885D01*
X92883759Y-36119811D01*
X92970335Y-36083951D01*
X92970339Y-36083949D01*
X92976333Y-36081466D01*
X93091224Y-35993306D01*
X93179384Y-35878414D01*
X93234803Y-35744620D01*
X93236604Y-35730946D01*
X93252859Y-35607474D01*
X93253706Y-35601041D01*
X93243832Y-35526041D01*
X93235650Y-35463893D01*
X93235649Y-35463891D01*
X93234803Y-35457462D01*
X93179384Y-35323668D01*
X93091224Y-35208776D01*
X92976333Y-35120616D01*
X92970339Y-35118133D01*
X92970335Y-35118131D01*
X92883759Y-35082271D01*
X92842538Y-35065197D01*
X92836109Y-35064351D01*
X92836107Y-35064350D01*
X92705392Y-35047141D01*
X92698959Y-35046294D01*
X92692526Y-35047141D01*
X92561811Y-35064350D01*
X92561809Y-35064351D01*
X92555380Y-35065197D01*
X92421586Y-35120616D01*
X92306694Y-35208776D01*
X92218534Y-35323668D01*
X92163115Y-35457462D01*
X92162269Y-35463891D01*
X92162268Y-35463893D01*
X92154086Y-35526041D01*
X92144212Y-35601041D01*
X90981802Y-35601041D01*
X92183884Y-34398959D01*
X93346296Y-34398959D01*
X93365198Y-34542538D01*
X93420618Y-34676331D01*
X93508777Y-34791223D01*
X93623668Y-34879382D01*
X93757462Y-34934802D01*
X93901041Y-34953704D01*
X94044620Y-34934802D01*
X94178414Y-34879382D01*
X94293305Y-34791223D01*
X94381464Y-34676331D01*
X94436884Y-34542538D01*
X94455786Y-34398959D01*
X94436884Y-34255380D01*
X94381464Y-34121587D01*
X94293305Y-34006695D01*
X94178414Y-33918536D01*
X94044620Y-33863116D01*
X93901041Y-33844214D01*
X93757462Y-33863116D01*
X93623669Y-33918536D01*
X93508777Y-34006695D01*
X93420618Y-34121587D01*
X93365198Y-34255380D01*
X93346296Y-34398959D01*
X92183884Y-34398959D01*
X96353847Y-30228996D01*
X96408364Y-30201219D01*
X96423851Y-30200000D01*
X109266040Y-30200000D01*
X109288227Y-30202518D01*
G37*
G04 #@! TD.AperFunction*
G04 #@! TA.AperFunction,Conductor*
G36*
X107225283Y-74082114D02*
G01*
X107239183Y-74098650D01*
X107262970Y-74126948D01*
X107382313Y-74206390D01*
X107467373Y-74232964D01*
X107512425Y-74247039D01*
X107512426Y-74247039D01*
X107519157Y-74249142D01*
X107590828Y-74250456D01*
X107655445Y-74251641D01*
X107655447Y-74251641D01*
X107662499Y-74251770D01*
X107669302Y-74249915D01*
X107669304Y-74249915D01*
X107764354Y-74224001D01*
X107800817Y-74214060D01*
X107898700Y-74153960D01*
X107958181Y-74139624D01*
X108014729Y-74162990D01*
X108046744Y-74215131D01*
X108049500Y-74238326D01*
X108049500Y-74634521D01*
X108030593Y-74692712D01*
X108020509Y-74704519D01*
X107952366Y-74772663D01*
X107909252Y-74815777D01*
X107854735Y-74843554D01*
X107810882Y-74840622D01*
X107690181Y-74804525D01*
X107674739Y-74799907D01*
X107591497Y-74799398D01*
X107538427Y-74799074D01*
X107538426Y-74799074D01*
X107531376Y-74799031D01*
X107524599Y-74800968D01*
X107524598Y-74800968D01*
X107400309Y-74836490D01*
X107400307Y-74836491D01*
X107393529Y-74838428D01*
X107272280Y-74914930D01*
X107223703Y-74969934D01*
X107171012Y-75001033D01*
X107110103Y-74995221D01*
X107064243Y-74954719D01*
X107050500Y-74904398D01*
X107050500Y-74145816D01*
X107069407Y-74087625D01*
X107118907Y-74051661D01*
X107180093Y-74051661D01*
X107225283Y-74082114D01*
G37*
G04 #@! TD.AperFunction*
M02*
