G04 #@! TF.GenerationSoftware,KiCad,Pcbnew,(6.0.1-0)*
G04 #@! TF.CreationDate,2022-12-09T09:44:16-05:00*
G04 #@! TF.ProjectId,mobo,6d6f626f-2e6b-4696-9361-645f70636258,rev?*
G04 #@! TF.SameCoordinates,Original*
G04 #@! TF.FileFunction,Legend,Bot*
G04 #@! TF.FilePolarity,Positive*
%FSLAX46Y46*%
G04 Gerber Fmt 4.6, Leading zero omitted, Abs format (unit mm)*
G04 Created by KiCad (PCBNEW (6.0.1-0)) date 2022-12-09 09:44:16*
%MOMM*%
%LPD*%
G01*
G04 APERTURE LIST*
%ADD10C,0.120000*%
%ADD11C,0.100000*%
%ADD12C,0.150000*%
G04 APERTURE END LIST*
D10*
X127300000Y-79000000D02*
G75*
G03*
X127300000Y-79000000I-3000000J0D01*
G01*
X89300000Y-78000000D02*
G75*
G03*
X89300000Y-78000000I-3000000J0D01*
G01*
X90800000Y-113000000D02*
G75*
G03*
X90800000Y-113000000I-3000000J0D01*
G01*
X90800000Y-101000000D02*
G75*
G03*
X90800000Y-101000000I-3000000J0D01*
G01*
X89300000Y-69000000D02*
G75*
G03*
X89300000Y-69000000I-3000000J0D01*
G01*
X127300000Y-60500000D02*
G75*
G03*
X127300000Y-60500000I-3000000J0D01*
G01*
X98300000Y-65000000D02*
G75*
G03*
X98300000Y-65000000I-3000000J0D01*
G01*
D11*
X98678571Y-95302380D02*
X98607142Y-95326190D01*
X98488095Y-95326190D01*
X98440476Y-95302380D01*
X98416666Y-95278571D01*
X98392857Y-95230952D01*
X98392857Y-95183333D01*
X98416666Y-95135714D01*
X98440476Y-95111904D01*
X98488095Y-95088095D01*
X98583333Y-95064285D01*
X98630952Y-95040476D01*
X98654761Y-95016666D01*
X98678571Y-94969047D01*
X98678571Y-94921428D01*
X98654761Y-94873809D01*
X98630952Y-94850000D01*
X98583333Y-94826190D01*
X98464285Y-94826190D01*
X98392857Y-94850000D01*
X98226190Y-94826190D02*
X98107142Y-95326190D01*
X98011904Y-94969047D01*
X97916666Y-95326190D01*
X97797619Y-94826190D01*
X97607142Y-95326190D02*
X97607142Y-94826190D01*
X97488095Y-94826190D01*
X97416666Y-94850000D01*
X97369047Y-94897619D01*
X97345238Y-94945238D01*
X97321428Y-95040476D01*
X97321428Y-95111904D01*
X97345238Y-95207142D01*
X97369047Y-95254761D01*
X97416666Y-95302380D01*
X97488095Y-95326190D01*
X97607142Y-95326190D01*
D12*
X123573928Y-46697380D02*
X123383452Y-46697380D01*
X123288214Y-46745000D01*
X123192976Y-46840238D01*
X123145357Y-47030714D01*
X123145357Y-47364047D01*
X123192976Y-47554523D01*
X123288214Y-47649761D01*
X123383452Y-47697380D01*
X123573928Y-47697380D01*
X123669166Y-47649761D01*
X123764404Y-47554523D01*
X123812023Y-47364047D01*
X123812023Y-47030714D01*
X123764404Y-46840238D01*
X123669166Y-46745000D01*
X123573928Y-46697380D01*
X122716785Y-47030714D02*
X122716785Y-48030714D01*
X122716785Y-47078333D02*
X122621547Y-47030714D01*
X122431071Y-47030714D01*
X122335833Y-47078333D01*
X122288214Y-47125952D01*
X122240595Y-47221190D01*
X122240595Y-47506904D01*
X122288214Y-47602142D01*
X122335833Y-47649761D01*
X122431071Y-47697380D01*
X122621547Y-47697380D01*
X122716785Y-47649761D01*
X121383452Y-47030714D02*
X121383452Y-47697380D01*
X121812023Y-47030714D02*
X121812023Y-47554523D01*
X121764404Y-47649761D01*
X121669166Y-47697380D01*
X121526309Y-47697380D01*
X121431071Y-47649761D01*
X121383452Y-47602142D01*
X120764404Y-47697380D02*
X120859642Y-47649761D01*
X120907261Y-47554523D01*
X120907261Y-46697380D01*
X120240595Y-47697380D02*
X120335833Y-47649761D01*
X120383452Y-47602142D01*
X120431071Y-47506904D01*
X120431071Y-47221190D01*
X120383452Y-47125952D01*
X120335833Y-47078333D01*
X120240595Y-47030714D01*
X120097738Y-47030714D01*
X120002500Y-47078333D01*
X119954880Y-47125952D01*
X119907261Y-47221190D01*
X119907261Y-47506904D01*
X119954880Y-47602142D01*
X120002500Y-47649761D01*
X120097738Y-47697380D01*
X120240595Y-47697380D01*
X118383452Y-47173571D02*
X118716785Y-47173571D01*
X118716785Y-47697380D02*
X118716785Y-46697380D01*
X118240595Y-46697380D01*
X117478690Y-47649761D02*
X117573928Y-47697380D01*
X117764404Y-47697380D01*
X117859642Y-47649761D01*
X117907261Y-47554523D01*
X117907261Y-47173571D01*
X117859642Y-47078333D01*
X117764404Y-47030714D01*
X117573928Y-47030714D01*
X117478690Y-47078333D01*
X117431071Y-47173571D01*
X117431071Y-47268809D01*
X117907261Y-47364047D01*
X116621547Y-47649761D02*
X116716785Y-47697380D01*
X116907261Y-47697380D01*
X117002500Y-47649761D01*
X117050119Y-47554523D01*
X117050119Y-47173571D01*
X117002500Y-47078333D01*
X116907261Y-47030714D01*
X116716785Y-47030714D01*
X116621547Y-47078333D01*
X116573928Y-47173571D01*
X116573928Y-47268809D01*
X117050119Y-47364047D01*
X115716785Y-47697380D02*
X115716785Y-46697380D01*
X115716785Y-47649761D02*
X115812023Y-47697380D01*
X116002500Y-47697380D01*
X116097738Y-47649761D01*
X116145357Y-47602142D01*
X116192976Y-47506904D01*
X116192976Y-47221190D01*
X116145357Y-47125952D01*
X116097738Y-47078333D01*
X116002500Y-47030714D01*
X115812023Y-47030714D01*
X115716785Y-47078333D01*
X114859642Y-47649761D02*
X114954880Y-47697380D01*
X115145357Y-47697380D01*
X115240595Y-47649761D01*
X115288214Y-47554523D01*
X115288214Y-47173571D01*
X115240595Y-47078333D01*
X115145357Y-47030714D01*
X114954880Y-47030714D01*
X114859642Y-47078333D01*
X114812023Y-47173571D01*
X114812023Y-47268809D01*
X115288214Y-47364047D01*
X114383452Y-47697380D02*
X114383452Y-47030714D01*
X114383452Y-47221190D02*
X114335833Y-47125952D01*
X114288214Y-47078333D01*
X114192976Y-47030714D01*
X114097738Y-47030714D01*
X123192976Y-49307380D02*
X123526309Y-48831190D01*
X123764404Y-49307380D02*
X123764404Y-48307380D01*
X123383452Y-48307380D01*
X123288214Y-48355000D01*
X123240595Y-48402619D01*
X123192976Y-48497857D01*
X123192976Y-48640714D01*
X123240595Y-48735952D01*
X123288214Y-48783571D01*
X123383452Y-48831190D01*
X123764404Y-48831190D01*
X122764404Y-48783571D02*
X122431071Y-48783571D01*
X122288214Y-49307380D02*
X122764404Y-49307380D01*
X122764404Y-48307380D01*
X122288214Y-48307380D01*
X122002500Y-48307380D02*
X121669166Y-49307380D01*
X121335833Y-48307380D01*
X120812023Y-48307380D02*
X120716785Y-48307380D01*
X120621547Y-48355000D01*
X120573928Y-48402619D01*
X120526309Y-48497857D01*
X120478690Y-48688333D01*
X120478690Y-48926428D01*
X120526309Y-49116904D01*
X120573928Y-49212142D01*
X120621547Y-49259761D01*
X120716785Y-49307380D01*
X120812023Y-49307380D01*
X120907261Y-49259761D01*
X120954880Y-49212142D01*
X121002500Y-49116904D01*
X121050119Y-48926428D01*
X121050119Y-48688333D01*
X121002500Y-48497857D01*
X120954880Y-48402619D01*
X120907261Y-48355000D01*
X120812023Y-48307380D01*
X120002500Y-49307380D02*
X119812023Y-49307380D01*
X119716785Y-49259761D01*
X119669166Y-49212142D01*
X119573928Y-49069285D01*
X119526309Y-48878809D01*
X119526309Y-48497857D01*
X119573928Y-48402619D01*
X119621547Y-48355000D01*
X119716785Y-48307380D01*
X119907261Y-48307380D01*
X120002500Y-48355000D01*
X120050119Y-48402619D01*
X120097738Y-48497857D01*
X120097738Y-48735952D01*
X120050119Y-48831190D01*
X120002500Y-48878809D01*
X119907261Y-48926428D01*
X119716785Y-48926428D01*
X119621547Y-48878809D01*
X119573928Y-48831190D01*
X119526309Y-48735952D01*
D10*
X101235000Y-89535000D02*
X101235000Y-93065000D01*
X94830000Y-88210000D02*
X94830000Y-89535000D01*
X94765000Y-89535000D02*
X94765000Y-93065000D01*
X94765000Y-89535000D02*
X94830000Y-89535000D01*
X101170000Y-93065000D02*
X101235000Y-93065000D01*
X94765000Y-93065000D02*
X94830000Y-93065000D01*
X101170000Y-89535000D02*
X101235000Y-89535000D01*
M02*
