M48
INCH,TZ
T1C0.0118
T2C0.0157
T3C0.0394
%
G90
G05
T1
X36220Y-29252
X36220Y-29646
X36220Y-30000
X36220Y-30394
X36220Y-30748
X36220Y-31142
X36339Y-27087
X36339Y-27638
X36339Y-28031
X36339Y-28465
X36339Y-28878
X36752Y-31457
X37579Y-35945
X37638Y-32717
X37913Y-30217
X37953Y-30551
X37953Y-30925
X37972Y-28858
X37972Y-29193
X37972Y-29528
X37972Y-29882
X38031Y-32717
X38031Y-33504
X38031Y-42638
X38031Y-42972
X38031Y-43327
X38031Y-43661
X38071Y-35945
X38071Y-39843
X38071Y-40157
X38071Y-40472
X38071Y-40787
X38287Y-27323
X38406Y-26831
X38425Y-32717
X38976Y-14921
X39291Y-27972
X39528Y-18150
X39587Y-35945
X39646Y-25630
X39646Y-32244
X39744Y-27854
X39803Y-30610
X39882Y-32480
X40055Y-27795
X40059Y-35118
X40157Y-43268
X40197Y-32480
X40197Y-42244
X40197Y-42598
X40512Y-32480
X40591Y-42244
X40591Y-42598
X40630Y-18150
X40714Y-27913
X40827Y-32480
X41337Y-29346
X41535Y-25630
X41555Y-32244
X41575Y-18110
X41850Y-31654
X41929Y-33091
X41969Y-42717
X42205Y-27835
X42205Y-32835
X42244Y-41476
X42283Y-33189
X42283Y-42874
X42303Y-31398
X42303Y-43898
X42323Y-15906
X42362Y-29035
X42362Y-29331
X42362Y-29646
X42402Y-36043
X42402Y-36496
X42402Y-36949
X42402Y-37402
X42598Y-25866
X42677Y-31339
X42716Y-30832
X42736Y-30241
X42756Y-26850
X42972Y-29232
X42972Y-30026
X42972Y-31024
X42992Y-24429
X43327Y-24744
X43524Y-40591
X43622Y-24449
X43681Y-29606
X43898Y-37126
X43898Y-37756
X43917Y-28524
X43937Y-43268
X44016Y-35157
X44193Y-27402
X44193Y-37441
X44311Y-35394
X44311Y-39331
X44311Y-39902
X44311Y-40531
X44311Y-41142
X44311Y-41811
X44528Y-25020
X44587Y-35157
X44902Y-42480
X44921Y-39980
X45059Y-40295
X45157Y-37559
X45217Y-39980
X45276Y-35276
X45374Y-40295
X45472Y-28819
X45512Y-39980
X45531Y-37343
X45591Y-37717
X45728Y-42126
X45748Y-28150
X45787Y-28819
X45906Y-35295
X46063Y-37913
X46181Y-28425
X46220Y-28819
X46220Y-40315
X46476Y-35276
X46752Y-28780
X46752Y-28445
X46752Y-29094
X47185Y-37815
X47323Y-27913
X47323Y-46161
X47520Y-45866
X47539Y-37815
X47579Y-46614
X47795Y-26969
X47854Y-44350
X47992Y-43996
X48150Y-25827
X48150Y-26220
X48150Y-26535
X48307Y-43858
X48445Y-44961
X48504Y-45866
X48681Y-41496
X48681Y-43957
X48740Y-46614
X48760Y-39823
X48780Y-38327
X48780Y-44685
X48898Y-46161
X48976Y-44331
X49114Y-37835
X49134Y-41496
X49331Y-26142
X49331Y-26614
X49331Y-27087
X49409Y-37421
X49547Y-41949
X50472Y-25630
X50472Y-25945
X50472Y-27323
X50512Y-41575
X50669Y-42146
X50709Y-27106
X50748Y-41280
X51122Y-42461
X51319Y-41181
X51693Y-42461
X51791Y-41496
X51909Y-42146
T2
X40182Y-30103
X40182Y-30537
X40615Y-30103
X40615Y-30537
T3
X41417Y-46063
X42417Y-46063
X43417Y-46063
X44417Y-46063
X45417Y-46063
X46417Y-46063
T0
M30
