G04 #@! TF.GenerationSoftware,KiCad,Pcbnew,(6.0.1-0)*
G04 #@! TF.CreationDate,2022-12-09T09:44:15-05:00*
G04 #@! TF.ProjectId,mobo,6d6f626f-2e6b-4696-9361-645f70636258,rev?*
G04 #@! TF.SameCoordinates,Original*
G04 #@! TF.FileFunction,Legend,Top*
G04 #@! TF.FilePolarity,Positive*
%FSLAX46Y46*%
G04 Gerber Fmt 4.6, Leading zero omitted, Abs format (unit mm)*
G04 Created by KiCad (PCBNEW (6.0.1-0)) date 2022-12-09 09:44:15*
%MOMM*%
%LPD*%
G01*
G04 APERTURE LIST*
%ADD10C,0.120000*%
%ADD11C,0.150000*%
%ADD12C,0.300000*%
%ADD13C,0.200000*%
%ADD14C,0.100000*%
G04 APERTURE END LIST*
D10*
X94300000Y-96000000D02*
X131000000Y-96000000D01*
X124300000Y-63000000D02*
G75*
G03*
X126800000Y-60500000I0J2500000D01*
G01*
X130600000Y-99000000D02*
X131000000Y-99000000D01*
X124800000Y-73500000D02*
X122400000Y-73500000D01*
X97800000Y-63000000D02*
X97800000Y-65000000D01*
X127700000Y-60500000D02*
X126800000Y-60500000D01*
X95300000Y-67500000D02*
G75*
G03*
X97800000Y-65000000I0J2500000D01*
G01*
X92300000Y-82000000D02*
X92300000Y-67500000D01*
X94300000Y-116000000D02*
X94300000Y-96000000D01*
X104300000Y-96000000D02*
X112300000Y-96000000D01*
X95300000Y-67500000D02*
X92300000Y-67500000D01*
X120300000Y-82000000D02*
X92300000Y-82000000D01*
X124300000Y-63000000D02*
X97800000Y-63000000D01*
X120300000Y-82000000D02*
X120300000Y-73700000D01*
X130600000Y-79000000D02*
X130950000Y-79000000D01*
D11*
X114328571Y-81552380D02*
X114328571Y-80552380D01*
X114709523Y-80552380D01*
X114804761Y-80600000D01*
X114852380Y-80647619D01*
X114900000Y-80742857D01*
X114900000Y-80885714D01*
X114852380Y-80980952D01*
X114804761Y-81028571D01*
X114709523Y-81076190D01*
X114328571Y-81076190D01*
X115328571Y-81028571D02*
X115661904Y-81028571D01*
X115804761Y-81552380D02*
X115328571Y-81552380D01*
X115328571Y-80552380D01*
X115804761Y-80552380D01*
X116233333Y-81028571D02*
X116566666Y-81028571D01*
X116709523Y-81552380D02*
X116233333Y-81552380D01*
X116233333Y-80552380D01*
X116709523Y-80552380D01*
X117614285Y-81552380D02*
X117138095Y-81552380D01*
X117138095Y-80552380D01*
D12*
X112202142Y-46077857D02*
X111702142Y-46077857D01*
X111702142Y-46863571D02*
X111702142Y-45363571D01*
X112416428Y-45363571D01*
X113559285Y-46792142D02*
X113416428Y-46863571D01*
X113130714Y-46863571D01*
X112987857Y-46792142D01*
X112916428Y-46649285D01*
X112916428Y-46077857D01*
X112987857Y-45935000D01*
X113130714Y-45863571D01*
X113416428Y-45863571D01*
X113559285Y-45935000D01*
X113630714Y-46077857D01*
X113630714Y-46220714D01*
X112916428Y-46363571D01*
X114845000Y-46792142D02*
X114702142Y-46863571D01*
X114416428Y-46863571D01*
X114273571Y-46792142D01*
X114202142Y-46649285D01*
X114202142Y-46077857D01*
X114273571Y-45935000D01*
X114416428Y-45863571D01*
X114702142Y-45863571D01*
X114845000Y-45935000D01*
X114916428Y-46077857D01*
X114916428Y-46220714D01*
X114202142Y-46363571D01*
X116202142Y-46863571D02*
X116202142Y-45363571D01*
X116202142Y-46792142D02*
X116059285Y-46863571D01*
X115773571Y-46863571D01*
X115630714Y-46792142D01*
X115559285Y-46720714D01*
X115487857Y-46577857D01*
X115487857Y-46149285D01*
X115559285Y-46006428D01*
X115630714Y-45935000D01*
X115773571Y-45863571D01*
X116059285Y-45863571D01*
X116202142Y-45935000D01*
X117487857Y-46792142D02*
X117345000Y-46863571D01*
X117059285Y-46863571D01*
X116916428Y-46792142D01*
X116845000Y-46649285D01*
X116845000Y-46077857D01*
X116916428Y-45935000D01*
X117059285Y-45863571D01*
X117345000Y-45863571D01*
X117487857Y-45935000D01*
X117559285Y-46077857D01*
X117559285Y-46220714D01*
X116845000Y-46363571D01*
X118202142Y-46863571D02*
X118202142Y-45863571D01*
X118202142Y-46149285D02*
X118273571Y-46006428D01*
X118345000Y-45935000D01*
X118487857Y-45863571D01*
X118630714Y-45863571D01*
X121130714Y-46720714D02*
X121059285Y-46792142D01*
X120845000Y-46863571D01*
X120702142Y-46863571D01*
X120487857Y-46792142D01*
X120345000Y-46649285D01*
X120273571Y-46506428D01*
X120202142Y-46220714D01*
X120202142Y-46006428D01*
X120273571Y-45720714D01*
X120345000Y-45577857D01*
X120487857Y-45435000D01*
X120702142Y-45363571D01*
X120845000Y-45363571D01*
X121059285Y-45435000D01*
X121130714Y-45506428D01*
X121987857Y-46863571D02*
X121845000Y-46792142D01*
X121773571Y-46720714D01*
X121702142Y-46577857D01*
X121702142Y-46149285D01*
X121773571Y-46006428D01*
X121845000Y-45935000D01*
X121987857Y-45863571D01*
X122202142Y-45863571D01*
X122345000Y-45935000D01*
X122416428Y-46006428D01*
X122487857Y-46149285D01*
X122487857Y-46577857D01*
X122416428Y-46720714D01*
X122345000Y-46792142D01*
X122202142Y-46863571D01*
X121987857Y-46863571D01*
X123130714Y-45863571D02*
X123130714Y-46863571D01*
X123130714Y-46006428D02*
X123202142Y-45935000D01*
X123345000Y-45863571D01*
X123559285Y-45863571D01*
X123702142Y-45935000D01*
X123773571Y-46077857D01*
X123773571Y-46863571D01*
X124273571Y-45863571D02*
X124845000Y-45863571D01*
X124487857Y-45363571D02*
X124487857Y-46649285D01*
X124559285Y-46792142D01*
X124702142Y-46863571D01*
X124845000Y-46863571D01*
X125345000Y-46863571D02*
X125345000Y-45863571D01*
X125345000Y-46149285D02*
X125416428Y-46006428D01*
X125487857Y-45935000D01*
X125630714Y-45863571D01*
X125773571Y-45863571D01*
X126487857Y-46863571D02*
X126345000Y-46792142D01*
X126273571Y-46720714D01*
X126202142Y-46577857D01*
X126202142Y-46149285D01*
X126273571Y-46006428D01*
X126345000Y-45935000D01*
X126487857Y-45863571D01*
X126702142Y-45863571D01*
X126845000Y-45935000D01*
X126916428Y-46006428D01*
X126987857Y-46149285D01*
X126987857Y-46577857D01*
X126916428Y-46720714D01*
X126845000Y-46792142D01*
X126702142Y-46863571D01*
X126487857Y-46863571D01*
X127845000Y-46863571D02*
X127702142Y-46792142D01*
X127630714Y-46649285D01*
X127630714Y-45363571D01*
X128630714Y-46863571D02*
X128487857Y-46792142D01*
X128416428Y-46649285D01*
X128416428Y-45363571D01*
X129773571Y-46792142D02*
X129630714Y-46863571D01*
X129345000Y-46863571D01*
X129202142Y-46792142D01*
X129130714Y-46649285D01*
X129130714Y-46077857D01*
X129202142Y-45935000D01*
X129345000Y-45863571D01*
X129630714Y-45863571D01*
X129773571Y-45935000D01*
X129845000Y-46077857D01*
X129845000Y-46220714D01*
X129130714Y-46363571D01*
X130487857Y-46863571D02*
X130487857Y-45863571D01*
X130487857Y-46149285D02*
X130559285Y-46006428D01*
X130630714Y-45935000D01*
X130773571Y-45863571D01*
X130916428Y-45863571D01*
X112559285Y-49278571D02*
X112059285Y-48564285D01*
X111702142Y-49278571D02*
X111702142Y-47778571D01*
X112273571Y-47778571D01*
X112416428Y-47850000D01*
X112487857Y-47921428D01*
X112559285Y-48064285D01*
X112559285Y-48278571D01*
X112487857Y-48421428D01*
X112416428Y-48492857D01*
X112273571Y-48564285D01*
X111702142Y-48564285D01*
X113202142Y-48492857D02*
X113702142Y-48492857D01*
X113916428Y-49278571D02*
X113202142Y-49278571D01*
X113202142Y-47778571D01*
X113916428Y-47778571D01*
X114345000Y-47778571D02*
X114845000Y-49278571D01*
X115345000Y-47778571D01*
X116130714Y-47778571D02*
X116273571Y-47778571D01*
X116416428Y-47850000D01*
X116487857Y-47921428D01*
X116559285Y-48064285D01*
X116630714Y-48350000D01*
X116630714Y-48707142D01*
X116559285Y-48992857D01*
X116487857Y-49135714D01*
X116416428Y-49207142D01*
X116273571Y-49278571D01*
X116130714Y-49278571D01*
X115987857Y-49207142D01*
X115916428Y-49135714D01*
X115845000Y-48992857D01*
X115773571Y-48707142D01*
X115773571Y-48350000D01*
X115845000Y-48064285D01*
X115916428Y-47921428D01*
X115987857Y-47850000D01*
X116130714Y-47778571D01*
X117345000Y-49278571D02*
X117630714Y-49278571D01*
X117773571Y-49207142D01*
X117845000Y-49135714D01*
X117987857Y-48921428D01*
X118059285Y-48635714D01*
X118059285Y-48064285D01*
X117987857Y-47921428D01*
X117916428Y-47850000D01*
X117773571Y-47778571D01*
X117487857Y-47778571D01*
X117345000Y-47850000D01*
X117273571Y-47921428D01*
X117202142Y-48064285D01*
X117202142Y-48421428D01*
X117273571Y-48564285D01*
X117345000Y-48635714D01*
X117487857Y-48707142D01*
X117773571Y-48707142D01*
X117916428Y-48635714D01*
X117987857Y-48564285D01*
X118059285Y-48421428D01*
X111987857Y-50193571D02*
X112273571Y-50193571D01*
X112416428Y-50265000D01*
X112559285Y-50407857D01*
X112630714Y-50693571D01*
X112630714Y-51193571D01*
X112559285Y-51479285D01*
X112416428Y-51622142D01*
X112273571Y-51693571D01*
X111987857Y-51693571D01*
X111845000Y-51622142D01*
X111702142Y-51479285D01*
X111630714Y-51193571D01*
X111630714Y-50693571D01*
X111702142Y-50407857D01*
X111845000Y-50265000D01*
X111987857Y-50193571D01*
X113273571Y-50693571D02*
X113273571Y-52193571D01*
X113273571Y-50765000D02*
X113416428Y-50693571D01*
X113702142Y-50693571D01*
X113845000Y-50765000D01*
X113916428Y-50836428D01*
X113987857Y-50979285D01*
X113987857Y-51407857D01*
X113916428Y-51550714D01*
X113845000Y-51622142D01*
X113702142Y-51693571D01*
X113416428Y-51693571D01*
X113273571Y-51622142D01*
X115273571Y-50693571D02*
X115273571Y-51693571D01*
X114630714Y-50693571D02*
X114630714Y-51479285D01*
X114702142Y-51622142D01*
X114845000Y-51693571D01*
X115059285Y-51693571D01*
X115202142Y-51622142D01*
X115273571Y-51550714D01*
X116202142Y-51693571D02*
X116059285Y-51622142D01*
X115987857Y-51479285D01*
X115987857Y-50193571D01*
X116987857Y-51693571D02*
X116845000Y-51622142D01*
X116773571Y-51550714D01*
X116702142Y-51407857D01*
X116702142Y-50979285D01*
X116773571Y-50836428D01*
X116845000Y-50765000D01*
X116987857Y-50693571D01*
X117202142Y-50693571D01*
X117345000Y-50765000D01*
X117416428Y-50836428D01*
X117487857Y-50979285D01*
X117487857Y-51407857D01*
X117416428Y-51550714D01*
X117345000Y-51622142D01*
X117202142Y-51693571D01*
X116987857Y-51693571D01*
X119273571Y-51693571D02*
X119273571Y-50193571D01*
X119987857Y-50693571D02*
X119987857Y-51693571D01*
X119987857Y-50836428D02*
X120059285Y-50765000D01*
X120202142Y-50693571D01*
X120416428Y-50693571D01*
X120559285Y-50765000D01*
X120630714Y-50907857D01*
X120630714Y-51693571D01*
X121987857Y-51622142D02*
X121845000Y-51693571D01*
X121559285Y-51693571D01*
X121416428Y-51622142D01*
X121345000Y-51550714D01*
X121273571Y-51407857D01*
X121273571Y-50979285D01*
X121345000Y-50836428D01*
X121416428Y-50765000D01*
X121559285Y-50693571D01*
X121845000Y-50693571D01*
X121987857Y-50765000D01*
X122630714Y-51550714D02*
X122702142Y-51622142D01*
X122630714Y-51693571D01*
X122559285Y-51622142D01*
X122630714Y-51550714D01*
X122630714Y-51693571D01*
D13*
X106592857Y-44028571D02*
X106735714Y-44076190D01*
X106783333Y-44123809D01*
X106830952Y-44219047D01*
X106830952Y-44361904D01*
X106783333Y-44457142D01*
X106735714Y-44504761D01*
X106640476Y-44552380D01*
X106259523Y-44552380D01*
X106259523Y-43552380D01*
X106592857Y-43552380D01*
X106688095Y-43600000D01*
X106735714Y-43647619D01*
X106783333Y-43742857D01*
X106783333Y-43838095D01*
X106735714Y-43933333D01*
X106688095Y-43980952D01*
X106592857Y-44028571D01*
X106259523Y-44028571D01*
X107450000Y-43552380D02*
X107640476Y-43552380D01*
X107735714Y-43600000D01*
X107830952Y-43695238D01*
X107878571Y-43885714D01*
X107878571Y-44219047D01*
X107830952Y-44409523D01*
X107735714Y-44504761D01*
X107640476Y-44552380D01*
X107450000Y-44552380D01*
X107354761Y-44504761D01*
X107259523Y-44409523D01*
X107211904Y-44219047D01*
X107211904Y-43885714D01*
X107259523Y-43695238D01*
X107354761Y-43600000D01*
X107450000Y-43552380D01*
X108497619Y-43552380D02*
X108688095Y-43552380D01*
X108783333Y-43600000D01*
X108878571Y-43695238D01*
X108926190Y-43885714D01*
X108926190Y-44219047D01*
X108878571Y-44409523D01*
X108783333Y-44504761D01*
X108688095Y-44552380D01*
X108497619Y-44552380D01*
X108402380Y-44504761D01*
X108307142Y-44409523D01*
X108259523Y-44219047D01*
X108259523Y-43885714D01*
X108307142Y-43695238D01*
X108402380Y-43600000D01*
X108497619Y-43552380D01*
X109211904Y-43552380D02*
X109783333Y-43552380D01*
X109497619Y-44552380D02*
X109497619Y-43552380D01*
D11*
X131252380Y-68880952D02*
X130252380Y-68880952D01*
X130252380Y-68642857D01*
X130300000Y-68500000D01*
X130395238Y-68404761D01*
X130490476Y-68357142D01*
X130680952Y-68309523D01*
X130823809Y-68309523D01*
X131014285Y-68357142D01*
X131109523Y-68404761D01*
X131204761Y-68500000D01*
X131252380Y-68642857D01*
X131252380Y-68880952D01*
X131252380Y-67309523D02*
X130776190Y-67642857D01*
X131252380Y-67880952D02*
X130252380Y-67880952D01*
X130252380Y-67500000D01*
X130300000Y-67404761D01*
X130347619Y-67357142D01*
X130442857Y-67309523D01*
X130585714Y-67309523D01*
X130680952Y-67357142D01*
X130728571Y-67404761D01*
X130776190Y-67500000D01*
X130776190Y-67880952D01*
X131252380Y-66880952D02*
X130252380Y-66880952D01*
X130252380Y-66547619D02*
X131252380Y-66214285D01*
X130252380Y-65880952D01*
X130728571Y-65547619D02*
X130728571Y-65214285D01*
X131252380Y-65071428D02*
X131252380Y-65547619D01*
X130252380Y-65547619D01*
X130252380Y-65071428D01*
X124438095Y-73852380D02*
X125009523Y-73852380D01*
X124723809Y-74852380D02*
X124723809Y-73852380D01*
X125342857Y-74852380D02*
X125342857Y-73852380D01*
X125723809Y-73852380D01*
X125819047Y-73900000D01*
X125866666Y-73947619D01*
X125914285Y-74042857D01*
X125914285Y-74185714D01*
X125866666Y-74280952D01*
X125819047Y-74328571D01*
X125723809Y-74376190D01*
X125342857Y-74376190D01*
X126247619Y-73852380D02*
X126866666Y-73852380D01*
X126533333Y-74233333D01*
X126676190Y-74233333D01*
X126771428Y-74280952D01*
X126819047Y-74328571D01*
X126866666Y-74423809D01*
X126866666Y-74661904D01*
X126819047Y-74757142D01*
X126771428Y-74804761D01*
X126676190Y-74852380D01*
X126390476Y-74852380D01*
X126295238Y-74804761D01*
X126247619Y-74757142D01*
D14*
X112675000Y-108189285D02*
X112425000Y-107832142D01*
X112246428Y-108189285D02*
X112246428Y-107439285D01*
X112532142Y-107439285D01*
X112603571Y-107475000D01*
X112639285Y-107510714D01*
X112675000Y-107582142D01*
X112675000Y-107689285D01*
X112639285Y-107760714D01*
X112603571Y-107796428D01*
X112532142Y-107832142D01*
X112246428Y-107832142D01*
X113032142Y-108189285D02*
X113175000Y-108189285D01*
X113246428Y-108153571D01*
X113282142Y-108117857D01*
X113353571Y-108010714D01*
X113389285Y-107867857D01*
X113389285Y-107582142D01*
X113353571Y-107510714D01*
X113317857Y-107475000D01*
X113246428Y-107439285D01*
X113103571Y-107439285D01*
X113032142Y-107475000D01*
X112996428Y-107510714D01*
X112960714Y-107582142D01*
X112960714Y-107760714D01*
X112996428Y-107832142D01*
X113032142Y-107867857D01*
X113103571Y-107903571D01*
X113246428Y-107903571D01*
X113317857Y-107867857D01*
X113353571Y-107832142D01*
X113389285Y-107760714D01*
X110625000Y-95717857D02*
X110589285Y-95753571D01*
X110482142Y-95789285D01*
X110410714Y-95789285D01*
X110303571Y-95753571D01*
X110232142Y-95682142D01*
X110196428Y-95610714D01*
X110160714Y-95467857D01*
X110160714Y-95360714D01*
X110196428Y-95217857D01*
X110232142Y-95146428D01*
X110303571Y-95075000D01*
X110410714Y-95039285D01*
X110482142Y-95039285D01*
X110589285Y-95075000D01*
X110625000Y-95110714D01*
X110982142Y-95789285D02*
X111125000Y-95789285D01*
X111196428Y-95753571D01*
X111232142Y-95717857D01*
X111303571Y-95610714D01*
X111339285Y-95467857D01*
X111339285Y-95182142D01*
X111303571Y-95110714D01*
X111267857Y-95075000D01*
X111196428Y-95039285D01*
X111053571Y-95039285D01*
X110982142Y-95075000D01*
X110946428Y-95110714D01*
X110910714Y-95182142D01*
X110910714Y-95360714D01*
X110946428Y-95432142D01*
X110982142Y-95467857D01*
X111053571Y-95503571D01*
X111196428Y-95503571D01*
X111267857Y-95467857D01*
X111303571Y-95432142D01*
X111339285Y-95360714D01*
D11*
X90733333Y-70557142D02*
X90685714Y-70604761D01*
X90542857Y-70652380D01*
X90447619Y-70652380D01*
X90304761Y-70604761D01*
X90209523Y-70509523D01*
X90161904Y-70414285D01*
X90114285Y-70223809D01*
X90114285Y-70080952D01*
X90161904Y-69890476D01*
X90209523Y-69795238D01*
X90304761Y-69700000D01*
X90447619Y-69652380D01*
X90542857Y-69652380D01*
X90685714Y-69700000D01*
X90733333Y-69747619D01*
X91590476Y-69985714D02*
X91590476Y-70652380D01*
X91352380Y-69604761D02*
X91114285Y-70319047D01*
X91733333Y-70319047D01*
D14*
X102196428Y-38489285D02*
X102196428Y-37739285D01*
X102375000Y-37739285D01*
X102482142Y-37775000D01*
X102553571Y-37846428D01*
X102589285Y-37917857D01*
X102625000Y-38060714D01*
X102625000Y-38167857D01*
X102589285Y-38310714D01*
X102553571Y-38382142D01*
X102482142Y-38453571D01*
X102375000Y-38489285D01*
X102196428Y-38489285D01*
X103339285Y-38489285D02*
X102910714Y-38489285D01*
X103125000Y-38489285D02*
X103125000Y-37739285D01*
X103053571Y-37846428D01*
X102982142Y-37917857D01*
X102910714Y-37953571D01*
D11*
X121638095Y-64652380D02*
X121638095Y-65461904D01*
X121685714Y-65557142D01*
X121733333Y-65604761D01*
X121828571Y-65652380D01*
X122019047Y-65652380D01*
X122114285Y-65604761D01*
X122161904Y-65557142D01*
X122209523Y-65461904D01*
X122209523Y-64652380D01*
X122590476Y-64652380D02*
X123257142Y-64652380D01*
X122828571Y-65652380D01*
D14*
X104375000Y-42989285D02*
X104125000Y-42632142D01*
X103946428Y-42989285D02*
X103946428Y-42239285D01*
X104232142Y-42239285D01*
X104303571Y-42275000D01*
X104339285Y-42310714D01*
X104375000Y-42382142D01*
X104375000Y-42489285D01*
X104339285Y-42560714D01*
X104303571Y-42596428D01*
X104232142Y-42632142D01*
X103946428Y-42632142D01*
X105053571Y-42239285D02*
X104696428Y-42239285D01*
X104660714Y-42596428D01*
X104696428Y-42560714D01*
X104767857Y-42525000D01*
X104946428Y-42525000D01*
X105017857Y-42560714D01*
X105053571Y-42596428D01*
X105089285Y-42667857D01*
X105089285Y-42846428D01*
X105053571Y-42917857D01*
X105017857Y-42953571D01*
X104946428Y-42989285D01*
X104767857Y-42989285D01*
X104696428Y-42953571D01*
X104660714Y-42917857D01*
D11*
X115357142Y-67552380D02*
X115023809Y-67076190D01*
X114785714Y-67552380D02*
X114785714Y-66552380D01*
X115166666Y-66552380D01*
X115261904Y-66600000D01*
X115309523Y-66647619D01*
X115357142Y-66742857D01*
X115357142Y-66885714D01*
X115309523Y-66980952D01*
X115261904Y-67028571D01*
X115166666Y-67076190D01*
X114785714Y-67076190D01*
X116309523Y-67552380D02*
X115738095Y-67552380D01*
X116023809Y-67552380D02*
X116023809Y-66552380D01*
X115928571Y-66695238D01*
X115833333Y-66790476D01*
X115738095Y-66838095D01*
X116928571Y-66552380D02*
X117023809Y-66552380D01*
X117119047Y-66600000D01*
X117166666Y-66647619D01*
X117214285Y-66742857D01*
X117261904Y-66933333D01*
X117261904Y-67171428D01*
X117214285Y-67361904D01*
X117166666Y-67457142D01*
X117119047Y-67504761D01*
X117023809Y-67552380D01*
X116928571Y-67552380D01*
X116833333Y-67504761D01*
X116785714Y-67457142D01*
X116738095Y-67361904D01*
X116690476Y-67171428D01*
X116690476Y-66933333D01*
X116738095Y-66742857D01*
X116785714Y-66647619D01*
X116833333Y-66600000D01*
X116928571Y-66552380D01*
D14*
X118096428Y-95789285D02*
X118096428Y-95039285D01*
X118275000Y-95039285D01*
X118382142Y-95075000D01*
X118453571Y-95146428D01*
X118489285Y-95217857D01*
X118525000Y-95360714D01*
X118525000Y-95467857D01*
X118489285Y-95610714D01*
X118453571Y-95682142D01*
X118382142Y-95753571D01*
X118275000Y-95789285D01*
X118096428Y-95789285D01*
X118882142Y-95789285D02*
X119025000Y-95789285D01*
X119096428Y-95753571D01*
X119132142Y-95717857D01*
X119203571Y-95610714D01*
X119239285Y-95467857D01*
X119239285Y-95182142D01*
X119203571Y-95110714D01*
X119167857Y-95075000D01*
X119096428Y-95039285D01*
X118953571Y-95039285D01*
X118882142Y-95075000D01*
X118846428Y-95110714D01*
X118810714Y-95182142D01*
X118810714Y-95360714D01*
X118846428Y-95432142D01*
X118882142Y-95467857D01*
X118953571Y-95503571D01*
X119096428Y-95503571D01*
X119167857Y-95467857D01*
X119203571Y-95432142D01*
X119239285Y-95360714D01*
D11*
X96733333Y-69502380D02*
X96400000Y-69026190D01*
X96161904Y-69502380D02*
X96161904Y-68502380D01*
X96542857Y-68502380D01*
X96638095Y-68550000D01*
X96685714Y-68597619D01*
X96733333Y-68692857D01*
X96733333Y-68835714D01*
X96685714Y-68930952D01*
X96638095Y-68978571D01*
X96542857Y-69026190D01*
X96161904Y-69026190D01*
X97590476Y-68835714D02*
X97590476Y-69502380D01*
X97352380Y-68454761D02*
X97114285Y-69169047D01*
X97733333Y-69169047D01*
D14*
X105538692Y-80509168D02*
X105538692Y-80994882D01*
X105567263Y-81052025D01*
X105595835Y-81080597D01*
X105652977Y-81109168D01*
X105767263Y-81109168D01*
X105824406Y-81080597D01*
X105852977Y-81052025D01*
X105881549Y-80994882D01*
X105881549Y-80509168D01*
X106481549Y-81109168D02*
X106138692Y-81109168D01*
X106310120Y-81109168D02*
X106310120Y-80509168D01*
X106252977Y-80594882D01*
X106195835Y-80652025D01*
X106138692Y-80680597D01*
X101625000Y-42989285D02*
X101375000Y-42632142D01*
X101196428Y-42989285D02*
X101196428Y-42239285D01*
X101482142Y-42239285D01*
X101553571Y-42275000D01*
X101589285Y-42310714D01*
X101625000Y-42382142D01*
X101625000Y-42489285D01*
X101589285Y-42560714D01*
X101553571Y-42596428D01*
X101482142Y-42632142D01*
X101196428Y-42632142D01*
X101875000Y-42239285D02*
X102339285Y-42239285D01*
X102089285Y-42525000D01*
X102196428Y-42525000D01*
X102267857Y-42560714D01*
X102303571Y-42596428D01*
X102339285Y-42667857D01*
X102339285Y-42846428D01*
X102303571Y-42917857D01*
X102267857Y-42953571D01*
X102196428Y-42989285D01*
X101982142Y-42989285D01*
X101910714Y-42953571D01*
X101875000Y-42917857D01*
X98875000Y-42989285D02*
X98625000Y-42632142D01*
X98446428Y-42989285D02*
X98446428Y-42239285D01*
X98732142Y-42239285D01*
X98803571Y-42275000D01*
X98839285Y-42310714D01*
X98875000Y-42382142D01*
X98875000Y-42489285D01*
X98839285Y-42560714D01*
X98803571Y-42596428D01*
X98732142Y-42632142D01*
X98446428Y-42632142D01*
X99160714Y-42310714D02*
X99196428Y-42275000D01*
X99267857Y-42239285D01*
X99446428Y-42239285D01*
X99517857Y-42275000D01*
X99553571Y-42310714D01*
X99589285Y-42382142D01*
X99589285Y-42453571D01*
X99553571Y-42560714D01*
X99125000Y-42989285D01*
X99589285Y-42989285D01*
X109128571Y-105239285D02*
X109128571Y-105846428D01*
X109164285Y-105917857D01*
X109200000Y-105953571D01*
X109271428Y-105989285D01*
X109414285Y-105989285D01*
X109485714Y-105953571D01*
X109521428Y-105917857D01*
X109557142Y-105846428D01*
X109557142Y-105239285D01*
X110235714Y-105489285D02*
X110235714Y-105989285D01*
X110057142Y-105203571D02*
X109878571Y-105739285D01*
X110342857Y-105739285D01*
D11*
X102561549Y-64938095D02*
X102561549Y-65414285D01*
X102228216Y-64414285D02*
X102561549Y-64938095D01*
X102894882Y-64414285D01*
X103752025Y-65414285D02*
X103180597Y-65414285D01*
X103466311Y-65414285D02*
X103466311Y-64414285D01*
X103371073Y-64557143D01*
X103275835Y-64652381D01*
X103180597Y-64700000D01*
X118416666Y-54552380D02*
X118416666Y-55266666D01*
X118369047Y-55409523D01*
X118273809Y-55504761D01*
X118130952Y-55552380D01*
X118035714Y-55552380D01*
X118940476Y-55552380D02*
X119130952Y-55552380D01*
X119226190Y-55504761D01*
X119273809Y-55457142D01*
X119369047Y-55314285D01*
X119416666Y-55123809D01*
X119416666Y-54742857D01*
X119369047Y-54647619D01*
X119321428Y-54600000D01*
X119226190Y-54552380D01*
X119035714Y-54552380D01*
X118940476Y-54600000D01*
X118892857Y-54647619D01*
X118845238Y-54742857D01*
X118845238Y-54980952D01*
X118892857Y-55076190D01*
X118940476Y-55123809D01*
X119035714Y-55171428D01*
X119226190Y-55171428D01*
X119321428Y-55123809D01*
X119369047Y-55076190D01*
X119416666Y-54980952D01*
X119388095Y-83502380D02*
X119959523Y-83502380D01*
X119673809Y-84502380D02*
X119673809Y-83502380D01*
X120292857Y-84502380D02*
X120292857Y-83502380D01*
X120673809Y-83502380D01*
X120769047Y-83550000D01*
X120816666Y-83597619D01*
X120864285Y-83692857D01*
X120864285Y-83835714D01*
X120816666Y-83930952D01*
X120769047Y-83978571D01*
X120673809Y-84026190D01*
X120292857Y-84026190D01*
X121769047Y-83502380D02*
X121292857Y-83502380D01*
X121245238Y-83978571D01*
X121292857Y-83930952D01*
X121388095Y-83883333D01*
X121626190Y-83883333D01*
X121721428Y-83930952D01*
X121769047Y-83978571D01*
X121816666Y-84073809D01*
X121816666Y-84311904D01*
X121769047Y-84407142D01*
X121721428Y-84454761D01*
X121626190Y-84502380D01*
X121388095Y-84502380D01*
X121292857Y-84454761D01*
X121245238Y-84407142D01*
X90733333Y-78957142D02*
X90685714Y-79004761D01*
X90542857Y-79052380D01*
X90447619Y-79052380D01*
X90304761Y-79004761D01*
X90209523Y-78909523D01*
X90161904Y-78814285D01*
X90114285Y-78623809D01*
X90114285Y-78480952D01*
X90161904Y-78290476D01*
X90209523Y-78195238D01*
X90304761Y-78100000D01*
X90447619Y-78052380D01*
X90542857Y-78052380D01*
X90685714Y-78100000D01*
X90733333Y-78147619D01*
X91066666Y-78052380D02*
X91733333Y-78052380D01*
X91304761Y-79052380D01*
D14*
X115025000Y-108189285D02*
X114775000Y-107832142D01*
X114596428Y-108189285D02*
X114596428Y-107439285D01*
X114882142Y-107439285D01*
X114953571Y-107475000D01*
X114989285Y-107510714D01*
X115025000Y-107582142D01*
X115025000Y-107689285D01*
X114989285Y-107760714D01*
X114953571Y-107796428D01*
X114882142Y-107832142D01*
X114596428Y-107832142D01*
X115667857Y-107439285D02*
X115525000Y-107439285D01*
X115453571Y-107475000D01*
X115417857Y-107510714D01*
X115346428Y-107617857D01*
X115310714Y-107760714D01*
X115310714Y-108046428D01*
X115346428Y-108117857D01*
X115382142Y-108153571D01*
X115453571Y-108189285D01*
X115596428Y-108189285D01*
X115667857Y-108153571D01*
X115703571Y-108117857D01*
X115739285Y-108046428D01*
X115739285Y-107867857D01*
X115703571Y-107796428D01*
X115667857Y-107760714D01*
X115596428Y-107725000D01*
X115453571Y-107725000D01*
X115382142Y-107760714D01*
X115346428Y-107796428D01*
X115310714Y-107867857D01*
X94967857Y-108467857D02*
X94932142Y-108503571D01*
X94825000Y-108539285D01*
X94753571Y-108539285D01*
X94646428Y-108503571D01*
X94575000Y-108432142D01*
X94539285Y-108360714D01*
X94503571Y-108217857D01*
X94503571Y-108110714D01*
X94539285Y-107967857D01*
X94575000Y-107896428D01*
X94646428Y-107825000D01*
X94753571Y-107789285D01*
X94825000Y-107789285D01*
X94932142Y-107825000D01*
X94967857Y-107860714D01*
X95682142Y-108539285D02*
X95253571Y-108539285D01*
X95467857Y-108539285D02*
X95467857Y-107789285D01*
X95396428Y-107896428D01*
X95325000Y-107967857D01*
X95253571Y-108003571D01*
X95967857Y-107860714D02*
X96003571Y-107825000D01*
X96075000Y-107789285D01*
X96253571Y-107789285D01*
X96325000Y-107825000D01*
X96360714Y-107860714D01*
X96396428Y-107932142D01*
X96396428Y-108003571D01*
X96360714Y-108110714D01*
X95932142Y-108539285D01*
X96396428Y-108539285D01*
X95017857Y-104167857D02*
X94982142Y-104203571D01*
X94875000Y-104239285D01*
X94803571Y-104239285D01*
X94696428Y-104203571D01*
X94625000Y-104132142D01*
X94589285Y-104060714D01*
X94553571Y-103917857D01*
X94553571Y-103810714D01*
X94589285Y-103667857D01*
X94625000Y-103596428D01*
X94696428Y-103525000D01*
X94803571Y-103489285D01*
X94875000Y-103489285D01*
X94982142Y-103525000D01*
X95017857Y-103560714D01*
X95732142Y-104239285D02*
X95303571Y-104239285D01*
X95517857Y-104239285D02*
X95517857Y-103489285D01*
X95446428Y-103596428D01*
X95375000Y-103667857D01*
X95303571Y-103703571D01*
X96375000Y-103489285D02*
X96232142Y-103489285D01*
X96160714Y-103525000D01*
X96125000Y-103560714D01*
X96053571Y-103667857D01*
X96017857Y-103810714D01*
X96017857Y-104096428D01*
X96053571Y-104167857D01*
X96089285Y-104203571D01*
X96160714Y-104239285D01*
X96303571Y-104239285D01*
X96375000Y-104203571D01*
X96410714Y-104167857D01*
X96446428Y-104096428D01*
X96446428Y-103917857D01*
X96410714Y-103846428D01*
X96375000Y-103810714D01*
X96303571Y-103775000D01*
X96160714Y-103775000D01*
X96089285Y-103810714D01*
X96053571Y-103846428D01*
X96017857Y-103917857D01*
D11*
X111557142Y-75757142D02*
X111509523Y-75804761D01*
X111366666Y-75852380D01*
X111271428Y-75852380D01*
X111128571Y-75804761D01*
X111033333Y-75709523D01*
X110985714Y-75614285D01*
X110938095Y-75423809D01*
X110938095Y-75280952D01*
X110985714Y-75090476D01*
X111033333Y-74995238D01*
X111128571Y-74900000D01*
X111271428Y-74852380D01*
X111366666Y-74852380D01*
X111509523Y-74900000D01*
X111557142Y-74947619D01*
X112509523Y-75852380D02*
X111938095Y-75852380D01*
X112223809Y-75852380D02*
X112223809Y-74852380D01*
X112128571Y-74995238D01*
X112033333Y-75090476D01*
X111938095Y-75138095D01*
X112985714Y-75852380D02*
X113176190Y-75852380D01*
X113271428Y-75804761D01*
X113319047Y-75757142D01*
X113414285Y-75614285D01*
X113461904Y-75423809D01*
X113461904Y-75042857D01*
X113414285Y-74947619D01*
X113366666Y-74900000D01*
X113271428Y-74852380D01*
X113080952Y-74852380D01*
X112985714Y-74900000D01*
X112938095Y-74947619D01*
X112890476Y-75042857D01*
X112890476Y-75280952D01*
X112938095Y-75376190D01*
X112985714Y-75423809D01*
X113080952Y-75471428D01*
X113271428Y-75471428D01*
X113366666Y-75423809D01*
X113414285Y-75376190D01*
X113461904Y-75280952D01*
D14*
X105653571Y-36439285D02*
X106082142Y-36439285D01*
X105867857Y-37189285D02*
X105867857Y-36439285D01*
X106332142Y-37189285D02*
X106332142Y-36439285D01*
X106617857Y-36439285D01*
X106689285Y-36475000D01*
X106725000Y-36510714D01*
X106760714Y-36582142D01*
X106760714Y-36689285D01*
X106725000Y-36760714D01*
X106689285Y-36796428D01*
X106617857Y-36832142D01*
X106332142Y-36832142D01*
X107475000Y-37189285D02*
X107046428Y-37189285D01*
X107260714Y-37189285D02*
X107260714Y-36439285D01*
X107189285Y-36546428D01*
X107117857Y-36617857D01*
X107046428Y-36653571D01*
X128246428Y-94846428D02*
X127996428Y-94846428D01*
X127996428Y-95239285D02*
X127996428Y-94489285D01*
X128353571Y-94489285D01*
X128639285Y-95239285D02*
X128639285Y-94489285D01*
X128996428Y-95239285D02*
X128996428Y-94489285D01*
X129175000Y-94489285D01*
X129282142Y-94525000D01*
X129353571Y-94596428D01*
X129389285Y-94667857D01*
X129425000Y-94810714D01*
X129425000Y-94917857D01*
X129389285Y-95060714D01*
X129353571Y-95132142D01*
X129282142Y-95203571D01*
X129175000Y-95239285D01*
X128996428Y-95239285D01*
X129710714Y-94560714D02*
X129746428Y-94525000D01*
X129817857Y-94489285D01*
X129996428Y-94489285D01*
X130067857Y-94525000D01*
X130103571Y-94560714D01*
X130139285Y-94632142D01*
X130139285Y-94703571D01*
X130103571Y-94810714D01*
X129675000Y-95239285D01*
X130139285Y-95239285D01*
X115696428Y-106539285D02*
X115696428Y-105789285D01*
X115875000Y-105789285D01*
X115982142Y-105825000D01*
X116053571Y-105896428D01*
X116089285Y-105967857D01*
X116125000Y-106110714D01*
X116125000Y-106217857D01*
X116089285Y-106360714D01*
X116053571Y-106432142D01*
X115982142Y-106503571D01*
X115875000Y-106539285D01*
X115696428Y-106539285D01*
X116410714Y-105860714D02*
X116446428Y-105825000D01*
X116517857Y-105789285D01*
X116696428Y-105789285D01*
X116767857Y-105825000D01*
X116803571Y-105860714D01*
X116839285Y-105932142D01*
X116839285Y-106003571D01*
X116803571Y-106110714D01*
X116375000Y-106539285D01*
X116839285Y-106539285D01*
D11*
X108683333Y-77107142D02*
X108635714Y-77154761D01*
X108492857Y-77202380D01*
X108397619Y-77202380D01*
X108254761Y-77154761D01*
X108159523Y-77059523D01*
X108111904Y-76964285D01*
X108064285Y-76773809D01*
X108064285Y-76630952D01*
X108111904Y-76440476D01*
X108159523Y-76345238D01*
X108254761Y-76250000D01*
X108397619Y-76202380D01*
X108492857Y-76202380D01*
X108635714Y-76250000D01*
X108683333Y-76297619D01*
X109016666Y-76202380D02*
X109635714Y-76202380D01*
X109302380Y-76583333D01*
X109445238Y-76583333D01*
X109540476Y-76630952D01*
X109588095Y-76678571D01*
X109635714Y-76773809D01*
X109635714Y-77011904D01*
X109588095Y-77107142D01*
X109540476Y-77154761D01*
X109445238Y-77202380D01*
X109159523Y-77202380D01*
X109064285Y-77154761D01*
X109016666Y-77107142D01*
D14*
X94482804Y-36586357D02*
X94861611Y-36965165D01*
X94912119Y-37066180D01*
X94912119Y-37167195D01*
X94861611Y-37268210D01*
X94811104Y-37318718D01*
X94962626Y-36106535D02*
X94861611Y-36207550D01*
X94836357Y-36283312D01*
X94836357Y-36333819D01*
X94861611Y-36460088D01*
X94937373Y-36586357D01*
X95139403Y-36788388D01*
X95215165Y-36813642D01*
X95265672Y-36813642D01*
X95341434Y-36788388D01*
X95442449Y-36687373D01*
X95467703Y-36611611D01*
X95467703Y-36561104D01*
X95442449Y-36485342D01*
X95316180Y-36359073D01*
X95240418Y-36333819D01*
X95189911Y-36333819D01*
X95114149Y-36359073D01*
X95013134Y-36460088D01*
X94987880Y-36535850D01*
X94987880Y-36586357D01*
X95013134Y-36662119D01*
D11*
X109838095Y-83502380D02*
X110409523Y-83502380D01*
X110123809Y-84502380D02*
X110123809Y-83502380D01*
X110742857Y-84502380D02*
X110742857Y-83502380D01*
X111123809Y-83502380D01*
X111219047Y-83550000D01*
X111266666Y-83597619D01*
X111314285Y-83692857D01*
X111314285Y-83835714D01*
X111266666Y-83930952D01*
X111219047Y-83978571D01*
X111123809Y-84026190D01*
X110742857Y-84026190D01*
X112171428Y-83502380D02*
X111980952Y-83502380D01*
X111885714Y-83550000D01*
X111838095Y-83597619D01*
X111742857Y-83740476D01*
X111695238Y-83930952D01*
X111695238Y-84311904D01*
X111742857Y-84407142D01*
X111790476Y-84454761D01*
X111885714Y-84502380D01*
X112076190Y-84502380D01*
X112171428Y-84454761D01*
X112219047Y-84407142D01*
X112266666Y-84311904D01*
X112266666Y-84073809D01*
X112219047Y-83978571D01*
X112171428Y-83930952D01*
X112076190Y-83883333D01*
X111885714Y-83883333D01*
X111790476Y-83930952D01*
X111742857Y-83978571D01*
X111695238Y-84073809D01*
X114507142Y-65302380D02*
X114173809Y-64826190D01*
X113935714Y-65302380D02*
X113935714Y-64302380D01*
X114316666Y-64302380D01*
X114411904Y-64350000D01*
X114459523Y-64397619D01*
X114507142Y-64492857D01*
X114507142Y-64635714D01*
X114459523Y-64730952D01*
X114411904Y-64778571D01*
X114316666Y-64826190D01*
X113935714Y-64826190D01*
X115459523Y-65302380D02*
X114888095Y-65302380D01*
X115173809Y-65302380D02*
X115173809Y-64302380D01*
X115078571Y-64445238D01*
X114983333Y-64540476D01*
X114888095Y-64588095D01*
X115792857Y-64302380D02*
X116459523Y-64302380D01*
X116030952Y-65302380D01*
D14*
X108217857Y-107717857D02*
X108182142Y-107753571D01*
X108075000Y-107789285D01*
X108003571Y-107789285D01*
X107896428Y-107753571D01*
X107825000Y-107682142D01*
X107789285Y-107610714D01*
X107753571Y-107467857D01*
X107753571Y-107360714D01*
X107789285Y-107217857D01*
X107825000Y-107146428D01*
X107896428Y-107075000D01*
X108003571Y-107039285D01*
X108075000Y-107039285D01*
X108182142Y-107075000D01*
X108217857Y-107110714D01*
X108932142Y-107789285D02*
X108503571Y-107789285D01*
X108717857Y-107789285D02*
X108717857Y-107039285D01*
X108646428Y-107146428D01*
X108575000Y-107217857D01*
X108503571Y-107253571D01*
X109575000Y-107289285D02*
X109575000Y-107789285D01*
X109396428Y-107003571D02*
X109217857Y-107539285D01*
X109682142Y-107539285D01*
D11*
X117338095Y-74252380D02*
X117338095Y-75061904D01*
X117385714Y-75157142D01*
X117433333Y-75204761D01*
X117528571Y-75252380D01*
X117719047Y-75252380D01*
X117814285Y-75204761D01*
X117861904Y-75157142D01*
X117909523Y-75061904D01*
X117909523Y-74252380D01*
X118528571Y-74680952D02*
X118433333Y-74633333D01*
X118385714Y-74585714D01*
X118338095Y-74490476D01*
X118338095Y-74442857D01*
X118385714Y-74347619D01*
X118433333Y-74300000D01*
X118528571Y-74252380D01*
X118719047Y-74252380D01*
X118814285Y-74300000D01*
X118861904Y-74347619D01*
X118909523Y-74442857D01*
X118909523Y-74490476D01*
X118861904Y-74585714D01*
X118814285Y-74633333D01*
X118719047Y-74680952D01*
X118528571Y-74680952D01*
X118433333Y-74728571D01*
X118385714Y-74776190D01*
X118338095Y-74871428D01*
X118338095Y-75061904D01*
X118385714Y-75157142D01*
X118433333Y-75204761D01*
X118528571Y-75252380D01*
X118719047Y-75252380D01*
X118814285Y-75204761D01*
X118861904Y-75157142D01*
X118909523Y-75061904D01*
X118909523Y-74871428D01*
X118861904Y-74776190D01*
X118814285Y-74728571D01*
X118719047Y-74680952D01*
D14*
X118733333Y-114926190D02*
X118733333Y-115283333D01*
X118709523Y-115354761D01*
X118661904Y-115402380D01*
X118590476Y-115426190D01*
X118542857Y-115426190D01*
X119042857Y-115140476D02*
X118995238Y-115116666D01*
X118971428Y-115092857D01*
X118947619Y-115045238D01*
X118947619Y-115021428D01*
X118971428Y-114973809D01*
X118995238Y-114950000D01*
X119042857Y-114926190D01*
X119138095Y-114926190D01*
X119185714Y-114950000D01*
X119209523Y-114973809D01*
X119233333Y-115021428D01*
X119233333Y-115045238D01*
X119209523Y-115092857D01*
X119185714Y-115116666D01*
X119138095Y-115140476D01*
X119042857Y-115140476D01*
X118995238Y-115164285D01*
X118971428Y-115188095D01*
X118947619Y-115235714D01*
X118947619Y-115330952D01*
X118971428Y-115378571D01*
X118995238Y-115402380D01*
X119042857Y-115426190D01*
X119138095Y-115426190D01*
X119185714Y-115402380D01*
X119209523Y-115378571D01*
X119233333Y-115330952D01*
X119233333Y-115235714D01*
X119209523Y-115188095D01*
X119185714Y-115164285D01*
X119138095Y-115140476D01*
X126367857Y-104889285D02*
X126117857Y-104532142D01*
X125939285Y-104889285D02*
X125939285Y-104139285D01*
X126225000Y-104139285D01*
X126296428Y-104175000D01*
X126332142Y-104210714D01*
X126367857Y-104282142D01*
X126367857Y-104389285D01*
X126332142Y-104460714D01*
X126296428Y-104496428D01*
X126225000Y-104532142D01*
X125939285Y-104532142D01*
X127082142Y-104889285D02*
X126653571Y-104889285D01*
X126867857Y-104889285D02*
X126867857Y-104139285D01*
X126796428Y-104246428D01*
X126725000Y-104317857D01*
X126653571Y-104353571D01*
X127760714Y-104139285D02*
X127403571Y-104139285D01*
X127367857Y-104496428D01*
X127403571Y-104460714D01*
X127475000Y-104425000D01*
X127653571Y-104425000D01*
X127725000Y-104460714D01*
X127760714Y-104496428D01*
X127796428Y-104567857D01*
X127796428Y-104746428D01*
X127760714Y-104817857D01*
X127725000Y-104853571D01*
X127653571Y-104889285D01*
X127475000Y-104889285D01*
X127403571Y-104853571D01*
X127367857Y-104817857D01*
D11*
X129066666Y-74052380D02*
X129066666Y-74766666D01*
X129019047Y-74909523D01*
X128923809Y-75004761D01*
X128780952Y-75052380D01*
X128685714Y-75052380D01*
X129447619Y-74052380D02*
X130066666Y-74052380D01*
X129733333Y-74433333D01*
X129876190Y-74433333D01*
X129971428Y-74480952D01*
X130019047Y-74528571D01*
X130066666Y-74623809D01*
X130066666Y-74861904D01*
X130019047Y-74957142D01*
X129971428Y-75004761D01*
X129876190Y-75052380D01*
X129590476Y-75052380D01*
X129495238Y-75004761D01*
X129447619Y-74957142D01*
D14*
X113867857Y-95717857D02*
X113832142Y-95753571D01*
X113725000Y-95789285D01*
X113653571Y-95789285D01*
X113546428Y-95753571D01*
X113475000Y-95682142D01*
X113439285Y-95610714D01*
X113403571Y-95467857D01*
X113403571Y-95360714D01*
X113439285Y-95217857D01*
X113475000Y-95146428D01*
X113546428Y-95075000D01*
X113653571Y-95039285D01*
X113725000Y-95039285D01*
X113832142Y-95075000D01*
X113867857Y-95110714D01*
X114582142Y-95789285D02*
X114153571Y-95789285D01*
X114367857Y-95789285D02*
X114367857Y-95039285D01*
X114296428Y-95146428D01*
X114225000Y-95217857D01*
X114153571Y-95253571D01*
X114832142Y-95039285D02*
X115296428Y-95039285D01*
X115046428Y-95325000D01*
X115153571Y-95325000D01*
X115225000Y-95360714D01*
X115260714Y-95396428D01*
X115296428Y-95467857D01*
X115296428Y-95646428D01*
X115260714Y-95717857D01*
X115225000Y-95753571D01*
X115153571Y-95789285D01*
X114939285Y-95789285D01*
X114867857Y-95753571D01*
X114832142Y-95717857D01*
D11*
X90833333Y-76857142D02*
X90785714Y-76904761D01*
X90642857Y-76952380D01*
X90547619Y-76952380D01*
X90404761Y-76904761D01*
X90309523Y-76809523D01*
X90261904Y-76714285D01*
X90214285Y-76523809D01*
X90214285Y-76380952D01*
X90261904Y-76190476D01*
X90309523Y-76095238D01*
X90404761Y-76000000D01*
X90547619Y-75952380D01*
X90642857Y-75952380D01*
X90785714Y-76000000D01*
X90833333Y-76047619D01*
X91738095Y-75952380D02*
X91261904Y-75952380D01*
X91214285Y-76428571D01*
X91261904Y-76380952D01*
X91357142Y-76333333D01*
X91595238Y-76333333D01*
X91690476Y-76380952D01*
X91738095Y-76428571D01*
X91785714Y-76523809D01*
X91785714Y-76761904D01*
X91738095Y-76857142D01*
X91690476Y-76904761D01*
X91595238Y-76952380D01*
X91357142Y-76952380D01*
X91261904Y-76904761D01*
X91214285Y-76857142D01*
X111557142Y-67552380D02*
X111223809Y-67076190D01*
X110985714Y-67552380D02*
X110985714Y-66552380D01*
X111366666Y-66552380D01*
X111461904Y-66600000D01*
X111509523Y-66647619D01*
X111557142Y-66742857D01*
X111557142Y-66885714D01*
X111509523Y-66980952D01*
X111461904Y-67028571D01*
X111366666Y-67076190D01*
X110985714Y-67076190D01*
X112509523Y-67552380D02*
X111938095Y-67552380D01*
X112223809Y-67552380D02*
X112223809Y-66552380D01*
X112128571Y-66695238D01*
X112033333Y-66790476D01*
X111938095Y-66838095D01*
X113461904Y-67552380D02*
X112890476Y-67552380D01*
X113176190Y-67552380D02*
X113176190Y-66552380D01*
X113080952Y-66695238D01*
X112985714Y-66790476D01*
X112890476Y-66838095D01*
X110257142Y-71742857D02*
X110304761Y-71790476D01*
X110352380Y-71933333D01*
X110352380Y-72028571D01*
X110304761Y-72171428D01*
X110209523Y-72266666D01*
X110114285Y-72314285D01*
X109923809Y-72361904D01*
X109780952Y-72361904D01*
X109590476Y-72314285D01*
X109495238Y-72266666D01*
X109400000Y-72171428D01*
X109352380Y-72028571D01*
X109352380Y-71933333D01*
X109400000Y-71790476D01*
X109447619Y-71742857D01*
X110352380Y-70790476D02*
X110352380Y-71361904D01*
X110352380Y-71076190D02*
X109352380Y-71076190D01*
X109495238Y-71171428D01*
X109590476Y-71266666D01*
X109638095Y-71361904D01*
X109780952Y-70219047D02*
X109733333Y-70314285D01*
X109685714Y-70361904D01*
X109590476Y-70409523D01*
X109542857Y-70409523D01*
X109447619Y-70361904D01*
X109400000Y-70314285D01*
X109352380Y-70219047D01*
X109352380Y-70028571D01*
X109400000Y-69933333D01*
X109447619Y-69885714D01*
X109542857Y-69838095D01*
X109590476Y-69838095D01*
X109685714Y-69885714D01*
X109733333Y-69933333D01*
X109780952Y-70028571D01*
X109780952Y-70219047D01*
X109828571Y-70314285D01*
X109876190Y-70361904D01*
X109971428Y-70409523D01*
X110161904Y-70409523D01*
X110257142Y-70361904D01*
X110304761Y-70314285D01*
X110352380Y-70219047D01*
X110352380Y-70028571D01*
X110304761Y-69933333D01*
X110257142Y-69885714D01*
X110161904Y-69838095D01*
X109971428Y-69838095D01*
X109876190Y-69885714D01*
X109828571Y-69933333D01*
X109780952Y-70028571D01*
D14*
X106150000Y-39989285D02*
X106150000Y-40525000D01*
X106114285Y-40632142D01*
X106042857Y-40703571D01*
X105935714Y-40739285D01*
X105864285Y-40739285D01*
X106435714Y-39989285D02*
X106935714Y-39989285D01*
X106614285Y-40739285D01*
X120175000Y-102967857D02*
X120139285Y-103003571D01*
X120032142Y-103039285D01*
X119960714Y-103039285D01*
X119853571Y-103003571D01*
X119782142Y-102932142D01*
X119746428Y-102860714D01*
X119710714Y-102717857D01*
X119710714Y-102610714D01*
X119746428Y-102467857D01*
X119782142Y-102396428D01*
X119853571Y-102325000D01*
X119960714Y-102289285D01*
X120032142Y-102289285D01*
X120139285Y-102325000D01*
X120175000Y-102360714D01*
X120817857Y-102289285D02*
X120675000Y-102289285D01*
X120603571Y-102325000D01*
X120567857Y-102360714D01*
X120496428Y-102467857D01*
X120460714Y-102610714D01*
X120460714Y-102896428D01*
X120496428Y-102967857D01*
X120532142Y-103003571D01*
X120603571Y-103039285D01*
X120746428Y-103039285D01*
X120817857Y-103003571D01*
X120853571Y-102967857D01*
X120889285Y-102896428D01*
X120889285Y-102717857D01*
X120853571Y-102646428D01*
X120817857Y-102610714D01*
X120746428Y-102575000D01*
X120603571Y-102575000D01*
X120532142Y-102610714D01*
X120496428Y-102646428D01*
X120460714Y-102717857D01*
D11*
X118866666Y-76952380D02*
X118866666Y-77666666D01*
X118819047Y-77809523D01*
X118723809Y-77904761D01*
X118580952Y-77952380D01*
X118485714Y-77952380D01*
X119295238Y-77047619D02*
X119342857Y-77000000D01*
X119438095Y-76952380D01*
X119676190Y-76952380D01*
X119771428Y-77000000D01*
X119819047Y-77047619D01*
X119866666Y-77142857D01*
X119866666Y-77238095D01*
X119819047Y-77380952D01*
X119247619Y-77952380D01*
X119866666Y-77952380D01*
X118788095Y-61854380D02*
X119359523Y-61854380D01*
X119073809Y-62854380D02*
X119073809Y-61854380D01*
X119692857Y-62854380D02*
X119692857Y-61854380D01*
X120073809Y-61854380D01*
X120169047Y-61902000D01*
X120216666Y-61949619D01*
X120264285Y-62044857D01*
X120264285Y-62187714D01*
X120216666Y-62282952D01*
X120169047Y-62330571D01*
X120073809Y-62378190D01*
X119692857Y-62378190D01*
X121121428Y-62187714D02*
X121121428Y-62854380D01*
X120883333Y-61806761D02*
X120645238Y-62521047D01*
X121264285Y-62521047D01*
D14*
X124278571Y-95039285D02*
X124278571Y-95646428D01*
X124314285Y-95717857D01*
X124350000Y-95753571D01*
X124421428Y-95789285D01*
X124564285Y-95789285D01*
X124635714Y-95753571D01*
X124671428Y-95717857D01*
X124707142Y-95646428D01*
X124707142Y-95039285D01*
X125385714Y-95039285D02*
X125242857Y-95039285D01*
X125171428Y-95075000D01*
X125135714Y-95110714D01*
X125064285Y-95217857D01*
X125028571Y-95360714D01*
X125028571Y-95646428D01*
X125064285Y-95717857D01*
X125100000Y-95753571D01*
X125171428Y-95789285D01*
X125314285Y-95789285D01*
X125385714Y-95753571D01*
X125421428Y-95717857D01*
X125457142Y-95646428D01*
X125457142Y-95467857D01*
X125421428Y-95396428D01*
X125385714Y-95360714D01*
X125314285Y-95325000D01*
X125171428Y-95325000D01*
X125100000Y-95360714D01*
X125064285Y-95396428D01*
X125028571Y-95467857D01*
X116682142Y-103039285D02*
X116465476Y-102682142D01*
X116310714Y-103039285D02*
X116310714Y-102289285D01*
X116558333Y-102289285D01*
X116620238Y-102325000D01*
X116651190Y-102360714D01*
X116682142Y-102432142D01*
X116682142Y-102539285D01*
X116651190Y-102610714D01*
X116620238Y-102646428D01*
X116558333Y-102682142D01*
X116310714Y-102682142D01*
X117301190Y-103039285D02*
X116929761Y-103039285D01*
X117115476Y-103039285D02*
X117115476Y-102289285D01*
X117053571Y-102396428D01*
X116991666Y-102467857D01*
X116929761Y-102503571D01*
X117858333Y-102539285D02*
X117858333Y-103039285D01*
X117703571Y-102253571D02*
X117548809Y-102789285D01*
X117951190Y-102789285D01*
D11*
X93433333Y-81252380D02*
X93100000Y-80776190D01*
X92861904Y-81252380D02*
X92861904Y-80252380D01*
X93242857Y-80252380D01*
X93338095Y-80300000D01*
X93385714Y-80347619D01*
X93433333Y-80442857D01*
X93433333Y-80585714D01*
X93385714Y-80680952D01*
X93338095Y-80728571D01*
X93242857Y-80776190D01*
X92861904Y-80776190D01*
X94385714Y-81252380D02*
X93814285Y-81252380D01*
X94100000Y-81252380D02*
X94100000Y-80252380D01*
X94004761Y-80395238D01*
X93909523Y-80490476D01*
X93814285Y-80538095D01*
X103657142Y-71257142D02*
X103609523Y-71304761D01*
X103466666Y-71352380D01*
X103371428Y-71352380D01*
X103228571Y-71304761D01*
X103133333Y-71209523D01*
X103085714Y-71114285D01*
X103038095Y-70923809D01*
X103038095Y-70780952D01*
X103085714Y-70590476D01*
X103133333Y-70495238D01*
X103228571Y-70400000D01*
X103371428Y-70352380D01*
X103466666Y-70352380D01*
X103609523Y-70400000D01*
X103657142Y-70447619D01*
X104609523Y-71352380D02*
X104038095Y-71352380D01*
X104323809Y-71352380D02*
X104323809Y-70352380D01*
X104228571Y-70495238D01*
X104133333Y-70590476D01*
X104038095Y-70638095D01*
X105561904Y-71352380D02*
X104990476Y-71352380D01*
X105276190Y-71352380D02*
X105276190Y-70352380D01*
X105180952Y-70495238D01*
X105085714Y-70590476D01*
X104990476Y-70638095D01*
D14*
X122367857Y-104889285D02*
X122117857Y-104532142D01*
X121939285Y-104889285D02*
X121939285Y-104139285D01*
X122225000Y-104139285D01*
X122296428Y-104175000D01*
X122332142Y-104210714D01*
X122367857Y-104282142D01*
X122367857Y-104389285D01*
X122332142Y-104460714D01*
X122296428Y-104496428D01*
X122225000Y-104532142D01*
X121939285Y-104532142D01*
X123082142Y-104889285D02*
X122653571Y-104889285D01*
X122867857Y-104889285D02*
X122867857Y-104139285D01*
X122796428Y-104246428D01*
X122725000Y-104317857D01*
X122653571Y-104353571D01*
X123725000Y-104139285D02*
X123582142Y-104139285D01*
X123510714Y-104175000D01*
X123475000Y-104210714D01*
X123403571Y-104317857D01*
X123367857Y-104460714D01*
X123367857Y-104746428D01*
X123403571Y-104817857D01*
X123439285Y-104853571D01*
X123510714Y-104889285D01*
X123653571Y-104889285D01*
X123725000Y-104853571D01*
X123760714Y-104817857D01*
X123796428Y-104746428D01*
X123796428Y-104567857D01*
X123760714Y-104496428D01*
X123725000Y-104460714D01*
X123653571Y-104425000D01*
X123510714Y-104425000D01*
X123439285Y-104460714D01*
X123403571Y-104496428D01*
X123367857Y-104567857D01*
X105275000Y-95789285D02*
X104917857Y-95789285D01*
X104917857Y-95039285D01*
X105917857Y-95789285D02*
X105489285Y-95789285D01*
X105703571Y-95789285D02*
X105703571Y-95039285D01*
X105632142Y-95146428D01*
X105560714Y-95217857D01*
X105489285Y-95253571D01*
D11*
X122707142Y-71757142D02*
X122659523Y-71804761D01*
X122516666Y-71852380D01*
X122421428Y-71852380D01*
X122278571Y-71804761D01*
X122183333Y-71709523D01*
X122135714Y-71614285D01*
X122088095Y-71423809D01*
X122088095Y-71280952D01*
X122135714Y-71090476D01*
X122183333Y-70995238D01*
X122278571Y-70900000D01*
X122421428Y-70852380D01*
X122516666Y-70852380D01*
X122659523Y-70900000D01*
X122707142Y-70947619D01*
X123659523Y-71852380D02*
X123088095Y-71852380D01*
X123373809Y-71852380D02*
X123373809Y-70852380D01*
X123278571Y-70995238D01*
X123183333Y-71090476D01*
X123088095Y-71138095D01*
X123992857Y-70852380D02*
X124659523Y-70852380D01*
X124230952Y-71852380D01*
X107033333Y-66157142D02*
X106985714Y-66204761D01*
X106842857Y-66252380D01*
X106747619Y-66252380D01*
X106604761Y-66204761D01*
X106509523Y-66109523D01*
X106461904Y-66014285D01*
X106414285Y-65823809D01*
X106414285Y-65680952D01*
X106461904Y-65490476D01*
X106509523Y-65395238D01*
X106604761Y-65300000D01*
X106747619Y-65252380D01*
X106842857Y-65252380D01*
X106985714Y-65300000D01*
X107033333Y-65347619D01*
X107985714Y-66252380D02*
X107414285Y-66252380D01*
X107700000Y-66252380D02*
X107700000Y-65252380D01*
X107604761Y-65395238D01*
X107509523Y-65490476D01*
X107414285Y-65538095D01*
X90833333Y-74757142D02*
X90785714Y-74804761D01*
X90642857Y-74852380D01*
X90547619Y-74852380D01*
X90404761Y-74804761D01*
X90309523Y-74709523D01*
X90261904Y-74614285D01*
X90214285Y-74423809D01*
X90214285Y-74280952D01*
X90261904Y-74090476D01*
X90309523Y-73995238D01*
X90404761Y-73900000D01*
X90547619Y-73852380D01*
X90642857Y-73852380D01*
X90785714Y-73900000D01*
X90833333Y-73947619D01*
X91404761Y-74280952D02*
X91309523Y-74233333D01*
X91261904Y-74185714D01*
X91214285Y-74090476D01*
X91214285Y-74042857D01*
X91261904Y-73947619D01*
X91309523Y-73900000D01*
X91404761Y-73852380D01*
X91595238Y-73852380D01*
X91690476Y-73900000D01*
X91738095Y-73947619D01*
X91785714Y-74042857D01*
X91785714Y-74090476D01*
X91738095Y-74185714D01*
X91690476Y-74233333D01*
X91595238Y-74280952D01*
X91404761Y-74280952D01*
X91309523Y-74328571D01*
X91261904Y-74376190D01*
X91214285Y-74471428D01*
X91214285Y-74661904D01*
X91261904Y-74757142D01*
X91309523Y-74804761D01*
X91404761Y-74852380D01*
X91595238Y-74852380D01*
X91690476Y-74804761D01*
X91738095Y-74757142D01*
X91785714Y-74661904D01*
X91785714Y-74471428D01*
X91738095Y-74376190D01*
X91690476Y-74328571D01*
X91595238Y-74280952D01*
D14*
X129430788Y-103820168D02*
X129123514Y-104258999D01*
X129032804Y-104326281D01*
X128933324Y-104343822D01*
X128825073Y-104311623D01*
X128766562Y-104270653D01*
X130015896Y-104229865D02*
X129723342Y-104025017D01*
X129489238Y-104297086D01*
X129538978Y-104288316D01*
X129617974Y-104300030D01*
X129764251Y-104402454D01*
X129802277Y-104472679D01*
X129811047Y-104522420D01*
X129799333Y-104601415D01*
X129696909Y-104747693D01*
X129626684Y-104785719D01*
X129576943Y-104794489D01*
X129497948Y-104782775D01*
X129351670Y-104680350D01*
X129313644Y-104610125D01*
X129304874Y-104560385D01*
X108267857Y-112839285D02*
X108017857Y-112482142D01*
X107839285Y-112839285D02*
X107839285Y-112089285D01*
X108125000Y-112089285D01*
X108196428Y-112125000D01*
X108232142Y-112160714D01*
X108267857Y-112232142D01*
X108267857Y-112339285D01*
X108232142Y-112410714D01*
X108196428Y-112446428D01*
X108125000Y-112482142D01*
X107839285Y-112482142D01*
X108982142Y-112839285D02*
X108553571Y-112839285D01*
X108767857Y-112839285D02*
X108767857Y-112089285D01*
X108696428Y-112196428D01*
X108625000Y-112267857D01*
X108553571Y-112303571D01*
X109232142Y-112089285D02*
X109696428Y-112089285D01*
X109446428Y-112375000D01*
X109553571Y-112375000D01*
X109625000Y-112410714D01*
X109660714Y-112446428D01*
X109696428Y-112517857D01*
X109696428Y-112696428D01*
X109660714Y-112767857D01*
X109625000Y-112803571D01*
X109553571Y-112839285D01*
X109339285Y-112839285D01*
X109267857Y-112803571D01*
X109232142Y-112767857D01*
D11*
X99033333Y-66157142D02*
X98985714Y-66204761D01*
X98842857Y-66252380D01*
X98747619Y-66252380D01*
X98604761Y-66204761D01*
X98509523Y-66109523D01*
X98461904Y-66014285D01*
X98414285Y-65823809D01*
X98414285Y-65680952D01*
X98461904Y-65490476D01*
X98509523Y-65395238D01*
X98604761Y-65300000D01*
X98747619Y-65252380D01*
X98842857Y-65252380D01*
X98985714Y-65300000D01*
X99033333Y-65347619D01*
X99414285Y-65347619D02*
X99461904Y-65300000D01*
X99557142Y-65252380D01*
X99795238Y-65252380D01*
X99890476Y-65300000D01*
X99938095Y-65347619D01*
X99985714Y-65442857D01*
X99985714Y-65538095D01*
X99938095Y-65680952D01*
X99366666Y-66252380D01*
X99985714Y-66252380D01*
D14*
X85896428Y-116846428D02*
X85646428Y-116846428D01*
X85646428Y-117239285D02*
X85646428Y-116489285D01*
X86003571Y-116489285D01*
X86289285Y-117239285D02*
X86289285Y-116489285D01*
X86646428Y-117239285D02*
X86646428Y-116489285D01*
X86825000Y-116489285D01*
X86932142Y-116525000D01*
X87003571Y-116596428D01*
X87039285Y-116667857D01*
X87075000Y-116810714D01*
X87075000Y-116917857D01*
X87039285Y-117060714D01*
X87003571Y-117132142D01*
X86932142Y-117203571D01*
X86825000Y-117239285D01*
X86646428Y-117239285D01*
X87325000Y-116489285D02*
X87789285Y-116489285D01*
X87539285Y-116775000D01*
X87646428Y-116775000D01*
X87717857Y-116810714D01*
X87753571Y-116846428D01*
X87789285Y-116917857D01*
X87789285Y-117096428D01*
X87753571Y-117167857D01*
X87717857Y-117203571D01*
X87646428Y-117239285D01*
X87432142Y-117239285D01*
X87360714Y-117203571D01*
X87325000Y-117167857D01*
X100146428Y-34589285D02*
X100146428Y-33839285D01*
X100325000Y-33839285D01*
X100432142Y-33875000D01*
X100503571Y-33946428D01*
X100539285Y-34017857D01*
X100575000Y-34160714D01*
X100575000Y-34267857D01*
X100539285Y-34410714D01*
X100503571Y-34482142D01*
X100432142Y-34553571D01*
X100325000Y-34589285D01*
X100146428Y-34589285D01*
X100825000Y-33839285D02*
X101289285Y-33839285D01*
X101039285Y-34125000D01*
X101146428Y-34125000D01*
X101217857Y-34160714D01*
X101253571Y-34196428D01*
X101289285Y-34267857D01*
X101289285Y-34446428D01*
X101253571Y-34517857D01*
X101217857Y-34553571D01*
X101146428Y-34589285D01*
X100932142Y-34589285D01*
X100860714Y-34553571D01*
X100825000Y-34517857D01*
D11*
X89857142Y-72657142D02*
X89809523Y-72704761D01*
X89666666Y-72752380D01*
X89571428Y-72752380D01*
X89428571Y-72704761D01*
X89333333Y-72609523D01*
X89285714Y-72514285D01*
X89238095Y-72323809D01*
X89238095Y-72180952D01*
X89285714Y-71990476D01*
X89333333Y-71895238D01*
X89428571Y-71800000D01*
X89571428Y-71752380D01*
X89666666Y-71752380D01*
X89809523Y-71800000D01*
X89857142Y-71847619D01*
X90809523Y-72752380D02*
X90238095Y-72752380D01*
X90523809Y-72752380D02*
X90523809Y-71752380D01*
X90428571Y-71895238D01*
X90333333Y-71990476D01*
X90238095Y-72038095D01*
X91428571Y-71752380D02*
X91523809Y-71752380D01*
X91619047Y-71800000D01*
X91666666Y-71847619D01*
X91714285Y-71942857D01*
X91761904Y-72133333D01*
X91761904Y-72371428D01*
X91714285Y-72561904D01*
X91666666Y-72657142D01*
X91619047Y-72704761D01*
X91523809Y-72752380D01*
X91428571Y-72752380D01*
X91333333Y-72704761D01*
X91285714Y-72657142D01*
X91238095Y-72561904D01*
X91190476Y-72371428D01*
X91190476Y-72133333D01*
X91238095Y-71942857D01*
X91285714Y-71847619D01*
X91333333Y-71800000D01*
X91428571Y-71752380D01*
D14*
X100928571Y-104689285D02*
X100928571Y-105296428D01*
X100964285Y-105367857D01*
X101000000Y-105403571D01*
X101071428Y-105439285D01*
X101214285Y-105439285D01*
X101285714Y-105403571D01*
X101321428Y-105367857D01*
X101357142Y-105296428D01*
X101357142Y-104689285D01*
X102071428Y-104689285D02*
X101714285Y-104689285D01*
X101678571Y-105046428D01*
X101714285Y-105010714D01*
X101785714Y-104975000D01*
X101964285Y-104975000D01*
X102035714Y-105010714D01*
X102071428Y-105046428D01*
X102107142Y-105117857D01*
X102107142Y-105296428D01*
X102071428Y-105367857D01*
X102035714Y-105403571D01*
X101964285Y-105439285D01*
X101785714Y-105439285D01*
X101714285Y-105403571D01*
X101678571Y-105367857D01*
X87882804Y-43186357D02*
X88261611Y-43565165D01*
X88312119Y-43666180D01*
X88312119Y-43767195D01*
X88261611Y-43868210D01*
X88211104Y-43918718D01*
X88539403Y-42883312D02*
X88892956Y-43236865D01*
X88211104Y-42807550D02*
X88463642Y-43312626D01*
X88791941Y-42984327D01*
D11*
X120588095Y-73952380D02*
X121159523Y-73952380D01*
X120873809Y-74952380D02*
X120873809Y-73952380D01*
X121492857Y-74952380D02*
X121492857Y-73952380D01*
X121873809Y-73952380D01*
X121969047Y-74000000D01*
X122016666Y-74047619D01*
X122064285Y-74142857D01*
X122064285Y-74285714D01*
X122016666Y-74380952D01*
X121969047Y-74428571D01*
X121873809Y-74476190D01*
X121492857Y-74476190D01*
X122445238Y-74047619D02*
X122492857Y-74000000D01*
X122588095Y-73952380D01*
X122826190Y-73952380D01*
X122921428Y-74000000D01*
X122969047Y-74047619D01*
X123016666Y-74142857D01*
X123016666Y-74238095D01*
X122969047Y-74380952D01*
X122397619Y-74952380D01*
X123016666Y-74952380D01*
X117857142Y-71807142D02*
X117809523Y-71854761D01*
X117666666Y-71902380D01*
X117571428Y-71902380D01*
X117428571Y-71854761D01*
X117333333Y-71759523D01*
X117285714Y-71664285D01*
X117238095Y-71473809D01*
X117238095Y-71330952D01*
X117285714Y-71140476D01*
X117333333Y-71045238D01*
X117428571Y-70950000D01*
X117571428Y-70902380D01*
X117666666Y-70902380D01*
X117809523Y-70950000D01*
X117857142Y-70997619D01*
X118238095Y-70997619D02*
X118285714Y-70950000D01*
X118380952Y-70902380D01*
X118619047Y-70902380D01*
X118714285Y-70950000D01*
X118761904Y-70997619D01*
X118809523Y-71092857D01*
X118809523Y-71188095D01*
X118761904Y-71330952D01*
X118190476Y-71902380D01*
X118809523Y-71902380D01*
X119428571Y-70902380D02*
X119523809Y-70902380D01*
X119619047Y-70950000D01*
X119666666Y-70997619D01*
X119714285Y-71092857D01*
X119761904Y-71283333D01*
X119761904Y-71521428D01*
X119714285Y-71711904D01*
X119666666Y-71807142D01*
X119619047Y-71854761D01*
X119523809Y-71902380D01*
X119428571Y-71902380D01*
X119333333Y-71854761D01*
X119285714Y-71807142D01*
X119238095Y-71711904D01*
X119190476Y-71521428D01*
X119190476Y-71283333D01*
X119238095Y-71092857D01*
X119285714Y-70997619D01*
X119333333Y-70950000D01*
X119428571Y-70902380D01*
D14*
X94620238Y-106389285D02*
X94620238Y-105639285D01*
X94775000Y-105639285D01*
X94867857Y-105675000D01*
X94929761Y-105746428D01*
X94960714Y-105817857D01*
X94991666Y-105960714D01*
X94991666Y-106067857D01*
X94960714Y-106210714D01*
X94929761Y-106282142D01*
X94867857Y-106353571D01*
X94775000Y-106389285D01*
X94620238Y-106389285D01*
X95548809Y-105639285D02*
X95425000Y-105639285D01*
X95363095Y-105675000D01*
X95332142Y-105710714D01*
X95270238Y-105817857D01*
X95239285Y-105960714D01*
X95239285Y-106246428D01*
X95270238Y-106317857D01*
X95301190Y-106353571D01*
X95363095Y-106389285D01*
X95486904Y-106389285D01*
X95548809Y-106353571D01*
X95579761Y-106317857D01*
X95610714Y-106246428D01*
X95610714Y-106067857D01*
X95579761Y-105996428D01*
X95548809Y-105960714D01*
X95486904Y-105925000D01*
X95363095Y-105925000D01*
X95301190Y-105960714D01*
X95270238Y-105996428D01*
X95239285Y-106067857D01*
D10*
X126900000Y-72300000D02*
G75*
G03*
X126900000Y-72300000I-1200000J0D01*
G01*
X113535000Y-110077064D02*
X113535000Y-109622936D01*
X112065000Y-110077064D02*
X112065000Y-109622936D01*
X110488748Y-96615000D02*
X111011252Y-96615000D01*
X110488748Y-98085000D02*
X111011252Y-98085000D01*
X94038748Y-70935000D02*
X94561252Y-70935000D01*
X94038748Y-69465000D02*
X94561252Y-69465000D01*
D14*
X103750000Y-36600000D02*
G75*
G03*
X101750000Y-36600000I-1000000J0D01*
G01*
D10*
X123800000Y-68120000D02*
X121800000Y-68120000D01*
X121800000Y-65880000D02*
X122800000Y-65880000D01*
X105235000Y-40727064D02*
X105235000Y-40272936D01*
X103765000Y-40727064D02*
X103765000Y-40272936D01*
X115265000Y-68972936D02*
X115265000Y-69427064D01*
X116735000Y-68972936D02*
X116735000Y-69427064D01*
X116400000Y-96500000D02*
X116400000Y-98500000D01*
X116400000Y-96500000D02*
X120300000Y-96500000D01*
X116400000Y-98500000D02*
X120300000Y-98500000D01*
X97985000Y-71122936D02*
X97985000Y-71577064D01*
X96515000Y-71122936D02*
X96515000Y-71577064D01*
X98503335Y-73352740D02*
X98503335Y-72902740D01*
X105723335Y-80122740D02*
X105273335Y-80122740D01*
X98503335Y-79672740D02*
X98503335Y-80122740D01*
X105723335Y-73352740D02*
X105723335Y-72902740D01*
X105723335Y-79672740D02*
X105723335Y-80122740D01*
X105723335Y-72902740D02*
X105273335Y-72902740D01*
X105273335Y-72902740D02*
X105273335Y-71612740D01*
X98503335Y-80122740D02*
X98953335Y-80122740D01*
X98503335Y-72902740D02*
X98953335Y-72902740D01*
X102485000Y-40727064D02*
X102485000Y-40272936D01*
X101015000Y-40727064D02*
X101015000Y-40272936D01*
X98265000Y-40727064D02*
X98265000Y-40272936D01*
X99735000Y-40727064D02*
X99735000Y-40272936D01*
X115960000Y-104960000D02*
X114700000Y-104960000D01*
X109140000Y-104960000D02*
X110400000Y-104960000D01*
X115960000Y-98950000D02*
X115960000Y-104960000D01*
X109140000Y-101200000D02*
X109140000Y-104960000D01*
X105887740Y-70261905D02*
X105887740Y-65761905D01*
X105887740Y-65761905D02*
X100487740Y-65761905D01*
X111430000Y-59515000D02*
X111365000Y-59515000D01*
X117835000Y-59515000D02*
X117770000Y-59515000D01*
X117835000Y-55985000D02*
X117770000Y-55985000D01*
X111365000Y-55985000D02*
X111365000Y-59515000D01*
X111430000Y-55985000D02*
X111365000Y-55985000D01*
X117835000Y-55985000D02*
X117835000Y-59515000D01*
X117770000Y-54660000D02*
X117770000Y-55985000D01*
X119050000Y-84050000D02*
G75*
G03*
X119050000Y-84050000I-1200000J0D01*
G01*
X94038748Y-77865000D02*
X94561252Y-77865000D01*
X94038748Y-79335000D02*
X94561252Y-79335000D01*
X115935000Y-110089564D02*
X115935000Y-109635436D01*
X114465000Y-110089564D02*
X114465000Y-109635436D01*
X100345563Y-115560000D02*
X101410000Y-114495563D01*
X94590000Y-108740000D02*
X96940000Y-108740000D01*
X95654437Y-115560000D02*
X94590000Y-114495563D01*
X101410000Y-108740000D02*
X99060000Y-108740000D01*
X100345563Y-115560000D02*
X99060000Y-115560000D01*
X95654437Y-115560000D02*
X96940000Y-115560000D01*
X94590000Y-114495563D02*
X94590000Y-108740000D01*
X101410000Y-114495563D02*
X101410000Y-108740000D01*
X101510000Y-103260000D02*
X99160000Y-103260000D01*
X100445563Y-96440000D02*
X99160000Y-96440000D01*
X94690000Y-103260000D02*
X97040000Y-103260000D01*
X95754437Y-96440000D02*
X94690000Y-97504437D01*
X94690000Y-97504437D02*
X94690000Y-103260000D01*
X95754437Y-96440000D02*
X97040000Y-96440000D01*
X100445563Y-96440000D02*
X101510000Y-97504437D01*
X101510000Y-97504437D02*
X101510000Y-103260000D01*
X111938748Y-73065000D02*
X112461252Y-73065000D01*
X111938748Y-74535000D02*
X112461252Y-74535000D01*
X107800000Y-35000000D02*
G75*
G03*
X107800000Y-35000000I-1200000J0D01*
G01*
X120160000Y-104900000D02*
X120160000Y-104250000D01*
X120160000Y-104900000D02*
X120160000Y-105550000D01*
X117040000Y-104900000D02*
X117040000Y-106575000D01*
X117040000Y-104900000D02*
X117040000Y-104250000D01*
X109585000Y-74511252D02*
X109585000Y-73988748D01*
X108115000Y-74511252D02*
X108115000Y-73988748D01*
X91815076Y-34787868D02*
X93087869Y-33515075D01*
X93087869Y-33515075D02*
X92310051Y-32737258D01*
X92310051Y-32737258D02*
X91037258Y-34010051D01*
X91037258Y-34010051D02*
X91815076Y-34787868D01*
X115100000Y-84050000D02*
G75*
G03*
X115100000Y-84050000I-1200000J0D01*
G01*
X111972936Y-64065000D02*
X112427064Y-64065000D01*
X111972936Y-65535000D02*
X112427064Y-65535000D01*
X109238748Y-109635000D02*
X109761252Y-109635000D01*
X109238748Y-108165000D02*
X109761252Y-108165000D01*
X117020000Y-72700000D02*
X117020000Y-73700000D01*
X114780000Y-74700000D02*
X114780000Y-72700000D01*
X116630000Y-118330000D02*
X103870000Y-118330000D01*
X119230000Y-115670000D02*
X119230000Y-117000000D01*
X117900000Y-115670000D02*
X119230000Y-115670000D01*
X116630000Y-115670000D02*
X103870000Y-115670000D01*
X103870000Y-115670000D02*
X103870000Y-118330000D01*
X116630000Y-115670000D02*
X116630000Y-118330000D01*
X127077064Y-102415000D02*
X126622936Y-102415000D01*
X127077064Y-103885000D02*
X126622936Y-103885000D01*
X127740000Y-71735000D02*
X127290000Y-71735000D01*
X131710000Y-71735000D02*
X131710000Y-62265000D01*
X127290000Y-70785000D02*
X125800000Y-70785000D01*
X131260000Y-71735000D02*
X131710000Y-71735000D01*
X127290000Y-62265000D02*
X127290000Y-63215000D01*
X127290000Y-71735000D02*
X127290000Y-70785000D01*
X131710000Y-62265000D02*
X131260000Y-62265000D01*
X127740000Y-62265000D02*
X127290000Y-62265000D01*
X114088748Y-98085000D02*
X114611252Y-98085000D01*
X114088748Y-96615000D02*
X114611252Y-96615000D01*
X94038748Y-75765000D02*
X94561252Y-75765000D01*
X94038748Y-77235000D02*
X94561252Y-77235000D01*
X112427064Y-67765000D02*
X111972936Y-67765000D01*
X112427064Y-69235000D02*
X111972936Y-69235000D01*
X111938748Y-70365000D02*
X112461252Y-70365000D01*
X111938748Y-71835000D02*
X112461252Y-71835000D01*
X110100000Y-39500000D02*
X111200000Y-39500000D01*
X111200000Y-39500000D02*
X111200000Y-41300000D01*
X111200000Y-41300000D02*
X110100000Y-41300000D01*
X110100000Y-41300000D02*
X110100000Y-39500000D01*
X120735000Y-100811252D02*
X120735000Y-100288748D01*
X119265000Y-100811252D02*
X119265000Y-100288748D01*
X118135000Y-77590000D02*
X117185000Y-77590000D01*
X113665000Y-81560000D02*
X113665000Y-82010000D01*
X114615000Y-77590000D02*
X114615000Y-76100000D01*
X113665000Y-82010000D02*
X118135000Y-82010000D01*
X118135000Y-82010000D02*
X118135000Y-81560000D01*
X113665000Y-78040000D02*
X113665000Y-77590000D01*
X113665000Y-77590000D02*
X114615000Y-77590000D01*
X118135000Y-78040000D02*
X118135000Y-77590000D01*
X121250000Y-64400000D02*
G75*
G03*
X121250000Y-64400000I-1200000J0D01*
G01*
X124850000Y-101810000D02*
X126800000Y-101810000D01*
X124850000Y-101810000D02*
X122900000Y-101810000D01*
X124850000Y-96690000D02*
X126800000Y-96690000D01*
X124850000Y-96690000D02*
X121400000Y-96690000D01*
X117985000Y-100322936D02*
X117985000Y-100777064D01*
X116515000Y-100322936D02*
X116515000Y-100777064D01*
X96727064Y-80065000D02*
X96272936Y-80065000D01*
X96727064Y-81535000D02*
X96272936Y-81535000D01*
X107461252Y-72135000D02*
X106938748Y-72135000D01*
X107461252Y-70665000D02*
X106938748Y-70665000D01*
X123077064Y-103885000D02*
X122622936Y-103885000D01*
X123077064Y-102415000D02*
X122622936Y-102415000D01*
X103900000Y-103400000D02*
X102200000Y-103400000D01*
X102200000Y-103400000D02*
X102200000Y-96800000D01*
X108600000Y-103400000D02*
X106900000Y-103400000D01*
X108600000Y-96800000D02*
X108600000Y-103400000D01*
X106900000Y-96800000D02*
X108600000Y-96800000D01*
X102200000Y-96800000D02*
X103900000Y-96800000D01*
X105223335Y-79622740D02*
X104748335Y-79622740D01*
X100003335Y-74402740D02*
X100478335Y-74402740D01*
X100003335Y-79622740D02*
X100478335Y-79622740D01*
X100003335Y-79147740D02*
X100003335Y-79622740D01*
X105223335Y-79147740D02*
X105223335Y-79622740D01*
X100003335Y-74877740D02*
X100003335Y-74402740D01*
X105223335Y-74877740D02*
X105223335Y-74402740D01*
X122038748Y-70635000D02*
X122561252Y-70635000D01*
X122038748Y-69165000D02*
X122561252Y-69165000D01*
X107922740Y-67750653D02*
X107922740Y-68273157D01*
X106452740Y-67750653D02*
X106452740Y-68273157D01*
X94038748Y-73665000D02*
X94561252Y-73665000D01*
X94038748Y-75135000D02*
X94561252Y-75135000D01*
X124348715Y-117962065D02*
X131231632Y-108132240D01*
X131231632Y-108132240D02*
X128405558Y-106153402D01*
X128405558Y-106153402D02*
X121522641Y-115983227D01*
X121522641Y-115983227D02*
X124348715Y-117962065D01*
X109727064Y-110215000D02*
X109272936Y-110215000D01*
X109727064Y-111685000D02*
X109272936Y-111685000D01*
X99922740Y-68273157D02*
X99922740Y-67750653D01*
X98452740Y-68273157D02*
X98452740Y-67750653D01*
X102400000Y-35200000D02*
X103550000Y-35200000D01*
X101950000Y-33300000D02*
X103550000Y-33300000D01*
X94038748Y-73035000D02*
X94561252Y-73035000D01*
X94038748Y-71565000D02*
X94561252Y-71565000D01*
X107260000Y-107800000D02*
X107260000Y-109750000D01*
X107260000Y-107800000D02*
X107260000Y-104350000D01*
X102140000Y-107800000D02*
X102140000Y-109750000D01*
X102140000Y-107800000D02*
X102140000Y-105850000D01*
X85215076Y-41387868D02*
X86487869Y-40115075D01*
X86487869Y-40115075D02*
X85710051Y-39337258D01*
X85710051Y-39337258D02*
X84437258Y-40610051D01*
X84437258Y-40610051D02*
X85215076Y-41387868D01*
X122200000Y-72500000D02*
G75*
G03*
X122200000Y-72500000I-1200000J0D01*
G01*
X118065000Y-69461252D02*
X118065000Y-68938748D01*
X119535000Y-69461252D02*
X119535000Y-68938748D01*
X100350000Y-107050000D02*
X96450000Y-107050000D01*
X100350000Y-107050000D02*
X100350000Y-105050000D01*
X100350000Y-105050000D02*
X96450000Y-105050000D01*
M02*
