G04 #@! TF.GenerationSoftware,KiCad,Pcbnew,(6.0.1-0)*
G04 #@! TF.CreationDate,2022-08-23T11:47:08-04:00*
G04 #@! TF.ProjectId,mobo,6d6f626f-2e6b-4696-9361-645f70636258,rev?*
G04 #@! TF.SameCoordinates,Original*
G04 #@! TF.FileFunction,Legend,Top*
G04 #@! TF.FilePolarity,Positive*
%FSLAX46Y46*%
G04 Gerber Fmt 4.6, Leading zero omitted, Abs format (unit mm)*
G04 Created by KiCad (PCBNEW (6.0.1-0)) date 2022-08-23 11:47:08*
%MOMM*%
%LPD*%
G01*
G04 APERTURE LIST*
%ADD10C,0.120000*%
%ADD11C,0.300000*%
%ADD12C,0.100000*%
%ADD13C,0.150000*%
G04 APERTURE END LIST*
D10*
X94300000Y-116000000D02*
X132100000Y-116000000D01*
X94300000Y-96000000D02*
X131600000Y-96000000D01*
X124300000Y-63000000D02*
G75*
G03*
X126800000Y-60500000I0J2500000D01*
G01*
X131200000Y-99000000D02*
X131600000Y-99000000D01*
X127700000Y-73500000D02*
X120300000Y-73500000D01*
X97800000Y-63000000D02*
X97800000Y-65000000D01*
X127700000Y-60500000D02*
X126800000Y-60500000D01*
X95300000Y-67500000D02*
G75*
G03*
X97800000Y-65000000I0J2500000D01*
G01*
X92300000Y-82000000D02*
X92300000Y-67500000D01*
X94300000Y-116000000D02*
X94300000Y-96000000D01*
X104300000Y-96000000D02*
X112300000Y-96000000D01*
X95300000Y-67500000D02*
X92300000Y-67500000D01*
X120300000Y-82000000D02*
X92300000Y-82000000D01*
X124300000Y-63000000D02*
X97800000Y-63000000D01*
X120300000Y-82000000D02*
X120300000Y-73500000D01*
X131300000Y-79000000D02*
X131600000Y-79000000D01*
D11*
X95652142Y-86777857D02*
X95152142Y-86777857D01*
X95152142Y-87563571D02*
X95152142Y-86063571D01*
X95866428Y-86063571D01*
X97009285Y-87492142D02*
X96866428Y-87563571D01*
X96580714Y-87563571D01*
X96437857Y-87492142D01*
X96366428Y-87349285D01*
X96366428Y-86777857D01*
X96437857Y-86635000D01*
X96580714Y-86563571D01*
X96866428Y-86563571D01*
X97009285Y-86635000D01*
X97080714Y-86777857D01*
X97080714Y-86920714D01*
X96366428Y-87063571D01*
X98295000Y-87492142D02*
X98152142Y-87563571D01*
X97866428Y-87563571D01*
X97723571Y-87492142D01*
X97652142Y-87349285D01*
X97652142Y-86777857D01*
X97723571Y-86635000D01*
X97866428Y-86563571D01*
X98152142Y-86563571D01*
X98295000Y-86635000D01*
X98366428Y-86777857D01*
X98366428Y-86920714D01*
X97652142Y-87063571D01*
X99652142Y-87563571D02*
X99652142Y-86063571D01*
X99652142Y-87492142D02*
X99509285Y-87563571D01*
X99223571Y-87563571D01*
X99080714Y-87492142D01*
X99009285Y-87420714D01*
X98937857Y-87277857D01*
X98937857Y-86849285D01*
X99009285Y-86706428D01*
X99080714Y-86635000D01*
X99223571Y-86563571D01*
X99509285Y-86563571D01*
X99652142Y-86635000D01*
X100937857Y-87492142D02*
X100795000Y-87563571D01*
X100509285Y-87563571D01*
X100366428Y-87492142D01*
X100295000Y-87349285D01*
X100295000Y-86777857D01*
X100366428Y-86635000D01*
X100509285Y-86563571D01*
X100795000Y-86563571D01*
X100937857Y-86635000D01*
X101009285Y-86777857D01*
X101009285Y-86920714D01*
X100295000Y-87063571D01*
X101652142Y-87563571D02*
X101652142Y-86563571D01*
X101652142Y-86849285D02*
X101723571Y-86706428D01*
X101795000Y-86635000D01*
X101937857Y-86563571D01*
X102080714Y-86563571D01*
X104580714Y-87420714D02*
X104509285Y-87492142D01*
X104295000Y-87563571D01*
X104152142Y-87563571D01*
X103937857Y-87492142D01*
X103795000Y-87349285D01*
X103723571Y-87206428D01*
X103652142Y-86920714D01*
X103652142Y-86706428D01*
X103723571Y-86420714D01*
X103795000Y-86277857D01*
X103937857Y-86135000D01*
X104152142Y-86063571D01*
X104295000Y-86063571D01*
X104509285Y-86135000D01*
X104580714Y-86206428D01*
X105437857Y-87563571D02*
X105295000Y-87492142D01*
X105223571Y-87420714D01*
X105152142Y-87277857D01*
X105152142Y-86849285D01*
X105223571Y-86706428D01*
X105295000Y-86635000D01*
X105437857Y-86563571D01*
X105652142Y-86563571D01*
X105795000Y-86635000D01*
X105866428Y-86706428D01*
X105937857Y-86849285D01*
X105937857Y-87277857D01*
X105866428Y-87420714D01*
X105795000Y-87492142D01*
X105652142Y-87563571D01*
X105437857Y-87563571D01*
X106580714Y-86563571D02*
X106580714Y-87563571D01*
X106580714Y-86706428D02*
X106652142Y-86635000D01*
X106795000Y-86563571D01*
X107009285Y-86563571D01*
X107152142Y-86635000D01*
X107223571Y-86777857D01*
X107223571Y-87563571D01*
X107723571Y-86563571D02*
X108295000Y-86563571D01*
X107937857Y-86063571D02*
X107937857Y-87349285D01*
X108009285Y-87492142D01*
X108152142Y-87563571D01*
X108295000Y-87563571D01*
X108795000Y-87563571D02*
X108795000Y-86563571D01*
X108795000Y-86849285D02*
X108866428Y-86706428D01*
X108937857Y-86635000D01*
X109080714Y-86563571D01*
X109223571Y-86563571D01*
X109937857Y-87563571D02*
X109795000Y-87492142D01*
X109723571Y-87420714D01*
X109652142Y-87277857D01*
X109652142Y-86849285D01*
X109723571Y-86706428D01*
X109795000Y-86635000D01*
X109937857Y-86563571D01*
X110152142Y-86563571D01*
X110295000Y-86635000D01*
X110366428Y-86706428D01*
X110437857Y-86849285D01*
X110437857Y-87277857D01*
X110366428Y-87420714D01*
X110295000Y-87492142D01*
X110152142Y-87563571D01*
X109937857Y-87563571D01*
X111295000Y-87563571D02*
X111152142Y-87492142D01*
X111080714Y-87349285D01*
X111080714Y-86063571D01*
X112080714Y-87563571D02*
X111937857Y-87492142D01*
X111866428Y-87349285D01*
X111866428Y-86063571D01*
X113223571Y-87492142D02*
X113080714Y-87563571D01*
X112795000Y-87563571D01*
X112652142Y-87492142D01*
X112580714Y-87349285D01*
X112580714Y-86777857D01*
X112652142Y-86635000D01*
X112795000Y-86563571D01*
X113080714Y-86563571D01*
X113223571Y-86635000D01*
X113295000Y-86777857D01*
X113295000Y-86920714D01*
X112580714Y-87063571D01*
X113937857Y-87563571D02*
X113937857Y-86563571D01*
X113937857Y-86849285D02*
X114009285Y-86706428D01*
X114080714Y-86635000D01*
X114223571Y-86563571D01*
X114366428Y-86563571D01*
X96009285Y-89978571D02*
X95509285Y-89264285D01*
X95152142Y-89978571D02*
X95152142Y-88478571D01*
X95723571Y-88478571D01*
X95866428Y-88550000D01*
X95937857Y-88621428D01*
X96009285Y-88764285D01*
X96009285Y-88978571D01*
X95937857Y-89121428D01*
X95866428Y-89192857D01*
X95723571Y-89264285D01*
X95152142Y-89264285D01*
X96652142Y-89192857D02*
X97152142Y-89192857D01*
X97366428Y-89978571D02*
X96652142Y-89978571D01*
X96652142Y-88478571D01*
X97366428Y-88478571D01*
X97795000Y-88478571D02*
X98295000Y-89978571D01*
X98795000Y-88478571D01*
X99580714Y-88478571D02*
X99723571Y-88478571D01*
X99866428Y-88550000D01*
X99937857Y-88621428D01*
X100009285Y-88764285D01*
X100080714Y-89050000D01*
X100080714Y-89407142D01*
X100009285Y-89692857D01*
X99937857Y-89835714D01*
X99866428Y-89907142D01*
X99723571Y-89978571D01*
X99580714Y-89978571D01*
X99437857Y-89907142D01*
X99366428Y-89835714D01*
X99295000Y-89692857D01*
X99223571Y-89407142D01*
X99223571Y-89050000D01*
X99295000Y-88764285D01*
X99366428Y-88621428D01*
X99437857Y-88550000D01*
X99580714Y-88478571D01*
X100580714Y-88478571D02*
X101580714Y-88478571D01*
X100937857Y-89978571D01*
X95437857Y-90893571D02*
X95723571Y-90893571D01*
X95866428Y-90965000D01*
X96009285Y-91107857D01*
X96080714Y-91393571D01*
X96080714Y-91893571D01*
X96009285Y-92179285D01*
X95866428Y-92322142D01*
X95723571Y-92393571D01*
X95437857Y-92393571D01*
X95295000Y-92322142D01*
X95152142Y-92179285D01*
X95080714Y-91893571D01*
X95080714Y-91393571D01*
X95152142Y-91107857D01*
X95295000Y-90965000D01*
X95437857Y-90893571D01*
X96723571Y-91393571D02*
X96723571Y-92893571D01*
X96723571Y-91465000D02*
X96866428Y-91393571D01*
X97152142Y-91393571D01*
X97295000Y-91465000D01*
X97366428Y-91536428D01*
X97437857Y-91679285D01*
X97437857Y-92107857D01*
X97366428Y-92250714D01*
X97295000Y-92322142D01*
X97152142Y-92393571D01*
X96866428Y-92393571D01*
X96723571Y-92322142D01*
X98723571Y-91393571D02*
X98723571Y-92393571D01*
X98080714Y-91393571D02*
X98080714Y-92179285D01*
X98152142Y-92322142D01*
X98295000Y-92393571D01*
X98509285Y-92393571D01*
X98652142Y-92322142D01*
X98723571Y-92250714D01*
X99652142Y-92393571D02*
X99509285Y-92322142D01*
X99437857Y-92179285D01*
X99437857Y-90893571D01*
X100437857Y-92393571D02*
X100295000Y-92322142D01*
X100223571Y-92250714D01*
X100152142Y-92107857D01*
X100152142Y-91679285D01*
X100223571Y-91536428D01*
X100295000Y-91465000D01*
X100437857Y-91393571D01*
X100652142Y-91393571D01*
X100795000Y-91465000D01*
X100866428Y-91536428D01*
X100937857Y-91679285D01*
X100937857Y-92107857D01*
X100866428Y-92250714D01*
X100795000Y-92322142D01*
X100652142Y-92393571D01*
X100437857Y-92393571D01*
X102723571Y-92393571D02*
X102723571Y-90893571D01*
X103437857Y-91393571D02*
X103437857Y-92393571D01*
X103437857Y-91536428D02*
X103509285Y-91465000D01*
X103652142Y-91393571D01*
X103866428Y-91393571D01*
X104009285Y-91465000D01*
X104080714Y-91607857D01*
X104080714Y-92393571D01*
X105437857Y-92322142D02*
X105295000Y-92393571D01*
X105009285Y-92393571D01*
X104866428Y-92322142D01*
X104795000Y-92250714D01*
X104723571Y-92107857D01*
X104723571Y-91679285D01*
X104795000Y-91536428D01*
X104866428Y-91465000D01*
X105009285Y-91393571D01*
X105295000Y-91393571D01*
X105437857Y-91465000D01*
X106080714Y-92250714D02*
X106152142Y-92322142D01*
X106080714Y-92393571D01*
X106009285Y-92322142D01*
X106080714Y-92250714D01*
X106080714Y-92393571D01*
D12*
X119616666Y-37326190D02*
X119450000Y-37088095D01*
X119330952Y-37326190D02*
X119330952Y-36826190D01*
X119521428Y-36826190D01*
X119569047Y-36850000D01*
X119592857Y-36873809D01*
X119616666Y-36921428D01*
X119616666Y-36992857D01*
X119592857Y-37040476D01*
X119569047Y-37064285D01*
X119521428Y-37088095D01*
X119330952Y-37088095D01*
X119902380Y-37040476D02*
X119854761Y-37016666D01*
X119830952Y-36992857D01*
X119807142Y-36945238D01*
X119807142Y-36921428D01*
X119830952Y-36873809D01*
X119854761Y-36850000D01*
X119902380Y-36826190D01*
X119997619Y-36826190D01*
X120045238Y-36850000D01*
X120069047Y-36873809D01*
X120092857Y-36921428D01*
X120092857Y-36945238D01*
X120069047Y-36992857D01*
X120045238Y-37016666D01*
X119997619Y-37040476D01*
X119902380Y-37040476D01*
X119854761Y-37064285D01*
X119830952Y-37088095D01*
X119807142Y-37135714D01*
X119807142Y-37230952D01*
X119830952Y-37278571D01*
X119854761Y-37302380D01*
X119902380Y-37326190D01*
X119997619Y-37326190D01*
X120045238Y-37302380D01*
X120069047Y-37278571D01*
X120092857Y-37230952D01*
X120092857Y-37135714D01*
X120069047Y-37088095D01*
X120045238Y-37064285D01*
X119997619Y-37040476D01*
D13*
X99533333Y-108952380D02*
X99200000Y-108476190D01*
X98961904Y-108952380D02*
X98961904Y-107952380D01*
X99342857Y-107952380D01*
X99438095Y-108000000D01*
X99485714Y-108047619D01*
X99533333Y-108142857D01*
X99533333Y-108285714D01*
X99485714Y-108380952D01*
X99438095Y-108428571D01*
X99342857Y-108476190D01*
X98961904Y-108476190D01*
X100009523Y-108952380D02*
X100200000Y-108952380D01*
X100295238Y-108904761D01*
X100342857Y-108857142D01*
X100438095Y-108714285D01*
X100485714Y-108523809D01*
X100485714Y-108142857D01*
X100438095Y-108047619D01*
X100390476Y-108000000D01*
X100295238Y-107952380D01*
X100104761Y-107952380D01*
X100009523Y-108000000D01*
X99961904Y-108047619D01*
X99914285Y-108142857D01*
X99914285Y-108380952D01*
X99961904Y-108476190D01*
X100009523Y-108523809D01*
X100104761Y-108571428D01*
X100295238Y-108571428D01*
X100390476Y-108523809D01*
X100438095Y-108476190D01*
X100485714Y-108380952D01*
X110633333Y-95557142D02*
X110585714Y-95604761D01*
X110442857Y-95652380D01*
X110347619Y-95652380D01*
X110204761Y-95604761D01*
X110109523Y-95509523D01*
X110061904Y-95414285D01*
X110014285Y-95223809D01*
X110014285Y-95080952D01*
X110061904Y-94890476D01*
X110109523Y-94795238D01*
X110204761Y-94700000D01*
X110347619Y-94652380D01*
X110442857Y-94652380D01*
X110585714Y-94700000D01*
X110633333Y-94747619D01*
X111109523Y-95652380D02*
X111300000Y-95652380D01*
X111395238Y-95604761D01*
X111442857Y-95557142D01*
X111538095Y-95414285D01*
X111585714Y-95223809D01*
X111585714Y-94842857D01*
X111538095Y-94747619D01*
X111490476Y-94700000D01*
X111395238Y-94652380D01*
X111204761Y-94652380D01*
X111109523Y-94700000D01*
X111061904Y-94747619D01*
X111014285Y-94842857D01*
X111014285Y-95080952D01*
X111061904Y-95176190D01*
X111109523Y-95223809D01*
X111204761Y-95271428D01*
X111395238Y-95271428D01*
X111490476Y-95223809D01*
X111538095Y-95176190D01*
X111585714Y-95080952D01*
X90733333Y-70557142D02*
X90685714Y-70604761D01*
X90542857Y-70652380D01*
X90447619Y-70652380D01*
X90304761Y-70604761D01*
X90209523Y-70509523D01*
X90161904Y-70414285D01*
X90114285Y-70223809D01*
X90114285Y-70080952D01*
X90161904Y-69890476D01*
X90209523Y-69795238D01*
X90304761Y-69700000D01*
X90447619Y-69652380D01*
X90542857Y-69652380D01*
X90685714Y-69700000D01*
X90733333Y-69747619D01*
X91590476Y-69985714D02*
X91590476Y-70652380D01*
X91352380Y-69604761D02*
X91114285Y-70319047D01*
X91733333Y-70319047D01*
X121638095Y-64652380D02*
X121638095Y-65461904D01*
X121685714Y-65557142D01*
X121733333Y-65604761D01*
X121828571Y-65652380D01*
X122019047Y-65652380D01*
X122114285Y-65604761D01*
X122161904Y-65557142D01*
X122209523Y-65461904D01*
X122209523Y-64652380D01*
X122590476Y-64652380D02*
X123257142Y-64652380D01*
X122828571Y-65652380D01*
X115357142Y-67552380D02*
X115023809Y-67076190D01*
X114785714Y-67552380D02*
X114785714Y-66552380D01*
X115166666Y-66552380D01*
X115261904Y-66600000D01*
X115309523Y-66647619D01*
X115357142Y-66742857D01*
X115357142Y-66885714D01*
X115309523Y-66980952D01*
X115261904Y-67028571D01*
X115166666Y-67076190D01*
X114785714Y-67076190D01*
X116309523Y-67552380D02*
X115738095Y-67552380D01*
X116023809Y-67552380D02*
X116023809Y-66552380D01*
X115928571Y-66695238D01*
X115833333Y-66790476D01*
X115738095Y-66838095D01*
X116928571Y-66552380D02*
X117023809Y-66552380D01*
X117119047Y-66600000D01*
X117166666Y-66647619D01*
X117214285Y-66742857D01*
X117261904Y-66933333D01*
X117261904Y-67171428D01*
X117214285Y-67361904D01*
X117166666Y-67457142D01*
X117119047Y-67504761D01*
X117023809Y-67552380D01*
X116928571Y-67552380D01*
X116833333Y-67504761D01*
X116785714Y-67457142D01*
X116738095Y-67361904D01*
X116690476Y-67171428D01*
X116690476Y-66933333D01*
X116738095Y-66742857D01*
X116785714Y-66647619D01*
X116833333Y-66600000D01*
X116928571Y-66552380D01*
D12*
X105538692Y-80509168D02*
X105538692Y-80994882D01*
X105567263Y-81052025D01*
X105595835Y-81080597D01*
X105652977Y-81109168D01*
X105767263Y-81109168D01*
X105824406Y-81080597D01*
X105852977Y-81052025D01*
X105881549Y-80994882D01*
X105881549Y-80509168D01*
X106481549Y-81109168D02*
X106138692Y-81109168D01*
X106310120Y-81109168D02*
X106310120Y-80509168D01*
X106252977Y-80594882D01*
X106195835Y-80652025D01*
X106138692Y-80680597D01*
X104816666Y-37326190D02*
X104650000Y-37088095D01*
X104530952Y-37326190D02*
X104530952Y-36826190D01*
X104721428Y-36826190D01*
X104769047Y-36850000D01*
X104792857Y-36873809D01*
X104816666Y-36921428D01*
X104816666Y-36992857D01*
X104792857Y-37040476D01*
X104769047Y-37064285D01*
X104721428Y-37088095D01*
X104530952Y-37088095D01*
X104983333Y-36826190D02*
X105292857Y-36826190D01*
X105126190Y-37016666D01*
X105197619Y-37016666D01*
X105245238Y-37040476D01*
X105269047Y-37064285D01*
X105292857Y-37111904D01*
X105292857Y-37230952D01*
X105269047Y-37278571D01*
X105245238Y-37302380D01*
X105197619Y-37326190D01*
X105054761Y-37326190D01*
X105007142Y-37302380D01*
X104983333Y-37278571D01*
D13*
X108802380Y-35088095D02*
X107802380Y-35088095D01*
X107802380Y-34850000D01*
X107850000Y-34707142D01*
X107945238Y-34611904D01*
X108040476Y-34564285D01*
X108230952Y-34516666D01*
X108373809Y-34516666D01*
X108564285Y-34564285D01*
X108659523Y-34611904D01*
X108754761Y-34707142D01*
X108802380Y-34850000D01*
X108802380Y-35088095D01*
X107802380Y-34183333D02*
X107802380Y-33564285D01*
X108183333Y-33897619D01*
X108183333Y-33754761D01*
X108230952Y-33659523D01*
X108278571Y-33611904D01*
X108373809Y-33564285D01*
X108611904Y-33564285D01*
X108707142Y-33611904D01*
X108754761Y-33659523D01*
X108802380Y-33754761D01*
X108802380Y-34040476D01*
X108754761Y-34135714D01*
X108707142Y-34183333D01*
D12*
X99816666Y-37326190D02*
X99650000Y-37088095D01*
X99530952Y-37326190D02*
X99530952Y-36826190D01*
X99721428Y-36826190D01*
X99769047Y-36850000D01*
X99792857Y-36873809D01*
X99816666Y-36921428D01*
X99816666Y-36992857D01*
X99792857Y-37040476D01*
X99769047Y-37064285D01*
X99721428Y-37088095D01*
X99530952Y-37088095D01*
X100007142Y-36873809D02*
X100030952Y-36850000D01*
X100078571Y-36826190D01*
X100197619Y-36826190D01*
X100245238Y-36850000D01*
X100269047Y-36873809D01*
X100292857Y-36921428D01*
X100292857Y-36969047D01*
X100269047Y-37040476D01*
X99983333Y-37326190D01*
X100292857Y-37326190D01*
D13*
X115138095Y-105652380D02*
X115138095Y-106461904D01*
X115185714Y-106557142D01*
X115233333Y-106604761D01*
X115328571Y-106652380D01*
X115519047Y-106652380D01*
X115614285Y-106604761D01*
X115661904Y-106557142D01*
X115709523Y-106461904D01*
X115709523Y-105652380D01*
X116614285Y-105985714D02*
X116614285Y-106652380D01*
X116376190Y-105604761D02*
X116138095Y-106319047D01*
X116757142Y-106319047D01*
X102561549Y-64938095D02*
X102561549Y-65414285D01*
X102228216Y-64414285D02*
X102561549Y-64938095D01*
X102894882Y-64414285D01*
X103752025Y-65414285D02*
X103180597Y-65414285D01*
X103466311Y-65414285D02*
X103466311Y-64414285D01*
X103371073Y-64557143D01*
X103275835Y-64652381D01*
X103180597Y-64700000D01*
X90733333Y-78957142D02*
X90685714Y-79004761D01*
X90542857Y-79052380D01*
X90447619Y-79052380D01*
X90304761Y-79004761D01*
X90209523Y-78909523D01*
X90161904Y-78814285D01*
X90114285Y-78623809D01*
X90114285Y-78480952D01*
X90161904Y-78290476D01*
X90209523Y-78195238D01*
X90304761Y-78100000D01*
X90447619Y-78052380D01*
X90542857Y-78052380D01*
X90685714Y-78100000D01*
X90733333Y-78147619D01*
X91066666Y-78052380D02*
X91733333Y-78052380D01*
X91304761Y-79052380D01*
X99533333Y-107552380D02*
X99200000Y-107076190D01*
X98961904Y-107552380D02*
X98961904Y-106552380D01*
X99342857Y-106552380D01*
X99438095Y-106600000D01*
X99485714Y-106647619D01*
X99533333Y-106742857D01*
X99533333Y-106885714D01*
X99485714Y-106980952D01*
X99438095Y-107028571D01*
X99342857Y-107076190D01*
X98961904Y-107076190D01*
X100390476Y-106552380D02*
X100200000Y-106552380D01*
X100104761Y-106600000D01*
X100057142Y-106647619D01*
X99961904Y-106790476D01*
X99914285Y-106980952D01*
X99914285Y-107361904D01*
X99961904Y-107457142D01*
X100009523Y-107504761D01*
X100104761Y-107552380D01*
X100295238Y-107552380D01*
X100390476Y-107504761D01*
X100438095Y-107457142D01*
X100485714Y-107361904D01*
X100485714Y-107123809D01*
X100438095Y-107028571D01*
X100390476Y-106980952D01*
X100295238Y-106933333D01*
X100104761Y-106933333D01*
X100009523Y-106980952D01*
X99961904Y-107028571D01*
X99914285Y-107123809D01*
D12*
X114716666Y-37326190D02*
X114550000Y-37088095D01*
X114430952Y-37326190D02*
X114430952Y-36826190D01*
X114621428Y-36826190D01*
X114669047Y-36850000D01*
X114692857Y-36873809D01*
X114716666Y-36921428D01*
X114716666Y-36992857D01*
X114692857Y-37040476D01*
X114669047Y-37064285D01*
X114621428Y-37088095D01*
X114430952Y-37088095D01*
X114883333Y-36826190D02*
X115216666Y-36826190D01*
X115002380Y-37326190D01*
X129278571Y-37426190D02*
X129111904Y-37188095D01*
X128992857Y-37426190D02*
X128992857Y-36926190D01*
X129183333Y-36926190D01*
X129230952Y-36950000D01*
X129254761Y-36973809D01*
X129278571Y-37021428D01*
X129278571Y-37092857D01*
X129254761Y-37140476D01*
X129230952Y-37164285D01*
X129183333Y-37188095D01*
X128992857Y-37188095D01*
X129754761Y-37426190D02*
X129469047Y-37426190D01*
X129611904Y-37426190D02*
X129611904Y-36926190D01*
X129564285Y-36997619D01*
X129516666Y-37045238D01*
X129469047Y-37069047D01*
X129945238Y-36973809D02*
X129969047Y-36950000D01*
X130016666Y-36926190D01*
X130135714Y-36926190D01*
X130183333Y-36950000D01*
X130207142Y-36973809D01*
X130230952Y-37021428D01*
X130230952Y-37069047D01*
X130207142Y-37140476D01*
X129921428Y-37426190D01*
X130230952Y-37426190D01*
D13*
X91857142Y-112557142D02*
X91809523Y-112604761D01*
X91666666Y-112652380D01*
X91571428Y-112652380D01*
X91428571Y-112604761D01*
X91333333Y-112509523D01*
X91285714Y-112414285D01*
X91238095Y-112223809D01*
X91238095Y-112080952D01*
X91285714Y-111890476D01*
X91333333Y-111795238D01*
X91428571Y-111700000D01*
X91571428Y-111652380D01*
X91666666Y-111652380D01*
X91809523Y-111700000D01*
X91857142Y-111747619D01*
X92809523Y-112652380D02*
X92238095Y-112652380D01*
X92523809Y-112652380D02*
X92523809Y-111652380D01*
X92428571Y-111795238D01*
X92333333Y-111890476D01*
X92238095Y-111938095D01*
X93190476Y-111747619D02*
X93238095Y-111700000D01*
X93333333Y-111652380D01*
X93571428Y-111652380D01*
X93666666Y-111700000D01*
X93714285Y-111747619D01*
X93761904Y-111842857D01*
X93761904Y-111938095D01*
X93714285Y-112080952D01*
X93142857Y-112652380D01*
X93761904Y-112652380D01*
X91857142Y-100257142D02*
X91809523Y-100304761D01*
X91666666Y-100352380D01*
X91571428Y-100352380D01*
X91428571Y-100304761D01*
X91333333Y-100209523D01*
X91285714Y-100114285D01*
X91238095Y-99923809D01*
X91238095Y-99780952D01*
X91285714Y-99590476D01*
X91333333Y-99495238D01*
X91428571Y-99400000D01*
X91571428Y-99352380D01*
X91666666Y-99352380D01*
X91809523Y-99400000D01*
X91857142Y-99447619D01*
X92809523Y-100352380D02*
X92238095Y-100352380D01*
X92523809Y-100352380D02*
X92523809Y-99352380D01*
X92428571Y-99495238D01*
X92333333Y-99590476D01*
X92238095Y-99638095D01*
X93666666Y-99352380D02*
X93476190Y-99352380D01*
X93380952Y-99400000D01*
X93333333Y-99447619D01*
X93238095Y-99590476D01*
X93190476Y-99780952D01*
X93190476Y-100161904D01*
X93238095Y-100257142D01*
X93285714Y-100304761D01*
X93380952Y-100352380D01*
X93571428Y-100352380D01*
X93666666Y-100304761D01*
X93714285Y-100257142D01*
X93761904Y-100161904D01*
X93761904Y-99923809D01*
X93714285Y-99828571D01*
X93666666Y-99780952D01*
X93571428Y-99733333D01*
X93380952Y-99733333D01*
X93285714Y-99780952D01*
X93238095Y-99828571D01*
X93190476Y-99923809D01*
X111557142Y-75757142D02*
X111509523Y-75804761D01*
X111366666Y-75852380D01*
X111271428Y-75852380D01*
X111128571Y-75804761D01*
X111033333Y-75709523D01*
X110985714Y-75614285D01*
X110938095Y-75423809D01*
X110938095Y-75280952D01*
X110985714Y-75090476D01*
X111033333Y-74995238D01*
X111128571Y-74900000D01*
X111271428Y-74852380D01*
X111366666Y-74852380D01*
X111509523Y-74900000D01*
X111557142Y-74947619D01*
X112509523Y-75852380D02*
X111938095Y-75852380D01*
X112223809Y-75852380D02*
X112223809Y-74852380D01*
X112128571Y-74995238D01*
X112033333Y-75090476D01*
X111938095Y-75138095D01*
X112985714Y-75852380D02*
X113176190Y-75852380D01*
X113271428Y-75804761D01*
X113319047Y-75757142D01*
X113414285Y-75614285D01*
X113461904Y-75423809D01*
X113461904Y-75042857D01*
X113414285Y-74947619D01*
X113366666Y-74900000D01*
X113271428Y-74852380D01*
X113080952Y-74852380D01*
X112985714Y-74900000D01*
X112938095Y-74947619D01*
X112890476Y-75042857D01*
X112890476Y-75280952D01*
X112938095Y-75376190D01*
X112985714Y-75423809D01*
X113080952Y-75471428D01*
X113271428Y-75471428D01*
X113366666Y-75423809D01*
X113414285Y-75376190D01*
X113461904Y-75280952D01*
X126128571Y-93828571D02*
X125795238Y-93828571D01*
X125795238Y-94352380D02*
X125795238Y-93352380D01*
X126271428Y-93352380D01*
X126652380Y-94352380D02*
X126652380Y-93352380D01*
X127128571Y-94352380D02*
X127128571Y-93352380D01*
X127366666Y-93352380D01*
X127509523Y-93400000D01*
X127604761Y-93495238D01*
X127652380Y-93590476D01*
X127700000Y-93780952D01*
X127700000Y-93923809D01*
X127652380Y-94114285D01*
X127604761Y-94209523D01*
X127509523Y-94304761D01*
X127366666Y-94352380D01*
X127128571Y-94352380D01*
X128080952Y-93447619D02*
X128128571Y-93400000D01*
X128223809Y-93352380D01*
X128461904Y-93352380D01*
X128557142Y-93400000D01*
X128604761Y-93447619D01*
X128652380Y-93542857D01*
X128652380Y-93638095D01*
X128604761Y-93780952D01*
X128033333Y-94352380D01*
X128652380Y-94352380D01*
D12*
X124516666Y-37426190D02*
X124350000Y-37188095D01*
X124230952Y-37426190D02*
X124230952Y-36926190D01*
X124421428Y-36926190D01*
X124469047Y-36950000D01*
X124492857Y-36973809D01*
X124516666Y-37021428D01*
X124516666Y-37092857D01*
X124492857Y-37140476D01*
X124469047Y-37164285D01*
X124421428Y-37188095D01*
X124230952Y-37188095D01*
X124945238Y-37092857D02*
X124945238Y-37426190D01*
X124826190Y-36902380D02*
X124707142Y-37259523D01*
X125016666Y-37259523D01*
D13*
X108233333Y-77157142D02*
X108185714Y-77204761D01*
X108042857Y-77252380D01*
X107947619Y-77252380D01*
X107804761Y-77204761D01*
X107709523Y-77109523D01*
X107661904Y-77014285D01*
X107614285Y-76823809D01*
X107614285Y-76680952D01*
X107661904Y-76490476D01*
X107709523Y-76395238D01*
X107804761Y-76300000D01*
X107947619Y-76252380D01*
X108042857Y-76252380D01*
X108185714Y-76300000D01*
X108233333Y-76347619D01*
X108566666Y-76252380D02*
X109185714Y-76252380D01*
X108852380Y-76633333D01*
X108995238Y-76633333D01*
X109090476Y-76680952D01*
X109138095Y-76728571D01*
X109185714Y-76823809D01*
X109185714Y-77061904D01*
X109138095Y-77157142D01*
X109090476Y-77204761D01*
X108995238Y-77252380D01*
X108709523Y-77252380D01*
X108614285Y-77204761D01*
X108566666Y-77157142D01*
X93577072Y-39648477D02*
X94082148Y-40153553D01*
X94149492Y-40288240D01*
X94149492Y-40422927D01*
X94082148Y-40557614D01*
X94014805Y-40624957D01*
X94216835Y-39008713D02*
X94082148Y-39143400D01*
X94048477Y-39244416D01*
X94048477Y-39311759D01*
X94082148Y-39480118D01*
X94183164Y-39648477D01*
X94452538Y-39917851D01*
X94553553Y-39951522D01*
X94620896Y-39951522D01*
X94721912Y-39917851D01*
X94856599Y-39783164D01*
X94890270Y-39682148D01*
X94890270Y-39614805D01*
X94856599Y-39513790D01*
X94688240Y-39345431D01*
X94587225Y-39311759D01*
X94519881Y-39311759D01*
X94418866Y-39345431D01*
X94284179Y-39480118D01*
X94250507Y-39581133D01*
X94250507Y-39648477D01*
X94284179Y-39749492D01*
X91757142Y-107657142D02*
X91709523Y-107704761D01*
X91566666Y-107752380D01*
X91471428Y-107752380D01*
X91328571Y-107704761D01*
X91233333Y-107609523D01*
X91185714Y-107514285D01*
X91138095Y-107323809D01*
X91138095Y-107180952D01*
X91185714Y-106990476D01*
X91233333Y-106895238D01*
X91328571Y-106800000D01*
X91471428Y-106752380D01*
X91566666Y-106752380D01*
X91709523Y-106800000D01*
X91757142Y-106847619D01*
X92709523Y-107752380D02*
X92138095Y-107752380D01*
X92423809Y-107752380D02*
X92423809Y-106752380D01*
X92328571Y-106895238D01*
X92233333Y-106990476D01*
X92138095Y-107038095D01*
X93566666Y-107085714D02*
X93566666Y-107752380D01*
X93328571Y-106704761D02*
X93090476Y-107419047D01*
X93709523Y-107419047D01*
X117438095Y-74552380D02*
X117438095Y-75361904D01*
X117485714Y-75457142D01*
X117533333Y-75504761D01*
X117628571Y-75552380D01*
X117819047Y-75552380D01*
X117914285Y-75504761D01*
X117961904Y-75457142D01*
X118009523Y-75361904D01*
X118009523Y-74552380D01*
X118628571Y-74980952D02*
X118533333Y-74933333D01*
X118485714Y-74885714D01*
X118438095Y-74790476D01*
X118438095Y-74742857D01*
X118485714Y-74647619D01*
X118533333Y-74600000D01*
X118628571Y-74552380D01*
X118819047Y-74552380D01*
X118914285Y-74600000D01*
X118961904Y-74647619D01*
X119009523Y-74742857D01*
X119009523Y-74790476D01*
X118961904Y-74885714D01*
X118914285Y-74933333D01*
X118819047Y-74980952D01*
X118628571Y-74980952D01*
X118533333Y-75028571D01*
X118485714Y-75076190D01*
X118438095Y-75171428D01*
X118438095Y-75361904D01*
X118485714Y-75457142D01*
X118533333Y-75504761D01*
X118628571Y-75552380D01*
X118819047Y-75552380D01*
X118914285Y-75504761D01*
X118961904Y-75457142D01*
X119009523Y-75361904D01*
X119009523Y-75171428D01*
X118961904Y-75076190D01*
X118914285Y-75028571D01*
X118819047Y-74980952D01*
X125766666Y-71452380D02*
X125766666Y-72166666D01*
X125719047Y-72309523D01*
X125623809Y-72404761D01*
X125480952Y-72452380D01*
X125385714Y-72452380D01*
X126147619Y-71452380D02*
X126766666Y-71452380D01*
X126433333Y-71833333D01*
X126576190Y-71833333D01*
X126671428Y-71880952D01*
X126719047Y-71928571D01*
X126766666Y-72023809D01*
X126766666Y-72261904D01*
X126719047Y-72357142D01*
X126671428Y-72404761D01*
X126576190Y-72452380D01*
X126290476Y-72452380D01*
X126195238Y-72404761D01*
X126147619Y-72357142D01*
X113857142Y-95557142D02*
X113809523Y-95604761D01*
X113666666Y-95652380D01*
X113571428Y-95652380D01*
X113428571Y-95604761D01*
X113333333Y-95509523D01*
X113285714Y-95414285D01*
X113238095Y-95223809D01*
X113238095Y-95080952D01*
X113285714Y-94890476D01*
X113333333Y-94795238D01*
X113428571Y-94700000D01*
X113571428Y-94652380D01*
X113666666Y-94652380D01*
X113809523Y-94700000D01*
X113857142Y-94747619D01*
X114809523Y-95652380D02*
X114238095Y-95652380D01*
X114523809Y-95652380D02*
X114523809Y-94652380D01*
X114428571Y-94795238D01*
X114333333Y-94890476D01*
X114238095Y-94938095D01*
X115142857Y-94652380D02*
X115761904Y-94652380D01*
X115428571Y-95033333D01*
X115571428Y-95033333D01*
X115666666Y-95080952D01*
X115714285Y-95128571D01*
X115761904Y-95223809D01*
X115761904Y-95461904D01*
X115714285Y-95557142D01*
X115666666Y-95604761D01*
X115571428Y-95652380D01*
X115285714Y-95652380D01*
X115190476Y-95604761D01*
X115142857Y-95557142D01*
X90833333Y-76857142D02*
X90785714Y-76904761D01*
X90642857Y-76952380D01*
X90547619Y-76952380D01*
X90404761Y-76904761D01*
X90309523Y-76809523D01*
X90261904Y-76714285D01*
X90214285Y-76523809D01*
X90214285Y-76380952D01*
X90261904Y-76190476D01*
X90309523Y-76095238D01*
X90404761Y-76000000D01*
X90547619Y-75952380D01*
X90642857Y-75952380D01*
X90785714Y-76000000D01*
X90833333Y-76047619D01*
X91738095Y-75952380D02*
X91261904Y-75952380D01*
X91214285Y-76428571D01*
X91261904Y-76380952D01*
X91357142Y-76333333D01*
X91595238Y-76333333D01*
X91690476Y-76380952D01*
X91738095Y-76428571D01*
X91785714Y-76523809D01*
X91785714Y-76761904D01*
X91738095Y-76857142D01*
X91690476Y-76904761D01*
X91595238Y-76952380D01*
X91357142Y-76952380D01*
X91261904Y-76904761D01*
X91214285Y-76857142D01*
X111557142Y-67552380D02*
X111223809Y-67076190D01*
X110985714Y-67552380D02*
X110985714Y-66552380D01*
X111366666Y-66552380D01*
X111461904Y-66600000D01*
X111509523Y-66647619D01*
X111557142Y-66742857D01*
X111557142Y-66885714D01*
X111509523Y-66980952D01*
X111461904Y-67028571D01*
X111366666Y-67076190D01*
X110985714Y-67076190D01*
X112509523Y-67552380D02*
X111938095Y-67552380D01*
X112223809Y-67552380D02*
X112223809Y-66552380D01*
X112128571Y-66695238D01*
X112033333Y-66790476D01*
X111938095Y-66838095D01*
X113461904Y-67552380D02*
X112890476Y-67552380D01*
X113176190Y-67552380D02*
X113176190Y-66552380D01*
X113080952Y-66695238D01*
X112985714Y-66790476D01*
X112890476Y-66838095D01*
X123352380Y-35238095D02*
X122352380Y-35238095D01*
X122352380Y-35000000D01*
X122400000Y-34857142D01*
X122495238Y-34761904D01*
X122590476Y-34714285D01*
X122780952Y-34666666D01*
X122923809Y-34666666D01*
X123114285Y-34714285D01*
X123209523Y-34761904D01*
X123304761Y-34857142D01*
X123352380Y-35000000D01*
X123352380Y-35238095D01*
X122352380Y-34333333D02*
X122352380Y-33666666D01*
X123352380Y-34095238D01*
X110257142Y-71742857D02*
X110304761Y-71790476D01*
X110352380Y-71933333D01*
X110352380Y-72028571D01*
X110304761Y-72171428D01*
X110209523Y-72266666D01*
X110114285Y-72314285D01*
X109923809Y-72361904D01*
X109780952Y-72361904D01*
X109590476Y-72314285D01*
X109495238Y-72266666D01*
X109400000Y-72171428D01*
X109352380Y-72028571D01*
X109352380Y-71933333D01*
X109400000Y-71790476D01*
X109447619Y-71742857D01*
X110352380Y-70790476D02*
X110352380Y-71361904D01*
X110352380Y-71076190D02*
X109352380Y-71076190D01*
X109495238Y-71171428D01*
X109590476Y-71266666D01*
X109638095Y-71361904D01*
X109780952Y-70219047D02*
X109733333Y-70314285D01*
X109685714Y-70361904D01*
X109590476Y-70409523D01*
X109542857Y-70409523D01*
X109447619Y-70361904D01*
X109400000Y-70314285D01*
X109352380Y-70219047D01*
X109352380Y-70028571D01*
X109400000Y-69933333D01*
X109447619Y-69885714D01*
X109542857Y-69838095D01*
X109590476Y-69838095D01*
X109685714Y-69885714D01*
X109733333Y-69933333D01*
X109780952Y-70028571D01*
X109780952Y-70219047D01*
X109828571Y-70314285D01*
X109876190Y-70361904D01*
X109971428Y-70409523D01*
X110161904Y-70409523D01*
X110257142Y-70361904D01*
X110304761Y-70314285D01*
X110352380Y-70219047D01*
X110352380Y-70028571D01*
X110304761Y-69933333D01*
X110257142Y-69885714D01*
X110161904Y-69838095D01*
X109971428Y-69838095D01*
X109876190Y-69885714D01*
X109828571Y-69933333D01*
X109780952Y-70028571D01*
X103902380Y-35088095D02*
X102902380Y-35088095D01*
X102902380Y-34850000D01*
X102950000Y-34707142D01*
X103045238Y-34611904D01*
X103140476Y-34564285D01*
X103330952Y-34516666D01*
X103473809Y-34516666D01*
X103664285Y-34564285D01*
X103759523Y-34611904D01*
X103854761Y-34707142D01*
X103902380Y-34850000D01*
X103902380Y-35088095D01*
X102997619Y-34135714D02*
X102950000Y-34088095D01*
X102902380Y-33992857D01*
X102902380Y-33754761D01*
X102950000Y-33659523D01*
X102997619Y-33611904D01*
X103092857Y-33564285D01*
X103188095Y-33564285D01*
X103330952Y-33611904D01*
X103902380Y-34183333D01*
X103902380Y-33564285D01*
X118866666Y-76952380D02*
X118866666Y-77666666D01*
X118819047Y-77809523D01*
X118723809Y-77904761D01*
X118580952Y-77952380D01*
X118485714Y-77952380D01*
X119295238Y-77047619D02*
X119342857Y-77000000D01*
X119438095Y-76952380D01*
X119676190Y-76952380D01*
X119771428Y-77000000D01*
X119819047Y-77047619D01*
X119866666Y-77142857D01*
X119866666Y-77238095D01*
X119819047Y-77380952D01*
X119247619Y-77952380D01*
X119866666Y-77952380D01*
X124338095Y-96852380D02*
X124338095Y-97661904D01*
X124385714Y-97757142D01*
X124433333Y-97804761D01*
X124528571Y-97852380D01*
X124719047Y-97852380D01*
X124814285Y-97804761D01*
X124861904Y-97757142D01*
X124909523Y-97661904D01*
X124909523Y-96852380D01*
X125814285Y-96852380D02*
X125623809Y-96852380D01*
X125528571Y-96900000D01*
X125480952Y-96947619D01*
X125385714Y-97090476D01*
X125338095Y-97280952D01*
X125338095Y-97661904D01*
X125385714Y-97757142D01*
X125433333Y-97804761D01*
X125528571Y-97852380D01*
X125719047Y-97852380D01*
X125814285Y-97804761D01*
X125861904Y-97757142D01*
X125909523Y-97661904D01*
X125909523Y-97423809D01*
X125861904Y-97328571D01*
X125814285Y-97280952D01*
X125719047Y-97233333D01*
X125528571Y-97233333D01*
X125433333Y-97280952D01*
X125385714Y-97328571D01*
X125338095Y-97423809D01*
X93433333Y-81252380D02*
X93100000Y-80776190D01*
X92861904Y-81252380D02*
X92861904Y-80252380D01*
X93242857Y-80252380D01*
X93338095Y-80300000D01*
X93385714Y-80347619D01*
X93433333Y-80442857D01*
X93433333Y-80585714D01*
X93385714Y-80680952D01*
X93338095Y-80728571D01*
X93242857Y-80776190D01*
X92861904Y-80776190D01*
X94385714Y-81252380D02*
X93814285Y-81252380D01*
X94100000Y-81252380D02*
X94100000Y-80252380D01*
X94004761Y-80395238D01*
X93909523Y-80490476D01*
X93814285Y-80538095D01*
X103657142Y-71257142D02*
X103609523Y-71304761D01*
X103466666Y-71352380D01*
X103371428Y-71352380D01*
X103228571Y-71304761D01*
X103133333Y-71209523D01*
X103085714Y-71114285D01*
X103038095Y-70923809D01*
X103038095Y-70780952D01*
X103085714Y-70590476D01*
X103133333Y-70495238D01*
X103228571Y-70400000D01*
X103371428Y-70352380D01*
X103466666Y-70352380D01*
X103609523Y-70400000D01*
X103657142Y-70447619D01*
X104609523Y-71352380D02*
X104038095Y-71352380D01*
X104323809Y-71352380D02*
X104323809Y-70352380D01*
X104228571Y-70495238D01*
X104133333Y-70590476D01*
X104038095Y-70638095D01*
X105561904Y-71352380D02*
X104990476Y-71352380D01*
X105276190Y-71352380D02*
X105276190Y-70352380D01*
X105180952Y-70495238D01*
X105085714Y-70590476D01*
X104990476Y-70638095D01*
X104533333Y-95652380D02*
X104057142Y-95652380D01*
X104057142Y-94652380D01*
X105390476Y-95652380D02*
X104819047Y-95652380D01*
X105104761Y-95652380D02*
X105104761Y-94652380D01*
X105009523Y-94795238D01*
X104914285Y-94890476D01*
X104819047Y-94938095D01*
X121657142Y-71857142D02*
X121609523Y-71904761D01*
X121466666Y-71952380D01*
X121371428Y-71952380D01*
X121228571Y-71904761D01*
X121133333Y-71809523D01*
X121085714Y-71714285D01*
X121038095Y-71523809D01*
X121038095Y-71380952D01*
X121085714Y-71190476D01*
X121133333Y-71095238D01*
X121228571Y-71000000D01*
X121371428Y-70952380D01*
X121466666Y-70952380D01*
X121609523Y-71000000D01*
X121657142Y-71047619D01*
X122609523Y-71952380D02*
X122038095Y-71952380D01*
X122323809Y-71952380D02*
X122323809Y-70952380D01*
X122228571Y-71095238D01*
X122133333Y-71190476D01*
X122038095Y-71238095D01*
X122942857Y-70952380D02*
X123609523Y-70952380D01*
X123180952Y-71952380D01*
X98852380Y-35125595D02*
X97852380Y-35125595D01*
X97852380Y-34887500D01*
X97900000Y-34744642D01*
X97995238Y-34649404D01*
X98090476Y-34601785D01*
X98280952Y-34554166D01*
X98423809Y-34554166D01*
X98614285Y-34601785D01*
X98709523Y-34649404D01*
X98804761Y-34744642D01*
X98852380Y-34887500D01*
X98852380Y-35125595D01*
X98852380Y-33601785D02*
X98852380Y-34173214D01*
X98852380Y-33887500D02*
X97852380Y-33887500D01*
X97995238Y-33982738D01*
X98090476Y-34077976D01*
X98138095Y-34173214D01*
X107033333Y-66157142D02*
X106985714Y-66204761D01*
X106842857Y-66252380D01*
X106747619Y-66252380D01*
X106604761Y-66204761D01*
X106509523Y-66109523D01*
X106461904Y-66014285D01*
X106414285Y-65823809D01*
X106414285Y-65680952D01*
X106461904Y-65490476D01*
X106509523Y-65395238D01*
X106604761Y-65300000D01*
X106747619Y-65252380D01*
X106842857Y-65252380D01*
X106985714Y-65300000D01*
X107033333Y-65347619D01*
X107985714Y-66252380D02*
X107414285Y-66252380D01*
X107700000Y-66252380D02*
X107700000Y-65252380D01*
X107604761Y-65395238D01*
X107509523Y-65490476D01*
X107414285Y-65538095D01*
X118752380Y-35138095D02*
X117752380Y-35138095D01*
X117752380Y-34900000D01*
X117800000Y-34757142D01*
X117895238Y-34661904D01*
X117990476Y-34614285D01*
X118180952Y-34566666D01*
X118323809Y-34566666D01*
X118514285Y-34614285D01*
X118609523Y-34661904D01*
X118704761Y-34757142D01*
X118752380Y-34900000D01*
X118752380Y-35138095D01*
X117752380Y-33661904D02*
X117752380Y-34138095D01*
X118228571Y-34185714D01*
X118180952Y-34138095D01*
X118133333Y-34042857D01*
X118133333Y-33804761D01*
X118180952Y-33709523D01*
X118228571Y-33661904D01*
X118323809Y-33614285D01*
X118561904Y-33614285D01*
X118657142Y-33661904D01*
X118704761Y-33709523D01*
X118752380Y-33804761D01*
X118752380Y-34042857D01*
X118704761Y-34138095D01*
X118657142Y-34185714D01*
X90833333Y-74757142D02*
X90785714Y-74804761D01*
X90642857Y-74852380D01*
X90547619Y-74852380D01*
X90404761Y-74804761D01*
X90309523Y-74709523D01*
X90261904Y-74614285D01*
X90214285Y-74423809D01*
X90214285Y-74280952D01*
X90261904Y-74090476D01*
X90309523Y-73995238D01*
X90404761Y-73900000D01*
X90547619Y-73852380D01*
X90642857Y-73852380D01*
X90785714Y-73900000D01*
X90833333Y-73947619D01*
X91404761Y-74280952D02*
X91309523Y-74233333D01*
X91261904Y-74185714D01*
X91214285Y-74090476D01*
X91214285Y-74042857D01*
X91261904Y-73947619D01*
X91309523Y-73900000D01*
X91404761Y-73852380D01*
X91595238Y-73852380D01*
X91690476Y-73900000D01*
X91738095Y-73947619D01*
X91785714Y-74042857D01*
X91785714Y-74090476D01*
X91738095Y-74185714D01*
X91690476Y-74233333D01*
X91595238Y-74280952D01*
X91404761Y-74280952D01*
X91309523Y-74328571D01*
X91261904Y-74376190D01*
X91214285Y-74471428D01*
X91214285Y-74661904D01*
X91261904Y-74757142D01*
X91309523Y-74804761D01*
X91404761Y-74852380D01*
X91595238Y-74852380D01*
X91690476Y-74804761D01*
X91738095Y-74757142D01*
X91785714Y-74661904D01*
X91785714Y-74471428D01*
X91738095Y-74376190D01*
X91690476Y-74328571D01*
X91595238Y-74280952D01*
X129566666Y-96752380D02*
X129566666Y-97466666D01*
X129519047Y-97609523D01*
X129423809Y-97704761D01*
X129280952Y-97752380D01*
X129185714Y-97752380D01*
X130519047Y-96752380D02*
X130042857Y-96752380D01*
X129995238Y-97228571D01*
X130042857Y-97180952D01*
X130138095Y-97133333D01*
X130376190Y-97133333D01*
X130471428Y-97180952D01*
X130519047Y-97228571D01*
X130566666Y-97323809D01*
X130566666Y-97561904D01*
X130519047Y-97657142D01*
X130471428Y-97704761D01*
X130376190Y-97752380D01*
X130138095Y-97752380D01*
X130042857Y-97704761D01*
X129995238Y-97657142D01*
X111857142Y-109152380D02*
X111523809Y-108676190D01*
X111285714Y-109152380D02*
X111285714Y-108152380D01*
X111666666Y-108152380D01*
X111761904Y-108200000D01*
X111809523Y-108247619D01*
X111857142Y-108342857D01*
X111857142Y-108485714D01*
X111809523Y-108580952D01*
X111761904Y-108628571D01*
X111666666Y-108676190D01*
X111285714Y-108676190D01*
X112809523Y-109152380D02*
X112238095Y-109152380D01*
X112523809Y-109152380D02*
X112523809Y-108152380D01*
X112428571Y-108295238D01*
X112333333Y-108390476D01*
X112238095Y-108438095D01*
X113142857Y-108152380D02*
X113761904Y-108152380D01*
X113428571Y-108533333D01*
X113571428Y-108533333D01*
X113666666Y-108580952D01*
X113714285Y-108628571D01*
X113761904Y-108723809D01*
X113761904Y-108961904D01*
X113714285Y-109057142D01*
X113666666Y-109104761D01*
X113571428Y-109152380D01*
X113285714Y-109152380D01*
X113190476Y-109104761D01*
X113142857Y-109057142D01*
X99033333Y-66157142D02*
X98985714Y-66204761D01*
X98842857Y-66252380D01*
X98747619Y-66252380D01*
X98604761Y-66204761D01*
X98509523Y-66109523D01*
X98461904Y-66014285D01*
X98414285Y-65823809D01*
X98414285Y-65680952D01*
X98461904Y-65490476D01*
X98509523Y-65395238D01*
X98604761Y-65300000D01*
X98747619Y-65252380D01*
X98842857Y-65252380D01*
X98985714Y-65300000D01*
X99033333Y-65347619D01*
X99414285Y-65347619D02*
X99461904Y-65300000D01*
X99557142Y-65252380D01*
X99795238Y-65252380D01*
X99890476Y-65300000D01*
X99938095Y-65347619D01*
X99985714Y-65442857D01*
X99985714Y-65538095D01*
X99938095Y-65680952D01*
X99366666Y-66252380D01*
X99985714Y-66252380D01*
X86528571Y-116828571D02*
X86195238Y-116828571D01*
X86195238Y-117352380D02*
X86195238Y-116352380D01*
X86671428Y-116352380D01*
X87052380Y-117352380D02*
X87052380Y-116352380D01*
X87528571Y-117352380D02*
X87528571Y-116352380D01*
X87766666Y-116352380D01*
X87909523Y-116400000D01*
X88004761Y-116495238D01*
X88052380Y-116590476D01*
X88100000Y-116780952D01*
X88100000Y-116923809D01*
X88052380Y-117114285D01*
X88004761Y-117209523D01*
X87909523Y-117304761D01*
X87766666Y-117352380D01*
X87528571Y-117352380D01*
X88433333Y-116352380D02*
X89052380Y-116352380D01*
X88719047Y-116733333D01*
X88861904Y-116733333D01*
X88957142Y-116780952D01*
X89004761Y-116828571D01*
X89052380Y-116923809D01*
X89052380Y-117161904D01*
X89004761Y-117257142D01*
X88957142Y-117304761D01*
X88861904Y-117352380D01*
X88576190Y-117352380D01*
X88480952Y-117304761D01*
X88433333Y-117257142D01*
X89857142Y-72657142D02*
X89809523Y-72704761D01*
X89666666Y-72752380D01*
X89571428Y-72752380D01*
X89428571Y-72704761D01*
X89333333Y-72609523D01*
X89285714Y-72514285D01*
X89238095Y-72323809D01*
X89238095Y-72180952D01*
X89285714Y-71990476D01*
X89333333Y-71895238D01*
X89428571Y-71800000D01*
X89571428Y-71752380D01*
X89666666Y-71752380D01*
X89809523Y-71800000D01*
X89857142Y-71847619D01*
X90809523Y-72752380D02*
X90238095Y-72752380D01*
X90523809Y-72752380D02*
X90523809Y-71752380D01*
X90428571Y-71895238D01*
X90333333Y-71990476D01*
X90238095Y-72038095D01*
X91428571Y-71752380D02*
X91523809Y-71752380D01*
X91619047Y-71800000D01*
X91666666Y-71847619D01*
X91714285Y-71942857D01*
X91761904Y-72133333D01*
X91761904Y-72371428D01*
X91714285Y-72561904D01*
X91666666Y-72657142D01*
X91619047Y-72704761D01*
X91523809Y-72752380D01*
X91428571Y-72752380D01*
X91333333Y-72704761D01*
X91285714Y-72657142D01*
X91238095Y-72561904D01*
X91190476Y-72371428D01*
X91190476Y-72133333D01*
X91238095Y-71942857D01*
X91285714Y-71847619D01*
X91333333Y-71800000D01*
X91428571Y-71752380D01*
X113852380Y-35138095D02*
X112852380Y-35138095D01*
X112852380Y-34900000D01*
X112900000Y-34757142D01*
X112995238Y-34661904D01*
X113090476Y-34614285D01*
X113280952Y-34566666D01*
X113423809Y-34566666D01*
X113614285Y-34614285D01*
X113709523Y-34661904D01*
X113804761Y-34757142D01*
X113852380Y-34900000D01*
X113852380Y-35138095D01*
X113185714Y-33709523D02*
X113852380Y-33709523D01*
X112804761Y-33947619D02*
X113519047Y-34185714D01*
X113519047Y-33566666D01*
X103138095Y-111952380D02*
X103138095Y-112761904D01*
X103185714Y-112857142D01*
X103233333Y-112904761D01*
X103328571Y-112952380D01*
X103519047Y-112952380D01*
X103614285Y-112904761D01*
X103661904Y-112857142D01*
X103709523Y-112761904D01*
X103709523Y-111952380D01*
X104661904Y-111952380D02*
X104185714Y-111952380D01*
X104138095Y-112428571D01*
X104185714Y-112380952D01*
X104280952Y-112333333D01*
X104519047Y-112333333D01*
X104614285Y-112380952D01*
X104661904Y-112428571D01*
X104709523Y-112523809D01*
X104709523Y-112761904D01*
X104661904Y-112857142D01*
X104614285Y-112904761D01*
X104519047Y-112952380D01*
X104280952Y-112952380D01*
X104185714Y-112904761D01*
X104138095Y-112857142D01*
X88077072Y-45148477D02*
X88582148Y-45653553D01*
X88649492Y-45788240D01*
X88649492Y-45922927D01*
X88582148Y-46057614D01*
X88514805Y-46124957D01*
X88952538Y-44744416D02*
X89423942Y-45215820D01*
X88514805Y-44643400D02*
X88851522Y-45316835D01*
X89289255Y-44879103D01*
X128252380Y-35138095D02*
X127252380Y-35138095D01*
X127252380Y-34900000D01*
X127300000Y-34757142D01*
X127395238Y-34661904D01*
X127490476Y-34614285D01*
X127680952Y-34566666D01*
X127823809Y-34566666D01*
X128014285Y-34614285D01*
X128109523Y-34661904D01*
X128204761Y-34757142D01*
X128252380Y-34900000D01*
X128252380Y-35138095D01*
X127680952Y-33995238D02*
X127633333Y-34090476D01*
X127585714Y-34138095D01*
X127490476Y-34185714D01*
X127442857Y-34185714D01*
X127347619Y-34138095D01*
X127300000Y-34090476D01*
X127252380Y-33995238D01*
X127252380Y-33804761D01*
X127300000Y-33709523D01*
X127347619Y-33661904D01*
X127442857Y-33614285D01*
X127490476Y-33614285D01*
X127585714Y-33661904D01*
X127633333Y-33709523D01*
X127680952Y-33804761D01*
X127680952Y-33995238D01*
X127728571Y-34090476D01*
X127776190Y-34138095D01*
X127871428Y-34185714D01*
X128061904Y-34185714D01*
X128157142Y-34138095D01*
X128204761Y-34090476D01*
X128252380Y-33995238D01*
X128252380Y-33804761D01*
X128204761Y-33709523D01*
X128157142Y-33661904D01*
X128061904Y-33614285D01*
X127871428Y-33614285D01*
X127776190Y-33661904D01*
X127728571Y-33709523D01*
X127680952Y-33804761D01*
D12*
X109716666Y-37326190D02*
X109550000Y-37088095D01*
X109430952Y-37326190D02*
X109430952Y-36826190D01*
X109621428Y-36826190D01*
X109669047Y-36850000D01*
X109692857Y-36873809D01*
X109716666Y-36921428D01*
X109716666Y-36992857D01*
X109692857Y-37040476D01*
X109669047Y-37064285D01*
X109621428Y-37088095D01*
X109430952Y-37088095D01*
X110169047Y-36826190D02*
X109930952Y-36826190D01*
X109907142Y-37064285D01*
X109930952Y-37040476D01*
X109978571Y-37016666D01*
X110097619Y-37016666D01*
X110145238Y-37040476D01*
X110169047Y-37064285D01*
X110192857Y-37111904D01*
X110192857Y-37230952D01*
X110169047Y-37278571D01*
X110145238Y-37302380D01*
X110097619Y-37326190D01*
X109978571Y-37326190D01*
X109930952Y-37302380D01*
X109907142Y-37278571D01*
D13*
X118157142Y-71857142D02*
X118109523Y-71904761D01*
X117966666Y-71952380D01*
X117871428Y-71952380D01*
X117728571Y-71904761D01*
X117633333Y-71809523D01*
X117585714Y-71714285D01*
X117538095Y-71523809D01*
X117538095Y-71380952D01*
X117585714Y-71190476D01*
X117633333Y-71095238D01*
X117728571Y-71000000D01*
X117871428Y-70952380D01*
X117966666Y-70952380D01*
X118109523Y-71000000D01*
X118157142Y-71047619D01*
X118538095Y-71047619D02*
X118585714Y-71000000D01*
X118680952Y-70952380D01*
X118919047Y-70952380D01*
X119014285Y-71000000D01*
X119061904Y-71047619D01*
X119109523Y-71142857D01*
X119109523Y-71238095D01*
X119061904Y-71380952D01*
X118490476Y-71952380D01*
X119109523Y-71952380D01*
X119728571Y-70952380D02*
X119823809Y-70952380D01*
X119919047Y-71000000D01*
X119966666Y-71047619D01*
X120014285Y-71142857D01*
X120061904Y-71333333D01*
X120061904Y-71571428D01*
X120014285Y-71761904D01*
X119966666Y-71857142D01*
X119919047Y-71904761D01*
X119823809Y-71952380D01*
X119728571Y-71952380D01*
X119633333Y-71904761D01*
X119585714Y-71857142D01*
X119538095Y-71761904D01*
X119490476Y-71571428D01*
X119490476Y-71333333D01*
X119538095Y-71142857D01*
X119585714Y-71047619D01*
X119633333Y-71000000D01*
X119728571Y-70952380D01*
X92161904Y-105352380D02*
X92161904Y-104352380D01*
X92400000Y-104352380D01*
X92542857Y-104400000D01*
X92638095Y-104495238D01*
X92685714Y-104590476D01*
X92733333Y-104780952D01*
X92733333Y-104923809D01*
X92685714Y-105114285D01*
X92638095Y-105209523D01*
X92542857Y-105304761D01*
X92400000Y-105352380D01*
X92161904Y-105352380D01*
X93590476Y-104352380D02*
X93400000Y-104352380D01*
X93304761Y-104400000D01*
X93257142Y-104447619D01*
X93161904Y-104590476D01*
X93114285Y-104780952D01*
X93114285Y-105161904D01*
X93161904Y-105257142D01*
X93209523Y-105304761D01*
X93304761Y-105352380D01*
X93495238Y-105352380D01*
X93590476Y-105304761D01*
X93638095Y-105257142D01*
X93685714Y-105161904D01*
X93685714Y-104923809D01*
X93638095Y-104828571D01*
X93590476Y-104780952D01*
X93495238Y-104733333D01*
X93304761Y-104733333D01*
X93209523Y-104780952D01*
X93161904Y-104828571D01*
X93114285Y-104923809D01*
D10*
X120435000Y-34922936D02*
X120435000Y-35377064D01*
X118965000Y-34922936D02*
X118965000Y-35377064D01*
X102535000Y-110327064D02*
X102535000Y-109872936D01*
X101065000Y-110327064D02*
X101065000Y-109872936D01*
X110488748Y-97015000D02*
X111011252Y-97015000D01*
X110488748Y-98485000D02*
X111011252Y-98485000D01*
X94038748Y-70935000D02*
X94561252Y-70935000D01*
X94038748Y-69465000D02*
X94561252Y-69465000D01*
X123800000Y-68120000D02*
X121800000Y-68120000D01*
X121800000Y-65880000D02*
X122800000Y-65880000D01*
X115265000Y-68972936D02*
X115265000Y-69427064D01*
X116735000Y-68972936D02*
X116735000Y-69427064D01*
X98503335Y-73352740D02*
X98503335Y-72902740D01*
X105723335Y-80122740D02*
X105273335Y-80122740D01*
X98503335Y-79672740D02*
X98503335Y-80122740D01*
X105723335Y-73352740D02*
X105723335Y-72902740D01*
X105723335Y-79672740D02*
X105723335Y-80122740D01*
X105723335Y-72902740D02*
X105273335Y-72902740D01*
X105273335Y-72902740D02*
X105273335Y-71612740D01*
X98503335Y-80122740D02*
X98953335Y-80122740D01*
X98503335Y-72902740D02*
X98953335Y-72902740D01*
X104165000Y-34872936D02*
X104165000Y-35327064D01*
X105635000Y-34872936D02*
X105635000Y-35327064D01*
X107415000Y-31340000D02*
X107415000Y-33260000D01*
X107415000Y-33260000D02*
X110100000Y-33260000D01*
X110100000Y-31340000D02*
X107415000Y-31340000D01*
X100635000Y-34860436D02*
X100635000Y-35314564D01*
X99165000Y-34860436D02*
X99165000Y-35314564D01*
X116060000Y-105160000D02*
X114800000Y-105160000D01*
X109240000Y-105160000D02*
X110500000Y-105160000D01*
X116060000Y-99150000D02*
X116060000Y-105160000D01*
X109240000Y-101400000D02*
X109240000Y-105160000D01*
X105887740Y-70261905D02*
X105887740Y-65761905D01*
X105887740Y-65761905D02*
X100487740Y-65761905D01*
X94038748Y-77865000D02*
X94561252Y-77865000D01*
X94038748Y-79335000D02*
X94561252Y-79335000D01*
X102535000Y-106227064D02*
X102535000Y-105772936D01*
X101065000Y-106227064D02*
X101065000Y-105772936D01*
X114065000Y-34922936D02*
X114065000Y-35377064D01*
X115535000Y-34922936D02*
X115535000Y-35377064D01*
X130285000Y-34972936D02*
X130285000Y-35427064D01*
X128815000Y-34972936D02*
X128815000Y-35427064D01*
X99395563Y-114960000D02*
X100460000Y-113895563D01*
X96004437Y-114960000D02*
X96640000Y-114960000D01*
X99395563Y-114960000D02*
X98760000Y-114960000D01*
X100460000Y-113895563D02*
X100460000Y-109440000D01*
X96004437Y-114960000D02*
X94940000Y-113895563D01*
X100460000Y-109440000D02*
X98760000Y-109440000D01*
X94940000Y-109440000D02*
X96640000Y-109440000D01*
X94940000Y-113895563D02*
X94940000Y-109440000D01*
X100460000Y-98204437D02*
X100460000Y-102660000D01*
X100460000Y-102660000D02*
X98760000Y-102660000D01*
X96004437Y-97140000D02*
X96640000Y-97140000D01*
X99395563Y-97140000D02*
X98760000Y-97140000D01*
X94940000Y-98204437D02*
X94940000Y-102660000D01*
X94940000Y-102660000D02*
X96640000Y-102660000D01*
X99395563Y-97140000D02*
X100460000Y-98204437D01*
X96004437Y-97140000D02*
X94940000Y-98204437D01*
X111938748Y-73065000D02*
X112461252Y-73065000D01*
X111938748Y-74535000D02*
X112461252Y-74535000D01*
X123865000Y-34972936D02*
X123865000Y-35427064D01*
X125335000Y-34972936D02*
X125335000Y-35427064D01*
X109135000Y-74561252D02*
X109135000Y-74038748D01*
X107665000Y-74561252D02*
X107665000Y-74038748D01*
X90915076Y-37787868D02*
X92187869Y-36515075D01*
X92187869Y-36515075D02*
X91410051Y-35737258D01*
X91410051Y-35737258D02*
X90137258Y-37010051D01*
X90137258Y-37010051D02*
X90915076Y-37787868D01*
X96738748Y-108035000D02*
X97261252Y-108035000D01*
X96738748Y-106565000D02*
X97261252Y-106565000D01*
X117020000Y-72700000D02*
X117020000Y-73700000D01*
X114780000Y-74700000D02*
X114780000Y-72700000D01*
X127740000Y-71735000D02*
X127290000Y-71735000D01*
X131710000Y-71735000D02*
X131710000Y-62265000D01*
X127290000Y-70785000D02*
X125800000Y-70785000D01*
X131260000Y-71735000D02*
X131710000Y-71735000D01*
X127290000Y-62265000D02*
X127290000Y-63215000D01*
X127290000Y-71735000D02*
X127290000Y-70785000D01*
X131710000Y-62265000D02*
X131260000Y-62265000D01*
X127740000Y-62265000D02*
X127290000Y-62265000D01*
X114288748Y-98485000D02*
X114811252Y-98485000D01*
X114288748Y-97015000D02*
X114811252Y-97015000D01*
X94038748Y-75765000D02*
X94561252Y-75765000D01*
X94038748Y-77235000D02*
X94561252Y-77235000D01*
X112427064Y-67765000D02*
X111972936Y-67765000D01*
X112427064Y-69235000D02*
X111972936Y-69235000D01*
X122215000Y-33360000D02*
X124900000Y-33360000D01*
X122215000Y-31440000D02*
X122215000Y-33360000D01*
X124900000Y-31440000D02*
X122215000Y-31440000D01*
X111938748Y-70365000D02*
X112461252Y-70365000D01*
X111938748Y-71835000D02*
X112461252Y-71835000D01*
X102515000Y-33260000D02*
X105200000Y-33260000D01*
X105200000Y-31340000D02*
X102515000Y-31340000D01*
X102515000Y-31340000D02*
X102515000Y-33260000D01*
X118135000Y-77590000D02*
X117185000Y-77590000D01*
X113665000Y-81560000D02*
X113665000Y-82010000D01*
X114615000Y-77590000D02*
X114615000Y-76100000D01*
X113665000Y-82010000D02*
X118135000Y-82010000D01*
X118135000Y-82010000D02*
X118135000Y-81560000D01*
X113665000Y-78040000D02*
X113665000Y-77590000D01*
X113665000Y-77590000D02*
X114615000Y-77590000D01*
X118135000Y-78040000D02*
X118135000Y-77590000D01*
X120300000Y-102060000D02*
X122250000Y-102060000D01*
X120300000Y-102060000D02*
X118350000Y-102060000D01*
X120300000Y-96940000D02*
X122250000Y-96940000D01*
X120300000Y-96940000D02*
X116850000Y-96940000D01*
X96727064Y-80065000D02*
X96272936Y-80065000D01*
X96727064Y-81535000D02*
X96272936Y-81535000D01*
X107461252Y-72135000D02*
X106938748Y-72135000D01*
X107461252Y-70665000D02*
X106938748Y-70665000D01*
X103200000Y-103400000D02*
X101500000Y-103400000D01*
X101500000Y-103400000D02*
X101500000Y-96800000D01*
X107900000Y-103400000D02*
X106200000Y-103400000D01*
X107900000Y-96800000D02*
X107900000Y-103400000D01*
X106200000Y-96800000D02*
X107900000Y-96800000D01*
X101500000Y-96800000D02*
X103200000Y-96800000D01*
X105223335Y-79622740D02*
X104748335Y-79622740D01*
X100003335Y-74402740D02*
X100478335Y-74402740D01*
X100003335Y-79622740D02*
X100478335Y-79622740D01*
X100003335Y-79147740D02*
X100003335Y-79622740D01*
X105223335Y-79147740D02*
X105223335Y-79622740D01*
X100003335Y-74877740D02*
X100003335Y-74402740D01*
X105223335Y-74877740D02*
X105223335Y-74402740D01*
X122038748Y-70635000D02*
X122561252Y-70635000D01*
X122038748Y-69165000D02*
X122561252Y-69165000D01*
X100200000Y-31327500D02*
X97515000Y-31327500D01*
X97515000Y-31327500D02*
X97515000Y-33247500D01*
X97515000Y-33247500D02*
X100200000Y-33247500D01*
X107922740Y-67750653D02*
X107922740Y-68273157D01*
X106452740Y-67750653D02*
X106452740Y-68273157D01*
X120000000Y-31390000D02*
X117315000Y-31390000D01*
X117315000Y-33310000D02*
X120000000Y-33310000D01*
X117315000Y-31390000D02*
X117315000Y-33310000D01*
X94038748Y-73665000D02*
X94561252Y-73665000D01*
X94038748Y-75135000D02*
X94561252Y-75135000D01*
X131795000Y-112000000D02*
X128345000Y-112000000D01*
X128345000Y-112000000D02*
X128345000Y-100000000D01*
X128345000Y-100000000D02*
X131795000Y-100000000D01*
X131795000Y-100000000D02*
X131795000Y-112000000D01*
X109265000Y-109914564D02*
X109265000Y-109460436D01*
X110735000Y-109914564D02*
X110735000Y-109460436D01*
X99922740Y-68273157D02*
X99922740Y-67750653D01*
X98452740Y-68273157D02*
X98452740Y-67750653D01*
X94038748Y-73035000D02*
X94561252Y-73035000D01*
X94038748Y-71565000D02*
X94561252Y-71565000D01*
X115100000Y-31390000D02*
X112415000Y-31390000D01*
X112415000Y-33310000D02*
X115100000Y-33310000D01*
X112415000Y-31390000D02*
X112415000Y-33310000D01*
X108260000Y-108000000D02*
X108260000Y-109950000D01*
X108260000Y-108000000D02*
X108260000Y-104550000D01*
X103140000Y-108000000D02*
X103140000Y-109950000D01*
X103140000Y-108000000D02*
X103140000Y-106050000D01*
X85415076Y-43287868D02*
X86687869Y-42015075D01*
X86687869Y-42015075D02*
X85910051Y-41237258D01*
X85910051Y-41237258D02*
X84637258Y-42510051D01*
X84637258Y-42510051D02*
X85415076Y-43287868D01*
X127165000Y-31440000D02*
X127165000Y-33360000D01*
X127165000Y-33360000D02*
X129850000Y-33360000D01*
X129850000Y-31440000D02*
X127165000Y-31440000D01*
X110535000Y-34872936D02*
X110535000Y-35327064D01*
X109065000Y-34872936D02*
X109065000Y-35327064D01*
X118065000Y-69461252D02*
X118065000Y-68938748D01*
X119535000Y-69461252D02*
X119535000Y-68938748D01*
X99850000Y-105900000D02*
X95950000Y-105900000D01*
X99850000Y-105900000D02*
X99850000Y-103900000D01*
X99850000Y-103900000D02*
X95950000Y-103900000D01*
M02*
