G04 #@! TF.GenerationSoftware,KiCad,Pcbnew,(6.0.1-0)*
G04 #@! TF.CreationDate,2022-12-09T09:23:44-05:00*
G04 #@! TF.ProjectId,indexingWheel,696e6465-7869-46e6-9757-6865656c2e6b,rev?*
G04 #@! TF.SameCoordinates,Original*
G04 #@! TF.FileFunction,Legend,Top*
G04 #@! TF.FilePolarity,Positive*
%FSLAX46Y46*%
G04 Gerber Fmt 4.6, Leading zero omitted, Abs format (unit mm)*
G04 Created by KiCad (PCBNEW (6.0.1-0)) date 2022-12-09 09:23:44*
%MOMM*%
%LPD*%
G01*
G04 APERTURE LIST*
%ADD10C,0.150000*%
%ADD11C,0.010000*%
G04 APERTURE END LIST*
D10*
X147695595Y-104122380D02*
X147695595Y-103122380D01*
X148171785Y-103455714D02*
X148171785Y-104122380D01*
X148171785Y-103550952D02*
X148219404Y-103503333D01*
X148314642Y-103455714D01*
X148457500Y-103455714D01*
X148552738Y-103503333D01*
X148600357Y-103598571D01*
X148600357Y-104122380D01*
X149505119Y-104122380D02*
X149505119Y-103122380D01*
X149505119Y-104074761D02*
X149409880Y-104122380D01*
X149219404Y-104122380D01*
X149124166Y-104074761D01*
X149076547Y-104027142D01*
X149028928Y-103931904D01*
X149028928Y-103646190D01*
X149076547Y-103550952D01*
X149124166Y-103503333D01*
X149219404Y-103455714D01*
X149409880Y-103455714D01*
X149505119Y-103503333D01*
X150362261Y-104074761D02*
X150267023Y-104122380D01*
X150076547Y-104122380D01*
X149981309Y-104074761D01*
X149933690Y-103979523D01*
X149933690Y-103598571D01*
X149981309Y-103503333D01*
X150076547Y-103455714D01*
X150267023Y-103455714D01*
X150362261Y-103503333D01*
X150409880Y-103598571D01*
X150409880Y-103693809D01*
X149933690Y-103789047D01*
X150743214Y-104122380D02*
X151267023Y-103455714D01*
X150743214Y-103455714D02*
X151267023Y-104122380D01*
X151647976Y-104122380D02*
X151647976Y-103455714D01*
X151647976Y-103122380D02*
X151600357Y-103170000D01*
X151647976Y-103217619D01*
X151695595Y-103170000D01*
X151647976Y-103122380D01*
X151647976Y-103217619D01*
X152124166Y-103455714D02*
X152124166Y-104122380D01*
X152124166Y-103550952D02*
X152171785Y-103503333D01*
X152267023Y-103455714D01*
X152409880Y-103455714D01*
X152505119Y-103503333D01*
X152552738Y-103598571D01*
X152552738Y-104122380D01*
X153457500Y-103455714D02*
X153457500Y-104265238D01*
X153409880Y-104360476D01*
X153362261Y-104408095D01*
X153267023Y-104455714D01*
X153124166Y-104455714D01*
X153028928Y-104408095D01*
X153457500Y-104074761D02*
X153362261Y-104122380D01*
X153171785Y-104122380D01*
X153076547Y-104074761D01*
X153028928Y-104027142D01*
X152981309Y-103931904D01*
X152981309Y-103646190D01*
X153028928Y-103550952D01*
X153076547Y-103503333D01*
X153171785Y-103455714D01*
X153362261Y-103455714D01*
X153457500Y-103503333D01*
X154600357Y-103122380D02*
X154838452Y-104122380D01*
X155028928Y-103408095D01*
X155219404Y-104122380D01*
X155457500Y-103122380D01*
X155838452Y-104122380D02*
X155838452Y-103122380D01*
X156267023Y-104122380D02*
X156267023Y-103598571D01*
X156219404Y-103503333D01*
X156124166Y-103455714D01*
X155981309Y-103455714D01*
X155886071Y-103503333D01*
X155838452Y-103550952D01*
X157124166Y-104074761D02*
X157028928Y-104122380D01*
X156838452Y-104122380D01*
X156743214Y-104074761D01*
X156695595Y-103979523D01*
X156695595Y-103598571D01*
X156743214Y-103503333D01*
X156838452Y-103455714D01*
X157028928Y-103455714D01*
X157124166Y-103503333D01*
X157171785Y-103598571D01*
X157171785Y-103693809D01*
X156695595Y-103789047D01*
X157981309Y-104074761D02*
X157886071Y-104122380D01*
X157695595Y-104122380D01*
X157600357Y-104074761D01*
X157552738Y-103979523D01*
X157552738Y-103598571D01*
X157600357Y-103503333D01*
X157695595Y-103455714D01*
X157886071Y-103455714D01*
X157981309Y-103503333D01*
X158028928Y-103598571D01*
X158028928Y-103693809D01*
X157552738Y-103789047D01*
X158600357Y-104122380D02*
X158505119Y-104074761D01*
X158457500Y-103979523D01*
X158457500Y-103122380D01*
X148267023Y-105732380D02*
X147933690Y-105256190D01*
X147695595Y-105732380D02*
X147695595Y-104732380D01*
X148076547Y-104732380D01*
X148171785Y-104780000D01*
X148219404Y-104827619D01*
X148267023Y-104922857D01*
X148267023Y-105065714D01*
X148219404Y-105160952D01*
X148171785Y-105208571D01*
X148076547Y-105256190D01*
X147695595Y-105256190D01*
X148695595Y-105208571D02*
X149028928Y-105208571D01*
X149171785Y-105732380D02*
X148695595Y-105732380D01*
X148695595Y-104732380D01*
X149171785Y-104732380D01*
X149457500Y-104732380D02*
X149790833Y-105732380D01*
X150124166Y-104732380D01*
X150647976Y-104732380D02*
X150743214Y-104732380D01*
X150838452Y-104780000D01*
X150886071Y-104827619D01*
X150933690Y-104922857D01*
X150981309Y-105113333D01*
X150981309Y-105351428D01*
X150933690Y-105541904D01*
X150886071Y-105637142D01*
X150838452Y-105684761D01*
X150743214Y-105732380D01*
X150647976Y-105732380D01*
X150552738Y-105684761D01*
X150505119Y-105637142D01*
X150457500Y-105541904D01*
X150409880Y-105351428D01*
X150409880Y-105113333D01*
X150457500Y-104922857D01*
X150505119Y-104827619D01*
X150552738Y-104780000D01*
X150647976Y-104732380D01*
X151838452Y-105065714D02*
X151838452Y-105732380D01*
X151600357Y-104684761D02*
X151362261Y-105399047D01*
X151981309Y-105399047D01*
X147886071Y-106342380D02*
X148076547Y-106342380D01*
X148171785Y-106390000D01*
X148267023Y-106485238D01*
X148314642Y-106675714D01*
X148314642Y-107009047D01*
X148267023Y-107199523D01*
X148171785Y-107294761D01*
X148076547Y-107342380D01*
X147886071Y-107342380D01*
X147790833Y-107294761D01*
X147695595Y-107199523D01*
X147647976Y-107009047D01*
X147647976Y-106675714D01*
X147695595Y-106485238D01*
X147790833Y-106390000D01*
X147886071Y-106342380D01*
X148743214Y-106675714D02*
X148743214Y-107675714D01*
X148743214Y-106723333D02*
X148838452Y-106675714D01*
X149028928Y-106675714D01*
X149124166Y-106723333D01*
X149171785Y-106770952D01*
X149219404Y-106866190D01*
X149219404Y-107151904D01*
X149171785Y-107247142D01*
X149124166Y-107294761D01*
X149028928Y-107342380D01*
X148838452Y-107342380D01*
X148743214Y-107294761D01*
X150076547Y-106675714D02*
X150076547Y-107342380D01*
X149647976Y-106675714D02*
X149647976Y-107199523D01*
X149695595Y-107294761D01*
X149790833Y-107342380D01*
X149933690Y-107342380D01*
X150028928Y-107294761D01*
X150076547Y-107247142D01*
X150695595Y-107342380D02*
X150600357Y-107294761D01*
X150552738Y-107199523D01*
X150552738Y-106342380D01*
X151219404Y-107342380D02*
X151124166Y-107294761D01*
X151076547Y-107247142D01*
X151028928Y-107151904D01*
X151028928Y-106866190D01*
X151076547Y-106770952D01*
X151124166Y-106723333D01*
X151219404Y-106675714D01*
X151362261Y-106675714D01*
X151457500Y-106723333D01*
X151505119Y-106770952D01*
X151552738Y-106866190D01*
X151552738Y-107151904D01*
X151505119Y-107247142D01*
X151457500Y-107294761D01*
X151362261Y-107342380D01*
X151219404Y-107342380D01*
X152743214Y-107342380D02*
X152743214Y-106342380D01*
X153219404Y-106675714D02*
X153219404Y-107342380D01*
X153219404Y-106770952D02*
X153267023Y-106723333D01*
X153362261Y-106675714D01*
X153505119Y-106675714D01*
X153600357Y-106723333D01*
X153647976Y-106818571D01*
X153647976Y-107342380D01*
X154552738Y-107294761D02*
X154457500Y-107342380D01*
X154267023Y-107342380D01*
X154171785Y-107294761D01*
X154124166Y-107247142D01*
X154076547Y-107151904D01*
X154076547Y-106866190D01*
X154124166Y-106770952D01*
X154171785Y-106723333D01*
X154267023Y-106675714D01*
X154457500Y-106675714D01*
X154552738Y-106723333D01*
X154981309Y-107247142D02*
X155028928Y-107294761D01*
X154981309Y-107342380D01*
X154933690Y-107294761D01*
X154981309Y-107247142D01*
X154981309Y-107342380D01*
D11*
X143929333Y-102736102D02*
X144023869Y-102745788D01*
X144023869Y-102745788D02*
X144282960Y-102786461D01*
X144282960Y-102786461D02*
X144538270Y-102855028D01*
X144538270Y-102855028D02*
X144789979Y-102951540D01*
X144789979Y-102951540D02*
X144910055Y-103008050D01*
X144910055Y-103008050D02*
X145052674Y-103083651D01*
X145052674Y-103083651D02*
X145179534Y-103161262D01*
X145179534Y-103161262D02*
X145297813Y-103246129D01*
X145297813Y-103246129D02*
X145414691Y-103343492D01*
X145414691Y-103343492D02*
X145537345Y-103458597D01*
X145537345Y-103458597D02*
X145566554Y-103487557D01*
X145566554Y-103487557D02*
X145686386Y-103612508D01*
X145686386Y-103612508D02*
X145787294Y-103730062D01*
X145787294Y-103730062D02*
X145874522Y-103847398D01*
X145874522Y-103847398D02*
X145953312Y-103971694D01*
X145953312Y-103971694D02*
X146028909Y-104110130D01*
X146028909Y-104110130D02*
X146046061Y-104144055D01*
X146046061Y-104144055D02*
X146156061Y-104394092D01*
X146156061Y-104394092D02*
X146238089Y-104647644D01*
X146238089Y-104647644D02*
X146292199Y-104904891D01*
X146292199Y-104904891D02*
X146308323Y-105030241D01*
X146308323Y-105030241D02*
X146318008Y-105124778D01*
X146318008Y-105124778D02*
X146610444Y-105124778D01*
X146610444Y-105124778D02*
X146610444Y-105449333D01*
X146610444Y-105449333D02*
X146317399Y-105449333D01*
X146317399Y-105449333D02*
X146307535Y-105544583D01*
X146307535Y-105544583D02*
X146267659Y-105801009D01*
X146267659Y-105801009D02*
X146201477Y-106051033D01*
X146201477Y-106051033D02*
X146108236Y-106297208D01*
X146108236Y-106297208D02*
X146046061Y-106430055D01*
X146046061Y-106430055D02*
X145970460Y-106572674D01*
X145970460Y-106572674D02*
X145892848Y-106699534D01*
X145892848Y-106699534D02*
X145807982Y-106817813D01*
X145807982Y-106817813D02*
X145710619Y-106934691D01*
X145710619Y-106934691D02*
X145595514Y-107057345D01*
X145595514Y-107057345D02*
X145566554Y-107086554D01*
X145566554Y-107086554D02*
X145441603Y-107206386D01*
X145441603Y-107206386D02*
X145324049Y-107307294D01*
X145324049Y-107307294D02*
X145206713Y-107394522D01*
X145206713Y-107394522D02*
X145082416Y-107473312D01*
X145082416Y-107473312D02*
X144943980Y-107548909D01*
X144943980Y-107548909D02*
X144910055Y-107566061D01*
X144910055Y-107566061D02*
X144660019Y-107676061D01*
X144660019Y-107676061D02*
X144406466Y-107758089D01*
X144406466Y-107758089D02*
X144149220Y-107812199D01*
X144149220Y-107812199D02*
X144023869Y-107828323D01*
X144023869Y-107828323D02*
X143929333Y-107838008D01*
X143929333Y-107838008D02*
X143929333Y-108130444D01*
X143929333Y-108130444D02*
X143604778Y-108130444D01*
X143604778Y-108130444D02*
X143604778Y-107838008D01*
X143604778Y-107838008D02*
X143510241Y-107828323D01*
X143510241Y-107828323D02*
X143251151Y-107787649D01*
X143251151Y-107787649D02*
X142995840Y-107719083D01*
X142995840Y-107719083D02*
X142744132Y-107622570D01*
X142744132Y-107622570D02*
X142624055Y-107566061D01*
X142624055Y-107566061D02*
X142481437Y-107490460D01*
X142481437Y-107490460D02*
X142354577Y-107412848D01*
X142354577Y-107412848D02*
X142236298Y-107327982D01*
X142236298Y-107327982D02*
X142119420Y-107230619D01*
X142119420Y-107230619D02*
X141996765Y-107115514D01*
X141996765Y-107115514D02*
X141967557Y-107086554D01*
X141967557Y-107086554D02*
X141847725Y-106961603D01*
X141847725Y-106961603D02*
X141746817Y-106844049D01*
X141746817Y-106844049D02*
X141659589Y-106726713D01*
X141659589Y-106726713D02*
X141580798Y-106602416D01*
X141580798Y-106602416D02*
X141505202Y-106463980D01*
X141505202Y-106463980D02*
X141488050Y-106430055D01*
X141488050Y-106430055D02*
X141378050Y-106180019D01*
X141378050Y-106180019D02*
X141296021Y-105926466D01*
X141296021Y-105926466D02*
X141241912Y-105669220D01*
X141241912Y-105669220D02*
X141225788Y-105543869D01*
X141225788Y-105543869D02*
X141216102Y-105449333D01*
X141216102Y-105449333D02*
X140923667Y-105449333D01*
X140923667Y-105449333D02*
X140923667Y-105124778D01*
X140923667Y-105124778D02*
X141216102Y-105124778D01*
X141216102Y-105124778D02*
X141554769Y-105124778D01*
X141554769Y-105124778D02*
X142969778Y-105124778D01*
X142969778Y-105124778D02*
X142969778Y-105449333D01*
X142969778Y-105449333D02*
X141554769Y-105449333D01*
X141554769Y-105449333D02*
X141564476Y-105544583D01*
X141564476Y-105544583D02*
X141600361Y-105764313D01*
X141600361Y-105764313D02*
X141662406Y-105984567D01*
X141662406Y-105984567D02*
X141748889Y-106201475D01*
X141748889Y-106201475D02*
X141858093Y-106411165D01*
X141858093Y-106411165D02*
X141988296Y-106609766D01*
X141988296Y-106609766D02*
X142100199Y-106750858D01*
X142100199Y-106750858D02*
X142253404Y-106908821D01*
X142253404Y-106908821D02*
X142428050Y-107053377D01*
X142428050Y-107053377D02*
X142619457Y-107181804D01*
X142619457Y-107181804D02*
X142822945Y-107291383D01*
X142822945Y-107291383D02*
X143033835Y-107379390D01*
X143033835Y-107379390D02*
X143247446Y-107443106D01*
X143247446Y-107443106D02*
X143316532Y-107458102D01*
X143316532Y-107458102D02*
X143389763Y-107472329D01*
X143389763Y-107472329D02*
X143442120Y-107481925D01*
X143442120Y-107481925D02*
X143480380Y-107487910D01*
X143480380Y-107487910D02*
X143511318Y-107491303D01*
X143511318Y-107491303D02*
X143541713Y-107493125D01*
X143541713Y-107493125D02*
X143551861Y-107493523D01*
X143551861Y-107493523D02*
X143604778Y-107495444D01*
X143604778Y-107495444D02*
X143604778Y-107001555D01*
X143604778Y-107001555D02*
X143929333Y-107001555D01*
X143929333Y-107001555D02*
X143929333Y-107499342D01*
X143929333Y-107499342D02*
X144024583Y-107489635D01*
X144024583Y-107489635D02*
X144243298Y-107453883D01*
X144243298Y-107453883D02*
X144462090Y-107392335D01*
X144462090Y-107392335D02*
X144676909Y-107307114D01*
X144676909Y-107307114D02*
X144883706Y-107200343D01*
X144883706Y-107200343D02*
X145078431Y-107074146D01*
X145078431Y-107074146D02*
X145257033Y-106930645D01*
X145257033Y-106930645D02*
X145415463Y-106771964D01*
X145415463Y-106771964D02*
X145433912Y-106750858D01*
X145433912Y-106750858D02*
X145578922Y-106563270D01*
X145578922Y-106563270D02*
X145704237Y-106361651D01*
X145704237Y-106361651D02*
X145808139Y-106149873D01*
X145808139Y-106149873D02*
X145888907Y-105931808D01*
X145888907Y-105931808D02*
X145944824Y-105711326D01*
X145944824Y-105711326D02*
X145969635Y-105544583D01*
X145969635Y-105544583D02*
X145979342Y-105449333D01*
X145979342Y-105449333D02*
X145481555Y-105449333D01*
X145481555Y-105449333D02*
X145481555Y-105124778D01*
X145481555Y-105124778D02*
X145979342Y-105124778D01*
X145979342Y-105124778D02*
X145969635Y-105029528D01*
X145969635Y-105029528D02*
X145933749Y-104809798D01*
X145933749Y-104809798D02*
X145871705Y-104589544D01*
X145871705Y-104589544D02*
X145785222Y-104372636D01*
X145785222Y-104372636D02*
X145676018Y-104162946D01*
X145676018Y-104162946D02*
X145545814Y-103964345D01*
X145545814Y-103964345D02*
X145433912Y-103823253D01*
X145433912Y-103823253D02*
X145278331Y-103662797D01*
X145278331Y-103662797D02*
X145102063Y-103517253D01*
X145102063Y-103517253D02*
X144909159Y-103388743D01*
X144909159Y-103388743D02*
X144703669Y-103279391D01*
X144703669Y-103279391D02*
X144489643Y-103191319D01*
X144489643Y-103191319D02*
X144271131Y-103126651D01*
X144271131Y-103126651D02*
X144052182Y-103087509D01*
X144052182Y-103087509D02*
X144024583Y-103084476D01*
X144024583Y-103084476D02*
X143929333Y-103074769D01*
X143929333Y-103074769D02*
X143929333Y-104489778D01*
X143929333Y-104489778D02*
X143604778Y-104489778D01*
X143604778Y-104489778D02*
X143604778Y-103074769D01*
X143604778Y-103074769D02*
X143509528Y-103084476D01*
X143509528Y-103084476D02*
X143290813Y-103120228D01*
X143290813Y-103120228D02*
X143072021Y-103181776D01*
X143072021Y-103181776D02*
X142857202Y-103266997D01*
X142857202Y-103266997D02*
X142650405Y-103373767D01*
X142650405Y-103373767D02*
X142455680Y-103499965D01*
X142455680Y-103499965D02*
X142277078Y-103643466D01*
X142277078Y-103643466D02*
X142118648Y-103802147D01*
X142118648Y-103802147D02*
X142100199Y-103823253D01*
X142100199Y-103823253D02*
X141955189Y-104010841D01*
X141955189Y-104010841D02*
X141829874Y-104212460D01*
X141829874Y-104212460D02*
X141725972Y-104424238D01*
X141725972Y-104424238D02*
X141645204Y-104642303D01*
X141645204Y-104642303D02*
X141589287Y-104862784D01*
X141589287Y-104862784D02*
X141564476Y-105029528D01*
X141564476Y-105029528D02*
X141554769Y-105124778D01*
X141554769Y-105124778D02*
X141216102Y-105124778D01*
X141216102Y-105124778D02*
X141225788Y-105030241D01*
X141225788Y-105030241D02*
X141266461Y-104771151D01*
X141266461Y-104771151D02*
X141335028Y-104515840D01*
X141335028Y-104515840D02*
X141431540Y-104264132D01*
X141431540Y-104264132D02*
X141488050Y-104144055D01*
X141488050Y-104144055D02*
X141563651Y-104001437D01*
X141563651Y-104001437D02*
X141641262Y-103874577D01*
X141641262Y-103874577D02*
X141726129Y-103756298D01*
X141726129Y-103756298D02*
X141823492Y-103639420D01*
X141823492Y-103639420D02*
X141938597Y-103516765D01*
X141938597Y-103516765D02*
X141967557Y-103487557D01*
X141967557Y-103487557D02*
X142092508Y-103367725D01*
X142092508Y-103367725D02*
X142210062Y-103266817D01*
X142210062Y-103266817D02*
X142327398Y-103179589D01*
X142327398Y-103179589D02*
X142451694Y-103100798D01*
X142451694Y-103100798D02*
X142590130Y-103025202D01*
X142590130Y-103025202D02*
X142624055Y-103008050D01*
X142624055Y-103008050D02*
X142874092Y-102898050D01*
X142874092Y-102898050D02*
X143127644Y-102816021D01*
X143127644Y-102816021D02*
X143384891Y-102761912D01*
X143384891Y-102761912D02*
X143510241Y-102745788D01*
X143510241Y-102745788D02*
X143604778Y-102736102D01*
X143604778Y-102736102D02*
X143604778Y-102443667D01*
X143604778Y-102443667D02*
X143929333Y-102443667D01*
X143929333Y-102443667D02*
X143929333Y-102736102D01*
X143929333Y-102736102D02*
X143929333Y-102736102D01*
G36*
X141266461Y-104771151D02*
G01*
X141335028Y-104515840D01*
X141431540Y-104264132D01*
X141488050Y-104144055D01*
X141563651Y-104001437D01*
X141641262Y-103874577D01*
X141726129Y-103756298D01*
X141823492Y-103639420D01*
X141938597Y-103516765D01*
X141967557Y-103487557D01*
X142092508Y-103367725D01*
X142210062Y-103266817D01*
X142327398Y-103179589D01*
X142451694Y-103100798D01*
X142590130Y-103025202D01*
X142624055Y-103008050D01*
X142874092Y-102898050D01*
X143127644Y-102816021D01*
X143384891Y-102761912D01*
X143510241Y-102745788D01*
X143604778Y-102736102D01*
X143604778Y-102443667D01*
X143929333Y-102443667D01*
X143929333Y-102736102D01*
X144023869Y-102745788D01*
X144282960Y-102786461D01*
X144538270Y-102855028D01*
X144789979Y-102951540D01*
X144910055Y-103008050D01*
X145052674Y-103083651D01*
X145179534Y-103161262D01*
X145297813Y-103246129D01*
X145414691Y-103343492D01*
X145537345Y-103458597D01*
X145566554Y-103487557D01*
X145686386Y-103612508D01*
X145787294Y-103730062D01*
X145874522Y-103847398D01*
X145953312Y-103971694D01*
X146028909Y-104110130D01*
X146046061Y-104144055D01*
X146156061Y-104394092D01*
X146238089Y-104647644D01*
X146292199Y-104904891D01*
X146308323Y-105030241D01*
X146318008Y-105124778D01*
X146610444Y-105124778D01*
X146610444Y-105449333D01*
X146317399Y-105449333D01*
X146307535Y-105544583D01*
X146267659Y-105801009D01*
X146201477Y-106051033D01*
X146108236Y-106297208D01*
X146046061Y-106430055D01*
X145970460Y-106572674D01*
X145892848Y-106699534D01*
X145807982Y-106817813D01*
X145710619Y-106934691D01*
X145595514Y-107057345D01*
X145566554Y-107086554D01*
X145441603Y-107206386D01*
X145324049Y-107307294D01*
X145206713Y-107394522D01*
X145082416Y-107473312D01*
X144943980Y-107548909D01*
X144910055Y-107566061D01*
X144660019Y-107676061D01*
X144406466Y-107758089D01*
X144149220Y-107812199D01*
X144023869Y-107828323D01*
X143929333Y-107838008D01*
X143929333Y-108130444D01*
X143604778Y-108130444D01*
X143604778Y-107838008D01*
X143510241Y-107828323D01*
X143251151Y-107787649D01*
X142995840Y-107719083D01*
X142744132Y-107622570D01*
X142624055Y-107566061D01*
X142481437Y-107490460D01*
X142354577Y-107412848D01*
X142236298Y-107327982D01*
X142119420Y-107230619D01*
X141996765Y-107115514D01*
X141967557Y-107086554D01*
X141847725Y-106961603D01*
X141746817Y-106844049D01*
X141659589Y-106726713D01*
X141580798Y-106602416D01*
X141505202Y-106463980D01*
X141488050Y-106430055D01*
X141378050Y-106180019D01*
X141296021Y-105926466D01*
X141241912Y-105669220D01*
X141225788Y-105543869D01*
X141216102Y-105449333D01*
X140923667Y-105449333D01*
X140923667Y-105124778D01*
X141216102Y-105124778D01*
X141554769Y-105124778D01*
X142969778Y-105124778D01*
X142969778Y-105449333D01*
X141554769Y-105449333D01*
X141564476Y-105544583D01*
X141600361Y-105764313D01*
X141662406Y-105984567D01*
X141748889Y-106201475D01*
X141858093Y-106411165D01*
X141988296Y-106609766D01*
X142100199Y-106750858D01*
X142253404Y-106908821D01*
X142428050Y-107053377D01*
X142619457Y-107181804D01*
X142822945Y-107291383D01*
X143033835Y-107379390D01*
X143247446Y-107443106D01*
X143316532Y-107458102D01*
X143389763Y-107472329D01*
X143442120Y-107481925D01*
X143480380Y-107487910D01*
X143511318Y-107491303D01*
X143541713Y-107493125D01*
X143551861Y-107493523D01*
X143604778Y-107495444D01*
X143604778Y-107001555D01*
X143929333Y-107001555D01*
X143929333Y-107499342D01*
X144024583Y-107489635D01*
X144243298Y-107453883D01*
X144462090Y-107392335D01*
X144676909Y-107307114D01*
X144883706Y-107200343D01*
X145078431Y-107074146D01*
X145257033Y-106930645D01*
X145415463Y-106771964D01*
X145433912Y-106750858D01*
X145578922Y-106563270D01*
X145704237Y-106361651D01*
X145808139Y-106149873D01*
X145888907Y-105931808D01*
X145944824Y-105711326D01*
X145969635Y-105544583D01*
X145979342Y-105449333D01*
X145481555Y-105449333D01*
X145481555Y-105124778D01*
X145979342Y-105124778D01*
X145969635Y-105029528D01*
X145933749Y-104809798D01*
X145871705Y-104589544D01*
X145785222Y-104372636D01*
X145676018Y-104162946D01*
X145545814Y-103964345D01*
X145433912Y-103823253D01*
X145278331Y-103662797D01*
X145102063Y-103517253D01*
X144909159Y-103388743D01*
X144703669Y-103279391D01*
X144489643Y-103191319D01*
X144271131Y-103126651D01*
X144052182Y-103087509D01*
X144024583Y-103084476D01*
X143929333Y-103074769D01*
X143929333Y-104489778D01*
X143604778Y-104489778D01*
X143604778Y-103074769D01*
X143509528Y-103084476D01*
X143290813Y-103120228D01*
X143072021Y-103181776D01*
X142857202Y-103266997D01*
X142650405Y-103373767D01*
X142455680Y-103499965D01*
X142277078Y-103643466D01*
X142118648Y-103802147D01*
X142100199Y-103823253D01*
X141955189Y-104010841D01*
X141829874Y-104212460D01*
X141725972Y-104424238D01*
X141645204Y-104642303D01*
X141589287Y-104862784D01*
X141564476Y-105029528D01*
X141554769Y-105124778D01*
X141216102Y-105124778D01*
X141225788Y-105030241D01*
X141266461Y-104771151D01*
G37*
X141266461Y-104771151D02*
X141335028Y-104515840D01*
X141431540Y-104264132D01*
X141488050Y-104144055D01*
X141563651Y-104001437D01*
X141641262Y-103874577D01*
X141726129Y-103756298D01*
X141823492Y-103639420D01*
X141938597Y-103516765D01*
X141967557Y-103487557D01*
X142092508Y-103367725D01*
X142210062Y-103266817D01*
X142327398Y-103179589D01*
X142451694Y-103100798D01*
X142590130Y-103025202D01*
X142624055Y-103008050D01*
X142874092Y-102898050D01*
X143127644Y-102816021D01*
X143384891Y-102761912D01*
X143510241Y-102745788D01*
X143604778Y-102736102D01*
X143604778Y-102443667D01*
X143929333Y-102443667D01*
X143929333Y-102736102D01*
X144023869Y-102745788D01*
X144282960Y-102786461D01*
X144538270Y-102855028D01*
X144789979Y-102951540D01*
X144910055Y-103008050D01*
X145052674Y-103083651D01*
X145179534Y-103161262D01*
X145297813Y-103246129D01*
X145414691Y-103343492D01*
X145537345Y-103458597D01*
X145566554Y-103487557D01*
X145686386Y-103612508D01*
X145787294Y-103730062D01*
X145874522Y-103847398D01*
X145953312Y-103971694D01*
X146028909Y-104110130D01*
X146046061Y-104144055D01*
X146156061Y-104394092D01*
X146238089Y-104647644D01*
X146292199Y-104904891D01*
X146308323Y-105030241D01*
X146318008Y-105124778D01*
X146610444Y-105124778D01*
X146610444Y-105449333D01*
X146317399Y-105449333D01*
X146307535Y-105544583D01*
X146267659Y-105801009D01*
X146201477Y-106051033D01*
X146108236Y-106297208D01*
X146046061Y-106430055D01*
X145970460Y-106572674D01*
X145892848Y-106699534D01*
X145807982Y-106817813D01*
X145710619Y-106934691D01*
X145595514Y-107057345D01*
X145566554Y-107086554D01*
X145441603Y-107206386D01*
X145324049Y-107307294D01*
X145206713Y-107394522D01*
X145082416Y-107473312D01*
X144943980Y-107548909D01*
X144910055Y-107566061D01*
X144660019Y-107676061D01*
X144406466Y-107758089D01*
X144149220Y-107812199D01*
X144023869Y-107828323D01*
X143929333Y-107838008D01*
X143929333Y-108130444D01*
X143604778Y-108130444D01*
X143604778Y-107838008D01*
X143510241Y-107828323D01*
X143251151Y-107787649D01*
X142995840Y-107719083D01*
X142744132Y-107622570D01*
X142624055Y-107566061D01*
X142481437Y-107490460D01*
X142354577Y-107412848D01*
X142236298Y-107327982D01*
X142119420Y-107230619D01*
X141996765Y-107115514D01*
X141967557Y-107086554D01*
X141847725Y-106961603D01*
X141746817Y-106844049D01*
X141659589Y-106726713D01*
X141580798Y-106602416D01*
X141505202Y-106463980D01*
X141488050Y-106430055D01*
X141378050Y-106180019D01*
X141296021Y-105926466D01*
X141241912Y-105669220D01*
X141225788Y-105543869D01*
X141216102Y-105449333D01*
X140923667Y-105449333D01*
X140923667Y-105124778D01*
X141216102Y-105124778D01*
X141554769Y-105124778D01*
X142969778Y-105124778D01*
X142969778Y-105449333D01*
X141554769Y-105449333D01*
X141564476Y-105544583D01*
X141600361Y-105764313D01*
X141662406Y-105984567D01*
X141748889Y-106201475D01*
X141858093Y-106411165D01*
X141988296Y-106609766D01*
X142100199Y-106750858D01*
X142253404Y-106908821D01*
X142428050Y-107053377D01*
X142619457Y-107181804D01*
X142822945Y-107291383D01*
X143033835Y-107379390D01*
X143247446Y-107443106D01*
X143316532Y-107458102D01*
X143389763Y-107472329D01*
X143442120Y-107481925D01*
X143480380Y-107487910D01*
X143511318Y-107491303D01*
X143541713Y-107493125D01*
X143551861Y-107493523D01*
X143604778Y-107495444D01*
X143604778Y-107001555D01*
X143929333Y-107001555D01*
X143929333Y-107499342D01*
X144024583Y-107489635D01*
X144243298Y-107453883D01*
X144462090Y-107392335D01*
X144676909Y-107307114D01*
X144883706Y-107200343D01*
X145078431Y-107074146D01*
X145257033Y-106930645D01*
X145415463Y-106771964D01*
X145433912Y-106750858D01*
X145578922Y-106563270D01*
X145704237Y-106361651D01*
X145808139Y-106149873D01*
X145888907Y-105931808D01*
X145944824Y-105711326D01*
X145969635Y-105544583D01*
X145979342Y-105449333D01*
X145481555Y-105449333D01*
X145481555Y-105124778D01*
X145979342Y-105124778D01*
X145969635Y-105029528D01*
X145933749Y-104809798D01*
X145871705Y-104589544D01*
X145785222Y-104372636D01*
X145676018Y-104162946D01*
X145545814Y-103964345D01*
X145433912Y-103823253D01*
X145278331Y-103662797D01*
X145102063Y-103517253D01*
X144909159Y-103388743D01*
X144703669Y-103279391D01*
X144489643Y-103191319D01*
X144271131Y-103126651D01*
X144052182Y-103087509D01*
X144024583Y-103084476D01*
X143929333Y-103074769D01*
X143929333Y-104489778D01*
X143604778Y-104489778D01*
X143604778Y-103074769D01*
X143509528Y-103084476D01*
X143290813Y-103120228D01*
X143072021Y-103181776D01*
X142857202Y-103266997D01*
X142650405Y-103373767D01*
X142455680Y-103499965D01*
X142277078Y-103643466D01*
X142118648Y-103802147D01*
X142100199Y-103823253D01*
X141955189Y-104010841D01*
X141829874Y-104212460D01*
X141725972Y-104424238D01*
X141645204Y-104642303D01*
X141589287Y-104862784D01*
X141564476Y-105029528D01*
X141554769Y-105124778D01*
X141216102Y-105124778D01*
X141225788Y-105030241D01*
X141266461Y-104771151D01*
X143932439Y-104937805D02*
X143936389Y-105117722D01*
X143936389Y-105117722D02*
X144116305Y-105121671D01*
X144116305Y-105121671D02*
X144296222Y-105125621D01*
X144296222Y-105125621D02*
X144296222Y-105448490D01*
X144296222Y-105448490D02*
X144116305Y-105452439D01*
X144116305Y-105452439D02*
X143936389Y-105456389D01*
X143936389Y-105456389D02*
X143932439Y-105636305D01*
X143932439Y-105636305D02*
X143928490Y-105816222D01*
X143928490Y-105816222D02*
X143605621Y-105816222D01*
X143605621Y-105816222D02*
X143601671Y-105636305D01*
X143601671Y-105636305D02*
X143597722Y-105456389D01*
X143597722Y-105456389D02*
X143417805Y-105452439D01*
X143417805Y-105452439D02*
X143237889Y-105448490D01*
X143237889Y-105448490D02*
X143237889Y-105125621D01*
X143237889Y-105125621D02*
X143417805Y-105121671D01*
X143417805Y-105121671D02*
X143597722Y-105117722D01*
X143597722Y-105117722D02*
X143601671Y-104937805D01*
X143601671Y-104937805D02*
X143605621Y-104757889D01*
X143605621Y-104757889D02*
X143928490Y-104757889D01*
X143928490Y-104757889D02*
X143932439Y-104937805D01*
X143932439Y-104937805D02*
X143932439Y-104937805D01*
G36*
X143932439Y-104937805D02*
G01*
X143936389Y-105117722D01*
X144116305Y-105121671D01*
X144296222Y-105125621D01*
X144296222Y-105448490D01*
X144116305Y-105452439D01*
X143936389Y-105456389D01*
X143932439Y-105636305D01*
X143928490Y-105816222D01*
X143605621Y-105816222D01*
X143601671Y-105636305D01*
X143597722Y-105456389D01*
X143417805Y-105452439D01*
X143237889Y-105448490D01*
X143237889Y-105125621D01*
X143417805Y-105121671D01*
X143597722Y-105117722D01*
X143601671Y-104937805D01*
X143605621Y-104757889D01*
X143928490Y-104757889D01*
X143932439Y-104937805D01*
G37*
X143932439Y-104937805D02*
X143936389Y-105117722D01*
X144116305Y-105121671D01*
X144296222Y-105125621D01*
X144296222Y-105448490D01*
X144116305Y-105452439D01*
X143936389Y-105456389D01*
X143932439Y-105636305D01*
X143928490Y-105816222D01*
X143605621Y-105816222D01*
X143601671Y-105636305D01*
X143597722Y-105456389D01*
X143417805Y-105452439D01*
X143237889Y-105448490D01*
X143237889Y-105125621D01*
X143417805Y-105121671D01*
X143597722Y-105117722D01*
X143601671Y-104937805D01*
X143605621Y-104757889D01*
X143928490Y-104757889D01*
X143932439Y-104937805D01*
M02*
