G04 #@! TF.GenerationSoftware,KiCad,Pcbnew,(6.0.1-0)*
G04 #@! TF.CreationDate,2022-12-09T09:23:44-05:00*
G04 #@! TF.ProjectId,indexingWheel,696e6465-7869-46e6-9757-6865656c2e6b,rev?*
G04 #@! TF.SameCoordinates,Original*
G04 #@! TF.FileFunction,Profile,NP*
%FSLAX46Y46*%
G04 Gerber Fmt 4.6, Leading zero omitted, Abs format (unit mm)*
G04 Created by KiCad (PCBNEW (6.0.1-0)) date 2022-12-09 09:23:44*
%MOMM*%
%LPD*%
G01*
G04 APERTURE LIST*
G04 #@! TA.AperFunction,Profile*
%ADD10C,0.050000*%
G04 #@! TD*
G04 APERTURE END LIST*
D10*
X142311014Y-74337142D02*
X141926014Y-73407142D01*
X159141543Y-100300889D02*
G75*
G03*
X160640000Y-97700000I748457J1300889D01*
G01*
X138808014Y-109902142D02*
G75*
G03*
X141387023Y-111280619I10691956J16901920D01*
G01*
X133154014Y-81476142D02*
X132317014Y-80917142D01*
X129988014Y-88609142D02*
X129001014Y-88413142D01*
X169012014Y-97391142D02*
X169999014Y-97587142D01*
X165846014Y-81476142D02*
G75*
G03*
X163990808Y-79215688I-16346078J-11524066D01*
G01*
X135009014Y-79216142D02*
X134297014Y-78504142D01*
X169207014Y-96410142D02*
X170194014Y-96607142D01*
X150000014Y-112994142D02*
G75*
G03*
X152910275Y-112707505I-500014J19994142D01*
G01*
X138808014Y-109902142D02*
X138249014Y-110739142D01*
X160192014Y-76098142D02*
X160751014Y-75261142D01*
X135004014Y-77797142D02*
G75*
G03*
X134298014Y-78505142I-353000J-354000D01*
G01*
X150000014Y-112994142D02*
X150000014Y-114000142D01*
X167780014Y-84887142D02*
X168710014Y-84502142D01*
X161583014Y-75817142D02*
G75*
G03*
X160751014Y-75261142I-416000J278000D01*
G01*
X146090014Y-112707142D02*
G75*
G03*
X149000219Y-112993745I3410012J19707108D01*
G01*
X128806014Y-96607142D02*
G75*
G03*
X129002014Y-97587142I98000J-490000D01*
G01*
X161024014Y-109346142D02*
X161583014Y-110183142D01*
X161024014Y-76654142D02*
X161583014Y-75817142D01*
X137976014Y-76654142D02*
X137417014Y-75817142D01*
X149000014Y-73006142D02*
X149000014Y-72000142D01*
X163996014Y-108203142D02*
G75*
G03*
X164702014Y-107495142I353000J354000D01*
G01*
X165846014Y-104524142D02*
X166683014Y-105083142D01*
X135009014Y-79216142D02*
G75*
G03*
X133153876Y-81476622I14490921J-13783936D01*
G01*
X135716014Y-78509142D02*
X135004014Y-77797142D01*
X168163014Y-85811142D02*
X169093014Y-85426142D01*
X148000000Y-81000000D02*
X148000000Y-83000000D01*
X149000014Y-73006142D02*
G75*
G03*
X146089753Y-73292779I500014J-19994142D01*
G01*
X128500014Y-92500142D02*
G75*
G03*
X128500014Y-93500142I0J-500000D01*
G01*
X157613014Y-111280142D02*
G75*
G03*
X160191954Y-109901668I-8113035J18280063D01*
G01*
X141387014Y-111280142D02*
X141002014Y-112210142D01*
X145893014Y-72306142D02*
G75*
G03*
X144913014Y-72502142I-490000J-98000D01*
G01*
X167780014Y-101113142D02*
X168710014Y-101498142D01*
X161024014Y-109346142D02*
G75*
G03*
X163284468Y-107490936I-11524066J16346078D01*
G01*
X148000000Y-83000000D02*
G75*
G03*
X151000000Y-83000000I1500000J0D01*
G01*
X129907014Y-100574142D02*
G75*
G03*
X130291014Y-101498142I192000J-462000D01*
G01*
X148400001Y-92000001D02*
X150600000Y-92000000D01*
X166683014Y-105083142D02*
G75*
G03*
X167239014Y-104251142I278000J416000D01*
G01*
X131220014Y-101113142D02*
X130290014Y-101498142D01*
X160192014Y-76098142D02*
G75*
G03*
X157613005Y-74719665I-10691956J-16901920D01*
G01*
X132317014Y-80917142D02*
G75*
G03*
X131761014Y-81749142I-278000J-416000D01*
G01*
X132598014Y-82308142D02*
G75*
G03*
X131219537Y-84887151I16901920J-10691956D01*
G01*
X129793014Y-89590142D02*
G75*
G03*
X129506411Y-92500347I19707108J-3410012D01*
G01*
X163284014Y-78509142D02*
G75*
G03*
X161023534Y-76654004I-13783936J-14490921D01*
G01*
X169093014Y-85426142D02*
G75*
G03*
X168709014Y-84502142I-192000J462000D01*
G01*
X152910014Y-73293142D02*
G75*
G03*
X149999809Y-73006539I-3410012J-19707108D01*
G01*
X169494014Y-92500142D02*
G75*
G03*
X169207377Y-89589881I-19994142J-500014D01*
G01*
X154087014Y-72501142D02*
G75*
G03*
X153107014Y-72307142I-490000J97000D01*
G01*
X129988014Y-97391142D02*
G75*
G03*
X130836900Y-100189523I19512129J4391039D01*
G01*
X141002014Y-112210142D02*
G75*
G03*
X141926014Y-112592142I462000J-191000D01*
G01*
X166402014Y-82308142D02*
X167239014Y-81749142D01*
X153891014Y-73488142D02*
X154087014Y-72501142D01*
X168163014Y-100189142D02*
X169093014Y-100574142D01*
X148400001Y-92000001D02*
G75*
G03*
X150599999Y-92000001I1099999J-999999D01*
G01*
X131220014Y-84887142D02*
X130290014Y-84502142D01*
X153891014Y-112512142D02*
G75*
G03*
X156689395Y-111663256I-4391039J19512129D01*
G01*
X129793014Y-96410142D02*
X128806014Y-96607142D01*
X132598014Y-103692142D02*
X131761014Y-104251142D01*
X146090014Y-73293142D02*
X145893014Y-72306142D01*
X130290014Y-84502142D02*
G75*
G03*
X129908014Y-85426142I-191000J-462000D01*
G01*
X137976014Y-109346142D02*
X137417014Y-110183142D01*
X163991014Y-106784142D02*
G75*
G03*
X165846152Y-104523662I-14490921J13783936D01*
G01*
X165846014Y-81476142D02*
X166683014Y-80917142D01*
X159141543Y-100300889D02*
X157410000Y-99300000D01*
X150000014Y-72000142D02*
G75*
G03*
X149000014Y-72000142I-500000J0D01*
G01*
X164703014Y-78504142D02*
G75*
G03*
X163995014Y-77798142I-354000J353000D01*
G01*
X166402014Y-103692142D02*
X167239014Y-104251142D01*
X160640000Y-97700000D02*
X158911275Y-96700736D01*
X156689014Y-74337142D02*
G75*
G03*
X153890654Y-73488310I-7188986J-18662944D01*
G01*
X135716014Y-107491142D02*
G75*
G03*
X137976494Y-109346280I13783936J14490921D01*
G01*
X169494014Y-92500142D02*
X170500014Y-92500142D01*
X133154014Y-104524142D02*
G75*
G03*
X135009220Y-106784596I16346078J11524066D01*
G01*
X156689014Y-111663142D02*
X157074014Y-112593142D01*
X138358394Y-97700928D02*
X140080000Y-96710001D01*
X157613014Y-74720142D02*
X157998014Y-73790142D01*
X160751014Y-110739142D02*
G75*
G03*
X161583014Y-110183142I416000J278000D01*
G01*
X135716014Y-107491142D02*
X135004014Y-108203142D01*
X135009014Y-106784142D02*
X134297014Y-107496142D01*
X133154014Y-104524142D02*
X132317014Y-105083142D01*
X149000014Y-114000142D02*
G75*
G03*
X150000014Y-114000142I500000J0D01*
G01*
X153891014Y-112512142D02*
X154087014Y-113499142D01*
X132598014Y-82308142D02*
X131761014Y-81749142D01*
X152910014Y-73293142D02*
X153107014Y-72306142D01*
X129506014Y-93500142D02*
X128500014Y-93500142D01*
X163284014Y-107491142D02*
X163996014Y-108203142D01*
X141387014Y-74720142D02*
X141002014Y-73790142D01*
X163991014Y-106784142D02*
X164703014Y-107496142D01*
X167780014Y-84887142D02*
G75*
G03*
X166401540Y-82308202I-18280063J-8113035D01*
G01*
X129506014Y-93500142D02*
G75*
G03*
X129792651Y-96410403I19994142J500014D01*
G01*
X158911275Y-96700736D02*
G75*
G03*
X157410000Y-99300000I-751275J-1299264D01*
G01*
X131761014Y-104251142D02*
G75*
G03*
X132317014Y-105083142I278000J-416000D01*
G01*
X130837014Y-85811142D02*
X129907014Y-85426142D01*
X144913014Y-113499142D02*
G75*
G03*
X145893014Y-113693142I490000J-97000D01*
G01*
X157998014Y-73790142D02*
G75*
G03*
X157074014Y-73408142I-462000J191000D01*
G01*
X169207014Y-96410142D02*
G75*
G03*
X169493617Y-93499937I-19707108J3410012D01*
G01*
X169207014Y-89590142D02*
X170194014Y-89393142D01*
X129001014Y-88413142D02*
G75*
G03*
X128807014Y-89393142I-97000J-490000D01*
G01*
X170500014Y-93500142D02*
G75*
G03*
X170500014Y-92500142I0J500000D01*
G01*
X157613014Y-111280142D02*
X157998014Y-112210142D01*
X134297014Y-107496142D02*
G75*
G03*
X135005014Y-108202142I354000J-353000D01*
G01*
X157074014Y-112593142D02*
G75*
G03*
X157998014Y-112209142I462000J192000D01*
G01*
X141387014Y-74720142D02*
G75*
G03*
X138808074Y-76098616I8113035J-18280063D01*
G01*
X138249014Y-75261142D02*
G75*
G03*
X137417014Y-75817142I-416000J-278000D01*
G01*
X142311014Y-111663142D02*
G75*
G03*
X145109374Y-112511974I7188986J18662944D01*
G01*
X169999014Y-97587142D02*
G75*
G03*
X170193014Y-96607142I97000J490000D01*
G01*
X150000014Y-73006142D02*
X150000014Y-72000142D01*
X141600747Y-99289559D02*
G75*
G03*
X140080000Y-96710001I-760747J1289559D01*
G01*
X163284014Y-78509142D02*
X163996014Y-77797142D01*
X146090014Y-112707142D02*
X145893014Y-113694142D01*
X131220014Y-101113142D02*
G75*
G03*
X132598488Y-103692082I18280063J8113035D01*
G01*
X137976014Y-76654142D02*
G75*
G03*
X135715560Y-78509348I11524066J-16346078D01*
G01*
X138358394Y-97700928D02*
G75*
G03*
X139860000Y-100300000I751606J-1299072D01*
G01*
X142311014Y-111663142D02*
X141926014Y-112593142D01*
X156689014Y-74337142D02*
X157074014Y-73407142D01*
X137417014Y-110183142D02*
G75*
G03*
X138249014Y-110739142I416000J-278000D01*
G01*
X129793014Y-89590142D02*
X128806014Y-89393142D01*
X167239014Y-81749142D02*
G75*
G03*
X166683014Y-80917142I-278000J416000D01*
G01*
X169012014Y-88609142D02*
X169999014Y-88413142D01*
X145109014Y-73488142D02*
X144913014Y-72501142D01*
X129506014Y-92500142D02*
X128500014Y-92500142D01*
X151000000Y-81000000D02*
X151000000Y-83000000D01*
X151000000Y-81000000D02*
G75*
G03*
X148000000Y-81000000I-1500000J0D01*
G01*
X160192014Y-109902142D02*
X160751014Y-110739142D01*
X152910014Y-112707142D02*
X153107014Y-113694142D01*
X166402014Y-103692142D02*
G75*
G03*
X167780491Y-101113133I-16901920J10691956D01*
G01*
X139860000Y-100300000D02*
X141600747Y-99289559D01*
X168163014Y-100189142D02*
G75*
G03*
X169011846Y-97390782I-18662944J7188986D01*
G01*
X153107014Y-113694142D02*
G75*
G03*
X154087014Y-113498142I490000J98000D01*
G01*
X130837014Y-85811142D02*
G75*
G03*
X129988182Y-88609502I18662944J-7188986D01*
G01*
X145109014Y-112512142D02*
X144913014Y-113499142D01*
X163991014Y-79216142D02*
X164703014Y-78504142D01*
X141926014Y-73407142D02*
G75*
G03*
X141002014Y-73791142I-462000J-192000D01*
G01*
X149000014Y-112994142D02*
X149000014Y-114000142D01*
X170194014Y-89393142D02*
G75*
G03*
X169998014Y-88413142I-98000J490000D01*
G01*
X169012014Y-88609142D02*
G75*
G03*
X168163128Y-85810761I-19512129J-4391039D01*
G01*
X129988014Y-97391142D02*
X129001014Y-97587142D01*
X145109014Y-73488142D02*
G75*
G03*
X142310633Y-74337028I4391039J-19512129D01*
G01*
X169494014Y-93500142D02*
X170500014Y-93500142D01*
X138808014Y-76098142D02*
X138249014Y-75261142D01*
X130837014Y-100189142D02*
X129907014Y-100574142D01*
X168710014Y-101498142D02*
G75*
G03*
X169092014Y-100574142I191000J462000D01*
G01*
M02*
