G04 #@! TF.GenerationSoftware,KiCad,Pcbnew,(6.0.1-0)*
G04 #@! TF.CreationDate,2022-12-09T09:23:44-05:00*
G04 #@! TF.ProjectId,indexingWheel,696e6465-7869-46e6-9757-6865656c2e6b,rev?*
G04 #@! TF.SameCoordinates,Original*
G04 #@! TF.FileFunction,Copper,L2,Bot*
G04 #@! TF.FilePolarity,Positive*
%FSLAX46Y46*%
G04 Gerber Fmt 4.6, Leading zero omitted, Abs format (unit mm)*
G04 Created by KiCad (PCBNEW (6.0.1-0)) date 2022-12-09 09:23:44*
%MOMM*%
%LPD*%
G01*
G04 APERTURE LIST*
G04 #@! TA.AperFunction,ViaPad*
%ADD10C,0.800000*%
G04 #@! TD*
G04 APERTURE END LIST*
D10*
X147000000Y-93000000D03*
X152000000Y-93000000D03*
G04 #@! TA.AperFunction,NonConductor*
G36*
X149558248Y-71557808D02*
G01*
X149600037Y-71563310D01*
X149631810Y-71571824D01*
X149709686Y-71604082D01*
X149738171Y-71620528D01*
X149805051Y-71671847D01*
X149828309Y-71695105D01*
X149879628Y-71761985D01*
X149896074Y-71790470D01*
X149928332Y-71868346D01*
X149936846Y-71900119D01*
X149948149Y-71985972D01*
X149948606Y-71989447D01*
X149948654Y-71993477D01*
X149945894Y-72000142D01*
X149948818Y-72007201D01*
X149948963Y-72019357D01*
X149948775Y-72021110D01*
X149950014Y-72029730D01*
X149950014Y-72995480D01*
X149947463Y-72995480D01*
X149948105Y-72999781D01*
X149945706Y-73005187D01*
X149949534Y-73015124D01*
X149949534Y-73015125D01*
X149950955Y-73018813D01*
X149960596Y-73043840D01*
X149961714Y-73044336D01*
X149961745Y-73044411D01*
X149963810Y-73045266D01*
X149998457Y-73060642D01*
X149999739Y-73060148D01*
X150000014Y-73060262D01*
X150007604Y-73057118D01*
X150008077Y-73056936D01*
X150009914Y-73057016D01*
X150022651Y-73058708D01*
X150029566Y-73057867D01*
X150725435Y-73088007D01*
X150730036Y-73088291D01*
X151168795Y-73123410D01*
X151452947Y-73146154D01*
X151457512Y-73146603D01*
X151771313Y-73183314D01*
X152177899Y-73230880D01*
X152182466Y-73231500D01*
X152891411Y-73340855D01*
X152890936Y-73343936D01*
X152896127Y-73344011D01*
X152899421Y-73346215D01*
X152900153Y-73346070D01*
X152900786Y-73346470D01*
X152918817Y-73342412D01*
X152921955Y-73341748D01*
X152923253Y-73341491D01*
X152923254Y-73341490D01*
X152940052Y-73338161D01*
X152940467Y-73337540D01*
X152941198Y-73337376D01*
X152948718Y-73325488D01*
X152951082Y-73321752D01*
X152952847Y-73319039D01*
X152953583Y-73317939D01*
X152953583Y-73317938D01*
X152957100Y-73312683D01*
X152957230Y-73312032D01*
X152963342Y-73302370D01*
X152961125Y-73292518D01*
X152961759Y-73289340D01*
X152964970Y-73278109D01*
X152965223Y-73271986D01*
X152971207Y-73242008D01*
X153153823Y-72327071D01*
X153155439Y-72327394D01*
X153155543Y-72324492D01*
X153160104Y-72317652D01*
X153158503Y-72309642D01*
X153158889Y-72308503D01*
X153158891Y-72308499D01*
X153188364Y-72221410D01*
X153202884Y-72191897D01*
X153217605Y-72169822D01*
X153249583Y-72121868D01*
X153271242Y-72097125D01*
X153334476Y-72041568D01*
X153361807Y-72023270D01*
X153437264Y-71985972D01*
X153468397Y-71975372D01*
X153550939Y-71958875D01*
X153583750Y-71956693D01*
X153667752Y-71962121D01*
X153700017Y-71968509D01*
X153779746Y-71995492D01*
X153809259Y-72010012D01*
X153809622Y-72010254D01*
X153879288Y-72056711D01*
X153904031Y-72078370D01*
X153944580Y-72124522D01*
X153959588Y-72141604D01*
X153977886Y-72168935D01*
X154015184Y-72244392D01*
X154025785Y-72275528D01*
X154042281Y-72358063D01*
X154044463Y-72390882D01*
X154038661Y-72480665D01*
X154037924Y-72484633D01*
X154033924Y-72490632D01*
X154035421Y-72498120D01*
X154033200Y-72510082D01*
X154032658Y-72511817D01*
X154032200Y-72520466D01*
X153854974Y-73412928D01*
X153844132Y-73467523D01*
X153841540Y-73467008D01*
X153841324Y-73471507D01*
X153837854Y-73476429D01*
X153844917Y-73517244D01*
X153845978Y-73517992D01*
X153846024Y-73518224D01*
X153851384Y-73521803D01*
X153853622Y-73523380D01*
X153853622Y-73523381D01*
X153864084Y-73530756D01*
X153864085Y-73530756D01*
X153878773Y-73541110D01*
X153879986Y-73540900D01*
X153880473Y-73541225D01*
X153889355Y-73539456D01*
X153890716Y-73539789D01*
X153903274Y-73544068D01*
X153910431Y-73544606D01*
X154179680Y-73610390D01*
X154586460Y-73709777D01*
X154590860Y-73710938D01*
X155288645Y-73908734D01*
X155293041Y-73910067D01*
X155983122Y-74133254D01*
X155987455Y-74134745D01*
X156591487Y-74354816D01*
X156661482Y-74380318D01*
X156660425Y-74383220D01*
X156665459Y-74384294D01*
X156668313Y-74387147D01*
X156669036Y-74387147D01*
X156669560Y-74387645D01*
X156682800Y-74387314D01*
X156688085Y-74387182D01*
X156691207Y-74387143D01*
X156692601Y-74387143D01*
X156692603Y-74387142D01*
X156709735Y-74387139D01*
X156710247Y-74386627D01*
X156710969Y-74386609D01*
X156723058Y-74373900D01*
X156723744Y-74373179D01*
X156725918Y-74370949D01*
X156726910Y-74369956D01*
X156731407Y-74365457D01*
X156731652Y-74364864D01*
X156739517Y-74356596D01*
X156739264Y-74346478D01*
X156740439Y-74343640D01*
X156745792Y-74333226D01*
X156747255Y-74327177D01*
X157115705Y-73437155D01*
X157117370Y-73437844D01*
X157118098Y-73434758D01*
X157124028Y-73428819D01*
X157124023Y-73420652D01*
X157124588Y-73419672D01*
X157124589Y-73419671D01*
X157170596Y-73339859D01*
X157190602Y-73313750D01*
X157250156Y-73254115D01*
X157276232Y-73234077D01*
X157349194Y-73191887D01*
X157379572Y-73179280D01*
X157460968Y-73157411D01*
X157493574Y-73153096D01*
X157535615Y-73153067D01*
X157577850Y-73153038D01*
X157610465Y-73157310D01*
X157691887Y-73179069D01*
X157722284Y-73191636D01*
X157795297Y-73233725D01*
X157821404Y-73253729D01*
X157881040Y-73313283D01*
X157901079Y-73339360D01*
X157943269Y-73412322D01*
X157955876Y-73442700D01*
X157977745Y-73524096D01*
X157982060Y-73556702D01*
X157982118Y-73640976D01*
X157977846Y-73673593D01*
X157954589Y-73760622D01*
X157953094Y-73764364D01*
X157948000Y-73769465D01*
X157948005Y-73777101D01*
X157943490Y-73788401D01*
X157942626Y-73789985D01*
X157940486Y-73798386D01*
X157571203Y-74690420D01*
X157568845Y-74689444D01*
X157567794Y-74693663D01*
X157563538Y-74697711D01*
X157563239Y-74709657D01*
X157562680Y-74709643D01*
X157562605Y-74710201D01*
X157563011Y-74710201D01*
X157563011Y-74710208D01*
X157563013Y-74716547D01*
X157563013Y-74717092D01*
X157562973Y-74720285D01*
X157562920Y-74722415D01*
X157562502Y-74739120D01*
X157563017Y-74739661D01*
X157563017Y-74740863D01*
X157586279Y-74764116D01*
X157591051Y-74769132D01*
X157591304Y-74769138D01*
X157592313Y-74770147D01*
X157602935Y-74770145D01*
X157604849Y-74771221D01*
X157615566Y-74777424D01*
X157623109Y-74779524D01*
X158252221Y-75072617D01*
X158256363Y-75074640D01*
X158902088Y-75404738D01*
X158906154Y-75406910D01*
X159539452Y-75760450D01*
X159543435Y-75762771D01*
X160156587Y-76135117D01*
X160154988Y-76137750D01*
X160159706Y-76139782D01*
X160161956Y-76143148D01*
X160162665Y-76143289D01*
X160163081Y-76143879D01*
X160181336Y-76147038D01*
X160184388Y-76147606D01*
X160185815Y-76147889D01*
X160185816Y-76147889D01*
X160202584Y-76151220D01*
X160203184Y-76150819D01*
X160203897Y-76150942D01*
X160219039Y-76140267D01*
X160221613Y-76138500D01*
X160222784Y-76137717D01*
X160222785Y-76137715D01*
X160228069Y-76134183D01*
X160228425Y-76133650D01*
X160237751Y-76127075D01*
X160239477Y-76117102D01*
X160241194Y-76114531D01*
X160248465Y-76105374D01*
X160251078Y-76099731D01*
X160299138Y-76027771D01*
X160787065Y-75297189D01*
X160788363Y-75298056D01*
X160789503Y-75295560D01*
X160796011Y-75291212D01*
X160797605Y-75283202D01*
X160798395Y-75282301D01*
X160798397Y-75282300D01*
X160859171Y-75213010D01*
X160883901Y-75191325D01*
X160954064Y-75144449D01*
X160983567Y-75129902D01*
X161063478Y-75102782D01*
X161095738Y-75096367D01*
X161108440Y-75095535D01*
X161179946Y-75090853D01*
X161212763Y-75093006D01*
X161295534Y-75109475D01*
X161326667Y-75120045D01*
X161402361Y-75157379D01*
X161429700Y-75175650D01*
X161468573Y-75209745D01*
X161493144Y-75231296D01*
X161514829Y-75256026D01*
X161553248Y-75313530D01*
X161561707Y-75326192D01*
X161576254Y-75355695D01*
X161603374Y-75435606D01*
X161609789Y-75467866D01*
X161615303Y-75552074D01*
X161613149Y-75584896D01*
X161596682Y-75667655D01*
X161586109Y-75698800D01*
X161546211Y-75779691D01*
X161544013Y-75783066D01*
X161538017Y-75787072D01*
X161536526Y-75794563D01*
X161529886Y-75804759D01*
X161528786Y-75806075D01*
X161525016Y-75813955D01*
X160988834Y-76616790D01*
X160986550Y-76615265D01*
X160984552Y-76619499D01*
X160979301Y-76622821D01*
X160976962Y-76633213D01*
X160974586Y-76643772D01*
X160970206Y-76663232D01*
X160970985Y-76664464D01*
X160970936Y-76664712D01*
X160974781Y-76670464D01*
X160992351Y-76698237D01*
X160993523Y-76698501D01*
X160993956Y-76699148D01*
X161003022Y-76700949D01*
X161003896Y-76701589D01*
X161014052Y-76710517D01*
X161020581Y-76713815D01*
X161581590Y-77124875D01*
X161585258Y-77127667D01*
X162154196Y-77577422D01*
X162157754Y-77580342D01*
X162709887Y-78050631D01*
X162713306Y-78053653D01*
X163163889Y-78466819D01*
X163242049Y-78538489D01*
X163239958Y-78540769D01*
X163244204Y-78543692D01*
X163245745Y-78547411D01*
X163246419Y-78547690D01*
X163246714Y-78548355D01*
X163262825Y-78554562D01*
X163263957Y-78554998D01*
X163266874Y-78556164D01*
X163284014Y-78563263D01*
X163284687Y-78562984D01*
X163285367Y-78563246D01*
X163294382Y-78559245D01*
X163294384Y-78559245D01*
X163302311Y-78555727D01*
X163305194Y-78554490D01*
X163306468Y-78553962D01*
X163312336Y-78551531D01*
X163312795Y-78551072D01*
X163323227Y-78546442D01*
X163326863Y-78537004D01*
X163329075Y-78534792D01*
X163337993Y-78527230D01*
X163341644Y-78522223D01*
X164023363Y-77840504D01*
X164024424Y-77841565D01*
X164025968Y-77839421D01*
X164033337Y-77836356D01*
X164036452Y-77828806D01*
X164110355Y-77771932D01*
X164138814Y-77755447D01*
X164216633Y-77723084D01*
X164248391Y-77714527D01*
X164331934Y-77703407D01*
X164364827Y-77703360D01*
X164448401Y-77714243D01*
X164480182Y-77722711D01*
X164558091Y-77754853D01*
X164586600Y-77771259D01*
X164653533Y-77822468D01*
X164676821Y-77845689D01*
X164728228Y-77912488D01*
X164744709Y-77940942D01*
X164770744Y-78003546D01*
X164777072Y-78018762D01*
X164785629Y-78050519D01*
X164796749Y-78134062D01*
X164796796Y-78166955D01*
X164794398Y-78185372D01*
X164785913Y-78250528D01*
X164777445Y-78282310D01*
X164745303Y-78360219D01*
X164728897Y-78388728D01*
X164674163Y-78460268D01*
X164671347Y-78463160D01*
X164664691Y-78465928D01*
X164661779Y-78472986D01*
X164653291Y-78481704D01*
X164651801Y-78482908D01*
X164646663Y-78489782D01*
X163964019Y-79172426D01*
X163962087Y-79170494D01*
X163959315Y-79174238D01*
X163953507Y-79176476D01*
X163936704Y-79214336D01*
X163937156Y-79215508D01*
X163936893Y-79216142D01*
X163943544Y-79232198D01*
X163944697Y-79235083D01*
X163951596Y-79252989D01*
X163952282Y-79253294D01*
X163952745Y-79254411D01*
X163962007Y-79258248D01*
X163962261Y-79258525D01*
X163970851Y-79269746D01*
X163976875Y-79274462D01*
X164446300Y-79786375D01*
X164449353Y-79789829D01*
X164919654Y-80341949D01*
X164922550Y-80345478D01*
X165363677Y-80903474D01*
X165372336Y-80914427D01*
X165375124Y-80918090D01*
X165585086Y-81204628D01*
X165799127Y-81496734D01*
X165796627Y-81498566D01*
X165800227Y-81502269D01*
X165801008Y-81506200D01*
X165801620Y-81506609D01*
X165801781Y-81507326D01*
X165817493Y-81517265D01*
X165820023Y-81518912D01*
X165835444Y-81529220D01*
X165836165Y-81529077D01*
X165836787Y-81529470D01*
X165846404Y-81527306D01*
X165846405Y-81527306D01*
X165854846Y-81525406D01*
X165857949Y-81524749D01*
X165859290Y-81524483D01*
X165859291Y-81524482D01*
X165865512Y-81523246D01*
X165866056Y-81522883D01*
X165877198Y-81520375D01*
X165882602Y-81511832D01*
X165885244Y-81510067D01*
X165895458Y-81504394D01*
X165899994Y-81500217D01*
X166702518Y-80964242D01*
X166703377Y-80965529D01*
X166705371Y-80963674D01*
X166713084Y-80962139D01*
X166717621Y-80955348D01*
X166801356Y-80914047D01*
X166832501Y-80903474D01*
X166915260Y-80887007D01*
X166948082Y-80884853D01*
X167019588Y-80889535D01*
X167032290Y-80890367D01*
X167064550Y-80896782D01*
X167144461Y-80923902D01*
X167173962Y-80938448D01*
X167200569Y-80956224D01*
X167244130Y-80985327D01*
X167268860Y-81007012D01*
X167324505Y-81070454D01*
X167342777Y-81097795D01*
X167380111Y-81173489D01*
X167390681Y-81204622D01*
X167407150Y-81287393D01*
X167409303Y-81320210D01*
X167403789Y-81404418D01*
X167397374Y-81436678D01*
X167370254Y-81516589D01*
X167355707Y-81546092D01*
X167308831Y-81616255D01*
X167287146Y-81640985D01*
X167219338Y-81700459D01*
X167216014Y-81702738D01*
X167208944Y-81704145D01*
X167204702Y-81710494D01*
X167194665Y-81717376D01*
X167193086Y-81718202D01*
X167186625Y-81724005D01*
X166400426Y-82249077D01*
X166383099Y-82260649D01*
X166381685Y-82258532D01*
X166378469Y-82261450D01*
X166372607Y-82262465D01*
X166348740Y-82296320D01*
X166348952Y-82297547D01*
X166348936Y-82297572D01*
X166349096Y-82298378D01*
X166355803Y-82337135D01*
X166356958Y-82337949D01*
X166357008Y-82338200D01*
X166362901Y-82342139D01*
X166364228Y-82343075D01*
X166365188Y-82344656D01*
X166370835Y-82356142D01*
X166375355Y-82361398D01*
X166736922Y-82956787D01*
X166739242Y-82960770D01*
X167092758Y-83594008D01*
X167094931Y-83598074D01*
X167131707Y-83670012D01*
X167410436Y-84215237D01*
X167425039Y-84243803D01*
X167427057Y-84247935D01*
X167567462Y-84549298D01*
X167730011Y-84898193D01*
X167727198Y-84899504D01*
X167730010Y-84903842D01*
X167730009Y-84907843D01*
X167730529Y-84908363D01*
X167730547Y-84909096D01*
X167743951Y-84921847D01*
X167746185Y-84924026D01*
X167759293Y-84937139D01*
X167760027Y-84937139D01*
X167760559Y-84937645D01*
X167770414Y-84937398D01*
X167770415Y-84937399D01*
X167779042Y-84937183D01*
X167782203Y-84937143D01*
X167789948Y-84937145D01*
X167790553Y-84936895D01*
X167801968Y-84936609D01*
X167808935Y-84929285D01*
X167811880Y-84928066D01*
X167822993Y-84924498D01*
X167828258Y-84921286D01*
X168719984Y-84552130D01*
X168720451Y-84553259D01*
X168722281Y-84552127D01*
X168729783Y-84552118D01*
X168735552Y-84546336D01*
X168797657Y-84529617D01*
X168825695Y-84522069D01*
X168858301Y-84517737D01*
X168900194Y-84517688D01*
X168942682Y-84517638D01*
X168975293Y-84521892D01*
X169050228Y-84541877D01*
X169056826Y-84543637D01*
X169087228Y-84556189D01*
X169160352Y-84598293D01*
X169186468Y-84618284D01*
X169246207Y-84677883D01*
X169266254Y-84703946D01*
X169308532Y-84776976D01*
X169321154Y-84807350D01*
X169343087Y-84888824D01*
X169347419Y-84921429D01*
X169347518Y-85005807D01*
X169343264Y-85038421D01*
X169331968Y-85080775D01*
X169321519Y-85119954D01*
X169308967Y-85150356D01*
X169266863Y-85223480D01*
X169246872Y-85249596D01*
X169187274Y-85309334D01*
X169161209Y-85329383D01*
X169112795Y-85357410D01*
X169083154Y-85374569D01*
X169079457Y-85376157D01*
X169072245Y-85376166D01*
X169066849Y-85381574D01*
X169055675Y-85386375D01*
X169053838Y-85386917D01*
X169046459Y-85391300D01*
X168154551Y-85760531D01*
X168153550Y-85758112D01*
X168149723Y-85760410D01*
X168143674Y-85760259D01*
X168134786Y-85768713D01*
X168134377Y-85768283D01*
X168133417Y-85769018D01*
X168132946Y-85768402D01*
X168132581Y-85768499D01*
X168133735Y-85769712D01*
X168113660Y-85788807D01*
X168113635Y-85789803D01*
X168113017Y-85790421D01*
X168113015Y-85800108D01*
X168113012Y-85813180D01*
X168113005Y-85813715D01*
X168113012Y-85813740D01*
X168113012Y-85814745D01*
X168112626Y-85830215D01*
X168113009Y-85830618D01*
X168113009Y-85831843D01*
X168120235Y-85839072D01*
X168120368Y-85839438D01*
X168124016Y-85853114D01*
X168127784Y-85859790D01*
X168365547Y-86512346D01*
X168367045Y-86516706D01*
X168590228Y-87206739D01*
X168591566Y-87211150D01*
X168789364Y-87908897D01*
X168790540Y-87913354D01*
X168960815Y-88610225D01*
X168957805Y-88610961D01*
X168959713Y-88615759D01*
X168958931Y-88619683D01*
X168959340Y-88620296D01*
X168959214Y-88621024D01*
X168964894Y-88629081D01*
X168964894Y-88629082D01*
X168969876Y-88636150D01*
X168971677Y-88638774D01*
X168981932Y-88654132D01*
X168982656Y-88654276D01*
X168983081Y-88654879D01*
X169001277Y-88658028D01*
X169004378Y-88658604D01*
X169011996Y-88660122D01*
X169012640Y-88659994D01*
X169023896Y-88661942D01*
X169032157Y-88656118D01*
X169035274Y-88655499D01*
X169046885Y-88654167D01*
X169052675Y-88652044D01*
X169998533Y-88464214D01*
X169998798Y-88465549D01*
X170001044Y-88464711D01*
X170008628Y-88466211D01*
X170015415Y-88461666D01*
X170108409Y-88455473D01*
X170141233Y-88457591D01*
X170157192Y-88460748D01*
X170223848Y-88473935D01*
X170255005Y-88484475D01*
X170330578Y-88521645D01*
X170357946Y-88539890D01*
X170421323Y-88595353D01*
X170443037Y-88620061D01*
X170489902Y-88690041D01*
X170504481Y-88719526D01*
X170531635Y-88799245D01*
X170538085Y-88831498D01*
X170543682Y-88915536D01*
X170541565Y-88948362D01*
X170525221Y-89030976D01*
X170514681Y-89062133D01*
X170477511Y-89137706D01*
X170459266Y-89165074D01*
X170403803Y-89228451D01*
X170379095Y-89250165D01*
X170309115Y-89297030D01*
X170279632Y-89311608D01*
X170194418Y-89340634D01*
X170190474Y-89341472D01*
X170183400Y-89340073D01*
X170177055Y-89344322D01*
X170165158Y-89346849D01*
X170163367Y-89347011D01*
X170155184Y-89349906D01*
X169208444Y-89538870D01*
X169207944Y-89536363D01*
X169203844Y-89537835D01*
X169198149Y-89536554D01*
X169188054Y-89542940D01*
X169187756Y-89542469D01*
X169187250Y-89542717D01*
X169187476Y-89543054D01*
X169187473Y-89543056D01*
X169183489Y-89545722D01*
X169181939Y-89546759D01*
X169179261Y-89548502D01*
X169163143Y-89558698D01*
X169162974Y-89559449D01*
X169161995Y-89560104D01*
X169160043Y-89569954D01*
X169160042Y-89569955D01*
X169157779Y-89581372D01*
X169155842Y-89591147D01*
X169154050Y-89599109D01*
X169154212Y-89599366D01*
X169153941Y-89600735D01*
X169159824Y-89609528D01*
X169159828Y-89609555D01*
X169159874Y-89610148D01*
X169160769Y-89624066D01*
X169163212Y-89631491D01*
X169269033Y-90317474D01*
X169269652Y-90322042D01*
X169353930Y-91042374D01*
X169354381Y-91046947D01*
X169378247Y-91345082D01*
X169412254Y-91769902D01*
X169412538Y-91774502D01*
X169443589Y-92491222D01*
X169440501Y-92491356D01*
X169441435Y-92496422D01*
X169439894Y-92500142D01*
X169440173Y-92500815D01*
X169439911Y-92501495D01*
X169447351Y-92518258D01*
X169447415Y-92518403D01*
X169448642Y-92521262D01*
X169455745Y-92538411D01*
X169456418Y-92538690D01*
X169456714Y-92539356D01*
X169474024Y-92546024D01*
X169476890Y-92547170D01*
X169478197Y-92547711D01*
X169484067Y-92550142D01*
X169484715Y-92550142D01*
X169495367Y-92554245D01*
X169504612Y-92550142D01*
X169507749Y-92550142D01*
X169519396Y-92551100D01*
X169525514Y-92550142D01*
X170490067Y-92550142D01*
X170490067Y-92551688D01*
X170492750Y-92551253D01*
X170500014Y-92554262D01*
X170507562Y-92551136D01*
X170590090Y-92562000D01*
X170600037Y-92563310D01*
X170631810Y-92571824D01*
X170709686Y-92604082D01*
X170738171Y-92620528D01*
X170805051Y-92671847D01*
X170828309Y-92695105D01*
X170879628Y-92761985D01*
X170896074Y-92790470D01*
X170928332Y-92868346D01*
X170936846Y-92900119D01*
X170947849Y-92983696D01*
X170947849Y-93016588D01*
X170936846Y-93100165D01*
X170928332Y-93131938D01*
X170896074Y-93209814D01*
X170879628Y-93238299D01*
X170828309Y-93305179D01*
X170805051Y-93328437D01*
X170738171Y-93379756D01*
X170709686Y-93396202D01*
X170631810Y-93428460D01*
X170600037Y-93436974D01*
X170510707Y-93448734D01*
X170506679Y-93448782D01*
X170500014Y-93446022D01*
X170492955Y-93448946D01*
X170480799Y-93449091D01*
X170479046Y-93448903D01*
X170470426Y-93450142D01*
X169504676Y-93450142D01*
X169504676Y-93447591D01*
X169500375Y-93448233D01*
X169494969Y-93445834D01*
X169485032Y-93449662D01*
X169485031Y-93449662D01*
X169482472Y-93450648D01*
X169456316Y-93460724D01*
X169455820Y-93461842D01*
X169455745Y-93461873D01*
X169454890Y-93463938D01*
X169439514Y-93498585D01*
X169440008Y-93499867D01*
X169439894Y-93500142D01*
X169443038Y-93507732D01*
X169443220Y-93508205D01*
X169443140Y-93510042D01*
X169441448Y-93522779D01*
X169442289Y-93529694D01*
X169412149Y-94225563D01*
X169411865Y-94230164D01*
X169354003Y-94953063D01*
X169353553Y-94957640D01*
X169352632Y-94965513D01*
X169269276Y-95678027D01*
X169268656Y-95682594D01*
X169159301Y-96391539D01*
X169156220Y-96391064D01*
X169156145Y-96396255D01*
X169153941Y-96399549D01*
X169154086Y-96400281D01*
X169153686Y-96400914D01*
X169157737Y-96418912D01*
X169158408Y-96422083D01*
X169161995Y-96440180D01*
X169162616Y-96440595D01*
X169162780Y-96441326D01*
X169171100Y-96446589D01*
X169178404Y-96451210D01*
X169181117Y-96452975D01*
X169182217Y-96453711D01*
X169182218Y-96453711D01*
X169187473Y-96457228D01*
X169188124Y-96457358D01*
X169197786Y-96463470D01*
X169207638Y-96461253D01*
X169210816Y-96461887D01*
X169222047Y-96465098D01*
X169228170Y-96465351D01*
X169716555Y-96562830D01*
X170173085Y-96653951D01*
X170172762Y-96655567D01*
X170175664Y-96655671D01*
X170182504Y-96660232D01*
X170190514Y-96658631D01*
X170191653Y-96659017D01*
X170191657Y-96659019D01*
X170278746Y-96688492D01*
X170308259Y-96703012D01*
X170378288Y-96749711D01*
X170403031Y-96771370D01*
X170458588Y-96834604D01*
X170476886Y-96861935D01*
X170514184Y-96937392D01*
X170524784Y-96968525D01*
X170541281Y-97051067D01*
X170543463Y-97083878D01*
X170540626Y-97127777D01*
X170538035Y-97167878D01*
X170531647Y-97200145D01*
X170504664Y-97279874D01*
X170490144Y-97309387D01*
X170443445Y-97379416D01*
X170421786Y-97404159D01*
X170369485Y-97450110D01*
X170358552Y-97459716D01*
X170331221Y-97478014D01*
X170255764Y-97515312D01*
X170224628Y-97525913D01*
X170142090Y-97542409D01*
X170109278Y-97544591D01*
X170019490Y-97538789D01*
X170015523Y-97538052D01*
X170009524Y-97534052D01*
X170002036Y-97535549D01*
X169990074Y-97533328D01*
X169988339Y-97532786D01*
X169979690Y-97532328D01*
X169032633Y-97344260D01*
X169033148Y-97341668D01*
X169028649Y-97341452D01*
X169023727Y-97337982D01*
X169007096Y-97340860D01*
X169000761Y-97341956D01*
X169000760Y-97341956D01*
X168982912Y-97345045D01*
X168982164Y-97346106D01*
X168981932Y-97346152D01*
X168978353Y-97351512D01*
X168976776Y-97353749D01*
X168970359Y-97362853D01*
X168959046Y-97378901D01*
X168959256Y-97380114D01*
X168958931Y-97380601D01*
X168960700Y-97389483D01*
X168960367Y-97390844D01*
X168956088Y-97403402D01*
X168955550Y-97410559D01*
X168888213Y-97686164D01*
X168804192Y-98030057D01*
X168790385Y-98086566D01*
X168789218Y-98090988D01*
X168591427Y-98788758D01*
X168590089Y-98793169D01*
X168413601Y-99338860D01*
X168366906Y-99483237D01*
X168365411Y-99487583D01*
X168119838Y-100161610D01*
X168116936Y-100160553D01*
X168115862Y-100165587D01*
X168113009Y-100168441D01*
X168113009Y-100169164D01*
X168112511Y-100169688D01*
X168112758Y-100179554D01*
X168112974Y-100188213D01*
X168113013Y-100191335D01*
X168113013Y-100192729D01*
X168113014Y-100192731D01*
X168113017Y-100209863D01*
X168113529Y-100210375D01*
X168113547Y-100211097D01*
X168120699Y-100217900D01*
X168126977Y-100223872D01*
X168129207Y-100226046D01*
X168134699Y-100231535D01*
X168135292Y-100231780D01*
X168143560Y-100239645D01*
X168153678Y-100239392D01*
X168156516Y-100240567D01*
X168166930Y-100245920D01*
X168172979Y-100247383D01*
X169063001Y-100615833D01*
X169062312Y-100617498D01*
X169065398Y-100618226D01*
X169071337Y-100624156D01*
X169079504Y-100624151D01*
X169080484Y-100624716D01*
X169080485Y-100624717D01*
X169160297Y-100670724D01*
X169186406Y-100690730D01*
X169246041Y-100750284D01*
X169266079Y-100776360D01*
X169308269Y-100849322D01*
X169320876Y-100879700D01*
X169342745Y-100961096D01*
X169347060Y-100993702D01*
X169347118Y-101077347D01*
X169347118Y-101077976D01*
X169342846Y-101110593D01*
X169321087Y-101192015D01*
X169308520Y-101222412D01*
X169266431Y-101295425D01*
X169246427Y-101321532D01*
X169186873Y-101381168D01*
X169160796Y-101401207D01*
X169087834Y-101443397D01*
X169057456Y-101456004D01*
X168976060Y-101477873D01*
X168943454Y-101482188D01*
X168901413Y-101482217D01*
X168859178Y-101482246D01*
X168826563Y-101477974D01*
X168739534Y-101454717D01*
X168735792Y-101453222D01*
X168730691Y-101448128D01*
X168723055Y-101448133D01*
X168711755Y-101443618D01*
X168710171Y-101442754D01*
X168701769Y-101440614D01*
X168641274Y-101415570D01*
X167809736Y-101071331D01*
X167810712Y-101068973D01*
X167806493Y-101067922D01*
X167802445Y-101063666D01*
X167790499Y-101063367D01*
X167790513Y-101062808D01*
X167789955Y-101062733D01*
X167789955Y-101063139D01*
X167789948Y-101063139D01*
X167783034Y-101063141D01*
X167779871Y-101063101D01*
X167777741Y-101063048D01*
X167777740Y-101063048D01*
X167761036Y-101062630D01*
X167760495Y-101063145D01*
X167759293Y-101063145D01*
X167736040Y-101086407D01*
X167731024Y-101091179D01*
X167731018Y-101091432D01*
X167730009Y-101092441D01*
X167730011Y-101103063D01*
X167728935Y-101104977D01*
X167722732Y-101115694D01*
X167720632Y-101123236D01*
X167644909Y-101285774D01*
X167427539Y-101752349D01*
X167425516Y-101756491D01*
X167095418Y-102402216D01*
X167093246Y-102406282D01*
X166739706Y-103039580D01*
X166737385Y-103043563D01*
X166365039Y-103656715D01*
X166362406Y-103655116D01*
X166360374Y-103659834D01*
X166357008Y-103662084D01*
X166356867Y-103662793D01*
X166356277Y-103663209D01*
X166354594Y-103672934D01*
X166353119Y-103681457D01*
X166352550Y-103684516D01*
X166352267Y-103685943D01*
X166348936Y-103702712D01*
X166349337Y-103703312D01*
X166349214Y-103704025D01*
X166358704Y-103717486D01*
X166359889Y-103719167D01*
X166361656Y-103721741D01*
X166362439Y-103722912D01*
X166362441Y-103722913D01*
X166365973Y-103728197D01*
X166366506Y-103728553D01*
X166373081Y-103737879D01*
X166383054Y-103739605D01*
X166385625Y-103741322D01*
X166394782Y-103748593D01*
X166400423Y-103751205D01*
X167081973Y-104206386D01*
X167202967Y-104287193D01*
X167202100Y-104288491D01*
X167204596Y-104289631D01*
X167208944Y-104296139D01*
X167216954Y-104297733D01*
X167217855Y-104298523D01*
X167217856Y-104298525D01*
X167287146Y-104359299D01*
X167308831Y-104384029D01*
X167355707Y-104454192D01*
X167370254Y-104483695D01*
X167397374Y-104563606D01*
X167403789Y-104595866D01*
X167409303Y-104680074D01*
X167407150Y-104712891D01*
X167390681Y-104795662D01*
X167380111Y-104826795D01*
X167342777Y-104902489D01*
X167324505Y-104929830D01*
X167268860Y-104993272D01*
X167244130Y-105014957D01*
X167221593Y-105030014D01*
X167197154Y-105046342D01*
X167173964Y-105061835D01*
X167144461Y-105076382D01*
X167064550Y-105103502D01*
X167032290Y-105109917D01*
X167019588Y-105110749D01*
X166948082Y-105115431D01*
X166915260Y-105113277D01*
X166832501Y-105096810D01*
X166801355Y-105086236D01*
X166796929Y-105084053D01*
X166720465Y-105046339D01*
X166717090Y-105044141D01*
X166713084Y-105038145D01*
X166705593Y-105036654D01*
X166695397Y-105030014D01*
X166694081Y-105028914D01*
X166686200Y-105025144D01*
X165883366Y-104488962D01*
X165884891Y-104486678D01*
X165880657Y-104484680D01*
X165877335Y-104479429D01*
X165866943Y-104477090D01*
X165854596Y-104474311D01*
X165854595Y-104474311D01*
X165836924Y-104470334D01*
X165835692Y-104471113D01*
X165835444Y-104471064D01*
X165829692Y-104474909D01*
X165801919Y-104492479D01*
X165801655Y-104493651D01*
X165801008Y-104494084D01*
X165799207Y-104503150D01*
X165798567Y-104504024D01*
X165789639Y-104514180D01*
X165786341Y-104520709D01*
X165375281Y-105081718D01*
X165372489Y-105085386D01*
X164922734Y-105654324D01*
X164919814Y-105657882D01*
X164449525Y-106210015D01*
X164446503Y-106213434D01*
X163961667Y-106742177D01*
X163959387Y-106740086D01*
X163956464Y-106744332D01*
X163952745Y-106745873D01*
X163952466Y-106746547D01*
X163951801Y-106746842D01*
X163948255Y-106756047D01*
X163945158Y-106764085D01*
X163943992Y-106767002D01*
X163936893Y-106784142D01*
X163937172Y-106784815D01*
X163936910Y-106785495D01*
X163940911Y-106794510D01*
X163940911Y-106794512D01*
X163944429Y-106802439D01*
X163945666Y-106805322D01*
X163948625Y-106812464D01*
X163949084Y-106812923D01*
X163953714Y-106823355D01*
X163963152Y-106826991D01*
X163965364Y-106829203D01*
X163972926Y-106838121D01*
X163977933Y-106841772D01*
X164659652Y-107523491D01*
X164658591Y-107524552D01*
X164660735Y-107526096D01*
X164663800Y-107533465D01*
X164671350Y-107536580D01*
X164691549Y-107562826D01*
X164728223Y-107610481D01*
X164744709Y-107638942D01*
X164763276Y-107683588D01*
X164777072Y-107716762D01*
X164785629Y-107748519D01*
X164796749Y-107832062D01*
X164796796Y-107864958D01*
X164785913Y-107948528D01*
X164777445Y-107980310D01*
X164745303Y-108058219D01*
X164728897Y-108086728D01*
X164677688Y-108153661D01*
X164654467Y-108176949D01*
X164587668Y-108228356D01*
X164559214Y-108244837D01*
X164496610Y-108270872D01*
X164481394Y-108277200D01*
X164449637Y-108285757D01*
X164366094Y-108296877D01*
X164333201Y-108296924D01*
X164249627Y-108286041D01*
X164217846Y-108277573D01*
X164139937Y-108245431D01*
X164111428Y-108229025D01*
X164039888Y-108174291D01*
X164036996Y-108171475D01*
X164034228Y-108164819D01*
X164027170Y-108161907D01*
X164018452Y-108153419D01*
X164017248Y-108151929D01*
X164010374Y-108146791D01*
X163327730Y-107464147D01*
X163329662Y-107462215D01*
X163325918Y-107459443D01*
X163323680Y-107453635D01*
X163285820Y-107436832D01*
X163284648Y-107437284D01*
X163284014Y-107437021D01*
X163267958Y-107443672D01*
X163265073Y-107444825D01*
X163262745Y-107445722D01*
X163247167Y-107451724D01*
X163246862Y-107452410D01*
X163245745Y-107452873D01*
X163241908Y-107462135D01*
X163241631Y-107462389D01*
X163230410Y-107470979D01*
X163225694Y-107477003D01*
X162713781Y-107946428D01*
X162710327Y-107949481D01*
X162709994Y-107949765D01*
X162158207Y-108419782D01*
X162154678Y-108422678D01*
X161585729Y-108872464D01*
X161582066Y-108875252D01*
X161003422Y-109299255D01*
X161001590Y-109296755D01*
X160997887Y-109300355D01*
X160993956Y-109301136D01*
X160993547Y-109301748D01*
X160992830Y-109301909D01*
X160982891Y-109317621D01*
X160981244Y-109320151D01*
X160970936Y-109335572D01*
X160971079Y-109336293D01*
X160970686Y-109336915D01*
X160972850Y-109346532D01*
X160972850Y-109346533D01*
X160974750Y-109354974D01*
X160975407Y-109358077D01*
X160975673Y-109359418D01*
X160975674Y-109359419D01*
X160976910Y-109365640D01*
X160977273Y-109366184D01*
X160979781Y-109377326D01*
X160988324Y-109382730D01*
X160990089Y-109385372D01*
X160995762Y-109395586D01*
X160999939Y-109400122D01*
X161535914Y-110202646D01*
X161534627Y-110203505D01*
X161536482Y-110205499D01*
X161538017Y-110213212D01*
X161544808Y-110217749D01*
X161586108Y-110301483D01*
X161596682Y-110332629D01*
X161613149Y-110415388D01*
X161615303Y-110448210D01*
X161609789Y-110532418D01*
X161603374Y-110564678D01*
X161576254Y-110644589D01*
X161561708Y-110674090D01*
X161542907Y-110702231D01*
X161514829Y-110744258D01*
X161493144Y-110768988D01*
X161458080Y-110799743D01*
X161429702Y-110824633D01*
X161402361Y-110842905D01*
X161326667Y-110880239D01*
X161295534Y-110890809D01*
X161212763Y-110907278D01*
X161179946Y-110909431D01*
X161108440Y-110904749D01*
X161095738Y-110903917D01*
X161063478Y-110897502D01*
X160983567Y-110870382D01*
X160954064Y-110855835D01*
X160883901Y-110808959D01*
X160859171Y-110787274D01*
X160799697Y-110719466D01*
X160797418Y-110716142D01*
X160796011Y-110709072D01*
X160789662Y-110704830D01*
X160782780Y-110694793D01*
X160781954Y-110693214D01*
X160776151Y-110686753D01*
X160239507Y-109883227D01*
X160241624Y-109881813D01*
X160238706Y-109878597D01*
X160237691Y-109872735D01*
X160203836Y-109848868D01*
X160202609Y-109849080D01*
X160202584Y-109849064D01*
X160201778Y-109849224D01*
X160163021Y-109855931D01*
X160162207Y-109857086D01*
X160161956Y-109857136D01*
X160158017Y-109863029D01*
X160157081Y-109864356D01*
X160155500Y-109865316D01*
X160144014Y-109870963D01*
X160138758Y-109875483D01*
X159543369Y-110237050D01*
X159539386Y-110239370D01*
X158906148Y-110592886D01*
X158902082Y-110595059D01*
X158256353Y-110925167D01*
X158252214Y-110927189D01*
X157622092Y-111220761D01*
X157601963Y-111230139D01*
X157600652Y-111227326D01*
X157596314Y-111230138D01*
X157592313Y-111230137D01*
X157591793Y-111230657D01*
X157591060Y-111230675D01*
X157578309Y-111244079D01*
X157576130Y-111246313D01*
X157563017Y-111259421D01*
X157563017Y-111260155D01*
X157562511Y-111260687D01*
X157562758Y-111270542D01*
X157562757Y-111270543D01*
X157562973Y-111279170D01*
X157563013Y-111282331D01*
X157563011Y-111290076D01*
X157563261Y-111290681D01*
X157563547Y-111302096D01*
X157570871Y-111309063D01*
X157572090Y-111312008D01*
X157575658Y-111323121D01*
X157578870Y-111328386D01*
X157948026Y-112220112D01*
X157946897Y-112220579D01*
X157948029Y-112222409D01*
X157948038Y-112229911D01*
X157953820Y-112235680D01*
X157968265Y-112289337D01*
X157978087Y-112325823D01*
X157982419Y-112358429D01*
X157982518Y-112442807D01*
X157978264Y-112475421D01*
X157963098Y-112532285D01*
X157956519Y-112556954D01*
X157943967Y-112587356D01*
X157901863Y-112660480D01*
X157881872Y-112686596D01*
X157822273Y-112746335D01*
X157796210Y-112766382D01*
X157723180Y-112808660D01*
X157692806Y-112821282D01*
X157611332Y-112843215D01*
X157578727Y-112847547D01*
X157536834Y-112847596D01*
X157494346Y-112847646D01*
X157461735Y-112843392D01*
X157380202Y-112821647D01*
X157349800Y-112809095D01*
X157276676Y-112766991D01*
X157250560Y-112747000D01*
X157190822Y-112687402D01*
X157170772Y-112661335D01*
X157170519Y-112660897D01*
X157125587Y-112583282D01*
X157123999Y-112579585D01*
X157123990Y-112572373D01*
X157118582Y-112566977D01*
X157113781Y-112555803D01*
X157113239Y-112553966D01*
X157108855Y-112546585D01*
X157103346Y-112533276D01*
X156739625Y-111654679D01*
X156742044Y-111653678D01*
X156739746Y-111649851D01*
X156739897Y-111643802D01*
X156731443Y-111634914D01*
X156731873Y-111634505D01*
X156731138Y-111633545D01*
X156731754Y-111633074D01*
X156731657Y-111632709D01*
X156730444Y-111633863D01*
X156725095Y-111628240D01*
X156711349Y-111613788D01*
X156710353Y-111613763D01*
X156709735Y-111613145D01*
X156700049Y-111613143D01*
X156686976Y-111613140D01*
X156686441Y-111613133D01*
X156686416Y-111613140D01*
X156685411Y-111613140D01*
X156669941Y-111612754D01*
X156669538Y-111613137D01*
X156668313Y-111613137D01*
X156661084Y-111620363D01*
X156660718Y-111620496D01*
X156647042Y-111624144D01*
X156640367Y-111627911D01*
X156569298Y-111653806D01*
X155987810Y-111865675D01*
X155983450Y-111867173D01*
X155293417Y-112090356D01*
X155289006Y-112091694D01*
X154591259Y-112289492D01*
X154586802Y-112290668D01*
X153897171Y-112459174D01*
X153889931Y-112460943D01*
X153889195Y-112457933D01*
X153884397Y-112459841D01*
X153880473Y-112459059D01*
X153879860Y-112459468D01*
X153879132Y-112459342D01*
X153871075Y-112465022D01*
X153871074Y-112465022D01*
X153864006Y-112470004D01*
X153861382Y-112471805D01*
X153846024Y-112482060D01*
X153845880Y-112482784D01*
X153845277Y-112483209D01*
X153843597Y-112492918D01*
X153842130Y-112501394D01*
X153841552Y-112504506D01*
X153840034Y-112512124D01*
X153840162Y-112512768D01*
X153838214Y-112524024D01*
X153844038Y-112532285D01*
X153844657Y-112535402D01*
X153845989Y-112547013D01*
X153848112Y-112552803D01*
X154035942Y-113498661D01*
X154034607Y-113498926D01*
X154035445Y-113501172D01*
X154033945Y-113508756D01*
X154038490Y-113515543D01*
X154038569Y-113516729D01*
X154044683Y-113608536D01*
X154042565Y-113641362D01*
X154026221Y-113723976D01*
X154015681Y-113755133D01*
X153978511Y-113830706D01*
X153960266Y-113858074D01*
X153904803Y-113921451D01*
X153880095Y-113943165D01*
X153810115Y-113990030D01*
X153780630Y-114004609D01*
X153700911Y-114031763D01*
X153668658Y-114038213D01*
X153584620Y-114043810D01*
X153551794Y-114041693D01*
X153550359Y-114041409D01*
X153501661Y-114031775D01*
X153469180Y-114025349D01*
X153438023Y-114014809D01*
X153362450Y-113977639D01*
X153335082Y-113959394D01*
X153271705Y-113903931D01*
X153249991Y-113879223D01*
X153203126Y-113809243D01*
X153188547Y-113779759D01*
X153188246Y-113778874D01*
X153159522Y-113694546D01*
X153158684Y-113690602D01*
X153160083Y-113683528D01*
X153155834Y-113677183D01*
X153153307Y-113665286D01*
X153153145Y-113663495D01*
X153150250Y-113655312D01*
X152961286Y-112708572D01*
X152963793Y-112708072D01*
X152962321Y-112703972D01*
X152963602Y-112698277D01*
X152957216Y-112688182D01*
X152957687Y-112687884D01*
X152957436Y-112687373D01*
X152957099Y-112687599D01*
X152953385Y-112682048D01*
X152951623Y-112679340D01*
X152950402Y-112677410D01*
X152941458Y-112663271D01*
X152940707Y-112663102D01*
X152940052Y-112662123D01*
X152930202Y-112660171D01*
X152930201Y-112660170D01*
X152917174Y-112657588D01*
X152917173Y-112657588D01*
X152909009Y-112655970D01*
X152901047Y-112654178D01*
X152900790Y-112654340D01*
X152899421Y-112654069D01*
X152890628Y-112659952D01*
X152890601Y-112659956D01*
X152890008Y-112660002D01*
X152876090Y-112660897D01*
X152868665Y-112663340D01*
X152640760Y-112698497D01*
X152182825Y-112769139D01*
X152182682Y-112769161D01*
X152178115Y-112769780D01*
X151457767Y-112854059D01*
X151453209Y-112854509D01*
X151155074Y-112878375D01*
X150730254Y-112912382D01*
X150725654Y-112912666D01*
X150008934Y-112943717D01*
X150008800Y-112940629D01*
X150003734Y-112941563D01*
X150000014Y-112940022D01*
X149999341Y-112940301D01*
X149998661Y-112940039D01*
X149981734Y-112947551D01*
X149978894Y-112948770D01*
X149961745Y-112955873D01*
X149961466Y-112956546D01*
X149960800Y-112956842D01*
X149954132Y-112974152D01*
X149952986Y-112977018D01*
X149950014Y-112984195D01*
X149950014Y-112984843D01*
X149945911Y-112995495D01*
X149950014Y-113004740D01*
X149950014Y-113007877D01*
X149949056Y-113019524D01*
X149950014Y-113025642D01*
X149950014Y-113990195D01*
X149948468Y-113990195D01*
X149948903Y-113992878D01*
X149945894Y-114000142D01*
X149949020Y-114007690D01*
X149938156Y-114090218D01*
X149936846Y-114100165D01*
X149928332Y-114131938D01*
X149896074Y-114209814D01*
X149879628Y-114238299D01*
X149828309Y-114305179D01*
X149805051Y-114328437D01*
X149738171Y-114379756D01*
X149709686Y-114396202D01*
X149631810Y-114428460D01*
X149600037Y-114436974D01*
X149558249Y-114442475D01*
X149516459Y-114447977D01*
X149483569Y-114447977D01*
X149441779Y-114442475D01*
X149399991Y-114436974D01*
X149368218Y-114428460D01*
X149290342Y-114396202D01*
X149261857Y-114379756D01*
X149194977Y-114328437D01*
X149171719Y-114305179D01*
X149120400Y-114238299D01*
X149103954Y-114209814D01*
X149071696Y-114131938D01*
X149063182Y-114100165D01*
X149061510Y-114087461D01*
X149051422Y-114010835D01*
X149051374Y-114006807D01*
X149054134Y-114000142D01*
X149051210Y-113993083D01*
X149051065Y-113980927D01*
X149051253Y-113979174D01*
X149050014Y-113970554D01*
X149050014Y-113004804D01*
X149052565Y-113004804D01*
X149051923Y-113000503D01*
X149054322Y-112995097D01*
X149050123Y-112984195D01*
X149047861Y-112978325D01*
X149039432Y-112956444D01*
X149038314Y-112955948D01*
X149038283Y-112955873D01*
X149036218Y-112955018D01*
X149001571Y-112939642D01*
X149000289Y-112940136D01*
X149000014Y-112940022D01*
X148992424Y-112943166D01*
X148991951Y-112943348D01*
X148990114Y-112943268D01*
X148977377Y-112941576D01*
X148970462Y-112942417D01*
X148274593Y-112912277D01*
X148269992Y-112911993D01*
X147831233Y-112876874D01*
X147547081Y-112854130D01*
X147542516Y-112853681D01*
X147157682Y-112808660D01*
X146822129Y-112769404D01*
X146817562Y-112768784D01*
X146108617Y-112659429D01*
X146109092Y-112656348D01*
X146103901Y-112656273D01*
X146100607Y-112654069D01*
X146099875Y-112654214D01*
X146099242Y-112653814D01*
X146081211Y-112657872D01*
X146078073Y-112658536D01*
X146076775Y-112658793D01*
X146076774Y-112658794D01*
X146059976Y-112662123D01*
X146059561Y-112662744D01*
X146058830Y-112662908D01*
X146053567Y-112671228D01*
X146048946Y-112678532D01*
X146047181Y-112681245D01*
X146046644Y-112682048D01*
X146042928Y-112687601D01*
X146042798Y-112688252D01*
X146036686Y-112697914D01*
X146038903Y-112707766D01*
X146038269Y-112710944D01*
X146035058Y-112722175D01*
X146034805Y-112728298D01*
X145846205Y-113673213D01*
X145844589Y-113672890D01*
X145844485Y-113675792D01*
X145839924Y-113682632D01*
X145841525Y-113690642D01*
X145841139Y-113691781D01*
X145841137Y-113691785D01*
X145811664Y-113778874D01*
X145797144Y-113808387D01*
X145750445Y-113878416D01*
X145728786Y-113903159D01*
X145693756Y-113933936D01*
X145665552Y-113958716D01*
X145638221Y-113977014D01*
X145562764Y-114014312D01*
X145531631Y-114024912D01*
X145449089Y-114041409D01*
X145416278Y-114043591D01*
X145332276Y-114038163D01*
X145300011Y-114031775D01*
X145220282Y-114004792D01*
X145190769Y-113990272D01*
X145176755Y-113980927D01*
X145120740Y-113943573D01*
X145095997Y-113921914D01*
X145040440Y-113858680D01*
X145022142Y-113831349D01*
X144984844Y-113755892D01*
X144974242Y-113724753D01*
X144970246Y-113704756D01*
X144957747Y-113642218D01*
X144955565Y-113609402D01*
X144961367Y-113519619D01*
X144962104Y-113515651D01*
X144966104Y-113509652D01*
X144964607Y-113502164D01*
X144966828Y-113490202D01*
X144967370Y-113488467D01*
X144967828Y-113479818D01*
X145155896Y-112532761D01*
X145158488Y-112533276D01*
X145158704Y-112528777D01*
X145162174Y-112523855D01*
X145155111Y-112483040D01*
X145154050Y-112482292D01*
X145154004Y-112482060D01*
X145148639Y-112478478D01*
X145146408Y-112476905D01*
X145146407Y-112476903D01*
X145135958Y-112469538D01*
X145135956Y-112469537D01*
X145121255Y-112459174D01*
X145120043Y-112459384D01*
X145119555Y-112459058D01*
X145110671Y-112460828D01*
X145109305Y-112460494D01*
X145096762Y-112456220D01*
X145089610Y-112455682D01*
X144820346Y-112389894D01*
X144413568Y-112290507D01*
X144409168Y-112289346D01*
X143711383Y-112091550D01*
X143706987Y-112090217D01*
X143016906Y-111867030D01*
X143012573Y-111865539D01*
X142338545Y-111619965D01*
X142339600Y-111617069D01*
X142334575Y-111615997D01*
X142331715Y-111613138D01*
X142330993Y-111613138D01*
X142330468Y-111612639D01*
X142320598Y-111612886D01*
X142311925Y-111613103D01*
X142308793Y-111613142D01*
X142307423Y-111613142D01*
X142290293Y-111613145D01*
X142289781Y-111613657D01*
X142289059Y-111613675D01*
X142282258Y-111620825D01*
X142276284Y-111627105D01*
X142274110Y-111629335D01*
X142268621Y-111634827D01*
X142268376Y-111635420D01*
X142260511Y-111643688D01*
X142260764Y-111653806D01*
X142259589Y-111656644D01*
X142254238Y-111667054D01*
X142252774Y-111673107D01*
X141884323Y-112563131D01*
X141882647Y-112562437D01*
X141881916Y-112565541D01*
X141876000Y-112571465D01*
X141876005Y-112579632D01*
X141875427Y-112580635D01*
X141875426Y-112580636D01*
X141829432Y-112660425D01*
X141809426Y-112686534D01*
X141749872Y-112746169D01*
X141723796Y-112766207D01*
X141650834Y-112808397D01*
X141620456Y-112821004D01*
X141539060Y-112842873D01*
X141506454Y-112847188D01*
X141464413Y-112847217D01*
X141422178Y-112847246D01*
X141389563Y-112842974D01*
X141308141Y-112821215D01*
X141277744Y-112808648D01*
X141204731Y-112766559D01*
X141178624Y-112746555D01*
X141118988Y-112687001D01*
X141098949Y-112660924D01*
X141056759Y-112587962D01*
X141044152Y-112557584D01*
X141022283Y-112476188D01*
X141017968Y-112443582D01*
X141017910Y-112359308D01*
X141022182Y-112326691D01*
X141045439Y-112239662D01*
X141046934Y-112235920D01*
X141052028Y-112230819D01*
X141052023Y-112223183D01*
X141056538Y-112211883D01*
X141057401Y-112210300D01*
X141059541Y-112201900D01*
X141428823Y-111309866D01*
X141431182Y-111310843D01*
X141432234Y-111306621D01*
X141436490Y-111302573D01*
X141436789Y-111290624D01*
X141437348Y-111290638D01*
X141437423Y-111290079D01*
X141437016Y-111290079D01*
X141437016Y-111290076D01*
X141437015Y-111283188D01*
X141437054Y-111280035D01*
X141437108Y-111277870D01*
X141437526Y-111261164D01*
X141437011Y-111260623D01*
X141437011Y-111259421D01*
X141413764Y-111236184D01*
X141408977Y-111231152D01*
X141408723Y-111231146D01*
X141407715Y-111230138D01*
X141397094Y-111230140D01*
X141395214Y-111229083D01*
X141384468Y-111222862D01*
X141376920Y-111220761D01*
X140747782Y-110927656D01*
X140743711Y-110925668D01*
X140097930Y-110595541D01*
X140093874Y-110593374D01*
X139460576Y-110239834D01*
X139456593Y-110237513D01*
X138843441Y-109865167D01*
X138845040Y-109862534D01*
X138840322Y-109860502D01*
X138838072Y-109857136D01*
X138837363Y-109856995D01*
X138836947Y-109856405D01*
X138818692Y-109853246D01*
X138815640Y-109852678D01*
X138814213Y-109852395D01*
X138814212Y-109852395D01*
X138797444Y-109849064D01*
X138796844Y-109849465D01*
X138796131Y-109849342D01*
X138785677Y-109856712D01*
X138780989Y-109860017D01*
X138778415Y-109861784D01*
X138777244Y-109862567D01*
X138777243Y-109862569D01*
X138771959Y-109866101D01*
X138771603Y-109866634D01*
X138762277Y-109873209D01*
X138760551Y-109883182D01*
X138758835Y-109885751D01*
X138751561Y-109894912D01*
X138748949Y-109900553D01*
X138212961Y-110703096D01*
X138211666Y-110702231D01*
X138210528Y-110704722D01*
X138204017Y-110709072D01*
X138202423Y-110717082D01*
X138201642Y-110717972D01*
X138201638Y-110717975D01*
X138140857Y-110787274D01*
X138116127Y-110808959D01*
X138045964Y-110855835D01*
X138016461Y-110870382D01*
X137936550Y-110897502D01*
X137904290Y-110903917D01*
X137891588Y-110904749D01*
X137820082Y-110909431D01*
X137787265Y-110907278D01*
X137704494Y-110890809D01*
X137673361Y-110880239D01*
X137597667Y-110842905D01*
X137570326Y-110824633D01*
X137541949Y-110799743D01*
X137506884Y-110768988D01*
X137485199Y-110744258D01*
X137457121Y-110702231D01*
X137438320Y-110674090D01*
X137423774Y-110644589D01*
X137396654Y-110564678D01*
X137390239Y-110532418D01*
X137384725Y-110448210D01*
X137386879Y-110415388D01*
X137403346Y-110332629D01*
X137413920Y-110301483D01*
X137453817Y-110220593D01*
X137456015Y-110217218D01*
X137462011Y-110213212D01*
X137463502Y-110205721D01*
X137470142Y-110195525D01*
X137471242Y-110194209D01*
X137475012Y-110186328D01*
X137497223Y-110153072D01*
X138011193Y-109383494D01*
X138013476Y-109385019D01*
X138015475Y-109380786D01*
X138020727Y-109377463D01*
X138025090Y-109358077D01*
X138025845Y-109354724D01*
X138025845Y-109354723D01*
X138029822Y-109337052D01*
X138029043Y-109335820D01*
X138029092Y-109335572D01*
X138025247Y-109329820D01*
X138007677Y-109302047D01*
X138006505Y-109301783D01*
X138006072Y-109301136D01*
X137997006Y-109299335D01*
X137996132Y-109298695D01*
X137985976Y-109289767D01*
X137979447Y-109286469D01*
X137418438Y-108875409D01*
X137414770Y-108872617D01*
X136845832Y-108422862D01*
X136842269Y-108419938D01*
X136290141Y-107949653D01*
X136286722Y-107946631D01*
X135757978Y-107461794D01*
X135760066Y-107459517D01*
X135755825Y-107456595D01*
X135754283Y-107452873D01*
X135753609Y-107452594D01*
X135753314Y-107451929D01*
X135735996Y-107445257D01*
X135733110Y-107444103D01*
X135731804Y-107443562D01*
X135716014Y-107437022D01*
X135715342Y-107437300D01*
X135714661Y-107437038D01*
X135705642Y-107441041D01*
X135705641Y-107441041D01*
X135697725Y-107444554D01*
X135694842Y-107445791D01*
X135687692Y-107448753D01*
X135687233Y-107449212D01*
X135676801Y-107453842D01*
X135673165Y-107463280D01*
X135670953Y-107465492D01*
X135662035Y-107473054D01*
X135658384Y-107478061D01*
X134976665Y-108159780D01*
X134975604Y-108158719D01*
X134974060Y-108160863D01*
X134966691Y-108163928D01*
X134963576Y-108171478D01*
X134889673Y-108228352D01*
X134861214Y-108244837D01*
X134798610Y-108270872D01*
X134783394Y-108277200D01*
X134751637Y-108285757D01*
X134668094Y-108296877D01*
X134635201Y-108296924D01*
X134551627Y-108286041D01*
X134519846Y-108277573D01*
X134441937Y-108245431D01*
X134413428Y-108229025D01*
X134346495Y-108177816D01*
X134323207Y-108154595D01*
X134271800Y-108087796D01*
X134255319Y-108059342D01*
X134222956Y-107981522D01*
X134214399Y-107949765D01*
X134203279Y-107866222D01*
X134203232Y-107833326D01*
X134205427Y-107816477D01*
X134214115Y-107749755D01*
X134222583Y-107717974D01*
X134254725Y-107640065D01*
X134271131Y-107611556D01*
X134325865Y-107540016D01*
X134328681Y-107537124D01*
X134335337Y-107534356D01*
X134338249Y-107527298D01*
X134346737Y-107518580D01*
X134348227Y-107517376D01*
X134353365Y-107510502D01*
X135036009Y-106827858D01*
X135037941Y-106829790D01*
X135040713Y-106826046D01*
X135046521Y-106823808D01*
X135063324Y-106785948D01*
X135062872Y-106784775D01*
X135063134Y-106784142D01*
X135056464Y-106768038D01*
X135055332Y-106765203D01*
X135048432Y-106747295D01*
X135047746Y-106746990D01*
X135047283Y-106745873D01*
X135038021Y-106742037D01*
X135037764Y-106741756D01*
X135029176Y-106730538D01*
X135023154Y-106725824D01*
X134553728Y-106213909D01*
X134550675Y-106210455D01*
X134134744Y-105722164D01*
X134080374Y-105658335D01*
X134077478Y-105654806D01*
X133627688Y-105085851D01*
X133624900Y-105082189D01*
X133426864Y-104811925D01*
X133200901Y-104503550D01*
X133203401Y-104501718D01*
X133199801Y-104498015D01*
X133199020Y-104494084D01*
X133198408Y-104493675D01*
X133198247Y-104492958D01*
X133182535Y-104483019D01*
X133180005Y-104481372D01*
X133164584Y-104471064D01*
X133163863Y-104471207D01*
X133163241Y-104470814D01*
X133153624Y-104472979D01*
X133153622Y-104472978D01*
X133145163Y-104474882D01*
X133142053Y-104475541D01*
X133134517Y-104477038D01*
X133133973Y-104477401D01*
X133122830Y-104479909D01*
X133117425Y-104488453D01*
X133114789Y-104490213D01*
X133104574Y-104495887D01*
X133100035Y-104500067D01*
X132297510Y-105036042D01*
X132296651Y-105034755D01*
X132294657Y-105036610D01*
X132286944Y-105038145D01*
X132282407Y-105044936D01*
X132203099Y-105084053D01*
X132198673Y-105086236D01*
X132167527Y-105096810D01*
X132084768Y-105113277D01*
X132051946Y-105115431D01*
X131980440Y-105110749D01*
X131967738Y-105109917D01*
X131935478Y-105103502D01*
X131855567Y-105076382D01*
X131826064Y-105061835D01*
X131802875Y-105046342D01*
X131778435Y-105030014D01*
X131755898Y-105014957D01*
X131731168Y-104993272D01*
X131675523Y-104929830D01*
X131657251Y-104902489D01*
X131619917Y-104826795D01*
X131609347Y-104795662D01*
X131592878Y-104712891D01*
X131590725Y-104680074D01*
X131596239Y-104595866D01*
X131602654Y-104563606D01*
X131629774Y-104483695D01*
X131644321Y-104454192D01*
X131691197Y-104384029D01*
X131712882Y-104359299D01*
X131780690Y-104299825D01*
X131784014Y-104297546D01*
X131791084Y-104296139D01*
X131795326Y-104289790D01*
X131805363Y-104282908D01*
X131806943Y-104282082D01*
X131813402Y-104276280D01*
X132616929Y-103739635D01*
X132618343Y-103741752D01*
X132621559Y-103738834D01*
X132627421Y-103737819D01*
X132651288Y-103703964D01*
X132651076Y-103702737D01*
X132651092Y-103702712D01*
X132650932Y-103701906D01*
X132644225Y-103663149D01*
X132643070Y-103662335D01*
X132643020Y-103662084D01*
X132637127Y-103658145D01*
X132635800Y-103657209D01*
X132634840Y-103655628D01*
X132629193Y-103644142D01*
X132624673Y-103638886D01*
X132263106Y-103043497D01*
X132260786Y-103039514D01*
X131907270Y-102406276D01*
X131905097Y-102402210D01*
X131574989Y-101756481D01*
X131572966Y-101752339D01*
X131473953Y-101539817D01*
X131270016Y-101102089D01*
X131272825Y-101100780D01*
X131270017Y-101096447D01*
X131270018Y-101092441D01*
X131269499Y-101091922D01*
X131269481Y-101091188D01*
X131262337Y-101084393D01*
X131262337Y-101084392D01*
X131256067Y-101078428D01*
X131253815Y-101076232D01*
X131240735Y-101063145D01*
X131240001Y-101063145D01*
X131239469Y-101062639D01*
X131229614Y-101062886D01*
X131229613Y-101062885D01*
X131220957Y-101063102D01*
X131217794Y-101063142D01*
X131210080Y-101063140D01*
X131209478Y-101063389D01*
X131198060Y-101063675D01*
X131191091Y-101071001D01*
X131188171Y-101072210D01*
X131177041Y-101075783D01*
X131171770Y-101079000D01*
X130280044Y-101448154D01*
X130279577Y-101447027D01*
X130277749Y-101448157D01*
X130270245Y-101448166D01*
X130264476Y-101453948D01*
X130202371Y-101470667D01*
X130174333Y-101478215D01*
X130141727Y-101482547D01*
X130099834Y-101482596D01*
X130057346Y-101482646D01*
X130024735Y-101478392D01*
X129943202Y-101456647D01*
X129912800Y-101444095D01*
X129839676Y-101401991D01*
X129813560Y-101382000D01*
X129753821Y-101322401D01*
X129733774Y-101296338D01*
X129691495Y-101223306D01*
X129678874Y-101192934D01*
X129656941Y-101111460D01*
X129652609Y-101078855D01*
X129652510Y-100994477D01*
X129656764Y-100961863D01*
X129678509Y-100880330D01*
X129691061Y-100849928D01*
X129733165Y-100776804D01*
X129753156Y-100750688D01*
X129812754Y-100690950D01*
X129838819Y-100670901D01*
X129916874Y-100625715D01*
X129920571Y-100624127D01*
X129927783Y-100624118D01*
X129933178Y-100618710D01*
X129944353Y-100613909D01*
X129946191Y-100613367D01*
X129953570Y-100608984D01*
X130845477Y-100239753D01*
X130846478Y-100242172D01*
X130850305Y-100239874D01*
X130856354Y-100240025D01*
X130865242Y-100231571D01*
X130865651Y-100232001D01*
X130866611Y-100231266D01*
X130867082Y-100231882D01*
X130867447Y-100231785D01*
X130866293Y-100230572D01*
X130873772Y-100223458D01*
X130886368Y-100211477D01*
X130886393Y-100210481D01*
X130887011Y-100209863D01*
X130887015Y-100189758D01*
X130887015Y-100187136D01*
X130887022Y-100186572D01*
X130887015Y-100186548D01*
X130887015Y-100185563D01*
X130887402Y-100170069D01*
X130887018Y-100169665D01*
X130887018Y-100168441D01*
X130879793Y-100161213D01*
X130879663Y-100160856D01*
X130876015Y-100147176D01*
X130872244Y-100140495D01*
X130849601Y-100078348D01*
X130634481Y-99487938D01*
X130632983Y-99483578D01*
X130476829Y-99000783D01*
X137554818Y-99000783D01*
X137555172Y-99005477D01*
X137555172Y-99005484D01*
X137560405Y-99074865D01*
X137572291Y-99232472D01*
X137624087Y-99458971D01*
X137625808Y-99463350D01*
X137625809Y-99463355D01*
X137647824Y-99519389D01*
X137709050Y-99675226D01*
X137825283Y-99876410D01*
X137970192Y-100058031D01*
X137973646Y-100061235D01*
X137973650Y-100061239D01*
X138072926Y-100153319D01*
X138140543Y-100216036D01*
X138144434Y-100218688D01*
X138144435Y-100218689D01*
X138205482Y-100260299D01*
X138332532Y-100346898D01*
X138336780Y-100348943D01*
X138336781Y-100348944D01*
X138369728Y-100364808D01*
X138541875Y-100447697D01*
X138763900Y-100516181D01*
X138768553Y-100516883D01*
X138768559Y-100516884D01*
X138954653Y-100544944D01*
X138993649Y-100550824D01*
X138998353Y-100550825D01*
X138998359Y-100550825D01*
X139109848Y-100550837D01*
X139225996Y-100550850D01*
X139230650Y-100550149D01*
X139230655Y-100550149D01*
X139451091Y-100516962D01*
X139451093Y-100516962D01*
X139455753Y-100516260D01*
X139460252Y-100514873D01*
X139460258Y-100514872D01*
X139649443Y-100456564D01*
X139677793Y-100447827D01*
X139887159Y-100347076D01*
X139887045Y-100346878D01*
X139887532Y-100346244D01*
X139895922Y-100342206D01*
X139893645Y-100338283D01*
X141615411Y-99338860D01*
X141618061Y-99337610D01*
X141628246Y-99336172D01*
X141628356Y-99336359D01*
X141641466Y-99327240D01*
X141641468Y-99327239D01*
X141814824Y-99206652D01*
X141814825Y-99206651D01*
X141818691Y-99203962D01*
X141987172Y-99044680D01*
X142130037Y-98862070D01*
X142137347Y-98849133D01*
X142241770Y-98664326D01*
X142241773Y-98664319D01*
X142244095Y-98660210D01*
X142245781Y-98655795D01*
X142325119Y-98448008D01*
X142325120Y-98448003D01*
X142326799Y-98443607D01*
X142376303Y-98217099D01*
X142382361Y-98124884D01*
X142390565Y-97999990D01*
X156604818Y-97999990D01*
X156605170Y-98004686D01*
X156605170Y-98004690D01*
X156621845Y-98227157D01*
X156622197Y-98231850D01*
X156673950Y-98458527D01*
X156675673Y-98462915D01*
X156675674Y-98462919D01*
X156739444Y-98625347D01*
X156758920Y-98674955D01*
X156875206Y-98876297D01*
X156878142Y-98879977D01*
X156878146Y-98879983D01*
X157006578Y-99040963D01*
X157020211Y-99058051D01*
X157190693Y-99216156D01*
X157194597Y-99218816D01*
X157367870Y-99336876D01*
X157367871Y-99336876D01*
X157382841Y-99347076D01*
X157382955Y-99346878D01*
X157383420Y-99346939D01*
X157391283Y-99352297D01*
X157393607Y-99348277D01*
X158972881Y-100261148D01*
X159105503Y-100337808D01*
X159108459Y-100339881D01*
X159114554Y-100347799D01*
X159114440Y-100347997D01*
X159128816Y-100354894D01*
X159317993Y-100445653D01*
X159323929Y-100448501D01*
X159546053Y-100516671D01*
X159550705Y-100517366D01*
X159550711Y-100517367D01*
X159771192Y-100550291D01*
X159771196Y-100550291D01*
X159775855Y-100550987D01*
X159780565Y-100550981D01*
X159780567Y-100550981D01*
X159894748Y-100550831D01*
X160008205Y-100550683D01*
X160012853Y-100549976D01*
X160012859Y-100549976D01*
X160233260Y-100516473D01*
X160233261Y-100516473D01*
X160237917Y-100515765D01*
X160242414Y-100514372D01*
X160455360Y-100448409D01*
X160455365Y-100448407D01*
X160459862Y-100447014D01*
X160669087Y-100345962D01*
X160806981Y-100251729D01*
X160857024Y-100217531D01*
X160857026Y-100217530D01*
X160860922Y-100214867D01*
X160865640Y-100210481D01*
X161009013Y-100077176D01*
X161031085Y-100056654D01*
X161145174Y-99913305D01*
X161172839Y-99878545D01*
X161172842Y-99878540D01*
X161175776Y-99874854D01*
X161291768Y-99673527D01*
X161352258Y-99519011D01*
X161374753Y-99461550D01*
X161374754Y-99461547D01*
X161376469Y-99457166D01*
X161401230Y-99348277D01*
X161426946Y-99235192D01*
X161426946Y-99235189D01*
X161427990Y-99230600D01*
X161445182Y-98998887D01*
X161442114Y-98958315D01*
X161431727Y-98820981D01*
X161427659Y-98767198D01*
X161405541Y-98670572D01*
X161376866Y-98545306D01*
X161375813Y-98540706D01*
X161290802Y-98324466D01*
X161224181Y-98209213D01*
X161176882Y-98127387D01*
X161176879Y-98127383D01*
X161174522Y-98123305D01*
X161168314Y-98115527D01*
X161032513Y-97945401D01*
X161029570Y-97941714D01*
X160954531Y-97872144D01*
X160862637Y-97786947D01*
X160862635Y-97786946D01*
X160859182Y-97783744D01*
X160667159Y-97652924D01*
X160667045Y-97653122D01*
X160666585Y-97653062D01*
X160658718Y-97647702D01*
X160656393Y-97651723D01*
X158947619Y-96663992D01*
X158944356Y-96661701D01*
X158938366Y-96653885D01*
X158938480Y-96653687D01*
X158924179Y-96646789D01*
X158924178Y-96646788D01*
X158818727Y-96595923D01*
X158729060Y-96552671D01*
X158506920Y-96484006D01*
X158502258Y-96483301D01*
X158502255Y-96483300D01*
X158319864Y-96455708D01*
X158277026Y-96449227D01*
X158160107Y-96449169D01*
X158049232Y-96449114D01*
X158049228Y-96449114D01*
X158044516Y-96449112D01*
X158039851Y-96449813D01*
X157819251Y-96482961D01*
X157819249Y-96482961D01*
X157814587Y-96483662D01*
X157810080Y-96485050D01*
X157810081Y-96485050D01*
X157596890Y-96550716D01*
X157596884Y-96550718D01*
X157592379Y-96552106D01*
X157588131Y-96554150D01*
X157588128Y-96554151D01*
X157387101Y-96650872D01*
X157387095Y-96650875D01*
X157382858Y-96652914D01*
X157190709Y-96783832D01*
X157020225Y-96941934D01*
X157017282Y-96945622D01*
X157017278Y-96945627D01*
X156969002Y-97006137D01*
X156875218Y-97123686D01*
X156758928Y-97325026D01*
X156673956Y-97541454D01*
X156672907Y-97546046D01*
X156672906Y-97546051D01*
X156624193Y-97759403D01*
X156622200Y-97768130D01*
X156604818Y-97999990D01*
X142390565Y-97999990D01*
X142391192Y-97990451D01*
X142391192Y-97990447D01*
X142391501Y-97985743D01*
X142372054Y-97754705D01*
X142370473Y-97748056D01*
X142319488Y-97533735D01*
X142319488Y-97533734D01*
X142318396Y-97529145D01*
X142297789Y-97478014D01*
X142268333Y-97404931D01*
X142231725Y-97314099D01*
X142221328Y-97296462D01*
X142164545Y-97200145D01*
X142113977Y-97114369D01*
X142089209Y-97083881D01*
X141973889Y-96941934D01*
X141967781Y-96934415D01*
X141796401Y-96778256D01*
X141792492Y-96775642D01*
X141792488Y-96775639D01*
X141629746Y-96666819D01*
X141603664Y-96649379D01*
X141596162Y-96645849D01*
X141398149Y-96552672D01*
X141398147Y-96552671D01*
X141393875Y-96550661D01*
X141317973Y-96527991D01*
X141176236Y-96485657D01*
X141176231Y-96485656D01*
X141171718Y-96484308D01*
X141058378Y-96468258D01*
X140946817Y-96452459D01*
X140946813Y-96452459D01*
X140942154Y-96451799D01*
X140764416Y-96453381D01*
X140715023Y-96453821D01*
X140710308Y-96453863D01*
X140705655Y-96454607D01*
X140705650Y-96454607D01*
X140595833Y-96472158D01*
X140481358Y-96490452D01*
X140476865Y-96491881D01*
X140476863Y-96491882D01*
X140264908Y-96559320D01*
X140260417Y-96560749D01*
X140219214Y-96581041D01*
X140072025Y-96653529D01*
X140052418Y-96663185D01*
X140052528Y-96663372D01*
X140046283Y-96671661D01*
X140045928Y-96671921D01*
X139583528Y-96938071D01*
X138346481Y-97650095D01*
X138344580Y-97651189D01*
X138341176Y-97652772D01*
X138331291Y-97654083D01*
X138331176Y-97653885D01*
X138139319Y-97784941D01*
X137969127Y-97943117D01*
X137966194Y-97946801D01*
X137966190Y-97946805D01*
X137853132Y-98088799D01*
X137824401Y-98124884D01*
X137708371Y-98326185D01*
X137706654Y-98330567D01*
X137706654Y-98330568D01*
X137689011Y-98375609D01*
X137623626Y-98542525D01*
X137622580Y-98547121D01*
X137595902Y-98664326D01*
X137572058Y-98769077D01*
X137554818Y-99000783D01*
X130476829Y-99000783D01*
X130409800Y-98793545D01*
X130408462Y-98789134D01*
X130210664Y-98091387D01*
X130209488Y-98086930D01*
X130039213Y-97390061D01*
X130042229Y-97389324D01*
X130040318Y-97384518D01*
X130041098Y-97380601D01*
X130040688Y-97379987D01*
X130040814Y-97379260D01*
X130032358Y-97367264D01*
X130030142Y-97364120D01*
X130028360Y-97361523D01*
X130018096Y-97346152D01*
X130017372Y-97346008D01*
X130016947Y-97345405D01*
X129998751Y-97342256D01*
X129995650Y-97341680D01*
X129988032Y-97340162D01*
X129987388Y-97340290D01*
X129976132Y-97338342D01*
X129967871Y-97344166D01*
X129964754Y-97344785D01*
X129953143Y-97346117D01*
X129947353Y-97348240D01*
X129001496Y-97536070D01*
X129001230Y-97534732D01*
X128998979Y-97535572D01*
X128991400Y-97534073D01*
X128984613Y-97538618D01*
X128891619Y-97544811D01*
X128858794Y-97542693D01*
X128857359Y-97542409D01*
X128830356Y-97537067D01*
X128776180Y-97526349D01*
X128745023Y-97515809D01*
X128669450Y-97478639D01*
X128642082Y-97460394D01*
X128578705Y-97404931D01*
X128556991Y-97380223D01*
X128510126Y-97310243D01*
X128495547Y-97280758D01*
X128468393Y-97201039D01*
X128461943Y-97168786D01*
X128456346Y-97084748D01*
X128458463Y-97051922D01*
X128474807Y-96969308D01*
X128485347Y-96938151D01*
X128522517Y-96862578D01*
X128540762Y-96835210D01*
X128596225Y-96771833D01*
X128620933Y-96750119D01*
X128690913Y-96703254D01*
X128720396Y-96688676D01*
X128805610Y-96659650D01*
X128809554Y-96658812D01*
X128816628Y-96660211D01*
X128822973Y-96655962D01*
X128834870Y-96653435D01*
X128836661Y-96653273D01*
X128844844Y-96650378D01*
X128862831Y-96646788D01*
X129791584Y-96461414D01*
X129792084Y-96463921D01*
X129796184Y-96462449D01*
X129801879Y-96463730D01*
X129811974Y-96457344D01*
X129812272Y-96457815D01*
X129812778Y-96457567D01*
X129812552Y-96457230D01*
X129816472Y-96454607D01*
X129818103Y-96453516D01*
X129820767Y-96451782D01*
X129836885Y-96441586D01*
X129837054Y-96440835D01*
X129838033Y-96440180D01*
X129841931Y-96420518D01*
X129842568Y-96417302D01*
X129842568Y-96417301D01*
X129844186Y-96409137D01*
X129845978Y-96401175D01*
X129845816Y-96400918D01*
X129846087Y-96399549D01*
X129840204Y-96390756D01*
X129840200Y-96390729D01*
X129840154Y-96390136D01*
X129839259Y-96376218D01*
X129836816Y-96368793D01*
X129730995Y-95682810D01*
X129730376Y-95678242D01*
X129646098Y-94957910D01*
X129645646Y-94953322D01*
X129645626Y-94953063D01*
X129612649Y-94541127D01*
X129587774Y-94230382D01*
X129587490Y-94225782D01*
X129556439Y-93509062D01*
X129559527Y-93508928D01*
X129558593Y-93503862D01*
X129560134Y-93500142D01*
X129559855Y-93499469D01*
X129560117Y-93498789D01*
X129552605Y-93481862D01*
X129551386Y-93479022D01*
X129544283Y-93461873D01*
X129543610Y-93461594D01*
X129543314Y-93460928D01*
X129526004Y-93454260D01*
X129523138Y-93453114D01*
X129521831Y-93452573D01*
X129521830Y-93452573D01*
X129515961Y-93450142D01*
X129515313Y-93450142D01*
X129504661Y-93446039D01*
X129495416Y-93450142D01*
X129492279Y-93450142D01*
X129480632Y-93449184D01*
X129474514Y-93450142D01*
X128509961Y-93450142D01*
X128509961Y-93448596D01*
X128507278Y-93449031D01*
X128500014Y-93446022D01*
X128492466Y-93449148D01*
X128399991Y-93436974D01*
X128368218Y-93428460D01*
X128290342Y-93396202D01*
X128261857Y-93379756D01*
X128194977Y-93328437D01*
X128171719Y-93305179D01*
X128120400Y-93238299D01*
X128103954Y-93209814D01*
X128071696Y-93131938D01*
X128063182Y-93100165D01*
X128052179Y-93016588D01*
X128052179Y-93000000D01*
X146394318Y-93000000D01*
X146414956Y-93156762D01*
X146475464Y-93302841D01*
X146571718Y-93428282D01*
X146697159Y-93524536D01*
X146843238Y-93585044D01*
X147000000Y-93605682D01*
X147008188Y-93604604D01*
X147148574Y-93586122D01*
X147156762Y-93585044D01*
X147302841Y-93524536D01*
X147428282Y-93428282D01*
X147524536Y-93302841D01*
X147585044Y-93156762D01*
X147599247Y-93048880D01*
X147959648Y-93048880D01*
X147960174Y-93053700D01*
X147960174Y-93053703D01*
X147972251Y-93164391D01*
X147985349Y-93284439D01*
X148046858Y-93513273D01*
X148048819Y-93517706D01*
X148087737Y-93605682D01*
X148142719Y-93729974D01*
X148270668Y-93929417D01*
X148427679Y-94106888D01*
X148610041Y-94258191D01*
X148614197Y-94260675D01*
X148614203Y-94260679D01*
X148809278Y-94377262D01*
X148809283Y-94377265D01*
X148813442Y-94379750D01*
X148923258Y-94424220D01*
X149028576Y-94466870D01*
X149028582Y-94466872D01*
X149033074Y-94468691D01*
X149263744Y-94522910D01*
X149268582Y-94523283D01*
X149268588Y-94523284D01*
X149495163Y-94540754D01*
X149500000Y-94541127D01*
X149504837Y-94540754D01*
X149731412Y-94523284D01*
X149731418Y-94523283D01*
X149736256Y-94522910D01*
X149966926Y-94468691D01*
X149971418Y-94466872D01*
X149971424Y-94466870D01*
X150076742Y-94424220D01*
X150186558Y-94379750D01*
X150190717Y-94377265D01*
X150190722Y-94377262D01*
X150385797Y-94260679D01*
X150385803Y-94260675D01*
X150389959Y-94258191D01*
X150572321Y-94106888D01*
X150729332Y-93929417D01*
X150857281Y-93729974D01*
X150912264Y-93605682D01*
X150951181Y-93517706D01*
X150953142Y-93513273D01*
X151014651Y-93284439D01*
X151027749Y-93164391D01*
X151039826Y-93053703D01*
X151039826Y-93053700D01*
X151040352Y-93048880D01*
X151038139Y-93000000D01*
X151394318Y-93000000D01*
X151414956Y-93156762D01*
X151475464Y-93302841D01*
X151571718Y-93428282D01*
X151697159Y-93524536D01*
X151843238Y-93585044D01*
X152000000Y-93605682D01*
X152008188Y-93604604D01*
X152148574Y-93586122D01*
X152156762Y-93585044D01*
X152302841Y-93524536D01*
X152428282Y-93428282D01*
X152524536Y-93302841D01*
X152585044Y-93156762D01*
X152605682Y-93000000D01*
X152585044Y-92843238D01*
X152524536Y-92697159D01*
X152428282Y-92571718D01*
X152417325Y-92563310D01*
X152373688Y-92529827D01*
X152302841Y-92475464D01*
X152156762Y-92414956D01*
X152000000Y-92394318D01*
X151843238Y-92414956D01*
X151697159Y-92475464D01*
X151626312Y-92529827D01*
X151582676Y-92563310D01*
X151571718Y-92571718D01*
X151475464Y-92697159D01*
X151414956Y-92843238D01*
X151394318Y-93000000D01*
X151038139Y-93000000D01*
X151029637Y-92812165D01*
X150982761Y-92579891D01*
X150953949Y-92501699D01*
X150902507Y-92362094D01*
X150902506Y-92362091D01*
X150900832Y-92357549D01*
X150785785Y-92150395D01*
X150782809Y-92146567D01*
X150651462Y-91977628D01*
X150651461Y-91977627D01*
X150640342Y-91963326D01*
X150640045Y-91963596D01*
X150638798Y-91963009D01*
X150638269Y-91961731D01*
X150630741Y-91958613D01*
X150630739Y-91958611D01*
X150622964Y-91955391D01*
X150619109Y-91953686D01*
X150618961Y-91953663D01*
X150602573Y-91945942D01*
X150592552Y-91949545D01*
X150586085Y-91948536D01*
X150573842Y-91950000D01*
X148408718Y-91950001D01*
X148408718Y-91949883D01*
X148408502Y-91949923D01*
X148397427Y-91945942D01*
X148387793Y-91950481D01*
X148387792Y-91950481D01*
X148382479Y-91952984D01*
X148377002Y-91955407D01*
X148361732Y-91961732D01*
X148361204Y-91963008D01*
X148359955Y-91963596D01*
X148359658Y-91963326D01*
X148349836Y-91975959D01*
X148349835Y-91975960D01*
X148217191Y-92146567D01*
X148214215Y-92150395D01*
X148099168Y-92357549D01*
X148097494Y-92362091D01*
X148097493Y-92362094D01*
X148046051Y-92501699D01*
X148017239Y-92579891D01*
X147970363Y-92812165D01*
X147959648Y-93048880D01*
X147599247Y-93048880D01*
X147605682Y-93000000D01*
X147585044Y-92843238D01*
X147524536Y-92697159D01*
X147428282Y-92571718D01*
X147417325Y-92563310D01*
X147373688Y-92529827D01*
X147302841Y-92475464D01*
X147156762Y-92414956D01*
X147000000Y-92394318D01*
X146843238Y-92414956D01*
X146697159Y-92475464D01*
X146626312Y-92529827D01*
X146582676Y-92563310D01*
X146571718Y-92571718D01*
X146475464Y-92697159D01*
X146414956Y-92843238D01*
X146394318Y-93000000D01*
X128052179Y-93000000D01*
X128052179Y-92983696D01*
X128063182Y-92900119D01*
X128071696Y-92868346D01*
X128103954Y-92790470D01*
X128120400Y-92761985D01*
X128171719Y-92695105D01*
X128194977Y-92671847D01*
X128261857Y-92620528D01*
X128290342Y-92604082D01*
X128368218Y-92571824D01*
X128399991Y-92563310D01*
X128412695Y-92561638D01*
X128489321Y-92551550D01*
X128493349Y-92551502D01*
X128500014Y-92554262D01*
X128507073Y-92551338D01*
X128519229Y-92551193D01*
X128520982Y-92551381D01*
X128529602Y-92550142D01*
X129495352Y-92550142D01*
X129495352Y-92552693D01*
X129499653Y-92552051D01*
X129505059Y-92554450D01*
X129514996Y-92550622D01*
X129514997Y-92550622D01*
X129521880Y-92547970D01*
X129543712Y-92539560D01*
X129544208Y-92538442D01*
X129544283Y-92538411D01*
X129545138Y-92536346D01*
X129560514Y-92501699D01*
X129560020Y-92500417D01*
X129560134Y-92500142D01*
X129556990Y-92492552D01*
X129556808Y-92492079D01*
X129556888Y-92490242D01*
X129558580Y-92477505D01*
X129557739Y-92470590D01*
X129587879Y-91774721D01*
X129588163Y-91770120D01*
X129646025Y-91047221D01*
X129646476Y-91042633D01*
X129646507Y-91042374D01*
X129730752Y-90322257D01*
X129731372Y-90317690D01*
X129840727Y-89608745D01*
X129843808Y-89609220D01*
X129843883Y-89604029D01*
X129846087Y-89600735D01*
X129845942Y-89600003D01*
X129846342Y-89599370D01*
X129842284Y-89581339D01*
X129841620Y-89578201D01*
X129841363Y-89576903D01*
X129841362Y-89576902D01*
X129838033Y-89560104D01*
X129837412Y-89559689D01*
X129837248Y-89558958D01*
X129828928Y-89553695D01*
X129821624Y-89549074D01*
X129818911Y-89547309D01*
X129817811Y-89546573D01*
X129817810Y-89546573D01*
X129812555Y-89543056D01*
X129811904Y-89542926D01*
X129802242Y-89536814D01*
X129792390Y-89539031D01*
X129789212Y-89538397D01*
X129777981Y-89535186D01*
X129771858Y-89534933D01*
X129327453Y-89446232D01*
X128826943Y-89346333D01*
X128827266Y-89344717D01*
X128824364Y-89344613D01*
X128817524Y-89340052D01*
X128809514Y-89341653D01*
X128808375Y-89341267D01*
X128808371Y-89341265D01*
X128721282Y-89311792D01*
X128691769Y-89297272D01*
X128689931Y-89296047D01*
X128621740Y-89250573D01*
X128596997Y-89228914D01*
X128541440Y-89165680D01*
X128523142Y-89138349D01*
X128485844Y-89062892D01*
X128475244Y-89031759D01*
X128458747Y-88949217D01*
X128456565Y-88916403D01*
X128461993Y-88832406D01*
X128468381Y-88800139D01*
X128495364Y-88720410D01*
X128509884Y-88690897D01*
X128511109Y-88689059D01*
X128556583Y-88620868D01*
X128578242Y-88596125D01*
X128641476Y-88540568D01*
X128668807Y-88522270D01*
X128744264Y-88484972D01*
X128775400Y-88474371D01*
X128857938Y-88457875D01*
X128890750Y-88455693D01*
X128980538Y-88461495D01*
X128984505Y-88462232D01*
X128990504Y-88466232D01*
X128997992Y-88464735D01*
X129009954Y-88466956D01*
X129011689Y-88467498D01*
X129020338Y-88467956D01*
X129967395Y-88656024D01*
X129966880Y-88658616D01*
X129971379Y-88658832D01*
X129976301Y-88662302D01*
X129994272Y-88659192D01*
X129999267Y-88658328D01*
X129999268Y-88658328D01*
X130017116Y-88655239D01*
X130017864Y-88654178D01*
X130018096Y-88654132D01*
X130021678Y-88648767D01*
X130023251Y-88646536D01*
X130023253Y-88646535D01*
X130030618Y-88636086D01*
X130030619Y-88636084D01*
X130040982Y-88621383D01*
X130040772Y-88620171D01*
X130041098Y-88619683D01*
X130039328Y-88610799D01*
X130039662Y-88609433D01*
X130043936Y-88596890D01*
X130044474Y-88589738D01*
X130209643Y-87913718D01*
X130210810Y-87909296D01*
X130408606Y-87211511D01*
X130409939Y-87207115D01*
X130633122Y-86517047D01*
X130634621Y-86512688D01*
X130646205Y-86480895D01*
X130880191Y-85838673D01*
X130883087Y-85839728D01*
X130884159Y-85834703D01*
X130887018Y-85831843D01*
X130887018Y-85831121D01*
X130887517Y-85830596D01*
X130887120Y-85814745D01*
X130887053Y-85812053D01*
X130887014Y-85808921D01*
X130887014Y-85807551D01*
X130887011Y-85790421D01*
X130886499Y-85789909D01*
X130886481Y-85789187D01*
X130873486Y-85776826D01*
X130873051Y-85776412D01*
X130870821Y-85774238D01*
X130869828Y-85773246D01*
X130865329Y-85768749D01*
X130864736Y-85768504D01*
X130856468Y-85760639D01*
X130846350Y-85760892D01*
X130843512Y-85759717D01*
X130833102Y-85754366D01*
X130827049Y-85752902D01*
X129937025Y-85384451D01*
X129937719Y-85382775D01*
X129934615Y-85382044D01*
X129928691Y-85376128D01*
X129920524Y-85376133D01*
X129839732Y-85329560D01*
X129813622Y-85309554D01*
X129753987Y-85250000D01*
X129733949Y-85223924D01*
X129691759Y-85150962D01*
X129679152Y-85120584D01*
X129657283Y-85039188D01*
X129652968Y-85006582D01*
X129652921Y-84937645D01*
X129652910Y-84922306D01*
X129657182Y-84889691D01*
X129678941Y-84808269D01*
X129691508Y-84777872D01*
X129733597Y-84704859D01*
X129753601Y-84678752D01*
X129813155Y-84619116D01*
X129839232Y-84599077D01*
X129912194Y-84556887D01*
X129942572Y-84544280D01*
X130023968Y-84522411D01*
X130056574Y-84518096D01*
X130098615Y-84518067D01*
X130140850Y-84518038D01*
X130173465Y-84522310D01*
X130260494Y-84545567D01*
X130264236Y-84547062D01*
X130269337Y-84552156D01*
X130276973Y-84552151D01*
X130288273Y-84556666D01*
X130289856Y-84557529D01*
X130298256Y-84559669D01*
X131190290Y-84928951D01*
X131189313Y-84931310D01*
X131193535Y-84932362D01*
X131197583Y-84936618D01*
X131209532Y-84936917D01*
X131209518Y-84937476D01*
X131210077Y-84937551D01*
X131210077Y-84937144D01*
X131210080Y-84937144D01*
X131216968Y-84937143D01*
X131220103Y-84937182D01*
X131238992Y-84937654D01*
X131239533Y-84937139D01*
X131240735Y-84937139D01*
X131248586Y-84929285D01*
X131257201Y-84920666D01*
X131263972Y-84913892D01*
X131269004Y-84909105D01*
X131269010Y-84908851D01*
X131270018Y-84907843D01*
X131270016Y-84897222D01*
X131271073Y-84895342D01*
X131277294Y-84884596D01*
X131279395Y-84877048D01*
X131572500Y-84247910D01*
X131574506Y-84243803D01*
X131904615Y-83598058D01*
X131906782Y-83594002D01*
X132260322Y-82960704D01*
X132262643Y-82956721D01*
X132634989Y-82343569D01*
X132637622Y-82345168D01*
X132639654Y-82340450D01*
X132643020Y-82338200D01*
X132643161Y-82337491D01*
X132643751Y-82337075D01*
X132646910Y-82318820D01*
X132647478Y-82315768D01*
X132647761Y-82314341D01*
X132647761Y-82314340D01*
X132651092Y-82297572D01*
X132650691Y-82296972D01*
X132650814Y-82296259D01*
X132640139Y-82281117D01*
X132638372Y-82278543D01*
X132637589Y-82277372D01*
X132637587Y-82277371D01*
X132634055Y-82272087D01*
X132633522Y-82271731D01*
X132626947Y-82262405D01*
X132616974Y-82260679D01*
X132614405Y-82258963D01*
X132605244Y-82251689D01*
X132599603Y-82249077D01*
X131797060Y-81713089D01*
X131797925Y-81711794D01*
X131795434Y-81710656D01*
X131791084Y-81704145D01*
X131783074Y-81702551D01*
X131782184Y-81701770D01*
X131782181Y-81701766D01*
X131712882Y-81640985D01*
X131691197Y-81616255D01*
X131644321Y-81546092D01*
X131629774Y-81516589D01*
X131602654Y-81436678D01*
X131596239Y-81404418D01*
X131590725Y-81320210D01*
X131592878Y-81287393D01*
X131609347Y-81204622D01*
X131619917Y-81173489D01*
X131657251Y-81097795D01*
X131675523Y-81070454D01*
X131731168Y-81007012D01*
X131755898Y-80985327D01*
X131799459Y-80956224D01*
X131826066Y-80938448D01*
X131855567Y-80923902D01*
X131935478Y-80896782D01*
X131967738Y-80890367D01*
X131980440Y-80889535D01*
X132051946Y-80884853D01*
X132084768Y-80887007D01*
X132167527Y-80903474D01*
X132198672Y-80914047D01*
X132279563Y-80953945D01*
X132282938Y-80956143D01*
X132286944Y-80962139D01*
X132294435Y-80963630D01*
X132304631Y-80970270D01*
X132305947Y-80971370D01*
X132313827Y-80975140D01*
X132959288Y-81406217D01*
X133116662Y-81511321D01*
X133115137Y-81513604D01*
X133119370Y-81515603D01*
X133122693Y-81520855D01*
X133137578Y-81524205D01*
X133145432Y-81525973D01*
X133145433Y-81525973D01*
X133163104Y-81529950D01*
X133164336Y-81529171D01*
X133164584Y-81529220D01*
X133170336Y-81525375D01*
X133198109Y-81507805D01*
X133198373Y-81506633D01*
X133199020Y-81506200D01*
X133200821Y-81497134D01*
X133201461Y-81496260D01*
X133210389Y-81486104D01*
X133213687Y-81479575D01*
X133557791Y-81009947D01*
X147945384Y-81009947D01*
X147950000Y-81009947D01*
X147950000Y-82987061D01*
X147949663Y-82990867D01*
X147945880Y-83000000D01*
X147945654Y-83000000D01*
X147963015Y-83231663D01*
X148014709Y-83458152D01*
X148099583Y-83674405D01*
X148215739Y-83875594D01*
X148360584Y-84057224D01*
X148364037Y-84060427D01*
X148364037Y-84060428D01*
X148515002Y-84200503D01*
X148530881Y-84215237D01*
X148534777Y-84217893D01*
X148534783Y-84217898D01*
X148718931Y-84343447D01*
X148722827Y-84346103D01*
X148727076Y-84348149D01*
X148917609Y-84439905D01*
X148932134Y-84446900D01*
X148976124Y-84460469D01*
X149149618Y-84513985D01*
X149149621Y-84513986D01*
X149154125Y-84515375D01*
X149242651Y-84528718D01*
X149379184Y-84549298D01*
X149379189Y-84549298D01*
X149383844Y-84550000D01*
X149616156Y-84550000D01*
X149620811Y-84549298D01*
X149620816Y-84549298D01*
X149757349Y-84528718D01*
X149845875Y-84515375D01*
X149850379Y-84513986D01*
X149850382Y-84513985D01*
X150023876Y-84460469D01*
X150067866Y-84446900D01*
X150082392Y-84439905D01*
X150272924Y-84348149D01*
X150277173Y-84346103D01*
X150281069Y-84343447D01*
X150465217Y-84217898D01*
X150465223Y-84217893D01*
X150469119Y-84215237D01*
X150484999Y-84200503D01*
X150635963Y-84060428D01*
X150635963Y-84060427D01*
X150639416Y-84057224D01*
X150784261Y-83875594D01*
X150900417Y-83674405D01*
X150985291Y-83458152D01*
X151036985Y-83231663D01*
X151054346Y-83000000D01*
X151054120Y-83000000D01*
X151053909Y-82999490D01*
X151054616Y-82990053D01*
X151050000Y-82990053D01*
X151050000Y-81012939D01*
X151050337Y-81009133D01*
X151054120Y-81000000D01*
X151054346Y-81000000D01*
X151038149Y-80783870D01*
X151037337Y-80773032D01*
X151037337Y-80773030D01*
X151036985Y-80768337D01*
X150985291Y-80541848D01*
X150900417Y-80325595D01*
X150784261Y-80124406D01*
X150639416Y-79942776D01*
X150514559Y-79826925D01*
X150472581Y-79787975D01*
X150472579Y-79787973D01*
X150469119Y-79784763D01*
X150465223Y-79782107D01*
X150465217Y-79782102D01*
X150281069Y-79656553D01*
X150281067Y-79656552D01*
X150277173Y-79653897D01*
X150067866Y-79553100D01*
X149956870Y-79518862D01*
X149850382Y-79486015D01*
X149850379Y-79486014D01*
X149845875Y-79484625D01*
X149757349Y-79471282D01*
X149620816Y-79450702D01*
X149620811Y-79450702D01*
X149616156Y-79450000D01*
X149383844Y-79450000D01*
X149379189Y-79450702D01*
X149379184Y-79450702D01*
X149242651Y-79471282D01*
X149154125Y-79484625D01*
X149149621Y-79486014D01*
X149149618Y-79486015D01*
X149043130Y-79518862D01*
X148932134Y-79553100D01*
X148722827Y-79653897D01*
X148718933Y-79656552D01*
X148718931Y-79656553D01*
X148534783Y-79782102D01*
X148534777Y-79782107D01*
X148530881Y-79784763D01*
X148527421Y-79787973D01*
X148527419Y-79787975D01*
X148485441Y-79826925D01*
X148360584Y-79942776D01*
X148215739Y-80124406D01*
X148099583Y-80325595D01*
X148014709Y-80541848D01*
X147963015Y-80768337D01*
X147962663Y-80773030D01*
X147962663Y-80773032D01*
X147961851Y-80783870D01*
X147945654Y-81000000D01*
X147945880Y-81000000D01*
X147946091Y-81000510D01*
X147945384Y-81009947D01*
X133557791Y-81009947D01*
X133624747Y-80918566D01*
X133627539Y-80914898D01*
X134077294Y-80345960D01*
X134080218Y-80342397D01*
X134090788Y-80329988D01*
X134550503Y-79790269D01*
X134553525Y-79786850D01*
X135038362Y-79258106D01*
X135040639Y-79260194D01*
X135043561Y-79255953D01*
X135047283Y-79254411D01*
X135047562Y-79253737D01*
X135048227Y-79253442D01*
X135054899Y-79236124D01*
X135056053Y-79233238D01*
X135056594Y-79231932D01*
X135063134Y-79216142D01*
X135062856Y-79215470D01*
X135063118Y-79214789D01*
X135059115Y-79205769D01*
X135055602Y-79197853D01*
X135054363Y-79194966D01*
X135053834Y-79193689D01*
X135051403Y-79187820D01*
X135050944Y-79187361D01*
X135046314Y-79176929D01*
X135036876Y-79173293D01*
X135034664Y-79171081D01*
X135027102Y-79162163D01*
X135022095Y-79158512D01*
X134340376Y-78476793D01*
X134341437Y-78475732D01*
X134339293Y-78474188D01*
X134336228Y-78466819D01*
X134328678Y-78463704D01*
X134271804Y-78389801D01*
X134255319Y-78361342D01*
X134222956Y-78283522D01*
X134214399Y-78251765D01*
X134203279Y-78168222D01*
X134203232Y-78135326D01*
X134214115Y-78051756D01*
X134222583Y-78019974D01*
X134254725Y-77942065D01*
X134271131Y-77913556D01*
X134322340Y-77846623D01*
X134345561Y-77823335D01*
X134412360Y-77771928D01*
X134440814Y-77755447D01*
X134518633Y-77723084D01*
X134550391Y-77714527D01*
X134633934Y-77703407D01*
X134666827Y-77703360D01*
X134750401Y-77714243D01*
X134782182Y-77722711D01*
X134860091Y-77754853D01*
X134888600Y-77771259D01*
X134960140Y-77825993D01*
X134963032Y-77828809D01*
X134965800Y-77835465D01*
X134972858Y-77838377D01*
X134981576Y-77846865D01*
X134982780Y-77848355D01*
X134989654Y-77853493D01*
X135672298Y-78536137D01*
X135670366Y-78538069D01*
X135674110Y-78540841D01*
X135676348Y-78546649D01*
X135714208Y-78563452D01*
X135715381Y-78563000D01*
X135716014Y-78563262D01*
X135732118Y-78556592D01*
X135734953Y-78555460D01*
X135752861Y-78548560D01*
X135753166Y-78547874D01*
X135754283Y-78547411D01*
X135758119Y-78538149D01*
X135758400Y-78537892D01*
X135769618Y-78529304D01*
X135774332Y-78523282D01*
X136286247Y-78053856D01*
X136289701Y-78050803D01*
X136436652Y-77925629D01*
X136841821Y-77580502D01*
X136845350Y-77577606D01*
X137414305Y-77127816D01*
X137417967Y-77125028D01*
X137996606Y-76701029D01*
X137998438Y-76703529D01*
X138002141Y-76699929D01*
X138006072Y-76699148D01*
X138006481Y-76698536D01*
X138007198Y-76698375D01*
X138017137Y-76682663D01*
X138018784Y-76680133D01*
X138029092Y-76664712D01*
X138028949Y-76663991D01*
X138029342Y-76663369D01*
X138027177Y-76653752D01*
X138027178Y-76653750D01*
X138025274Y-76645291D01*
X138024615Y-76642181D01*
X138024353Y-76640863D01*
X138023118Y-76634645D01*
X138022755Y-76634101D01*
X138020247Y-76622958D01*
X138011703Y-76617553D01*
X138009943Y-76614917D01*
X138004269Y-76604702D01*
X138000088Y-76600162D01*
X137700258Y-76151220D01*
X137464114Y-75797638D01*
X137465401Y-75796779D01*
X137463546Y-75794785D01*
X137462011Y-75787072D01*
X137455220Y-75782535D01*
X137413919Y-75698800D01*
X137403346Y-75667655D01*
X137386879Y-75584896D01*
X137384725Y-75552074D01*
X137390239Y-75467866D01*
X137396654Y-75435606D01*
X137423774Y-75355695D01*
X137438321Y-75326192D01*
X137446781Y-75313530D01*
X137485199Y-75256026D01*
X137506884Y-75231296D01*
X137531455Y-75209745D01*
X137570328Y-75175650D01*
X137597667Y-75157379D01*
X137673361Y-75120045D01*
X137704494Y-75109475D01*
X137787265Y-75093006D01*
X137820082Y-75090853D01*
X137891588Y-75095535D01*
X137904290Y-75096367D01*
X137936550Y-75102782D01*
X138016461Y-75129902D01*
X138045964Y-75144449D01*
X138116127Y-75191325D01*
X138140857Y-75213010D01*
X138200331Y-75280818D01*
X138202610Y-75284142D01*
X138204017Y-75291212D01*
X138210366Y-75295454D01*
X138217248Y-75305491D01*
X138218074Y-75307071D01*
X138223876Y-75313530D01*
X138760521Y-76117057D01*
X138758404Y-76118471D01*
X138761322Y-76121687D01*
X138762337Y-76127549D01*
X138796192Y-76151416D01*
X138797419Y-76151204D01*
X138797444Y-76151220D01*
X138798250Y-76151060D01*
X138837007Y-76144353D01*
X138837821Y-76143198D01*
X138838072Y-76143148D01*
X138842011Y-76137255D01*
X138842947Y-76135928D01*
X138844528Y-76134968D01*
X138856014Y-76129321D01*
X138861270Y-76124801D01*
X139456659Y-75763234D01*
X139460642Y-75760914D01*
X140093880Y-75407398D01*
X140097946Y-75405225D01*
X140743675Y-75075117D01*
X140747817Y-75073094D01*
X140945054Y-74981202D01*
X141398067Y-74770144D01*
X141399376Y-74772953D01*
X141403709Y-74770145D01*
X141407715Y-74770146D01*
X141408234Y-74769627D01*
X141408968Y-74769609D01*
X141415763Y-74762465D01*
X141415764Y-74762465D01*
X141421728Y-74756195D01*
X141423924Y-74753943D01*
X141437011Y-74740863D01*
X141437011Y-74740129D01*
X141437517Y-74739597D01*
X141437270Y-74729742D01*
X141437271Y-74729741D01*
X141437054Y-74721085D01*
X141437014Y-74717895D01*
X141437016Y-74710208D01*
X141436767Y-74709606D01*
X141436481Y-74698188D01*
X141429155Y-74691219D01*
X141427946Y-74688299D01*
X141424373Y-74677169D01*
X141421156Y-74671897D01*
X141303435Y-74387530D01*
X141052002Y-73780172D01*
X141053129Y-73779705D01*
X141051999Y-73777877D01*
X141051990Y-73770373D01*
X141046208Y-73764604D01*
X141029489Y-73702499D01*
X141021941Y-73674461D01*
X141017609Y-73641855D01*
X141017510Y-73557477D01*
X141021764Y-73524863D01*
X141043509Y-73443330D01*
X141056061Y-73412928D01*
X141098165Y-73339804D01*
X141118156Y-73313688D01*
X141177755Y-73253949D01*
X141203818Y-73233902D01*
X141276850Y-73191623D01*
X141307222Y-73179002D01*
X141388696Y-73157069D01*
X141421301Y-73152737D01*
X141463194Y-73152688D01*
X141505682Y-73152638D01*
X141538293Y-73156892D01*
X141601798Y-73173829D01*
X141619826Y-73178637D01*
X141650228Y-73191189D01*
X141723352Y-73233293D01*
X141749468Y-73253284D01*
X141809206Y-73312882D01*
X141829255Y-73338947D01*
X141833305Y-73345944D01*
X141874441Y-73417002D01*
X141876029Y-73420699D01*
X141876038Y-73427911D01*
X141881446Y-73433306D01*
X141886247Y-73444481D01*
X141886789Y-73446319D01*
X141891172Y-73453698D01*
X142260403Y-74345605D01*
X142257984Y-74346606D01*
X142260282Y-74350433D01*
X142260131Y-74356482D01*
X142267471Y-74364199D01*
X142268585Y-74365370D01*
X142268155Y-74365779D01*
X142268890Y-74366739D01*
X142268274Y-74367210D01*
X142268371Y-74367575D01*
X142269584Y-74366421D01*
X142288679Y-74386496D01*
X142289675Y-74386521D01*
X142290293Y-74387139D01*
X142299977Y-74387141D01*
X142299978Y-74387141D01*
X142313020Y-74387143D01*
X142313584Y-74387150D01*
X142313608Y-74387143D01*
X142314593Y-74387143D01*
X142330087Y-74387530D01*
X142330491Y-74387146D01*
X142331715Y-74387146D01*
X142338943Y-74379921D01*
X142339300Y-74379791D01*
X142352980Y-74376143D01*
X142359660Y-74372373D01*
X143012218Y-74134609D01*
X143016578Y-74133111D01*
X143706611Y-73909928D01*
X143711022Y-73908590D01*
X144408769Y-73710792D01*
X144413226Y-73709616D01*
X145110095Y-73539341D01*
X145110832Y-73542357D01*
X145115638Y-73540446D01*
X145119555Y-73541226D01*
X145120169Y-73540816D01*
X145120896Y-73540942D01*
X145128951Y-73535264D01*
X145136036Y-73530270D01*
X145138633Y-73528488D01*
X145154004Y-73518224D01*
X145154148Y-73517500D01*
X145154751Y-73517075D01*
X145157900Y-73498879D01*
X145158479Y-73495764D01*
X145158755Y-73494379D01*
X145159994Y-73488160D01*
X145159866Y-73487516D01*
X145161814Y-73476260D01*
X145155990Y-73467999D01*
X145155371Y-73464882D01*
X145154039Y-73453271D01*
X145151916Y-73447481D01*
X144964086Y-72501624D01*
X144965424Y-72501358D01*
X144964584Y-72499107D01*
X144966083Y-72491528D01*
X144961538Y-72484741D01*
X144955345Y-72391747D01*
X144957463Y-72358922D01*
X144973807Y-72276308D01*
X144984347Y-72245151D01*
X145021517Y-72169578D01*
X145039762Y-72142210D01*
X145095225Y-72078833D01*
X145119933Y-72057119D01*
X145189913Y-72010254D01*
X145219398Y-71995675D01*
X145299117Y-71968521D01*
X145331370Y-71962071D01*
X145415408Y-71956474D01*
X145448233Y-71958591D01*
X145465824Y-71962071D01*
X145530848Y-71974935D01*
X145562005Y-71985475D01*
X145637578Y-72022645D01*
X145664946Y-72040890D01*
X145728323Y-72096353D01*
X145750037Y-72121061D01*
X145796902Y-72191041D01*
X145811480Y-72220524D01*
X145820491Y-72246975D01*
X145840506Y-72305736D01*
X145841344Y-72309682D01*
X145839945Y-72316756D01*
X145844194Y-72323101D01*
X145846721Y-72334998D01*
X145846883Y-72336789D01*
X145849778Y-72344972D01*
X146038742Y-73291712D01*
X146036235Y-73292212D01*
X146037707Y-73296312D01*
X146036426Y-73302007D01*
X146042120Y-73311008D01*
X146042812Y-73312102D01*
X146042341Y-73312400D01*
X146042589Y-73312906D01*
X146042926Y-73312680D01*
X146046631Y-73318217D01*
X146048374Y-73320895D01*
X146058570Y-73337013D01*
X146059321Y-73337182D01*
X146059976Y-73338161D01*
X146069826Y-73340113D01*
X146069827Y-73340114D01*
X146082854Y-73342696D01*
X146082855Y-73342696D01*
X146091019Y-73344314D01*
X146098981Y-73346106D01*
X146099238Y-73345944D01*
X146100607Y-73346215D01*
X146109400Y-73340332D01*
X146109427Y-73340328D01*
X146110020Y-73340282D01*
X146123938Y-73339387D01*
X146131363Y-73336944D01*
X146814902Y-73231500D01*
X146817347Y-73231123D01*
X146821914Y-73230504D01*
X147542261Y-73146225D01*
X147546819Y-73145775D01*
X147844954Y-73121909D01*
X148269774Y-73087902D01*
X148274374Y-73087618D01*
X148991094Y-73056567D01*
X148991228Y-73059655D01*
X148996294Y-73058721D01*
X149000014Y-73060262D01*
X149000687Y-73059983D01*
X149001367Y-73060245D01*
X149018294Y-73052733D01*
X149021134Y-73051514D01*
X149038283Y-73044411D01*
X149038562Y-73043738D01*
X149039228Y-73043442D01*
X149045896Y-73026132D01*
X149047042Y-73023266D01*
X149047583Y-73021959D01*
X149047583Y-73021958D01*
X149050014Y-73016089D01*
X149050014Y-73015441D01*
X149054117Y-73004789D01*
X149050014Y-72995544D01*
X149050014Y-72992407D01*
X149050972Y-72980760D01*
X149050014Y-72974642D01*
X149050014Y-72010089D01*
X149051560Y-72010089D01*
X149051125Y-72007406D01*
X149054134Y-72000142D01*
X149051008Y-71992594D01*
X149063182Y-71900119D01*
X149071696Y-71868346D01*
X149103954Y-71790470D01*
X149120400Y-71761985D01*
X149171719Y-71695105D01*
X149194977Y-71671847D01*
X149261857Y-71620528D01*
X149290342Y-71604082D01*
X149368218Y-71571824D01*
X149399991Y-71563310D01*
X149441780Y-71557808D01*
X149483569Y-71552307D01*
X149516459Y-71552307D01*
X149558248Y-71557808D01*
G37*
G04 #@! TD.AperFunction*
M02*
