G04 #@! TF.GenerationSoftware,KiCad,Pcbnew,(6.0.1-0)*
G04 #@! TF.CreationDate,2022-10-06T15:49:35-04:00*
G04 #@! TF.ProjectId,mobo,6d6f626f-2e6b-4696-9361-645f70636258,rev?*
G04 #@! TF.SameCoordinates,Original*
G04 #@! TF.FileFunction,Soldermask,Bot*
G04 #@! TF.FilePolarity,Negative*
%FSLAX46Y46*%
G04 Gerber Fmt 4.6, Leading zero omitted, Abs format (unit mm)*
G04 Created by KiCad (PCBNEW (6.0.1-0)) date 2022-10-06 15:49:35*
%MOMM*%
%LPD*%
G01*
G04 APERTURE LIST*
%ADD10C,0.010000*%
%ADD11R,1.700000X1.700000*%
%ADD12O,1.700000X1.700000*%
%ADD13R,0.740000X2.400000*%
G04 APERTURE END LIST*
D10*
X124627561Y-38157805D02*
X124623611Y-38337722D01*
X124623611Y-38337722D02*
X124443695Y-38341671D01*
X124443695Y-38341671D02*
X124263778Y-38345621D01*
X124263778Y-38345621D02*
X124263778Y-38668490D01*
X124263778Y-38668490D02*
X124443695Y-38672439D01*
X124443695Y-38672439D02*
X124623611Y-38676389D01*
X124623611Y-38676389D02*
X124627561Y-38856305D01*
X124627561Y-38856305D02*
X124631510Y-39036222D01*
X124631510Y-39036222D02*
X124954379Y-39036222D01*
X124954379Y-39036222D02*
X124958329Y-38856305D01*
X124958329Y-38856305D02*
X124962278Y-38676389D01*
X124962278Y-38676389D02*
X125142195Y-38672439D01*
X125142195Y-38672439D02*
X125322111Y-38668490D01*
X125322111Y-38668490D02*
X125322111Y-38345621D01*
X125322111Y-38345621D02*
X125142195Y-38341671D01*
X125142195Y-38341671D02*
X124962278Y-38337722D01*
X124962278Y-38337722D02*
X124958329Y-38157805D01*
X124958329Y-38157805D02*
X124954379Y-37977889D01*
X124954379Y-37977889D02*
X124631510Y-37977889D01*
X124631510Y-37977889D02*
X124627561Y-38157805D01*
X124627561Y-38157805D02*
X124627561Y-38157805D01*
G36*
X124958329Y-38157805D02*
G01*
X124962278Y-38337722D01*
X125142195Y-38341671D01*
X125322111Y-38345621D01*
X125322111Y-38668490D01*
X125142195Y-38672439D01*
X124962278Y-38676389D01*
X124958329Y-38856305D01*
X124954379Y-39036222D01*
X124631510Y-39036222D01*
X124627561Y-38856305D01*
X124623611Y-38676389D01*
X124443695Y-38672439D01*
X124263778Y-38668490D01*
X124263778Y-38345621D01*
X124443695Y-38341671D01*
X124623611Y-38337722D01*
X124627561Y-38157805D01*
X124631510Y-37977889D01*
X124954379Y-37977889D01*
X124958329Y-38157805D01*
G37*
X124958329Y-38157805D02*
X124962278Y-38337722D01*
X125142195Y-38341671D01*
X125322111Y-38345621D01*
X125322111Y-38668490D01*
X125142195Y-38672439D01*
X124962278Y-38676389D01*
X124958329Y-38856305D01*
X124954379Y-39036222D01*
X124631510Y-39036222D01*
X124627561Y-38856305D01*
X124623611Y-38676389D01*
X124443695Y-38672439D01*
X124263778Y-38668490D01*
X124263778Y-38345621D01*
X124443695Y-38341671D01*
X124623611Y-38337722D01*
X124627561Y-38157805D01*
X124631510Y-37977889D01*
X124954379Y-37977889D01*
X124958329Y-38157805D01*
X124630667Y-35956102D02*
X124536131Y-35965788D01*
X124536131Y-35965788D02*
X124277040Y-36006461D01*
X124277040Y-36006461D02*
X124021730Y-36075028D01*
X124021730Y-36075028D02*
X123770021Y-36171540D01*
X123770021Y-36171540D02*
X123649945Y-36228050D01*
X123649945Y-36228050D02*
X123507326Y-36303651D01*
X123507326Y-36303651D02*
X123380466Y-36381262D01*
X123380466Y-36381262D02*
X123262187Y-36466129D01*
X123262187Y-36466129D02*
X123145309Y-36563492D01*
X123145309Y-36563492D02*
X123022655Y-36678597D01*
X123022655Y-36678597D02*
X122993446Y-36707557D01*
X122993446Y-36707557D02*
X122873614Y-36832508D01*
X122873614Y-36832508D02*
X122772706Y-36950062D01*
X122772706Y-36950062D02*
X122685478Y-37067398D01*
X122685478Y-37067398D02*
X122606688Y-37191694D01*
X122606688Y-37191694D02*
X122531091Y-37330130D01*
X122531091Y-37330130D02*
X122513939Y-37364055D01*
X122513939Y-37364055D02*
X122403939Y-37614092D01*
X122403939Y-37614092D02*
X122321911Y-37867644D01*
X122321911Y-37867644D02*
X122267801Y-38124891D01*
X122267801Y-38124891D02*
X122251677Y-38250241D01*
X122251677Y-38250241D02*
X122241992Y-38344778D01*
X122241992Y-38344778D02*
X121949556Y-38344778D01*
X121949556Y-38344778D02*
X121949556Y-38669333D01*
X121949556Y-38669333D02*
X122242601Y-38669333D01*
X122242601Y-38669333D02*
X122252465Y-38764583D01*
X122252465Y-38764583D02*
X122292341Y-39021009D01*
X122292341Y-39021009D02*
X122358523Y-39271033D01*
X122358523Y-39271033D02*
X122451764Y-39517208D01*
X122451764Y-39517208D02*
X122513939Y-39650055D01*
X122513939Y-39650055D02*
X122589540Y-39792674D01*
X122589540Y-39792674D02*
X122667152Y-39919534D01*
X122667152Y-39919534D02*
X122752018Y-40037813D01*
X122752018Y-40037813D02*
X122849381Y-40154691D01*
X122849381Y-40154691D02*
X122964486Y-40277345D01*
X122964486Y-40277345D02*
X122993446Y-40306554D01*
X122993446Y-40306554D02*
X123118397Y-40426386D01*
X123118397Y-40426386D02*
X123235951Y-40527294D01*
X123235951Y-40527294D02*
X123353287Y-40614522D01*
X123353287Y-40614522D02*
X123477584Y-40693312D01*
X123477584Y-40693312D02*
X123616020Y-40768909D01*
X123616020Y-40768909D02*
X123649945Y-40786061D01*
X123649945Y-40786061D02*
X123899981Y-40896061D01*
X123899981Y-40896061D02*
X124153534Y-40978089D01*
X124153534Y-40978089D02*
X124410780Y-41032199D01*
X124410780Y-41032199D02*
X124536131Y-41048323D01*
X124536131Y-41048323D02*
X124630667Y-41058008D01*
X124630667Y-41058008D02*
X124630667Y-41350444D01*
X124630667Y-41350444D02*
X124955222Y-41350444D01*
X124955222Y-41350444D02*
X124955222Y-41058008D01*
X124955222Y-41058008D02*
X125049759Y-41048323D01*
X125049759Y-41048323D02*
X125308849Y-41007649D01*
X125308849Y-41007649D02*
X125564160Y-40939083D01*
X125564160Y-40939083D02*
X125815868Y-40842570D01*
X125815868Y-40842570D02*
X125935945Y-40786061D01*
X125935945Y-40786061D02*
X126078563Y-40710460D01*
X126078563Y-40710460D02*
X126205423Y-40632848D01*
X126205423Y-40632848D02*
X126323702Y-40547982D01*
X126323702Y-40547982D02*
X126440580Y-40450619D01*
X126440580Y-40450619D02*
X126563235Y-40335514D01*
X126563235Y-40335514D02*
X126592443Y-40306554D01*
X126592443Y-40306554D02*
X126712275Y-40181603D01*
X126712275Y-40181603D02*
X126813183Y-40064049D01*
X126813183Y-40064049D02*
X126900411Y-39946713D01*
X126900411Y-39946713D02*
X126979202Y-39822416D01*
X126979202Y-39822416D02*
X127054798Y-39683980D01*
X127054798Y-39683980D02*
X127071950Y-39650055D01*
X127071950Y-39650055D02*
X127181950Y-39400019D01*
X127181950Y-39400019D02*
X127263979Y-39146466D01*
X127263979Y-39146466D02*
X127318088Y-38889220D01*
X127318088Y-38889220D02*
X127334212Y-38763869D01*
X127334212Y-38763869D02*
X127343898Y-38669333D01*
X127343898Y-38669333D02*
X127636333Y-38669333D01*
X127636333Y-38669333D02*
X127636333Y-38344778D01*
X127636333Y-38344778D02*
X127343898Y-38344778D01*
X127343898Y-38344778D02*
X127005231Y-38344778D01*
X127005231Y-38344778D02*
X125590222Y-38344778D01*
X125590222Y-38344778D02*
X125590222Y-38669333D01*
X125590222Y-38669333D02*
X127005231Y-38669333D01*
X127005231Y-38669333D02*
X126995524Y-38764583D01*
X126995524Y-38764583D02*
X126959639Y-38984313D01*
X126959639Y-38984313D02*
X126897594Y-39204567D01*
X126897594Y-39204567D02*
X126811111Y-39421475D01*
X126811111Y-39421475D02*
X126701907Y-39631165D01*
X126701907Y-39631165D02*
X126571704Y-39829766D01*
X126571704Y-39829766D02*
X126459801Y-39970858D01*
X126459801Y-39970858D02*
X126306596Y-40128821D01*
X126306596Y-40128821D02*
X126131950Y-40273377D01*
X126131950Y-40273377D02*
X125940543Y-40401804D01*
X125940543Y-40401804D02*
X125737055Y-40511383D01*
X125737055Y-40511383D02*
X125526165Y-40599390D01*
X125526165Y-40599390D02*
X125312554Y-40663106D01*
X125312554Y-40663106D02*
X125243468Y-40678102D01*
X125243468Y-40678102D02*
X125170237Y-40692329D01*
X125170237Y-40692329D02*
X125117880Y-40701925D01*
X125117880Y-40701925D02*
X125079620Y-40707910D01*
X125079620Y-40707910D02*
X125048682Y-40711303D01*
X125048682Y-40711303D02*
X125018287Y-40713125D01*
X125018287Y-40713125D02*
X125008139Y-40713523D01*
X125008139Y-40713523D02*
X124955222Y-40715444D01*
X124955222Y-40715444D02*
X124955222Y-40221555D01*
X124955222Y-40221555D02*
X124630667Y-40221555D01*
X124630667Y-40221555D02*
X124630667Y-40719342D01*
X124630667Y-40719342D02*
X124535417Y-40709635D01*
X124535417Y-40709635D02*
X124316702Y-40673883D01*
X124316702Y-40673883D02*
X124097910Y-40612335D01*
X124097910Y-40612335D02*
X123883091Y-40527114D01*
X123883091Y-40527114D02*
X123676294Y-40420343D01*
X123676294Y-40420343D02*
X123481569Y-40294146D01*
X123481569Y-40294146D02*
X123302967Y-40150645D01*
X123302967Y-40150645D02*
X123144537Y-39991964D01*
X123144537Y-39991964D02*
X123126088Y-39970858D01*
X123126088Y-39970858D02*
X122981078Y-39783270D01*
X122981078Y-39783270D02*
X122855763Y-39581651D01*
X122855763Y-39581651D02*
X122751861Y-39369873D01*
X122751861Y-39369873D02*
X122671093Y-39151808D01*
X122671093Y-39151808D02*
X122615176Y-38931326D01*
X122615176Y-38931326D02*
X122590365Y-38764583D01*
X122590365Y-38764583D02*
X122580658Y-38669333D01*
X122580658Y-38669333D02*
X123078445Y-38669333D01*
X123078445Y-38669333D02*
X123078445Y-38344778D01*
X123078445Y-38344778D02*
X122580658Y-38344778D01*
X122580658Y-38344778D02*
X122590365Y-38249528D01*
X122590365Y-38249528D02*
X122626251Y-38029798D01*
X122626251Y-38029798D02*
X122688295Y-37809544D01*
X122688295Y-37809544D02*
X122774778Y-37592636D01*
X122774778Y-37592636D02*
X122883982Y-37382946D01*
X122883982Y-37382946D02*
X123014186Y-37184345D01*
X123014186Y-37184345D02*
X123126088Y-37043253D01*
X123126088Y-37043253D02*
X123281669Y-36882797D01*
X123281669Y-36882797D02*
X123457937Y-36737253D01*
X123457937Y-36737253D02*
X123650841Y-36608743D01*
X123650841Y-36608743D02*
X123856331Y-36499391D01*
X123856331Y-36499391D02*
X124070357Y-36411319D01*
X124070357Y-36411319D02*
X124288869Y-36346651D01*
X124288869Y-36346651D02*
X124507818Y-36307509D01*
X124507818Y-36307509D02*
X124535417Y-36304476D01*
X124535417Y-36304476D02*
X124630667Y-36294769D01*
X124630667Y-36294769D02*
X124630667Y-37709778D01*
X124630667Y-37709778D02*
X124955222Y-37709778D01*
X124955222Y-37709778D02*
X124955222Y-36294769D01*
X124955222Y-36294769D02*
X125050472Y-36304476D01*
X125050472Y-36304476D02*
X125269187Y-36340228D01*
X125269187Y-36340228D02*
X125487979Y-36401776D01*
X125487979Y-36401776D02*
X125702798Y-36486997D01*
X125702798Y-36486997D02*
X125909595Y-36593767D01*
X125909595Y-36593767D02*
X126104320Y-36719965D01*
X126104320Y-36719965D02*
X126282922Y-36863466D01*
X126282922Y-36863466D02*
X126441352Y-37022147D01*
X126441352Y-37022147D02*
X126459801Y-37043253D01*
X126459801Y-37043253D02*
X126604811Y-37230841D01*
X126604811Y-37230841D02*
X126730126Y-37432460D01*
X126730126Y-37432460D02*
X126834028Y-37644238D01*
X126834028Y-37644238D02*
X126914796Y-37862303D01*
X126914796Y-37862303D02*
X126970713Y-38082784D01*
X126970713Y-38082784D02*
X126995524Y-38249528D01*
X126995524Y-38249528D02*
X127005231Y-38344778D01*
X127005231Y-38344778D02*
X127343898Y-38344778D01*
X127343898Y-38344778D02*
X127334212Y-38250241D01*
X127334212Y-38250241D02*
X127293539Y-37991151D01*
X127293539Y-37991151D02*
X127224972Y-37735840D01*
X127224972Y-37735840D02*
X127128460Y-37484132D01*
X127128460Y-37484132D02*
X127071950Y-37364055D01*
X127071950Y-37364055D02*
X126996349Y-37221437D01*
X126996349Y-37221437D02*
X126918738Y-37094577D01*
X126918738Y-37094577D02*
X126833871Y-36976298D01*
X126833871Y-36976298D02*
X126736508Y-36859420D01*
X126736508Y-36859420D02*
X126621403Y-36736765D01*
X126621403Y-36736765D02*
X126592443Y-36707557D01*
X126592443Y-36707557D02*
X126467492Y-36587725D01*
X126467492Y-36587725D02*
X126349938Y-36486817D01*
X126349938Y-36486817D02*
X126232602Y-36399589D01*
X126232602Y-36399589D02*
X126108306Y-36320798D01*
X126108306Y-36320798D02*
X125969870Y-36245202D01*
X125969870Y-36245202D02*
X125935945Y-36228050D01*
X125935945Y-36228050D02*
X125685908Y-36118050D01*
X125685908Y-36118050D02*
X125432356Y-36036021D01*
X125432356Y-36036021D02*
X125175109Y-35981912D01*
X125175109Y-35981912D02*
X125049759Y-35965788D01*
X125049759Y-35965788D02*
X124955222Y-35956102D01*
X124955222Y-35956102D02*
X124955222Y-35663667D01*
X124955222Y-35663667D02*
X124630667Y-35663667D01*
X124630667Y-35663667D02*
X124630667Y-35956102D01*
X124630667Y-35956102D02*
X124630667Y-35956102D01*
G36*
X127636333Y-38669333D02*
G01*
X127343898Y-38669333D01*
X127334212Y-38763869D01*
X127318088Y-38889220D01*
X127263979Y-39146466D01*
X127181950Y-39400019D01*
X127071950Y-39650055D01*
X127054798Y-39683980D01*
X126979202Y-39822416D01*
X126900411Y-39946713D01*
X126813183Y-40064049D01*
X126712275Y-40181603D01*
X126592443Y-40306554D01*
X126563235Y-40335514D01*
X126440580Y-40450619D01*
X126323702Y-40547982D01*
X126205423Y-40632848D01*
X126078563Y-40710460D01*
X125935945Y-40786061D01*
X125815868Y-40842570D01*
X125564160Y-40939083D01*
X125308849Y-41007649D01*
X125049759Y-41048323D01*
X124955222Y-41058008D01*
X124955222Y-41350444D01*
X124630667Y-41350444D01*
X124630667Y-41058008D01*
X124536131Y-41048323D01*
X124410780Y-41032199D01*
X124153534Y-40978089D01*
X123899981Y-40896061D01*
X123649945Y-40786061D01*
X123616020Y-40768909D01*
X123477584Y-40693312D01*
X123353287Y-40614522D01*
X123235951Y-40527294D01*
X123118397Y-40426386D01*
X122993446Y-40306554D01*
X122964486Y-40277345D01*
X122849381Y-40154691D01*
X122752018Y-40037813D01*
X122667152Y-39919534D01*
X122589540Y-39792674D01*
X122513939Y-39650055D01*
X122451764Y-39517208D01*
X122358523Y-39271033D01*
X122292341Y-39021009D01*
X122252465Y-38764583D01*
X122242601Y-38669333D01*
X122580658Y-38669333D01*
X122590365Y-38764583D01*
X122615176Y-38931326D01*
X122671093Y-39151808D01*
X122751861Y-39369873D01*
X122855763Y-39581651D01*
X122981078Y-39783270D01*
X123126088Y-39970858D01*
X123144537Y-39991964D01*
X123302967Y-40150645D01*
X123481569Y-40294146D01*
X123676294Y-40420343D01*
X123883091Y-40527114D01*
X124097910Y-40612335D01*
X124316702Y-40673883D01*
X124535417Y-40709635D01*
X124630667Y-40719342D01*
X124630667Y-40221555D01*
X124955222Y-40221555D01*
X124955222Y-40715444D01*
X125008139Y-40713523D01*
X125018287Y-40713125D01*
X125048682Y-40711303D01*
X125079620Y-40707910D01*
X125117880Y-40701925D01*
X125170237Y-40692329D01*
X125243468Y-40678102D01*
X125312554Y-40663106D01*
X125526165Y-40599390D01*
X125737055Y-40511383D01*
X125940543Y-40401804D01*
X126131950Y-40273377D01*
X126306596Y-40128821D01*
X126459801Y-39970858D01*
X126571704Y-39829766D01*
X126701907Y-39631165D01*
X126811111Y-39421475D01*
X126897594Y-39204567D01*
X126959639Y-38984313D01*
X126995524Y-38764583D01*
X127005231Y-38669333D01*
X125590222Y-38669333D01*
X125590222Y-38344778D01*
X127005231Y-38344778D01*
X126995524Y-38249528D01*
X126970713Y-38082784D01*
X126914796Y-37862303D01*
X126834028Y-37644238D01*
X126730126Y-37432460D01*
X126604811Y-37230841D01*
X126459801Y-37043253D01*
X126441352Y-37022147D01*
X126282922Y-36863466D01*
X126104320Y-36719965D01*
X125909595Y-36593767D01*
X125702798Y-36486997D01*
X125487979Y-36401776D01*
X125269187Y-36340228D01*
X125050472Y-36304476D01*
X124955222Y-36294769D01*
X124955222Y-37709778D01*
X124630667Y-37709778D01*
X124630667Y-36294769D01*
X124535417Y-36304476D01*
X124507818Y-36307509D01*
X124288869Y-36346651D01*
X124070357Y-36411319D01*
X123856331Y-36499391D01*
X123650841Y-36608743D01*
X123457937Y-36737253D01*
X123281669Y-36882797D01*
X123126088Y-37043253D01*
X123014186Y-37184345D01*
X122883982Y-37382946D01*
X122774778Y-37592636D01*
X122688295Y-37809544D01*
X122626251Y-38029798D01*
X122590365Y-38249528D01*
X122580658Y-38344778D01*
X123078445Y-38344778D01*
X123078445Y-38669333D01*
X122580658Y-38669333D01*
X122242601Y-38669333D01*
X121949556Y-38669333D01*
X121949556Y-38344778D01*
X122241992Y-38344778D01*
X122251677Y-38250241D01*
X122267801Y-38124891D01*
X122321911Y-37867644D01*
X122403939Y-37614092D01*
X122513939Y-37364055D01*
X122531091Y-37330130D01*
X122606688Y-37191694D01*
X122685478Y-37067398D01*
X122772706Y-36950062D01*
X122873614Y-36832508D01*
X122993446Y-36707557D01*
X123022655Y-36678597D01*
X123145309Y-36563492D01*
X123262187Y-36466129D01*
X123380466Y-36381262D01*
X123507326Y-36303651D01*
X123649945Y-36228050D01*
X123770021Y-36171540D01*
X124021730Y-36075028D01*
X124277040Y-36006461D01*
X124536131Y-35965788D01*
X124630667Y-35956102D01*
X124630667Y-35663667D01*
X124955222Y-35663667D01*
X124955222Y-35956102D01*
X125049759Y-35965788D01*
X125175109Y-35981912D01*
X125432356Y-36036021D01*
X125685908Y-36118050D01*
X125935945Y-36228050D01*
X125969870Y-36245202D01*
X126108306Y-36320798D01*
X126232602Y-36399589D01*
X126349938Y-36486817D01*
X126467492Y-36587725D01*
X126592443Y-36707557D01*
X126621403Y-36736765D01*
X126736508Y-36859420D01*
X126833871Y-36976298D01*
X126918738Y-37094577D01*
X126996349Y-37221437D01*
X127071950Y-37364055D01*
X127128460Y-37484132D01*
X127224972Y-37735840D01*
X127293539Y-37991151D01*
X127334212Y-38250241D01*
X127343898Y-38344778D01*
X127636333Y-38344778D01*
X127636333Y-38669333D01*
G37*
X127636333Y-38669333D02*
X127343898Y-38669333D01*
X127334212Y-38763869D01*
X127318088Y-38889220D01*
X127263979Y-39146466D01*
X127181950Y-39400019D01*
X127071950Y-39650055D01*
X127054798Y-39683980D01*
X126979202Y-39822416D01*
X126900411Y-39946713D01*
X126813183Y-40064049D01*
X126712275Y-40181603D01*
X126592443Y-40306554D01*
X126563235Y-40335514D01*
X126440580Y-40450619D01*
X126323702Y-40547982D01*
X126205423Y-40632848D01*
X126078563Y-40710460D01*
X125935945Y-40786061D01*
X125815868Y-40842570D01*
X125564160Y-40939083D01*
X125308849Y-41007649D01*
X125049759Y-41048323D01*
X124955222Y-41058008D01*
X124955222Y-41350444D01*
X124630667Y-41350444D01*
X124630667Y-41058008D01*
X124536131Y-41048323D01*
X124410780Y-41032199D01*
X124153534Y-40978089D01*
X123899981Y-40896061D01*
X123649945Y-40786061D01*
X123616020Y-40768909D01*
X123477584Y-40693312D01*
X123353287Y-40614522D01*
X123235951Y-40527294D01*
X123118397Y-40426386D01*
X122993446Y-40306554D01*
X122964486Y-40277345D01*
X122849381Y-40154691D01*
X122752018Y-40037813D01*
X122667152Y-39919534D01*
X122589540Y-39792674D01*
X122513939Y-39650055D01*
X122451764Y-39517208D01*
X122358523Y-39271033D01*
X122292341Y-39021009D01*
X122252465Y-38764583D01*
X122242601Y-38669333D01*
X122580658Y-38669333D01*
X122590365Y-38764583D01*
X122615176Y-38931326D01*
X122671093Y-39151808D01*
X122751861Y-39369873D01*
X122855763Y-39581651D01*
X122981078Y-39783270D01*
X123126088Y-39970858D01*
X123144537Y-39991964D01*
X123302967Y-40150645D01*
X123481569Y-40294146D01*
X123676294Y-40420343D01*
X123883091Y-40527114D01*
X124097910Y-40612335D01*
X124316702Y-40673883D01*
X124535417Y-40709635D01*
X124630667Y-40719342D01*
X124630667Y-40221555D01*
X124955222Y-40221555D01*
X124955222Y-40715444D01*
X125008139Y-40713523D01*
X125018287Y-40713125D01*
X125048682Y-40711303D01*
X125079620Y-40707910D01*
X125117880Y-40701925D01*
X125170237Y-40692329D01*
X125243468Y-40678102D01*
X125312554Y-40663106D01*
X125526165Y-40599390D01*
X125737055Y-40511383D01*
X125940543Y-40401804D01*
X126131950Y-40273377D01*
X126306596Y-40128821D01*
X126459801Y-39970858D01*
X126571704Y-39829766D01*
X126701907Y-39631165D01*
X126811111Y-39421475D01*
X126897594Y-39204567D01*
X126959639Y-38984313D01*
X126995524Y-38764583D01*
X127005231Y-38669333D01*
X125590222Y-38669333D01*
X125590222Y-38344778D01*
X127005231Y-38344778D01*
X126995524Y-38249528D01*
X126970713Y-38082784D01*
X126914796Y-37862303D01*
X126834028Y-37644238D01*
X126730126Y-37432460D01*
X126604811Y-37230841D01*
X126459801Y-37043253D01*
X126441352Y-37022147D01*
X126282922Y-36863466D01*
X126104320Y-36719965D01*
X125909595Y-36593767D01*
X125702798Y-36486997D01*
X125487979Y-36401776D01*
X125269187Y-36340228D01*
X125050472Y-36304476D01*
X124955222Y-36294769D01*
X124955222Y-37709778D01*
X124630667Y-37709778D01*
X124630667Y-36294769D01*
X124535417Y-36304476D01*
X124507818Y-36307509D01*
X124288869Y-36346651D01*
X124070357Y-36411319D01*
X123856331Y-36499391D01*
X123650841Y-36608743D01*
X123457937Y-36737253D01*
X123281669Y-36882797D01*
X123126088Y-37043253D01*
X123014186Y-37184345D01*
X122883982Y-37382946D01*
X122774778Y-37592636D01*
X122688295Y-37809544D01*
X122626251Y-38029798D01*
X122590365Y-38249528D01*
X122580658Y-38344778D01*
X123078445Y-38344778D01*
X123078445Y-38669333D01*
X122580658Y-38669333D01*
X122242601Y-38669333D01*
X121949556Y-38669333D01*
X121949556Y-38344778D01*
X122241992Y-38344778D01*
X122251677Y-38250241D01*
X122267801Y-38124891D01*
X122321911Y-37867644D01*
X122403939Y-37614092D01*
X122513939Y-37364055D01*
X122531091Y-37330130D01*
X122606688Y-37191694D01*
X122685478Y-37067398D01*
X122772706Y-36950062D01*
X122873614Y-36832508D01*
X122993446Y-36707557D01*
X123022655Y-36678597D01*
X123145309Y-36563492D01*
X123262187Y-36466129D01*
X123380466Y-36381262D01*
X123507326Y-36303651D01*
X123649945Y-36228050D01*
X123770021Y-36171540D01*
X124021730Y-36075028D01*
X124277040Y-36006461D01*
X124536131Y-35965788D01*
X124630667Y-35956102D01*
X124630667Y-35663667D01*
X124955222Y-35663667D01*
X124955222Y-35956102D01*
X125049759Y-35965788D01*
X125175109Y-35981912D01*
X125432356Y-36036021D01*
X125685908Y-36118050D01*
X125935945Y-36228050D01*
X125969870Y-36245202D01*
X126108306Y-36320798D01*
X126232602Y-36399589D01*
X126349938Y-36486817D01*
X126467492Y-36587725D01*
X126592443Y-36707557D01*
X126621403Y-36736765D01*
X126736508Y-36859420D01*
X126833871Y-36976298D01*
X126918738Y-37094577D01*
X126996349Y-37221437D01*
X127071950Y-37364055D01*
X127128460Y-37484132D01*
X127224972Y-37735840D01*
X127293539Y-37991151D01*
X127334212Y-38250241D01*
X127343898Y-38344778D01*
X127636333Y-38344778D01*
X127636333Y-38669333D01*
D11*
X115700000Y-117000000D03*
D12*
X113160000Y-117000000D03*
X110620000Y-117000000D03*
X108080000Y-117000000D03*
X105540000Y-117000000D03*
X103000000Y-117000000D03*
D13*
X95460000Y-89350000D03*
X95460000Y-93250000D03*
X96730000Y-89350000D03*
X96730000Y-93250000D03*
X98000000Y-89350000D03*
X98000000Y-93250000D03*
X99270000Y-89350000D03*
X99270000Y-93250000D03*
X100540000Y-89350000D03*
X100540000Y-93250000D03*
M02*
