M48
INCH,TZ
T1C0.0118
T2C0.0157
T3C0.0394
%
G90
G05
T1
X33110Y-17913
X35000Y-16024
X35276Y-15748
X36220Y-29252
X36220Y-29646
X36220Y-30000
X36220Y-30394
X36220Y-30748
X36260Y-31339
X36339Y-27638
X36339Y-28465
X36772Y-31457
X37165Y-13858
X37598Y-36063
X37638Y-32717
X37894Y-30315
X37913Y-30945
X37992Y-29646
X37992Y-30000
X37992Y-30630
X38031Y-29252
X38031Y-32717
X38031Y-42756
X38031Y-43071
X38031Y-43386
X38031Y-43701
X38071Y-36063
X38071Y-39843
X38071Y-40157
X38071Y-40472
X38071Y-40787
X38110Y-28583
X38346Y-34370
X38425Y-32717
X38622Y-27598
X38858Y-28780
X38976Y-27717
X39154Y-41378
X39606Y-36063
X39646Y-25630
X39646Y-32244
X39724Y-27795
X39803Y-30610
X39882Y-13504
X39882Y-32480
X40055Y-27795
X40059Y-35118
X40197Y-32480
X40197Y-42244
X40197Y-42598
X40512Y-32480
X40591Y-42244
X40591Y-42598
X40714Y-27913
X40827Y-32480
X40984Y-29882
X41337Y-29346
X41535Y-25630
X41772Y-13504
X41772Y-42736
X41890Y-31575
X41969Y-42126
X42205Y-28110
X42205Y-28701
X42224Y-42736
X42343Y-31457
X42362Y-29547
X42382Y-29154
X42480Y-31048
X42520Y-30241
X42598Y-25866
X42697Y-32244
X42716Y-30832
X42717Y-27598
X42741Y-30026
X42756Y-26850
X43543Y-27441
X43799Y-28543
X43898Y-13504
X43898Y-37362
X43898Y-37776
X44193Y-27402
X44193Y-37579
X44252Y-34469
X44252Y-34823
X44252Y-35197
X44311Y-39331
X44311Y-39902
X44311Y-40531
X44311Y-41142
X44311Y-41811
X44311Y-43760
X44921Y-25512
X44921Y-39980
X45059Y-40295
X45157Y-37559
X45217Y-39980
X45374Y-40295
X45433Y-41004
X45433Y-41516
X45433Y-41850
X45433Y-42185
X45472Y-28819
X45492Y-35059
X45512Y-39980
X45531Y-37343
X45591Y-37717
X45709Y-13504
X45748Y-28150
X45768Y-34783
X45787Y-28819
X46043Y-34508
X46063Y-37913
X46181Y-28425
X46220Y-28819
X46516Y-40591
X46516Y-40965
X46752Y-28386
X46752Y-28721
X46752Y-29036
X47185Y-37815
X47323Y-27913
X47520Y-45866
X47539Y-37815
X47579Y-46614
X47638Y-13504
X47776Y-41969
X47795Y-26969
X47874Y-44449
X48031Y-44094
X48150Y-25827
X48150Y-26220
X48150Y-26535
X48307Y-43858
X48445Y-45807
X48524Y-40591
X48524Y-40965
X48622Y-44803
X48681Y-43957
X48760Y-39823
X48780Y-38327
X48898Y-46161
X48917Y-44390
X49114Y-37835
X49331Y-26142
X49331Y-26614
X49331Y-27087
X49409Y-37421
X49567Y-13465
X49843Y-40217
X49843Y-40551
X50472Y-25630
X50472Y-25945
X50472Y-27323
X50669Y-41417
X50709Y-27106
X50925Y-42283
X51398Y-42539
X51535Y-13465
X51535Y-41339
X51831Y-41575
T2
X40182Y-30103
X40182Y-30537
X40615Y-30103
X40615Y-30537
T3
X40551Y-46063
X41551Y-46063
X42551Y-46063
X43551Y-46063
X44551Y-46063
X45551Y-46063
T0
M30
