G04 #@! TF.GenerationSoftware,KiCad,Pcbnew,(6.0.1-0)*
G04 #@! TF.CreationDate,2022-10-06T15:49:35-04:00*
G04 #@! TF.ProjectId,mobo,6d6f626f-2e6b-4696-9361-645f70636258,rev?*
G04 #@! TF.SameCoordinates,Original*
G04 #@! TF.FileFunction,Legend,Top*
G04 #@! TF.FilePolarity,Positive*
%FSLAX46Y46*%
G04 Gerber Fmt 4.6, Leading zero omitted, Abs format (unit mm)*
G04 Created by KiCad (PCBNEW (6.0.1-0)) date 2022-10-06 15:49:35*
%MOMM*%
%LPD*%
G01*
G04 APERTURE LIST*
%ADD10C,0.200000*%
%ADD11C,0.120000*%
%ADD12C,0.300000*%
%ADD13C,0.100000*%
%ADD14C,0.150000*%
G04 APERTURE END LIST*
D10*
X127221428Y-38142857D02*
X127173809Y-38285714D01*
X127126190Y-38333333D01*
X127030952Y-38380952D01*
X126888095Y-38380952D01*
X126792857Y-38333333D01*
X126745238Y-38285714D01*
X126697619Y-38190476D01*
X126697619Y-37809523D01*
X127697619Y-37809523D01*
X127697619Y-38142857D01*
X127650000Y-38238095D01*
X127602380Y-38285714D01*
X127507142Y-38333333D01*
X127411904Y-38333333D01*
X127316666Y-38285714D01*
X127269047Y-38238095D01*
X127221428Y-38142857D01*
X127221428Y-37809523D01*
X127697619Y-39000000D02*
X127697619Y-39190476D01*
X127650000Y-39285714D01*
X127554761Y-39380952D01*
X127364285Y-39428571D01*
X127030952Y-39428571D01*
X126840476Y-39380952D01*
X126745238Y-39285714D01*
X126697619Y-39190476D01*
X126697619Y-39000000D01*
X126745238Y-38904761D01*
X126840476Y-38809523D01*
X127030952Y-38761904D01*
X127364285Y-38761904D01*
X127554761Y-38809523D01*
X127650000Y-38904761D01*
X127697619Y-39000000D01*
X127697619Y-40047619D02*
X127697619Y-40238095D01*
X127650000Y-40333333D01*
X127554761Y-40428571D01*
X127364285Y-40476190D01*
X127030952Y-40476190D01*
X126840476Y-40428571D01*
X126745238Y-40333333D01*
X126697619Y-40238095D01*
X126697619Y-40047619D01*
X126745238Y-39952380D01*
X126840476Y-39857142D01*
X127030952Y-39809523D01*
X127364285Y-39809523D01*
X127554761Y-39857142D01*
X127650000Y-39952380D01*
X127697619Y-40047619D01*
X127697619Y-40761904D02*
X127697619Y-41333333D01*
X126697619Y-41047619D02*
X127697619Y-41047619D01*
D11*
X94300000Y-96000000D02*
X131600000Y-96000000D01*
X96600000Y-104100000D02*
X97250000Y-104600000D01*
X124300000Y-63000000D02*
G75*
G03*
X126800000Y-60500000I0J2500000D01*
G01*
X131200000Y-99000000D02*
X131600000Y-99000000D01*
X127700000Y-73500000D02*
X120300000Y-73500000D01*
X97800000Y-63000000D02*
X97800000Y-65000000D01*
X127700000Y-60500000D02*
X126800000Y-60500000D01*
X95300000Y-67500000D02*
G75*
G03*
X97800000Y-65000000I0J2500000D01*
G01*
X92300000Y-82000000D02*
X92300000Y-67500000D01*
X94300000Y-116000000D02*
X94300000Y-96000000D01*
X104300000Y-96000000D02*
X112300000Y-96000000D01*
X95300000Y-67500000D02*
X92300000Y-67500000D01*
X120300000Y-82000000D02*
X92300000Y-82000000D01*
X124300000Y-63000000D02*
X97800000Y-63000000D01*
X120300000Y-82000000D02*
X120300000Y-73500000D01*
X131300000Y-79000000D02*
X131600000Y-79000000D01*
D12*
X95652142Y-86777857D02*
X95152142Y-86777857D01*
X95152142Y-87563571D02*
X95152142Y-86063571D01*
X95866428Y-86063571D01*
X97009285Y-87492142D02*
X96866428Y-87563571D01*
X96580714Y-87563571D01*
X96437857Y-87492142D01*
X96366428Y-87349285D01*
X96366428Y-86777857D01*
X96437857Y-86635000D01*
X96580714Y-86563571D01*
X96866428Y-86563571D01*
X97009285Y-86635000D01*
X97080714Y-86777857D01*
X97080714Y-86920714D01*
X96366428Y-87063571D01*
X98295000Y-87492142D02*
X98152142Y-87563571D01*
X97866428Y-87563571D01*
X97723571Y-87492142D01*
X97652142Y-87349285D01*
X97652142Y-86777857D01*
X97723571Y-86635000D01*
X97866428Y-86563571D01*
X98152142Y-86563571D01*
X98295000Y-86635000D01*
X98366428Y-86777857D01*
X98366428Y-86920714D01*
X97652142Y-87063571D01*
X99652142Y-87563571D02*
X99652142Y-86063571D01*
X99652142Y-87492142D02*
X99509285Y-87563571D01*
X99223571Y-87563571D01*
X99080714Y-87492142D01*
X99009285Y-87420714D01*
X98937857Y-87277857D01*
X98937857Y-86849285D01*
X99009285Y-86706428D01*
X99080714Y-86635000D01*
X99223571Y-86563571D01*
X99509285Y-86563571D01*
X99652142Y-86635000D01*
X100937857Y-87492142D02*
X100795000Y-87563571D01*
X100509285Y-87563571D01*
X100366428Y-87492142D01*
X100295000Y-87349285D01*
X100295000Y-86777857D01*
X100366428Y-86635000D01*
X100509285Y-86563571D01*
X100795000Y-86563571D01*
X100937857Y-86635000D01*
X101009285Y-86777857D01*
X101009285Y-86920714D01*
X100295000Y-87063571D01*
X101652142Y-87563571D02*
X101652142Y-86563571D01*
X101652142Y-86849285D02*
X101723571Y-86706428D01*
X101795000Y-86635000D01*
X101937857Y-86563571D01*
X102080714Y-86563571D01*
X104580714Y-87420714D02*
X104509285Y-87492142D01*
X104295000Y-87563571D01*
X104152142Y-87563571D01*
X103937857Y-87492142D01*
X103795000Y-87349285D01*
X103723571Y-87206428D01*
X103652142Y-86920714D01*
X103652142Y-86706428D01*
X103723571Y-86420714D01*
X103795000Y-86277857D01*
X103937857Y-86135000D01*
X104152142Y-86063571D01*
X104295000Y-86063571D01*
X104509285Y-86135000D01*
X104580714Y-86206428D01*
X105437857Y-87563571D02*
X105295000Y-87492142D01*
X105223571Y-87420714D01*
X105152142Y-87277857D01*
X105152142Y-86849285D01*
X105223571Y-86706428D01*
X105295000Y-86635000D01*
X105437857Y-86563571D01*
X105652142Y-86563571D01*
X105795000Y-86635000D01*
X105866428Y-86706428D01*
X105937857Y-86849285D01*
X105937857Y-87277857D01*
X105866428Y-87420714D01*
X105795000Y-87492142D01*
X105652142Y-87563571D01*
X105437857Y-87563571D01*
X106580714Y-86563571D02*
X106580714Y-87563571D01*
X106580714Y-86706428D02*
X106652142Y-86635000D01*
X106795000Y-86563571D01*
X107009285Y-86563571D01*
X107152142Y-86635000D01*
X107223571Y-86777857D01*
X107223571Y-87563571D01*
X107723571Y-86563571D02*
X108295000Y-86563571D01*
X107937857Y-86063571D02*
X107937857Y-87349285D01*
X108009285Y-87492142D01*
X108152142Y-87563571D01*
X108295000Y-87563571D01*
X108795000Y-87563571D02*
X108795000Y-86563571D01*
X108795000Y-86849285D02*
X108866428Y-86706428D01*
X108937857Y-86635000D01*
X109080714Y-86563571D01*
X109223571Y-86563571D01*
X109937857Y-87563571D02*
X109795000Y-87492142D01*
X109723571Y-87420714D01*
X109652142Y-87277857D01*
X109652142Y-86849285D01*
X109723571Y-86706428D01*
X109795000Y-86635000D01*
X109937857Y-86563571D01*
X110152142Y-86563571D01*
X110295000Y-86635000D01*
X110366428Y-86706428D01*
X110437857Y-86849285D01*
X110437857Y-87277857D01*
X110366428Y-87420714D01*
X110295000Y-87492142D01*
X110152142Y-87563571D01*
X109937857Y-87563571D01*
X111295000Y-87563571D02*
X111152142Y-87492142D01*
X111080714Y-87349285D01*
X111080714Y-86063571D01*
X112080714Y-87563571D02*
X111937857Y-87492142D01*
X111866428Y-87349285D01*
X111866428Y-86063571D01*
X113223571Y-87492142D02*
X113080714Y-87563571D01*
X112795000Y-87563571D01*
X112652142Y-87492142D01*
X112580714Y-87349285D01*
X112580714Y-86777857D01*
X112652142Y-86635000D01*
X112795000Y-86563571D01*
X113080714Y-86563571D01*
X113223571Y-86635000D01*
X113295000Y-86777857D01*
X113295000Y-86920714D01*
X112580714Y-87063571D01*
X113937857Y-87563571D02*
X113937857Y-86563571D01*
X113937857Y-86849285D02*
X114009285Y-86706428D01*
X114080714Y-86635000D01*
X114223571Y-86563571D01*
X114366428Y-86563571D01*
X96009285Y-89978571D02*
X95509285Y-89264285D01*
X95152142Y-89978571D02*
X95152142Y-88478571D01*
X95723571Y-88478571D01*
X95866428Y-88550000D01*
X95937857Y-88621428D01*
X96009285Y-88764285D01*
X96009285Y-88978571D01*
X95937857Y-89121428D01*
X95866428Y-89192857D01*
X95723571Y-89264285D01*
X95152142Y-89264285D01*
X96652142Y-89192857D02*
X97152142Y-89192857D01*
X97366428Y-89978571D02*
X96652142Y-89978571D01*
X96652142Y-88478571D01*
X97366428Y-88478571D01*
X97795000Y-88478571D02*
X98295000Y-89978571D01*
X98795000Y-88478571D01*
X99580714Y-88478571D02*
X99723571Y-88478571D01*
X99866428Y-88550000D01*
X99937857Y-88621428D01*
X100009285Y-88764285D01*
X100080714Y-89050000D01*
X100080714Y-89407142D01*
X100009285Y-89692857D01*
X99937857Y-89835714D01*
X99866428Y-89907142D01*
X99723571Y-89978571D01*
X99580714Y-89978571D01*
X99437857Y-89907142D01*
X99366428Y-89835714D01*
X99295000Y-89692857D01*
X99223571Y-89407142D01*
X99223571Y-89050000D01*
X99295000Y-88764285D01*
X99366428Y-88621428D01*
X99437857Y-88550000D01*
X99580714Y-88478571D01*
X100937857Y-89121428D02*
X100795000Y-89050000D01*
X100723571Y-88978571D01*
X100652142Y-88835714D01*
X100652142Y-88764285D01*
X100723571Y-88621428D01*
X100795000Y-88550000D01*
X100937857Y-88478571D01*
X101223571Y-88478571D01*
X101366428Y-88550000D01*
X101437857Y-88621428D01*
X101509285Y-88764285D01*
X101509285Y-88835714D01*
X101437857Y-88978571D01*
X101366428Y-89050000D01*
X101223571Y-89121428D01*
X100937857Y-89121428D01*
X100795000Y-89192857D01*
X100723571Y-89264285D01*
X100652142Y-89407142D01*
X100652142Y-89692857D01*
X100723571Y-89835714D01*
X100795000Y-89907142D01*
X100937857Y-89978571D01*
X101223571Y-89978571D01*
X101366428Y-89907142D01*
X101437857Y-89835714D01*
X101509285Y-89692857D01*
X101509285Y-89407142D01*
X101437857Y-89264285D01*
X101366428Y-89192857D01*
X101223571Y-89121428D01*
X95437857Y-90893571D02*
X95723571Y-90893571D01*
X95866428Y-90965000D01*
X96009285Y-91107857D01*
X96080714Y-91393571D01*
X96080714Y-91893571D01*
X96009285Y-92179285D01*
X95866428Y-92322142D01*
X95723571Y-92393571D01*
X95437857Y-92393571D01*
X95295000Y-92322142D01*
X95152142Y-92179285D01*
X95080714Y-91893571D01*
X95080714Y-91393571D01*
X95152142Y-91107857D01*
X95295000Y-90965000D01*
X95437857Y-90893571D01*
X96723571Y-91393571D02*
X96723571Y-92893571D01*
X96723571Y-91465000D02*
X96866428Y-91393571D01*
X97152142Y-91393571D01*
X97295000Y-91465000D01*
X97366428Y-91536428D01*
X97437857Y-91679285D01*
X97437857Y-92107857D01*
X97366428Y-92250714D01*
X97295000Y-92322142D01*
X97152142Y-92393571D01*
X96866428Y-92393571D01*
X96723571Y-92322142D01*
X98723571Y-91393571D02*
X98723571Y-92393571D01*
X98080714Y-91393571D02*
X98080714Y-92179285D01*
X98152142Y-92322142D01*
X98295000Y-92393571D01*
X98509285Y-92393571D01*
X98652142Y-92322142D01*
X98723571Y-92250714D01*
X99652142Y-92393571D02*
X99509285Y-92322142D01*
X99437857Y-92179285D01*
X99437857Y-90893571D01*
X100437857Y-92393571D02*
X100295000Y-92322142D01*
X100223571Y-92250714D01*
X100152142Y-92107857D01*
X100152142Y-91679285D01*
X100223571Y-91536428D01*
X100295000Y-91465000D01*
X100437857Y-91393571D01*
X100652142Y-91393571D01*
X100795000Y-91465000D01*
X100866428Y-91536428D01*
X100937857Y-91679285D01*
X100937857Y-92107857D01*
X100866428Y-92250714D01*
X100795000Y-92322142D01*
X100652142Y-92393571D01*
X100437857Y-92393571D01*
X102723571Y-92393571D02*
X102723571Y-90893571D01*
X103437857Y-91393571D02*
X103437857Y-92393571D01*
X103437857Y-91536428D02*
X103509285Y-91465000D01*
X103652142Y-91393571D01*
X103866428Y-91393571D01*
X104009285Y-91465000D01*
X104080714Y-91607857D01*
X104080714Y-92393571D01*
X105437857Y-92322142D02*
X105295000Y-92393571D01*
X105009285Y-92393571D01*
X104866428Y-92322142D01*
X104795000Y-92250714D01*
X104723571Y-92107857D01*
X104723571Y-91679285D01*
X104795000Y-91536428D01*
X104866428Y-91465000D01*
X105009285Y-91393571D01*
X105295000Y-91393571D01*
X105437857Y-91465000D01*
X106080714Y-92250714D02*
X106152142Y-92322142D01*
X106080714Y-92393571D01*
X106009285Y-92322142D01*
X106080714Y-92250714D01*
X106080714Y-92393571D01*
D13*
X116533333Y-114926190D02*
X116533333Y-115283333D01*
X116509523Y-115354761D01*
X116461904Y-115402380D01*
X116390476Y-115426190D01*
X116342857Y-115426190D01*
X116842857Y-115140476D02*
X116795238Y-115116666D01*
X116771428Y-115092857D01*
X116747619Y-115045238D01*
X116747619Y-115021428D01*
X116771428Y-114973809D01*
X116795238Y-114950000D01*
X116842857Y-114926190D01*
X116938095Y-114926190D01*
X116985714Y-114950000D01*
X117009523Y-114973809D01*
X117033333Y-115021428D01*
X117033333Y-115045238D01*
X117009523Y-115092857D01*
X116985714Y-115116666D01*
X116938095Y-115140476D01*
X116842857Y-115140476D01*
X116795238Y-115164285D01*
X116771428Y-115188095D01*
X116747619Y-115235714D01*
X116747619Y-115330952D01*
X116771428Y-115378571D01*
X116795238Y-115402380D01*
X116842857Y-115426190D01*
X116938095Y-115426190D01*
X116985714Y-115402380D01*
X117009523Y-115378571D01*
X117033333Y-115330952D01*
X117033333Y-115235714D01*
X117009523Y-115188095D01*
X116985714Y-115164285D01*
X116938095Y-115140476D01*
D14*
X115057142Y-65302380D02*
X114723809Y-64826190D01*
X114485714Y-65302380D02*
X114485714Y-64302380D01*
X114866666Y-64302380D01*
X114961904Y-64350000D01*
X115009523Y-64397619D01*
X115057142Y-64492857D01*
X115057142Y-64635714D01*
X115009523Y-64730952D01*
X114961904Y-64778571D01*
X114866666Y-64826190D01*
X114485714Y-64826190D01*
X116009523Y-65302380D02*
X115438095Y-65302380D01*
X115723809Y-65302380D02*
X115723809Y-64302380D01*
X115628571Y-64445238D01*
X115533333Y-64540476D01*
X115438095Y-64588095D01*
X116342857Y-64302380D02*
X117009523Y-64302380D01*
X116580952Y-65302380D01*
D13*
X130443809Y-39333333D02*
X130086666Y-39333333D01*
X130015238Y-39309523D01*
X129967619Y-39261904D01*
X129943809Y-39190476D01*
X129943809Y-39142857D01*
X130443809Y-39523809D02*
X130443809Y-39857142D01*
X129943809Y-39642857D01*
X118066666Y-35376190D02*
X117900000Y-35138095D01*
X117780952Y-35376190D02*
X117780952Y-34876190D01*
X117971428Y-34876190D01*
X118019047Y-34900000D01*
X118042857Y-34923809D01*
X118066666Y-34971428D01*
X118066666Y-35042857D01*
X118042857Y-35090476D01*
X118019047Y-35114285D01*
X117971428Y-35138095D01*
X117780952Y-35138095D01*
X118352380Y-35090476D02*
X118304761Y-35066666D01*
X118280952Y-35042857D01*
X118257142Y-34995238D01*
X118257142Y-34971428D01*
X118280952Y-34923809D01*
X118304761Y-34900000D01*
X118352380Y-34876190D01*
X118447619Y-34876190D01*
X118495238Y-34900000D01*
X118519047Y-34923809D01*
X118542857Y-34971428D01*
X118542857Y-34995238D01*
X118519047Y-35042857D01*
X118495238Y-35066666D01*
X118447619Y-35090476D01*
X118352380Y-35090476D01*
X118304761Y-35114285D01*
X118280952Y-35138095D01*
X118257142Y-35185714D01*
X118257142Y-35280952D01*
X118280952Y-35328571D01*
X118304761Y-35352380D01*
X118352380Y-35376190D01*
X118447619Y-35376190D01*
X118495238Y-35352380D01*
X118519047Y-35328571D01*
X118542857Y-35280952D01*
X118542857Y-35185714D01*
X118519047Y-35138095D01*
X118495238Y-35114285D01*
X118447619Y-35090476D01*
X95475000Y-108339285D02*
X95225000Y-107982142D01*
X95046428Y-108339285D02*
X95046428Y-107589285D01*
X95332142Y-107589285D01*
X95403571Y-107625000D01*
X95439285Y-107660714D01*
X95475000Y-107732142D01*
X95475000Y-107839285D01*
X95439285Y-107910714D01*
X95403571Y-107946428D01*
X95332142Y-107982142D01*
X95046428Y-107982142D01*
X95832142Y-108339285D02*
X95975000Y-108339285D01*
X96046428Y-108303571D01*
X96082142Y-108267857D01*
X96153571Y-108160714D01*
X96189285Y-108017857D01*
X96189285Y-107732142D01*
X96153571Y-107660714D01*
X96117857Y-107625000D01*
X96046428Y-107589285D01*
X95903571Y-107589285D01*
X95832142Y-107625000D01*
X95796428Y-107660714D01*
X95760714Y-107732142D01*
X95760714Y-107910714D01*
X95796428Y-107982142D01*
X95832142Y-108017857D01*
X95903571Y-108053571D01*
X96046428Y-108053571D01*
X96117857Y-108017857D01*
X96153571Y-107982142D01*
X96189285Y-107910714D01*
X110625000Y-95717857D02*
X110589285Y-95753571D01*
X110482142Y-95789285D01*
X110410714Y-95789285D01*
X110303571Y-95753571D01*
X110232142Y-95682142D01*
X110196428Y-95610714D01*
X110160714Y-95467857D01*
X110160714Y-95360714D01*
X110196428Y-95217857D01*
X110232142Y-95146428D01*
X110303571Y-95075000D01*
X110410714Y-95039285D01*
X110482142Y-95039285D01*
X110589285Y-95075000D01*
X110625000Y-95110714D01*
X110982142Y-95789285D02*
X111125000Y-95789285D01*
X111196428Y-95753571D01*
X111232142Y-95717857D01*
X111303571Y-95610714D01*
X111339285Y-95467857D01*
X111339285Y-95182142D01*
X111303571Y-95110714D01*
X111267857Y-95075000D01*
X111196428Y-95039285D01*
X111053571Y-95039285D01*
X110982142Y-95075000D01*
X110946428Y-95110714D01*
X110910714Y-95182142D01*
X110910714Y-95360714D01*
X110946428Y-95432142D01*
X110982142Y-95467857D01*
X111053571Y-95503571D01*
X111196428Y-95503571D01*
X111267857Y-95467857D01*
X111303571Y-95432142D01*
X111339285Y-95360714D01*
D14*
X90733333Y-70557142D02*
X90685714Y-70604761D01*
X90542857Y-70652380D01*
X90447619Y-70652380D01*
X90304761Y-70604761D01*
X90209523Y-70509523D01*
X90161904Y-70414285D01*
X90114285Y-70223809D01*
X90114285Y-70080952D01*
X90161904Y-69890476D01*
X90209523Y-69795238D01*
X90304761Y-69700000D01*
X90447619Y-69652380D01*
X90542857Y-69652380D01*
X90685714Y-69700000D01*
X90733333Y-69747619D01*
X91590476Y-69985714D02*
X91590476Y-70652380D01*
X91352380Y-69604761D02*
X91114285Y-70319047D01*
X91733333Y-70319047D01*
X121638095Y-64652380D02*
X121638095Y-65461904D01*
X121685714Y-65557142D01*
X121733333Y-65604761D01*
X121828571Y-65652380D01*
X122019047Y-65652380D01*
X122114285Y-65604761D01*
X122161904Y-65557142D01*
X122209523Y-65461904D01*
X122209523Y-64652380D01*
X122590476Y-64652380D02*
X123257142Y-64652380D01*
X122828571Y-65652380D01*
D13*
X122189285Y-105639285D02*
X122189285Y-104889285D01*
X122367857Y-104889285D01*
X122475000Y-104925000D01*
X122546428Y-104996428D01*
X122582142Y-105067857D01*
X122617857Y-105210714D01*
X122617857Y-105317857D01*
X122582142Y-105460714D01*
X122546428Y-105532142D01*
X122475000Y-105603571D01*
X122367857Y-105639285D01*
X122189285Y-105639285D01*
X123332142Y-105639285D02*
X122903571Y-105639285D01*
X123117857Y-105639285D02*
X123117857Y-104889285D01*
X123046428Y-104996428D01*
X122975000Y-105067857D01*
X122903571Y-105103571D01*
X123796428Y-104889285D02*
X123867857Y-104889285D01*
X123939285Y-104925000D01*
X123975000Y-104960714D01*
X124010714Y-105032142D01*
X124046428Y-105175000D01*
X124046428Y-105353571D01*
X124010714Y-105496428D01*
X123975000Y-105567857D01*
X123939285Y-105603571D01*
X123867857Y-105639285D01*
X123796428Y-105639285D01*
X123725000Y-105603571D01*
X123689285Y-105567857D01*
X123653571Y-105496428D01*
X123617857Y-105353571D01*
X123617857Y-105175000D01*
X123653571Y-105032142D01*
X123689285Y-104960714D01*
X123725000Y-104925000D01*
X123796428Y-104889285D01*
D14*
X115357142Y-67552380D02*
X115023809Y-67076190D01*
X114785714Y-67552380D02*
X114785714Y-66552380D01*
X115166666Y-66552380D01*
X115261904Y-66600000D01*
X115309523Y-66647619D01*
X115357142Y-66742857D01*
X115357142Y-66885714D01*
X115309523Y-66980952D01*
X115261904Y-67028571D01*
X115166666Y-67076190D01*
X114785714Y-67076190D01*
X116309523Y-67552380D02*
X115738095Y-67552380D01*
X116023809Y-67552380D02*
X116023809Y-66552380D01*
X115928571Y-66695238D01*
X115833333Y-66790476D01*
X115738095Y-66838095D01*
X116928571Y-66552380D02*
X117023809Y-66552380D01*
X117119047Y-66600000D01*
X117166666Y-66647619D01*
X117214285Y-66742857D01*
X117261904Y-66933333D01*
X117261904Y-67171428D01*
X117214285Y-67361904D01*
X117166666Y-67457142D01*
X117119047Y-67504761D01*
X117023809Y-67552380D01*
X116928571Y-67552380D01*
X116833333Y-67504761D01*
X116785714Y-67457142D01*
X116738095Y-67361904D01*
X116690476Y-67171428D01*
X116690476Y-66933333D01*
X116738095Y-66742857D01*
X116785714Y-66647619D01*
X116833333Y-66600000D01*
X116928571Y-66552380D01*
D13*
X118096428Y-95789285D02*
X118096428Y-95039285D01*
X118275000Y-95039285D01*
X118382142Y-95075000D01*
X118453571Y-95146428D01*
X118489285Y-95217857D01*
X118525000Y-95360714D01*
X118525000Y-95467857D01*
X118489285Y-95610714D01*
X118453571Y-95682142D01*
X118382142Y-95753571D01*
X118275000Y-95789285D01*
X118096428Y-95789285D01*
X118882142Y-95789285D02*
X119025000Y-95789285D01*
X119096428Y-95753571D01*
X119132142Y-95717857D01*
X119203571Y-95610714D01*
X119239285Y-95467857D01*
X119239285Y-95182142D01*
X119203571Y-95110714D01*
X119167857Y-95075000D01*
X119096428Y-95039285D01*
X118953571Y-95039285D01*
X118882142Y-95075000D01*
X118846428Y-95110714D01*
X118810714Y-95182142D01*
X118810714Y-95360714D01*
X118846428Y-95432142D01*
X118882142Y-95467857D01*
X118953571Y-95503571D01*
X119096428Y-95503571D01*
X119167857Y-95467857D01*
X119203571Y-95432142D01*
X119239285Y-95360714D01*
X105538692Y-80509168D02*
X105538692Y-80994882D01*
X105567263Y-81052025D01*
X105595835Y-81080597D01*
X105652977Y-81109168D01*
X105767263Y-81109168D01*
X105824406Y-81080597D01*
X105852977Y-81052025D01*
X105881549Y-80994882D01*
X105881549Y-80509168D01*
X106481549Y-81109168D02*
X106138692Y-81109168D01*
X106310120Y-81109168D02*
X106310120Y-80509168D01*
X106252977Y-80594882D01*
X106195835Y-80652025D01*
X106138692Y-80680597D01*
X103316666Y-35326190D02*
X103150000Y-35088095D01*
X103030952Y-35326190D02*
X103030952Y-34826190D01*
X103221428Y-34826190D01*
X103269047Y-34850000D01*
X103292857Y-34873809D01*
X103316666Y-34921428D01*
X103316666Y-34992857D01*
X103292857Y-35040476D01*
X103269047Y-35064285D01*
X103221428Y-35088095D01*
X103030952Y-35088095D01*
X103483333Y-34826190D02*
X103792857Y-34826190D01*
X103626190Y-35016666D01*
X103697619Y-35016666D01*
X103745238Y-35040476D01*
X103769047Y-35064285D01*
X103792857Y-35111904D01*
X103792857Y-35230952D01*
X103769047Y-35278571D01*
X103745238Y-35302380D01*
X103697619Y-35326190D01*
X103554761Y-35326190D01*
X103507142Y-35302380D01*
X103483333Y-35278571D01*
X107730952Y-34076190D02*
X107730952Y-33576190D01*
X107850000Y-33576190D01*
X107921428Y-33600000D01*
X107969047Y-33647619D01*
X107992857Y-33695238D01*
X108016666Y-33790476D01*
X108016666Y-33861904D01*
X107992857Y-33957142D01*
X107969047Y-34004761D01*
X107921428Y-34052380D01*
X107850000Y-34076190D01*
X107730952Y-34076190D01*
X108183333Y-33576190D02*
X108492857Y-33576190D01*
X108326190Y-33766666D01*
X108397619Y-33766666D01*
X108445238Y-33790476D01*
X108469047Y-33814285D01*
X108492857Y-33861904D01*
X108492857Y-33980952D01*
X108469047Y-34028571D01*
X108445238Y-34052380D01*
X108397619Y-34076190D01*
X108254761Y-34076190D01*
X108207142Y-34052380D01*
X108183333Y-34028571D01*
X98316666Y-35326190D02*
X98150000Y-35088095D01*
X98030952Y-35326190D02*
X98030952Y-34826190D01*
X98221428Y-34826190D01*
X98269047Y-34850000D01*
X98292857Y-34873809D01*
X98316666Y-34921428D01*
X98316666Y-34992857D01*
X98292857Y-35040476D01*
X98269047Y-35064285D01*
X98221428Y-35088095D01*
X98030952Y-35088095D01*
X98507142Y-34873809D02*
X98530952Y-34850000D01*
X98578571Y-34826190D01*
X98697619Y-34826190D01*
X98745238Y-34850000D01*
X98769047Y-34873809D01*
X98792857Y-34921428D01*
X98792857Y-34969047D01*
X98769047Y-35040476D01*
X98483333Y-35326190D01*
X98792857Y-35326190D01*
X109128571Y-105239285D02*
X109128571Y-105846428D01*
X109164285Y-105917857D01*
X109200000Y-105953571D01*
X109271428Y-105989285D01*
X109414285Y-105989285D01*
X109485714Y-105953571D01*
X109521428Y-105917857D01*
X109557142Y-105846428D01*
X109557142Y-105239285D01*
X110235714Y-105489285D02*
X110235714Y-105989285D01*
X110057142Y-105203571D02*
X109878571Y-105739285D01*
X110342857Y-105739285D01*
D14*
X102561549Y-64938095D02*
X102561549Y-65414285D01*
X102228216Y-64414285D02*
X102561549Y-64938095D01*
X102894882Y-64414285D01*
X103752025Y-65414285D02*
X103180597Y-65414285D01*
X103466311Y-65414285D02*
X103466311Y-64414285D01*
X103371073Y-64557143D01*
X103275835Y-64652381D01*
X103180597Y-64700000D01*
X90733333Y-78957142D02*
X90685714Y-79004761D01*
X90542857Y-79052380D01*
X90447619Y-79052380D01*
X90304761Y-79004761D01*
X90209523Y-78909523D01*
X90161904Y-78814285D01*
X90114285Y-78623809D01*
X90114285Y-78480952D01*
X90161904Y-78290476D01*
X90209523Y-78195238D01*
X90304761Y-78100000D01*
X90447619Y-78052380D01*
X90542857Y-78052380D01*
X90685714Y-78100000D01*
X90733333Y-78147619D01*
X91066666Y-78052380D02*
X91733333Y-78052380D01*
X91304761Y-79052380D01*
D13*
X95675000Y-104139285D02*
X95425000Y-103782142D01*
X95246428Y-104139285D02*
X95246428Y-103389285D01*
X95532142Y-103389285D01*
X95603571Y-103425000D01*
X95639285Y-103460714D01*
X95675000Y-103532142D01*
X95675000Y-103639285D01*
X95639285Y-103710714D01*
X95603571Y-103746428D01*
X95532142Y-103782142D01*
X95246428Y-103782142D01*
X96317857Y-103389285D02*
X96175000Y-103389285D01*
X96103571Y-103425000D01*
X96067857Y-103460714D01*
X95996428Y-103567857D01*
X95960714Y-103710714D01*
X95960714Y-103996428D01*
X95996428Y-104067857D01*
X96032142Y-104103571D01*
X96103571Y-104139285D01*
X96246428Y-104139285D01*
X96317857Y-104103571D01*
X96353571Y-104067857D01*
X96389285Y-103996428D01*
X96389285Y-103817857D01*
X96353571Y-103746428D01*
X96317857Y-103710714D01*
X96246428Y-103675000D01*
X96103571Y-103675000D01*
X96032142Y-103710714D01*
X95996428Y-103746428D01*
X95960714Y-103817857D01*
X113216666Y-35376190D02*
X113050000Y-35138095D01*
X112930952Y-35376190D02*
X112930952Y-34876190D01*
X113121428Y-34876190D01*
X113169047Y-34900000D01*
X113192857Y-34923809D01*
X113216666Y-34971428D01*
X113216666Y-35042857D01*
X113192857Y-35090476D01*
X113169047Y-35114285D01*
X113121428Y-35138095D01*
X112930952Y-35138095D01*
X113383333Y-34876190D02*
X113716666Y-34876190D01*
X113502380Y-35376190D01*
X127478571Y-35426190D02*
X127311904Y-35188095D01*
X127192857Y-35426190D02*
X127192857Y-34926190D01*
X127383333Y-34926190D01*
X127430952Y-34950000D01*
X127454761Y-34973809D01*
X127478571Y-35021428D01*
X127478571Y-35092857D01*
X127454761Y-35140476D01*
X127430952Y-35164285D01*
X127383333Y-35188095D01*
X127192857Y-35188095D01*
X127954761Y-35426190D02*
X127669047Y-35426190D01*
X127811904Y-35426190D02*
X127811904Y-34926190D01*
X127764285Y-34997619D01*
X127716666Y-35045238D01*
X127669047Y-35069047D01*
X128145238Y-34973809D02*
X128169047Y-34950000D01*
X128216666Y-34926190D01*
X128335714Y-34926190D01*
X128383333Y-34950000D01*
X128407142Y-34973809D01*
X128430952Y-35021428D01*
X128430952Y-35069047D01*
X128407142Y-35140476D01*
X128121428Y-35426190D01*
X128430952Y-35426190D01*
X92667857Y-112567857D02*
X92632142Y-112603571D01*
X92525000Y-112639285D01*
X92453571Y-112639285D01*
X92346428Y-112603571D01*
X92275000Y-112532142D01*
X92239285Y-112460714D01*
X92203571Y-112317857D01*
X92203571Y-112210714D01*
X92239285Y-112067857D01*
X92275000Y-111996428D01*
X92346428Y-111925000D01*
X92453571Y-111889285D01*
X92525000Y-111889285D01*
X92632142Y-111925000D01*
X92667857Y-111960714D01*
X93382142Y-112639285D02*
X92953571Y-112639285D01*
X93167857Y-112639285D02*
X93167857Y-111889285D01*
X93096428Y-111996428D01*
X93025000Y-112067857D01*
X92953571Y-112103571D01*
X93667857Y-111960714D02*
X93703571Y-111925000D01*
X93775000Y-111889285D01*
X93953571Y-111889285D01*
X94025000Y-111925000D01*
X94060714Y-111960714D01*
X94096428Y-112032142D01*
X94096428Y-112103571D01*
X94060714Y-112210714D01*
X93632142Y-112639285D01*
X94096428Y-112639285D01*
X97617857Y-95267857D02*
X97582142Y-95303571D01*
X97475000Y-95339285D01*
X97403571Y-95339285D01*
X97296428Y-95303571D01*
X97225000Y-95232142D01*
X97189285Y-95160714D01*
X97153571Y-95017857D01*
X97153571Y-94910714D01*
X97189285Y-94767857D01*
X97225000Y-94696428D01*
X97296428Y-94625000D01*
X97403571Y-94589285D01*
X97475000Y-94589285D01*
X97582142Y-94625000D01*
X97617857Y-94660714D01*
X98332142Y-95339285D02*
X97903571Y-95339285D01*
X98117857Y-95339285D02*
X98117857Y-94589285D01*
X98046428Y-94696428D01*
X97975000Y-94767857D01*
X97903571Y-94803571D01*
X98975000Y-94589285D02*
X98832142Y-94589285D01*
X98760714Y-94625000D01*
X98725000Y-94660714D01*
X98653571Y-94767857D01*
X98617857Y-94910714D01*
X98617857Y-95196428D01*
X98653571Y-95267857D01*
X98689285Y-95303571D01*
X98760714Y-95339285D01*
X98903571Y-95339285D01*
X98975000Y-95303571D01*
X99010714Y-95267857D01*
X99046428Y-95196428D01*
X99046428Y-95017857D01*
X99010714Y-94946428D01*
X98975000Y-94910714D01*
X98903571Y-94875000D01*
X98760714Y-94875000D01*
X98689285Y-94910714D01*
X98653571Y-94946428D01*
X98617857Y-95017857D01*
D14*
X111557142Y-75757142D02*
X111509523Y-75804761D01*
X111366666Y-75852380D01*
X111271428Y-75852380D01*
X111128571Y-75804761D01*
X111033333Y-75709523D01*
X110985714Y-75614285D01*
X110938095Y-75423809D01*
X110938095Y-75280952D01*
X110985714Y-75090476D01*
X111033333Y-74995238D01*
X111128571Y-74900000D01*
X111271428Y-74852380D01*
X111366666Y-74852380D01*
X111509523Y-74900000D01*
X111557142Y-74947619D01*
X112509523Y-75852380D02*
X111938095Y-75852380D01*
X112223809Y-75852380D02*
X112223809Y-74852380D01*
X112128571Y-74995238D01*
X112033333Y-75090476D01*
X111938095Y-75138095D01*
X112985714Y-75852380D02*
X113176190Y-75852380D01*
X113271428Y-75804761D01*
X113319047Y-75757142D01*
X113414285Y-75614285D01*
X113461904Y-75423809D01*
X113461904Y-75042857D01*
X113414285Y-74947619D01*
X113366666Y-74900000D01*
X113271428Y-74852380D01*
X113080952Y-74852380D01*
X112985714Y-74900000D01*
X112938095Y-74947619D01*
X112890476Y-75042857D01*
X112890476Y-75280952D01*
X112938095Y-75376190D01*
X112985714Y-75423809D01*
X113080952Y-75471428D01*
X113271428Y-75471428D01*
X113366666Y-75423809D01*
X113414285Y-75376190D01*
X113461904Y-75280952D01*
D13*
X127646428Y-92396428D02*
X127396428Y-92396428D01*
X127396428Y-92789285D02*
X127396428Y-92039285D01*
X127753571Y-92039285D01*
X128039285Y-92789285D02*
X128039285Y-92039285D01*
X128396428Y-92789285D02*
X128396428Y-92039285D01*
X128575000Y-92039285D01*
X128682142Y-92075000D01*
X128753571Y-92146428D01*
X128789285Y-92217857D01*
X128825000Y-92360714D01*
X128825000Y-92467857D01*
X128789285Y-92610714D01*
X128753571Y-92682142D01*
X128682142Y-92753571D01*
X128575000Y-92789285D01*
X128396428Y-92789285D01*
X129110714Y-92110714D02*
X129146428Y-92075000D01*
X129217857Y-92039285D01*
X129396428Y-92039285D01*
X129467857Y-92075000D01*
X129503571Y-92110714D01*
X129539285Y-92182142D01*
X129539285Y-92253571D01*
X129503571Y-92360714D01*
X129075000Y-92789285D01*
X129539285Y-92789285D01*
X122966666Y-35426190D02*
X122800000Y-35188095D01*
X122680952Y-35426190D02*
X122680952Y-34926190D01*
X122871428Y-34926190D01*
X122919047Y-34950000D01*
X122942857Y-34973809D01*
X122966666Y-35021428D01*
X122966666Y-35092857D01*
X122942857Y-35140476D01*
X122919047Y-35164285D01*
X122871428Y-35188095D01*
X122680952Y-35188095D01*
X123395238Y-35092857D02*
X123395238Y-35426190D01*
X123276190Y-34902380D02*
X123157142Y-35259523D01*
X123466666Y-35259523D01*
D14*
X108683333Y-77107142D02*
X108635714Y-77154761D01*
X108492857Y-77202380D01*
X108397619Y-77202380D01*
X108254761Y-77154761D01*
X108159523Y-77059523D01*
X108111904Y-76964285D01*
X108064285Y-76773809D01*
X108064285Y-76630952D01*
X108111904Y-76440476D01*
X108159523Y-76345238D01*
X108254761Y-76250000D01*
X108397619Y-76202380D01*
X108492857Y-76202380D01*
X108635714Y-76250000D01*
X108683333Y-76297619D01*
X109016666Y-76202380D02*
X109635714Y-76202380D01*
X109302380Y-76583333D01*
X109445238Y-76583333D01*
X109540476Y-76630952D01*
X109588095Y-76678571D01*
X109635714Y-76773809D01*
X109635714Y-77011904D01*
X109588095Y-77107142D01*
X109540476Y-77154761D01*
X109445238Y-77202380D01*
X109159523Y-77202380D01*
X109064285Y-77154761D01*
X109016666Y-77107142D01*
D13*
X92732804Y-38686357D02*
X93111611Y-39065165D01*
X93162119Y-39166180D01*
X93162119Y-39267195D01*
X93111611Y-39368210D01*
X93061104Y-39418718D01*
X93212626Y-38206535D02*
X93111611Y-38307550D01*
X93086357Y-38383312D01*
X93086357Y-38433819D01*
X93111611Y-38560088D01*
X93187373Y-38686357D01*
X93389403Y-38888388D01*
X93465165Y-38913642D01*
X93515672Y-38913642D01*
X93591434Y-38888388D01*
X93692449Y-38787373D01*
X93717703Y-38711611D01*
X93717703Y-38661104D01*
X93692449Y-38585342D01*
X93566180Y-38459073D01*
X93490418Y-38433819D01*
X93439911Y-38433819D01*
X93364149Y-38459073D01*
X93263134Y-38560088D01*
X93237880Y-38635850D01*
X93237880Y-38686357D01*
X93263134Y-38762119D01*
X111617857Y-108817857D02*
X111582142Y-108853571D01*
X111475000Y-108889285D01*
X111403571Y-108889285D01*
X111296428Y-108853571D01*
X111225000Y-108782142D01*
X111189285Y-108710714D01*
X111153571Y-108567857D01*
X111153571Y-108460714D01*
X111189285Y-108317857D01*
X111225000Y-108246428D01*
X111296428Y-108175000D01*
X111403571Y-108139285D01*
X111475000Y-108139285D01*
X111582142Y-108175000D01*
X111617857Y-108210714D01*
X112332142Y-108889285D02*
X111903571Y-108889285D01*
X112117857Y-108889285D02*
X112117857Y-108139285D01*
X112046428Y-108246428D01*
X111975000Y-108317857D01*
X111903571Y-108353571D01*
X112975000Y-108389285D02*
X112975000Y-108889285D01*
X112796428Y-108103571D02*
X112617857Y-108639285D01*
X113082142Y-108639285D01*
D14*
X117438095Y-74552380D02*
X117438095Y-75361904D01*
X117485714Y-75457142D01*
X117533333Y-75504761D01*
X117628571Y-75552380D01*
X117819047Y-75552380D01*
X117914285Y-75504761D01*
X117961904Y-75457142D01*
X118009523Y-75361904D01*
X118009523Y-74552380D01*
X118628571Y-74980952D02*
X118533333Y-74933333D01*
X118485714Y-74885714D01*
X118438095Y-74790476D01*
X118438095Y-74742857D01*
X118485714Y-74647619D01*
X118533333Y-74600000D01*
X118628571Y-74552380D01*
X118819047Y-74552380D01*
X118914285Y-74600000D01*
X118961904Y-74647619D01*
X119009523Y-74742857D01*
X119009523Y-74790476D01*
X118961904Y-74885714D01*
X118914285Y-74933333D01*
X118819047Y-74980952D01*
X118628571Y-74980952D01*
X118533333Y-75028571D01*
X118485714Y-75076190D01*
X118438095Y-75171428D01*
X118438095Y-75361904D01*
X118485714Y-75457142D01*
X118533333Y-75504761D01*
X118628571Y-75552380D01*
X118819047Y-75552380D01*
X118914285Y-75504761D01*
X118961904Y-75457142D01*
X119009523Y-75361904D01*
X119009523Y-75171428D01*
X118961904Y-75076190D01*
X118914285Y-75028571D01*
X118819047Y-74980952D01*
D13*
X121689285Y-107182142D02*
X121332142Y-107432142D01*
X121689285Y-107610714D02*
X120939285Y-107610714D01*
X120939285Y-107325000D01*
X120975000Y-107253571D01*
X121010714Y-107217857D01*
X121082142Y-107182142D01*
X121189285Y-107182142D01*
X121260714Y-107217857D01*
X121296428Y-107253571D01*
X121332142Y-107325000D01*
X121332142Y-107610714D01*
X121689285Y-106467857D02*
X121689285Y-106896428D01*
X121689285Y-106682142D02*
X120939285Y-106682142D01*
X121046428Y-106753571D01*
X121117857Y-106825000D01*
X121153571Y-106896428D01*
X120939285Y-105789285D02*
X120939285Y-106146428D01*
X121296428Y-106182142D01*
X121260714Y-106146428D01*
X121225000Y-106075000D01*
X121225000Y-105896428D01*
X121260714Y-105825000D01*
X121296428Y-105789285D01*
X121367857Y-105753571D01*
X121546428Y-105753571D01*
X121617857Y-105789285D01*
X121653571Y-105825000D01*
X121689285Y-105896428D01*
X121689285Y-106075000D01*
X121653571Y-106146428D01*
X121617857Y-106182142D01*
D14*
X125766666Y-71452380D02*
X125766666Y-72166666D01*
X125719047Y-72309523D01*
X125623809Y-72404761D01*
X125480952Y-72452380D01*
X125385714Y-72452380D01*
X126147619Y-71452380D02*
X126766666Y-71452380D01*
X126433333Y-71833333D01*
X126576190Y-71833333D01*
X126671428Y-71880952D01*
X126719047Y-71928571D01*
X126766666Y-72023809D01*
X126766666Y-72261904D01*
X126719047Y-72357142D01*
X126671428Y-72404761D01*
X126576190Y-72452380D01*
X126290476Y-72452380D01*
X126195238Y-72404761D01*
X126147619Y-72357142D01*
D13*
X113867857Y-95717857D02*
X113832142Y-95753571D01*
X113725000Y-95789285D01*
X113653571Y-95789285D01*
X113546428Y-95753571D01*
X113475000Y-95682142D01*
X113439285Y-95610714D01*
X113403571Y-95467857D01*
X113403571Y-95360714D01*
X113439285Y-95217857D01*
X113475000Y-95146428D01*
X113546428Y-95075000D01*
X113653571Y-95039285D01*
X113725000Y-95039285D01*
X113832142Y-95075000D01*
X113867857Y-95110714D01*
X114582142Y-95789285D02*
X114153571Y-95789285D01*
X114367857Y-95789285D02*
X114367857Y-95039285D01*
X114296428Y-95146428D01*
X114225000Y-95217857D01*
X114153571Y-95253571D01*
X114832142Y-95039285D02*
X115296428Y-95039285D01*
X115046428Y-95325000D01*
X115153571Y-95325000D01*
X115225000Y-95360714D01*
X115260714Y-95396428D01*
X115296428Y-95467857D01*
X115296428Y-95646428D01*
X115260714Y-95717857D01*
X115225000Y-95753571D01*
X115153571Y-95789285D01*
X114939285Y-95789285D01*
X114867857Y-95753571D01*
X114832142Y-95717857D01*
D14*
X90833333Y-76857142D02*
X90785714Y-76904761D01*
X90642857Y-76952380D01*
X90547619Y-76952380D01*
X90404761Y-76904761D01*
X90309523Y-76809523D01*
X90261904Y-76714285D01*
X90214285Y-76523809D01*
X90214285Y-76380952D01*
X90261904Y-76190476D01*
X90309523Y-76095238D01*
X90404761Y-76000000D01*
X90547619Y-75952380D01*
X90642857Y-75952380D01*
X90785714Y-76000000D01*
X90833333Y-76047619D01*
X91738095Y-75952380D02*
X91261904Y-75952380D01*
X91214285Y-76428571D01*
X91261904Y-76380952D01*
X91357142Y-76333333D01*
X91595238Y-76333333D01*
X91690476Y-76380952D01*
X91738095Y-76428571D01*
X91785714Y-76523809D01*
X91785714Y-76761904D01*
X91738095Y-76857142D01*
X91690476Y-76904761D01*
X91595238Y-76952380D01*
X91357142Y-76952380D01*
X91261904Y-76904761D01*
X91214285Y-76857142D01*
X111557142Y-67552380D02*
X111223809Y-67076190D01*
X110985714Y-67552380D02*
X110985714Y-66552380D01*
X111366666Y-66552380D01*
X111461904Y-66600000D01*
X111509523Y-66647619D01*
X111557142Y-66742857D01*
X111557142Y-66885714D01*
X111509523Y-66980952D01*
X111461904Y-67028571D01*
X111366666Y-67076190D01*
X110985714Y-67076190D01*
X112509523Y-67552380D02*
X111938095Y-67552380D01*
X112223809Y-67552380D02*
X112223809Y-66552380D01*
X112128571Y-66695238D01*
X112033333Y-66790476D01*
X111938095Y-66838095D01*
X113461904Y-67552380D02*
X112890476Y-67552380D01*
X113176190Y-67552380D02*
X113176190Y-66552380D01*
X113080952Y-66695238D01*
X112985714Y-66790476D01*
X112890476Y-66838095D01*
D13*
X122530952Y-34076190D02*
X122530952Y-33576190D01*
X122650000Y-33576190D01*
X122721428Y-33600000D01*
X122769047Y-33647619D01*
X122792857Y-33695238D01*
X122816666Y-33790476D01*
X122816666Y-33861904D01*
X122792857Y-33957142D01*
X122769047Y-34004761D01*
X122721428Y-34052380D01*
X122650000Y-34076190D01*
X122530952Y-34076190D01*
X122983333Y-33576190D02*
X123316666Y-33576190D01*
X123102380Y-34076190D01*
D14*
X110257142Y-71742857D02*
X110304761Y-71790476D01*
X110352380Y-71933333D01*
X110352380Y-72028571D01*
X110304761Y-72171428D01*
X110209523Y-72266666D01*
X110114285Y-72314285D01*
X109923809Y-72361904D01*
X109780952Y-72361904D01*
X109590476Y-72314285D01*
X109495238Y-72266666D01*
X109400000Y-72171428D01*
X109352380Y-72028571D01*
X109352380Y-71933333D01*
X109400000Y-71790476D01*
X109447619Y-71742857D01*
X110352380Y-70790476D02*
X110352380Y-71361904D01*
X110352380Y-71076190D02*
X109352380Y-71076190D01*
X109495238Y-71171428D01*
X109590476Y-71266666D01*
X109638095Y-71361904D01*
X109780952Y-70219047D02*
X109733333Y-70314285D01*
X109685714Y-70361904D01*
X109590476Y-70409523D01*
X109542857Y-70409523D01*
X109447619Y-70361904D01*
X109400000Y-70314285D01*
X109352380Y-70219047D01*
X109352380Y-70028571D01*
X109400000Y-69933333D01*
X109447619Y-69885714D01*
X109542857Y-69838095D01*
X109590476Y-69838095D01*
X109685714Y-69885714D01*
X109733333Y-69933333D01*
X109780952Y-70028571D01*
X109780952Y-70219047D01*
X109828571Y-70314285D01*
X109876190Y-70361904D01*
X109971428Y-70409523D01*
X110161904Y-70409523D01*
X110257142Y-70361904D01*
X110304761Y-70314285D01*
X110352380Y-70219047D01*
X110352380Y-70028571D01*
X110304761Y-69933333D01*
X110257142Y-69885714D01*
X110161904Y-69838095D01*
X109971428Y-69838095D01*
X109876190Y-69885714D01*
X109828571Y-69933333D01*
X109780952Y-70028571D01*
D13*
X119117857Y-99475000D02*
X119153571Y-99510714D01*
X119189285Y-99617857D01*
X119189285Y-99689285D01*
X119153571Y-99796428D01*
X119082142Y-99867857D01*
X119010714Y-99903571D01*
X118867857Y-99939285D01*
X118760714Y-99939285D01*
X118617857Y-99903571D01*
X118546428Y-99867857D01*
X118475000Y-99796428D01*
X118439285Y-99689285D01*
X118439285Y-99617857D01*
X118475000Y-99510714D01*
X118510714Y-99475000D01*
X118439285Y-98832142D02*
X118439285Y-98975000D01*
X118475000Y-99046428D01*
X118510714Y-99082142D01*
X118617857Y-99153571D01*
X118760714Y-99189285D01*
X119046428Y-99189285D01*
X119117857Y-99153571D01*
X119153571Y-99117857D01*
X119189285Y-99046428D01*
X119189285Y-98903571D01*
X119153571Y-98832142D01*
X119117857Y-98796428D01*
X119046428Y-98760714D01*
X118867857Y-98760714D01*
X118796428Y-98796428D01*
X118760714Y-98832142D01*
X118725000Y-98903571D01*
X118725000Y-99046428D01*
X118760714Y-99117857D01*
X118796428Y-99153571D01*
X118867857Y-99189285D01*
X102830952Y-34076190D02*
X102830952Y-33576190D01*
X102950000Y-33576190D01*
X103021428Y-33600000D01*
X103069047Y-33647619D01*
X103092857Y-33695238D01*
X103116666Y-33790476D01*
X103116666Y-33861904D01*
X103092857Y-33957142D01*
X103069047Y-34004761D01*
X103021428Y-34052380D01*
X102950000Y-34076190D01*
X102830952Y-34076190D01*
X103307142Y-33623809D02*
X103330952Y-33600000D01*
X103378571Y-33576190D01*
X103497619Y-33576190D01*
X103545238Y-33600000D01*
X103569047Y-33623809D01*
X103592857Y-33671428D01*
X103592857Y-33719047D01*
X103569047Y-33790476D01*
X103283333Y-34076190D01*
X103592857Y-34076190D01*
D14*
X118866666Y-76952380D02*
X118866666Y-77666666D01*
X118819047Y-77809523D01*
X118723809Y-77904761D01*
X118580952Y-77952380D01*
X118485714Y-77952380D01*
X119295238Y-77047619D02*
X119342857Y-77000000D01*
X119438095Y-76952380D01*
X119676190Y-76952380D01*
X119771428Y-77000000D01*
X119819047Y-77047619D01*
X119866666Y-77142857D01*
X119866666Y-77238095D01*
X119819047Y-77380952D01*
X119247619Y-77952380D01*
X119866666Y-77952380D01*
D13*
X124278571Y-95039285D02*
X124278571Y-95646428D01*
X124314285Y-95717857D01*
X124350000Y-95753571D01*
X124421428Y-95789285D01*
X124564285Y-95789285D01*
X124635714Y-95753571D01*
X124671428Y-95717857D01*
X124707142Y-95646428D01*
X124707142Y-95039285D01*
X125385714Y-95039285D02*
X125242857Y-95039285D01*
X125171428Y-95075000D01*
X125135714Y-95110714D01*
X125064285Y-95217857D01*
X125028571Y-95360714D01*
X125028571Y-95646428D01*
X125064285Y-95717857D01*
X125100000Y-95753571D01*
X125171428Y-95789285D01*
X125314285Y-95789285D01*
X125385714Y-95753571D01*
X125421428Y-95717857D01*
X125457142Y-95646428D01*
X125457142Y-95467857D01*
X125421428Y-95396428D01*
X125385714Y-95360714D01*
X125314285Y-95325000D01*
X125171428Y-95325000D01*
X125100000Y-95360714D01*
X125064285Y-95396428D01*
X125028571Y-95467857D01*
X118839285Y-101967857D02*
X118482142Y-102184523D01*
X118839285Y-102339285D02*
X118089285Y-102339285D01*
X118089285Y-102091666D01*
X118125000Y-102029761D01*
X118160714Y-101998809D01*
X118232142Y-101967857D01*
X118339285Y-101967857D01*
X118410714Y-101998809D01*
X118446428Y-102029761D01*
X118482142Y-102091666D01*
X118482142Y-102339285D01*
X118839285Y-101348809D02*
X118839285Y-101720238D01*
X118839285Y-101534523D02*
X118089285Y-101534523D01*
X118196428Y-101596428D01*
X118267857Y-101658333D01*
X118303571Y-101720238D01*
X118339285Y-100791666D02*
X118839285Y-100791666D01*
X118053571Y-100946428D02*
X118589285Y-101101190D01*
X118589285Y-100698809D01*
D14*
X93433333Y-81252380D02*
X93100000Y-80776190D01*
X92861904Y-81252380D02*
X92861904Y-80252380D01*
X93242857Y-80252380D01*
X93338095Y-80300000D01*
X93385714Y-80347619D01*
X93433333Y-80442857D01*
X93433333Y-80585714D01*
X93385714Y-80680952D01*
X93338095Y-80728571D01*
X93242857Y-80776190D01*
X92861904Y-80776190D01*
X94385714Y-81252380D02*
X93814285Y-81252380D01*
X94100000Y-81252380D02*
X94100000Y-80252380D01*
X94004761Y-80395238D01*
X93909523Y-80490476D01*
X93814285Y-80538095D01*
X103657142Y-71257142D02*
X103609523Y-71304761D01*
X103466666Y-71352380D01*
X103371428Y-71352380D01*
X103228571Y-71304761D01*
X103133333Y-71209523D01*
X103085714Y-71114285D01*
X103038095Y-70923809D01*
X103038095Y-70780952D01*
X103085714Y-70590476D01*
X103133333Y-70495238D01*
X103228571Y-70400000D01*
X103371428Y-70352380D01*
X103466666Y-70352380D01*
X103609523Y-70400000D01*
X103657142Y-70447619D01*
X104609523Y-71352380D02*
X104038095Y-71352380D01*
X104323809Y-71352380D02*
X104323809Y-70352380D01*
X104228571Y-70495238D01*
X104133333Y-70590476D01*
X104038095Y-70638095D01*
X105561904Y-71352380D02*
X104990476Y-71352380D01*
X105276190Y-71352380D02*
X105276190Y-70352380D01*
X105180952Y-70495238D01*
X105085714Y-70590476D01*
X104990476Y-70638095D01*
D13*
X116489285Y-107182142D02*
X116132142Y-107432142D01*
X116489285Y-107610714D02*
X115739285Y-107610714D01*
X115739285Y-107325000D01*
X115775000Y-107253571D01*
X115810714Y-107217857D01*
X115882142Y-107182142D01*
X115989285Y-107182142D01*
X116060714Y-107217857D01*
X116096428Y-107253571D01*
X116132142Y-107325000D01*
X116132142Y-107610714D01*
X116489285Y-106467857D02*
X116489285Y-106896428D01*
X116489285Y-106682142D02*
X115739285Y-106682142D01*
X115846428Y-106753571D01*
X115917857Y-106825000D01*
X115953571Y-106896428D01*
X115739285Y-105825000D02*
X115739285Y-105967857D01*
X115775000Y-106039285D01*
X115810714Y-106075000D01*
X115917857Y-106146428D01*
X116060714Y-106182142D01*
X116346428Y-106182142D01*
X116417857Y-106146428D01*
X116453571Y-106110714D01*
X116489285Y-106039285D01*
X116489285Y-105896428D01*
X116453571Y-105825000D01*
X116417857Y-105789285D01*
X116346428Y-105753571D01*
X116167857Y-105753571D01*
X116096428Y-105789285D01*
X116060714Y-105825000D01*
X116025000Y-105896428D01*
X116025000Y-106039285D01*
X116060714Y-106110714D01*
X116096428Y-106146428D01*
X116167857Y-106182142D01*
X105275000Y-95789285D02*
X104917857Y-95789285D01*
X104917857Y-95039285D01*
X105917857Y-95789285D02*
X105489285Y-95789285D01*
X105703571Y-95789285D02*
X105703571Y-95039285D01*
X105632142Y-95146428D01*
X105560714Y-95217857D01*
X105489285Y-95253571D01*
D14*
X121657142Y-71857142D02*
X121609523Y-71904761D01*
X121466666Y-71952380D01*
X121371428Y-71952380D01*
X121228571Y-71904761D01*
X121133333Y-71809523D01*
X121085714Y-71714285D01*
X121038095Y-71523809D01*
X121038095Y-71380952D01*
X121085714Y-71190476D01*
X121133333Y-71095238D01*
X121228571Y-71000000D01*
X121371428Y-70952380D01*
X121466666Y-70952380D01*
X121609523Y-71000000D01*
X121657142Y-71047619D01*
X122609523Y-71952380D02*
X122038095Y-71952380D01*
X122323809Y-71952380D02*
X122323809Y-70952380D01*
X122228571Y-71095238D01*
X122133333Y-71190476D01*
X122038095Y-71238095D01*
X122942857Y-70952380D02*
X123609523Y-70952380D01*
X123180952Y-71952380D01*
D13*
X97830952Y-34076190D02*
X97830952Y-33576190D01*
X97950000Y-33576190D01*
X98021428Y-33600000D01*
X98069047Y-33647619D01*
X98092857Y-33695238D01*
X98116666Y-33790476D01*
X98116666Y-33861904D01*
X98092857Y-33957142D01*
X98069047Y-34004761D01*
X98021428Y-34052380D01*
X97950000Y-34076190D01*
X97830952Y-34076190D01*
X98592857Y-34076190D02*
X98307142Y-34076190D01*
X98450000Y-34076190D02*
X98450000Y-33576190D01*
X98402380Y-33647619D01*
X98354761Y-33695238D01*
X98307142Y-33719047D01*
D14*
X107033333Y-66157142D02*
X106985714Y-66204761D01*
X106842857Y-66252380D01*
X106747619Y-66252380D01*
X106604761Y-66204761D01*
X106509523Y-66109523D01*
X106461904Y-66014285D01*
X106414285Y-65823809D01*
X106414285Y-65680952D01*
X106461904Y-65490476D01*
X106509523Y-65395238D01*
X106604761Y-65300000D01*
X106747619Y-65252380D01*
X106842857Y-65252380D01*
X106985714Y-65300000D01*
X107033333Y-65347619D01*
X107985714Y-66252380D02*
X107414285Y-66252380D01*
X107700000Y-66252380D02*
X107700000Y-65252380D01*
X107604761Y-65395238D01*
X107509523Y-65490476D01*
X107414285Y-65538095D01*
D13*
X117630952Y-34076190D02*
X117630952Y-33576190D01*
X117750000Y-33576190D01*
X117821428Y-33600000D01*
X117869047Y-33647619D01*
X117892857Y-33695238D01*
X117916666Y-33790476D01*
X117916666Y-33861904D01*
X117892857Y-33957142D01*
X117869047Y-34004761D01*
X117821428Y-34052380D01*
X117750000Y-34076190D01*
X117630952Y-34076190D01*
X118369047Y-33576190D02*
X118130952Y-33576190D01*
X118107142Y-33814285D01*
X118130952Y-33790476D01*
X118178571Y-33766666D01*
X118297619Y-33766666D01*
X118345238Y-33790476D01*
X118369047Y-33814285D01*
X118392857Y-33861904D01*
X118392857Y-33980952D01*
X118369047Y-34028571D01*
X118345238Y-34052380D01*
X118297619Y-34076190D01*
X118178571Y-34076190D01*
X118130952Y-34052380D01*
X118107142Y-34028571D01*
D14*
X90833333Y-74757142D02*
X90785714Y-74804761D01*
X90642857Y-74852380D01*
X90547619Y-74852380D01*
X90404761Y-74804761D01*
X90309523Y-74709523D01*
X90261904Y-74614285D01*
X90214285Y-74423809D01*
X90214285Y-74280952D01*
X90261904Y-74090476D01*
X90309523Y-73995238D01*
X90404761Y-73900000D01*
X90547619Y-73852380D01*
X90642857Y-73852380D01*
X90785714Y-73900000D01*
X90833333Y-73947619D01*
X91404761Y-74280952D02*
X91309523Y-74233333D01*
X91261904Y-74185714D01*
X91214285Y-74090476D01*
X91214285Y-74042857D01*
X91261904Y-73947619D01*
X91309523Y-73900000D01*
X91404761Y-73852380D01*
X91595238Y-73852380D01*
X91690476Y-73900000D01*
X91738095Y-73947619D01*
X91785714Y-74042857D01*
X91785714Y-74090476D01*
X91738095Y-74185714D01*
X91690476Y-74233333D01*
X91595238Y-74280952D01*
X91404761Y-74280952D01*
X91309523Y-74328571D01*
X91261904Y-74376190D01*
X91214285Y-74471428D01*
X91214285Y-74661904D01*
X91261904Y-74757142D01*
X91309523Y-74804761D01*
X91404761Y-74852380D01*
X91595238Y-74852380D01*
X91690476Y-74804761D01*
X91738095Y-74757142D01*
X91785714Y-74661904D01*
X91785714Y-74471428D01*
X91738095Y-74376190D01*
X91690476Y-74328571D01*
X91595238Y-74280952D01*
D13*
X129030788Y-103820168D02*
X128723514Y-104258999D01*
X128632804Y-104326281D01*
X128533324Y-104343822D01*
X128425073Y-104311623D01*
X128366562Y-104270653D01*
X129615896Y-104229865D02*
X129323342Y-104025017D01*
X129089238Y-104297086D01*
X129138978Y-104288316D01*
X129217974Y-104300030D01*
X129364251Y-104402454D01*
X129402277Y-104472679D01*
X129411047Y-104522420D01*
X129399333Y-104601415D01*
X129296909Y-104747693D01*
X129226684Y-104785719D01*
X129176943Y-104794489D01*
X129097948Y-104782775D01*
X128951670Y-104680350D01*
X128913644Y-104610125D01*
X128904874Y-104560385D01*
X111567857Y-110889285D02*
X111317857Y-110532142D01*
X111139285Y-110889285D02*
X111139285Y-110139285D01*
X111425000Y-110139285D01*
X111496428Y-110175000D01*
X111532142Y-110210714D01*
X111567857Y-110282142D01*
X111567857Y-110389285D01*
X111532142Y-110460714D01*
X111496428Y-110496428D01*
X111425000Y-110532142D01*
X111139285Y-110532142D01*
X112282142Y-110889285D02*
X111853571Y-110889285D01*
X112067857Y-110889285D02*
X112067857Y-110139285D01*
X111996428Y-110246428D01*
X111925000Y-110317857D01*
X111853571Y-110353571D01*
X112532142Y-110139285D02*
X112996428Y-110139285D01*
X112746428Y-110425000D01*
X112853571Y-110425000D01*
X112925000Y-110460714D01*
X112960714Y-110496428D01*
X112996428Y-110567857D01*
X112996428Y-110746428D01*
X112960714Y-110817857D01*
X112925000Y-110853571D01*
X112853571Y-110889285D01*
X112639285Y-110889285D01*
X112567857Y-110853571D01*
X112532142Y-110817857D01*
D14*
X99033333Y-66157142D02*
X98985714Y-66204761D01*
X98842857Y-66252380D01*
X98747619Y-66252380D01*
X98604761Y-66204761D01*
X98509523Y-66109523D01*
X98461904Y-66014285D01*
X98414285Y-65823809D01*
X98414285Y-65680952D01*
X98461904Y-65490476D01*
X98509523Y-65395238D01*
X98604761Y-65300000D01*
X98747619Y-65252380D01*
X98842857Y-65252380D01*
X98985714Y-65300000D01*
X99033333Y-65347619D01*
X99414285Y-65347619D02*
X99461904Y-65300000D01*
X99557142Y-65252380D01*
X99795238Y-65252380D01*
X99890476Y-65300000D01*
X99938095Y-65347619D01*
X99985714Y-65442857D01*
X99985714Y-65538095D01*
X99938095Y-65680952D01*
X99366666Y-66252380D01*
X99985714Y-66252380D01*
D13*
X85896428Y-116846428D02*
X85646428Y-116846428D01*
X85646428Y-117239285D02*
X85646428Y-116489285D01*
X86003571Y-116489285D01*
X86289285Y-117239285D02*
X86289285Y-116489285D01*
X86646428Y-117239285D02*
X86646428Y-116489285D01*
X86825000Y-116489285D01*
X86932142Y-116525000D01*
X87003571Y-116596428D01*
X87039285Y-116667857D01*
X87075000Y-116810714D01*
X87075000Y-116917857D01*
X87039285Y-117060714D01*
X87003571Y-117132142D01*
X86932142Y-117203571D01*
X86825000Y-117239285D01*
X86646428Y-117239285D01*
X87325000Y-116489285D02*
X87789285Y-116489285D01*
X87539285Y-116775000D01*
X87646428Y-116775000D01*
X87717857Y-116810714D01*
X87753571Y-116846428D01*
X87789285Y-116917857D01*
X87789285Y-117096428D01*
X87753571Y-117167857D01*
X87717857Y-117203571D01*
X87646428Y-117239285D01*
X87432142Y-117239285D01*
X87360714Y-117203571D01*
X87325000Y-117167857D01*
D14*
X89857142Y-72657142D02*
X89809523Y-72704761D01*
X89666666Y-72752380D01*
X89571428Y-72752380D01*
X89428571Y-72704761D01*
X89333333Y-72609523D01*
X89285714Y-72514285D01*
X89238095Y-72323809D01*
X89238095Y-72180952D01*
X89285714Y-71990476D01*
X89333333Y-71895238D01*
X89428571Y-71800000D01*
X89571428Y-71752380D01*
X89666666Y-71752380D01*
X89809523Y-71800000D01*
X89857142Y-71847619D01*
X90809523Y-72752380D02*
X90238095Y-72752380D01*
X90523809Y-72752380D02*
X90523809Y-71752380D01*
X90428571Y-71895238D01*
X90333333Y-71990476D01*
X90238095Y-72038095D01*
X91428571Y-71752380D02*
X91523809Y-71752380D01*
X91619047Y-71800000D01*
X91666666Y-71847619D01*
X91714285Y-71942857D01*
X91761904Y-72133333D01*
X91761904Y-72371428D01*
X91714285Y-72561904D01*
X91666666Y-72657142D01*
X91619047Y-72704761D01*
X91523809Y-72752380D01*
X91428571Y-72752380D01*
X91333333Y-72704761D01*
X91285714Y-72657142D01*
X91238095Y-72561904D01*
X91190476Y-72371428D01*
X91190476Y-72133333D01*
X91238095Y-71942857D01*
X91285714Y-71847619D01*
X91333333Y-71800000D01*
X91428571Y-71752380D01*
D13*
X112730952Y-34076190D02*
X112730952Y-33576190D01*
X112850000Y-33576190D01*
X112921428Y-33600000D01*
X112969047Y-33647619D01*
X112992857Y-33695238D01*
X113016666Y-33790476D01*
X113016666Y-33861904D01*
X112992857Y-33957142D01*
X112969047Y-34004761D01*
X112921428Y-34052380D01*
X112850000Y-34076190D01*
X112730952Y-34076190D01*
X113445238Y-33742857D02*
X113445238Y-34076190D01*
X113326190Y-33552380D02*
X113207142Y-33909523D01*
X113516666Y-33909523D01*
X102028571Y-111639285D02*
X102028571Y-112246428D01*
X102064285Y-112317857D01*
X102100000Y-112353571D01*
X102171428Y-112389285D01*
X102314285Y-112389285D01*
X102385714Y-112353571D01*
X102421428Y-112317857D01*
X102457142Y-112246428D01*
X102457142Y-111639285D01*
X103171428Y-111639285D02*
X102814285Y-111639285D01*
X102778571Y-111996428D01*
X102814285Y-111960714D01*
X102885714Y-111925000D01*
X103064285Y-111925000D01*
X103135714Y-111960714D01*
X103171428Y-111996428D01*
X103207142Y-112067857D01*
X103207142Y-112246428D01*
X103171428Y-112317857D01*
X103135714Y-112353571D01*
X103064285Y-112389285D01*
X102885714Y-112389285D01*
X102814285Y-112353571D01*
X102778571Y-112317857D01*
X87232804Y-44236357D02*
X87611611Y-44615165D01*
X87662119Y-44716180D01*
X87662119Y-44817195D01*
X87611611Y-44918210D01*
X87561104Y-44968718D01*
X87889403Y-43933312D02*
X88242956Y-44286865D01*
X87561104Y-43857550D02*
X87813642Y-44362626D01*
X88141941Y-44034327D01*
X118994047Y-106610714D02*
X118344047Y-106610714D01*
X118344047Y-106432142D01*
X118375000Y-106325000D01*
X118436904Y-106253571D01*
X118498809Y-106217857D01*
X118622619Y-106182142D01*
X118715476Y-106182142D01*
X118839285Y-106217857D01*
X118901190Y-106253571D01*
X118963095Y-106325000D01*
X118994047Y-106432142D01*
X118994047Y-106610714D01*
X118994047Y-105467857D02*
X118994047Y-105896428D01*
X118994047Y-105682142D02*
X118344047Y-105682142D01*
X118436904Y-105753571D01*
X118498809Y-105825000D01*
X118529761Y-105896428D01*
X118994047Y-104753571D02*
X118994047Y-105182142D01*
X118994047Y-104967857D02*
X118344047Y-104967857D01*
X118436904Y-105039285D01*
X118498809Y-105110714D01*
X118529761Y-105182142D01*
X127480952Y-34076190D02*
X127480952Y-33576190D01*
X127600000Y-33576190D01*
X127671428Y-33600000D01*
X127719047Y-33647619D01*
X127742857Y-33695238D01*
X127766666Y-33790476D01*
X127766666Y-33861904D01*
X127742857Y-33957142D01*
X127719047Y-34004761D01*
X127671428Y-34052380D01*
X127600000Y-34076190D01*
X127480952Y-34076190D01*
X128052380Y-33790476D02*
X128004761Y-33766666D01*
X127980952Y-33742857D01*
X127957142Y-33695238D01*
X127957142Y-33671428D01*
X127980952Y-33623809D01*
X128004761Y-33600000D01*
X128052380Y-33576190D01*
X128147619Y-33576190D01*
X128195238Y-33600000D01*
X128219047Y-33623809D01*
X128242857Y-33671428D01*
X128242857Y-33695238D01*
X128219047Y-33742857D01*
X128195238Y-33766666D01*
X128147619Y-33790476D01*
X128052380Y-33790476D01*
X128004761Y-33814285D01*
X127980952Y-33838095D01*
X127957142Y-33885714D01*
X127957142Y-33980952D01*
X127980952Y-34028571D01*
X128004761Y-34052380D01*
X128052380Y-34076190D01*
X128147619Y-34076190D01*
X128195238Y-34052380D01*
X128219047Y-34028571D01*
X128242857Y-33980952D01*
X128242857Y-33885714D01*
X128219047Y-33838095D01*
X128195238Y-33814285D01*
X128147619Y-33790476D01*
X108216666Y-35326190D02*
X108050000Y-35088095D01*
X107930952Y-35326190D02*
X107930952Y-34826190D01*
X108121428Y-34826190D01*
X108169047Y-34850000D01*
X108192857Y-34873809D01*
X108216666Y-34921428D01*
X108216666Y-34992857D01*
X108192857Y-35040476D01*
X108169047Y-35064285D01*
X108121428Y-35088095D01*
X107930952Y-35088095D01*
X108669047Y-34826190D02*
X108430952Y-34826190D01*
X108407142Y-35064285D01*
X108430952Y-35040476D01*
X108478571Y-35016666D01*
X108597619Y-35016666D01*
X108645238Y-35040476D01*
X108669047Y-35064285D01*
X108692857Y-35111904D01*
X108692857Y-35230952D01*
X108669047Y-35278571D01*
X108645238Y-35302380D01*
X108597619Y-35326190D01*
X108478571Y-35326190D01*
X108430952Y-35302380D01*
X108407142Y-35278571D01*
D14*
X118157142Y-71857142D02*
X118109523Y-71904761D01*
X117966666Y-71952380D01*
X117871428Y-71952380D01*
X117728571Y-71904761D01*
X117633333Y-71809523D01*
X117585714Y-71714285D01*
X117538095Y-71523809D01*
X117538095Y-71380952D01*
X117585714Y-71190476D01*
X117633333Y-71095238D01*
X117728571Y-71000000D01*
X117871428Y-70952380D01*
X117966666Y-70952380D01*
X118109523Y-71000000D01*
X118157142Y-71047619D01*
X118538095Y-71047619D02*
X118585714Y-71000000D01*
X118680952Y-70952380D01*
X118919047Y-70952380D01*
X119014285Y-71000000D01*
X119061904Y-71047619D01*
X119109523Y-71142857D01*
X119109523Y-71238095D01*
X119061904Y-71380952D01*
X118490476Y-71952380D01*
X119109523Y-71952380D01*
X119728571Y-70952380D02*
X119823809Y-70952380D01*
X119919047Y-71000000D01*
X119966666Y-71047619D01*
X120014285Y-71142857D01*
X120061904Y-71333333D01*
X120061904Y-71571428D01*
X120014285Y-71761904D01*
X119966666Y-71857142D01*
X119919047Y-71904761D01*
X119823809Y-71952380D01*
X119728571Y-71952380D01*
X119633333Y-71904761D01*
X119585714Y-71857142D01*
X119538095Y-71761904D01*
X119490476Y-71571428D01*
X119490476Y-71333333D01*
X119538095Y-71142857D01*
X119585714Y-71047619D01*
X119633333Y-71000000D01*
X119728571Y-70952380D01*
D13*
X98970238Y-108739285D02*
X98970238Y-107989285D01*
X99125000Y-107989285D01*
X99217857Y-108025000D01*
X99279761Y-108096428D01*
X99310714Y-108167857D01*
X99341666Y-108310714D01*
X99341666Y-108417857D01*
X99310714Y-108560714D01*
X99279761Y-108632142D01*
X99217857Y-108703571D01*
X99125000Y-108739285D01*
X98970238Y-108739285D01*
X99898809Y-107989285D02*
X99775000Y-107989285D01*
X99713095Y-108025000D01*
X99682142Y-108060714D01*
X99620238Y-108167857D01*
X99589285Y-108310714D01*
X99589285Y-108596428D01*
X99620238Y-108667857D01*
X99651190Y-108703571D01*
X99713095Y-108739285D01*
X99836904Y-108739285D01*
X99898809Y-108703571D01*
X99929761Y-108667857D01*
X99960714Y-108596428D01*
X99960714Y-108417857D01*
X99929761Y-108346428D01*
X99898809Y-108310714D01*
X99836904Y-108275000D01*
X99713095Y-108275000D01*
X99651190Y-108310714D01*
X99620238Y-108346428D01*
X99589285Y-108417857D01*
D11*
X114430000Y-115670000D02*
X101670000Y-115670000D01*
X115700000Y-115670000D02*
X117030000Y-115670000D01*
X117030000Y-115670000D02*
X117030000Y-117000000D01*
X114430000Y-115670000D02*
X114430000Y-118330000D01*
X101670000Y-115670000D02*
X101670000Y-118330000D01*
X114430000Y-118330000D02*
X101670000Y-118330000D01*
X111972936Y-64065000D02*
X112427064Y-64065000D01*
X111972936Y-65535000D02*
X112427064Y-65535000D01*
X131970000Y-38600000D02*
X133070000Y-38600000D01*
X133070000Y-38600000D02*
X133070000Y-40400000D01*
X133070000Y-40400000D02*
X131970000Y-40400000D01*
X131970000Y-40400000D02*
X131970000Y-38600000D01*
X120435000Y-34922936D02*
X120435000Y-35377064D01*
X118965000Y-34922936D02*
X118965000Y-35377064D01*
X96335000Y-106227064D02*
X96335000Y-105772936D01*
X94865000Y-106227064D02*
X94865000Y-105772936D01*
X110488748Y-96615000D02*
X111011252Y-96615000D01*
X110488748Y-98085000D02*
X111011252Y-98085000D01*
X94038748Y-70935000D02*
X94561252Y-70935000D01*
X94038748Y-69465000D02*
X94561252Y-69465000D01*
X123800000Y-68120000D02*
X121800000Y-68120000D01*
X121800000Y-65880000D02*
X122800000Y-65880000D01*
X126050000Y-104600000D02*
X122150000Y-104600000D01*
X126050000Y-104600000D02*
X126050000Y-102600000D01*
X126050000Y-102600000D02*
X122150000Y-102600000D01*
X115265000Y-68972936D02*
X115265000Y-69427064D01*
X116735000Y-68972936D02*
X116735000Y-69427064D01*
X116400000Y-96500000D02*
X116400000Y-98500000D01*
X116400000Y-96500000D02*
X120300000Y-96500000D01*
X116400000Y-98500000D02*
X120300000Y-98500000D01*
X98503335Y-73352740D02*
X98503335Y-72902740D01*
X105723335Y-80122740D02*
X105273335Y-80122740D01*
X98503335Y-79672740D02*
X98503335Y-80122740D01*
X105723335Y-73352740D02*
X105723335Y-72902740D01*
X105723335Y-79672740D02*
X105723335Y-80122740D01*
X105723335Y-72902740D02*
X105273335Y-72902740D01*
X105273335Y-72902740D02*
X105273335Y-71612740D01*
X98503335Y-80122740D02*
X98953335Y-80122740D01*
X98503335Y-72902740D02*
X98953335Y-72902740D01*
X104165000Y-34872936D02*
X104165000Y-35327064D01*
X105635000Y-34872936D02*
X105635000Y-35327064D01*
X107415000Y-31340000D02*
X107415000Y-33260000D01*
X107415000Y-33260000D02*
X110100000Y-33260000D01*
X110100000Y-31340000D02*
X107415000Y-31340000D01*
X100635000Y-34860436D02*
X100635000Y-35314564D01*
X99165000Y-34860436D02*
X99165000Y-35314564D01*
X115960000Y-104960000D02*
X114700000Y-104960000D01*
X109140000Y-104960000D02*
X110400000Y-104960000D01*
X115960000Y-98950000D02*
X115960000Y-104960000D01*
X109140000Y-101200000D02*
X109140000Y-104960000D01*
X105887740Y-70261905D02*
X105887740Y-65761905D01*
X105887740Y-65761905D02*
X100487740Y-65761905D01*
X94038748Y-77865000D02*
X94561252Y-77865000D01*
X94038748Y-79335000D02*
X94561252Y-79335000D01*
X98735000Y-106227064D02*
X98735000Y-105772936D01*
X97265000Y-106227064D02*
X97265000Y-105772936D01*
X114065000Y-34922936D02*
X114065000Y-35377064D01*
X115535000Y-34922936D02*
X115535000Y-35377064D01*
X130285000Y-34972936D02*
X130285000Y-35427064D01*
X128815000Y-34972936D02*
X128815000Y-35427064D01*
X100345563Y-115710000D02*
X101410000Y-114645563D01*
X94590000Y-108890000D02*
X96940000Y-108890000D01*
X95654437Y-115710000D02*
X94590000Y-114645563D01*
X101410000Y-108890000D02*
X99060000Y-108890000D01*
X100345563Y-115710000D02*
X99060000Y-115710000D01*
X95654437Y-115710000D02*
X96940000Y-115710000D01*
X94590000Y-114645563D02*
X94590000Y-108890000D01*
X101410000Y-114645563D02*
X101410000Y-108890000D01*
X101510000Y-103110000D02*
X99160000Y-103110000D01*
X100445563Y-96290000D02*
X99160000Y-96290000D01*
X94690000Y-103110000D02*
X97040000Y-103110000D01*
X95754437Y-96290000D02*
X94690000Y-97354437D01*
X94690000Y-97354437D02*
X94690000Y-103110000D01*
X95754437Y-96290000D02*
X97040000Y-96290000D01*
X100445563Y-96290000D02*
X101510000Y-97354437D01*
X101510000Y-97354437D02*
X101510000Y-103110000D01*
X111938748Y-73065000D02*
X112461252Y-73065000D01*
X111938748Y-74535000D02*
X112461252Y-74535000D01*
X125335000Y-34972936D02*
X125335000Y-35427064D01*
X123865000Y-34972936D02*
X123865000Y-35427064D01*
X109585000Y-74511252D02*
X109585000Y-73988748D01*
X108115000Y-74511252D02*
X108115000Y-73988748D01*
X90915076Y-37787868D02*
X92187869Y-36515075D01*
X92187869Y-36515075D02*
X91410051Y-35737258D01*
X91410051Y-35737258D02*
X90137258Y-37010051D01*
X90137258Y-37010051D02*
X90915076Y-37787868D01*
X109088748Y-109285000D02*
X109611252Y-109285000D01*
X109088748Y-107815000D02*
X109611252Y-107815000D01*
X117020000Y-72700000D02*
X117020000Y-73700000D01*
X114780000Y-74700000D02*
X114780000Y-72700000D01*
X119215000Y-106472936D02*
X119215000Y-106927064D01*
X120685000Y-106472936D02*
X120685000Y-106927064D01*
X127740000Y-71735000D02*
X127290000Y-71735000D01*
X131710000Y-71735000D02*
X131710000Y-62265000D01*
X127290000Y-70785000D02*
X125800000Y-70785000D01*
X131260000Y-71735000D02*
X131710000Y-71735000D01*
X127290000Y-62265000D02*
X127290000Y-63215000D01*
X127290000Y-71735000D02*
X127290000Y-70785000D01*
X131710000Y-62265000D02*
X131260000Y-62265000D01*
X127740000Y-62265000D02*
X127290000Y-62265000D01*
X114088748Y-98085000D02*
X114611252Y-98085000D01*
X114088748Y-96615000D02*
X114611252Y-96615000D01*
X94038748Y-75765000D02*
X94561252Y-75765000D01*
X94038748Y-77235000D02*
X94561252Y-77235000D01*
X112427064Y-67765000D02*
X111972936Y-67765000D01*
X112427064Y-69235000D02*
X111972936Y-69235000D01*
X122215000Y-33360000D02*
X124900000Y-33360000D01*
X122215000Y-31440000D02*
X122215000Y-33360000D01*
X124900000Y-31440000D02*
X122215000Y-31440000D01*
X111938748Y-70365000D02*
X112461252Y-70365000D01*
X111938748Y-71835000D02*
X112461252Y-71835000D01*
X120735000Y-100811252D02*
X120735000Y-100288748D01*
X119265000Y-100811252D02*
X119265000Y-100288748D01*
X102515000Y-33260000D02*
X105200000Y-33260000D01*
X105200000Y-31340000D02*
X102515000Y-31340000D01*
X102515000Y-31340000D02*
X102515000Y-33260000D01*
X118135000Y-77590000D02*
X117185000Y-77590000D01*
X113665000Y-81560000D02*
X113665000Y-82010000D01*
X114615000Y-77590000D02*
X114615000Y-76100000D01*
X113665000Y-82010000D02*
X118135000Y-82010000D01*
X118135000Y-82010000D02*
X118135000Y-81560000D01*
X113665000Y-78040000D02*
X113665000Y-77590000D01*
X113665000Y-77590000D02*
X114615000Y-77590000D01*
X118135000Y-78040000D02*
X118135000Y-77590000D01*
X124850000Y-101810000D02*
X126800000Y-101810000D01*
X124850000Y-101810000D02*
X122900000Y-101810000D01*
X124850000Y-96690000D02*
X126800000Y-96690000D01*
X124850000Y-96690000D02*
X121400000Y-96690000D01*
X117985000Y-100322936D02*
X117985000Y-100777064D01*
X116515000Y-100322936D02*
X116515000Y-100777064D01*
X96727064Y-80065000D02*
X96272936Y-80065000D01*
X96727064Y-81535000D02*
X96272936Y-81535000D01*
X107461252Y-72135000D02*
X106938748Y-72135000D01*
X107461252Y-70665000D02*
X106938748Y-70665000D01*
X118185000Y-106472936D02*
X118185000Y-106927064D01*
X116715000Y-106472936D02*
X116715000Y-106927064D01*
X103900000Y-103400000D02*
X102200000Y-103400000D01*
X102200000Y-103400000D02*
X102200000Y-96800000D01*
X108600000Y-103400000D02*
X106900000Y-103400000D01*
X108600000Y-96800000D02*
X108600000Y-103400000D01*
X106900000Y-96800000D02*
X108600000Y-96800000D01*
X102200000Y-96800000D02*
X103900000Y-96800000D01*
X105223335Y-79622740D02*
X104748335Y-79622740D01*
X100003335Y-74402740D02*
X100478335Y-74402740D01*
X100003335Y-79622740D02*
X100478335Y-79622740D01*
X100003335Y-79147740D02*
X100003335Y-79622740D01*
X105223335Y-79147740D02*
X105223335Y-79622740D01*
X100003335Y-74877740D02*
X100003335Y-74402740D01*
X105223335Y-74877740D02*
X105223335Y-74402740D01*
X122038748Y-70635000D02*
X122561252Y-70635000D01*
X122038748Y-69165000D02*
X122561252Y-69165000D01*
X100200000Y-31327500D02*
X97515000Y-31327500D01*
X97515000Y-31327500D02*
X97515000Y-33247500D01*
X97515000Y-33247500D02*
X100200000Y-33247500D01*
X107922740Y-67750653D02*
X107922740Y-68273157D01*
X106452740Y-67750653D02*
X106452740Y-68273157D01*
X120000000Y-31390000D02*
X117315000Y-31390000D01*
X117315000Y-33310000D02*
X120000000Y-33310000D01*
X117315000Y-31390000D02*
X117315000Y-33310000D01*
X94038748Y-73665000D02*
X94561252Y-73665000D01*
X94038748Y-75135000D02*
X94561252Y-75135000D01*
X124348715Y-117962065D02*
X131231632Y-108132240D01*
X131231632Y-108132240D02*
X128405558Y-106153402D01*
X128405558Y-106153402D02*
X121522641Y-115983227D01*
X121522641Y-115983227D02*
X124348715Y-117962065D01*
X109564564Y-109815000D02*
X109110436Y-109815000D01*
X109564564Y-111285000D02*
X109110436Y-111285000D01*
X99922740Y-68273157D02*
X99922740Y-67750653D01*
X98452740Y-68273157D02*
X98452740Y-67750653D01*
X94038748Y-73035000D02*
X94561252Y-73035000D01*
X94038748Y-71565000D02*
X94561252Y-71565000D01*
X115100000Y-31390000D02*
X112415000Y-31390000D01*
X112415000Y-33310000D02*
X115100000Y-33310000D01*
X112415000Y-31390000D02*
X112415000Y-33310000D01*
X107260000Y-107800000D02*
X107260000Y-109750000D01*
X107260000Y-107800000D02*
X107260000Y-104350000D01*
X102140000Y-107800000D02*
X102140000Y-109750000D01*
X102140000Y-107800000D02*
X102140000Y-105850000D01*
X85415076Y-43287868D02*
X86687869Y-42015075D01*
X86687869Y-42015075D02*
X85910051Y-41237258D01*
X85910051Y-41237258D02*
X84637258Y-42510051D01*
X84637258Y-42510051D02*
X85415076Y-43287868D01*
X120950000Y-104600000D02*
X117050000Y-104600000D01*
X120950000Y-102600000D02*
X117050000Y-102600000D01*
X120950000Y-104600000D02*
X120950000Y-102600000D01*
X127165000Y-31440000D02*
X127165000Y-33360000D01*
X127165000Y-33360000D02*
X129850000Y-33360000D01*
X129850000Y-31440000D02*
X127165000Y-31440000D01*
X110535000Y-34872936D02*
X110535000Y-35327064D01*
X109065000Y-34872936D02*
X109065000Y-35327064D01*
X118065000Y-69461252D02*
X118065000Y-68938748D01*
X119535000Y-69461252D02*
X119535000Y-68938748D01*
X101600000Y-103750000D02*
X101600000Y-107650000D01*
X101600000Y-103750000D02*
X99600000Y-103750000D01*
X99600000Y-103750000D02*
X99600000Y-107650000D01*
M02*
