0
SECTION
2
HEADER
9
$INSUNITS
70
4
9
$ACADVER
1
AC1014
9
$HANDSEED
5
FFFF
0
ENDSEC
0
SECTION
2
TABLES
0
TABLE
2
VPORT
5
8
100
AcDbSymbolTable
0
ENDTAB
0
TABLE
2
LTYPE
5
5
100
AcDbSymbolTable
0
LTYPE
5
14
100
AcDbSymbolTableRecord
100
AcDbLinetypeTableRecord
2
BYBLOCK
70
0
0
LTYPE
5
15
100
AcDbSymbolTableRecord
100
AcDbLinetypeTableRecord
2
BYLAYER
70
0
0
ENDTAB
0
TABLE
2
LAYER
5
2
100
AcDbSymbolTable
70
2
0
LAYER
5
50
100
AcDbSymbolTableRecord
100
AcDbLayerTableRecord
2
0
70
0
6
CONTINUOUS
0
ENDTAB
0
TABLE
2
STYLE
5
3
100
AcDbSymbolTable
70
1
0
STYLE
5
11
100
AcDbSymbolTableRecord
100
AcDbTextStyleTableRecord
2
STANDARD
70
0
0
ENDTAB
0
TABLE
2
VIEW
5
6
100
AcDbSymbolTable
70
0
0
ENDTAB
0
TABLE
2
UCS
5
7
100
AcDbSymbolTable
70
0
0
ENDTAB
0
TABLE
2
APPID
5
9
100
AcDbSymbolTable
70
2
0
APPID
5
12
100
AcDbSymbolTableRecord
100
AcDbRegAppTableRecord
2
ACAD
70
0
0
ENDTAB
0
TABLE
2
DIMSTYLE
5
A
100
AcDbSymbolTable
70
1
0
ENDTAB
0
TABLE
2
BLOCK_RECORD
5
1
100
AcDbSymbolTable
70
1
0
BLOCK_RECORD
5
1F
100
AcDbSymbolTableRecord
100
AcDbBlockTableRecord
2
*MODEL_SPACE
0
BLOCK_RECORD
5
1B
100
AcDbSymbolTableRecord
100
AcDbBlockTableRecord
2
*PAPER_SPACE
0
ENDTAB
0
ENDSEC
0
SECTION
2
BLOCKS
0
BLOCK
5
20
100
AcDbEntity
100
AcDbBlockBegin
2
*MODEL_SPACE
0
ENDBLK
5
21
100
AcDbEntity
100
AcDbBlockEnd
0
BLOCK
5
1C
100
AcDbEntity
100
AcDbBlockBegin
2
*PAPER_SPACE
0
ENDBLK
5
1D
100
AcDbEntity
100
AcDbBlockEnd
0
ENDSEC
0
SECTION
2
ENTITIES
0
LWPOLYLINE
5
100
100
AcDbEntity
8
0
100
AcDbPolyline
90
4
70
1
43
0.0
10
7.9102540378441493
20
6.2990381056767442
42
0.99999999999999989
10
9.4102540378438526
20
3.7009618943232563
10
11.142304845409853
20
4.7009618943232567
42
0.9999999925494194
10
9.6423048454129994
20
7.2990381056770008
0
LWPOLYLINE
5
101
100
AcDbEntity
8
0
100
AcDbPolyline
90
4
70
1
43
0.0
10
1.5000000000000002
20
-10
42
0.99999999999999989
10
-1.5000000000000002
20
-10
10
-1.5000000000000002
20
-12.000000000000002
42
0.99999999999999989
10
1.5000000000000002
20
-12.000000000000002
0
LWPOLYLINE
5
102
100
AcDbEntity
8
0
100
AcDbPolyline
90
4
70
1
43
0.0
10
-9.4102540378380528
20
3.7009618943199065
42
0.99999999999999989
10
-7.910254037837916
20
6.2990381056731461
10
-9.6423048454138982
20
7.2990381056771758
42
0.9999999925494194
10
-11.142304845413999
20
4.700961894324001
0
LWPOLYLINE
5
103
100
AcDbEntity
8
0
100
AcDbPolyline
90
192
70
1
43
0.0
10
18.935691077834115
20
-6.4373599716593208
42
0.98018683327649681
10
18.663157216827297
20
-7.1893367357270579
10
19.592811881329688
20
-7.574412306128357
42
-1.0000000223517418
10
19.21012846348
20
-8.4982918446519999
10
18.28047378445013
20
-8.1132162682736819
42
0.95599860521885172
10
17.941743334114342
20
-8.8370722602441472
42
-0.016598393700524502
10
17.315980453598922
20
-10.007837974837177
42
0.980186833295277
10
16.901979865249999
20
-10.692196997550001
10
17.738646960098087
20
-11.251240077398233
42
-1.0000000210734243
10
17.183076739080001
20
-12.082709697718002
10
16.346409632220901
20
-11.52366660986665
42
0.95599860521641788
10
15.872970493937164
20
-12.167530879285742
42
-0.016598393700532944
10
15.03082641143938
20
-13.193720377094104
42
0.98018683328227085
10
14.491268906200002
20
-13.784162124992001
10
15.202795782948836
20
-14.495689001769838
42
-1.0000000210734243
10
14.495689011970001
20
-15.202795793163002
10
13.784162125000618
20
-14.491268906191381
42
0.95599860521873825
10
13.19420829934786
20
-15.030398110270573
42
-0.016598393700539161
10
12.16804613967791
20
-15.872575504387269
42
0.98018683328374512
10
11.523666609879999
20
-16.346409632217998
10
12.082709687681426
20
-17.183076724057738
42
-1.0000000247107805
10
11.251240085410002
20
-17.738646972102
10
10.692196997557611
20
-16.901979865249597
42
0.95599860522382518
10
10.008400079210995
20
-17.315655571026817
42
-0.016598393700453431
10
8.8376546786927932
20
-17.941456456490986
42
0.98018683328440359
10
8.1132162682909996
20
-18.280473784449999
10
8.4982918391295499
20
-19.210128450153697
42
-1.0000000210734243
10
7.5744123121399998
20
-19.592811895851
10
7.1893367357625859
20
-18.663157216822171
42
0.95599860521671298
10
6.4379746568089224
20
-18.935482098913688
42
-0.016598393700507402
10
5.1676371046135969
20
-19.320857298655653
42
0.98018683328517331
10
4.3909795754519996
20
-19.512029580953005
10
4.587289399077779
20
-20.498945710048496
42
-1.0000000210734243
10
3.6065041214890003
20
-20.694036046219001
10
3.4101942950307791
20
-19.707119902973048
42
0.95599860521731972
10
2.6201414787989212
20
-19.827628668881829
42
-0.016598393700505292
10
1.2990301346477615
20
-19.957768430094191
42
0.98018683328537726
10
0.50000000001799993
20
-19.993749023132001
10
0.49999999999999978
20
-20.999999982247573
42
-1.0000000210734243
10
-0.5
20
-20.999999996679005
10
-0.50000000000000067
20
-19.993749023132001
42
0.95599860521562663
10
-1.2983822668479972
20
-19.957810588566904
42
-0.016598393700506957
10
-2.6194978348873228
20
-19.82771371320958
42
0.98018683328549994
10
-3.4101942950130004
20
-19.707119902976
10
-3.6065041179651662
20
-20.694036028497031
42
-1.0000000247107805
10
-4.5872894018919999
20
-20.498945724203001
10
-4.390979575434006
20
-19.512029580956
42
0.95599860521610569
10
-5.1670099101220215
20
-19.321025039803214
42
-0.016598393700504404
10
-6.4373599716596264
20
-18.93569107783701
42
0.98018683328451384
10
-7.1893367357460001
20
-18.663157216828001
10
-7.574412306128357
20
-19.592811881337685
42
-1.0000000223517418
10
-8.4982918446519999
20
-19.210128463486001
10
-8.1132162682743907
20
-18.280473784456841
42
0.9559986052157049
10
-8.8370722602421736
20
-17.941743334115309
42
-0.016598393700501961
10
-10.007837974833711
20
-17.315980453600922
42
0.98018683328679623
10
-10.692196997550001
20
-16.901979865257999
10
-11.251240076688038
20
-17.738646959039205
42
-1.0000000223517418
10
-12.082709697718002
20
-17.183076739082001
10
-11.523666609868036
20
-16.346409632227974
42
0.95599860521470104
10
-12.16753087928798
20
-15.872970493943024
42
-0.016598393700514063
10
-13.193720377095591
20
-15.030826411446071
42
0.9801868332841438
10
-13.784162124992001
20
-14.491268906204002
10
-14.49568900177184
20
-15.202795782956839
42
-1.0000000210734243
10
-15.202795793163002
20
-14.495689011976001
10
-14.491268906191884
20
-13.784162125005121
42
0.95599860521646929
10
-15.030398110273254
20
-13.194208299352193
42
-0.016598393700508179
10
-15.87257550438872
20
-12.168046139684021
42
0.98018683328456946
10
-16.346409632217998
20
-11.523666609883001
10
-17.183076726019205
20
-12.082709688991038
42
-1.0000000223517418
10
-17.738646972102
20
-11.251240085415002
10
-16.901979865248215
20
-10.692196997565684
42
0.955998605216554
10
-17.315655571024674
20
-10.008400079214701
42
-0.016598393700506957
10
-17.941456456490986
20
-8.8376546786927932
42
0.98018683328440359
10
-18.280473784449999
20
-8.1132162682909996
10
-19.210128450153697
20
-8.4982918391295499
42
-1.0000000210734243
10
-19.592811895851
20
-7.5744123121399998
10
-18.663157216822171
20
-7.1893367357625859
42
0.95599860521671298
10
-18.935482098913688
20
-6.4379746568089224
42
-0.016598393700507402
10
-19.320857298655653
20
-5.1676371046135969
42
0.98018683328517331
10
-19.512029580953005
20
-4.3909795754519996
10
-20.498945710048496
20
-4.587289399077779
42
-1.0000000210734243
10
-20.694036046219001
20
-3.6065041214890003
10
-19.707119902973048
20
-3.4101942950307791
42
0.95599860521731972
10
-19.827628668881829
20
-2.6201414787989212
42
-0.016598393700505292
10
-19.957768430094191
20
-1.2990301346477615
42
0.98018683328537604
10
-19.993749023132001
20
-0.50000000001800005
10
-20.999999982247573
20
-0.49999999999999045
42
-1.0000000210734243
10
-20.999999996679005
20
0.5
10
-19.993749023132001
20
0.50000000000000067
42
0.95599860521562663
10
-19.957810588566904
20
1.2983822668479972
42
-0.016598393700506957
10
-19.82771371320958
20
2.6194978348873228
42
0.98018683328549994
10
-19.707119902976
20
3.4101942950130004
10
-20.694036028497031
20
3.6065041179651662
42
-1.0000000247107805
10
-20.498945724203001
20
4.5872894018919999
10
-19.512029580956
20
4.390979575434006
42
0.95599860521610569
10
-19.321025039803214
20
5.1670099101220215
42
-0.016598393700504404
10
-18.93569107783701
20
6.4373599716596264
42
0.98018683328451384
10
-18.663157216828001
20
7.1893367357460001
10
-19.592811881337685
20
7.574412306128357
42
-1.0000000223517418
10
-19.210128463486001
20
8.4982918446519999
10
-18.280473784456841
20
8.1132162682743907
42
0.95599860521570368
10
-17.941743334111727
20
8.8370722602403831
42
-0.016598393700415669
10
-17.315980453600922
20
10.00783797482571
42
0.98018683329203826
10
-16.901979865257999
20
10.692196997550001
10
-17.738646959039205
20
11.251240076692037
42
-1.0000000223517418
10
-17.183076739082001
20
12.082709697710001
10
-16.346409632226127
20
11.523666609862799
42
0.95599860521485691
10
-15.872970493945829
20
12.16753087928215
42
-0.016598393700527504
10
-15.030826411448551
20
13.19372037709077
42
0.98018683329240952
10
-14.491268906204002
20
13.784162124990003
10
-15.202795782052931
20
14.495689000854931
42
-1.0000000223517418
10
-14.495689011976001
20
15.20279579316
10
-13.784162125004119
20
14.491268906190882
42
0.95599860521471758
10
-13.194208299349492
20
15.030398110267173
42
-0.016598393700532944
10
-12.168046139680158
20
15.872575504383679
42
0.98018683326877643
10
-11.523666609883001
20
16.346409632210001
10
-12.082709688991038
20
17.183076726015209
42
-1.0000000223517418
10
-11.251240085415002
20
17.7386469721
10
-10.692196997561989
20
16.901979865242684
42
0.95599860520851976
10
-10.008400079215598
20
17.31565557102105
42
-0.016598393700528281
10
-8.8376546786923971
20
17.941456456488183
42
0.98018683328554734
10
-8.1132162682909996
20
18.280473784449999
10
-8.4982918391295499
20
19.210128450140697
42
-1.0000000210734243
10
-7.5744123121399998
20
19.592811895850001
10
-7.1893367357625859
20
18.663157216820171
42
0.95599860521895563
10
-6.4379746568097609
20
18.935482098912384
42
-0.016598393700503183
10
-5.1676371046148457
20
19.320857298654325
42
0.98018683329468104
10
-4.3909795754519996
20
19.512029580949999
10
-4.5872893988283909
20
20.49894570878774
42
-1.0000000223517418
10
-3.6065041214890003
20
20.694036046210002
10
-3.4101942950305872
20
19.707119902970081
42
0.95599860521851399
10
-2.6201414787988444
20
19.82762866887882
42
-0.016598393700504404
10
-1.2990301346479558
20
19.957768430091175
42
0.98018683329394662
10
-0.50000000001799993
20
19.99374902313
10
-0.49999999999999462
20
20.999999982256583
42
-1.0000000210734243
10
0.5
20
20.999999996669999
10
0.50000000000000067
20
19.99374902313
42
0.95599860522041624
10
1.2983822668483558
20
19.957810588564893
42
-0.016598393700507402
10
2.6194978348875821
20
19.827713713207547
42
0.98018683328551892
10
3.4101942950130004
20
19.70711990297
10
3.6065041184253923
20
20.694036030797744
42
-1.0000000223517418
10
4.5872894018919999
20
20.498945724199999
10
4.3909795754334322
20
19.512029580950113
42
0.9559986052160534
10
5.1670099101220384
20
19.321025039800265
42
-0.016598393700502739
10
6.4373599716593208
20
18.935691077834115
42
0.98018683327649547
10
7.1893367357460001
20
18.66315721682
10
7.574412306128357
20
19.592811881329688
42
-1.0000000223517418
10
8.4982918446519999
20
19.21012846348
10
8.1132162682736819
20
18.28047378445013
42
0.95599860521885105
10
8.8370722602423797
20
17.941743334110743
42
-0.016598393700437881
10
10.007837974829176
20
17.315980453598918
42
0.98018683330052048
10
10.692196997550001
20
16.901979865249999
10
11.251240076692037
20
17.738646959035208
42
-1.0000000223517418
10
12.082709697710001
20
17.183076739080001
10
11.523666609861415
20
16.346409632219054
42
0.95599860521657476
10
12.167530879279944
20
15.872970493939942
42
-0.016598393700545826
10
13.19372037708928
20
15.030826411441858
42
0.9801868332905338
10
13.784162124990003
20
14.491268906200002
10
14.495688999186838
20
15.202795780376837
42
-1.0000000247107805
10
15.20279579316
20
14.495689011970001
10
14.491268906190381
20
13.78416212499962
42
0.95599860521699043
10
15.030398110264523
20
13.194208299345133
42
-0.016598393700563482
10
15.872575504382231
20
12.168046139674047
42
0.98018683326795197
10
16.346409632210001
20
11.523666609879999
10
17.183076726015209
20
12.082709688992036
42
-1.0000000223517418
10
17.7386469721
20
11.251240085410002
10
16.901979865244069
20
10.692196997553916
42
0.95599860521579672
10
17.315655571023228
20
10.00840007921183
42
-0.016598393700473862
10
17.941456456488183
20
8.8376546786923971
42
0.98018683328554734
10
18.280473784449999
20
8.1132162682909996
10
19.210128450140697
20
8.4982918391295499
42
-1.0000000210734243
10
19.592811895850001
20
7.5744123121399998
10
18.663157216820171
20
7.1893367357625859
42
0.95599860521895563
10
18.935482098912384
20
6.4379746568097609
42
-0.016598393700503183
10
19.320857298654325
20
5.1676371046148457
42
0.98018683329468104
10
19.512029580949999
20
4.3909795754519996
10
20.49894570878774
20
4.5872893988283909
42
-1.0000000223517418
10
20.694036046210002
20
3.6065041214890003
10
19.707119902970081
20
3.4101942950305872
42
0.95599860521851399
10
19.82762866887882
20
2.6201414787988444
42
-0.016598393700504404
10
19.957768430091175
20
1.2990301346479558
42
0.98018683329394662
10
19.99374902313
20
0.50000000001799993
10
20.999999982256583
20
0.499999999999995
42
-1.0000000210734243
10
20.999999996669999
20
-0.5
10
19.99374902313
20
-0.50000000000000067
42
0.95599860522041624
10
19.957810588564893
20
-1.2983822668483558
42
-0.016598393700507402
10
19.827713713207547
20
-2.6194978348875821
42
0.98018683328551892
10
19.70711990297
20
-3.4101942950130004
10
20.694036030797744
20
-3.6065041184253923
42
-1.0000000223517418
10
20.498945724199999
20
-4.5872894018919999
10
19.512029580950113
20
-4.3909795754334322
42
0.9559986052160534
10
19.321025039800265
20
-5.1670099101220384
42
-0.016598393700502739
0
CIRCLE
5
104
100
AcDbEntity
8
0
100
AcDbCircle
10
0
20
0
30
0
40
1.6500000000000001
210
0
220
0
230
1
0
CIRCLE
5
105
100
AcDbEntity
8
0
100
AcDbCircle
10
-9.5262794416290006
20
-5.5
30
0
40
1.5000000000000002
210
0
220
0
230
1
0
CIRCLE
5
106
100
AcDbEntity
8
0
100
AcDbCircle
10
9.5262794416290006
20
-5.5
30
0
40
1.5000000000000002
210
0
220
0
230
1
0
CIRCLE
5
107
100
AcDbEntity
8
0
100
AcDbCircle
10
0
20
11
30
0
40
1.5000000000000002
210
0
220
0
230
1
0
ENDSEC
0
SECTION
2
OBJECTS
0
DICTIONARY
5
C
100
AcDbDictionary
3
ACAD_GROUP
350
D
3
ACAD_MLINESTYLE
350
17
0
DICTIONARY
5
D
100
AcDbDictionary
0
DICTIONARY
5
1A
330
C
100
AcDbDictionary
0
DICTIONARY
5
17
100
AcDbDictionary
0
ENDSEC
0
EOF
