M48
INCH,TZ
T1C0.0157
T2C0.0394
%
G90
G05
T1
X-15138Y-5276
X-14249Y13476
X-13878Y-6575
X-13051Y-9075
X-12854Y-12126
X-12480Y-12028
X-12008Y-13819
X-11890Y-5866
X-11732Y-6713
X-11713Y-15335
X-11673Y-13248
X-11654Y-7933
X-11654Y-9508
X-11555Y-13642
X-10965Y-13996
X-10925Y-14488
X-10827Y17323
X-10433Y-14507
X-10335Y-13996
X-10256Y-6713
X-10157Y-11440
X-10157Y-11873
X-9843Y-14508
X-9724Y-11440
X-9724Y-11873
X-9646Y-9370
X-9469Y-14763
X-9350Y-5866
X-9295Y-9551
X-8799Y-6713
X-8760Y-7933
X-8543Y-8661
X-8071Y-7638
X-7874Y16614
X-7776Y-10650
X-7638Y-11043
X-7480Y-14724
X-7177Y-7274
X-7008Y-12362
X-6654Y-5669
X-6516Y-6043
X-6496Y16614
X-6369Y-6450
X-6260Y-11043
X-6181Y-10669
X-6008Y-6355
X-5866Y-7362
X-5866Y-7756
X-5866Y-9331
X-5780Y-6036
X-5118Y16614
X-5020Y-4035
X-4815Y-701
X-3740Y16614
X-2362Y16614
X-1457Y-9272
X-1339Y-79
X-1339Y-551
X-1339Y-5512
X-1339Y-5984
X-315Y-79
X-315Y-551
X-295Y-5512
X-295Y-5965
T2
X-12000Y-4000
X-12000Y-5000
X-11000Y-4000
X-11000Y-5000
X-10000Y-4000
X-10000Y-5000
X-9000Y-4000
X-9000Y-5000
X-8000Y-4000
X-8000Y-5000
X-7000Y-4000
X-7000Y-5000
T0
M30
