G04 #@! TF.GenerationSoftware,KiCad,Pcbnew,(6.0.1-0)*
G04 #@! TF.CreationDate,2022-04-24T19:17:23-04:00*
G04 #@! TF.ProjectId,mobo,6d6f626f-2e6b-4696-9361-645f70636258,rev?*
G04 #@! TF.SameCoordinates,Original*
G04 #@! TF.FileFunction,Copper,L2,Bot*
G04 #@! TF.FilePolarity,Positive*
%FSLAX46Y46*%
G04 Gerber Fmt 4.6, Leading zero omitted, Abs format (unit mm)*
G04 Created by KiCad (PCBNEW (6.0.1-0)) date 2022-04-24 19:17:23*
%MOMM*%
%LPD*%
G01*
G04 APERTURE LIST*
G04 #@! TA.AperFunction,ComponentPad*
%ADD10R,1.700000X1.700000*%
G04 #@! TD*
G04 #@! TA.AperFunction,ComponentPad*
%ADD11O,1.700000X1.700000*%
G04 #@! TD*
G04 #@! TA.AperFunction,ViaPad*
%ADD12C,0.800000*%
G04 #@! TD*
G04 #@! TA.AperFunction,Conductor*
%ADD13C,0.200000*%
G04 #@! TD*
G04 #@! TA.AperFunction,Conductor*
%ADD14C,0.750000*%
G04 #@! TD*
G04 #@! TA.AperFunction,Conductor*
%ADD15C,0.500000*%
G04 #@! TD*
G04 APERTURE END LIST*
D10*
X-17780000Y-10160000D03*
D11*
X-20320000Y-10160000D03*
X-22860000Y-10160000D03*
X-25400000Y-10160000D03*
X-27940000Y-10160000D03*
X-30480000Y-10160000D03*
D10*
X-17780000Y-12700000D03*
D11*
X-20320000Y-12700000D03*
X-22860000Y-12700000D03*
X-25400000Y-12700000D03*
X-27940000Y-12700000D03*
X-30480000Y-12700000D03*
D12*
X-3400000Y-15200000D03*
X-3400000Y-14000000D03*
X-750000Y-15150000D03*
X-750000Y-14000000D03*
X-3400000Y-200000D03*
X-800000Y-200000D03*
X-800000Y-1400000D03*
X-3400000Y-1400000D03*
X-35250000Y-16700000D03*
X-29800000Y-17050000D03*
X-22350000Y-17050000D03*
X-19000000Y-37400000D03*
X-14900000Y-23700000D03*
X-14900000Y-19700000D03*
X-12230000Y-1780000D03*
X-29600000Y-24150000D03*
X-22250000Y-20150000D03*
X-29600000Y-20150000D03*
X-33150000Y-23050000D03*
X-23750000Y-14900000D03*
X-30200000Y-14900000D03*
X-18230011Y-18475000D03*
X-14900000Y-18700000D03*
X-3700000Y-23550000D03*
X-21700000Y-22000000D03*
X-15700000Y-27100000D03*
X-19750000Y-27050000D03*
X-14681414Y-15331414D03*
X-24500000Y-23800000D03*
X-15259266Y-16140734D03*
X-15900000Y-28050000D03*
X-23609266Y-24259266D03*
X-19400000Y-28050000D03*
X-16177168Y-16383655D03*
X-24050000Y-37499000D03*
X-25000000Y-36849500D03*
X-16549500Y-15350000D03*
X-16900000Y-14400000D03*
X-29750000Y-38950000D03*
X-38450000Y-13400000D03*
X-17799500Y-31400000D03*
X-20000000Y42200000D03*
X-13000000Y42200000D03*
X-16500000Y42200000D03*
X-6000000Y42200000D03*
X-9500000Y42200000D03*
X-27500000Y44000000D03*
X-29350000Y-34650000D03*
X-36193134Y34229339D03*
X-29650000Y-33650000D03*
X-30500000Y-35100000D03*
X-12750000Y-10250000D03*
X-27750000Y-36800000D03*
X-26500000Y-36849011D03*
X-26250000Y-35550000D03*
X-27850000Y-35550000D03*
X-20499500Y-19400000D03*
X-26050000Y-17050000D03*
X-31700000Y-30550000D03*
X-32650000Y-30800000D03*
X-24700000Y-30157500D03*
X-25800000Y-30157500D03*
X-24700000Y-29057500D03*
X-25800000Y-29057500D03*
D13*
X-27500000Y44000000D02*
X-37800489Y33699511D01*
X-37800489Y33699511D02*
X-37800489Y-27062355D01*
X-37800489Y-27062355D02*
X-30412355Y-34450489D01*
X-30412355Y-34450489D02*
X-29499511Y-34450489D01*
X-29499511Y-34450489D02*
X-29350000Y-34600000D01*
X-29350000Y-34600000D02*
X-29350000Y-34650000D01*
D14*
X-3700000Y-23550000D02*
X-3700000Y-19650000D01*
X-3700000Y-19650000D02*
X-4700000Y-18650000D01*
X-4700000Y-18650000D02*
X-14850000Y-18650000D01*
X-14850000Y-18650000D02*
X-14900000Y-18700000D01*
D15*
X-12230000Y-5830000D02*
X-12230000Y-1780000D01*
X-12230000Y-1780000D02*
X-12230000Y-1500000D01*
D13*
X-21700000Y-22000000D02*
X-24900000Y-22000000D01*
X-24900000Y-22000000D02*
X-31700000Y-28800000D01*
X-31700000Y-28800000D02*
X-31700000Y-30550000D01*
X-29600000Y-20150000D02*
X-22250000Y-20150000D01*
X-30250000Y-20150000D02*
X-29600000Y-20150000D01*
X-33150000Y-23050000D02*
X-30250000Y-20150000D01*
D15*
X-30200000Y-14900000D02*
X-23750000Y-14900000D01*
X-18230011Y-18475000D02*
X-18150000Y-18394989D01*
X-18150000Y-18394989D02*
X-18150000Y-13070000D01*
X-18150000Y-13070000D02*
X-17780000Y-12700000D01*
D13*
X-16900000Y-14400000D02*
X-17500000Y-15000000D01*
X-17500000Y-31100500D02*
X-17799500Y-31400000D01*
X-17500000Y-15000000D02*
X-17500000Y-31100500D01*
X-16549500Y-15350000D02*
X-17150000Y-15950500D01*
X-17150000Y-15950500D02*
X-17150000Y-33250000D01*
X-17150000Y-33250000D02*
X-20749500Y-36849500D01*
X-20749500Y-36849500D02*
X-25000000Y-36849500D01*
X-16800000Y-17006487D02*
X-16800000Y-33450000D01*
X-16177168Y-16383655D02*
X-16800000Y-17006487D01*
X-16800000Y-33450000D02*
X-20849000Y-37499000D01*
X-20849000Y-37499000D02*
X-24050000Y-37499000D01*
X-16400000Y-17600000D02*
X-16400000Y-27550000D01*
X-15259266Y-16140734D02*
X-15259266Y-16459266D01*
X-15259266Y-16459266D02*
X-16400000Y-17600000D01*
X-16400000Y-27550000D02*
X-15900000Y-28050000D01*
X-14681414Y-15331414D02*
X-14500000Y-15512828D01*
X-14500000Y-16300000D02*
X-16050000Y-17850000D01*
X-14500000Y-15512828D02*
X-14500000Y-16300000D01*
X-16050000Y-17850000D02*
X-16050000Y-26750000D01*
X-16050000Y-26750000D02*
X-15700000Y-27100000D01*
X-27500000Y-36550000D02*
X-27500000Y-36767559D01*
X-27500000Y-36767559D02*
X-26117559Y-38150000D01*
X-21000000Y-38150000D02*
X-16450480Y-33600480D01*
X-16450480Y-33600480D02*
X-16450480Y-29519028D01*
X-16450480Y-29519028D02*
X-15050489Y-28119037D01*
X-15050489Y-28119037D02*
X-15050489Y-26830963D01*
X-15050489Y-26830963D02*
X-15700480Y-26180972D01*
X-27750000Y-36800000D02*
X-27500000Y-36550000D01*
X-15700480Y-26180972D02*
X-15700480Y-18050480D01*
X-26117559Y-38150000D02*
X-21000000Y-38150000D01*
X-15700480Y-18050480D02*
X-12750000Y-15100000D01*
X-12750000Y-15100000D02*
X-12750000Y-10250000D01*
X-18449011Y-31130963D02*
X-17849520Y-30531472D01*
X-26075748Y-36849011D02*
X-25426737Y-36200000D01*
X-25426737Y-36200000D02*
X-20705705Y-36200000D01*
X-17849520Y-30531472D02*
X-17849520Y-20350480D01*
X-21570000Y-11450000D02*
X-22860000Y-10160000D01*
X-26500000Y-36849011D02*
X-26075748Y-36849011D01*
X-20705705Y-36200000D02*
X-18449011Y-33943306D01*
X-17849520Y-20350480D02*
X-18879511Y-19320489D01*
X-18879511Y-19320489D02*
X-18879511Y-12220489D01*
X-19650000Y-11450000D02*
X-21570000Y-11450000D01*
X-18879511Y-12220489D02*
X-19650000Y-11450000D01*
X-18449011Y-33943306D02*
X-18449011Y-31130963D01*
X-27850000Y-35550000D02*
X-27200489Y-36199511D01*
X-25630972Y-35849520D02*
X-20849520Y-35849520D01*
X-27200489Y-36199511D02*
X-25980963Y-36199511D01*
X-25980963Y-36199511D02*
X-25630972Y-35849520D01*
X-20849520Y-35849520D02*
X-18798531Y-33798531D01*
X-18798531Y-33798531D02*
X-18798531Y-30986187D01*
X-19950000Y-14000000D02*
X-20900000Y-14000000D01*
X-20900000Y-14000000D02*
X-22200000Y-12700000D01*
X-18798531Y-30986187D02*
X-18200000Y-30387655D01*
X-18200000Y-30387655D02*
X-18200001Y-20578569D01*
X-18200001Y-20578569D02*
X-19229031Y-19549539D01*
X-19229031Y-19549539D02*
X-19229031Y-14720969D01*
X-19229031Y-14720969D02*
X-19950000Y-14000000D01*
X-22200000Y-12700000D02*
X-22860000Y-12700000D01*
X-26250000Y-35550000D02*
X-26200000Y-35500000D01*
X-26200000Y-35500000D02*
X-21150000Y-35500000D01*
X-21150000Y-35500000D02*
X-19148051Y-33498051D01*
X-19148051Y-33498051D02*
X-19148051Y-30841411D01*
X-24100000Y-11460000D02*
X-25400000Y-10160000D01*
X-19148051Y-30841411D02*
X-18549520Y-30242880D01*
X-18549520Y-30242880D02*
X-18549520Y-20723346D01*
X-18549520Y-20723346D02*
X-19578551Y-19694315D01*
X-19578551Y-19694315D02*
X-19578551Y-14921449D01*
X-19578551Y-14921449D02*
X-20150481Y-14349519D01*
X-20150481Y-14349519D02*
X-21044777Y-14349519D01*
X-24100000Y-13150000D02*
X-24100000Y-11460000D01*
X-21044777Y-14349519D02*
X-21544296Y-13850000D01*
X-21544296Y-13850000D02*
X-23400000Y-13850000D01*
X-23400000Y-13850000D02*
X-24100000Y-13150000D01*
X-24500000Y-23800000D02*
X-24250000Y-23550000D01*
X-24250000Y-23550000D02*
X-23400000Y-23550000D01*
X-19900000Y-27050000D02*
X-19750000Y-27050000D01*
X-23400000Y-23550000D02*
X-19900000Y-27050000D01*
X-23609266Y-24259266D02*
X-23590734Y-24259266D01*
X-23590734Y-24259266D02*
X-19800000Y-28050000D01*
X-19800000Y-28050000D02*
X-19400000Y-28050000D01*
X-21189554Y-14699038D02*
X-21688592Y-14200000D01*
X-21688592Y-14200000D02*
X-23544296Y-14200000D01*
X-23544296Y-14200000D02*
X-25044296Y-12700000D01*
X-20499500Y-19400000D02*
X-20200000Y-19100500D01*
X-20200000Y-14950000D02*
X-20450961Y-14699039D01*
X-20200000Y-19100500D02*
X-20200000Y-14950000D01*
X-20450961Y-14699039D02*
X-21189554Y-14699038D01*
X-25044296Y-12700000D02*
X-25400000Y-12700000D01*
X-38150009Y-27449991D02*
X-38150009Y-13699991D01*
X-30500000Y-35100000D02*
X-38150009Y-27449991D01*
X-38150009Y-13699991D02*
X-38450000Y-13400000D01*
X-28550000Y-37750000D02*
X-29750000Y-38950000D01*
X-28550000Y-33400000D02*
X-28550000Y-37750000D01*
X-31700000Y-30550000D02*
X-31400000Y-30550000D01*
X-31400000Y-30550000D02*
X-28550000Y-33400000D01*
X-29650000Y-33650000D02*
X-30718548Y-33650000D01*
X-36193134Y34206866D02*
X-36193134Y34229339D01*
X-30718548Y-33650000D02*
X-37450000Y-26918548D01*
X-37450000Y-26918548D02*
X-37450000Y32950000D01*
X-37450000Y32950000D02*
X-36193134Y34206866D01*
D15*
X-17780000Y-10160000D02*
X-16560000Y-10160000D01*
X-16560000Y-10160000D02*
X-12230000Y-5830000D01*
X-12230000Y41430000D02*
X-13000000Y42200000D01*
X-12230000Y-1500000D02*
X-12230000Y41430000D01*
D13*
X-16500000Y42200000D02*
X-20000000Y42200000D01*
X-6000000Y42200000D02*
X-9500000Y42200000D01*
X-9500000Y42200000D02*
X-13000000Y42200000D01*
X-13000000Y42200000D02*
X-16500000Y42200000D01*
G04 #@! TA.AperFunction,Conductor*
G36*
X-5011773Y47797482D02*
G01*
X-5000358Y47794857D01*
X-4989484Y47797317D01*
X-4982477Y47797305D01*
X-4968009Y47798603D01*
X-4585968Y47781923D01*
X-4577364Y47781170D01*
X-4314959Y47746624D01*
X-4170765Y47727640D01*
X-4162271Y47726142D01*
X-3761892Y47637380D01*
X-3753554Y47635146D01*
X-3362418Y47511822D01*
X-3354317Y47508874D01*
X-3074997Y47393175D01*
X-2975423Y47351930D01*
X-2967596Y47348280D01*
X-2603829Y47158915D01*
X-2596369Y47154609D01*
X-2521699Y47107039D01*
X-2250473Y46934249D01*
X-2243399Y46929295D01*
X-1918044Y46679641D01*
X-1911443Y46674102D01*
X-1609066Y46397026D01*
X-1602974Y46390934D01*
X-1325898Y46088557D01*
X-1320359Y46081956D01*
X-1070705Y45756601D01*
X-1065752Y45749528D01*
X-845391Y45403631D01*
X-841085Y45396171D01*
X-682876Y45092255D01*
X-651720Y45032404D01*
X-648070Y45024577D01*
X-509433Y44689881D01*
X-491129Y44645691D01*
X-488178Y44637582D01*
X-422186Y44428282D01*
X-364854Y44246448D01*
X-362620Y44238108D01*
X-309832Y44000000D01*
X-273859Y43837734D01*
X-272360Y43829235D01*
X-255761Y43703154D01*
X-218830Y43422636D01*
X-218077Y43414032D01*
X-201420Y43032512D01*
X-202630Y43019270D01*
X-202644Y43011225D01*
X-205143Y43000358D01*
X-202683Y42989486D01*
X-202683Y42989484D01*
X-202441Y42988417D01*
X-200000Y42966568D01*
X-200000Y-39701000D01*
X-218907Y-39759191D01*
X-268407Y-39795155D01*
X-299000Y-39800000D01*
X-39701000Y-39800000D01*
X-39759191Y-39781093D01*
X-39795155Y-39731593D01*
X-39800000Y-39701000D01*
X-39800000Y-13400000D01*
X-39055682Y-13400000D01*
X-39035044Y-13556762D01*
X-38974536Y-13702841D01*
X-38878282Y-13828282D01*
X-38752841Y-13924536D01*
X-38606762Y-13985044D01*
X-38569371Y-13989967D01*
X-38536587Y-13994283D01*
X-38481362Y-14020624D01*
X-38452167Y-14074395D01*
X-38450509Y-14092436D01*
X-38450509Y-27396483D01*
X-38450812Y-27400608D01*
X-38452434Y-27405333D01*
X-38452091Y-27414467D01*
X-38450579Y-27454752D01*
X-38450509Y-27458465D01*
X-38450509Y-27477939D01*
X-38449684Y-27482369D01*
X-38449348Y-27487562D01*
X-38448235Y-27517199D01*
X-38444629Y-27525593D01*
X-38444628Y-27525596D01*
X-38443692Y-27527774D01*
X-38437326Y-27548725D01*
X-38435218Y-27560044D01*
X-38430421Y-27567826D01*
X-38421241Y-27582719D01*
X-38414558Y-27595586D01*
X-38404045Y-27620054D01*
X-38400031Y-27624940D01*
X-38395667Y-27629304D01*
X-38381396Y-27647359D01*
X-38376477Y-27655339D01*
X-38353240Y-27673009D01*
X-38343170Y-27681801D01*
X-31119180Y-34905791D01*
X-31091403Y-34960308D01*
X-31091031Y-34988714D01*
X-31105682Y-35100000D01*
X-31085044Y-35256762D01*
X-31024536Y-35402841D01*
X-30928282Y-35528282D01*
X-30802841Y-35624536D01*
X-30656762Y-35685044D01*
X-30500000Y-35705682D01*
X-30343238Y-35685044D01*
X-30197159Y-35624536D01*
X-30071718Y-35528282D01*
X-29975464Y-35402841D01*
X-29914956Y-35256762D01*
X-29903456Y-35169412D01*
X-29877115Y-35114187D01*
X-29823344Y-35084992D01*
X-29762682Y-35092978D01*
X-29745043Y-35103787D01*
X-29652841Y-35174536D01*
X-29506762Y-35235044D01*
X-29350000Y-35255682D01*
X-29193238Y-35235044D01*
X-29047159Y-35174536D01*
X-29009766Y-35145843D01*
X-28952092Y-35125420D01*
X-28893426Y-35142797D01*
X-28856179Y-35191339D01*
X-28850500Y-35224386D01*
X-28850500Y-37584521D01*
X-28869407Y-37642712D01*
X-28879496Y-37654525D01*
X-29555791Y-38330820D01*
X-29610308Y-38358597D01*
X-29638714Y-38358969D01*
X-29750000Y-38344318D01*
X-29906762Y-38364956D01*
X-30052841Y-38425464D01*
X-30178282Y-38521718D01*
X-30274536Y-38647159D01*
X-30335044Y-38793238D01*
X-30355682Y-38950000D01*
X-30335044Y-39106762D01*
X-30274536Y-39252841D01*
X-30178282Y-39378282D01*
X-30052841Y-39474536D01*
X-29906762Y-39535044D01*
X-29750000Y-39555682D01*
X-29593238Y-39535044D01*
X-29447159Y-39474536D01*
X-29321718Y-39378282D01*
X-29225464Y-39252841D01*
X-29164956Y-39106762D01*
X-29144318Y-38950000D01*
X-29158969Y-38838716D01*
X-29147819Y-38778557D01*
X-29130820Y-38755791D01*
X-28763257Y-38388229D01*
X-28375344Y-38000316D01*
X-28372219Y-37997619D01*
X-28367731Y-37995425D01*
X-28334120Y-37959192D01*
X-28331544Y-37956516D01*
X-28317752Y-37942724D01*
X-28315207Y-37939013D01*
X-28311766Y-37935094D01*
X-28297815Y-37920055D01*
X-28297815Y-37920054D01*
X-28291599Y-37913354D01*
X-28288213Y-37904866D01*
X-28288211Y-37904863D01*
X-28287333Y-37902662D01*
X-28277019Y-37883346D01*
X-28275678Y-37881391D01*
X-28275677Y-37881389D01*
X-28270508Y-37873854D01*
X-28264359Y-37847941D01*
X-28259986Y-37834116D01*
X-28252706Y-37815868D01*
X-28252706Y-37815866D01*
X-28250117Y-37809378D01*
X-28249500Y-37803085D01*
X-28249500Y-37796916D01*
X-28246825Y-37774057D01*
X-28246770Y-37773827D01*
X-28246770Y-37773825D01*
X-28244660Y-37764934D01*
X-28248596Y-37736012D01*
X-28249500Y-37722663D01*
X-28249500Y-37374386D01*
X-28230593Y-37316195D01*
X-28181093Y-37280231D01*
X-28119907Y-37280231D01*
X-28090236Y-37295842D01*
X-28052841Y-37324536D01*
X-27906762Y-37385044D01*
X-27750000Y-37405682D01*
X-27593238Y-37385044D01*
X-27452297Y-37326664D01*
X-27391299Y-37321863D01*
X-27344406Y-37348124D01*
X-26367879Y-38324651D01*
X-26365179Y-38327780D01*
X-26362984Y-38332269D01*
X-26356281Y-38338487D01*
X-26326737Y-38365893D01*
X-26324061Y-38368469D01*
X-26310282Y-38382248D01*
X-26306572Y-38384793D01*
X-26302659Y-38388229D01*
X-26289954Y-38400014D01*
X-26280913Y-38408401D01*
X-26272427Y-38411787D01*
X-26272425Y-38411788D01*
X-26270222Y-38412667D01*
X-26250911Y-38422978D01*
X-26248952Y-38424322D01*
X-26248949Y-38424323D01*
X-26241413Y-38429493D01*
X-26232521Y-38431603D01*
X-26232519Y-38431604D01*
X-26215493Y-38435644D01*
X-26201674Y-38440014D01*
X-26176937Y-38449883D01*
X-26170644Y-38450500D01*
X-26164474Y-38450500D01*
X-26141618Y-38453175D01*
X-26132493Y-38455340D01*
X-26103571Y-38451404D01*
X-26090222Y-38450500D01*
X-21053508Y-38450500D01*
X-21049383Y-38450803D01*
X-21044658Y-38452425D01*
X-20995239Y-38450570D01*
X-20991526Y-38450500D01*
X-20972052Y-38450500D01*
X-20967622Y-38449675D01*
X-20962429Y-38449339D01*
X-20946398Y-38448737D01*
X-20941925Y-38448569D01*
X-20932792Y-38448226D01*
X-20924398Y-38444620D01*
X-20924395Y-38444619D01*
X-20922217Y-38443683D01*
X-20901266Y-38437317D01*
X-20889947Y-38435209D01*
X-20867271Y-38421232D01*
X-20854404Y-38414548D01*
X-20836358Y-38406795D01*
X-20836357Y-38406794D01*
X-20829937Y-38404036D01*
X-20825051Y-38400022D01*
X-20820687Y-38395658D01*
X-20802632Y-38381387D01*
X-20794652Y-38376468D01*
X-20776982Y-38353231D01*
X-20768190Y-38343161D01*
X-16275829Y-33850800D01*
X-16272700Y-33848100D01*
X-16268211Y-33845905D01*
X-16247463Y-33823539D01*
X-16234587Y-33809658D01*
X-16232011Y-33806982D01*
X-16218232Y-33793203D01*
X-16215687Y-33789493D01*
X-16212251Y-33785580D01*
X-16198293Y-33770533D01*
X-16192079Y-33763834D01*
X-16188692Y-33755346D01*
X-16187813Y-33753143D01*
X-16177502Y-33733832D01*
X-16176158Y-33731873D01*
X-16176157Y-33731870D01*
X-16170987Y-33724334D01*
X-16164836Y-33698414D01*
X-16160466Y-33684595D01*
X-16150597Y-33659858D01*
X-16149980Y-33653565D01*
X-16149980Y-33647395D01*
X-16147305Y-33624536D01*
X-16147250Y-33624306D01*
X-16145140Y-33615414D01*
X-16149076Y-33586492D01*
X-16149980Y-33573143D01*
X-16149980Y-29684507D01*
X-16131073Y-29626316D01*
X-16120984Y-29614503D01*
X-15508330Y-29001850D01*
X-14875833Y-28369353D01*
X-14872708Y-28366656D01*
X-14868220Y-28364462D01*
X-14834609Y-28328229D01*
X-14832033Y-28325553D01*
X-14818241Y-28311761D01*
X-14815696Y-28308050D01*
X-14812255Y-28304131D01*
X-14798304Y-28289092D01*
X-14798304Y-28289091D01*
X-14792088Y-28282391D01*
X-14788702Y-28273903D01*
X-14788700Y-28273900D01*
X-14787822Y-28271699D01*
X-14777508Y-28252383D01*
X-14776167Y-28250428D01*
X-14776166Y-28250426D01*
X-14770997Y-28242891D01*
X-14764848Y-28216978D01*
X-14760475Y-28203153D01*
X-14753195Y-28184905D01*
X-14753195Y-28184903D01*
X-14750606Y-28178415D01*
X-14749989Y-28172122D01*
X-14749989Y-28165953D01*
X-14747314Y-28143094D01*
X-14747259Y-28142864D01*
X-14747259Y-28142862D01*
X-14745149Y-28133971D01*
X-14749085Y-28105049D01*
X-14749989Y-28091700D01*
X-14749989Y-26884471D01*
X-14749686Y-26880346D01*
X-14748064Y-26875621D01*
X-14749919Y-26826202D01*
X-14749989Y-26822489D01*
X-14749989Y-26803015D01*
X-14750814Y-26798585D01*
X-14751151Y-26793380D01*
X-14751920Y-26772888D01*
X-14752263Y-26763755D01*
X-14755869Y-26755361D01*
X-14755870Y-26755358D01*
X-14756806Y-26753180D01*
X-14763172Y-26732229D01*
X-14765280Y-26720910D01*
X-14779257Y-26698234D01*
X-14785941Y-26685367D01*
X-14793694Y-26667321D01*
X-14793695Y-26667320D01*
X-14796453Y-26660900D01*
X-14800467Y-26656014D01*
X-14804831Y-26651650D01*
X-14819102Y-26633595D01*
X-14819225Y-26633396D01*
X-14824021Y-26625615D01*
X-14847258Y-26607945D01*
X-14857328Y-26599153D01*
X-15370984Y-26085497D01*
X-15398761Y-26030980D01*
X-15399980Y-26015493D01*
X-15399980Y-19274018D01*
X-15381073Y-19215827D01*
X-15331573Y-19179863D01*
X-15270387Y-19179863D01*
X-15240713Y-19195476D01*
X-15219430Y-19211807D01*
X-15202841Y-19224536D01*
X-15056762Y-19285044D01*
X-14900000Y-19305682D01*
X-14743238Y-19285044D01*
X-14617679Y-19233036D01*
X-14579794Y-19225500D01*
X-4979388Y-19225500D01*
X-4921197Y-19244407D01*
X-4909384Y-19254496D01*
X-4304496Y-19859384D01*
X-4276719Y-19913901D01*
X-4275500Y-19929388D01*
X-4275500Y-23350504D01*
X-4281526Y-23380802D01*
X-4280881Y-23380975D01*
X-4282560Y-23387240D01*
X-4285044Y-23393238D01*
X-4305682Y-23550000D01*
X-4285044Y-23706762D01*
X-4224536Y-23852841D01*
X-4128282Y-23978282D01*
X-4002841Y-24074536D01*
X-3856762Y-24135044D01*
X-3700000Y-24155682D01*
X-3543238Y-24135044D01*
X-3397159Y-24074536D01*
X-3271718Y-23978282D01*
X-3175464Y-23852841D01*
X-3114956Y-23706762D01*
X-3094318Y-23550000D01*
X-3114956Y-23393238D01*
X-3117440Y-23387240D01*
X-3119119Y-23380975D01*
X-3118474Y-23380802D01*
X-3124500Y-23350504D01*
X-3124500Y-19694208D01*
X-3123653Y-19681286D01*
X-3120381Y-19656433D01*
X-3119534Y-19650000D01*
X-3133447Y-19544318D01*
X-3139313Y-19499764D01*
X-3178671Y-19404746D01*
X-3197301Y-19359768D01*
X-3266388Y-19269732D01*
X-3266391Y-19269729D01*
X-3289549Y-19239549D01*
X-3314584Y-19220339D01*
X-3324313Y-19211807D01*
X-4261807Y-18274313D01*
X-4270339Y-18264584D01*
X-4289549Y-18239549D01*
X-4319729Y-18216391D01*
X-4319732Y-18216388D01*
X-4409767Y-18147302D01*
X-4483398Y-18116803D01*
X-4549764Y-18089313D01*
X-4662280Y-18074500D01*
X-4662282Y-18074500D01*
X-4662291Y-18074499D01*
X-4693565Y-18070382D01*
X-4693566Y-18070382D01*
X-4700000Y-18069535D01*
X-4706434Y-18070382D01*
X-4731280Y-18073653D01*
X-4744202Y-18074500D01*
X-14805792Y-18074500D01*
X-14818714Y-18073653D01*
X-14843559Y-18070382D01*
X-14850000Y-18069534D01*
X-14856434Y-18070381D01*
X-14887712Y-18074499D01*
X-14887720Y-18074500D01*
X-15000236Y-18089313D01*
X-15035780Y-18104036D01*
X-15066602Y-18116803D01*
X-15076626Y-18120955D01*
X-15137623Y-18125756D01*
X-15189792Y-18093787D01*
X-15213207Y-18037259D01*
X-15198924Y-17977764D01*
X-15184516Y-17959487D01*
X-12575349Y-15350320D01*
X-12572220Y-15347620D01*
X-12567731Y-15345425D01*
X-12534107Y-15309178D01*
X-12531531Y-15306502D01*
X-12517752Y-15292723D01*
X-12515207Y-15289013D01*
X-12511771Y-15285100D01*
X-12497813Y-15270053D01*
X-12491599Y-15263354D01*
X-12488212Y-15254866D01*
X-12487333Y-15252663D01*
X-12477022Y-15233352D01*
X-12475678Y-15231393D01*
X-12475677Y-15231390D01*
X-12470507Y-15223854D01*
X-12464356Y-15197934D01*
X-12459986Y-15184115D01*
X-12450117Y-15159378D01*
X-12449500Y-15153085D01*
X-12449500Y-15146915D01*
X-12446825Y-15124056D01*
X-12446770Y-15123826D01*
X-12444660Y-15114934D01*
X-12448596Y-15086012D01*
X-12449500Y-15072663D01*
X-12449500Y-10825154D01*
X-12430593Y-10766963D01*
X-12410768Y-10746612D01*
X-12403672Y-10741167D01*
X-12321718Y-10678282D01*
X-12225464Y-10552841D01*
X-12164956Y-10406762D01*
X-12145814Y-10261363D01*
X-12145165Y-10256434D01*
X-12144318Y-10250000D01*
X-12164956Y-10093238D01*
X-12225464Y-9947159D01*
X-12321718Y-9821718D01*
X-12447159Y-9725464D01*
X-12593238Y-9664956D01*
X-12750000Y-9644318D01*
X-12906762Y-9664956D01*
X-13052841Y-9725464D01*
X-13178282Y-9821718D01*
X-13274536Y-9947159D01*
X-13335044Y-10093238D01*
X-13355682Y-10250000D01*
X-13354835Y-10256434D01*
X-13354186Y-10261363D01*
X-13335044Y-10406762D01*
X-13274536Y-10552841D01*
X-13178282Y-10678282D01*
X-13096328Y-10741167D01*
X-13089232Y-10746612D01*
X-13054577Y-10797037D01*
X-13050500Y-10825154D01*
X-13050500Y-14934521D01*
X-13069407Y-14992712D01*
X-13079496Y-15004525D01*
X-14030496Y-15955525D01*
X-14085013Y-15983302D01*
X-14145445Y-15973731D01*
X-14188710Y-15930466D01*
X-14199500Y-15885521D01*
X-14199500Y-15723407D01*
X-14179042Y-15663140D01*
X-14160829Y-15639404D01*
X-14156878Y-15634255D01*
X-14096370Y-15488176D01*
X-14075732Y-15331414D01*
X-14096370Y-15174652D01*
X-14156878Y-15028573D01*
X-14253132Y-14903132D01*
X-14378573Y-14806878D01*
X-14524652Y-14746370D01*
X-14681414Y-14725732D01*
X-14838176Y-14746370D01*
X-14984255Y-14806878D01*
X-15109696Y-14903132D01*
X-15205950Y-15028573D01*
X-15266458Y-15174652D01*
X-15287096Y-15331414D01*
X-15284908Y-15348029D01*
X-15273191Y-15437031D01*
X-15284341Y-15497192D01*
X-15328723Y-15539309D01*
X-15358422Y-15548106D01*
X-15367404Y-15549289D01*
X-15416028Y-15555690D01*
X-15562107Y-15616198D01*
X-15687548Y-15712452D01*
X-15691502Y-15717605D01*
X-15771749Y-15822185D01*
X-15822173Y-15856841D01*
X-15888177Y-15853382D01*
X-15944502Y-15830052D01*
X-15989543Y-15811395D01*
X-16036068Y-15771658D01*
X-16050352Y-15712164D01*
X-16031795Y-15663817D01*
X-16032158Y-15663607D01*
X-16030834Y-15661314D01*
X-16030202Y-15659667D01*
X-16024964Y-15652841D01*
X-15964456Y-15506762D01*
X-15943818Y-15350000D01*
X-15964456Y-15193238D01*
X-16024964Y-15047159D01*
X-16121218Y-14921718D01*
X-16246659Y-14825464D01*
X-16281991Y-14810829D01*
X-16308491Y-14799852D01*
X-16355017Y-14760115D01*
X-16369300Y-14700620D01*
X-16362069Y-14670502D01*
X-16317440Y-14562759D01*
X-16314956Y-14556762D01*
X-16294318Y-14400000D01*
X-16314956Y-14243238D01*
X-16375464Y-14097159D01*
X-16471718Y-13971718D01*
X-16597159Y-13875464D01*
X-16603150Y-13872982D01*
X-16603156Y-13872979D01*
X-16723678Y-13823058D01*
X-16727860Y-13821326D01*
X-16774386Y-13781590D01*
X-16788670Y-13722095D01*
X-16772290Y-13674860D01*
X-16768235Y-13668791D01*
X-16741133Y-13628231D01*
X-16729500Y-13569748D01*
X-16729500Y-11830252D01*
X-16741133Y-11771769D01*
X-16785448Y-11705448D01*
X-16851769Y-11661133D01*
X-16861332Y-11659231D01*
X-16861334Y-11659230D01*
X-16884005Y-11654721D01*
X-16910252Y-11649500D01*
X-18649748Y-11649500D01*
X-18675995Y-11654721D01*
X-18698666Y-11659230D01*
X-18698668Y-11659231D01*
X-18708231Y-11661133D01*
X-18774552Y-11705448D01*
X-18785651Y-11722058D01*
X-18833698Y-11759936D01*
X-18894836Y-11762340D01*
X-18937969Y-11737060D01*
X-19399680Y-11275349D01*
X-19402380Y-11272220D01*
X-19404575Y-11267731D01*
X-19440822Y-11234107D01*
X-19443498Y-11231531D01*
X-19457277Y-11217752D01*
X-19460987Y-11215207D01*
X-19464900Y-11211771D01*
X-19479945Y-11197815D01*
X-19486646Y-11191599D01*
X-19497336Y-11187334D01*
X-19516652Y-11177020D01*
X-19518608Y-11175678D01*
X-19518612Y-11175676D01*
X-19519298Y-11175206D01*
X-19519302Y-11175202D01*
X-19526145Y-11170508D01*
X-19525531Y-11169613D01*
X-19564471Y-11134672D01*
X-19577294Y-11074845D01*
X-19552504Y-11018907D01*
X-19542123Y-11008910D01*
X-19506843Y-10979568D01*
X-19500432Y-10973157D01*
X-19371100Y-10817652D01*
X-19365974Y-10810194D01*
X-19267142Y-10633714D01*
X-19263462Y-10625450D01*
X-19198444Y-10433914D01*
X-19196332Y-10425115D01*
X-19174641Y-10275518D01*
X-19176900Y-10262372D01*
X-19177935Y-10261363D01*
X-19183782Y-10260000D01*
X-21450315Y-10260000D01*
X-21463000Y-10264122D01*
X-21465075Y-10266978D01*
X-21465379Y-10269404D01*
X-21461005Y-10336145D01*
X-21459592Y-10345064D01*
X-21409800Y-10541121D01*
X-21406780Y-10549649D01*
X-21322096Y-10733341D01*
X-21317578Y-10741167D01*
X-21200829Y-10906363D01*
X-21194965Y-10913229D01*
X-21126848Y-10979586D01*
X-21098359Y-11033735D01*
X-21107139Y-11094287D01*
X-21149833Y-11138114D01*
X-21195929Y-11149500D01*
X-21404521Y-11149500D01*
X-21462712Y-11130593D01*
X-21474525Y-11120504D01*
X-21882202Y-10712827D01*
X-21909979Y-10658310D01*
X-21899092Y-10598397D01*
X-21900037Y-10597976D01*
X-21898312Y-10594101D01*
X-21898280Y-10593926D01*
X-21898085Y-10593583D01*
X-21895677Y-10589344D01*
X-21886717Y-10562412D01*
X-21832176Y-10398454D01*
X-21832176Y-10398452D01*
X-21830649Y-10393863D01*
X-21823357Y-10336145D01*
X-21805177Y-10192228D01*
X-21804829Y-10189474D01*
X-21804417Y-10160000D01*
X-21814466Y-10057510D01*
X-21815749Y-10044428D01*
X-21464430Y-10044428D01*
X-21461828Y-10057510D01*
X-21460253Y-10058966D01*
X-21455539Y-10060000D01*
X-20435680Y-10060000D01*
X-20422995Y-10055878D01*
X-20420000Y-10051757D01*
X-20420000Y-10044320D01*
X-20220000Y-10044320D01*
X-20215878Y-10057005D01*
X-20211757Y-10060000D01*
X-19189942Y-10060000D01*
X-19177257Y-10055878D01*
X-19175588Y-10053582D01*
X-19175184Y-10049965D01*
X-19183997Y-9954048D01*
X-19185644Y-9945164D01*
X-19240551Y-9750481D01*
X-19243792Y-9742037D01*
X-19333255Y-9560624D01*
X-19337980Y-9552914D01*
X-19459006Y-9390840D01*
X-19465055Y-9384122D01*
X-19613595Y-9246814D01*
X-19620760Y-9241315D01*
X-19791837Y-9133374D01*
X-19799890Y-9129271D01*
X-19987771Y-9054314D01*
X-19996429Y-9051749D01*
X-20194824Y-9012286D01*
X-20203815Y-9011341D01*
X-20204324Y-9011334D01*
X-20217059Y-9015289D01*
X-20219996Y-9019222D01*
X-20220000Y-9019246D01*
X-20220000Y-10044320D01*
X-20420000Y-10044320D01*
X-20420000Y-9025926D01*
X-20424122Y-9013241D01*
X-20424726Y-9012802D01*
X-20431873Y-9012286D01*
X-20614441Y-9043657D01*
X-20623177Y-9045998D01*
X-20812950Y-9116009D01*
X-20821113Y-9119902D01*
X-20994953Y-9223326D01*
X-21002255Y-9228631D01*
X-21154343Y-9362010D01*
X-21160566Y-9368568D01*
X-21285791Y-9527415D01*
X-21290716Y-9534998D01*
X-21384903Y-9714018D01*
X-21388357Y-9722358D01*
X-21448342Y-9915538D01*
X-21450223Y-9924388D01*
X-21464430Y-10044428D01*
X-21815749Y-10044428D01*
X-21824048Y-9959780D01*
X-21824049Y-9959776D01*
X-21824520Y-9954970D01*
X-21827480Y-9945164D01*
X-21863196Y-9826871D01*
X-21884065Y-9757749D01*
X-21980782Y-9575849D01*
X-22110989Y-9416200D01*
X-22141644Y-9390840D01*
X-22265998Y-9287965D01*
X-22266000Y-9287964D01*
X-22269725Y-9284882D01*
X-22450945Y-9186897D01*
X-22520236Y-9165448D01*
X-22643125Y-9127407D01*
X-22643129Y-9127406D01*
X-22647746Y-9125977D01*
X-22652554Y-9125472D01*
X-22652557Y-9125471D01*
X-22847815Y-9104949D01*
X-22847817Y-9104949D01*
X-22852631Y-9104443D01*
X-22908200Y-9109500D01*
X-23052978Y-9122675D01*
X-23052983Y-9122676D01*
X-23057797Y-9123114D01*
X-23255428Y-9181280D01*
X-23259712Y-9183519D01*
X-23259713Y-9183520D01*
X-23270572Y-9189197D01*
X-23437998Y-9276726D01*
X-23441769Y-9279758D01*
X-23594780Y-9402781D01*
X-23594783Y-9402783D01*
X-23598553Y-9405815D01*
X-23601667Y-9409526D01*
X-23601668Y-9409527D01*
X-23638472Y-9453389D01*
X-23730976Y-9563630D01*
X-23733311Y-9567878D01*
X-23733312Y-9567879D01*
X-23740045Y-9580126D01*
X-23830224Y-9744162D01*
X-23831687Y-9748775D01*
X-23831689Y-9748779D01*
X-23833179Y-9753476D01*
X-23892516Y-9940532D01*
X-23893056Y-9945344D01*
X-23893056Y-9945345D01*
X-23905916Y-10060000D01*
X-23915480Y-10145262D01*
X-23898241Y-10350553D01*
X-23896908Y-10355201D01*
X-23896908Y-10355202D01*
X-23843914Y-10540013D01*
X-23841456Y-10548586D01*
X-23839241Y-10552896D01*
X-23816073Y-10597976D01*
X-23747288Y-10731818D01*
X-23619323Y-10893270D01*
X-23615643Y-10896402D01*
X-23615641Y-10896404D01*
X-23525456Y-10973157D01*
X-23462436Y-11026791D01*
X-23458213Y-11029151D01*
X-23458209Y-11029154D01*
X-23352502Y-11088231D01*
X-23282602Y-11127297D01*
X-23278004Y-11128791D01*
X-23091276Y-11189463D01*
X-23091274Y-11189464D01*
X-23086671Y-11190959D01*
X-22882106Y-11215351D01*
X-22877284Y-11214980D01*
X-22877281Y-11214980D01*
X-22806741Y-11209552D01*
X-22676700Y-11199546D01*
X-22478275Y-11144145D01*
X-22473958Y-11141964D01*
X-22473952Y-11141962D01*
X-22424345Y-11116904D01*
X-22363880Y-11107544D01*
X-22309705Y-11135266D01*
X-21820320Y-11624651D01*
X-21817620Y-11627780D01*
X-21815425Y-11632269D01*
X-21808722Y-11638487D01*
X-21779178Y-11665893D01*
X-21776502Y-11668469D01*
X-21762724Y-11682247D01*
X-21759013Y-11684792D01*
X-21755108Y-11688220D01*
X-21733354Y-11708401D01*
X-21724867Y-11711787D01*
X-21722664Y-11712666D01*
X-21703348Y-11722980D01*
X-21701393Y-11724321D01*
X-21701390Y-11724322D01*
X-21693854Y-11729492D01*
X-21667942Y-11735641D01*
X-21654116Y-11740014D01*
X-21635868Y-11747294D01*
X-21635866Y-11747294D01*
X-21629378Y-11749883D01*
X-21623085Y-11750500D01*
X-21616916Y-11750500D01*
X-21594057Y-11753175D01*
X-21593827Y-11753230D01*
X-21593825Y-11753230D01*
X-21584934Y-11755340D01*
X-21556012Y-11751404D01*
X-21542663Y-11750500D01*
X-21240064Y-11750500D01*
X-21181873Y-11769407D01*
X-21145909Y-11818907D01*
X-21145909Y-11880093D01*
X-21162318Y-11910790D01*
X-21285791Y-12067415D01*
X-21290716Y-12074998D01*
X-21384903Y-12254018D01*
X-21388357Y-12262358D01*
X-21448342Y-12455538D01*
X-21450223Y-12464388D01*
X-21464430Y-12584428D01*
X-21461828Y-12597510D01*
X-21460253Y-12598966D01*
X-21455539Y-12600000D01*
X-20319000Y-12600000D01*
X-20260809Y-12618907D01*
X-20224845Y-12668407D01*
X-20220000Y-12699000D01*
X-20220000Y-12701000D01*
X-20238907Y-12759191D01*
X-20288407Y-12795155D01*
X-20319000Y-12800000D01*
X-21450315Y-12800000D01*
X-21463000Y-12804122D01*
X-21480057Y-12827598D01*
X-21481338Y-12826667D01*
X-21488499Y-12841938D01*
X-21542077Y-12871486D01*
X-21602790Y-12863898D01*
X-21630761Y-12844268D01*
X-21782547Y-12692482D01*
X-21811071Y-12632138D01*
X-21824047Y-12499789D01*
X-21824048Y-12499784D01*
X-21824520Y-12494970D01*
X-21884065Y-12297749D01*
X-21980782Y-12115849D01*
X-22110989Y-11956200D01*
X-22257361Y-11835110D01*
X-22265998Y-11827965D01*
X-22266000Y-11827964D01*
X-22269725Y-11824882D01*
X-22413221Y-11747294D01*
X-22446691Y-11729197D01*
X-22446692Y-11729197D01*
X-22450945Y-11726897D01*
X-22530770Y-11702187D01*
X-22643125Y-11667407D01*
X-22643129Y-11667406D01*
X-22647746Y-11665977D01*
X-22652554Y-11665472D01*
X-22652557Y-11665471D01*
X-22847815Y-11644949D01*
X-22847817Y-11644949D01*
X-22852631Y-11644443D01*
X-22908200Y-11649500D01*
X-23052978Y-11662675D01*
X-23052983Y-11662676D01*
X-23057797Y-11663114D01*
X-23255428Y-11721280D01*
X-23259712Y-11723519D01*
X-23259713Y-11723520D01*
X-23316437Y-11753175D01*
X-23437998Y-11816726D01*
X-23441769Y-11819758D01*
X-23594780Y-11942781D01*
X-23594783Y-11942783D01*
X-23598553Y-11945815D01*
X-23624663Y-11976932D01*
X-23676550Y-12009353D01*
X-23737587Y-12005085D01*
X-23784457Y-11965755D01*
X-23799500Y-11913294D01*
X-23799500Y-11513514D01*
X-23799197Y-11509385D01*
X-23797574Y-11504658D01*
X-23799430Y-11455223D01*
X-23799500Y-11451509D01*
X-23799500Y-11432052D01*
X-23800325Y-11427622D01*
X-23800661Y-11422436D01*
X-23801431Y-11401925D01*
X-23801431Y-11401924D01*
X-23801774Y-11392792D01*
X-23805380Y-11384398D01*
X-23805381Y-11384395D01*
X-23806317Y-11382217D01*
X-23812683Y-11361266D01*
X-23814791Y-11349947D01*
X-23828770Y-11327269D01*
X-23835450Y-11314409D01*
X-23843208Y-11296352D01*
X-23843209Y-11296351D01*
X-23845964Y-11289938D01*
X-23849977Y-11285051D01*
X-23854343Y-11280685D01*
X-23868615Y-11262629D01*
X-23868736Y-11262432D01*
X-23868737Y-11262431D01*
X-23873532Y-11254652D01*
X-23896756Y-11236992D01*
X-23906835Y-11228193D01*
X-24422202Y-10712826D01*
X-24449979Y-10658309D01*
X-24439089Y-10598398D01*
X-24440037Y-10597976D01*
X-24438306Y-10594089D01*
X-24438275Y-10593917D01*
X-24438085Y-10593583D01*
X-24435677Y-10589344D01*
X-24426717Y-10562412D01*
X-24372176Y-10398454D01*
X-24372176Y-10398452D01*
X-24370649Y-10393863D01*
X-24363357Y-10336145D01*
X-24345177Y-10192228D01*
X-24344829Y-10189474D01*
X-24344417Y-10160000D01*
X-24354466Y-10057510D01*
X-24364048Y-9959780D01*
X-24364049Y-9959776D01*
X-24364520Y-9954970D01*
X-24367480Y-9945164D01*
X-24403196Y-9826871D01*
X-24424065Y-9757749D01*
X-24520782Y-9575849D01*
X-24650989Y-9416200D01*
X-24681644Y-9390840D01*
X-24805998Y-9287965D01*
X-24806000Y-9287964D01*
X-24809725Y-9284882D01*
X-24990945Y-9186897D01*
X-25060236Y-9165448D01*
X-25183125Y-9127407D01*
X-25183129Y-9127406D01*
X-25187746Y-9125977D01*
X-25192554Y-9125472D01*
X-25192557Y-9125471D01*
X-25387815Y-9104949D01*
X-25387817Y-9104949D01*
X-25392631Y-9104443D01*
X-25448200Y-9109500D01*
X-25592978Y-9122675D01*
X-25592983Y-9122676D01*
X-25597797Y-9123114D01*
X-25795428Y-9181280D01*
X-25799712Y-9183519D01*
X-25799713Y-9183520D01*
X-25810572Y-9189197D01*
X-25977998Y-9276726D01*
X-25981769Y-9279758D01*
X-26134780Y-9402781D01*
X-26134783Y-9402783D01*
X-26138553Y-9405815D01*
X-26141667Y-9409526D01*
X-26141668Y-9409527D01*
X-26178472Y-9453389D01*
X-26270976Y-9563630D01*
X-26273311Y-9567878D01*
X-26273312Y-9567879D01*
X-26280045Y-9580126D01*
X-26370224Y-9744162D01*
X-26371687Y-9748775D01*
X-26371689Y-9748779D01*
X-26373179Y-9753476D01*
X-26432516Y-9940532D01*
X-26433056Y-9945344D01*
X-26433056Y-9945345D01*
X-26445916Y-10060000D01*
X-26455480Y-10145262D01*
X-26438241Y-10350553D01*
X-26436908Y-10355201D01*
X-26436908Y-10355202D01*
X-26383914Y-10540013D01*
X-26381456Y-10548586D01*
X-26379241Y-10552896D01*
X-26356073Y-10597976D01*
X-26287288Y-10731818D01*
X-26159323Y-10893270D01*
X-26155643Y-10896402D01*
X-26155641Y-10896404D01*
X-26065456Y-10973157D01*
X-26002436Y-11026791D01*
X-25998213Y-11029151D01*
X-25998209Y-11029154D01*
X-25892502Y-11088231D01*
X-25822602Y-11127297D01*
X-25818004Y-11128791D01*
X-25631276Y-11189463D01*
X-25631274Y-11189464D01*
X-25626671Y-11190959D01*
X-25422106Y-11215351D01*
X-25417284Y-11214980D01*
X-25417281Y-11214980D01*
X-25346741Y-11209552D01*
X-25216700Y-11199546D01*
X-25018275Y-11144145D01*
X-25013958Y-11141964D01*
X-25013952Y-11141962D01*
X-24964345Y-11116904D01*
X-24903880Y-11107544D01*
X-24849705Y-11135266D01*
X-24429496Y-11555475D01*
X-24401719Y-11609992D01*
X-24400500Y-11625479D01*
X-24400500Y-11985306D01*
X-24419407Y-12043497D01*
X-24468907Y-12079461D01*
X-24530093Y-12079461D01*
X-24576219Y-12047877D01*
X-24647929Y-11959952D01*
X-24650989Y-11956200D01*
X-24797361Y-11835110D01*
X-24805998Y-11827965D01*
X-24806000Y-11827964D01*
X-24809725Y-11824882D01*
X-24953221Y-11747294D01*
X-24986691Y-11729197D01*
X-24986692Y-11729197D01*
X-24990945Y-11726897D01*
X-25070770Y-11702187D01*
X-25183125Y-11667407D01*
X-25183129Y-11667406D01*
X-25187746Y-11665977D01*
X-25192554Y-11665472D01*
X-25192557Y-11665471D01*
X-25387815Y-11644949D01*
X-25387817Y-11644949D01*
X-25392631Y-11644443D01*
X-25448200Y-11649500D01*
X-25592978Y-11662675D01*
X-25592983Y-11662676D01*
X-25597797Y-11663114D01*
X-25795428Y-11721280D01*
X-25799712Y-11723519D01*
X-25799713Y-11723520D01*
X-25856437Y-11753175D01*
X-25977998Y-11816726D01*
X-25981769Y-11819758D01*
X-26134780Y-11942781D01*
X-26134783Y-11942783D01*
X-26138553Y-11945815D01*
X-26141664Y-11949523D01*
X-26141668Y-11949527D01*
X-26150415Y-11959952D01*
X-26270976Y-12103630D01*
X-26273311Y-12107878D01*
X-26273312Y-12107879D01*
X-26280045Y-12120126D01*
X-26370224Y-12284162D01*
X-26432516Y-12480532D01*
X-26433056Y-12485344D01*
X-26433056Y-12485345D01*
X-26453589Y-12668407D01*
X-26455480Y-12685262D01*
X-26454474Y-12697244D01*
X-26439176Y-12879415D01*
X-26438241Y-12890553D01*
X-26436908Y-12895201D01*
X-26436908Y-12895202D01*
X-26414967Y-12971718D01*
X-26381456Y-13088586D01*
X-26287288Y-13271818D01*
X-26159323Y-13433270D01*
X-26155643Y-13436402D01*
X-26155641Y-13436404D01*
X-26105816Y-13478808D01*
X-26002436Y-13566791D01*
X-25998213Y-13569151D01*
X-25998209Y-13569154D01*
X-25958658Y-13591258D01*
X-25822602Y-13667297D01*
X-25818004Y-13668791D01*
X-25631276Y-13729463D01*
X-25631274Y-13729464D01*
X-25626671Y-13730959D01*
X-25422106Y-13755351D01*
X-25417284Y-13754980D01*
X-25417281Y-13754980D01*
X-25349459Y-13749761D01*
X-25216700Y-13739546D01*
X-25018275Y-13684145D01*
X-25013962Y-13681966D01*
X-25013956Y-13681964D01*
X-24838711Y-13593441D01*
X-24838709Y-13593440D01*
X-24834390Y-13591258D01*
X-24759480Y-13532732D01*
X-24701984Y-13511806D01*
X-24643169Y-13528672D01*
X-24628526Y-13540742D01*
X-23974442Y-14194826D01*
X-23946665Y-14249343D01*
X-23956236Y-14309775D01*
X-23999501Y-14353040D01*
X-24006561Y-14356294D01*
X-24046844Y-14372979D01*
X-24046847Y-14372981D01*
X-24052841Y-14375464D01*
X-24057990Y-14379415D01*
X-24122666Y-14429042D01*
X-24182933Y-14449500D01*
X-29767067Y-14449500D01*
X-29827334Y-14429042D01*
X-29892010Y-14379415D01*
X-29897159Y-14375464D01*
X-30043238Y-14314956D01*
X-30200000Y-14294318D01*
X-30356762Y-14314956D01*
X-30502841Y-14375464D01*
X-30628282Y-14471718D01*
X-30724536Y-14597159D01*
X-30785044Y-14743238D01*
X-30805682Y-14900000D01*
X-30785044Y-15056762D01*
X-30724536Y-15202841D01*
X-30628282Y-15328282D01*
X-30502841Y-15424536D01*
X-30356762Y-15485044D01*
X-30200000Y-15505682D01*
X-30043238Y-15485044D01*
X-29897159Y-15424536D01*
X-29827335Y-15370958D01*
X-29767067Y-15350500D01*
X-24182933Y-15350500D01*
X-24122665Y-15370958D01*
X-24052841Y-15424536D01*
X-23906762Y-15485044D01*
X-23750000Y-15505682D01*
X-23593238Y-15485044D01*
X-23447159Y-15424536D01*
X-23321718Y-15328282D01*
X-23225464Y-15202841D01*
X-23164956Y-15056762D01*
X-23144318Y-14900000D01*
X-23164956Y-14743238D01*
X-23195084Y-14670502D01*
X-23208801Y-14637385D01*
X-23213602Y-14576389D01*
X-23181632Y-14524220D01*
X-23125104Y-14500805D01*
X-23117337Y-14500500D01*
X-21854070Y-14500500D01*
X-21795879Y-14519407D01*
X-21784067Y-14529497D01*
X-21439873Y-14873691D01*
X-21437173Y-14876819D01*
X-21434979Y-14881307D01*
X-21398745Y-14914919D01*
X-21396069Y-14917495D01*
X-21382278Y-14931286D01*
X-21378567Y-14933831D01*
X-21374648Y-14937272D01*
X-21352908Y-14957439D01*
X-21344420Y-14960825D01*
X-21344417Y-14960827D01*
X-21342216Y-14961705D01*
X-21322900Y-14972019D01*
X-21320945Y-14973360D01*
X-21320943Y-14973361D01*
X-21313408Y-14978530D01*
X-21304520Y-14980639D01*
X-21304518Y-14980640D01*
X-21287496Y-14984679D01*
X-21273670Y-14989052D01*
X-21255422Y-14996332D01*
X-21255420Y-14996332D01*
X-21248932Y-14998921D01*
X-21242639Y-14999538D01*
X-21236470Y-14999538D01*
X-21213611Y-15002213D01*
X-21213381Y-15002268D01*
X-21213379Y-15002268D01*
X-21204488Y-15004378D01*
X-21175568Y-15000442D01*
X-21162217Y-14999538D01*
X-21085491Y-14999538D01*
X-20616440Y-14999539D01*
X-20558249Y-15018446D01*
X-20546436Y-15028535D01*
X-20529496Y-15045475D01*
X-20501719Y-15099992D01*
X-20500500Y-15115479D01*
X-20500500Y-18707629D01*
X-20519407Y-18765820D01*
X-20568907Y-18801784D01*
X-20586578Y-18805782D01*
X-20606006Y-18808340D01*
X-20656262Y-18814956D01*
X-20802341Y-18875464D01*
X-20927782Y-18971718D01*
X-21024036Y-19097159D01*
X-21084544Y-19243238D01*
X-21105182Y-19400000D01*
X-21084544Y-19556762D01*
X-21024036Y-19702841D01*
X-20927782Y-19828282D01*
X-20802341Y-19924536D01*
X-20656262Y-19985044D01*
X-20499500Y-20005682D01*
X-20342738Y-19985044D01*
X-20196659Y-19924536D01*
X-20071218Y-19828282D01*
X-20033238Y-19778785D01*
X-19982815Y-19744130D01*
X-19921651Y-19745731D01*
X-19873109Y-19782978D01*
X-19864814Y-19798711D01*
X-19863760Y-19804368D01*
X-19858963Y-19812150D01*
X-19849783Y-19827043D01*
X-19843100Y-19839910D01*
X-19832587Y-19864378D01*
X-19828573Y-19869264D01*
X-19824209Y-19873628D01*
X-19809938Y-19891683D01*
X-19805019Y-19899663D01*
X-19781782Y-19917333D01*
X-19771712Y-19926125D01*
X-18879016Y-20818821D01*
X-18851239Y-20873338D01*
X-18850020Y-20888825D01*
X-18850020Y-27514348D01*
X-18868927Y-27572539D01*
X-18918427Y-27608503D01*
X-18979613Y-27608503D01*
X-19009287Y-27592890D01*
X-19092010Y-27529415D01*
X-19097159Y-27525464D01*
X-19139161Y-27508066D01*
X-19177626Y-27492133D01*
X-19224152Y-27452396D01*
X-19238435Y-27392901D01*
X-19226358Y-27354006D01*
X-19225464Y-27352841D01*
X-19164956Y-27206762D01*
X-19144318Y-27050000D01*
X-19164956Y-26893238D01*
X-19225464Y-26747159D01*
X-19321718Y-26621718D01*
X-19447159Y-26525464D01*
X-19593238Y-26464956D01*
X-19750000Y-26444318D01*
X-19906762Y-26464956D01*
X-19912759Y-26467440D01*
X-19954054Y-26484545D01*
X-20015051Y-26489346D01*
X-20061944Y-26463085D01*
X-23149680Y-23375349D01*
X-23152380Y-23372220D01*
X-23154575Y-23367731D01*
X-23190822Y-23334107D01*
X-23193498Y-23331531D01*
X-23207277Y-23317752D01*
X-23210987Y-23315207D01*
X-23214900Y-23311771D01*
X-23229945Y-23297815D01*
X-23236646Y-23291599D01*
X-23247336Y-23287334D01*
X-23266652Y-23277020D01*
X-23268607Y-23275679D01*
X-23268610Y-23275678D01*
X-23276146Y-23270508D01*
X-23302059Y-23264359D01*
X-23315884Y-23259986D01*
X-23334132Y-23252706D01*
X-23334134Y-23252706D01*
X-23340622Y-23250117D01*
X-23346915Y-23249500D01*
X-23353084Y-23249500D01*
X-23375943Y-23246825D01*
X-23376173Y-23246770D01*
X-23376175Y-23246770D01*
X-23385066Y-23244660D01*
X-23412826Y-23248438D01*
X-23413987Y-23248596D01*
X-23427337Y-23249500D01*
X-24196492Y-23249500D01*
X-24200617Y-23249197D01*
X-24205342Y-23247575D01*
X-24222554Y-23248221D01*
X-24237959Y-23248799D01*
X-24279558Y-23241333D01*
X-24337241Y-23217440D01*
X-24343238Y-23214956D01*
X-24500000Y-23194318D01*
X-24656762Y-23214956D01*
X-24802841Y-23275464D01*
X-24928282Y-23371718D01*
X-25024536Y-23497159D01*
X-25085044Y-23643238D01*
X-25105682Y-23800000D01*
X-25085044Y-23956762D01*
X-25024536Y-24102841D01*
X-24928282Y-24228282D01*
X-24802841Y-24324536D01*
X-24656762Y-24385044D01*
X-24500000Y-24405682D01*
X-24343238Y-24385044D01*
X-24318538Y-24374813D01*
X-24257543Y-24370012D01*
X-24205374Y-24401981D01*
X-24189189Y-24428391D01*
X-24133802Y-24562107D01*
X-24037548Y-24687548D01*
X-23912107Y-24783802D01*
X-23766028Y-24844310D01*
X-23609266Y-24864948D01*
X-23481606Y-24848141D01*
X-23421447Y-24859291D01*
X-23398681Y-24876290D01*
X-20050316Y-28224656D01*
X-20047619Y-28227781D01*
X-20045425Y-28232269D01*
X-20038723Y-28238486D01*
X-20009192Y-28265880D01*
X-20006516Y-28268456D01*
X-19992724Y-28282248D01*
X-19989013Y-28284793D01*
X-19985094Y-28288234D01*
X-19963354Y-28308401D01*
X-19960844Y-28309402D01*
X-19932801Y-28342692D01*
X-19930263Y-28341227D01*
X-19927020Y-28346844D01*
X-19924536Y-28352841D01*
X-19828282Y-28478282D01*
X-19702841Y-28574536D01*
X-19556762Y-28635044D01*
X-19400000Y-28655682D01*
X-19243238Y-28635044D01*
X-19097159Y-28574536D01*
X-19009288Y-28507110D01*
X-18951611Y-28486686D01*
X-18892945Y-28504064D01*
X-18855698Y-28552605D01*
X-18850020Y-28585652D01*
X-18850020Y-30077401D01*
X-18868927Y-30135592D01*
X-18879016Y-30147404D01*
X-19322698Y-30591087D01*
X-19325831Y-30593792D01*
X-19330320Y-30595986D01*
X-19336538Y-30602689D01*
X-19363944Y-30632233D01*
X-19366520Y-30634909D01*
X-19380299Y-30648688D01*
X-19382844Y-30652398D01*
X-19386280Y-30656311D01*
X-19406452Y-30678057D01*
X-19409839Y-30686545D01*
X-19409839Y-30686546D01*
X-19410717Y-30688747D01*
X-19421031Y-30708063D01*
X-19422372Y-30710018D01*
X-19422373Y-30710021D01*
X-19427543Y-30717557D01*
X-19429653Y-30726449D01*
X-19433692Y-30743469D01*
X-19438065Y-30757295D01*
X-19445345Y-30775543D01*
X-19447934Y-30782033D01*
X-19448551Y-30788326D01*
X-19448551Y-30794495D01*
X-19451226Y-30817354D01*
X-19453391Y-30826477D01*
X-19450619Y-30846846D01*
X-19449455Y-30855398D01*
X-19448551Y-30868748D01*
X-19448551Y-33332572D01*
X-19467458Y-33390763D01*
X-19477547Y-33402576D01*
X-21245475Y-35170504D01*
X-21299992Y-35198281D01*
X-21315479Y-35199500D01*
X-25713213Y-35199500D01*
X-25771404Y-35180593D01*
X-25791755Y-35160767D01*
X-25817764Y-35126871D01*
X-25821718Y-35121718D01*
X-25947159Y-35025464D01*
X-26093238Y-34964956D01*
X-26250000Y-34944318D01*
X-26406762Y-34964956D01*
X-26552841Y-35025464D01*
X-26678282Y-35121718D01*
X-26774536Y-35247159D01*
X-26835044Y-35393238D01*
X-26855682Y-35550000D01*
X-26835044Y-35706762D01*
X-26832560Y-35712759D01*
X-26812112Y-35762125D01*
X-26807311Y-35823122D01*
X-26839281Y-35875291D01*
X-26895809Y-35898706D01*
X-26903576Y-35899011D01*
X-27035010Y-35899011D01*
X-27093201Y-35880104D01*
X-27105014Y-35870015D01*
X-27230820Y-35744209D01*
X-27258597Y-35689692D01*
X-27258969Y-35661283D01*
X-27245165Y-35556433D01*
X-27244318Y-35550000D01*
X-27264956Y-35393238D01*
X-27325464Y-35247159D01*
X-27421718Y-35121718D01*
X-27547159Y-35025464D01*
X-27693238Y-34964956D01*
X-27850000Y-34944318D01*
X-28006762Y-34964956D01*
X-28012760Y-34967440D01*
X-28012762Y-34967441D01*
X-28112615Y-35008801D01*
X-28173611Y-35013602D01*
X-28225780Y-34981632D01*
X-28249195Y-34925104D01*
X-28249500Y-34917337D01*
X-28249500Y-33453514D01*
X-28249197Y-33449385D01*
X-28247574Y-33444658D01*
X-28249430Y-33395223D01*
X-28249500Y-33391509D01*
X-28249500Y-33372052D01*
X-28250325Y-33367622D01*
X-28250661Y-33362436D01*
X-28251431Y-33341925D01*
X-28251431Y-33341924D01*
X-28251774Y-33332792D01*
X-28255380Y-33324398D01*
X-28255381Y-33324395D01*
X-28256317Y-33322217D01*
X-28262683Y-33301266D01*
X-28264791Y-33289947D01*
X-28278770Y-33267269D01*
X-28285450Y-33254409D01*
X-28293208Y-33236352D01*
X-28293209Y-33236351D01*
X-28295964Y-33229938D01*
X-28299977Y-33225051D01*
X-28304343Y-33220685D01*
X-28318615Y-33202629D01*
X-28318736Y-33202432D01*
X-28318737Y-33202431D01*
X-28323532Y-33194652D01*
X-28346756Y-33176992D01*
X-28356835Y-33168193D01*
X-31091235Y-30433794D01*
X-31114709Y-30393136D01*
X-31114956Y-30393238D01*
X-31115732Y-30391364D01*
X-31115733Y-30391363D01*
X-31175464Y-30247159D01*
X-31271718Y-30121718D01*
X-31360768Y-30053387D01*
X-31395423Y-30002963D01*
X-31399500Y-29974846D01*
X-31399500Y-28965479D01*
X-31380593Y-28907288D01*
X-31370504Y-28895475D01*
X-24804524Y-22329496D01*
X-24750007Y-22301719D01*
X-24734520Y-22300500D01*
X-22275154Y-22300500D01*
X-22216963Y-22319407D01*
X-22196613Y-22339231D01*
X-22128282Y-22428282D01*
X-22002841Y-22524536D01*
X-21856762Y-22585044D01*
X-21700000Y-22605682D01*
X-21543238Y-22585044D01*
X-21397159Y-22524536D01*
X-21271718Y-22428282D01*
X-21175464Y-22302841D01*
X-21114956Y-22156762D01*
X-21094318Y-22000000D01*
X-21114956Y-21843238D01*
X-21175464Y-21697159D01*
X-21271718Y-21571718D01*
X-21397159Y-21475464D01*
X-21543238Y-21414956D01*
X-21700000Y-21394318D01*
X-21856762Y-21414956D01*
X-22002841Y-21475464D01*
X-22128282Y-21571718D01*
X-22196612Y-21660768D01*
X-22247037Y-21695423D01*
X-22275154Y-21699500D01*
X-24846492Y-21699500D01*
X-24850617Y-21699197D01*
X-24855342Y-21697575D01*
X-24904762Y-21699430D01*
X-24908475Y-21699500D01*
X-24927948Y-21699500D01*
X-24932378Y-21700325D01*
X-24937571Y-21700661D01*
X-24956702Y-21701379D01*
X-24958074Y-21701431D01*
X-24967209Y-21701774D01*
X-24975606Y-21705382D01*
X-24975607Y-21705382D01*
X-24977788Y-21706319D01*
X-24998737Y-21712683D01*
X-25001064Y-21713116D01*
X-25001069Y-21713118D01*
X-25010053Y-21714791D01*
X-25032728Y-21728768D01*
X-25045596Y-21735452D01*
X-25063642Y-21743205D01*
X-25063643Y-21743206D01*
X-25070063Y-21745964D01*
X-25074949Y-21749978D01*
X-25079313Y-21754342D01*
X-25097368Y-21768613D01*
X-25105348Y-21773532D01*
X-25123018Y-21796769D01*
X-25131810Y-21806839D01*
X-31874651Y-28549680D01*
X-31877780Y-28552380D01*
X-31882269Y-28554575D01*
X-31888487Y-28561278D01*
X-31915893Y-28590822D01*
X-31918469Y-28593498D01*
X-31932248Y-28607277D01*
X-31934793Y-28610987D01*
X-31938229Y-28614900D01*
X-31958401Y-28636646D01*
X-31961788Y-28645134D01*
X-31961788Y-28645135D01*
X-31962666Y-28647336D01*
X-31972980Y-28666652D01*
X-31974321Y-28668607D01*
X-31974322Y-28668610D01*
X-31979492Y-28676146D01*
X-31981602Y-28685038D01*
X-31985641Y-28702058D01*
X-31990014Y-28715884D01*
X-31997294Y-28734132D01*
X-31999883Y-28740622D01*
X-32000500Y-28746915D01*
X-32000500Y-28753084D01*
X-32003175Y-28775943D01*
X-32005340Y-28785066D01*
X-32001404Y-28813987D01*
X-32000500Y-28827337D01*
X-32000500Y-29974846D01*
X-32019407Y-30033037D01*
X-32039231Y-30053387D01*
X-32128282Y-30121718D01*
X-32224536Y-30247159D01*
X-32285044Y-30393238D01*
X-32305682Y-30550000D01*
X-32285044Y-30706762D01*
X-32224536Y-30852841D01*
X-32128282Y-30978282D01*
X-32002841Y-31074536D01*
X-31856762Y-31135044D01*
X-31700000Y-31155682D01*
X-31543238Y-31135044D01*
X-31401520Y-31076342D01*
X-31401518Y-31076342D01*
X-31397159Y-31074536D01*
X-31396824Y-31075344D01*
X-31342401Y-31063774D01*
X-31282743Y-31092228D01*
X-29488460Y-32886511D01*
X-29460683Y-32941028D01*
X-29470254Y-33001460D01*
X-29513519Y-33044725D01*
X-29571385Y-33054668D01*
X-29650000Y-33044318D01*
X-29806762Y-33064956D01*
X-29952841Y-33125464D01*
X-30078282Y-33221718D01*
X-30146612Y-33310768D01*
X-30197037Y-33345423D01*
X-30225154Y-33349500D01*
X-30553068Y-33349500D01*
X-30611259Y-33330593D01*
X-30623072Y-33320504D01*
X-37120504Y-26823073D01*
X-37148281Y-26768556D01*
X-37149500Y-26753069D01*
X-37149500Y-23050000D01*
X-33755682Y-23050000D01*
X-33735044Y-23206762D01*
X-33674536Y-23352841D01*
X-33578282Y-23478282D01*
X-33452841Y-23574536D01*
X-33306762Y-23635044D01*
X-33150000Y-23655682D01*
X-32993238Y-23635044D01*
X-32847159Y-23574536D01*
X-32721718Y-23478282D01*
X-32625464Y-23352841D01*
X-32564956Y-23206762D01*
X-32544318Y-23050000D01*
X-32558969Y-22938716D01*
X-32547819Y-22878557D01*
X-32530820Y-22855791D01*
X-30205807Y-20530779D01*
X-30151290Y-20503002D01*
X-30090858Y-20512573D01*
X-30057263Y-20540514D01*
X-30028282Y-20578282D01*
X-29902841Y-20674536D01*
X-29756762Y-20735044D01*
X-29600000Y-20755682D01*
X-29443238Y-20735044D01*
X-29297159Y-20674536D01*
X-29171718Y-20578282D01*
X-29103387Y-20489232D01*
X-29052963Y-20454577D01*
X-29024846Y-20450500D01*
X-22825154Y-20450500D01*
X-22766963Y-20469407D01*
X-22746613Y-20489231D01*
X-22678282Y-20578282D01*
X-22552841Y-20674536D01*
X-22406762Y-20735044D01*
X-22250000Y-20755682D01*
X-22093238Y-20735044D01*
X-21947159Y-20674536D01*
X-21821718Y-20578282D01*
X-21725464Y-20452841D01*
X-21664956Y-20306762D01*
X-21644318Y-20150000D01*
X-21664956Y-19993238D01*
X-21725464Y-19847159D01*
X-21821718Y-19721718D01*
X-21947159Y-19625464D01*
X-22093238Y-19564956D01*
X-22250000Y-19544318D01*
X-22406762Y-19564956D01*
X-22552841Y-19625464D01*
X-22678282Y-19721718D01*
X-22740969Y-19803414D01*
X-22746612Y-19810768D01*
X-22797037Y-19845423D01*
X-22825154Y-19849500D01*
X-29024846Y-19849500D01*
X-29083037Y-19830593D01*
X-29103388Y-19810768D01*
X-29109031Y-19803414D01*
X-29171718Y-19721718D01*
X-29297159Y-19625464D01*
X-29443238Y-19564956D01*
X-29600000Y-19544318D01*
X-29756762Y-19564956D01*
X-29902841Y-19625464D01*
X-30028282Y-19721718D01*
X-30090969Y-19803414D01*
X-30096612Y-19810768D01*
X-30147037Y-19845423D01*
X-30175154Y-19849500D01*
X-30196492Y-19849500D01*
X-30200617Y-19849197D01*
X-30205342Y-19847575D01*
X-30254762Y-19849430D01*
X-30258475Y-19849500D01*
X-30277948Y-19849500D01*
X-30282378Y-19850325D01*
X-30287571Y-19850661D01*
X-30306702Y-19851379D01*
X-30308074Y-19851431D01*
X-30317209Y-19851774D01*
X-30325606Y-19855382D01*
X-30325607Y-19855382D01*
X-30327788Y-19856319D01*
X-30348737Y-19862683D01*
X-30351064Y-19863116D01*
X-30351069Y-19863118D01*
X-30360053Y-19864791D01*
X-30374389Y-19873628D01*
X-30382728Y-19878768D01*
X-30395596Y-19885452D01*
X-30413642Y-19893205D01*
X-30413643Y-19893206D01*
X-30420063Y-19895964D01*
X-30424949Y-19899978D01*
X-30429313Y-19904342D01*
X-30447368Y-19918613D01*
X-30455348Y-19923532D01*
X-30473018Y-19946769D01*
X-30481810Y-19956839D01*
X-32955791Y-22430820D01*
X-33010308Y-22458597D01*
X-33038714Y-22458969D01*
X-33150000Y-22444318D01*
X-33306762Y-22464956D01*
X-33452841Y-22525464D01*
X-33578282Y-22621718D01*
X-33674536Y-22747159D01*
X-33735044Y-22893238D01*
X-33755682Y-23050000D01*
X-37149500Y-23050000D01*
X-37149500Y-12685262D01*
X-31535480Y-12685262D01*
X-31534474Y-12697244D01*
X-31519176Y-12879415D01*
X-31518241Y-12890553D01*
X-31516908Y-12895201D01*
X-31516908Y-12895202D01*
X-31494967Y-12971718D01*
X-31461456Y-13088586D01*
X-31367288Y-13271818D01*
X-31239323Y-13433270D01*
X-31235643Y-13436402D01*
X-31235641Y-13436404D01*
X-31185816Y-13478808D01*
X-31082436Y-13566791D01*
X-31078213Y-13569151D01*
X-31078209Y-13569154D01*
X-31038658Y-13591258D01*
X-30902602Y-13667297D01*
X-30898004Y-13668791D01*
X-30711276Y-13729463D01*
X-30711274Y-13729464D01*
X-30706671Y-13730959D01*
X-30502106Y-13755351D01*
X-30497284Y-13754980D01*
X-30497281Y-13754980D01*
X-30429459Y-13749761D01*
X-30296700Y-13739546D01*
X-30098275Y-13684145D01*
X-30093962Y-13681966D01*
X-30093956Y-13681964D01*
X-29918711Y-13593441D01*
X-29918709Y-13593440D01*
X-29914390Y-13591258D01*
X-29879057Y-13563653D01*
X-29755865Y-13467406D01*
X-29755861Y-13467402D01*
X-29752049Y-13464424D01*
X-29694299Y-13397520D01*
X-29652548Y-13349150D01*
X-29617436Y-13308472D01*
X-29598769Y-13275613D01*
X-29518066Y-13133550D01*
X-29518065Y-13133547D01*
X-29515677Y-13129344D01*
X-29506964Y-13103154D01*
X-29452176Y-12938454D01*
X-29452176Y-12938452D01*
X-29450649Y-12933863D01*
X-29443271Y-12875464D01*
X-29425177Y-12732228D01*
X-29424829Y-12729474D01*
X-29424417Y-12700000D01*
X-29425862Y-12685262D01*
X-28995480Y-12685262D01*
X-28994474Y-12697244D01*
X-28979176Y-12879415D01*
X-28978241Y-12890553D01*
X-28976908Y-12895201D01*
X-28976908Y-12895202D01*
X-28954967Y-12971718D01*
X-28921456Y-13088586D01*
X-28827288Y-13271818D01*
X-28699323Y-13433270D01*
X-28695643Y-13436402D01*
X-28695641Y-13436404D01*
X-28645816Y-13478808D01*
X-28542436Y-13566791D01*
X-28538213Y-13569151D01*
X-28538209Y-13569154D01*
X-28498658Y-13591258D01*
X-28362602Y-13667297D01*
X-28358004Y-13668791D01*
X-28171276Y-13729463D01*
X-28171274Y-13729464D01*
X-28166671Y-13730959D01*
X-27962106Y-13755351D01*
X-27957284Y-13754980D01*
X-27957281Y-13754980D01*
X-27889459Y-13749761D01*
X-27756700Y-13739546D01*
X-27558275Y-13684145D01*
X-27553962Y-13681966D01*
X-27553956Y-13681964D01*
X-27378711Y-13593441D01*
X-27378709Y-13593440D01*
X-27374390Y-13591258D01*
X-27339057Y-13563653D01*
X-27215865Y-13467406D01*
X-27215861Y-13467402D01*
X-27212049Y-13464424D01*
X-27154299Y-13397520D01*
X-27112548Y-13349150D01*
X-27077436Y-13308472D01*
X-27058769Y-13275613D01*
X-26978066Y-13133550D01*
X-26978065Y-13133547D01*
X-26975677Y-13129344D01*
X-26966964Y-13103154D01*
X-26912176Y-12938454D01*
X-26912176Y-12938452D01*
X-26910649Y-12933863D01*
X-26903271Y-12875464D01*
X-26885177Y-12732228D01*
X-26884829Y-12729474D01*
X-26884417Y-12700000D01*
X-26886333Y-12680454D01*
X-26904048Y-12499780D01*
X-26904049Y-12499776D01*
X-26904520Y-12494970D01*
X-26905919Y-12490334D01*
X-26962667Y-12302380D01*
X-26964065Y-12297749D01*
X-27060782Y-12115849D01*
X-27190989Y-11956200D01*
X-27337361Y-11835110D01*
X-27345998Y-11827965D01*
X-27346000Y-11827964D01*
X-27349725Y-11824882D01*
X-27493221Y-11747294D01*
X-27526691Y-11729197D01*
X-27526692Y-11729197D01*
X-27530945Y-11726897D01*
X-27610770Y-11702187D01*
X-27723125Y-11667407D01*
X-27723129Y-11667406D01*
X-27727746Y-11665977D01*
X-27732554Y-11665472D01*
X-27732557Y-11665471D01*
X-27927815Y-11644949D01*
X-27927817Y-11644949D01*
X-27932631Y-11644443D01*
X-27988200Y-11649500D01*
X-28132978Y-11662675D01*
X-28132983Y-11662676D01*
X-28137797Y-11663114D01*
X-28335428Y-11721280D01*
X-28339712Y-11723519D01*
X-28339713Y-11723520D01*
X-28396437Y-11753175D01*
X-28517998Y-11816726D01*
X-28521769Y-11819758D01*
X-28674780Y-11942781D01*
X-28674783Y-11942783D01*
X-28678553Y-11945815D01*
X-28681664Y-11949523D01*
X-28681668Y-11949527D01*
X-28690415Y-11959952D01*
X-28810976Y-12103630D01*
X-28813311Y-12107878D01*
X-28813312Y-12107879D01*
X-28820045Y-12120126D01*
X-28910224Y-12284162D01*
X-28972516Y-12480532D01*
X-28973056Y-12485344D01*
X-28973056Y-12485345D01*
X-28993589Y-12668407D01*
X-28995480Y-12685262D01*
X-29425862Y-12685262D01*
X-29426333Y-12680454D01*
X-29444048Y-12499780D01*
X-29444049Y-12499776D01*
X-29444520Y-12494970D01*
X-29445919Y-12490334D01*
X-29502667Y-12302380D01*
X-29504065Y-12297749D01*
X-29600782Y-12115849D01*
X-29730989Y-11956200D01*
X-29877361Y-11835110D01*
X-29885998Y-11827965D01*
X-29886000Y-11827964D01*
X-29889725Y-11824882D01*
X-30033221Y-11747294D01*
X-30066691Y-11729197D01*
X-30066692Y-11729197D01*
X-30070945Y-11726897D01*
X-30150770Y-11702187D01*
X-30263125Y-11667407D01*
X-30263129Y-11667406D01*
X-30267746Y-11665977D01*
X-30272554Y-11665472D01*
X-30272557Y-11665471D01*
X-30467815Y-11644949D01*
X-30467817Y-11644949D01*
X-30472631Y-11644443D01*
X-30528200Y-11649500D01*
X-30672978Y-11662675D01*
X-30672983Y-11662676D01*
X-30677797Y-11663114D01*
X-30875428Y-11721280D01*
X-30879712Y-11723519D01*
X-30879713Y-11723520D01*
X-30936437Y-11753175D01*
X-31057998Y-11816726D01*
X-31061769Y-11819758D01*
X-31214780Y-11942781D01*
X-31214783Y-11942783D01*
X-31218553Y-11945815D01*
X-31221664Y-11949523D01*
X-31221668Y-11949527D01*
X-31230415Y-11959952D01*
X-31350976Y-12103630D01*
X-31353311Y-12107878D01*
X-31353312Y-12107879D01*
X-31360045Y-12120126D01*
X-31450224Y-12284162D01*
X-31512516Y-12480532D01*
X-31513056Y-12485344D01*
X-31513056Y-12485345D01*
X-31533589Y-12668407D01*
X-31535480Y-12685262D01*
X-37149500Y-12685262D01*
X-37149500Y-10145262D01*
X-31535480Y-10145262D01*
X-31518241Y-10350553D01*
X-31516908Y-10355201D01*
X-31516908Y-10355202D01*
X-31463914Y-10540013D01*
X-31461456Y-10548586D01*
X-31459241Y-10552896D01*
X-31436073Y-10597976D01*
X-31367288Y-10731818D01*
X-31239323Y-10893270D01*
X-31235643Y-10896402D01*
X-31235641Y-10896404D01*
X-31145456Y-10973157D01*
X-31082436Y-11026791D01*
X-31078213Y-11029151D01*
X-31078209Y-11029154D01*
X-30972502Y-11088231D01*
X-30902602Y-11127297D01*
X-30898004Y-11128791D01*
X-30711276Y-11189463D01*
X-30711274Y-11189464D01*
X-30706671Y-11190959D01*
X-30502106Y-11215351D01*
X-30497284Y-11214980D01*
X-30497281Y-11214980D01*
X-30426741Y-11209552D01*
X-30296700Y-11199546D01*
X-30098275Y-11144145D01*
X-30093962Y-11141966D01*
X-30093956Y-11141964D01*
X-29918711Y-11053441D01*
X-29918709Y-11053440D01*
X-29914390Y-11051258D01*
X-29872982Y-11018907D01*
X-29755865Y-10927406D01*
X-29755861Y-10927402D01*
X-29752049Y-10924424D01*
X-29742385Y-10913229D01*
X-29653449Y-10810194D01*
X-29617436Y-10768472D01*
X-29605018Y-10746612D01*
X-29518066Y-10593550D01*
X-29518065Y-10593547D01*
X-29515677Y-10589344D01*
X-29506717Y-10562412D01*
X-29452176Y-10398454D01*
X-29452176Y-10398452D01*
X-29450649Y-10393863D01*
X-29443357Y-10336145D01*
X-29425177Y-10192228D01*
X-29424829Y-10189474D01*
X-29424417Y-10160000D01*
X-29425862Y-10145262D01*
X-28995480Y-10145262D01*
X-28978241Y-10350553D01*
X-28976908Y-10355201D01*
X-28976908Y-10355202D01*
X-28923914Y-10540013D01*
X-28921456Y-10548586D01*
X-28919241Y-10552896D01*
X-28896073Y-10597976D01*
X-28827288Y-10731818D01*
X-28699323Y-10893270D01*
X-28695643Y-10896402D01*
X-28695641Y-10896404D01*
X-28605456Y-10973157D01*
X-28542436Y-11026791D01*
X-28538213Y-11029151D01*
X-28538209Y-11029154D01*
X-28432502Y-11088231D01*
X-28362602Y-11127297D01*
X-28358004Y-11128791D01*
X-28171276Y-11189463D01*
X-28171274Y-11189464D01*
X-28166671Y-11190959D01*
X-27962106Y-11215351D01*
X-27957284Y-11214980D01*
X-27957281Y-11214980D01*
X-27886741Y-11209552D01*
X-27756700Y-11199546D01*
X-27558275Y-11144145D01*
X-27553962Y-11141966D01*
X-27553956Y-11141964D01*
X-27378711Y-11053441D01*
X-27378709Y-11053440D01*
X-27374390Y-11051258D01*
X-27332982Y-11018907D01*
X-27215865Y-10927406D01*
X-27215861Y-10927402D01*
X-27212049Y-10924424D01*
X-27202385Y-10913229D01*
X-27113449Y-10810194D01*
X-27077436Y-10768472D01*
X-27065018Y-10746612D01*
X-26978066Y-10593550D01*
X-26978065Y-10593547D01*
X-26975677Y-10589344D01*
X-26966717Y-10562412D01*
X-26912176Y-10398454D01*
X-26912176Y-10398452D01*
X-26910649Y-10393863D01*
X-26903357Y-10336145D01*
X-26885177Y-10192228D01*
X-26884829Y-10189474D01*
X-26884417Y-10160000D01*
X-26894466Y-10057510D01*
X-26904048Y-9959780D01*
X-26904049Y-9959776D01*
X-26904520Y-9954970D01*
X-26907480Y-9945164D01*
X-26943196Y-9826871D01*
X-26964065Y-9757749D01*
X-27060782Y-9575849D01*
X-27190989Y-9416200D01*
X-27221644Y-9390840D01*
X-27345998Y-9287965D01*
X-27346000Y-9287964D01*
X-27349725Y-9284882D01*
X-27530945Y-9186897D01*
X-27600236Y-9165448D01*
X-27723125Y-9127407D01*
X-27723129Y-9127406D01*
X-27727746Y-9125977D01*
X-27732554Y-9125472D01*
X-27732557Y-9125471D01*
X-27927815Y-9104949D01*
X-27927817Y-9104949D01*
X-27932631Y-9104443D01*
X-27988200Y-9109500D01*
X-28132978Y-9122675D01*
X-28132983Y-9122676D01*
X-28137797Y-9123114D01*
X-28335428Y-9181280D01*
X-28339712Y-9183519D01*
X-28339713Y-9183520D01*
X-28350572Y-9189197D01*
X-28517998Y-9276726D01*
X-28521769Y-9279758D01*
X-28674780Y-9402781D01*
X-28674783Y-9402783D01*
X-28678553Y-9405815D01*
X-28681667Y-9409526D01*
X-28681668Y-9409527D01*
X-28718472Y-9453389D01*
X-28810976Y-9563630D01*
X-28813311Y-9567878D01*
X-28813312Y-9567879D01*
X-28820045Y-9580126D01*
X-28910224Y-9744162D01*
X-28911687Y-9748775D01*
X-28911689Y-9748779D01*
X-28913179Y-9753476D01*
X-28972516Y-9940532D01*
X-28973056Y-9945344D01*
X-28973056Y-9945345D01*
X-28985916Y-10060000D01*
X-28995480Y-10145262D01*
X-29425862Y-10145262D01*
X-29434466Y-10057510D01*
X-29444048Y-9959780D01*
X-29444049Y-9959776D01*
X-29444520Y-9954970D01*
X-29447480Y-9945164D01*
X-29483196Y-9826871D01*
X-29504065Y-9757749D01*
X-29600782Y-9575849D01*
X-29730989Y-9416200D01*
X-29761644Y-9390840D01*
X-29885998Y-9287965D01*
X-29886000Y-9287964D01*
X-29889725Y-9284882D01*
X-30070945Y-9186897D01*
X-30140236Y-9165448D01*
X-30263125Y-9127407D01*
X-30263129Y-9127406D01*
X-30267746Y-9125977D01*
X-30272554Y-9125472D01*
X-30272557Y-9125471D01*
X-30467815Y-9104949D01*
X-30467817Y-9104949D01*
X-30472631Y-9104443D01*
X-30528200Y-9109500D01*
X-30672978Y-9122675D01*
X-30672983Y-9122676D01*
X-30677797Y-9123114D01*
X-30875428Y-9181280D01*
X-30879712Y-9183519D01*
X-30879713Y-9183520D01*
X-30890572Y-9189197D01*
X-31057998Y-9276726D01*
X-31061769Y-9279758D01*
X-31214780Y-9402781D01*
X-31214783Y-9402783D01*
X-31218553Y-9405815D01*
X-31221667Y-9409526D01*
X-31221668Y-9409527D01*
X-31258472Y-9453389D01*
X-31350976Y-9563630D01*
X-31353311Y-9567878D01*
X-31353312Y-9567879D01*
X-31360045Y-9580126D01*
X-31450224Y-9744162D01*
X-31451687Y-9748775D01*
X-31451689Y-9748779D01*
X-31453179Y-9753476D01*
X-31512516Y-9940532D01*
X-31513056Y-9945344D01*
X-31513056Y-9945345D01*
X-31525916Y-10060000D01*
X-31535480Y-10145262D01*
X-37149500Y-10145262D01*
X-37149500Y32784521D01*
X-37130593Y32842712D01*
X-37120504Y32854525D01*
X-36367485Y33607544D01*
X-36312968Y33635321D01*
X-36284559Y33635693D01*
X-36199568Y33624504D01*
X-36193134Y33623657D01*
X-36036372Y33644295D01*
X-35890293Y33704803D01*
X-35764852Y33801057D01*
X-35668598Y33926498D01*
X-35608090Y34072577D01*
X-35587452Y34229339D01*
X-35608090Y34386101D01*
X-35668598Y34532180D01*
X-35764852Y34657621D01*
X-35890293Y34753875D01*
X-36036372Y34814383D01*
X-36042807Y34815230D01*
X-36048311Y34816705D01*
X-36099626Y34850030D01*
X-36121552Y34907151D01*
X-36105716Y34966252D01*
X-36092692Y34982336D01*
X-28875028Y42200000D01*
X-20605682Y42200000D01*
X-20585044Y42043238D01*
X-20524536Y41897159D01*
X-20428282Y41771718D01*
X-20302841Y41675464D01*
X-20156762Y41614956D01*
X-20000000Y41594318D01*
X-19843238Y41614956D01*
X-19697159Y41675464D01*
X-19571718Y41771718D01*
X-19503387Y41860768D01*
X-19452963Y41895423D01*
X-19424846Y41899500D01*
X-17075154Y41899500D01*
X-17016963Y41880593D01*
X-16996613Y41860769D01*
X-16928282Y41771718D01*
X-16802841Y41675464D01*
X-16656762Y41614956D01*
X-16500000Y41594318D01*
X-16343238Y41614956D01*
X-16197159Y41675464D01*
X-16071718Y41771718D01*
X-16003387Y41860768D01*
X-15952963Y41895423D01*
X-15924846Y41899500D01*
X-13575154Y41899500D01*
X-13516963Y41880593D01*
X-13496613Y41860769D01*
X-13428282Y41771718D01*
X-13302841Y41675464D01*
X-13156762Y41614956D01*
X-13069505Y41603469D01*
X-13012423Y41575320D01*
X-12709496Y41272393D01*
X-12681719Y41217876D01*
X-12680500Y41202389D01*
X-12680500Y-1347067D01*
X-12700958Y-1407334D01*
X-12754536Y-1477159D01*
X-12815044Y-1623238D01*
X-12835682Y-1780000D01*
X-12815044Y-1936762D01*
X-12754536Y-2082841D01*
X-12750585Y-2087990D01*
X-12700958Y-2152666D01*
X-12680500Y-2212933D01*
X-12680500Y-5602389D01*
X-12699407Y-5660580D01*
X-12709496Y-5672393D01*
X-16560496Y-9523393D01*
X-16615013Y-9551170D01*
X-16675445Y-9541599D01*
X-16718710Y-9498334D01*
X-16729500Y-9453389D01*
X-16729500Y-9290252D01*
X-16741133Y-9231769D01*
X-16785448Y-9165448D01*
X-16851769Y-9121133D01*
X-16861332Y-9119231D01*
X-16861334Y-9119230D01*
X-16884005Y-9114721D01*
X-16910252Y-9109500D01*
X-18649748Y-9109500D01*
X-18675995Y-9114721D01*
X-18698666Y-9119230D01*
X-18698668Y-9119231D01*
X-18708231Y-9121133D01*
X-18774552Y-9165448D01*
X-18818867Y-9231769D01*
X-18830500Y-9290252D01*
X-18830500Y-11029748D01*
X-18818867Y-11088231D01*
X-18774552Y-11154552D01*
X-18708231Y-11198867D01*
X-18698668Y-11200769D01*
X-18698666Y-11200770D01*
X-18675995Y-11205279D01*
X-18649748Y-11210500D01*
X-16910252Y-11210500D01*
X-16884005Y-11205279D01*
X-16861334Y-11200770D01*
X-16861332Y-11200769D01*
X-16851769Y-11198867D01*
X-16785448Y-11154552D01*
X-16741133Y-11088231D01*
X-16729500Y-11029748D01*
X-16729500Y-10709500D01*
X-16710593Y-10651309D01*
X-16661093Y-10615345D01*
X-16630500Y-10610500D01*
X-16592627Y-10610500D01*
X-16580991Y-10611186D01*
X-16545690Y-10615364D01*
X-16538414Y-10614035D01*
X-16538411Y-10614035D01*
X-16507712Y-10608428D01*
X-16487570Y-10604749D01*
X-16484524Y-10604242D01*
X-16426038Y-10595449D01*
X-16419525Y-10592321D01*
X-16412427Y-10591025D01*
X-16360018Y-10563801D01*
X-16357238Y-10562412D01*
X-16310592Y-10540013D01*
X-16310589Y-10540011D01*
X-16303921Y-10536809D01*
X-16299479Y-10532703D01*
X-16297219Y-10531180D01*
X-16292212Y-10528579D01*
X-16287172Y-10524275D01*
X-16249540Y-10486643D01*
X-16246737Y-10483949D01*
X-16209876Y-10449876D01*
X-16209874Y-10449873D01*
X-16204444Y-10444854D01*
X-16200922Y-10438790D01*
X-16194362Y-10431465D01*
X-11934516Y-6171619D01*
X-11925803Y-6163877D01*
X-11903701Y-6146453D01*
X-11897890Y-6141872D01*
X-11864296Y-6093266D01*
X-11862489Y-6090737D01*
X-11831761Y-6049135D01*
X-11831760Y-6049134D01*
X-11827365Y-6043183D01*
X-11824971Y-6036366D01*
X-11820869Y-6030431D01*
X-11803052Y-5974096D01*
X-11802072Y-5971159D01*
X-11784932Y-5922352D01*
X-11784932Y-5922350D01*
X-11782480Y-5915369D01*
X-11782242Y-5909327D01*
X-11781720Y-5906647D01*
X-11780020Y-5901270D01*
X-11779500Y-5894663D01*
X-11779500Y-5841469D01*
X-11779424Y-5837583D01*
X-11777452Y-5787396D01*
X-11777452Y-5787394D01*
X-11777162Y-5780006D01*
X-11778959Y-5773228D01*
X-11779500Y-5763402D01*
X-11779500Y-2212933D01*
X-11759042Y-2152666D01*
X-11709415Y-2087990D01*
X-11705464Y-2082841D01*
X-11644956Y-1936762D01*
X-11624318Y-1780000D01*
X-11644956Y-1623238D01*
X-11705464Y-1477159D01*
X-11759042Y-1407334D01*
X-11779500Y-1347067D01*
X-11779500Y41397374D01*
X-11778814Y41409010D01*
X-11775506Y41436963D01*
X-11774636Y41444311D01*
X-11775965Y41451587D01*
X-11775965Y41451591D01*
X-11785250Y41502427D01*
X-11785761Y41505495D01*
X-11793451Y41556645D01*
X-11794551Y41563962D01*
X-11797679Y41570475D01*
X-11798975Y41577573D01*
X-11826207Y41629998D01*
X-11827597Y41632779D01*
X-11853191Y41686079D01*
X-11857295Y41690519D01*
X-11858820Y41692782D01*
X-11861421Y41697789D01*
X-11865725Y41702828D01*
X-11893393Y41730496D01*
X-11921170Y41785013D01*
X-11911599Y41845445D01*
X-11868334Y41888710D01*
X-11823389Y41899500D01*
X-10075154Y41899500D01*
X-10016963Y41880593D01*
X-9996613Y41860769D01*
X-9928282Y41771718D01*
X-9802841Y41675464D01*
X-9656762Y41614956D01*
X-9500000Y41594318D01*
X-9343238Y41614956D01*
X-9197159Y41675464D01*
X-9071718Y41771718D01*
X-9003387Y41860768D01*
X-8952963Y41895423D01*
X-8924846Y41899500D01*
X-6575154Y41899500D01*
X-6516963Y41880593D01*
X-6496613Y41860769D01*
X-6428282Y41771718D01*
X-6302841Y41675464D01*
X-6156762Y41614956D01*
X-6000000Y41594318D01*
X-5843238Y41614956D01*
X-5697159Y41675464D01*
X-5571718Y41771718D01*
X-5475464Y41897159D01*
X-5414956Y42043238D01*
X-5394318Y42200000D01*
X-5414956Y42356762D01*
X-5475464Y42502841D01*
X-5571718Y42628282D01*
X-5697159Y42724536D01*
X-5843238Y42785044D01*
X-6000000Y42805682D01*
X-6156762Y42785044D01*
X-6302841Y42724536D01*
X-6428282Y42628282D01*
X-6496612Y42539232D01*
X-6547037Y42504577D01*
X-6575154Y42500500D01*
X-8924846Y42500500D01*
X-8983037Y42519407D01*
X-9003388Y42539232D01*
X-9071718Y42628282D01*
X-9197159Y42724536D01*
X-9343238Y42785044D01*
X-9500000Y42805682D01*
X-9656762Y42785044D01*
X-9802841Y42724536D01*
X-9928282Y42628282D01*
X-9996612Y42539232D01*
X-10047037Y42504577D01*
X-10075154Y42500500D01*
X-12424846Y42500500D01*
X-12483037Y42519407D01*
X-12503388Y42539232D01*
X-12571718Y42628282D01*
X-12697159Y42724536D01*
X-12843238Y42785044D01*
X-13000000Y42805682D01*
X-13156762Y42785044D01*
X-13302841Y42724536D01*
X-13428282Y42628282D01*
X-13496612Y42539232D01*
X-13547037Y42504577D01*
X-13575154Y42500500D01*
X-15924846Y42500500D01*
X-15983037Y42519407D01*
X-16003388Y42539232D01*
X-16071718Y42628282D01*
X-16197159Y42724536D01*
X-16343238Y42785044D01*
X-16500000Y42805682D01*
X-16656762Y42785044D01*
X-16802841Y42724536D01*
X-16928282Y42628282D01*
X-16996612Y42539232D01*
X-17047037Y42504577D01*
X-17075154Y42500500D01*
X-19424846Y42500500D01*
X-19483037Y42519407D01*
X-19503388Y42539232D01*
X-19571718Y42628282D01*
X-19697159Y42724536D01*
X-19843238Y42785044D01*
X-20000000Y42805682D01*
X-20156762Y42785044D01*
X-20302841Y42724536D01*
X-20428282Y42628282D01*
X-20524536Y42502841D01*
X-20585044Y42356762D01*
X-20605682Y42200000D01*
X-28875028Y42200000D01*
X-27694208Y43380820D01*
X-27639691Y43408597D01*
X-27611286Y43408969D01*
X-27500000Y43394318D01*
X-27343238Y43414956D01*
X-27197159Y43475464D01*
X-27071718Y43571718D01*
X-26975464Y43697159D01*
X-26914956Y43843238D01*
X-26894318Y44000000D01*
X-26914956Y44156762D01*
X-26975464Y44302841D01*
X-27071718Y44428282D01*
X-27197159Y44524536D01*
X-27343238Y44585044D01*
X-27500000Y44605682D01*
X-27656762Y44585044D01*
X-27802841Y44524536D01*
X-27928282Y44428282D01*
X-28024536Y44302841D01*
X-28085044Y44156762D01*
X-28105682Y44000000D01*
X-28104835Y43993567D01*
X-28091031Y43888717D01*
X-28102181Y43828557D01*
X-28119180Y43805791D01*
X-37975140Y33949831D01*
X-37978269Y33947131D01*
X-37982758Y33944936D01*
X-37988976Y33938233D01*
X-38016382Y33908689D01*
X-38018958Y33906013D01*
X-38032737Y33892234D01*
X-38035282Y33888524D01*
X-38038718Y33884611D01*
X-38058890Y33862865D01*
X-38062277Y33854377D01*
X-38062277Y33854376D01*
X-38063155Y33852175D01*
X-38073469Y33832859D01*
X-38074810Y33830904D01*
X-38074811Y33830901D01*
X-38079981Y33823365D01*
X-38082091Y33814473D01*
X-38086130Y33797453D01*
X-38090503Y33783627D01*
X-38097783Y33765379D01*
X-38100372Y33758889D01*
X-38100989Y33752596D01*
X-38100989Y33746427D01*
X-38103664Y33723568D01*
X-38105829Y33714445D01*
X-38101893Y33685524D01*
X-38100989Y33672174D01*
X-38100989Y-12746424D01*
X-38119896Y-12804615D01*
X-38169396Y-12840579D01*
X-38230582Y-12840579D01*
X-38237875Y-12837888D01*
X-38287241Y-12817440D01*
X-38293238Y-12814956D01*
X-38450000Y-12794318D01*
X-38606762Y-12814956D01*
X-38752841Y-12875464D01*
X-38878282Y-12971718D01*
X-38974536Y-13097159D01*
X-39035044Y-13243238D01*
X-39055682Y-13400000D01*
X-39800000Y-13400000D01*
X-39800000Y32876149D01*
X-39781093Y32934340D01*
X-39771004Y32946153D01*
X-24946154Y47771004D01*
X-24891637Y47798781D01*
X-24876150Y47800000D01*
X-5033960Y47800000D01*
X-5011773Y47797482D01*
G37*
G04 #@! TD.AperFunction*
M02*
