ISO-10303-21;
HEADER;

/* File generated by Shapr3D Version 3.0 */

FILE_DESCRIPTION(('HOOPS Exchange Step'),'2;1');

FILE_NAME('/private/var/mobile/Containers/Data/Application/E4ED7FA2-9CB2-4221-8224-D3D6C51526AC/tmp/export/temp_export',
'2022-11-21T12:59:23+08:00',
('mobile'),
('Shapr3D Limited'),
'HOOPS Exchange 2022.1',
'Shapr3D',
'Authorized');

FILE_SCHEMA( ('AUTOMOTIVE_DESIGN { 1 0 10303 214 1 1 1 1 }') );

ENDSEC;

DATA;
#3=(NAMED_UNIT(*)PLANE_ANGLE_UNIT()SI_UNIT($,.RADIAN.));
#4=PLANE_ANGLE_MEASURE_WITH_UNIT(PLANE_ANGLE_MEASURE(0.0174532925),#3);
#5=(CONVERSION_BASED_UNIT('DEGREE',#4)NAMED_UNIT(#6)PLANE_ANGLE_UNIT());
#6=DIMENSIONAL_EXPONENTS(0.,0.,0.,0.,0.,0.,0.);
#7=(NAMED_UNIT(*)SI_UNIT($,.STERADIAN.)SOLID_ANGLE_UNIT());
#8=(LENGTH_UNIT()NAMED_UNIT(*)SI_UNIT(.MILLI.,.METRE.));
#9=UNCERTAINTY_MEASURE_WITH_UNIT(LENGTH_MEASURE(1.000000E-05),#8,'DISTANCE_ACCURACY_VALUE','Maximum Tolerance applied to model');
#10=(GEOMETRIC_REPRESENTATION_CONTEXT(3)GLOBAL_UNCERTAINTY_ASSIGNED_CONTEXT((#9))GLOBAL_UNIT_ASSIGNED_CONTEXT((#8,#5,#7))REPRESENTATION_CONTEXT('','root'));
#12=CARTESIAN_POINT('',(0.,0.,0.));
#13=DIRECTION('',(0.,0.,1.));
#14=DIRECTION('',(1.,0.,0.));
#15=AXIS2_PLACEMENT_3D('TS3D_PRODUCT_CSYS',#12,#13,#14);
#27=CARTESIAN_POINT('',(-0.,-0.775,2.9));
#28=DIRECTION('',(0.,1.,0.));
#29=DIRECTION('',(0.,0.,1.));
#30=AXIS2_PLACEMENT_3D('',#27,#28,#29);
#31=PLANE('',#30);
#32=CARTESIAN_POINT('',(-1.85,-0.775,1.95));
#33=VERTEX_POINT('',#32);
#34=CARTESIAN_POINT('',(1.85,-0.775,1.95));
#35=VERTEX_POINT('',#34);
#36=CARTESIAN_POINT('',(-1.85,-0.775,1.95));
#37=DIRECTION('',(1.,0.,-0.));
#38=VECTOR('',#37,3.7);
#39=LINE('',#36,#38);
#40=EDGE_CURVE('',#33,#35,#39,.T.);
#41=ORIENTED_EDGE('',*,*,#40,.F.);
#42=CARTESIAN_POINT('',(-1.95,-0.775,1.85));
#43=VERTEX_POINT('',#42);
#44=CARTESIAN_POINT('',(-1.85,-0.775,1.85));
#45=DIRECTION('',(-0.,-1.,-0.));
#46=DIRECTION('',(0.,-0.,1.));
#47=AXIS2_PLACEMENT_3D('',#44,#45,#46);
#48=CIRCLE('',#47,0.1);
#49=EDGE_CURVE('',#33,#43,#48,.T.);
#50=ORIENTED_EDGE('',*,*,#49,.T.);
#51=CARTESIAN_POINT('',(-1.95,-0.775,1.555926773));
#52=VERTEX_POINT('',#51);
#53=CARTESIAN_POINT('',(-1.95,-0.775,1.85));
#54=DIRECTION('',(0.,0.,-1.));
#55=VECTOR('',#54,0.294073227);
#56=LINE('',#53,#55);
#57=EDGE_CURVE('',#43,#52,#56,.T.);
#58=ORIENTED_EDGE('',*,*,#57,.T.);
#59=CARTESIAN_POINT('',(-1.75,-0.775,1.555926773));
#60=VERTEX_POINT('',#59);
#61=CARTESIAN_POINT('',(-1.95,-0.775,1.555926773));
#62=DIRECTION('',(1.,0.,-0.));
#63=VECTOR('',#62,0.2);
#64=LINE('',#61,#63);
#65=EDGE_CURVE('',#52,#60,#64,.T.);
#66=ORIENTED_EDGE('',*,*,#65,.T.);
#67=CARTESIAN_POINT('',(-1.75,-0.775,1.1));
#68=VERTEX_POINT('',#67);
#69=CARTESIAN_POINT('',(-1.75,-0.775,1.555926773));
#70=DIRECTION('',(0.,0.,-1.));
#71=VECTOR('',#70,0.455926773);
#72=LINE('',#69,#71);
#73=EDGE_CURVE('',#60,#68,#72,.T.);
#74=ORIENTED_EDGE('',*,*,#73,.T.);
#75=CARTESIAN_POINT('',(-1.95,-0.775,1.1));
#76=VERTEX_POINT('',#75);
#77=CARTESIAN_POINT('',(-1.75,-0.775,1.1));
#78=DIRECTION('',(-1.,0.,0.));
#79=VECTOR('',#78,0.2);
#80=LINE('',#77,#79);
#81=EDGE_CURVE('',#68,#76,#80,.T.);
#82=ORIENTED_EDGE('',*,*,#81,.T.);
#83=CARTESIAN_POINT('',(-1.95,-0.775,0.3));
#84=VERTEX_POINT('',#83);
#85=CARTESIAN_POINT('',(-1.95,-0.775,1.1));
#86=DIRECTION('',(0.,0.,-1.));
#87=VECTOR('',#86,0.8);
#88=LINE('',#85,#87);
#89=EDGE_CURVE('',#76,#84,#88,.T.);
#90=ORIENTED_EDGE('',*,*,#89,.T.);
#91=CARTESIAN_POINT('',(-1.65,-0.775,0.));
#92=VERTEX_POINT('',#91);
#93=CARTESIAN_POINT('',(-1.65,-0.775,0.3));
#94=DIRECTION('',(-0.,-1.,-0.));
#95=DIRECTION('',(0.,-0.,1.));
#96=AXIS2_PLACEMENT_3D('',#93,#94,#95);
#97=CIRCLE('',#96,0.3);
#98=EDGE_CURVE('',#84,#92,#97,.T.);
#99=ORIENTED_EDGE('',*,*,#98,.T.);
#100=CARTESIAN_POINT('',(1.65,-0.775,0.));
#101=VERTEX_POINT('',#100);
#102=CARTESIAN_POINT('',(-1.65,-0.775,0.));
#103=DIRECTION('',(1.,0.,-0.));
#104=VECTOR('',#103,3.3);
#105=LINE('',#102,#104);
#106=EDGE_CURVE('',#92,#101,#105,.T.);
#107=ORIENTED_EDGE('',*,*,#106,.T.);
#108=CARTESIAN_POINT('',(1.95,-0.775,0.3));
#109=VERTEX_POINT('',#108);
#110=CARTESIAN_POINT('',(1.65,-0.775,0.3));
#111=DIRECTION('',(-0.,-1.,-0.));
#112=DIRECTION('',(0.,-0.,1.));
#113=AXIS2_PLACEMENT_3D('',#110,#111,#112);
#114=CIRCLE('',#113,0.3);
#115=EDGE_CURVE('',#101,#109,#114,.T.);
#116=ORIENTED_EDGE('',*,*,#115,.T.);
#117=CARTESIAN_POINT('',(1.95,-0.775,1.1));
#118=VERTEX_POINT('',#117);
#119=CARTESIAN_POINT('',(1.95,-0.775,1.1));
#120=DIRECTION('',(0.,0.,-1.));
#121=VECTOR('',#120,0.8);
#122=LINE('',#119,#121);
#123=EDGE_CURVE('',#118,#109,#122,.T.);
#124=ORIENTED_EDGE('',*,*,#123,.F.);
#125=CARTESIAN_POINT('',(1.75,-0.775,1.1));
#126=VERTEX_POINT('',#125);
#127=CARTESIAN_POINT('',(1.75,-0.775,1.1));
#128=DIRECTION('',(1.,0.,-0.));
#129=VECTOR('',#128,0.2);
#130=LINE('',#127,#129);
#131=EDGE_CURVE('',#126,#118,#130,.T.);
#132=ORIENTED_EDGE('',*,*,#131,.F.);
#133=CARTESIAN_POINT('',(1.75,-0.775,1.555926773));
#134=VERTEX_POINT('',#133);
#135=CARTESIAN_POINT('',(1.75,-0.775,1.555926773));
#136=DIRECTION('',(0.,0.,-1.));
#137=VECTOR('',#136,0.455926773);
#138=LINE('',#135,#137);
#139=EDGE_CURVE('',#134,#126,#138,.T.);
#140=ORIENTED_EDGE('',*,*,#139,.F.);
#141=CARTESIAN_POINT('',(1.95,-0.775,1.555926773));
#142=VERTEX_POINT('',#141);
#143=CARTESIAN_POINT('',(1.95,-0.775,1.555926773));
#144=DIRECTION('',(-1.,0.,0.));
#145=VECTOR('',#144,0.2);
#146=LINE('',#143,#145);
#147=EDGE_CURVE('',#142,#134,#146,.T.);
#148=ORIENTED_EDGE('',*,*,#147,.F.);
#149=CARTESIAN_POINT('',(1.95,-0.775,1.85));
#150=VERTEX_POINT('',#149);
#151=CARTESIAN_POINT('',(1.95,-0.775,1.85));
#152=DIRECTION('',(0.,0.,-1.));
#153=VECTOR('',#152,0.294073227);
#154=LINE('',#151,#153);
#155=EDGE_CURVE('',#150,#142,#154,.T.);
#156=ORIENTED_EDGE('',*,*,#155,.F.);
#157=CARTESIAN_POINT('',(1.85,-0.775,1.85));
#158=DIRECTION('',(-0.,-1.,-0.));
#159=DIRECTION('',(0.,-0.,1.));
#160=AXIS2_PLACEMENT_3D('',#157,#158,#159);
#161=CIRCLE('',#160,0.1);
#162=EDGE_CURVE('',#150,#35,#161,.T.);
#163=ORIENTED_EDGE('',*,*,#162,.T.);
#164=EDGE_LOOP('',(#41,#50,#58,#66,#74,#82,#90,#99,#107,#116,#124,#132,#140,#148,#156,#163));
#165=FACE_BOUND('',#164,.T.);
#166=ADVANCED_FACE('',(#165),#31,.F.);
#167=CARTESIAN_POINT('',(-0.,0.775,2.9));
#168=DIRECTION('',(0.,-1.,0.));
#169=DIRECTION('',(1.,0.,0.));
#170=AXIS2_PLACEMENT_3D('',#167,#168,#169);
#171=PLANE('',#170);
#172=CARTESIAN_POINT('',(-1.95,0.775,1.85));
#173=VERTEX_POINT('',#172);
#174=CARTESIAN_POINT('',(-1.95,0.775,0.3));
#175=VERTEX_POINT('',#174);
#176=CARTESIAN_POINT('',(-1.95,0.775,1.85));
#177=DIRECTION('',(0.,0.,-1.));
#178=VECTOR('',#177,1.55);
#179=LINE('',#176,#178);
#180=EDGE_CURVE('',#173,#175,#179,.T.);
#181=ORIENTED_EDGE('',*,*,#180,.F.);
#182=CARTESIAN_POINT('',(-1.85,0.775,1.95));
#183=VERTEX_POINT('',#182);
#184=CARTESIAN_POINT('',(-1.85,0.775,1.85));
#185=DIRECTION('',(-0.,1.,-0.));
#186=DIRECTION('',(1.,0.,0.));
#187=AXIS2_PLACEMENT_3D('',#184,#185,#186);
#188=CIRCLE('',#187,0.1);
#189=EDGE_CURVE('',#173,#183,#188,.T.);
#190=ORIENTED_EDGE('',*,*,#189,.T.);
#191=CARTESIAN_POINT('',(1.85,0.775,1.95));
#192=VERTEX_POINT('',#191);
#193=CARTESIAN_POINT('',(1.85,0.775,1.95));
#194=DIRECTION('',(-1.,-0.,0.));
#195=VECTOR('',#194,3.7);
#196=LINE('',#193,#195);
#197=EDGE_CURVE('',#192,#183,#196,.T.);
#198=ORIENTED_EDGE('',*,*,#197,.F.);
#199=CARTESIAN_POINT('',(1.95,0.775,1.85));
#200=VERTEX_POINT('',#199);
#201=CARTESIAN_POINT('',(1.85,0.775,1.85));
#202=DIRECTION('',(-0.,1.,-0.));
#203=DIRECTION('',(1.,0.,0.));
#204=AXIS2_PLACEMENT_3D('',#201,#202,#203);
#205=CIRCLE('',#204,0.1);
#206=EDGE_CURVE('',#192,#200,#205,.T.);
#207=ORIENTED_EDGE('',*,*,#206,.T.);
#208=CARTESIAN_POINT('',(1.95,0.775,0.3));
#209=VERTEX_POINT('',#208);
#210=CARTESIAN_POINT('',(1.95,0.775,1.85));
#211=DIRECTION('',(0.,0.,-1.));
#212=VECTOR('',#211,1.55);
#213=LINE('',#210,#212);
#214=EDGE_CURVE('',#200,#209,#213,.T.);
#215=ORIENTED_EDGE('',*,*,#214,.T.);
#216=CARTESIAN_POINT('',(1.65,0.775,0.));
#217=VERTEX_POINT('',#216);
#218=CARTESIAN_POINT('',(1.65,0.775,0.3));
#219=DIRECTION('',(-0.,1.,-0.));
#220=DIRECTION('',(1.,0.,0.));
#221=AXIS2_PLACEMENT_3D('',#218,#219,#220);
#222=CIRCLE('',#221,0.3);
#223=EDGE_CURVE('',#209,#217,#222,.T.);
#224=ORIENTED_EDGE('',*,*,#223,.T.);
#225=CARTESIAN_POINT('',(-1.65,0.775,0.));
#226=VERTEX_POINT('',#225);
#227=CARTESIAN_POINT('',(1.65,0.775,0.));
#228=DIRECTION('',(-1.,-0.,0.));
#229=VECTOR('',#228,3.3);
#230=LINE('',#227,#229);
#231=EDGE_CURVE('',#217,#226,#230,.T.);
#232=ORIENTED_EDGE('',*,*,#231,.T.);
#233=CARTESIAN_POINT('',(-1.65,0.775,0.3));
#234=DIRECTION('',(-0.,1.,-0.));
#235=DIRECTION('',(1.,0.,0.));
#236=AXIS2_PLACEMENT_3D('',#233,#234,#235);
#237=CIRCLE('',#236,0.3);
#238=EDGE_CURVE('',#226,#175,#237,.T.);
#239=ORIENTED_EDGE('',*,*,#238,.T.);
#240=EDGE_LOOP('',(#181,#190,#198,#207,#215,#224,#232,#239));
#241=FACE_BOUND('',#240,.T.);
#242=CARTESIAN_POINT('',(1.463021617,0.775,1.85));
#243=VERTEX_POINT('',#242);
#244=CARTESIAN_POINT('',(1.691687781,0.775,1.716094635));
#245=VERTEX_POINT('',#244);
#246=CARTESIAN_POINT('',(1.463021617,0.775,1.587804154));
#247=DIRECTION('',(0.,1.,0.));
#248=DIRECTION('',(0.,-0.,1.));
#249=AXIS2_PLACEMENT_3D('',#246,#247,#248);
#250=CIRCLE('',#249,0.262195846);
#251=EDGE_CURVE('',#243,#245,#250,.T.);
#252=ORIENTED_EDGE('',*,*,#251,.F.);
#253=CARTESIAN_POINT('',(-1.450841781,0.775,1.85));
#254=VERTEX_POINT('',#253);
#255=CARTESIAN_POINT('',(1.463021617,0.775,1.85));
#256=DIRECTION('',(-1.,0.,0.));
#257=VECTOR('',#256,2.913863398);
#258=LINE('',#255,#257);
#259=EDGE_CURVE('',#243,#254,#258,.T.);
#260=ORIENTED_EDGE('',*,*,#259,.T.);
#261=CARTESIAN_POINT('',(-1.7,0.775,1.6));
#262=VERTEX_POINT('',#261);
#263=CARTESIAN_POINT('',(-1.450841781,0.775,1.600840364));
#264=DIRECTION('',(0.,1.,0.));
#265=DIRECTION('',(0.,-0.,1.));
#266=AXIS2_PLACEMENT_3D('',#263,#264,#265);
#267=CIRCLE('',#266,0.249159636);
#268=EDGE_CURVE('',#262,#254,#267,.T.);
#269=ORIENTED_EDGE('',*,*,#268,.F.);
#270=CARTESIAN_POINT('',(-1.7,0.775,0.3));
#271=VERTEX_POINT('',#270);
#272=CARTESIAN_POINT('',(-1.7,0.775,0.3));
#273=DIRECTION('',(0.,0.,1.));
#274=VECTOR('',#273,1.3);
#275=LINE('',#272,#274);
#276=EDGE_CURVE('',#271,#262,#275,.T.);
#277=ORIENTED_EDGE('',*,*,#276,.F.);
#278=CARTESIAN_POINT('',(-1.53945944,0.775,0.1));
#279=VERTEX_POINT('',#278);
#280=CARTESIAN_POINT('',(-1.49515061,0.775,0.3));
#281=DIRECTION('',(0.,1.,0.));
#282=DIRECTION('',(0.,-0.,1.));
#283=AXIS2_PLACEMENT_3D('',#280,#281,#282);
#284=CIRCLE('',#283,0.20484939);
#285=EDGE_CURVE('',#279,#271,#284,.T.);
#286=ORIENTED_EDGE('',*,*,#285,.F.);
#287=CARTESIAN_POINT('',(1.463021617,0.775,0.1));
#288=VERTEX_POINT('',#287);
#289=CARTESIAN_POINT('',(-1.53945944,0.775,0.1));
#290=DIRECTION('',(1.,0.,-0.));
#291=VECTOR('',#290,3.002481058);
#292=LINE('',#289,#291);
#293=EDGE_CURVE('',#279,#288,#292,.T.);
#294=ORIENTED_EDGE('',*,*,#293,.T.);
#295=CARTESIAN_POINT('',(1.7,0.775,0.4));
#296=VERTEX_POINT('',#295);
#297=CARTESIAN_POINT('',(1.391620071,0.775,0.4));
#298=DIRECTION('',(0.,1.,0.));
#299=DIRECTION('',(0.,-0.,1.));
#300=AXIS2_PLACEMENT_3D('',#297,#298,#299);
#301=CIRCLE('',#300,0.308379929);
#302=EDGE_CURVE('',#296,#288,#301,.T.);
#303=ORIENTED_EDGE('',*,*,#302,.F.);
#304=CARTESIAN_POINT('',(1.7,0.775,1.684290617));
#305=VERTEX_POINT('',#304);
#306=CARTESIAN_POINT('',(1.7,0.775,0.4));
#307=DIRECTION('',(0.,0.,1.));
#308=VECTOR('',#307,1.284290617);
#309=LINE('',#306,#308);
#310=EDGE_CURVE('',#296,#305,#309,.T.);
#311=ORIENTED_EDGE('',*,*,#310,.T.);
#312=CARTESIAN_POINT('',(1.635,0.775,1.684290617));
#313=DIRECTION('',(0.,-1.,0.));
#314=DIRECTION('',(1.,0.,0.));
#315=AXIS2_PLACEMENT_3D('',#312,#313,#314);
#316=CIRCLE('',#315,0.065);
#317=EDGE_CURVE('',#305,#245,#316,.T.);
#318=ORIENTED_EDGE('',*,*,#317,.T.);
#319=EDGE_LOOP('',(#252,#260,#269,#277,#286,#294,#303,#311,#318));
#320=FACE_BOUND('',#319,.T.);
#321=ADVANCED_FACE('',(#241,#320),#171,.F.);
#322=CARTESIAN_POINT('',(0.,0.,1.95));
#323=DIRECTION('',(0.,0.,1.));
#324=DIRECTION('',(1.,0.,0.));
#325=AXIS2_PLACEMENT_3D('',#322,#323,#324);
#326=PLANE('',#325);
#327=CARTESIAN_POINT('',(1.19,0.25,1.95));
#328=VERTEX_POINT('',#327);
#329=CARTESIAN_POINT('',(1.51,0.25,1.95));
#330=VERTEX_POINT('',#329);
#331=CARTESIAN_POINT('',(1.35,0.25,1.95));
#332=DIRECTION('',(0.,0.,1.));
#333=DIRECTION('',(1.,0.,-0.));
#334=AXIS2_PLACEMENT_3D('',#331,#332,#333);
#335=CIRCLE('',#334,0.16);
#336=EDGE_CURVE('',#328,#330,#335,.T.);
#337=ORIENTED_EDGE('',*,*,#336,.F.);
#338=CARTESIAN_POINT('',(1.35,0.25,1.95));
#339=DIRECTION('',(0.,0.,1.));
#340=DIRECTION('',(1.,0.,-0.));
#341=AXIS2_PLACEMENT_3D('',#338,#339,#340);
#342=CIRCLE('',#341,0.16);
#343=EDGE_CURVE('',#330,#328,#342,.T.);
#344=ORIENTED_EDGE('',*,*,#343,.F.);
#345=EDGE_LOOP('',(#337,#344));
#346=FACE_BOUND('',#345,.T.);
#347=CARTESIAN_POINT('',(-1.51,0.25,1.95));
#348=VERTEX_POINT('',#347);
#349=CARTESIAN_POINT('',(-1.19,0.25,1.95));
#350=VERTEX_POINT('',#349);
#351=CARTESIAN_POINT('',(-1.35,0.25,1.95));
#352=DIRECTION('',(0.,0.,1.));
#353=DIRECTION('',(1.,0.,-0.));
#354=AXIS2_PLACEMENT_3D('',#351,#352,#353);
#355=CIRCLE('',#354,0.16);
#356=EDGE_CURVE('',#348,#350,#355,.T.);
#357=ORIENTED_EDGE('',*,*,#356,.F.);
#358=CARTESIAN_POINT('',(-1.35,0.25,1.95));
#359=DIRECTION('',(0.,0.,1.));
#360=DIRECTION('',(1.,0.,-0.));
#361=AXIS2_PLACEMENT_3D('',#358,#359,#360);
#362=CIRCLE('',#361,0.16);
#363=EDGE_CURVE('',#350,#348,#362,.T.);
#364=ORIENTED_EDGE('',*,*,#363,.F.);
#365=EDGE_LOOP('',(#357,#364));
#366=FACE_BOUND('',#365,.T.);
#367=ORIENTED_EDGE('',*,*,#197,.T.);
#368=CARTESIAN_POINT('',(-1.85,0.775,1.95));
#369=DIRECTION('',(0.,-1.,0.));
#370=VECTOR('',#369,1.55);
#371=LINE('',#368,#370);
#372=EDGE_CURVE('',#183,#33,#371,.T.);
#373=ORIENTED_EDGE('',*,*,#372,.T.);
#374=ORIENTED_EDGE('',*,*,#40,.T.);
#375=CARTESIAN_POINT('',(1.85,-0.775,1.95));
#376=DIRECTION('',(0.,1.,0.));
#377=VECTOR('',#376,1.55);
#378=LINE('',#375,#377);
#379=EDGE_CURVE('',#35,#192,#378,.T.);
#380=ORIENTED_EDGE('',*,*,#379,.T.);
#381=EDGE_LOOP('',(#367,#373,#374,#380));
#382=FACE_BOUND('',#381,.T.);
#383=CARTESIAN_POINT('',(-0.75,-0.4,1.95));
#384=VERTEX_POINT('',#383);
#385=CARTESIAN_POINT('',(-0.75,0.4,1.95));
#386=VERTEX_POINT('',#385);
#387=CARTESIAN_POINT('',(-0.75,-0.4,1.95));
#388=DIRECTION('',(-0.,1.,0.));
#389=VECTOR('',#388,0.8);
#390=LINE('',#387,#389);
#391=EDGE_CURVE('',#384,#386,#390,.T.);
#392=ORIENTED_EDGE('',*,*,#391,.T.);
#393=CARTESIAN_POINT('',(-0.7,0.45,1.95));
#394=VERTEX_POINT('',#393);
#395=CARTESIAN_POINT('',(-0.7,0.4,1.95));
#396=DIRECTION('',(-0.,-0.,-1.));
#397=DIRECTION('',(1.,0.,-0.));
#398=AXIS2_PLACEMENT_3D('',#395,#396,#397);
#399=CIRCLE('',#398,0.05);
#400=EDGE_CURVE('',#386,#394,#399,.T.);
#401=ORIENTED_EDGE('',*,*,#400,.T.);
#402=CARTESIAN_POINT('',(0.7,0.45,1.95));
#403=VERTEX_POINT('',#402);
#404=CARTESIAN_POINT('',(-0.7,0.45,1.95));
#405=DIRECTION('',(1.,0.,0.));
#406=VECTOR('',#405,1.4);
#407=LINE('',#404,#406);
#408=EDGE_CURVE('',#394,#403,#407,.T.);
#409=ORIENTED_EDGE('',*,*,#408,.T.);
#410=CARTESIAN_POINT('',(0.75,0.4,1.95));
#411=VERTEX_POINT('',#410);
#412=CARTESIAN_POINT('',(0.7,0.4,1.95));
#413=DIRECTION('',(-0.,-0.,-1.));
#414=DIRECTION('',(1.,0.,-0.));
#415=AXIS2_PLACEMENT_3D('',#412,#413,#414);
#416=CIRCLE('',#415,0.05);
#417=EDGE_CURVE('',#403,#411,#416,.T.);
#418=ORIENTED_EDGE('',*,*,#417,.T.);
#419=CARTESIAN_POINT('',(0.75,-0.4,1.95));
#420=VERTEX_POINT('',#419);
#421=CARTESIAN_POINT('',(0.75,0.4,1.95));
#422=DIRECTION('',(0.,-1.,0.));
#423=VECTOR('',#422,0.8);
#424=LINE('',#421,#423);
#425=EDGE_CURVE('',#411,#420,#424,.T.);
#426=ORIENTED_EDGE('',*,*,#425,.T.);
#427=CARTESIAN_POINT('',(0.7,-0.45,1.95));
#428=VERTEX_POINT('',#427);
#429=CARTESIAN_POINT('',(0.7,-0.4,1.95));
#430=DIRECTION('',(-0.,-0.,-1.));
#431=DIRECTION('',(1.,0.,-0.));
#432=AXIS2_PLACEMENT_3D('',#429,#430,#431);
#433=CIRCLE('',#432,0.05);
#434=EDGE_CURVE('',#420,#428,#433,.T.);
#435=ORIENTED_EDGE('',*,*,#434,.T.);
#436=CARTESIAN_POINT('',(-0.7,-0.45,1.95));
#437=VERTEX_POINT('',#436);
#438=CARTESIAN_POINT('',(0.7,-0.45,1.95));
#439=DIRECTION('',(-1.,-0.,0.));
#440=VECTOR('',#439,1.4);
#441=LINE('',#438,#440);
#442=EDGE_CURVE('',#428,#437,#441,.T.);
#443=ORIENTED_EDGE('',*,*,#442,.T.);
#444=CARTESIAN_POINT('',(-0.7,-0.4,1.95));
#445=DIRECTION('',(-0.,-0.,-1.));
#446=DIRECTION('',(1.,0.,-0.));
#447=AXIS2_PLACEMENT_3D('',#444,#445,#446);
#448=CIRCLE('',#447,0.05);
#449=EDGE_CURVE('',#437,#384,#448,.T.);
#450=ORIENTED_EDGE('',*,*,#449,.T.);
#451=EDGE_LOOP('',(#392,#401,#409,#418,#426,#435,#443,#450));
#452=FACE_BOUND('',#451,.T.);
#453=ADVANCED_FACE('',(#346,#366,#382,#452),#326,.T.);
#454=CARTESIAN_POINT('',(-1.95,-0.,2.9));
#455=DIRECTION('',(1.,0.,0.));
#456=DIRECTION('',(0.,0.,-1.));
#457=AXIS2_PLACEMENT_3D('',#454,#455,#456);
#458=PLANE('',#457);
#459=ORIENTED_EDGE('',*,*,#57,.F.);
#460=CARTESIAN_POINT('',(-1.95,-0.775,1.85));
#461=DIRECTION('',(-0.,1.,-0.));
#462=VECTOR('',#461,1.55);
#463=LINE('',#460,#462);
#464=EDGE_CURVE('',#43,#173,#463,.T.);
#465=ORIENTED_EDGE('',*,*,#464,.T.);
#466=ORIENTED_EDGE('',*,*,#180,.T.);
#467=CARTESIAN_POINT('',(-1.95,0.775,0.3));
#468=DIRECTION('',(0.,-1.,0.));
#469=VECTOR('',#468,1.55);
#470=LINE('',#467,#469);
#471=EDGE_CURVE('',#175,#84,#470,.T.);
#472=ORIENTED_EDGE('',*,*,#471,.T.);
#473=ORIENTED_EDGE('',*,*,#89,.F.);
#474=CARTESIAN_POINT('',(-1.95,-1.045,1.1));
#475=VERTEX_POINT('',#474);
#476=CARTESIAN_POINT('',(-1.95,-1.045,1.1));
#477=DIRECTION('',(0.,1.,0.));
#478=VECTOR('',#477,0.27);
#479=LINE('',#476,#478);
#480=EDGE_CURVE('',#475,#76,#479,.T.);
#481=ORIENTED_EDGE('',*,*,#480,.F.);
#482=CARTESIAN_POINT('',(-1.95,-1.225,1.28));
#483=VERTEX_POINT('',#482);
#484=CARTESIAN_POINT('',(-1.95,-1.045,1.1));
#485=DIRECTION('',(-0.,-0.707106781,0.707106781));
#486=VECTOR('',#485,0.254558441);
#487=LINE('',#484,#486);
#488=EDGE_CURVE('',#475,#483,#487,.T.);
#489=ORIENTED_EDGE('',*,*,#488,.T.);
#490=CARTESIAN_POINT('',(-1.95,-1.225,1.375926773));
#491=VERTEX_POINT('',#490);
#492=CARTESIAN_POINT('',(-1.95,-1.225,1.375926773));
#493=DIRECTION('',(0.,0.,-1.));
#494=VECTOR('',#493,0.095926773);
#495=LINE('',#492,#494);
#496=EDGE_CURVE('',#491,#483,#495,.T.);
#497=ORIENTED_EDGE('',*,*,#496,.F.);
#498=CARTESIAN_POINT('',(-1.95,-1.045,1.555926773));
#499=VERTEX_POINT('',#498);
#500=CARTESIAN_POINT('',(-1.95,-1.225,1.375926773));
#501=DIRECTION('',(-0.,0.707106781,0.707106781));
#502=VECTOR('',#501,0.254558441);
#503=LINE('',#500,#502);
#504=EDGE_CURVE('',#491,#499,#503,.T.);
#505=ORIENTED_EDGE('',*,*,#504,.T.);
#506=CARTESIAN_POINT('',(-1.95,-1.045,1.555926773));
#507=DIRECTION('',(0.,1.,0.));
#508=VECTOR('',#507,0.27);
#509=LINE('',#506,#508);
#510=EDGE_CURVE('',#499,#52,#509,.T.);
#511=ORIENTED_EDGE('',*,*,#510,.T.);
#512=EDGE_LOOP('',(#459,#465,#466,#472,#473,#481,#489,#497,#505,#511));
#513=FACE_BOUND('',#512,.T.);
#514=ADVANCED_FACE('',(#513),#458,.F.);
#515=CARTESIAN_POINT('',(1.95,0.,2.9));
#516=DIRECTION('',(-1.,0.,0.));
#517=DIRECTION('',(0.,0.,1.));
#518=AXIS2_PLACEMENT_3D('',#515,#516,#517);
#519=PLANE('',#518);
#520=ORIENTED_EDGE('',*,*,#214,.F.);
#521=CARTESIAN_POINT('',(1.95,0.775,1.85));
#522=DIRECTION('',(-0.,-1.,-0.));
#523=VECTOR('',#522,1.55);
#524=LINE('',#521,#523);
#525=EDGE_CURVE('',#200,#150,#524,.T.);
#526=ORIENTED_EDGE('',*,*,#525,.T.);
#527=ORIENTED_EDGE('',*,*,#155,.T.);
#528=CARTESIAN_POINT('',(1.95,-1.045,1.555926773));
#529=VERTEX_POINT('',#528);
#530=CARTESIAN_POINT('',(1.95,-1.045,1.555926773));
#531=DIRECTION('',(0.,1.,0.));
#532=VECTOR('',#531,0.27);
#533=LINE('',#530,#532);
#534=EDGE_CURVE('',#529,#142,#533,.T.);
#535=ORIENTED_EDGE('',*,*,#534,.F.);
#536=CARTESIAN_POINT('',(1.95,-1.225,1.375926773));
#537=VERTEX_POINT('',#536);
#538=CARTESIAN_POINT('',(1.95,-1.045,1.555926773));
#539=DIRECTION('',(0.,-0.707106781,-0.707106781));
#540=VECTOR('',#539,0.254558441);
#541=LINE('',#538,#540);
#542=EDGE_CURVE('',#529,#537,#541,.T.);
#543=ORIENTED_EDGE('',*,*,#542,.T.);
#544=CARTESIAN_POINT('',(1.95,-1.225,1.28));
#545=VERTEX_POINT('',#544);
#546=CARTESIAN_POINT('',(1.95,-1.225,1.375926773));
#547=DIRECTION('',(0.,0.,-1.));
#548=VECTOR('',#547,0.095926773);
#549=LINE('',#546,#548);
#550=EDGE_CURVE('',#537,#545,#549,.T.);
#551=ORIENTED_EDGE('',*,*,#550,.T.);
#552=CARTESIAN_POINT('',(1.95,-1.045,1.1));
#553=VERTEX_POINT('',#552);
#554=CARTESIAN_POINT('',(1.95,-1.225,1.28));
#555=DIRECTION('',(0.,0.707106781,-0.707106781));
#556=VECTOR('',#555,0.254558441);
#557=LINE('',#554,#556);
#558=EDGE_CURVE('',#545,#553,#557,.T.);
#559=ORIENTED_EDGE('',*,*,#558,.T.);
#560=CARTESIAN_POINT('',(1.95,-1.045,1.1));
#561=DIRECTION('',(0.,1.,0.));
#562=VECTOR('',#561,0.27);
#563=LINE('',#560,#562);
#564=EDGE_CURVE('',#553,#118,#563,.T.);
#565=ORIENTED_EDGE('',*,*,#564,.T.);
#566=ORIENTED_EDGE('',*,*,#123,.T.);
#567=CARTESIAN_POINT('',(1.95,-0.775,0.3));
#568=DIRECTION('',(0.,1.,0.));
#569=VECTOR('',#568,1.55);
#570=LINE('',#567,#569);
#571=EDGE_CURVE('',#109,#209,#570,.T.);
#572=ORIENTED_EDGE('',*,*,#571,.T.);
#573=EDGE_LOOP('',(#520,#526,#527,#535,#543,#551,#559,#565,#566,#572));
#574=FACE_BOUND('',#573,.T.);
#575=ADVANCED_FACE('',(#574),#519,.F.);
#576=CARTESIAN_POINT('',(0.,0.,0.));
#577=DIRECTION('',(0.,0.,1.));
#578=DIRECTION('',(1.,0.,0.));
#579=AXIS2_PLACEMENT_3D('',#576,#577,#578);
#580=PLANE('',#579);
#581=ORIENTED_EDGE('',*,*,#106,.F.);
#582=CARTESIAN_POINT('',(-1.65,-0.775,0.));
#583=DIRECTION('',(-0.,1.,-0.));
#584=VECTOR('',#583,1.55);
#585=LINE('',#582,#584);
#586=EDGE_CURVE('',#92,#226,#585,.T.);
#587=ORIENTED_EDGE('',*,*,#586,.T.);
#588=ORIENTED_EDGE('',*,*,#231,.F.);
#589=CARTESIAN_POINT('',(1.65,0.775,0.));
#590=DIRECTION('',(-0.,-1.,-0.));
#591=VECTOR('',#590,1.55);
#592=LINE('',#589,#591);
#593=EDGE_CURVE('',#217,#101,#592,.T.);
#594=ORIENTED_EDGE('',*,*,#593,.T.);
#595=EDGE_LOOP('',(#581,#587,#588,#594));
#596=FACE_BOUND('',#595,.T.);
#597=ADVANCED_FACE('',(#596),#580,.F.);
#598=CARTESIAN_POINT('',(0.75,0.,2.9));
#599=DIRECTION('',(1.,0.,0.));
#600=DIRECTION('',(-0.,1.,0.));
#601=AXIS2_PLACEMENT_3D('',#598,#599,#600);
#602=PLANE('',#601);
#603=ORIENTED_EDGE('',*,*,#425,.F.);
#604=CARTESIAN_POINT('',(0.75,0.4,2.9));
#605=VERTEX_POINT('',#604);
#606=CARTESIAN_POINT('',(0.75,0.4,1.95));
#607=DIRECTION('',(-0.,-0.,1.));
#608=VECTOR('',#607,0.95);
#609=LINE('',#606,#608);
#610=EDGE_CURVE('',#411,#605,#609,.T.);
#611=ORIENTED_EDGE('',*,*,#610,.T.);
#612=CARTESIAN_POINT('',(0.75,-0.4,2.9));
#613=VERTEX_POINT('',#612);
#614=CARTESIAN_POINT('',(0.75,0.4,2.9));
#615=DIRECTION('',(0.,-1.,0.));
#616=VECTOR('',#615,0.8);
#617=LINE('',#614,#616);
#618=EDGE_CURVE('',#605,#613,#617,.T.);
#619=ORIENTED_EDGE('',*,*,#618,.T.);
#620=CARTESIAN_POINT('',(0.75,-0.4,2.9));
#621=DIRECTION('',(0.,0.,-1.));
#622=VECTOR('',#621,0.95);
#623=LINE('',#620,#622);
#624=EDGE_CURVE('',#613,#420,#623,.T.);
#625=ORIENTED_EDGE('',*,*,#624,.T.);
#626=EDGE_LOOP('',(#603,#611,#619,#625));
#627=FACE_BOUND('',#626,.T.);
#628=ADVANCED_FACE('',(#627),#602,.T.);
#629=DRAUGHTING_PRE_DEFINED_COLOUR('black');
#630=FILL_AREA_STYLE_COLOUR('',#629);
#631=FILL_AREA_STYLE('',(#630));
#632=SURFACE_STYLE_FILL_AREA(#631);
#633=SURFACE_SIDE_STYLE('',(#632));
#634=SURFACE_STYLE_USAGE(.BOTH.,#633);
#635=PRESENTATION_STYLE_ASSIGNMENT((#634));
#636=OVER_RIDING_STYLED_ITEM('',(#635),#628,#26);
#637=CARTESIAN_POINT('',(-0.,0.45,2.9));
#638=DIRECTION('',(-0.,1.,0.));
#639=DIRECTION('',(-1.,-0.,0.));
#640=AXIS2_PLACEMENT_3D('',#637,#638,#639);
#641=PLANE('',#640);
#642=CARTESIAN_POINT('',(-0.7,0.45,2.9));
#643=VERTEX_POINT('',#642);
#644=CARTESIAN_POINT('',(0.7,0.45,2.9));
#645=VERTEX_POINT('',#644);
#646=CARTESIAN_POINT('',(-0.7,0.45,2.9));
#647=DIRECTION('',(1.,0.,0.));
#648=VECTOR('',#647,1.4);
#649=LINE('',#646,#648);
#650=EDGE_CURVE('',#643,#645,#649,.T.);
#651=ORIENTED_EDGE('',*,*,#650,.T.);
#652=CARTESIAN_POINT('',(0.7,0.45,2.9));
#653=DIRECTION('',(0.,0.,-1.));
#654=VECTOR('',#653,0.95);
#655=LINE('',#652,#654);
#656=EDGE_CURVE('',#645,#403,#655,.T.);
#657=ORIENTED_EDGE('',*,*,#656,.T.);
#658=ORIENTED_EDGE('',*,*,#408,.F.);
#659=CARTESIAN_POINT('',(-0.7,0.45,1.95));
#660=DIRECTION('',(-0.,-0.,1.));
#661=VECTOR('',#660,0.95);
#662=LINE('',#659,#661);
#663=EDGE_CURVE('',#394,#643,#662,.T.);
#664=ORIENTED_EDGE('',*,*,#663,.T.);
#665=EDGE_LOOP('',(#651,#657,#658,#664));
#666=FACE_BOUND('',#665,.T.);
#667=ADVANCED_FACE('',(#666),#641,.T.);
#668=OVER_RIDING_STYLED_ITEM('',(#635),#667,#26);
#669=CARTESIAN_POINT('',(-0.75,-0.,2.9));
#670=DIRECTION('',(-1.,-0.,0.));
#671=DIRECTION('',(0.,-1.,0.));
#672=AXIS2_PLACEMENT_3D('',#669,#670,#671);
#673=PLANE('',#672);
#674=CARTESIAN_POINT('',(-0.75,-0.4,2.9));
#675=VERTEX_POINT('',#674);
#676=CARTESIAN_POINT('',(-0.75,0.4,2.9));
#677=VERTEX_POINT('',#676);
#678=CARTESIAN_POINT('',(-0.75,-0.4,2.9));
#679=DIRECTION('',(-0.,1.,0.));
#680=VECTOR('',#679,0.8);
#681=LINE('',#678,#680);
#682=EDGE_CURVE('',#675,#677,#681,.T.);
#683=ORIENTED_EDGE('',*,*,#682,.T.);
#684=CARTESIAN_POINT('',(-0.75,0.4,2.9));
#685=DIRECTION('',(0.,0.,-1.));
#686=VECTOR('',#685,0.95);
#687=LINE('',#684,#686);
#688=EDGE_CURVE('',#677,#386,#687,.T.);
#689=ORIENTED_EDGE('',*,*,#688,.T.);
#690=ORIENTED_EDGE('',*,*,#391,.F.);
#691=CARTESIAN_POINT('',(-0.75,-0.4,1.95));
#692=DIRECTION('',(-0.,-0.,1.));
#693=VECTOR('',#692,0.95);
#694=LINE('',#691,#693);
#695=EDGE_CURVE('',#384,#675,#694,.T.);
#696=ORIENTED_EDGE('',*,*,#695,.T.);
#697=EDGE_LOOP('',(#683,#689,#690,#696));
#698=FACE_BOUND('',#697,.T.);
#699=ADVANCED_FACE('',(#698),#673,.T.);
#700=OVER_RIDING_STYLED_ITEM('',(#635),#699,#26);
#701=CARTESIAN_POINT('',(-0.,-0.45,2.9));
#702=DIRECTION('',(0.,-1.,0.));
#703=DIRECTION('',(1.,0.,0.));
#704=AXIS2_PLACEMENT_3D('',#701,#702,#703);
#705=PLANE('',#704);
#706=CARTESIAN_POINT('',(0.7,-0.45,2.9));
#707=VERTEX_POINT('',#706);
#708=CARTESIAN_POINT('',(-0.7,-0.45,2.9));
#709=VERTEX_POINT('',#708);
#710=CARTESIAN_POINT('',(0.7,-0.45,2.9));
#711=DIRECTION('',(-1.,-0.,0.));
#712=VECTOR('',#711,1.4);
#713=LINE('',#710,#712);
#714=EDGE_CURVE('',#707,#709,#713,.T.);
#715=ORIENTED_EDGE('',*,*,#714,.T.);
#716=CARTESIAN_POINT('',(-0.7,-0.45,2.9));
#717=DIRECTION('',(0.,0.,-1.));
#718=VECTOR('',#717,0.95);
#719=LINE('',#716,#718);
#720=EDGE_CURVE('',#709,#437,#719,.T.);
#721=ORIENTED_EDGE('',*,*,#720,.T.);
#722=ORIENTED_EDGE('',*,*,#442,.F.);
#723=CARTESIAN_POINT('',(0.7,-0.45,1.95));
#724=DIRECTION('',(-0.,-0.,1.));
#725=VECTOR('',#724,0.95);
#726=LINE('',#723,#725);
#727=EDGE_CURVE('',#428,#707,#726,.T.);
#728=ORIENTED_EDGE('',*,*,#727,.T.);
#729=EDGE_LOOP('',(#715,#721,#722,#728));
#730=FACE_BOUND('',#729,.T.);
#731=ADVANCED_FACE('',(#730),#705,.T.);
#732=OVER_RIDING_STYLED_ITEM('',(#635),#731,#26);
#733=CARTESIAN_POINT('',(0.,0.,2.9));
#734=DIRECTION('',(0.,0.,1.));
#735=DIRECTION('',(1.,0.,0.));
#736=AXIS2_PLACEMENT_3D('',#733,#734,#735);
#737=PLANE('',#736);
#738=ORIENTED_EDGE('',*,*,#618,.F.);
#739=CARTESIAN_POINT('',(0.7,0.4,2.9));
#740=DIRECTION('',(0.,0.,1.));
#741=DIRECTION('',(1.,0.,-0.));
#742=AXIS2_PLACEMENT_3D('',#739,#740,#741);
#743=CIRCLE('',#742,0.05);
#744=EDGE_CURVE('',#605,#645,#743,.T.);
#745=ORIENTED_EDGE('',*,*,#744,.T.);
#746=ORIENTED_EDGE('',*,*,#650,.F.);
#747=CARTESIAN_POINT('',(-0.7,0.4,2.9));
#748=DIRECTION('',(0.,0.,1.));
#749=DIRECTION('',(1.,0.,-0.));
#750=AXIS2_PLACEMENT_3D('',#747,#748,#749);
#751=CIRCLE('',#750,0.05);
#752=EDGE_CURVE('',#643,#677,#751,.T.);
#753=ORIENTED_EDGE('',*,*,#752,.T.);
#754=ORIENTED_EDGE('',*,*,#682,.F.);
#755=CARTESIAN_POINT('',(-0.7,-0.4,2.9));
#756=DIRECTION('',(0.,0.,1.));
#757=DIRECTION('',(1.,0.,-0.));
#758=AXIS2_PLACEMENT_3D('',#755,#756,#757);
#759=CIRCLE('',#758,0.05);
#760=EDGE_CURVE('',#675,#709,#759,.T.);
#761=ORIENTED_EDGE('',*,*,#760,.T.);
#762=ORIENTED_EDGE('',*,*,#714,.F.);
#763=CARTESIAN_POINT('',(0.7,-0.4,2.9));
#764=DIRECTION('',(0.,0.,1.));
#765=DIRECTION('',(1.,0.,-0.));
#766=AXIS2_PLACEMENT_3D('',#763,#764,#765);
#767=CIRCLE('',#766,0.05);
#768=EDGE_CURVE('',#707,#613,#767,.T.);
#769=ORIENTED_EDGE('',*,*,#768,.T.);
#770=EDGE_LOOP('',(#738,#745,#746,#753,#754,#761,#762,#769));
#771=FACE_BOUND('',#770,.T.);
#772=ADVANCED_FACE('',(#771),#737,.T.);
#773=OVER_RIDING_STYLED_ITEM('',(#635),#772,#26);
#774=CARTESIAN_POINT('',(-1.35,0.25,2.03));
#775=DIRECTION('',(0.,0.,-1.));
#776=DIRECTION('',(-1.,0.,0.));
#777=AXIS2_PLACEMENT_3D('',#774,#775,#776);
#778=CYLINDRICAL_SURFACE('',#777,0.16);
#779=CARTESIAN_POINT('',(-1.51,0.25,2.03));
#780=VERTEX_POINT('',#779);
#781=CARTESIAN_POINT('',(-1.51,0.25,1.95));
#782=DIRECTION('',(-0.,-0.,1.));
#783=VECTOR('',#782,0.08);
#784=LINE('',#781,#783);
#785=EDGE_CURVE('',#348,#780,#784,.T.);
#786=ORIENTED_EDGE('',*,*,#785,.T.);
#787=CARTESIAN_POINT('',(-1.19,0.25,2.03));
#788=VERTEX_POINT('',#787);
#789=CARTESIAN_POINT('',(-1.35,0.25,2.03));
#790=DIRECTION('',(0.,0.,1.));
#791=DIRECTION('',(1.,0.,-0.));
#792=AXIS2_PLACEMENT_3D('',#789,#790,#791);
#793=CIRCLE('',#792,0.16);
#794=EDGE_CURVE('',#788,#780,#793,.T.);
#795=ORIENTED_EDGE('',*,*,#794,.F.);
#796=CARTESIAN_POINT('',(-1.35,0.25,2.03));
#797=DIRECTION('',(0.,0.,1.));
#798=DIRECTION('',(1.,0.,-0.));
#799=AXIS2_PLACEMENT_3D('',#796,#797,#798);
#800=CIRCLE('',#799,0.16);
#801=EDGE_CURVE('',#780,#788,#800,.T.);
#802=ORIENTED_EDGE('',*,*,#801,.F.);
#803=ORIENTED_EDGE('',*,*,#785,.F.);
#804=ORIENTED_EDGE('',*,*,#356,.T.);
#805=ORIENTED_EDGE('',*,*,#363,.T.);
#806=EDGE_LOOP('',(#786,#795,#802,#803,#804,#805));
#807=FACE_BOUND('',#806,.T.);
#808=ADVANCED_FACE('',(#807),#778,.T.);
#809=OVER_RIDING_STYLED_ITEM('',(#635),#808,#26);
#810=CARTESIAN_POINT('',(0.,0.,2.03));
#811=DIRECTION('',(0.,0.,1.));
#812=DIRECTION('',(1.,0.,0.));
#813=AXIS2_PLACEMENT_3D('',#810,#811,#812);
#814=PLANE('',#813);
#815=ORIENTED_EDGE('',*,*,#794,.T.);
#816=ORIENTED_EDGE('',*,*,#801,.T.);
#817=EDGE_LOOP('',(#815,#816));
#818=FACE_BOUND('',#817,.T.);
#819=ADVANCED_FACE('',(#818),#814,.T.);
#820=OVER_RIDING_STYLED_ITEM('',(#635),#819,#26);
#821=CARTESIAN_POINT('',(1.35,0.25,2.03));
#822=DIRECTION('',(0.,0.,-1.));
#823=DIRECTION('',(-1.,0.,0.));
#824=AXIS2_PLACEMENT_3D('',#821,#822,#823);
#825=CYLINDRICAL_SURFACE('',#824,0.16);
#826=CARTESIAN_POINT('',(1.19,0.25,2.03));
#827=VERTEX_POINT('',#826);
#828=CARTESIAN_POINT('',(1.19,0.25,1.95));
#829=DIRECTION('',(-0.,-0.,1.));
#830=VECTOR('',#829,0.08);
#831=LINE('',#828,#830);
#832=EDGE_CURVE('',#328,#827,#831,.T.);
#833=ORIENTED_EDGE('',*,*,#832,.T.);
#834=CARTESIAN_POINT('',(1.51,0.25,2.03));
#835=VERTEX_POINT('',#834);
#836=CARTESIAN_POINT('',(1.35,0.25,2.03));
#837=DIRECTION('',(0.,0.,1.));
#838=DIRECTION('',(1.,0.,-0.));
#839=AXIS2_PLACEMENT_3D('',#836,#837,#838);
#840=CIRCLE('',#839,0.16);
#841=EDGE_CURVE('',#835,#827,#840,.T.);
#842=ORIENTED_EDGE('',*,*,#841,.F.);
#843=CARTESIAN_POINT('',(1.35,0.25,2.03));
#844=DIRECTION('',(0.,0.,1.));
#845=DIRECTION('',(1.,0.,-0.));
#846=AXIS2_PLACEMENT_3D('',#843,#844,#845);
#847=CIRCLE('',#846,0.16);
#848=EDGE_CURVE('',#827,#835,#847,.T.);
#849=ORIENTED_EDGE('',*,*,#848,.F.);
#850=ORIENTED_EDGE('',*,*,#832,.F.);
#851=ORIENTED_EDGE('',*,*,#336,.T.);
#852=ORIENTED_EDGE('',*,*,#343,.T.);
#853=EDGE_LOOP('',(#833,#842,#849,#850,#851,#852));
#854=FACE_BOUND('',#853,.T.);
#855=ADVANCED_FACE('',(#854),#825,.T.);
#856=OVER_RIDING_STYLED_ITEM('',(#635),#855,#26);
#857=CARTESIAN_POINT('',(0.,0.,2.03));
#858=DIRECTION('',(0.,0.,1.));
#859=DIRECTION('',(1.,0.,0.));
#860=AXIS2_PLACEMENT_3D('',#857,#858,#859);
#861=PLANE('',#860);
#862=ORIENTED_EDGE('',*,*,#841,.T.);
#863=ORIENTED_EDGE('',*,*,#848,.T.);
#864=EDGE_LOOP('',(#862,#863));
#865=FACE_BOUND('',#864,.T.);
#866=ADVANCED_FACE('',(#865),#861,.T.);
#867=OVER_RIDING_STYLED_ITEM('',(#635),#866,#26);
#868=CARTESIAN_POINT('',(0.006089918,0.78,1.85));
#869=DIRECTION('',(0.,0.,1.));
#870=DIRECTION('',(1.,0.,0.));
#871=AXIS2_PLACEMENT_3D('',#868,#869,#870);
#872=PLANE('',#871);
#873=ORIENTED_EDGE('',*,*,#259,.F.);
#874=CARTESIAN_POINT('',(1.463021617,0.78,1.85));
#875=VERTEX_POINT('',#874);
#876=CARTESIAN_POINT('',(1.463021617,0.78,1.85));
#877=DIRECTION('',(0.,-1.,0.));
#878=VECTOR('',#877,0.005);
#879=LINE('',#876,#878);
#880=EDGE_CURVE('',#875,#243,#879,.T.);
#881=ORIENTED_EDGE('',*,*,#880,.F.);
#882=CARTESIAN_POINT('',(-1.450841781,0.78,1.85));
#883=VERTEX_POINT('',#882);
#884=CARTESIAN_POINT('',(1.463021617,0.78,1.85));
#885=DIRECTION('',(-1.,0.,0.));
#886=VECTOR('',#885,2.913863398);
#887=LINE('',#884,#886);
#888=EDGE_CURVE('',#875,#883,#887,.T.);
#889=ORIENTED_EDGE('',*,*,#888,.T.);
#890=CARTESIAN_POINT('',(-1.450841781,0.78,1.85));
#891=DIRECTION('',(0.,-1.,0.));
#892=VECTOR('',#891,0.005);
#893=LINE('',#890,#892);
#894=EDGE_CURVE('',#883,#254,#893,.T.);
#895=ORIENTED_EDGE('',*,*,#894,.T.);
#896=EDGE_LOOP('',(#873,#881,#889,#895));
#897=FACE_BOUND('',#896,.T.);
#898=ADVANCED_FACE('',(#897),#872,.T.);
#899=CARTESIAN_POINT('',(1.463021617,0.78,1.587804154));
#900=DIRECTION('',(0.,-1.,0.));
#901=DIRECTION('',(0.,0.,-1.));
#902=AXIS2_PLACEMENT_3D('',#899,#900,#901);
#903=CYLINDRICAL_SURFACE('',#902,0.262195846);
#904=ORIENTED_EDGE('',*,*,#251,.T.);
#905=CARTESIAN_POINT('',(1.691687781,0.78,1.716094635));
#906=VERTEX_POINT('',#905);
#907=CARTESIAN_POINT('',(1.691687781,0.775,1.716094635));
#908=DIRECTION('',(-0.,1.,-0.));
#909=VECTOR('',#908,0.005);
#910=LINE('',#907,#909);
#911=EDGE_CURVE('',#245,#906,#910,.T.);
#912=ORIENTED_EDGE('',*,*,#911,.T.);
#913=CARTESIAN_POINT('',(1.463021617,0.78,1.587804154));
#914=DIRECTION('',(0.,1.,0.));
#915=DIRECTION('',(0.,-0.,1.));
#916=AXIS2_PLACEMENT_3D('',#913,#914,#915);
#917=CIRCLE('',#916,0.262195846);
#918=EDGE_CURVE('',#875,#906,#917,.T.);
#919=ORIENTED_EDGE('',*,*,#918,.F.);
#920=ORIENTED_EDGE('',*,*,#880,.T.);
#921=EDGE_LOOP('',(#904,#912,#919,#920));
#922=FACE_BOUND('',#921,.T.);
#923=ADVANCED_FACE('',(#922),#903,.T.);
#924=CARTESIAN_POINT('',(1.7,0.78,1.05));
#925=DIRECTION('',(1.,0.,0.));
#926=DIRECTION('',(0.,0.,-1.));
#927=AXIS2_PLACEMENT_3D('',#924,#925,#926);
#928=PLANE('',#927);
#929=CARTESIAN_POINT('',(1.7,0.78,0.4));
#930=VERTEX_POINT('',#929);
#931=CARTESIAN_POINT('',(1.7,0.78,1.684290617));
#932=VERTEX_POINT('',#931);
#933=CARTESIAN_POINT('',(1.7,0.78,0.4));
#934=DIRECTION('',(0.,0.,1.));
#935=VECTOR('',#934,1.284290617);
#936=LINE('',#933,#935);
#937=EDGE_CURVE('',#930,#932,#936,.T.);
#938=ORIENTED_EDGE('',*,*,#937,.T.);
#939=CARTESIAN_POINT('',(1.7,0.78,1.684290617));
#940=DIRECTION('',(-0.,-1.,-0.));
#941=VECTOR('',#940,0.005);
#942=LINE('',#939,#941);
#943=EDGE_CURVE('',#932,#305,#942,.T.);
#944=ORIENTED_EDGE('',*,*,#943,.T.);
#945=ORIENTED_EDGE('',*,*,#310,.F.);
#946=CARTESIAN_POINT('',(1.7,0.78,0.4));
#947=DIRECTION('',(0.,-1.,0.));
#948=VECTOR('',#947,0.005);
#949=LINE('',#946,#948);
#950=EDGE_CURVE('',#930,#296,#949,.T.);
#951=ORIENTED_EDGE('',*,*,#950,.F.);
#952=EDGE_LOOP('',(#938,#944,#945,#951));
#953=FACE_BOUND('',#952,.T.);
#954=ADVANCED_FACE('',(#953),#928,.T.);
#955=CARTESIAN_POINT('',(1.391620071,0.78,0.4));
#956=DIRECTION('',(0.,-1.,0.));
#957=DIRECTION('',(0.,0.,-1.));
#958=AXIS2_PLACEMENT_3D('',#955,#956,#957);
#959=CYLINDRICAL_SURFACE('',#958,0.308379929);
#960=ORIENTED_EDGE('',*,*,#302,.T.);
#961=CARTESIAN_POINT('',(1.463021617,0.78,0.1));
#962=VERTEX_POINT('',#961);
#963=CARTESIAN_POINT('',(1.463021617,0.78,0.1));
#964=DIRECTION('',(0.,-1.,0.));
#965=VECTOR('',#964,0.005);
#966=LINE('',#963,#965);
#967=EDGE_CURVE('',#962,#288,#966,.T.);
#968=ORIENTED_EDGE('',*,*,#967,.F.);
#969=CARTESIAN_POINT('',(1.391620071,0.78,0.4));
#970=DIRECTION('',(0.,1.,0.));
#971=DIRECTION('',(0.,-0.,1.));
#972=AXIS2_PLACEMENT_3D('',#969,#970,#971);
#973=CIRCLE('',#972,0.308379929);
#974=EDGE_CURVE('',#930,#962,#973,.T.);
#975=ORIENTED_EDGE('',*,*,#974,.F.);
#976=ORIENTED_EDGE('',*,*,#950,.T.);
#977=EDGE_LOOP('',(#960,#968,#975,#976));
#978=FACE_BOUND('',#977,.T.);
#979=ADVANCED_FACE('',(#978),#959,.T.);
#980=CARTESIAN_POINT('',(-0.038218911,0.78,0.1));
#981=DIRECTION('',(0.,0.,-1.));
#982=DIRECTION('',(-1.,0.,0.));
#983=AXIS2_PLACEMENT_3D('',#980,#981,#982);
#984=PLANE('',#983);
#985=ORIENTED_EDGE('',*,*,#293,.F.);
#986=CARTESIAN_POINT('',(-1.53945944,0.78,0.1));
#987=VERTEX_POINT('',#986);
#988=CARTESIAN_POINT('',(-1.53945944,0.78,0.1));
#989=DIRECTION('',(0.,-1.,0.));
#990=VECTOR('',#989,0.005);
#991=LINE('',#988,#990);
#992=EDGE_CURVE('',#987,#279,#991,.T.);
#993=ORIENTED_EDGE('',*,*,#992,.F.);
#994=CARTESIAN_POINT('',(-1.53945944,0.78,0.1));
#995=DIRECTION('',(1.,0.,-0.));
#996=VECTOR('',#995,3.002481058);
#997=LINE('',#994,#996);
#998=EDGE_CURVE('',#987,#962,#997,.T.);
#999=ORIENTED_EDGE('',*,*,#998,.T.);
#1000=ORIENTED_EDGE('',*,*,#967,.T.);
#1001=EDGE_LOOP('',(#985,#993,#999,#1000));
#1002=FACE_BOUND('',#1001,.T.);
#1003=ADVANCED_FACE('',(#1002),#984,.T.);
#1004=CARTESIAN_POINT('',(-1.49515061,0.78,0.3));
#1005=DIRECTION('',(0.,-1.,0.));
#1006=DIRECTION('',(0.,0.,-1.));
#1007=AXIS2_PLACEMENT_3D('',#1004,#1005,#1006);
#1008=CYLINDRICAL_SURFACE('',#1007,0.20484939);
#1009=ORIENTED_EDGE('',*,*,#285,.T.);
#1010=CARTESIAN_POINT('',(-1.7,0.78,0.3));
#1011=VERTEX_POINT('',#1010);
#1012=CARTESIAN_POINT('',(-1.7,0.78,0.3));
#1013=DIRECTION('',(0.,-1.,0.));
#1014=VECTOR('',#1013,0.005);
#1015=LINE('',#1012,#1014);
#1016=EDGE_CURVE('',#1011,#271,#1015,.T.);
#1017=ORIENTED_EDGE('',*,*,#1016,.F.);
#1018=CARTESIAN_POINT('',(-1.49515061,0.78,0.3));
#1019=DIRECTION('',(0.,1.,0.));
#1020=DIRECTION('',(0.,-0.,1.));
#1021=AXIS2_PLACEMENT_3D('',#1018,#1019,#1020);
#1022=CIRCLE('',#1021,0.20484939);
#1023=EDGE_CURVE('',#987,#1011,#1022,.T.);
#1024=ORIENTED_EDGE('',*,*,#1023,.F.);
#1025=ORIENTED_EDGE('',*,*,#992,.T.);
#1026=EDGE_LOOP('',(#1009,#1017,#1024,#1025));
#1027=FACE_BOUND('',#1026,.T.);
#1028=ADVANCED_FACE('',(#1027),#1008,.T.);
#1029=CARTESIAN_POINT('',(-1.7,0.78,0.950420182));
#1030=DIRECTION('',(1.,0.,0.));
#1031=DIRECTION('',(0.,0.,-1.));
#1032=AXIS2_PLACEMENT_3D('',#1029,#1030,#1031);
#1033=PLANE('',#1032);
#1034=ORIENTED_EDGE('',*,*,#276,.T.);
#1035=CARTESIAN_POINT('',(-1.7,0.78,1.6));
#1036=VERTEX_POINT('',#1035);
#1037=CARTESIAN_POINT('',(-1.7,0.78,1.6));
#1038=DIRECTION('',(0.,-1.,0.));
#1039=VECTOR('',#1038,0.005);
#1040=LINE('',#1037,#1039);
#1041=EDGE_CURVE('',#1036,#262,#1040,.T.);
#1042=ORIENTED_EDGE('',*,*,#1041,.F.);
#1043=CARTESIAN_POINT('',(-1.7,0.78,0.3));
#1044=DIRECTION('',(0.,0.,1.));
#1045=VECTOR('',#1044,1.3);
#1046=LINE('',#1043,#1045);
#1047=EDGE_CURVE('',#1011,#1036,#1046,.T.);
#1048=ORIENTED_EDGE('',*,*,#1047,.F.);
#1049=ORIENTED_EDGE('',*,*,#1016,.T.);
#1050=EDGE_LOOP('',(#1034,#1042,#1048,#1049));
#1051=FACE_BOUND('',#1050,.T.);
#1052=ADVANCED_FACE('',(#1051),#1033,.F.);
#1053=CARTESIAN_POINT('',(-1.450841781,0.78,1.600840364));
#1054=DIRECTION('',(0.,-1.,0.));
#1055=DIRECTION('',(0.,0.,-1.));
#1056=AXIS2_PLACEMENT_3D('',#1053,#1054,#1055);
#1057=CYLINDRICAL_SURFACE('',#1056,0.249159636);
#1058=ORIENTED_EDGE('',*,*,#268,.T.);
#1059=ORIENTED_EDGE('',*,*,#894,.F.);
#1060=CARTESIAN_POINT('',(-1.450841781,0.78,1.600840364));
#1061=DIRECTION('',(0.,1.,0.));
#1062=DIRECTION('',(0.,-0.,1.));
#1063=AXIS2_PLACEMENT_3D('',#1060,#1061,#1062);
#1064=CIRCLE('',#1063,0.249159636);
#1065=EDGE_CURVE('',#1036,#883,#1064,.T.);
#1066=ORIENTED_EDGE('',*,*,#1065,.F.);
#1067=ORIENTED_EDGE('',*,*,#1041,.T.);
#1068=EDGE_LOOP('',(#1058,#1059,#1066,#1067));
#1069=FACE_BOUND('',#1068,.T.);
#1070=ADVANCED_FACE('',(#1069),#1057,.T.);
#1071=CARTESIAN_POINT('',(-0.,0.78,0.));
#1072=DIRECTION('',(0.,1.,0.));
#1073=DIRECTION('',(-1.,0.,0.));
#1074=AXIS2_PLACEMENT_3D('',#1071,#1072,#1073);
#1075=PLANE('',#1074);
#1076=ORIENTED_EDGE('',*,*,#918,.T.);
#1077=CARTESIAN_POINT('',(1.635,0.78,1.684290617));
#1078=DIRECTION('',(0.,1.,0.));
#1079=DIRECTION('',(0.,-0.,1.));
#1080=AXIS2_PLACEMENT_3D('',#1077,#1078,#1079);
#1081=CIRCLE('',#1080,0.065);
#1082=EDGE_CURVE('',#906,#932,#1081,.T.);
#1083=ORIENTED_EDGE('',*,*,#1082,.T.);
#1084=ORIENTED_EDGE('',*,*,#937,.F.);
#1085=ORIENTED_EDGE('',*,*,#974,.T.);
#1086=ORIENTED_EDGE('',*,*,#998,.F.);
#1087=ORIENTED_EDGE('',*,*,#1023,.T.);
#1088=ORIENTED_EDGE('',*,*,#1047,.T.);
#1089=ORIENTED_EDGE('',*,*,#1065,.T.);
#1090=ORIENTED_EDGE('',*,*,#888,.F.);
#1091=EDGE_LOOP('',(#1076,#1083,#1084,#1085,#1086,#1087,#1088,#1089,#1090));
#1092=FACE_BOUND('',#1091,.T.);
#1093=ADVANCED_FACE('',(#1092),#1075,.T.);
#1094=OVER_RIDING_STYLED_ITEM('',(#635),#1093,#26);
#1095=CARTESIAN_POINT('',(1.635,0.78,1.684290617));
#1096=DIRECTION('',(0.,-1.,0.));
#1097=DIRECTION('',(0.,0.,-1.));
#1098=AXIS2_PLACEMENT_3D('',#1095,#1096,#1097);
#1099=CYLINDRICAL_SURFACE('',#1098,0.065);
#1100=ORIENTED_EDGE('',*,*,#1082,.F.);
#1101=ORIENTED_EDGE('',*,*,#911,.F.);
#1102=ORIENTED_EDGE('',*,*,#317,.F.);
#1103=ORIENTED_EDGE('',*,*,#943,.F.);
#1104=EDGE_LOOP('',(#1100,#1101,#1102,#1103));
#1105=FACE_BOUND('',#1104,.T.);
#1106=ADVANCED_FACE('',(#1105),#1099,.T.);
#1107=CARTESIAN_POINT('',(-1.85,-1.225,1.555926773));
#1108=DIRECTION('',(0.,0.,1.));
#1109=DIRECTION('',(1.,0.,0.));
#1110=AXIS2_PLACEMENT_3D('',#1107,#1108,#1109);
#1111=PLANE('',#1110);
#1112=ORIENTED_EDGE('',*,*,#510,.F.);
#1113=CARTESIAN_POINT('',(-1.75,-1.045,1.555926773));
#1114=VERTEX_POINT('',#1113);
#1115=CARTESIAN_POINT('',(-1.95,-1.045,1.555926773));
#1116=DIRECTION('',(1.,0.,-0.));
#1117=VECTOR('',#1116,0.2);
#1118=LINE('',#1115,#1117);
#1119=EDGE_CURVE('',#499,#1114,#1118,.T.);
#1120=ORIENTED_EDGE('',*,*,#1119,.T.);
#1121=CARTESIAN_POINT('',(-1.75,-1.045,1.555926773));
#1122=DIRECTION('',(0.,1.,0.));
#1123=VECTOR('',#1122,0.27);
#1124=LINE('',#1121,#1123);
#1125=EDGE_CURVE('',#1114,#60,#1124,.T.);
#1126=ORIENTED_EDGE('',*,*,#1125,.T.);
#1127=ORIENTED_EDGE('',*,*,#65,.F.);
#1128=EDGE_LOOP('',(#1112,#1120,#1126,#1127));
#1129=FACE_BOUND('',#1128,.T.);
#1130=ADVANCED_FACE('',(#1129),#1111,.T.);
#1131=CARTESIAN_POINT('',(-1.85,-1.225,1.1));
#1132=DIRECTION('',(0.,0.,-1.));
#1133=DIRECTION('',(-1.,0.,0.));
#1134=AXIS2_PLACEMENT_3D('',#1131,#1132,#1133);
#1135=PLANE('',#1134);
#1136=CARTESIAN_POINT('',(-1.75,-1.045,1.1));
#1137=VERTEX_POINT('',#1136);
#1138=CARTESIAN_POINT('',(-1.75,-1.045,1.1));
#1139=DIRECTION('',(0.,1.,0.));
#1140=VECTOR('',#1139,0.27);
#1141=LINE('',#1138,#1140);
#1142=EDGE_CURVE('',#1137,#68,#1141,.T.);
#1143=ORIENTED_EDGE('',*,*,#1142,.F.);
#1144=CARTESIAN_POINT('',(-1.75,-1.045,1.1));
#1145=DIRECTION('',(-1.,0.,0.));
#1146=VECTOR('',#1145,0.2);
#1147=LINE('',#1144,#1146);
#1148=EDGE_CURVE('',#1137,#475,#1147,.T.);
#1149=ORIENTED_EDGE('',*,*,#1148,.T.);
#1150=ORIENTED_EDGE('',*,*,#480,.T.);
#1151=ORIENTED_EDGE('',*,*,#81,.F.);
#1152=EDGE_LOOP('',(#1143,#1149,#1150,#1151));
#1153=FACE_BOUND('',#1152,.T.);
#1154=ADVANCED_FACE('',(#1153),#1135,.T.);
#1155=CARTESIAN_POINT('',(-1.75,-1.225,1.327963386));
#1156=DIRECTION('',(1.,0.,0.));
#1157=DIRECTION('',(0.,0.,-1.));
#1158=AXIS2_PLACEMENT_3D('',#1155,#1156,#1157);
#1159=PLANE('',#1158);
#1160=CARTESIAN_POINT('',(-1.75,-1.225,1.375926773));
#1161=VERTEX_POINT('',#1160);
#1162=CARTESIAN_POINT('',(-1.75,-1.225,1.28));
#1163=VERTEX_POINT('',#1162);
#1164=CARTESIAN_POINT('',(-1.75,-1.225,1.375926773));
#1165=DIRECTION('',(0.,0.,-1.));
#1166=VECTOR('',#1165,0.095926773);
#1167=LINE('',#1164,#1166);
#1168=EDGE_CURVE('',#1161,#1163,#1167,.T.);
#1169=ORIENTED_EDGE('',*,*,#1168,.T.);
#1170=CARTESIAN_POINT('',(-1.75,-1.225,1.28));
#1171=DIRECTION('',(0.,0.707106781,-0.707106781));
#1172=VECTOR('',#1171,0.254558441);
#1173=LINE('',#1170,#1172);
#1174=EDGE_CURVE('',#1163,#1137,#1173,.T.);
#1175=ORIENTED_EDGE('',*,*,#1174,.T.);
#1176=ORIENTED_EDGE('',*,*,#1142,.T.);
#1177=ORIENTED_EDGE('',*,*,#73,.F.);
#1178=ORIENTED_EDGE('',*,*,#1125,.F.);
#1179=CARTESIAN_POINT('',(-1.75,-1.045,1.555926773));
#1180=DIRECTION('',(0.,-0.707106781,-0.707106781));
#1181=VECTOR('',#1180,0.254558441);
#1182=LINE('',#1179,#1181);
#1183=EDGE_CURVE('',#1114,#1161,#1182,.T.);
#1184=ORIENTED_EDGE('',*,*,#1183,.T.);
#1185=EDGE_LOOP('',(#1169,#1175,#1176,#1177,#1178,#1184));
#1186=FACE_BOUND('',#1185,.T.);
#1187=ADVANCED_FACE('',(#1186),#1159,.T.);
#1188=CARTESIAN_POINT('',(0.,-1.225,0.));
#1189=DIRECTION('',(0.,-1.,0.));
#1190=DIRECTION('',(1.,0.,0.));
#1191=AXIS2_PLACEMENT_3D('',#1188,#1189,#1190);
#1192=PLANE('',#1191);
#1193=ORIENTED_EDGE('',*,*,#496,.T.);
#1194=CARTESIAN_POINT('',(-1.95,-1.225,1.28));
#1195=DIRECTION('',(1.,0.,-0.));
#1196=VECTOR('',#1195,0.2);
#1197=LINE('',#1194,#1196);
#1198=EDGE_CURVE('',#483,#1163,#1197,.T.);
#1199=ORIENTED_EDGE('',*,*,#1198,.T.);
#1200=ORIENTED_EDGE('',*,*,#1168,.F.);
#1201=CARTESIAN_POINT('',(-1.75,-1.225,1.375926773));
#1202=DIRECTION('',(-1.,0.,0.));
#1203=VECTOR('',#1202,0.2);
#1204=LINE('',#1201,#1203);
#1205=EDGE_CURVE('',#1161,#491,#1204,.T.);
#1206=ORIENTED_EDGE('',*,*,#1205,.T.);
#1207=EDGE_LOOP('',(#1193,#1199,#1200,#1206));
#1208=FACE_BOUND('',#1207,.T.);
#1209=ADVANCED_FACE('',(#1208),#1192,.T.);
#1210=CARTESIAN_POINT('',(1.75,-1.225,1.327963386));
#1211=DIRECTION('',(1.,0.,0.));
#1212=DIRECTION('',(0.,0.,-1.));
#1213=AXIS2_PLACEMENT_3D('',#1210,#1211,#1212);
#1214=PLANE('',#1213);
#1215=CARTESIAN_POINT('',(1.75,-1.045,1.1));
#1216=VERTEX_POINT('',#1215);
#1217=CARTESIAN_POINT('',(1.75,-1.045,1.1));
#1218=DIRECTION('',(0.,1.,0.));
#1219=VECTOR('',#1218,0.27);
#1220=LINE('',#1217,#1219);
#1221=EDGE_CURVE('',#1216,#126,#1220,.T.);
#1222=ORIENTED_EDGE('',*,*,#1221,.F.);
#1223=CARTESIAN_POINT('',(1.75,-1.225,1.28));
#1224=VERTEX_POINT('',#1223);
#1225=CARTESIAN_POINT('',(1.75,-1.045,1.1));
#1226=DIRECTION('',(-0.,-0.707106781,0.707106781));
#1227=VECTOR('',#1226,0.254558441);
#1228=LINE('',#1225,#1227);
#1229=EDGE_CURVE('',#1216,#1224,#1228,.T.);
#1230=ORIENTED_EDGE('',*,*,#1229,.T.);
#1231=CARTESIAN_POINT('',(1.75,-1.225,1.375926773));
#1232=VERTEX_POINT('',#1231);
#1233=CARTESIAN_POINT('',(1.75,-1.225,1.375926773));
#1234=DIRECTION('',(0.,0.,-1.));
#1235=VECTOR('',#1234,0.095926773);
#1236=LINE('',#1233,#1235);
#1237=EDGE_CURVE('',#1232,#1224,#1236,.T.);
#1238=ORIENTED_EDGE('',*,*,#1237,.F.);
#1239=CARTESIAN_POINT('',(1.75,-1.045,1.555926773));
#1240=VERTEX_POINT('',#1239);
#1241=CARTESIAN_POINT('',(1.75,-1.225,1.375926773));
#1242=DIRECTION('',(-0.,0.707106781,0.707106781));
#1243=VECTOR('',#1242,0.254558441);
#1244=LINE('',#1241,#1243);
#1245=EDGE_CURVE('',#1232,#1240,#1244,.T.);
#1246=ORIENTED_EDGE('',*,*,#1245,.T.);
#1247=CARTESIAN_POINT('',(1.75,-1.045,1.555926773));
#1248=DIRECTION('',(0.,1.,0.));
#1249=VECTOR('',#1248,0.27);
#1250=LINE('',#1247,#1249);
#1251=EDGE_CURVE('',#1240,#134,#1250,.T.);
#1252=ORIENTED_EDGE('',*,*,#1251,.T.);
#1253=ORIENTED_EDGE('',*,*,#139,.T.);
#1254=EDGE_LOOP('',(#1222,#1230,#1238,#1246,#1252,#1253));
#1255=FACE_BOUND('',#1254,.T.);
#1256=ADVANCED_FACE('',(#1255),#1214,.F.);
#1257=CARTESIAN_POINT('',(1.85,-1.225,1.1));
#1258=DIRECTION('',(0.,0.,1.));
#1259=DIRECTION('',(1.,0.,0.));
#1260=AXIS2_PLACEMENT_3D('',#1257,#1258,#1259);
#1261=PLANE('',#1260);
#1262=ORIENTED_EDGE('',*,*,#564,.F.);
#1263=CARTESIAN_POINT('',(1.95,-1.045,1.1));
#1264=DIRECTION('',(-1.,0.,0.));
#1265=VECTOR('',#1264,0.2);
#1266=LINE('',#1263,#1265);
#1267=EDGE_CURVE('',#553,#1216,#1266,.T.);
#1268=ORIENTED_EDGE('',*,*,#1267,.T.);
#1269=ORIENTED_EDGE('',*,*,#1221,.T.);
#1270=ORIENTED_EDGE('',*,*,#131,.T.);
#1271=EDGE_LOOP('',(#1262,#1268,#1269,#1270));
#1272=FACE_BOUND('',#1271,.T.);
#1273=ADVANCED_FACE('',(#1272),#1261,.F.);
#1274=CARTESIAN_POINT('',(1.85,-1.225,1.555926773));
#1275=DIRECTION('',(0.,0.,-1.));
#1276=DIRECTION('',(-1.,0.,0.));
#1277=AXIS2_PLACEMENT_3D('',#1274,#1275,#1276);
#1278=PLANE('',#1277);
#1279=ORIENTED_EDGE('',*,*,#1251,.F.);
#1280=CARTESIAN_POINT('',(1.75,-1.045,1.555926773));
#1281=DIRECTION('',(1.,0.,-0.));
#1282=VECTOR('',#1281,0.2);
#1283=LINE('',#1280,#1282);
#1284=EDGE_CURVE('',#1240,#529,#1283,.T.);
#1285=ORIENTED_EDGE('',*,*,#1284,.T.);
#1286=ORIENTED_EDGE('',*,*,#534,.T.);
#1287=ORIENTED_EDGE('',*,*,#147,.T.);
#1288=EDGE_LOOP('',(#1279,#1285,#1286,#1287));
#1289=FACE_BOUND('',#1288,.T.);
#1290=ADVANCED_FACE('',(#1289),#1278,.F.);
#1291=CARTESIAN_POINT('',(0.,-1.225,0.));
#1292=DIRECTION('',(0.,-1.,0.));
#1293=DIRECTION('',(1.,0.,0.));
#1294=AXIS2_PLACEMENT_3D('',#1291,#1292,#1293);
#1295=PLANE('',#1294);
#1296=ORIENTED_EDGE('',*,*,#1237,.T.);
#1297=CARTESIAN_POINT('',(1.75,-1.225,1.28));
#1298=DIRECTION('',(1.,0.,-0.));
#1299=VECTOR('',#1298,0.2);
#1300=LINE('',#1297,#1299);
#1301=EDGE_CURVE('',#1224,#545,#1300,.T.);
#1302=ORIENTED_EDGE('',*,*,#1301,.T.);
#1303=ORIENTED_EDGE('',*,*,#550,.F.);
#1304=CARTESIAN_POINT('',(1.95,-1.225,1.375926773));
#1305=DIRECTION('',(-1.,0.,0.));
#1306=VECTOR('',#1305,0.2);
#1307=LINE('',#1304,#1306);
#1308=EDGE_CURVE('',#537,#1232,#1307,.T.);
#1309=ORIENTED_EDGE('',*,*,#1308,.T.);
#1310=EDGE_LOOP('',(#1296,#1302,#1303,#1309));
#1311=FACE_BOUND('',#1310,.T.);
#1312=ADVANCED_FACE('',(#1311),#1295,.T.);
#1313=CARTESIAN_POINT('',(-1.85,-1.045,1.1));
#1314=DIRECTION('',(0.,0.707106781,0.707106781));
#1315=DIRECTION('',(-1.,0.,0.));
#1316=AXIS2_PLACEMENT_3D('',#1313,#1314,#1315);
#1317=PLANE('',#1316);
#1318=ORIENTED_EDGE('',*,*,#1174,.F.);
#1319=ORIENTED_EDGE('',*,*,#1198,.F.);
#1320=ORIENTED_EDGE('',*,*,#488,.F.);
#1321=ORIENTED_EDGE('',*,*,#1148,.F.);
#1322=EDGE_LOOP('',(#1318,#1319,#1320,#1321));
#1323=FACE_BOUND('',#1322,.T.);
#1324=ADVANCED_FACE('',(#1323),#1317,.F.);
#1325=CARTESIAN_POINT('',(-1.85,-1.045,1.555926773));
#1326=DIRECTION('',(0.,0.707106781,-0.707106781));
#1327=DIRECTION('',(1.,0.,0.));
#1328=AXIS2_PLACEMENT_3D('',#1325,#1326,#1327);
#1329=PLANE('',#1328);
#1330=ORIENTED_EDGE('',*,*,#504,.F.);
#1331=ORIENTED_EDGE('',*,*,#1205,.F.);
#1332=ORIENTED_EDGE('',*,*,#1183,.F.);
#1333=ORIENTED_EDGE('',*,*,#1119,.F.);
#1334=EDGE_LOOP('',(#1330,#1331,#1332,#1333));
#1335=FACE_BOUND('',#1334,.T.);
#1336=ADVANCED_FACE('',(#1335),#1329,.F.);
#1337=CARTESIAN_POINT('',(0.,-1.225,1.28));
#1338=DIRECTION('',(0.,-0.707106781,-0.707106781));
#1339=DIRECTION('',(-1.,0.,0.));
#1340=AXIS2_PLACEMENT_3D('',#1337,#1338,#1339);
#1341=PLANE('',#1340);
#1342=ORIENTED_EDGE('',*,*,#1229,.F.);
#1343=ORIENTED_EDGE('',*,*,#1267,.F.);
#1344=ORIENTED_EDGE('',*,*,#558,.F.);
#1345=ORIENTED_EDGE('',*,*,#1301,.F.);
#1346=EDGE_LOOP('',(#1342,#1343,#1344,#1345));
#1347=FACE_BOUND('',#1346,.T.);
#1348=ADVANCED_FACE('',(#1347),#1341,.T.);
#1349=CARTESIAN_POINT('',(0.,-1.225,1.375926773));
#1350=DIRECTION('',(0.,-0.707106781,0.707106781));
#1351=DIRECTION('',(1.,0.,0.));
#1352=AXIS2_PLACEMENT_3D('',#1349,#1350,#1351);
#1353=PLANE('',#1352);
#1354=ORIENTED_EDGE('',*,*,#542,.F.);
#1355=ORIENTED_EDGE('',*,*,#1284,.F.);
#1356=ORIENTED_EDGE('',*,*,#1245,.F.);
#1357=ORIENTED_EDGE('',*,*,#1308,.F.);
#1358=EDGE_LOOP('',(#1354,#1355,#1356,#1357));
#1359=FACE_BOUND('',#1358,.T.);
#1360=ADVANCED_FACE('',(#1359),#1353,.T.);
#1361=CARTESIAN_POINT('',(-1.65,-0.,0.3));
#1362=DIRECTION('',(0.,-1.,0.));
#1363=DIRECTION('',(0.,0.,-1.));
#1364=AXIS2_PLACEMENT_3D('',#1361,#1362,#1363);
#1365=CYLINDRICAL_SURFACE('',#1364,0.3);
#1366=ORIENTED_EDGE('',*,*,#238,.F.);
#1367=ORIENTED_EDGE('',*,*,#586,.F.);
#1368=ORIENTED_EDGE('',*,*,#98,.F.);
#1369=ORIENTED_EDGE('',*,*,#471,.F.);
#1370=EDGE_LOOP('',(#1366,#1367,#1368,#1369));
#1371=FACE_BOUND('',#1370,.T.);
#1372=ADVANCED_FACE('',(#1371),#1365,.T.);
#1373=CARTESIAN_POINT('',(1.65,0.,0.3));
#1374=DIRECTION('',(0.,1.,0.));
#1375=DIRECTION('',(0.,-0.,1.));
#1376=AXIS2_PLACEMENT_3D('',#1373,#1374,#1375);
#1377=CYLINDRICAL_SURFACE('',#1376,0.3);
#1378=ORIENTED_EDGE('',*,*,#115,.F.);
#1379=ORIENTED_EDGE('',*,*,#593,.F.);
#1380=ORIENTED_EDGE('',*,*,#223,.F.);
#1381=ORIENTED_EDGE('',*,*,#571,.F.);
#1382=EDGE_LOOP('',(#1378,#1379,#1380,#1381));
#1383=FACE_BOUND('',#1382,.T.);
#1384=ADVANCED_FACE('',(#1383),#1377,.T.);
#1385=CARTESIAN_POINT('',(-1.85,0.,1.85));
#1386=DIRECTION('',(0.,1.,0.));
#1387=DIRECTION('',(0.,-0.,1.));
#1388=AXIS2_PLACEMENT_3D('',#1385,#1386,#1387);
#1389=CYLINDRICAL_SURFACE('',#1388,0.1);
#1390=ORIENTED_EDGE('',*,*,#189,.F.);
#1391=ORIENTED_EDGE('',*,*,#464,.F.);
#1392=ORIENTED_EDGE('',*,*,#49,.F.);
#1393=ORIENTED_EDGE('',*,*,#372,.F.);
#1394=EDGE_LOOP('',(#1390,#1391,#1392,#1393));
#1395=FACE_BOUND('',#1394,.T.);
#1396=ADVANCED_FACE('',(#1395),#1389,.T.);
#1397=CARTESIAN_POINT('',(1.85,0.,1.85));
#1398=DIRECTION('',(0.,-1.,0.));
#1399=DIRECTION('',(0.,0.,-1.));
#1400=AXIS2_PLACEMENT_3D('',#1397,#1398,#1399);
#1401=CYLINDRICAL_SURFACE('',#1400,0.1);
#1402=ORIENTED_EDGE('',*,*,#162,.F.);
#1403=ORIENTED_EDGE('',*,*,#525,.F.);
#1404=ORIENTED_EDGE('',*,*,#206,.F.);
#1405=ORIENTED_EDGE('',*,*,#379,.F.);
#1406=EDGE_LOOP('',(#1402,#1403,#1404,#1405));
#1407=FACE_BOUND('',#1406,.T.);
#1408=ADVANCED_FACE('',(#1407),#1401,.T.);
#1409=CARTESIAN_POINT('',(0.7,0.4,2.9));
#1410=DIRECTION('',(0.,0.,-1.));
#1411=DIRECTION('',(-1.,0.,0.));
#1412=AXIS2_PLACEMENT_3D('',#1409,#1410,#1411);
#1413=CYLINDRICAL_SURFACE('',#1412,0.05);
#1414=ORIENTED_EDGE('',*,*,#744,.F.);
#1415=ORIENTED_EDGE('',*,*,#610,.F.);
#1416=ORIENTED_EDGE('',*,*,#417,.F.);
#1417=ORIENTED_EDGE('',*,*,#656,.F.);
#1418=EDGE_LOOP('',(#1414,#1415,#1416,#1417));
#1419=FACE_BOUND('',#1418,.T.);
#1420=ADVANCED_FACE('',(#1419),#1413,.T.);
#1421=OVER_RIDING_STYLED_ITEM('',(#635),#1420,#26);
#1422=CARTESIAN_POINT('',(-0.7,0.4,2.9));
#1423=DIRECTION('',(0.,0.,-1.));
#1424=DIRECTION('',(-1.,0.,0.));
#1425=AXIS2_PLACEMENT_3D('',#1422,#1423,#1424);
#1426=CYLINDRICAL_SURFACE('',#1425,0.05);
#1427=ORIENTED_EDGE('',*,*,#752,.F.);
#1428=ORIENTED_EDGE('',*,*,#663,.F.);
#1429=ORIENTED_EDGE('',*,*,#400,.F.);
#1430=ORIENTED_EDGE('',*,*,#688,.F.);
#1431=EDGE_LOOP('',(#1427,#1428,#1429,#1430));
#1432=FACE_BOUND('',#1431,.T.);
#1433=ADVANCED_FACE('',(#1432),#1426,.T.);
#1434=OVER_RIDING_STYLED_ITEM('',(#635),#1433,#26);
#1435=CARTESIAN_POINT('',(-0.7,-0.4,2.9));
#1436=DIRECTION('',(0.,0.,-1.));
#1437=DIRECTION('',(-1.,0.,0.));
#1438=AXIS2_PLACEMENT_3D('',#1435,#1436,#1437);
#1439=CYLINDRICAL_SURFACE('',#1438,0.05);
#1440=ORIENTED_EDGE('',*,*,#760,.F.);
#1441=ORIENTED_EDGE('',*,*,#695,.F.);
#1442=ORIENTED_EDGE('',*,*,#449,.F.);
#1443=ORIENTED_EDGE('',*,*,#720,.F.);
#1444=EDGE_LOOP('',(#1440,#1441,#1442,#1443));
#1445=FACE_BOUND('',#1444,.T.);
#1446=ADVANCED_FACE('',(#1445),#1439,.T.);
#1447=OVER_RIDING_STYLED_ITEM('',(#635),#1446,#26);
#1448=CARTESIAN_POINT('',(0.7,-0.4,2.9));
#1449=DIRECTION('',(0.,0.,-1.));
#1450=DIRECTION('',(-1.,0.,0.));
#1451=AXIS2_PLACEMENT_3D('',#1448,#1449,#1450);
#1452=CYLINDRICAL_SURFACE('',#1451,0.05);
#1453=ORIENTED_EDGE('',*,*,#768,.F.);
#1454=ORIENTED_EDGE('',*,*,#727,.F.);
#1455=ORIENTED_EDGE('',*,*,#434,.F.);
#1456=ORIENTED_EDGE('',*,*,#624,.F.);
#1457=EDGE_LOOP('',(#1453,#1454,#1455,#1456));
#1458=FACE_BOUND('',#1457,.T.);
#1459=ADVANCED_FACE('',(#1458),#1452,.T.);
#1460=OVER_RIDING_STYLED_ITEM('',(#635),#1459,#26);
#1461=CLOSED_SHELL('',(#166,#321,#453,#514,#575,#597,#628,#667,#699,#731,#772,#808,#819,#855,#866,#898,#923,#954,#979,#1003,#1028,#1052,#1070,#1093,#1106,#1130,
#1154,#1187,#1209,#1256,#1273,#1290,#1312,#1324,#1336,#1348,#1360,#1372,#1384,#1396,#1408,#1420,#1433,#1446,#1459));
#1462=MANIFOLD_SOLID_BREP('Body 01',#1461);
#1463=COLOUR_RGB('',0.525490224,0.552941203,0.576470613);
#1464=FILL_AREA_STYLE_COLOUR('',#1463);
#1465=FILL_AREA_STYLE('',(#1464));
#1466=SURFACE_STYLE_FILL_AREA(#1465);
#1467=SURFACE_SIDE_STYLE('',(#1466));
#1468=SURFACE_STYLE_USAGE(.BOTH.,#1467);
#1469=PRESENTATION_STYLE_ASSIGNMENT((#1468));
#26=STYLED_ITEM('',(#1469),#1462);
#16=SHAPE_REPRESENTATION('root',(#15),#10);
#17=ADVANCED_BREP_SHAPE_REPRESENTATION('root',(#1462),#10);
#1477=SHAPE_REPRESENTATION_RELATIONSHIP('','',#16,#17);
#1478=APPLICATION_CONTEXT('data for automotive mechanical design processes');
#1479=APPLICATION_PROTOCOL_DEFINITION('international standard','automotive_design',1994,#1478);
#1480=PRODUCT_CONTEXT('',#1478,'mechanical');
#1481=PRODUCT_DEFINITION_CONTEXT('part definition',#1478,'design');
#24=PRODUCT('root','root','',(#1480));
#1482=PRODUCT_RELATED_PRODUCT_CATEGORY('part','',(#24));
#1483=PRODUCT_DEFINITION_FORMATION_WITH_SPECIFIED_SOURCE('','',#24,.NOT_KNOWN.);
#25=PRODUCT_DEFINITION('design','',#1483,#1481);
#23=PRODUCT_DEFINITION_SHAPE('','',#25);
#1484=SHAPE_DEFINITION_REPRESENTATION(#23,#16);
#11=DRAUGHTING_MODEL('',(),#10);
#1=MECHANICAL_DESIGN_GEOMETRIC_PRESENTATION_REPRESENTATION('',(#636,#668,#700,#732,#773,#809,#820,#856,#867,#1094,#1421,#1434,#1447,#1460,#26),#10);
ENDSEC;
END-ISO-10303-21;
