G04 #@! TF.GenerationSoftware,KiCad,Pcbnew,(6.0.1-0)*
G04 #@! TF.CreationDate,2022-08-23T11:55:36-04:00*
G04 #@! TF.ProjectId,feederFloor,66656564-6572-4466-9c6f-6f722e6b6963,rev?*
G04 #@! TF.SameCoordinates,Original*
G04 #@! TF.FileFunction,Legend,Bot*
G04 #@! TF.FilePolarity,Positive*
%FSLAX46Y46*%
G04 Gerber Fmt 4.6, Leading zero omitted, Abs format (unit mm)*
G04 Created by KiCad (PCBNEW (6.0.1-0)) date 2022-08-23 11:55:36*
%MOMM*%
%LPD*%
G01*
G04 APERTURE LIST*
%ADD10C,0.100000*%
%ADD11C,0.150000*%
%ADD12C,0.120000*%
G04 APERTURE END LIST*
D10*
X31306428Y-53342678D02*
X31556428Y-53342678D01*
X31556428Y-53735535D02*
X31556428Y-52985535D01*
X31199285Y-52985535D01*
X30627857Y-53699821D02*
X30699285Y-53735535D01*
X30842142Y-53735535D01*
X30913571Y-53699821D01*
X30949285Y-53628392D01*
X30949285Y-53342678D01*
X30913571Y-53271250D01*
X30842142Y-53235535D01*
X30699285Y-53235535D01*
X30627857Y-53271250D01*
X30592142Y-53342678D01*
X30592142Y-53414107D01*
X30949285Y-53485535D01*
X29985000Y-53699821D02*
X30056428Y-53735535D01*
X30199285Y-53735535D01*
X30270714Y-53699821D01*
X30306428Y-53628392D01*
X30306428Y-53342678D01*
X30270714Y-53271250D01*
X30199285Y-53235535D01*
X30056428Y-53235535D01*
X29985000Y-53271250D01*
X29949285Y-53342678D01*
X29949285Y-53414107D01*
X30306428Y-53485535D01*
X29306428Y-53735535D02*
X29306428Y-52985535D01*
X29306428Y-53699821D02*
X29377857Y-53735535D01*
X29520714Y-53735535D01*
X29592142Y-53699821D01*
X29627857Y-53664107D01*
X29663571Y-53592678D01*
X29663571Y-53378392D01*
X29627857Y-53306964D01*
X29592142Y-53271250D01*
X29520714Y-53235535D01*
X29377857Y-53235535D01*
X29306428Y-53271250D01*
X28663571Y-53699821D02*
X28735000Y-53735535D01*
X28877857Y-53735535D01*
X28949285Y-53699821D01*
X28985000Y-53628392D01*
X28985000Y-53342678D01*
X28949285Y-53271250D01*
X28877857Y-53235535D01*
X28735000Y-53235535D01*
X28663571Y-53271250D01*
X28627857Y-53342678D01*
X28627857Y-53414107D01*
X28985000Y-53485535D01*
X28306428Y-53735535D02*
X28306428Y-53235535D01*
X28306428Y-53378392D02*
X28270714Y-53306964D01*
X28235000Y-53271250D01*
X28163571Y-53235535D01*
X28092142Y-53235535D01*
X27020714Y-53342678D02*
X27270714Y-53342678D01*
X27270714Y-53735535D02*
X27270714Y-52985535D01*
X26913571Y-52985535D01*
X26520714Y-53735535D02*
X26592142Y-53699821D01*
X26627857Y-53628392D01*
X26627857Y-52985535D01*
X26127857Y-53735535D02*
X26199285Y-53699821D01*
X26235000Y-53664107D01*
X26270714Y-53592678D01*
X26270714Y-53378392D01*
X26235000Y-53306964D01*
X26199285Y-53271250D01*
X26127857Y-53235535D01*
X26020714Y-53235535D01*
X25949285Y-53271250D01*
X25913571Y-53306964D01*
X25877857Y-53378392D01*
X25877857Y-53592678D01*
X25913571Y-53664107D01*
X25949285Y-53699821D01*
X26020714Y-53735535D01*
X26127857Y-53735535D01*
X25449285Y-53735535D02*
X25520714Y-53699821D01*
X25556428Y-53664107D01*
X25592142Y-53592678D01*
X25592142Y-53378392D01*
X25556428Y-53306964D01*
X25520714Y-53271250D01*
X25449285Y-53235535D01*
X25342142Y-53235535D01*
X25270714Y-53271250D01*
X25235000Y-53306964D01*
X25199285Y-53378392D01*
X25199285Y-53592678D01*
X25235000Y-53664107D01*
X25270714Y-53699821D01*
X25342142Y-53735535D01*
X25449285Y-53735535D01*
X24877857Y-53735535D02*
X24877857Y-53235535D01*
X24877857Y-53378392D02*
X24842142Y-53306964D01*
X24806428Y-53271250D01*
X24735000Y-53235535D01*
X24663571Y-53235535D01*
X31127857Y-54943035D02*
X31377857Y-54585892D01*
X31556428Y-54943035D02*
X31556428Y-54193035D01*
X31270714Y-54193035D01*
X31199285Y-54228750D01*
X31163571Y-54264464D01*
X31127857Y-54335892D01*
X31127857Y-54443035D01*
X31163571Y-54514464D01*
X31199285Y-54550178D01*
X31270714Y-54585892D01*
X31556428Y-54585892D01*
X30806428Y-54550178D02*
X30556428Y-54550178D01*
X30449285Y-54943035D02*
X30806428Y-54943035D01*
X30806428Y-54193035D01*
X30449285Y-54193035D01*
X30235000Y-54193035D02*
X29985000Y-54943035D01*
X29735000Y-54193035D01*
X29342142Y-54193035D02*
X29270714Y-54193035D01*
X29199285Y-54228750D01*
X29163571Y-54264464D01*
X29127857Y-54335892D01*
X29092142Y-54478750D01*
X29092142Y-54657321D01*
X29127857Y-54800178D01*
X29163571Y-54871607D01*
X29199285Y-54907321D01*
X29270714Y-54943035D01*
X29342142Y-54943035D01*
X29413571Y-54907321D01*
X29449285Y-54871607D01*
X29485000Y-54800178D01*
X29520714Y-54657321D01*
X29520714Y-54478750D01*
X29485000Y-54335892D01*
X29449285Y-54264464D01*
X29413571Y-54228750D01*
X29342142Y-54193035D01*
X28842142Y-54193035D02*
X28377857Y-54193035D01*
X28627857Y-54478750D01*
X28520714Y-54478750D01*
X28449285Y-54514464D01*
X28413571Y-54550178D01*
X28377857Y-54621607D01*
X28377857Y-54800178D01*
X28413571Y-54871607D01*
X28449285Y-54907321D01*
X28520714Y-54943035D01*
X28735000Y-54943035D01*
X28806428Y-54907321D01*
X28842142Y-54871607D01*
D11*
X24133333Y-67352380D02*
X24133333Y-68066666D01*
X24180952Y-68209523D01*
X24276190Y-68304761D01*
X24419047Y-68352380D01*
X24514285Y-68352380D01*
X23133333Y-68352380D02*
X23704761Y-68352380D01*
X23419047Y-68352380D02*
X23419047Y-67352380D01*
X23514285Y-67495238D01*
X23609523Y-67590476D01*
X23704761Y-67638095D01*
D12*
X21995114Y-71413687D02*
X24535114Y-71413687D01*
X22245114Y-71163687D02*
X31595114Y-71163687D01*
X22245114Y-55383687D02*
X22245114Y-71163687D01*
X31595114Y-55383687D02*
X22245114Y-55383687D01*
X21995114Y-71413687D02*
X21995114Y-68873687D01*
X31595114Y-71163687D02*
X31595114Y-55383687D01*
X30850114Y-39113687D02*
X34650114Y-39113687D01*
X30850114Y-25113687D02*
X30850114Y-39113687D01*
X34650114Y-25113687D02*
X34650114Y-39113687D01*
X30850114Y-25113687D02*
X34650114Y-25113687D01*
M02*
