G04 #@! TF.GenerationSoftware,KiCad,Pcbnew,(6.0.1-0)*
G04 #@! TF.CreationDate,2022-08-23T12:06:24-04:00*
G04 #@! TF.ProjectId,indexingWheel,696e6465-7869-46e6-9757-6865656c2e6b,rev?*
G04 #@! TF.SameCoordinates,Original*
G04 #@! TF.FileFunction,Profile,NP*
%FSLAX46Y46*%
G04 Gerber Fmt 4.6, Leading zero omitted, Abs format (unit mm)*
G04 Created by KiCad (PCBNEW (6.0.1-0)) date 2022-08-23 12:06:24*
%MOMM*%
%LPD*%
G01*
G04 APERTURE LIST*
G04 #@! TA.AperFunction,Profile*
%ADD10C,0.050000*%
G04 #@! TD*
G04 APERTURE END LIST*
D10*
X148400001Y-92000001D02*
G75*
G03*
X150599999Y-92000001I1099999J-999999D01*
G01*
X148400001Y-92000001D02*
X150600000Y-92000000D01*
X146234014Y-110703142D02*
G75*
G03*
X146821014Y-110310142I97001J489999D01*
G01*
X167500014Y-92750142D02*
G75*
G03*
X167000014Y-92250142I-500001J-1D01*
G01*
X156157014Y-76274142D02*
X156619014Y-76466142D01*
X139777014Y-103783142D02*
X137656014Y-105905142D01*
X143911014Y-105839142D02*
G75*
G03*
X143258011Y-106110150I-191000J-462000D01*
G01*
X142311014Y-74337142D02*
X141926014Y-73407142D01*
X156619014Y-109534141D02*
G75*
G03*
X156890014Y-108881142I-190999J461999D01*
G01*
X135720014Y-95486142D02*
X135818014Y-95976142D01*
X166810014Y-90322142D02*
G75*
G03*
X167204014Y-89734142I-97000J491000D01*
G01*
X134533014Y-102099142D02*
X137027014Y-100432142D01*
X138808014Y-109902142D02*
G75*
G03*
X141387023Y-111280619I10691956J16901920D01*
G01*
X159223014Y-103076142D02*
G75*
G03*
X159222020Y-103783148I353002J-354000D01*
G01*
X133154014Y-81476142D02*
X132317014Y-80917142D01*
X129988014Y-88609142D02*
X129001014Y-88413142D01*
X159292014Y-77895142D02*
X159708014Y-78172142D01*
X152178014Y-110310142D02*
X151593014Y-107368142D01*
X136595014Y-104844142D02*
G75*
G03*
X136595014Y-105552142I353999J-354000D01*
G01*
X169012014Y-97391142D02*
X169999014Y-97587142D01*
X156890014Y-77119142D02*
X155742014Y-79891142D01*
X165846014Y-81476142D02*
G75*
G03*
X163990808Y-79215688I-16346078J-11524066D01*
G01*
X162609014Y-86758142D02*
X165381014Y-85610142D01*
X135009014Y-79216142D02*
X134297014Y-78504142D01*
X169207014Y-96410142D02*
X170194014Y-96607142D01*
X148750014Y-110500142D02*
X148750014Y-107500142D01*
X151986014Y-106780141D02*
G75*
G03*
X151594016Y-107368151I98001J-490001D01*
G01*
X150000014Y-112994142D02*
G75*
G03*
X152910275Y-112707505I-500014J19994142D01*
G01*
X161973014Y-100432142D02*
X164467014Y-102099142D01*
X135720015Y-95486142D02*
G75*
G03*
X135132005Y-95094144I-490001J-98001D01*
G01*
X139777014Y-82924142D02*
G75*
G03*
X139778008Y-82217136I-353002J354000D01*
G01*
X138808014Y-109902142D02*
X138249014Y-110739142D01*
X161140014Y-84321142D02*
X163634014Y-82654142D01*
X136661014Y-87411142D02*
X136470014Y-87873142D01*
X150250014Y-107500142D02*
G75*
G03*
X149750014Y-107000142I-500001J-1D01*
G01*
X167000014Y-93750142D02*
G75*
G03*
X167500014Y-93250142I-1J500001D01*
G01*
X162530015Y-87873142D02*
G75*
G03*
X163183022Y-88144139I461999J190999D01*
G01*
X159576014Y-83277142D02*
G75*
G03*
X160283020Y-83278136I354000J353002D01*
G01*
X135000014Y-93750142D02*
X132000014Y-93750142D01*
X160192014Y-76098142D02*
X160751014Y-75261142D01*
X135004014Y-77797142D02*
G75*
G03*
X134298014Y-78505142I-353000J-354000D01*
G01*
X159292014Y-77895142D02*
G75*
G03*
X158600014Y-78033142I-277000J-414999D01*
G01*
X150000014Y-112994142D02*
X150000014Y-114000142D01*
X141514014Y-104502142D02*
G75*
G03*
X140821009Y-104639149I-278000J-415001D01*
G01*
X136470013Y-98127142D02*
G75*
G03*
X135817006Y-97856145I-461999J-190999D01*
G01*
X153064014Y-107075142D02*
X153650014Y-110017142D01*
X167780014Y-84887142D02*
X168710014Y-84502142D01*
X153257014Y-110605142D02*
X152766014Y-110703142D01*
X159223014Y-82217142D02*
X161344014Y-80095142D01*
X161583014Y-75817142D02*
G75*
G03*
X160751014Y-75261142I-416000J278000D01*
G01*
X163183014Y-97856142D02*
X165955014Y-99004142D01*
X166810014Y-90322142D02*
X163868014Y-90907142D01*
X135817014Y-88144143D02*
G75*
G03*
X136470014Y-87873142I191000J462000D01*
G01*
X146090014Y-112707142D02*
G75*
G03*
X149000219Y-112993745I3410012J19707108D01*
G01*
X162339014Y-98589142D02*
X162530014Y-98127142D01*
X163868014Y-95093142D02*
X166810014Y-95678142D01*
X145743014Y-75395142D02*
X146234014Y-75297142D01*
X128806014Y-96607142D02*
G75*
G03*
X129002014Y-97587142I98000J-490000D01*
G01*
X135132014Y-90907142D02*
X132190014Y-90322142D01*
X131895014Y-96757142D02*
X131797014Y-96266142D01*
X161024014Y-109346142D02*
X161583014Y-110183142D01*
X161024014Y-76654142D02*
X161583014Y-75817142D01*
X144373014Y-79970142D02*
X143911014Y-80161142D01*
X147407014Y-107368142D02*
G75*
G03*
X147014014Y-106779142I-491000J98000D01*
G01*
X137976014Y-76654142D02*
X137417014Y-75817142D01*
X167203014Y-96266142D02*
G75*
G03*
X166810014Y-95679142I-489999J97001D01*
G01*
X135366014Y-82654142D02*
X137860014Y-84321142D01*
X165955014Y-86996141D02*
G75*
G03*
X166226014Y-86343142I-190999J461999D01*
G01*
X149000014Y-73006142D02*
X149000014Y-72000142D01*
X163996014Y-108203142D02*
G75*
G03*
X164702014Y-107495142I353000J354000D01*
G01*
X165846014Y-104524142D02*
X166683014Y-105083142D01*
X156619014Y-109534142D02*
X156157014Y-109726142D01*
X135009014Y-79216142D02*
G75*
G03*
X133153876Y-81476622I14490921J-13783936D01*
G01*
X158179014Y-104640142D02*
G75*
G03*
X157487014Y-104502142I-415000J-276999D01*
G01*
X135716014Y-78509142D02*
X135004014Y-77797142D01*
X160283014Y-102723142D02*
G75*
G03*
X159577014Y-102723142I-353000J-353001D01*
G01*
X168163014Y-85811142D02*
X169093014Y-85426142D01*
X151593014Y-78632142D02*
X152178014Y-75690142D01*
X142843014Y-109726143D02*
G75*
G03*
X143496014Y-109455142I191000J462000D01*
G01*
X146822014Y-75690142D02*
G75*
G03*
X146234014Y-75296142I-491000J-97000D01*
G01*
X163575014Y-89436142D02*
X166517014Y-88850142D01*
X161002014Y-100986142D02*
G75*
G03*
X161139021Y-101679147I415001J-278000D01*
G01*
X159576014Y-83277142D02*
X159223014Y-82924142D01*
X149000014Y-73006142D02*
G75*
G03*
X146089753Y-73292779I500014J-19994142D01*
G01*
X128500014Y-92500142D02*
G75*
G03*
X128500014Y-93500142I0J-500000D01*
G01*
X157613014Y-111280142D02*
G75*
G03*
X160191954Y-109901668I-8113035J18280063D01*
G01*
X141387014Y-111280142D02*
X141002014Y-112210142D01*
X132190014Y-95678142D02*
G75*
G03*
X131796014Y-96266142I97000J-491000D01*
G01*
X145893014Y-72306142D02*
G75*
G03*
X144913014Y-72502142I-490000J-98000D01*
G01*
X167780014Y-101113142D02*
X168710014Y-101498142D01*
X161024014Y-109346142D02*
G75*
G03*
X163284468Y-107490936I-11524066J16346078D01*
G01*
X129907014Y-100574142D02*
G75*
G03*
X130291014Y-101498142I192000J-462000D01*
G01*
X163868014Y-95093142D02*
G75*
G03*
X163279014Y-95486142I-98000J-491000D01*
G01*
X166226014Y-99657142D02*
X166034014Y-100119142D01*
X145743014Y-75395143D02*
G75*
G03*
X145351014Y-75983142I97999J-489999D01*
G01*
X155742014Y-106109142D02*
X156890014Y-108881142D01*
X159223014Y-82217142D02*
G75*
G03*
X159223014Y-82923142I353001J-353000D01*
G01*
X163182014Y-95976142D02*
X163280014Y-95486142D01*
X141930014Y-81221142D02*
G75*
G03*
X142068009Y-80527135I-278000J416000D01*
G01*
X166683014Y-105083142D02*
G75*
G03*
X167239014Y-104251142I278000J416000D01*
G01*
X136661014Y-87411142D02*
G75*
G03*
X136390006Y-86758139I-462000J191000D01*
G01*
X131797014Y-89734142D02*
X131895014Y-89243142D01*
X164000014Y-92250142D02*
X167000014Y-92250142D01*
X131220014Y-101113142D02*
X130290014Y-101498142D01*
X163183014Y-97856141D02*
G75*
G03*
X162530014Y-98127142I-191000J-462000D01*
G01*
X160192014Y-76098142D02*
G75*
G03*
X157613005Y-74719665I-10691956J-16901920D01*
G01*
X150250014Y-75500142D02*
G75*
G03*
X149750014Y-75000142I-500001J-1D01*
G01*
X166517014Y-97150142D02*
X163575014Y-96564142D01*
X143258014Y-79891142D02*
X142110014Y-77119142D01*
X132317014Y-80917142D02*
G75*
G03*
X131761014Y-81749142I-278000J-416000D01*
G01*
X133619014Y-85610142D02*
X136391014Y-86758142D01*
X148750014Y-78500142D02*
G75*
G03*
X149250014Y-79000142I500001J1D01*
G01*
X132598014Y-82308142D02*
G75*
G03*
X131219537Y-84887151I16901920J-10691956D01*
G01*
X149750014Y-111000142D02*
G75*
G03*
X150250014Y-110500142I-1J500001D01*
G01*
X164328014Y-82792142D02*
G75*
G03*
X163634014Y-82654142I-416000J-278000D01*
G01*
X136391014Y-99242142D02*
X133619014Y-100390142D01*
X161344014Y-105905142D02*
G75*
G03*
X162052014Y-105905142I354000J353999D01*
G01*
X155504015Y-109455142D02*
G75*
G03*
X156157014Y-109726142I461999J190999D01*
G01*
X129793014Y-89590142D02*
G75*
G03*
X129506411Y-92500347I19707108J-3410012D01*
G01*
X154356013Y-79317142D02*
G75*
G03*
X154627014Y-79970142I462000J-191000D01*
G01*
X163284014Y-78509142D02*
G75*
G03*
X161023534Y-76654004I-13783936J-14490921D01*
G01*
X133045014Y-99004142D02*
X135817014Y-97856142D01*
X149250014Y-75000142D02*
X149750014Y-75000142D01*
X134533014Y-102099142D02*
G75*
G03*
X134394014Y-102792142I277000J-416000D01*
G01*
X151593014Y-78632142D02*
G75*
G03*
X151986014Y-79221142I491000J-98000D01*
G01*
X169093014Y-85426142D02*
G75*
G03*
X168709014Y-84502142I-192000J462000D01*
G01*
X163280013Y-90514142D02*
G75*
G03*
X163868023Y-90906140I490001J98001D01*
G01*
X152910014Y-73293142D02*
G75*
G03*
X149999809Y-73006539I-3410012J-19707108D01*
G01*
X152476014Y-79318142D02*
G75*
G03*
X153065016Y-78925133I98001J490998D01*
G01*
X159223014Y-103076142D02*
X159576014Y-102723142D01*
X169494014Y-92500142D02*
G75*
G03*
X169207377Y-89589881I-19994142J-500014D01*
G01*
X137656014Y-80095142D02*
G75*
G03*
X136948014Y-80095142I-354000J-353999D01*
G01*
X154087014Y-72501142D02*
G75*
G03*
X153107014Y-72307142I-490000J97000D01*
G01*
X129988014Y-97391142D02*
G75*
G03*
X130836900Y-100189523I19512129J4391039D01*
G01*
X166034013Y-85881142D02*
G75*
G03*
X165381014Y-85610142I-461999J-190999D01*
G01*
X164467014Y-83901142D02*
X161973014Y-85568142D01*
X141002014Y-112210142D02*
G75*
G03*
X141926014Y-112592142I462000J-191000D01*
G01*
X166402014Y-82308142D02*
X167239014Y-81749142D01*
X153891014Y-73488142D02*
X154087014Y-72501142D01*
X139292014Y-78172142D02*
X139708014Y-77895142D01*
X168163014Y-100189142D02*
X169093014Y-100574142D01*
X132966015Y-100119142D02*
G75*
G03*
X133619014Y-100390142I461999J190999D01*
G01*
X144644015Y-106683142D02*
G75*
G03*
X144373014Y-106030142I-462000J191000D01*
G01*
X131220014Y-84887142D02*
X130290014Y-84502142D01*
X140821014Y-81360142D02*
G75*
G03*
X141513014Y-81498142I415000J276999D01*
G01*
X153891014Y-112512142D02*
G75*
G03*
X156689395Y-111663256I-4391039J19512129D01*
G01*
X135425014Y-96564141D02*
G75*
G03*
X135817014Y-95976142I-97999J489999D01*
G01*
X145350014Y-110017142D02*
X145936014Y-107075142D01*
X164605014Y-102792142D02*
X164328014Y-103208142D01*
X129793014Y-96410142D02*
X128806014Y-96607142D01*
X163182014Y-95976142D02*
G75*
G03*
X163575023Y-96565144I490998J-98001D01*
G01*
X132598014Y-103692142D02*
X131761014Y-104251142D01*
X139708014Y-108105142D02*
G75*
G03*
X140400014Y-107967142I277000J414999D01*
G01*
X160283014Y-102723142D02*
X162405014Y-104844142D01*
X145936014Y-78925142D02*
X145350014Y-75983142D01*
X159708014Y-107828142D02*
X159292014Y-108105142D01*
X163500014Y-93250142D02*
G75*
G03*
X164000023Y-93750142I500000J0D01*
G01*
X146090014Y-73293142D02*
X145893014Y-72306142D01*
X130290014Y-84502142D02*
G75*
G03*
X129908014Y-85426142I-191000J-462000D01*
G01*
X137976014Y-109346142D02*
X137417014Y-110183142D01*
X162051014Y-80095142D02*
G75*
G03*
X161344014Y-80096142I-353000J-354002D01*
G01*
X135500014Y-92750142D02*
G75*
G03*
X135000005Y-92250142I-500000J0D01*
G01*
X167500014Y-92750142D02*
X167500014Y-93250142D01*
X155089014Y-80161142D02*
X154627014Y-79970142D01*
X163500014Y-93250142D02*
X163500014Y-92750142D01*
X138717014Y-83277142D02*
X136595014Y-81156142D01*
X163991014Y-106784142D02*
G75*
G03*
X165846152Y-104523662I-14490921J13783936D01*
G01*
X142110014Y-108881142D02*
X143258014Y-106109142D01*
X165846014Y-81476142D02*
X166683014Y-80917142D01*
X157070014Y-104779142D02*
X157486014Y-104502142D01*
X150000014Y-72000142D02*
G75*
G03*
X149000014Y-72000142I-500000J0D01*
G01*
X137860014Y-101679142D02*
G75*
G03*
X137998014Y-100987142I-276999J415000D01*
G01*
X144373014Y-79970141D02*
G75*
G03*
X144644011Y-79317134I-190999J461999D01*
G01*
X164703014Y-78504142D02*
G75*
G03*
X163995014Y-77798142I-354000J353000D01*
G01*
X166402014Y-103692142D02*
X167239014Y-104251142D01*
X148750014Y-110500142D02*
G75*
G03*
X149250014Y-111000142I500001J1D01*
G01*
X137721014Y-100570142D02*
X137998014Y-100986142D01*
X163575014Y-89436143D02*
G75*
G03*
X163183014Y-90024142I97999J-489999D01*
G01*
X150250014Y-107500142D02*
X150250014Y-110500142D01*
X136595014Y-80449142D02*
X136949014Y-80095142D01*
X136949014Y-105905142D02*
X136595014Y-105551142D01*
X156689014Y-74337142D02*
G75*
G03*
X153890654Y-73488310I-7188986J-18662944D01*
G01*
X139777014Y-82924142D02*
X139424014Y-83277142D01*
X145936015Y-78925142D02*
G75*
G03*
X146524014Y-79317142I489999J97999D01*
G01*
X135716014Y-107491142D02*
G75*
G03*
X137976494Y-109346280I13783936J14490921D01*
G01*
X137721014Y-100570142D02*
G75*
G03*
X137027007Y-100432147I-416000J-278000D01*
G01*
X167203014Y-96266142D02*
X167105014Y-96757142D01*
X139708014Y-108105142D02*
X139292014Y-107828142D01*
X149250014Y-75000142D02*
G75*
G03*
X148750014Y-75500142I1J-500001D01*
G01*
X169494014Y-92500142D02*
X170500014Y-92500142D01*
X142381014Y-76466142D02*
X142843014Y-76274142D01*
X133154014Y-104524142D02*
G75*
G03*
X135009220Y-106784596I16346078J11524066D01*
G01*
X156689014Y-111663142D02*
X157074014Y-112593142D01*
X158599014Y-107967142D02*
X156932014Y-105473142D01*
X162405014Y-105551142D02*
G75*
G03*
X162404014Y-104844142I-354002J353000D01*
G01*
X157613014Y-74720142D02*
X157998014Y-73790142D01*
X132774013Y-86343142D02*
G75*
G03*
X133045014Y-86996142I462000J-191000D01*
G01*
X136949014Y-105905142D02*
G75*
G03*
X137656014Y-105904142I353000J354002D01*
G01*
X157070014Y-104779142D02*
G75*
G03*
X156932019Y-105473149I278000J-416000D01*
G01*
X133619014Y-85610141D02*
G75*
G03*
X132966014Y-85881142I-191000J-462000D01*
G01*
X160751014Y-110739142D02*
G75*
G03*
X161583014Y-110183142I416000J278000D01*
G01*
X162405014Y-105551142D02*
X162051014Y-105905142D01*
X135716014Y-107491142D02*
X135004014Y-108203142D01*
X135009014Y-106784142D02*
X134297014Y-107496142D01*
X161973014Y-100432142D02*
G75*
G03*
X161279014Y-100570142I-278000J-416000D01*
G01*
X133154014Y-104524142D02*
X132317014Y-105083142D01*
X149000014Y-114000142D02*
G75*
G03*
X150000014Y-114000142I500000J0D01*
G01*
X149250014Y-107000142D02*
G75*
G03*
X148750014Y-107500151I0J-500000D01*
G01*
X156932014Y-80527142D02*
G75*
G03*
X157070014Y-81221142I416000J-278000D01*
G01*
X153891014Y-112512142D02*
X154087014Y-113499142D01*
X157486014Y-81498142D02*
G75*
G03*
X158179019Y-81361135I278000J415001D01*
G01*
X131500014Y-93250142D02*
G75*
G03*
X132000014Y-93750142I500001J1D01*
G01*
X167105014Y-89243142D02*
X167203014Y-89734142D01*
X132598014Y-82308142D02*
X131761014Y-81749142D01*
X163634014Y-103346142D02*
X161140014Y-101679142D01*
X152910014Y-73293142D02*
X153107014Y-72306142D01*
X165955014Y-86996142D02*
X163183014Y-88144142D01*
X132966014Y-100119142D02*
X132774014Y-99657142D01*
X146822014Y-75690142D02*
X147407014Y-78632142D01*
X129506014Y-93500142D02*
X128500014Y-93500142D01*
X139424014Y-102723142D02*
X139777014Y-103076142D01*
X135818014Y-90024142D02*
X135720014Y-90514142D01*
X166517014Y-97150142D02*
G75*
G03*
X167106014Y-96757142I98000J491000D01*
G01*
X131895015Y-96757142D02*
G75*
G03*
X132483014Y-97149142I489999J97999D01*
G01*
X163284014Y-107491142D02*
X163996014Y-108203142D01*
X161140014Y-84321142D02*
G75*
G03*
X161002014Y-85013142I276999J-415000D01*
G01*
X141387014Y-74720142D02*
X141002014Y-73790142D01*
X143911014Y-105839142D02*
X144373014Y-106030142D01*
X132774014Y-86343142D02*
X132966014Y-85881142D01*
X137860014Y-101679142D02*
X135366014Y-103346142D01*
X158599014Y-107967142D02*
G75*
G03*
X159292014Y-108106142I416000J277000D01*
G01*
X163991014Y-106784142D02*
X164703014Y-107496142D01*
X165381014Y-100390142D02*
X162609014Y-99242142D01*
X151986014Y-106780142D02*
X152476014Y-106682142D01*
X154627014Y-106030143D02*
G75*
G03*
X154356017Y-106683150I190999J-461999D01*
G01*
X142381014Y-76466143D02*
G75*
G03*
X142110014Y-77119142I190999J-461999D01*
G01*
X136595014Y-104844142D02*
X138717014Y-102723142D01*
X167780014Y-84887142D02*
G75*
G03*
X166401540Y-82308202I-18280063J-8113035D01*
G01*
X129506014Y-93500142D02*
G75*
G03*
X129792651Y-96410403I19994142J500014D01*
G01*
X165381014Y-100390143D02*
G75*
G03*
X166034014Y-100119142I191000J462000D01*
G01*
X143496013Y-76545142D02*
G75*
G03*
X142843014Y-76274142I-461999J-190999D01*
G01*
X131761014Y-104251142D02*
G75*
G03*
X132317014Y-105083142I278000J-416000D01*
G01*
X163280014Y-90514142D02*
X163182014Y-90024142D01*
X130837014Y-85811142D02*
X129907014Y-85426142D01*
X146234014Y-110703142D02*
X145743014Y-110605142D01*
X144913014Y-113499142D02*
G75*
G03*
X145893014Y-113693142I490000J-97000D01*
G01*
X158179014Y-104640142D02*
X159846014Y-107134142D01*
X161279014Y-85430142D02*
G75*
G03*
X161973021Y-85568137I416000J278000D01*
G01*
X157998014Y-73790142D02*
G75*
G03*
X157074014Y-73408142I-462000J191000D01*
G01*
X143258014Y-79891142D02*
G75*
G03*
X143912014Y-80161142I462000J191999D01*
G01*
X169207014Y-96410142D02*
G75*
G03*
X169493617Y-93499937I-19707108J3410012D01*
G01*
X145350014Y-110017142D02*
G75*
G03*
X145743014Y-110606142I491000J-98000D01*
G01*
X132000014Y-92250142D02*
X135000014Y-92250142D01*
X164467014Y-83901142D02*
G75*
G03*
X164606014Y-83208142I-277000J416000D01*
G01*
X162051014Y-80095142D02*
X162405014Y-80449142D01*
X169207014Y-89590142D02*
X170194014Y-89393142D01*
X129001014Y-88413142D02*
G75*
G03*
X128807014Y-89393142I-97000J-490000D01*
G01*
X132483014Y-88850142D02*
X135425014Y-89436142D01*
X170500014Y-93500142D02*
G75*
G03*
X170500014Y-92500142I0J500000D01*
G01*
X154627014Y-106030142D02*
X155089014Y-105839142D01*
X132190014Y-95678142D02*
X135132014Y-95093142D01*
X153650014Y-75983142D02*
X153064014Y-78925142D01*
X135817014Y-88144142D02*
X133045014Y-86996142D01*
X133045014Y-99004143D02*
G75*
G03*
X132774014Y-99657142I190999J-461999D01*
G01*
X153650014Y-75983142D02*
G75*
G03*
X153257014Y-75394142I-491000J98000D01*
G01*
X157613014Y-111280142D02*
X157998014Y-112210142D01*
X162405014Y-81156142D02*
G75*
G03*
X162405014Y-80448142I-353999J354000D01*
G01*
X162405014Y-81156142D02*
X160283014Y-83277142D01*
X134297014Y-107496142D02*
G75*
G03*
X135005014Y-108202142I354000J-353000D01*
G01*
X157074014Y-112593142D02*
G75*
G03*
X157998014Y-112209142I462000J192000D01*
G01*
X141387014Y-74720142D02*
G75*
G03*
X138808074Y-76098616I8113035J-18280063D01*
G01*
X156157014Y-76274141D02*
G75*
G03*
X155504014Y-76545142I-191000J-462000D01*
G01*
X155504014Y-109455142D02*
X154356014Y-106683142D01*
X138249014Y-75261142D02*
G75*
G03*
X137417014Y-75817142I-416000J-278000D01*
G01*
X139424014Y-102723142D02*
G75*
G03*
X138717008Y-102722148I-354000J-353002D01*
G01*
X152476014Y-79318142D02*
X151986014Y-79220142D01*
X134395014Y-83208142D02*
X134672014Y-82792142D01*
X141930014Y-81221142D02*
X141514014Y-81498142D01*
X142311014Y-111663142D02*
G75*
G03*
X145109374Y-112511974I7188986J18662944D01*
G01*
X169999014Y-97587142D02*
G75*
G03*
X170193014Y-96607142I97000J490000D01*
G01*
X156932014Y-80527142D02*
X158599014Y-78033142D01*
X142068014Y-105473142D02*
X140401014Y-107967142D01*
X167105013Y-89243142D02*
G75*
G03*
X166517014Y-88851142I-489999J-97999D01*
G01*
X150000014Y-73006142D02*
X150000014Y-72000142D01*
X163634014Y-103346142D02*
G75*
G03*
X164328014Y-103208142I278000J416000D01*
G01*
X159846014Y-78866142D02*
G75*
G03*
X159708014Y-78172142I-416000J278000D01*
G01*
X166034014Y-85881142D02*
X166226014Y-86343142D01*
X141514014Y-104502142D02*
X141930014Y-104779142D01*
X144644014Y-106683142D02*
X143496014Y-109455142D01*
X132000014Y-92250142D02*
G75*
G03*
X131500014Y-92750142I1J-500001D01*
G01*
X137027014Y-85568142D02*
G75*
G03*
X137721014Y-85430142I278000J416000D01*
G01*
X140401014Y-78033142D02*
G75*
G03*
X139708014Y-77894142I-416000J-277000D01*
G01*
X163284014Y-78509142D02*
X163996014Y-77797142D01*
X142843014Y-109726142D02*
X142381014Y-109534142D01*
X162339014Y-98589142D02*
G75*
G03*
X162610022Y-99242145I462000J-191000D01*
G01*
X161002014Y-100986142D02*
X161279014Y-100570142D01*
X146524014Y-106682142D02*
G75*
G03*
X145935012Y-107075151I-98001J-490998D01*
G01*
X148750014Y-78500142D02*
X148750014Y-75500142D01*
X166226015Y-99657142D02*
G75*
G03*
X165955014Y-99004142I-462000J191000D01*
G01*
X146090014Y-112707142D02*
X145893014Y-113694142D01*
X142110013Y-108881142D02*
G75*
G03*
X142381014Y-109534142I462000J-191000D01*
G01*
X152766014Y-75297142D02*
X153257014Y-75395142D01*
X131220014Y-101113142D02*
G75*
G03*
X132598488Y-103692082I18280063J8113035D01*
G01*
X143496014Y-76545142D02*
X144644014Y-79317142D01*
X164000014Y-92250142D02*
G75*
G03*
X163500014Y-92750142I1J-500001D01*
G01*
X131797014Y-89734142D02*
G75*
G03*
X132190014Y-90321142I489999J-97001D01*
G01*
X137976014Y-76654142D02*
G75*
G03*
X135715560Y-78509348I11524066J-16346078D01*
G01*
X131500014Y-93250142D02*
X131500014Y-92750142D01*
X153257014Y-110605141D02*
G75*
G03*
X153649014Y-110017142I-97999J489999D01*
G01*
X137998014Y-85014142D02*
G75*
G03*
X137861007Y-84321137I-415001J278000D01*
G01*
X136470014Y-98127142D02*
X136661014Y-98589142D01*
X142311014Y-111663142D02*
X141926014Y-112593142D01*
X154356014Y-79317142D02*
X155504014Y-76545142D01*
X156689014Y-74337142D02*
X157074014Y-73407142D01*
X167000014Y-93750142D02*
X164000014Y-93750142D01*
X137417014Y-110183142D02*
G75*
G03*
X138249014Y-110739142I416000J-278000D01*
G01*
X135366014Y-82654142D02*
G75*
G03*
X134672014Y-82792142I-278000J-416000D01*
G01*
X132483014Y-88850142D02*
G75*
G03*
X131894014Y-89243142I-98000J-491000D01*
G01*
X129793014Y-89590142D02*
X128806014Y-89393142D01*
X139777014Y-103783142D02*
G75*
G03*
X139777014Y-103077142I-353001J353000D01*
G01*
X167239014Y-81749142D02*
G75*
G03*
X166683014Y-80917142I-278000J416000D01*
G01*
X161344014Y-105905142D02*
X159223014Y-103783142D01*
X147014014Y-79220142D02*
X146524014Y-79318142D01*
X169012014Y-88609142D02*
X169999014Y-88413142D01*
X153064013Y-107075142D02*
G75*
G03*
X152476014Y-106683142I-489999J-97999D01*
G01*
X164328014Y-82792142D02*
X164605014Y-83208142D01*
X145109014Y-73488142D02*
X144913014Y-72501142D01*
X129506014Y-92500142D02*
X128500014Y-92500142D01*
X155089014Y-80161142D02*
G75*
G03*
X155742017Y-79890134I191000J462000D01*
G01*
X156890015Y-77119142D02*
G75*
G03*
X156619014Y-76466142I-462000J191000D01*
G01*
X135425014Y-96564142D02*
X132483014Y-97150142D01*
X134672014Y-103208142D02*
G75*
G03*
X135366014Y-103346142I416000J278000D01*
G01*
X164605014Y-102792142D02*
G75*
G03*
X164467014Y-102100142I-414999J277000D01*
G01*
X135132014Y-90907142D02*
G75*
G03*
X135721014Y-90514142I98000J491000D01*
G01*
X155742014Y-106109142D02*
G75*
G03*
X155088014Y-105839142I-462000J-191999D01*
G01*
X160192014Y-109902142D02*
X160751014Y-110739142D01*
X137998014Y-85014142D02*
X137721014Y-85430142D01*
X147014014Y-79220143D02*
G75*
G03*
X147406012Y-78632133I-98001J490001D01*
G01*
X152910014Y-112707142D02*
X153107014Y-113694142D01*
X139292014Y-78172142D02*
G75*
G03*
X139154014Y-78866142I278000J-416000D01*
G01*
X166402014Y-103692142D02*
G75*
G03*
X167780491Y-101113133I-16901920J10691956D01*
G01*
X139154014Y-107134142D02*
G75*
G03*
X139292014Y-107828142I416000J-278000D01*
G01*
X157486014Y-81498142D02*
X157070014Y-81221142D01*
X162609014Y-86758142D02*
G75*
G03*
X162339014Y-87412142I191999J-462000D01*
G01*
X134672014Y-103208142D02*
X134395014Y-102792142D01*
X135500014Y-92750142D02*
X135500014Y-93250142D01*
X137027014Y-85568142D02*
X134533014Y-83901142D01*
X136595014Y-80449142D02*
G75*
G03*
X136596014Y-81156142I354002J-353000D01*
G01*
X168163014Y-100189142D02*
G75*
G03*
X169011846Y-97390782I-18662944J7188986D01*
G01*
X153107014Y-113694142D02*
G75*
G03*
X154087014Y-113498142I490000J98000D01*
G01*
X135818014Y-90024142D02*
G75*
G03*
X135425005Y-89435140I-490998J98001D01*
G01*
X130837014Y-85811142D02*
G75*
G03*
X129988182Y-88609502I18662944J-7188986D01*
G01*
X145109014Y-112512142D02*
X144913014Y-113499142D01*
X163991014Y-79216142D02*
X164703014Y-78504142D01*
X141926014Y-73407142D02*
G75*
G03*
X141002014Y-73791142I-462000J-192000D01*
G01*
X139154014Y-107134142D02*
X140821014Y-104640142D01*
X149750014Y-79000142D02*
X149250014Y-79000142D01*
X149000014Y-112994142D02*
X149000014Y-114000142D01*
X170194014Y-89393142D02*
G75*
G03*
X169998014Y-88413142I-98000J490000D01*
G01*
X138717014Y-83277142D02*
G75*
G03*
X139423014Y-83277142I353000J353001D01*
G01*
X159708014Y-107828142D02*
G75*
G03*
X159846014Y-107134142I-278000J416000D01*
G01*
X161279014Y-85430142D02*
X161002014Y-85014142D01*
X134395014Y-83208142D02*
G75*
G03*
X134533014Y-83900142I414999J-277000D01*
G01*
X140821014Y-81360142D02*
X139154014Y-78866142D01*
X150250014Y-75500142D02*
X150250014Y-78500142D01*
X136391014Y-99242142D02*
G75*
G03*
X136661014Y-98588142I-191999J462000D01*
G01*
X169012014Y-88609142D02*
G75*
G03*
X168163128Y-85810761I-19512129J-4391039D01*
G01*
X146524014Y-106682142D02*
X147014014Y-106780142D01*
X129988014Y-97391142D02*
X129001014Y-97587142D01*
X145109014Y-73488142D02*
G75*
G03*
X142310633Y-74337028I4391039J-19512129D01*
G01*
X149750014Y-79000142D02*
G75*
G03*
X150250014Y-78500133I0J500000D01*
G01*
X152766014Y-75297142D02*
G75*
G03*
X152179014Y-75690142I-97001J-489999D01*
G01*
X140401014Y-78033142D02*
X142068014Y-80527142D01*
X169494014Y-93500142D02*
X170500014Y-93500142D01*
X147407014Y-107368142D02*
X146822014Y-110310142D01*
X159846014Y-78866142D02*
X158179014Y-81360142D01*
X142068014Y-105473142D02*
G75*
G03*
X141930014Y-104779142I-416000J278000D01*
G01*
X138808014Y-76098142D02*
X138249014Y-75261142D01*
X130837014Y-100189142D02*
X129907014Y-100574142D01*
X137656014Y-80095142D02*
X139777014Y-82217142D01*
X149250014Y-107000142D02*
X149750014Y-107000142D01*
X162530014Y-87873142D02*
X162339014Y-87411142D01*
X149750014Y-111000142D02*
X149250014Y-111000142D01*
X152178014Y-110310142D02*
G75*
G03*
X152766014Y-110704142I491000J97000D01*
G01*
X168710014Y-101498142D02*
G75*
G03*
X169092014Y-100574142I191000J462000D01*
G01*
X135000014Y-93750142D02*
G75*
G03*
X135500014Y-93250142I-1J500001D01*
G01*
M02*
