G04 #@! TF.GenerationSoftware,KiCad,Pcbnew,(6.0.1-0)*
G04 #@! TF.CreationDate,2022-08-23T12:06:24-04:00*
G04 #@! TF.ProjectId,indexingWheel,696e6465-7869-46e6-9757-6865656c2e6b,rev?*
G04 #@! TF.SameCoordinates,Original*
G04 #@! TF.FileFunction,Copper,L1,Top*
G04 #@! TF.FilePolarity,Positive*
%FSLAX46Y46*%
G04 Gerber Fmt 4.6, Leading zero omitted, Abs format (unit mm)*
G04 Created by KiCad (PCBNEW (6.0.1-0)) date 2022-08-23 12:06:24*
%MOMM*%
%LPD*%
G01*
G04 APERTURE LIST*
G04 #@! TA.AperFunction,ViaPad*
%ADD10C,0.800000*%
G04 #@! TD*
G04 APERTURE END LIST*
D10*
X146800000Y-93000142D03*
X152200000Y-93000142D03*
G04 #@! TA.AperFunction,NonConductor*
G36*
X149558248Y-71557808D02*
G01*
X149600037Y-71563310D01*
X149631810Y-71571824D01*
X149709686Y-71604082D01*
X149738171Y-71620528D01*
X149805051Y-71671847D01*
X149828309Y-71695105D01*
X149879628Y-71761985D01*
X149896074Y-71790470D01*
X149928332Y-71868346D01*
X149936846Y-71900119D01*
X149948149Y-71985972D01*
X149948606Y-71989447D01*
X149948654Y-71993477D01*
X149945894Y-72000142D01*
X149948818Y-72007201D01*
X149948963Y-72019357D01*
X149948775Y-72021110D01*
X149950014Y-72029730D01*
X149950014Y-72995480D01*
X149947463Y-72995480D01*
X149948105Y-72999781D01*
X149945706Y-73005187D01*
X149949534Y-73015124D01*
X149949534Y-73015125D01*
X149950955Y-73018813D01*
X149960596Y-73043840D01*
X149961714Y-73044336D01*
X149961745Y-73044411D01*
X149963810Y-73045266D01*
X149998457Y-73060642D01*
X149999739Y-73060148D01*
X150000014Y-73060262D01*
X150007604Y-73057118D01*
X150008077Y-73056936D01*
X150009914Y-73057016D01*
X150022651Y-73058708D01*
X150029566Y-73057867D01*
X150725435Y-73088007D01*
X150730036Y-73088291D01*
X151168795Y-73123410D01*
X151452947Y-73146154D01*
X151457512Y-73146603D01*
X151771313Y-73183314D01*
X152177899Y-73230880D01*
X152182466Y-73231500D01*
X152891411Y-73340855D01*
X152890936Y-73343936D01*
X152896127Y-73344011D01*
X152899421Y-73346215D01*
X152900153Y-73346070D01*
X152900786Y-73346470D01*
X152918817Y-73342412D01*
X152921955Y-73341748D01*
X152923253Y-73341491D01*
X152923254Y-73341490D01*
X152940052Y-73338161D01*
X152940467Y-73337540D01*
X152941198Y-73337376D01*
X152948718Y-73325488D01*
X152951082Y-73321752D01*
X152952847Y-73319039D01*
X152953583Y-73317939D01*
X152953583Y-73317938D01*
X152957100Y-73312683D01*
X152957230Y-73312032D01*
X152963342Y-73302370D01*
X152961125Y-73292518D01*
X152961759Y-73289340D01*
X152964970Y-73278109D01*
X152965223Y-73271986D01*
X152971207Y-73242008D01*
X153153823Y-72327071D01*
X153155439Y-72327394D01*
X153155543Y-72324492D01*
X153160104Y-72317652D01*
X153158503Y-72309642D01*
X153158889Y-72308503D01*
X153158891Y-72308499D01*
X153188364Y-72221410D01*
X153202884Y-72191897D01*
X153217605Y-72169822D01*
X153249583Y-72121868D01*
X153271242Y-72097125D01*
X153334476Y-72041568D01*
X153361807Y-72023270D01*
X153437264Y-71985972D01*
X153468397Y-71975372D01*
X153550939Y-71958875D01*
X153583750Y-71956693D01*
X153667752Y-71962121D01*
X153700017Y-71968509D01*
X153779746Y-71995492D01*
X153809259Y-72010012D01*
X153809622Y-72010254D01*
X153879288Y-72056711D01*
X153904031Y-72078370D01*
X153944580Y-72124522D01*
X153959588Y-72141604D01*
X153977886Y-72168935D01*
X154015184Y-72244392D01*
X154025785Y-72275528D01*
X154042281Y-72358063D01*
X154044463Y-72390882D01*
X154038661Y-72480665D01*
X154037924Y-72484633D01*
X154033924Y-72490632D01*
X154035421Y-72498120D01*
X154033200Y-72510082D01*
X154032658Y-72511817D01*
X154032200Y-72520466D01*
X153854974Y-73412928D01*
X153844132Y-73467523D01*
X153841540Y-73467008D01*
X153841324Y-73471507D01*
X153837854Y-73476429D01*
X153844917Y-73517244D01*
X153845978Y-73517992D01*
X153846024Y-73518224D01*
X153851384Y-73521803D01*
X153853622Y-73523380D01*
X153853622Y-73523381D01*
X153864084Y-73530756D01*
X153864085Y-73530756D01*
X153878773Y-73541110D01*
X153879986Y-73540900D01*
X153880473Y-73541225D01*
X153889355Y-73539456D01*
X153890716Y-73539789D01*
X153903274Y-73544068D01*
X153910431Y-73544606D01*
X154179680Y-73610390D01*
X154586460Y-73709777D01*
X154590860Y-73710938D01*
X155288645Y-73908734D01*
X155293041Y-73910067D01*
X155983122Y-74133254D01*
X155987455Y-74134745D01*
X156591487Y-74354816D01*
X156661482Y-74380318D01*
X156660425Y-74383220D01*
X156665459Y-74384294D01*
X156668313Y-74387147D01*
X156669036Y-74387147D01*
X156669560Y-74387645D01*
X156682800Y-74387314D01*
X156688085Y-74387182D01*
X156691207Y-74387143D01*
X156692601Y-74387143D01*
X156692603Y-74387142D01*
X156709735Y-74387139D01*
X156710247Y-74386627D01*
X156710969Y-74386609D01*
X156723058Y-74373900D01*
X156723744Y-74373179D01*
X156725918Y-74370949D01*
X156726910Y-74369956D01*
X156731407Y-74365457D01*
X156731652Y-74364864D01*
X156739517Y-74356596D01*
X156739264Y-74346478D01*
X156740439Y-74343640D01*
X156745792Y-74333226D01*
X156747255Y-74327177D01*
X157115705Y-73437155D01*
X157117370Y-73437844D01*
X157118098Y-73434758D01*
X157124028Y-73428819D01*
X157124023Y-73420652D01*
X157124588Y-73419672D01*
X157124589Y-73419671D01*
X157170596Y-73339859D01*
X157190602Y-73313750D01*
X157250156Y-73254115D01*
X157276232Y-73234077D01*
X157349194Y-73191887D01*
X157379572Y-73179280D01*
X157460968Y-73157411D01*
X157493574Y-73153096D01*
X157535615Y-73153067D01*
X157577850Y-73153038D01*
X157610465Y-73157310D01*
X157691887Y-73179069D01*
X157722284Y-73191636D01*
X157795297Y-73233725D01*
X157821404Y-73253729D01*
X157881040Y-73313283D01*
X157901079Y-73339360D01*
X157943269Y-73412322D01*
X157955876Y-73442700D01*
X157977745Y-73524096D01*
X157982060Y-73556702D01*
X157982118Y-73640976D01*
X157977846Y-73673593D01*
X157954589Y-73760622D01*
X157953094Y-73764364D01*
X157948000Y-73769465D01*
X157948005Y-73777101D01*
X157943490Y-73788401D01*
X157942626Y-73789985D01*
X157940486Y-73798386D01*
X157571203Y-74690420D01*
X157568845Y-74689444D01*
X157567794Y-74693663D01*
X157563538Y-74697711D01*
X157563239Y-74709657D01*
X157562680Y-74709643D01*
X157562605Y-74710201D01*
X157563011Y-74710201D01*
X157563011Y-74710208D01*
X157563013Y-74716547D01*
X157563013Y-74717092D01*
X157562973Y-74720285D01*
X157562920Y-74722415D01*
X157562502Y-74739120D01*
X157563017Y-74739661D01*
X157563017Y-74740863D01*
X157586279Y-74764116D01*
X157591051Y-74769132D01*
X157591304Y-74769138D01*
X157592313Y-74770147D01*
X157602935Y-74770145D01*
X157604849Y-74771221D01*
X157615566Y-74777424D01*
X157623109Y-74779524D01*
X158252221Y-75072617D01*
X158256363Y-75074640D01*
X158902088Y-75404738D01*
X158906154Y-75406910D01*
X159539452Y-75760450D01*
X159543435Y-75762771D01*
X160156587Y-76135117D01*
X160154988Y-76137750D01*
X160159706Y-76139782D01*
X160161956Y-76143148D01*
X160162665Y-76143289D01*
X160163081Y-76143879D01*
X160181336Y-76147038D01*
X160184388Y-76147606D01*
X160185815Y-76147889D01*
X160185816Y-76147889D01*
X160202584Y-76151220D01*
X160203184Y-76150819D01*
X160203897Y-76150942D01*
X160219039Y-76140267D01*
X160221613Y-76138500D01*
X160222784Y-76137717D01*
X160222785Y-76137715D01*
X160228069Y-76134183D01*
X160228425Y-76133650D01*
X160237751Y-76127075D01*
X160239477Y-76117102D01*
X160241194Y-76114531D01*
X160248465Y-76105374D01*
X160251078Y-76099731D01*
X160299138Y-76027771D01*
X160787065Y-75297189D01*
X160788363Y-75298056D01*
X160789503Y-75295560D01*
X160796011Y-75291212D01*
X160797605Y-75283202D01*
X160798395Y-75282301D01*
X160798397Y-75282300D01*
X160859171Y-75213010D01*
X160883901Y-75191325D01*
X160954064Y-75144449D01*
X160983567Y-75129902D01*
X161063478Y-75102782D01*
X161095738Y-75096367D01*
X161108440Y-75095535D01*
X161179946Y-75090853D01*
X161212763Y-75093006D01*
X161295534Y-75109475D01*
X161326667Y-75120045D01*
X161402361Y-75157379D01*
X161429700Y-75175650D01*
X161468573Y-75209745D01*
X161493144Y-75231296D01*
X161514829Y-75256026D01*
X161531393Y-75280818D01*
X161553248Y-75313530D01*
X161561707Y-75326192D01*
X161576254Y-75355695D01*
X161603374Y-75435606D01*
X161609789Y-75467866D01*
X161615303Y-75552074D01*
X161613149Y-75584896D01*
X161596682Y-75667655D01*
X161586109Y-75698800D01*
X161546211Y-75779691D01*
X161544013Y-75783066D01*
X161538017Y-75787072D01*
X161536526Y-75794563D01*
X161529886Y-75804759D01*
X161528786Y-75806075D01*
X161525016Y-75813955D01*
X160988834Y-76616790D01*
X160986550Y-76615265D01*
X160984552Y-76619499D01*
X160979301Y-76622821D01*
X160976962Y-76633213D01*
X160974586Y-76643772D01*
X160970206Y-76663232D01*
X160970985Y-76664464D01*
X160970936Y-76664712D01*
X160974781Y-76670464D01*
X160992351Y-76698237D01*
X160993523Y-76698501D01*
X160993956Y-76699148D01*
X161003022Y-76700949D01*
X161003896Y-76701589D01*
X161014052Y-76710517D01*
X161020581Y-76713815D01*
X161581590Y-77124875D01*
X161585258Y-77127667D01*
X162154196Y-77577422D01*
X162157754Y-77580342D01*
X162709887Y-78050631D01*
X162713306Y-78053653D01*
X163225462Y-78523279D01*
X163242049Y-78538489D01*
X163239958Y-78540769D01*
X163244204Y-78543692D01*
X163245745Y-78547411D01*
X163246419Y-78547690D01*
X163246714Y-78548355D01*
X163262825Y-78554562D01*
X163263957Y-78554998D01*
X163266874Y-78556164D01*
X163284014Y-78563263D01*
X163284687Y-78562984D01*
X163285367Y-78563246D01*
X163294382Y-78559245D01*
X163294384Y-78559245D01*
X163302311Y-78555727D01*
X163305194Y-78554490D01*
X163306468Y-78553962D01*
X163312336Y-78551531D01*
X163312795Y-78551072D01*
X163323227Y-78546442D01*
X163326863Y-78537004D01*
X163329075Y-78534792D01*
X163337993Y-78527230D01*
X163341644Y-78522223D01*
X164023363Y-77840504D01*
X164024424Y-77841565D01*
X164025968Y-77839421D01*
X164033337Y-77836356D01*
X164036452Y-77828806D01*
X164110355Y-77771932D01*
X164138814Y-77755447D01*
X164216633Y-77723084D01*
X164248391Y-77714527D01*
X164331934Y-77703407D01*
X164364827Y-77703360D01*
X164448401Y-77714243D01*
X164480182Y-77722711D01*
X164558091Y-77754853D01*
X164586600Y-77771259D01*
X164653533Y-77822468D01*
X164676821Y-77845689D01*
X164728228Y-77912488D01*
X164744709Y-77940942D01*
X164763397Y-77985879D01*
X164777072Y-78018762D01*
X164785629Y-78050519D01*
X164796749Y-78134062D01*
X164796796Y-78166955D01*
X164785913Y-78250528D01*
X164777445Y-78282310D01*
X164745303Y-78360219D01*
X164728897Y-78388728D01*
X164674163Y-78460268D01*
X164671347Y-78463160D01*
X164664691Y-78465928D01*
X164661779Y-78472986D01*
X164653291Y-78481704D01*
X164651801Y-78482908D01*
X164646663Y-78489782D01*
X163964019Y-79172426D01*
X163962087Y-79170494D01*
X163959315Y-79174238D01*
X163953507Y-79176476D01*
X163936704Y-79214336D01*
X163937156Y-79215508D01*
X163936893Y-79216142D01*
X163943544Y-79232198D01*
X163944697Y-79235083D01*
X163945112Y-79236159D01*
X163951596Y-79252989D01*
X163952282Y-79253294D01*
X163952745Y-79254411D01*
X163962007Y-79258248D01*
X163962261Y-79258525D01*
X163970851Y-79269746D01*
X163976875Y-79274462D01*
X164446300Y-79786375D01*
X164449353Y-79789829D01*
X164919654Y-80341949D01*
X164922550Y-80345478D01*
X165363677Y-80903474D01*
X165372336Y-80914427D01*
X165375124Y-80918090D01*
X165743293Y-81420537D01*
X165799127Y-81496734D01*
X165796627Y-81498566D01*
X165800227Y-81502269D01*
X165801008Y-81506200D01*
X165801620Y-81506609D01*
X165801781Y-81507326D01*
X165817493Y-81517265D01*
X165820023Y-81518912D01*
X165835444Y-81529220D01*
X165836165Y-81529077D01*
X165836787Y-81529470D01*
X165846404Y-81527306D01*
X165846405Y-81527306D01*
X165854846Y-81525406D01*
X165857949Y-81524749D01*
X165859290Y-81524483D01*
X165859291Y-81524482D01*
X165865512Y-81523246D01*
X165866056Y-81522883D01*
X165877198Y-81520375D01*
X165882602Y-81511832D01*
X165885244Y-81510067D01*
X165895458Y-81504394D01*
X165899994Y-81500217D01*
X166702518Y-80964242D01*
X166703377Y-80965529D01*
X166705371Y-80963674D01*
X166713084Y-80962139D01*
X166717621Y-80955348D01*
X166801356Y-80914047D01*
X166832501Y-80903474D01*
X166915260Y-80887007D01*
X166948082Y-80884853D01*
X167019588Y-80889535D01*
X167032290Y-80890367D01*
X167064550Y-80896782D01*
X167144461Y-80923902D01*
X167173962Y-80938448D01*
X167200569Y-80956224D01*
X167244130Y-80985327D01*
X167268860Y-81007012D01*
X167324505Y-81070454D01*
X167342777Y-81097795D01*
X167380111Y-81173489D01*
X167390681Y-81204622D01*
X167407150Y-81287393D01*
X167409303Y-81320210D01*
X167403789Y-81404418D01*
X167397374Y-81436678D01*
X167370254Y-81516589D01*
X167355708Y-81546090D01*
X167332269Y-81581173D01*
X167308831Y-81616255D01*
X167287146Y-81640985D01*
X167219338Y-81700459D01*
X167216014Y-81702738D01*
X167208944Y-81704145D01*
X167204702Y-81710494D01*
X167194665Y-81717376D01*
X167193086Y-81718202D01*
X167186625Y-81724005D01*
X166534232Y-82159713D01*
X166383099Y-82260649D01*
X166381685Y-82258532D01*
X166378469Y-82261450D01*
X166372607Y-82262465D01*
X166348740Y-82296320D01*
X166348952Y-82297547D01*
X166348936Y-82297572D01*
X166349096Y-82298378D01*
X166355803Y-82337135D01*
X166356958Y-82337949D01*
X166357008Y-82338200D01*
X166362901Y-82342139D01*
X166364228Y-82343075D01*
X166365188Y-82344656D01*
X166370835Y-82356142D01*
X166375355Y-82361398D01*
X166736922Y-82956787D01*
X166739242Y-82960770D01*
X167092758Y-83594008D01*
X167094931Y-83598074D01*
X167425039Y-84243803D01*
X167427057Y-84247935D01*
X167568775Y-84552118D01*
X167730011Y-84898193D01*
X167727198Y-84899504D01*
X167730010Y-84903842D01*
X167730009Y-84907843D01*
X167730529Y-84908363D01*
X167730547Y-84909096D01*
X167743951Y-84921847D01*
X167746185Y-84924026D01*
X167759293Y-84937139D01*
X167760027Y-84937139D01*
X167760559Y-84937645D01*
X167770414Y-84937398D01*
X167770415Y-84937399D01*
X167779042Y-84937183D01*
X167782203Y-84937143D01*
X167789948Y-84937145D01*
X167790553Y-84936895D01*
X167801968Y-84936609D01*
X167808935Y-84929285D01*
X167811880Y-84928066D01*
X167822993Y-84924498D01*
X167828258Y-84921286D01*
X168719984Y-84552130D01*
X168720451Y-84553259D01*
X168722281Y-84552127D01*
X168729783Y-84552118D01*
X168735552Y-84546336D01*
X168797657Y-84529617D01*
X168825695Y-84522069D01*
X168858301Y-84517737D01*
X168900194Y-84517688D01*
X168942682Y-84517638D01*
X168975293Y-84521892D01*
X169034936Y-84537799D01*
X169056826Y-84543637D01*
X169087228Y-84556189D01*
X169160352Y-84598293D01*
X169186468Y-84618284D01*
X169246207Y-84677883D01*
X169266254Y-84703946D01*
X169301764Y-84765285D01*
X169308532Y-84776976D01*
X169321154Y-84807350D01*
X169343087Y-84888824D01*
X169347419Y-84921429D01*
X169347518Y-85005807D01*
X169343264Y-85038421D01*
X169331968Y-85080775D01*
X169321519Y-85119954D01*
X169308967Y-85150356D01*
X169266863Y-85223480D01*
X169246872Y-85249596D01*
X169187274Y-85309334D01*
X169161209Y-85329383D01*
X169112795Y-85357410D01*
X169083154Y-85374569D01*
X169079457Y-85376157D01*
X169072245Y-85376166D01*
X169066849Y-85381574D01*
X169055675Y-85386375D01*
X169053838Y-85386917D01*
X169046459Y-85391300D01*
X168154551Y-85760531D01*
X168153550Y-85758112D01*
X168149723Y-85760410D01*
X168143674Y-85760259D01*
X168134786Y-85768713D01*
X168134377Y-85768283D01*
X168133417Y-85769018D01*
X168132946Y-85768402D01*
X168132581Y-85768499D01*
X168133735Y-85769712D01*
X168113660Y-85788807D01*
X168113635Y-85789803D01*
X168113017Y-85790421D01*
X168113015Y-85800108D01*
X168113012Y-85813180D01*
X168113005Y-85813715D01*
X168113012Y-85813740D01*
X168113012Y-85814745D01*
X168112626Y-85830215D01*
X168113009Y-85830618D01*
X168113009Y-85831843D01*
X168120235Y-85839072D01*
X168120368Y-85839438D01*
X168124016Y-85853114D01*
X168127783Y-85859789D01*
X168286994Y-86296753D01*
X168365547Y-86512346D01*
X168367045Y-86516706D01*
X168590228Y-87206739D01*
X168591566Y-87211150D01*
X168789364Y-87908897D01*
X168790540Y-87913354D01*
X168960815Y-88610225D01*
X168957805Y-88610961D01*
X168959713Y-88615759D01*
X168958931Y-88619683D01*
X168959340Y-88620296D01*
X168959214Y-88621024D01*
X168964894Y-88629081D01*
X168964894Y-88629082D01*
X168969876Y-88636150D01*
X168971677Y-88638774D01*
X168981932Y-88654132D01*
X168982656Y-88654276D01*
X168983081Y-88654879D01*
X169001277Y-88658028D01*
X169004378Y-88658604D01*
X169011996Y-88660122D01*
X169012640Y-88659994D01*
X169023896Y-88661942D01*
X169032157Y-88656118D01*
X169035274Y-88655499D01*
X169046885Y-88654167D01*
X169052675Y-88652044D01*
X169998533Y-88464214D01*
X169998798Y-88465549D01*
X170001044Y-88464711D01*
X170008628Y-88466211D01*
X170015415Y-88461666D01*
X170108409Y-88455473D01*
X170141233Y-88457591D01*
X170157192Y-88460748D01*
X170223848Y-88473935D01*
X170255005Y-88484475D01*
X170330578Y-88521645D01*
X170357946Y-88539890D01*
X170421323Y-88595353D01*
X170443037Y-88620061D01*
X170489902Y-88690041D01*
X170504481Y-88719526D01*
X170531635Y-88799245D01*
X170538085Y-88831498D01*
X170543682Y-88915536D01*
X170541565Y-88948362D01*
X170525221Y-89030976D01*
X170514681Y-89062133D01*
X170477511Y-89137706D01*
X170459266Y-89165074D01*
X170403803Y-89228451D01*
X170379095Y-89250165D01*
X170309115Y-89297030D01*
X170279632Y-89311608D01*
X170194418Y-89340634D01*
X170190474Y-89341472D01*
X170183400Y-89340073D01*
X170177055Y-89344322D01*
X170165158Y-89346849D01*
X170163367Y-89347011D01*
X170155184Y-89349906D01*
X169470200Y-89486625D01*
X169208444Y-89538870D01*
X169207944Y-89536363D01*
X169203844Y-89537835D01*
X169198149Y-89536554D01*
X169188054Y-89542940D01*
X169187756Y-89542469D01*
X169187250Y-89542717D01*
X169187476Y-89543054D01*
X169187473Y-89543056D01*
X169183489Y-89545722D01*
X169181939Y-89546759D01*
X169179261Y-89548502D01*
X169163143Y-89558698D01*
X169162974Y-89559449D01*
X169161995Y-89560104D01*
X169160043Y-89569954D01*
X169160042Y-89569955D01*
X169157779Y-89581372D01*
X169155842Y-89591147D01*
X169154050Y-89599109D01*
X169154212Y-89599366D01*
X169153941Y-89600735D01*
X169159824Y-89609528D01*
X169159828Y-89609555D01*
X169159874Y-89610148D01*
X169160769Y-89624066D01*
X169163212Y-89631491D01*
X169269033Y-90317474D01*
X169269652Y-90322041D01*
X169345360Y-90969122D01*
X169353930Y-91042374D01*
X169354381Y-91046947D01*
X169378247Y-91345082D01*
X169412254Y-91769902D01*
X169412538Y-91774502D01*
X169443589Y-92491222D01*
X169440501Y-92491356D01*
X169441435Y-92496422D01*
X169439894Y-92500142D01*
X169440173Y-92500815D01*
X169439911Y-92501495D01*
X169447351Y-92518258D01*
X169447415Y-92518403D01*
X169448642Y-92521262D01*
X169455745Y-92538411D01*
X169456418Y-92538690D01*
X169456714Y-92539356D01*
X169474024Y-92546024D01*
X169476890Y-92547170D01*
X169478197Y-92547711D01*
X169484067Y-92550142D01*
X169484715Y-92550142D01*
X169495367Y-92554245D01*
X169504612Y-92550142D01*
X169507749Y-92550142D01*
X169519396Y-92551100D01*
X169525514Y-92550142D01*
X170490067Y-92550142D01*
X170490067Y-92551688D01*
X170492750Y-92551253D01*
X170500014Y-92554262D01*
X170507562Y-92551136D01*
X170590090Y-92562000D01*
X170600037Y-92563310D01*
X170631810Y-92571824D01*
X170709686Y-92604082D01*
X170738171Y-92620528D01*
X170805051Y-92671847D01*
X170828309Y-92695105D01*
X170879628Y-92761985D01*
X170896074Y-92790470D01*
X170928332Y-92868346D01*
X170936846Y-92900119D01*
X170947849Y-92983696D01*
X170947849Y-93016588D01*
X170936846Y-93100165D01*
X170928332Y-93131938D01*
X170896074Y-93209814D01*
X170879628Y-93238299D01*
X170828309Y-93305179D01*
X170805051Y-93328437D01*
X170738171Y-93379756D01*
X170709686Y-93396202D01*
X170631810Y-93428460D01*
X170600037Y-93436974D01*
X170510707Y-93448734D01*
X170506679Y-93448782D01*
X170500014Y-93446022D01*
X170492955Y-93448946D01*
X170480799Y-93449091D01*
X170479046Y-93448903D01*
X170470426Y-93450142D01*
X169504676Y-93450142D01*
X169504676Y-93447591D01*
X169500375Y-93448233D01*
X169494969Y-93445834D01*
X169485032Y-93449662D01*
X169485031Y-93449662D01*
X169482472Y-93450648D01*
X169456316Y-93460724D01*
X169455820Y-93461842D01*
X169455745Y-93461873D01*
X169454890Y-93463938D01*
X169439514Y-93498585D01*
X169440008Y-93499867D01*
X169439894Y-93500142D01*
X169443038Y-93507732D01*
X169443220Y-93508205D01*
X169443140Y-93510042D01*
X169441448Y-93522779D01*
X169442289Y-93529694D01*
X169412149Y-94225563D01*
X169411865Y-94230164D01*
X169354003Y-94953063D01*
X169353553Y-94957640D01*
X169329749Y-95161115D01*
X169269276Y-95678027D01*
X169268656Y-95682594D01*
X169175590Y-96285936D01*
X169159301Y-96391539D01*
X169156220Y-96391064D01*
X169156145Y-96396255D01*
X169153941Y-96399549D01*
X169154086Y-96400281D01*
X169153686Y-96400914D01*
X169157737Y-96418912D01*
X169158408Y-96422083D01*
X169161995Y-96440180D01*
X169162616Y-96440595D01*
X169162780Y-96441326D01*
X169171100Y-96446589D01*
X169178404Y-96451210D01*
X169181117Y-96452975D01*
X169182217Y-96453711D01*
X169182218Y-96453711D01*
X169187473Y-96457228D01*
X169188124Y-96457358D01*
X169197786Y-96463470D01*
X169207638Y-96461253D01*
X169210816Y-96461887D01*
X169222047Y-96465098D01*
X169228170Y-96465351D01*
X169682606Y-96556054D01*
X170173085Y-96653951D01*
X170172762Y-96655567D01*
X170175664Y-96655671D01*
X170182504Y-96660232D01*
X170190514Y-96658631D01*
X170191653Y-96659017D01*
X170191657Y-96659019D01*
X170278746Y-96688492D01*
X170308259Y-96703012D01*
X170378288Y-96749711D01*
X170403031Y-96771370D01*
X170419001Y-96789547D01*
X170458588Y-96834604D01*
X170476886Y-96861935D01*
X170514184Y-96937392D01*
X170524784Y-96968525D01*
X170541281Y-97051067D01*
X170543463Y-97083878D01*
X170538920Y-97154176D01*
X170538035Y-97167878D01*
X170531647Y-97200145D01*
X170504664Y-97279874D01*
X170490144Y-97309387D01*
X170443445Y-97379416D01*
X170421786Y-97404159D01*
X170369485Y-97450110D01*
X170358552Y-97459716D01*
X170331221Y-97478014D01*
X170255764Y-97515312D01*
X170224628Y-97525913D01*
X170142090Y-97542409D01*
X170109278Y-97544591D01*
X170019490Y-97538789D01*
X170015523Y-97538052D01*
X170009524Y-97534052D01*
X170002036Y-97535549D01*
X169990074Y-97533328D01*
X169988339Y-97532786D01*
X169979690Y-97532328D01*
X169032633Y-97344260D01*
X169033148Y-97341668D01*
X169028649Y-97341452D01*
X169023727Y-97337982D01*
X169007096Y-97340860D01*
X169000761Y-97341956D01*
X169000760Y-97341956D01*
X168982912Y-97345045D01*
X168982164Y-97346106D01*
X168981932Y-97346152D01*
X168978353Y-97351512D01*
X168976776Y-97353749D01*
X168970359Y-97362853D01*
X168959046Y-97378901D01*
X168959256Y-97380114D01*
X168958931Y-97380601D01*
X168960700Y-97389483D01*
X168960367Y-97390844D01*
X168956088Y-97403402D01*
X168955550Y-97410559D01*
X168867216Y-97772103D01*
X168790389Y-98086551D01*
X168790385Y-98086566D01*
X168789218Y-98090988D01*
X168620345Y-98686740D01*
X168591427Y-98788758D01*
X168590089Y-98793169D01*
X168382592Y-99434738D01*
X168366906Y-99483237D01*
X168365411Y-99487583D01*
X168119838Y-100161610D01*
X168116936Y-100160553D01*
X168115862Y-100165587D01*
X168113009Y-100168441D01*
X168113009Y-100169164D01*
X168112511Y-100169688D01*
X168112758Y-100179554D01*
X168112974Y-100188213D01*
X168113013Y-100191335D01*
X168113013Y-100192729D01*
X168113014Y-100192731D01*
X168113017Y-100209863D01*
X168113529Y-100210375D01*
X168113547Y-100211097D01*
X168120699Y-100217900D01*
X168126977Y-100223872D01*
X168129207Y-100226046D01*
X168134699Y-100231535D01*
X168135292Y-100231780D01*
X168143560Y-100239645D01*
X168153678Y-100239392D01*
X168156516Y-100240567D01*
X168166930Y-100245920D01*
X168172979Y-100247383D01*
X169063001Y-100615833D01*
X169062312Y-100617498D01*
X169065398Y-100618226D01*
X169071337Y-100624156D01*
X169079504Y-100624151D01*
X169080484Y-100624716D01*
X169080485Y-100624717D01*
X169160297Y-100670724D01*
X169186406Y-100690730D01*
X169246041Y-100750284D01*
X169266079Y-100776360D01*
X169308269Y-100849322D01*
X169320876Y-100879700D01*
X169342745Y-100961096D01*
X169347060Y-100993702D01*
X169347118Y-101077347D01*
X169347118Y-101077976D01*
X169342846Y-101110593D01*
X169321087Y-101192015D01*
X169308520Y-101222412D01*
X169266431Y-101295425D01*
X169246427Y-101321532D01*
X169186873Y-101381168D01*
X169160796Y-101401207D01*
X169087834Y-101443397D01*
X169057456Y-101456004D01*
X168976060Y-101477873D01*
X168943454Y-101482188D01*
X168901413Y-101482217D01*
X168859178Y-101482246D01*
X168826563Y-101477974D01*
X168739534Y-101454717D01*
X168735792Y-101453222D01*
X168730691Y-101448128D01*
X168723055Y-101448133D01*
X168711755Y-101443618D01*
X168710171Y-101442754D01*
X168701769Y-101440614D01*
X168695255Y-101437917D01*
X167809736Y-101071331D01*
X167810712Y-101068973D01*
X167806493Y-101067922D01*
X167802445Y-101063666D01*
X167790499Y-101063367D01*
X167790513Y-101062808D01*
X167789955Y-101062733D01*
X167789955Y-101063139D01*
X167789948Y-101063139D01*
X167783034Y-101063141D01*
X167779871Y-101063101D01*
X167777741Y-101063048D01*
X167777740Y-101063048D01*
X167761036Y-101062630D01*
X167760495Y-101063145D01*
X167759293Y-101063145D01*
X167736040Y-101086407D01*
X167731024Y-101091179D01*
X167731018Y-101091432D01*
X167730009Y-101092441D01*
X167730011Y-101103063D01*
X167728935Y-101104977D01*
X167722732Y-101115694D01*
X167720632Y-101123236D01*
X167668928Y-101234218D01*
X167427539Y-101752349D01*
X167425516Y-101756491D01*
X167095418Y-102402216D01*
X167093246Y-102406282D01*
X166739706Y-103039580D01*
X166737385Y-103043563D01*
X166544398Y-103361360D01*
X166365039Y-103656715D01*
X166362406Y-103655116D01*
X166360374Y-103659834D01*
X166357008Y-103662084D01*
X166356867Y-103662793D01*
X166356277Y-103663209D01*
X166354594Y-103672934D01*
X166353119Y-103681457D01*
X166352550Y-103684516D01*
X166352267Y-103685943D01*
X166348936Y-103702712D01*
X166349337Y-103703312D01*
X166349214Y-103704025D01*
X166358704Y-103717486D01*
X166359889Y-103719167D01*
X166361656Y-103721741D01*
X166362439Y-103722912D01*
X166362441Y-103722913D01*
X166365973Y-103728197D01*
X166366506Y-103728553D01*
X166373081Y-103737879D01*
X166383054Y-103739605D01*
X166385625Y-103741322D01*
X166394782Y-103748593D01*
X166400423Y-103751205D01*
X167081973Y-104206386D01*
X167202967Y-104287193D01*
X167202100Y-104288491D01*
X167204596Y-104289631D01*
X167208944Y-104296139D01*
X167216954Y-104297733D01*
X167217855Y-104298523D01*
X167217856Y-104298525D01*
X167287146Y-104359299D01*
X167308831Y-104384029D01*
X167320001Y-104400748D01*
X167351753Y-104448273D01*
X167355707Y-104454192D01*
X167370254Y-104483695D01*
X167397374Y-104563606D01*
X167403789Y-104595866D01*
X167409303Y-104680074D01*
X167407150Y-104712891D01*
X167390681Y-104795662D01*
X167380111Y-104826795D01*
X167342777Y-104902489D01*
X167324505Y-104929830D01*
X167268860Y-104993272D01*
X167244130Y-105014957D01*
X167221593Y-105030014D01*
X167197154Y-105046342D01*
X167173964Y-105061835D01*
X167144461Y-105076382D01*
X167064550Y-105103502D01*
X167032290Y-105109917D01*
X167019588Y-105110749D01*
X166948082Y-105115431D01*
X166915260Y-105113277D01*
X166832501Y-105096810D01*
X166801355Y-105086236D01*
X166796929Y-105084053D01*
X166720465Y-105046339D01*
X166717090Y-105044141D01*
X166713084Y-105038145D01*
X166705593Y-105036654D01*
X166695397Y-105030014D01*
X166694081Y-105028914D01*
X166686200Y-105025144D01*
X166679301Y-105020536D01*
X165883366Y-104488962D01*
X165884891Y-104486678D01*
X165880657Y-104484680D01*
X165877335Y-104479429D01*
X165866943Y-104477090D01*
X165854596Y-104474311D01*
X165854595Y-104474311D01*
X165836924Y-104470334D01*
X165835692Y-104471113D01*
X165835444Y-104471064D01*
X165829692Y-104474909D01*
X165801919Y-104492479D01*
X165801655Y-104493651D01*
X165801008Y-104494084D01*
X165799207Y-104503150D01*
X165798567Y-104504024D01*
X165789639Y-104514180D01*
X165786341Y-104520709D01*
X165375281Y-105081718D01*
X165372489Y-105085386D01*
X165081388Y-105453627D01*
X164987156Y-105572831D01*
X164922734Y-105654324D01*
X164919814Y-105657882D01*
X164449525Y-106210015D01*
X164446503Y-106213434D01*
X163961667Y-106742177D01*
X163959387Y-106740086D01*
X163956464Y-106744332D01*
X163952745Y-106745873D01*
X163952466Y-106746547D01*
X163951801Y-106746842D01*
X163948255Y-106756047D01*
X163945158Y-106764085D01*
X163943992Y-106767002D01*
X163936893Y-106784142D01*
X163937172Y-106784815D01*
X163936910Y-106785495D01*
X163940911Y-106794510D01*
X163940911Y-106794512D01*
X163944429Y-106802439D01*
X163945666Y-106805322D01*
X163948625Y-106812464D01*
X163949084Y-106812923D01*
X163953714Y-106823355D01*
X163963152Y-106826991D01*
X163965364Y-106829203D01*
X163972926Y-106838121D01*
X163977933Y-106841772D01*
X164659652Y-107523491D01*
X164658591Y-107524552D01*
X164660735Y-107526096D01*
X164663800Y-107533465D01*
X164671350Y-107536580D01*
X164691549Y-107562826D01*
X164728223Y-107610481D01*
X164744709Y-107638942D01*
X164767396Y-107693495D01*
X164777072Y-107716762D01*
X164785629Y-107748519D01*
X164796749Y-107832062D01*
X164796796Y-107864955D01*
X164786186Y-107946428D01*
X164785913Y-107948528D01*
X164777445Y-107980310D01*
X164745303Y-108058219D01*
X164728897Y-108086728D01*
X164677688Y-108153661D01*
X164654467Y-108176949D01*
X164587668Y-108228356D01*
X164559214Y-108244837D01*
X164496610Y-108270872D01*
X164481394Y-108277200D01*
X164449637Y-108285757D01*
X164366094Y-108296877D01*
X164333201Y-108296924D01*
X164249627Y-108286041D01*
X164217846Y-108277573D01*
X164139937Y-108245431D01*
X164111428Y-108229025D01*
X164039888Y-108174291D01*
X164036996Y-108171475D01*
X164034228Y-108164819D01*
X164027170Y-108161907D01*
X164018452Y-108153419D01*
X164017248Y-108151929D01*
X164010374Y-108146791D01*
X163327730Y-107464147D01*
X163329662Y-107462215D01*
X163325918Y-107459443D01*
X163323680Y-107453635D01*
X163285820Y-107436832D01*
X163284648Y-107437284D01*
X163284014Y-107437021D01*
X163267958Y-107443672D01*
X163265073Y-107444825D01*
X163262745Y-107445722D01*
X163247167Y-107451724D01*
X163246862Y-107452410D01*
X163245745Y-107452873D01*
X163241908Y-107462135D01*
X163241631Y-107462389D01*
X163230410Y-107470979D01*
X163225694Y-107477003D01*
X162713781Y-107946428D01*
X162710327Y-107949481D01*
X162709994Y-107949765D01*
X162158207Y-108419782D01*
X162154678Y-108422678D01*
X161595631Y-108864636D01*
X161585729Y-108872464D01*
X161582066Y-108875252D01*
X161003422Y-109299255D01*
X161001590Y-109296755D01*
X160997887Y-109300355D01*
X160993956Y-109301136D01*
X160993547Y-109301748D01*
X160992830Y-109301909D01*
X160982891Y-109317621D01*
X160981244Y-109320151D01*
X160970936Y-109335572D01*
X160971079Y-109336293D01*
X160970686Y-109336915D01*
X160972850Y-109346532D01*
X160972850Y-109346533D01*
X160974750Y-109354974D01*
X160975407Y-109358077D01*
X160975673Y-109359418D01*
X160975674Y-109359419D01*
X160976910Y-109365640D01*
X160977273Y-109366184D01*
X160979781Y-109377326D01*
X160988324Y-109382730D01*
X160990089Y-109385372D01*
X160995762Y-109395586D01*
X160999939Y-109400122D01*
X161535914Y-110202646D01*
X161534627Y-110203505D01*
X161536482Y-110205499D01*
X161538017Y-110213212D01*
X161544808Y-110217749D01*
X161585195Y-110299632D01*
X161586108Y-110301483D01*
X161596682Y-110332629D01*
X161613149Y-110415388D01*
X161615303Y-110448210D01*
X161609789Y-110532418D01*
X161603374Y-110564678D01*
X161576254Y-110644589D01*
X161561708Y-110674090D01*
X161544218Y-110700269D01*
X161514829Y-110744258D01*
X161493144Y-110768988D01*
X161436877Y-110818340D01*
X161429702Y-110824633D01*
X161402361Y-110842905D01*
X161326667Y-110880239D01*
X161295534Y-110890809D01*
X161212763Y-110907278D01*
X161179946Y-110909431D01*
X161108440Y-110904749D01*
X161095738Y-110903917D01*
X161063478Y-110897502D01*
X160983567Y-110870382D01*
X160954064Y-110855835D01*
X160883901Y-110808959D01*
X160859171Y-110787274D01*
X160799697Y-110719466D01*
X160797418Y-110716142D01*
X160796011Y-110709072D01*
X160789662Y-110704830D01*
X160782780Y-110694793D01*
X160781954Y-110693214D01*
X160776151Y-110686753D01*
X160239507Y-109883227D01*
X160241624Y-109881813D01*
X160238706Y-109878597D01*
X160237691Y-109872735D01*
X160203836Y-109848868D01*
X160202609Y-109849080D01*
X160202584Y-109849064D01*
X160201778Y-109849224D01*
X160163021Y-109855931D01*
X160162207Y-109857086D01*
X160161956Y-109857136D01*
X160158017Y-109863029D01*
X160157081Y-109864356D01*
X160155500Y-109865316D01*
X160144014Y-109870963D01*
X160138758Y-109875483D01*
X159543369Y-110237050D01*
X159539386Y-110239370D01*
X158906148Y-110592886D01*
X158902082Y-110595059D01*
X158256353Y-110925167D01*
X158252214Y-110927189D01*
X157601963Y-111230139D01*
X157600652Y-111227326D01*
X157596314Y-111230138D01*
X157592313Y-111230137D01*
X157591793Y-111230657D01*
X157591060Y-111230675D01*
X157578309Y-111244079D01*
X157576130Y-111246313D01*
X157563017Y-111259421D01*
X157563017Y-111260155D01*
X157562511Y-111260687D01*
X157562758Y-111270542D01*
X157562757Y-111270543D01*
X157562973Y-111279170D01*
X157563013Y-111282331D01*
X157563011Y-111290076D01*
X157563261Y-111290681D01*
X157563547Y-111302096D01*
X157570871Y-111309063D01*
X157572090Y-111312008D01*
X157575658Y-111323121D01*
X157578870Y-111328386D01*
X157948026Y-112220112D01*
X157946897Y-112220579D01*
X157948029Y-112222409D01*
X157948038Y-112229911D01*
X157953820Y-112235680D01*
X157968265Y-112289337D01*
X157978087Y-112325823D01*
X157982419Y-112358429D01*
X157982518Y-112442807D01*
X157978264Y-112475421D01*
X157963098Y-112532285D01*
X157956519Y-112556954D01*
X157943967Y-112587356D01*
X157901863Y-112660480D01*
X157881872Y-112686596D01*
X157822273Y-112746335D01*
X157796210Y-112766382D01*
X157723180Y-112808660D01*
X157692806Y-112821282D01*
X157611332Y-112843215D01*
X157578727Y-112847547D01*
X157536834Y-112847596D01*
X157494346Y-112847646D01*
X157461735Y-112843392D01*
X157380202Y-112821647D01*
X157349800Y-112809095D01*
X157276676Y-112766991D01*
X157250560Y-112747000D01*
X157190822Y-112687402D01*
X157170772Y-112661335D01*
X157170519Y-112660897D01*
X157125587Y-112583282D01*
X157123999Y-112579585D01*
X157123990Y-112572373D01*
X157118582Y-112566977D01*
X157113781Y-112555803D01*
X157113239Y-112553966D01*
X157108855Y-112546585D01*
X157103346Y-112533276D01*
X156739625Y-111654679D01*
X156742044Y-111653678D01*
X156739746Y-111649851D01*
X156739897Y-111643802D01*
X156731443Y-111634914D01*
X156731873Y-111634505D01*
X156731138Y-111633545D01*
X156731754Y-111633074D01*
X156731657Y-111632709D01*
X156730444Y-111633863D01*
X156725095Y-111628240D01*
X156711349Y-111613788D01*
X156710353Y-111613763D01*
X156709735Y-111613145D01*
X156700049Y-111613143D01*
X156686976Y-111613140D01*
X156686441Y-111613133D01*
X156686416Y-111613140D01*
X156685411Y-111613140D01*
X156669941Y-111612754D01*
X156669538Y-111613137D01*
X156668313Y-111613137D01*
X156661084Y-111620363D01*
X156660718Y-111620496D01*
X156647042Y-111624144D01*
X156640367Y-111627911D01*
X156569298Y-111653806D01*
X155987810Y-111865675D01*
X155983450Y-111867173D01*
X155293417Y-112090356D01*
X155289006Y-112091694D01*
X154591259Y-112289492D01*
X154586802Y-112290668D01*
X153897171Y-112459174D01*
X153889931Y-112460943D01*
X153889195Y-112457933D01*
X153884397Y-112459841D01*
X153880473Y-112459059D01*
X153879860Y-112459468D01*
X153879132Y-112459342D01*
X153871075Y-112465022D01*
X153871074Y-112465022D01*
X153864006Y-112470004D01*
X153861382Y-112471805D01*
X153846024Y-112482060D01*
X153845880Y-112482784D01*
X153845277Y-112483209D01*
X153843597Y-112492918D01*
X153842130Y-112501394D01*
X153841552Y-112504506D01*
X153840034Y-112512124D01*
X153840162Y-112512768D01*
X153838214Y-112524024D01*
X153844038Y-112532285D01*
X153844657Y-112535402D01*
X153845989Y-112547013D01*
X153848112Y-112552803D01*
X154035942Y-113498661D01*
X154034607Y-113498926D01*
X154035445Y-113501172D01*
X154033945Y-113508756D01*
X154038490Y-113515543D01*
X154038569Y-113516729D01*
X154044683Y-113608536D01*
X154042565Y-113641362D01*
X154026221Y-113723976D01*
X154015681Y-113755133D01*
X153978511Y-113830706D01*
X153960266Y-113858074D01*
X153904803Y-113921451D01*
X153880095Y-113943165D01*
X153810115Y-113990030D01*
X153780630Y-114004609D01*
X153700911Y-114031763D01*
X153668658Y-114038213D01*
X153584620Y-114043810D01*
X153551794Y-114041693D01*
X153550359Y-114041409D01*
X153501661Y-114031775D01*
X153469180Y-114025349D01*
X153438023Y-114014809D01*
X153362450Y-113977639D01*
X153335082Y-113959394D01*
X153271705Y-113903931D01*
X153249991Y-113879223D01*
X153203126Y-113809243D01*
X153188547Y-113779759D01*
X153188246Y-113778874D01*
X153159522Y-113694546D01*
X153158684Y-113690602D01*
X153160083Y-113683528D01*
X153155834Y-113677183D01*
X153153307Y-113665286D01*
X153153145Y-113663495D01*
X153150250Y-113655312D01*
X152961286Y-112708572D01*
X152963793Y-112708072D01*
X152962321Y-112703972D01*
X152963602Y-112698277D01*
X152957216Y-112688182D01*
X152957687Y-112687884D01*
X152957436Y-112687373D01*
X152957099Y-112687599D01*
X152953385Y-112682048D01*
X152951623Y-112679340D01*
X152950402Y-112677410D01*
X152941458Y-112663271D01*
X152940707Y-112663102D01*
X152940052Y-112662123D01*
X152930202Y-112660171D01*
X152930201Y-112660170D01*
X152917174Y-112657588D01*
X152917173Y-112657588D01*
X152909009Y-112655970D01*
X152901047Y-112654178D01*
X152900790Y-112654340D01*
X152899421Y-112654069D01*
X152890628Y-112659952D01*
X152890601Y-112659956D01*
X152890008Y-112660002D01*
X152876090Y-112660897D01*
X152868665Y-112663340D01*
X152640760Y-112698497D01*
X152182825Y-112769139D01*
X152182682Y-112769161D01*
X152178115Y-112769780D01*
X151457767Y-112854059D01*
X151453209Y-112854509D01*
X151155074Y-112878375D01*
X150730254Y-112912382D01*
X150725654Y-112912666D01*
X150008934Y-112943717D01*
X150008800Y-112940629D01*
X150003734Y-112941563D01*
X150000014Y-112940022D01*
X149999341Y-112940301D01*
X149998661Y-112940039D01*
X149981734Y-112947551D01*
X149978894Y-112948770D01*
X149961745Y-112955873D01*
X149961466Y-112956546D01*
X149960800Y-112956842D01*
X149954132Y-112974152D01*
X149952986Y-112977018D01*
X149950014Y-112984195D01*
X149950014Y-112984843D01*
X149945911Y-112995495D01*
X149950014Y-113004740D01*
X149950014Y-113007877D01*
X149949056Y-113019524D01*
X149950014Y-113025642D01*
X149950014Y-113990195D01*
X149948468Y-113990195D01*
X149948903Y-113992878D01*
X149945894Y-114000142D01*
X149949020Y-114007690D01*
X149938156Y-114090218D01*
X149936846Y-114100165D01*
X149928332Y-114131938D01*
X149896074Y-114209814D01*
X149879628Y-114238299D01*
X149828309Y-114305179D01*
X149805051Y-114328437D01*
X149738171Y-114379756D01*
X149709686Y-114396202D01*
X149631810Y-114428460D01*
X149600037Y-114436974D01*
X149558249Y-114442475D01*
X149516459Y-114447977D01*
X149483569Y-114447977D01*
X149441779Y-114442475D01*
X149399991Y-114436974D01*
X149368218Y-114428460D01*
X149290342Y-114396202D01*
X149261857Y-114379756D01*
X149194977Y-114328437D01*
X149171719Y-114305179D01*
X149120400Y-114238299D01*
X149103954Y-114209814D01*
X149071696Y-114131938D01*
X149063182Y-114100165D01*
X149061510Y-114087461D01*
X149051422Y-114010835D01*
X149051374Y-114006807D01*
X149054134Y-114000142D01*
X149051210Y-113993083D01*
X149051065Y-113980927D01*
X149051253Y-113979174D01*
X149050014Y-113970554D01*
X149050014Y-113004804D01*
X149052565Y-113004804D01*
X149051923Y-113000503D01*
X149054322Y-112995097D01*
X149050123Y-112984195D01*
X149047861Y-112978325D01*
X149039432Y-112956444D01*
X149038314Y-112955948D01*
X149038283Y-112955873D01*
X149036218Y-112955018D01*
X149001571Y-112939642D01*
X149000289Y-112940136D01*
X149000014Y-112940022D01*
X148992424Y-112943166D01*
X148991951Y-112943348D01*
X148990114Y-112943268D01*
X148977377Y-112941576D01*
X148970462Y-112942417D01*
X148274593Y-112912277D01*
X148269992Y-112911993D01*
X147831233Y-112876874D01*
X147547081Y-112854130D01*
X147542516Y-112853681D01*
X147157682Y-112808660D01*
X146822129Y-112769404D01*
X146817562Y-112768784D01*
X146108617Y-112659429D01*
X146109092Y-112656348D01*
X146103901Y-112656273D01*
X146100607Y-112654069D01*
X146099875Y-112654214D01*
X146099242Y-112653814D01*
X146081211Y-112657872D01*
X146078073Y-112658536D01*
X146076775Y-112658793D01*
X146076774Y-112658794D01*
X146059976Y-112662123D01*
X146059561Y-112662744D01*
X146058830Y-112662908D01*
X146053567Y-112671228D01*
X146048946Y-112678532D01*
X146047181Y-112681245D01*
X146046644Y-112682048D01*
X146042928Y-112687601D01*
X146042798Y-112688252D01*
X146036686Y-112697914D01*
X146038903Y-112707766D01*
X146038269Y-112710944D01*
X146035058Y-112722175D01*
X146034805Y-112728298D01*
X145846205Y-113673213D01*
X145844589Y-113672890D01*
X145844485Y-113675792D01*
X145839924Y-113682632D01*
X145841525Y-113690642D01*
X145841139Y-113691781D01*
X145841137Y-113691785D01*
X145811664Y-113778874D01*
X145797144Y-113808387D01*
X145750445Y-113878416D01*
X145728786Y-113903159D01*
X145693756Y-113933936D01*
X145665552Y-113958716D01*
X145638221Y-113977014D01*
X145562764Y-114014312D01*
X145531631Y-114024912D01*
X145449089Y-114041409D01*
X145416278Y-114043591D01*
X145332276Y-114038163D01*
X145300011Y-114031775D01*
X145220282Y-114004792D01*
X145190769Y-113990272D01*
X145176755Y-113980927D01*
X145120740Y-113943573D01*
X145095997Y-113921914D01*
X145040440Y-113858680D01*
X145022142Y-113831349D01*
X144984844Y-113755892D01*
X144974242Y-113724753D01*
X144970246Y-113704756D01*
X144957747Y-113642218D01*
X144955565Y-113609402D01*
X144961367Y-113519619D01*
X144962104Y-113515651D01*
X144966104Y-113509652D01*
X144964607Y-113502164D01*
X144966828Y-113490202D01*
X144967370Y-113488467D01*
X144967828Y-113479818D01*
X145155896Y-112532761D01*
X145158488Y-112533276D01*
X145158704Y-112528777D01*
X145162174Y-112523855D01*
X145155111Y-112483040D01*
X145154050Y-112482292D01*
X145154004Y-112482060D01*
X145148639Y-112478478D01*
X145146408Y-112476905D01*
X145146407Y-112476903D01*
X145135958Y-112469538D01*
X145135956Y-112469537D01*
X145121255Y-112459174D01*
X145120043Y-112459384D01*
X145119555Y-112459058D01*
X145110671Y-112460828D01*
X145109305Y-112460494D01*
X145096762Y-112456220D01*
X145089610Y-112455682D01*
X144820346Y-112389894D01*
X144413568Y-112290507D01*
X144409168Y-112289346D01*
X143711383Y-112091550D01*
X143706987Y-112090217D01*
X143016906Y-111867030D01*
X143012573Y-111865539D01*
X142338545Y-111619965D01*
X142339600Y-111617069D01*
X142334575Y-111615997D01*
X142331715Y-111613138D01*
X142330993Y-111613138D01*
X142330468Y-111612639D01*
X142320598Y-111612886D01*
X142311925Y-111613103D01*
X142308793Y-111613142D01*
X142307423Y-111613142D01*
X142290293Y-111613145D01*
X142289781Y-111613657D01*
X142289059Y-111613675D01*
X142282258Y-111620825D01*
X142276284Y-111627105D01*
X142274110Y-111629335D01*
X142268621Y-111634827D01*
X142268376Y-111635420D01*
X142260511Y-111643688D01*
X142260764Y-111653806D01*
X142259589Y-111656644D01*
X142254238Y-111667054D01*
X142252774Y-111673107D01*
X141884323Y-112563131D01*
X141882647Y-112562437D01*
X141881916Y-112565541D01*
X141876000Y-112571465D01*
X141876005Y-112579632D01*
X141875427Y-112580635D01*
X141875426Y-112580636D01*
X141829432Y-112660425D01*
X141809426Y-112686534D01*
X141749872Y-112746169D01*
X141723796Y-112766207D01*
X141650834Y-112808397D01*
X141620456Y-112821004D01*
X141539060Y-112842873D01*
X141506454Y-112847188D01*
X141464413Y-112847217D01*
X141422178Y-112847246D01*
X141389563Y-112842974D01*
X141308141Y-112821215D01*
X141277744Y-112808648D01*
X141204731Y-112766559D01*
X141178624Y-112746555D01*
X141118988Y-112687001D01*
X141098949Y-112660924D01*
X141056759Y-112587962D01*
X141044152Y-112557584D01*
X141022283Y-112476188D01*
X141017968Y-112443582D01*
X141017910Y-112359308D01*
X141022182Y-112326691D01*
X141045439Y-112239662D01*
X141046934Y-112235920D01*
X141052028Y-112230819D01*
X141052023Y-112223183D01*
X141056538Y-112211883D01*
X141057401Y-112210300D01*
X141059541Y-112201900D01*
X141428823Y-111309866D01*
X141431182Y-111310843D01*
X141432234Y-111306621D01*
X141436490Y-111302573D01*
X141436789Y-111290624D01*
X141437348Y-111290638D01*
X141437423Y-111290079D01*
X141437016Y-111290079D01*
X141437016Y-111290076D01*
X141437015Y-111283188D01*
X141437054Y-111280035D01*
X141437108Y-111277870D01*
X141437526Y-111261164D01*
X141437011Y-111260623D01*
X141437011Y-111259421D01*
X141413764Y-111236184D01*
X141408977Y-111231152D01*
X141408723Y-111231146D01*
X141407715Y-111230138D01*
X141397094Y-111230140D01*
X141395214Y-111229083D01*
X141384468Y-111222862D01*
X141376920Y-111220761D01*
X140747782Y-110927656D01*
X140743711Y-110925668D01*
X140097930Y-110595541D01*
X140093874Y-110593374D01*
X139460576Y-110239834D01*
X139456593Y-110237513D01*
X139280079Y-110130322D01*
X145287054Y-110130322D01*
X145288039Y-110137332D01*
X145288039Y-110137334D01*
X145293938Y-110179316D01*
X145304321Y-110253209D01*
X145306839Y-110259818D01*
X145332641Y-110327544D01*
X145348500Y-110369173D01*
X145352428Y-110375060D01*
X145352429Y-110375062D01*
X145379336Y-110415388D01*
X145417375Y-110472399D01*
X145507494Y-110557710D01*
X145519289Y-110564678D01*
X145608245Y-110617231D01*
X145608248Y-110617232D01*
X145614336Y-110620829D01*
X145642988Y-110629982D01*
X145710609Y-110651584D01*
X145710610Y-110651584D01*
X145730522Y-110657945D01*
X145732421Y-110659215D01*
X145742872Y-110657143D01*
X145751652Y-110659896D01*
X145765710Y-110660658D01*
X146205680Y-110748473D01*
X146214513Y-110750236D01*
X146214220Y-110751706D01*
X146216858Y-110751800D01*
X146223504Y-110756232D01*
X146225772Y-110755779D01*
X146347030Y-110765895D01*
X146469628Y-110748473D01*
X146476231Y-110745946D01*
X146476233Y-110745945D01*
X146578666Y-110706736D01*
X146578668Y-110706735D01*
X146585275Y-110704206D01*
X146591154Y-110700270D01*
X146591156Y-110700269D01*
X146682298Y-110639249D01*
X146682300Y-110639247D01*
X146688172Y-110635316D01*
X146761079Y-110558058D01*
X146768310Y-110550396D01*
X146768312Y-110550393D01*
X146773160Y-110545256D01*
X146799717Y-110500142D01*
X148695894Y-110500142D01*
X148696773Y-110502265D01*
X148710411Y-110623303D01*
X148712748Y-110629981D01*
X148712748Y-110629982D01*
X148714830Y-110635931D01*
X148751346Y-110740288D01*
X148755111Y-110746280D01*
X148762798Y-110758513D01*
X148817286Y-110845231D01*
X148904925Y-110932870D01*
X149009868Y-110998810D01*
X149126853Y-111039745D01*
X149247891Y-111053383D01*
X149250014Y-111054262D01*
X149259856Y-111050186D01*
X149270990Y-111051381D01*
X149279605Y-111050142D01*
X149740067Y-111050142D01*
X149740067Y-111051690D01*
X149742753Y-111051255D01*
X149750014Y-111054262D01*
X149752137Y-111053383D01*
X149873175Y-111039745D01*
X149990160Y-110998810D01*
X150095103Y-110932870D01*
X150182742Y-110845231D01*
X150237231Y-110758513D01*
X150244917Y-110746280D01*
X150248682Y-110740288D01*
X150285198Y-110635931D01*
X150287280Y-110629982D01*
X150287280Y-110629981D01*
X150289617Y-110623303D01*
X150303255Y-110502265D01*
X150304134Y-110500142D01*
X150300058Y-110490300D01*
X150301253Y-110479166D01*
X150300014Y-110470551D01*
X150300014Y-107510089D01*
X150301562Y-107510089D01*
X150301127Y-107507403D01*
X150304134Y-107500142D01*
X150303255Y-107498019D01*
X150289617Y-107376981D01*
X150248682Y-107259996D01*
X150245677Y-107255214D01*
X151531034Y-107255214D01*
X151531636Y-107262262D01*
X151531636Y-107262264D01*
X151534159Y-107291797D01*
X151541394Y-107376503D01*
X151540947Y-107378766D01*
X151545499Y-107385563D01*
X151547690Y-107396580D01*
X151547877Y-107398642D01*
X151547735Y-107399359D01*
X151547875Y-107400323D01*
X151549153Y-107403940D01*
X152127028Y-110310106D01*
X152125469Y-110310416D01*
X152126442Y-110313031D01*
X152124920Y-110320631D01*
X152126190Y-110322537D01*
X152163063Y-110438749D01*
X152225950Y-110545677D01*
X152311055Y-110635931D01*
X152414109Y-110704984D01*
X152529945Y-110749374D01*
X152536941Y-110750371D01*
X152536945Y-110750372D01*
X152645748Y-110765877D01*
X152645751Y-110765877D01*
X152652754Y-110766875D01*
X152711508Y-110761996D01*
X152753462Y-110758513D01*
X152753463Y-110758513D01*
X152774257Y-110756786D01*
X152776503Y-110757236D01*
X152785364Y-110751332D01*
X152794289Y-110750546D01*
X152807773Y-110745794D01*
X153257057Y-110656120D01*
X153257357Y-110657624D01*
X153259884Y-110656679D01*
X153267628Y-110658211D01*
X153269548Y-110656925D01*
X153293888Y-110649139D01*
X153378750Y-110621994D01*
X153378755Y-110621992D01*
X153385485Y-110619839D01*
X153492113Y-110556791D01*
X153497251Y-110551923D01*
X153497254Y-110551921D01*
X153576901Y-110476463D01*
X153576902Y-110476462D01*
X153582038Y-110471596D01*
X153650751Y-110368528D01*
X153666165Y-110328021D01*
X153692288Y-110259368D01*
X153692288Y-110259367D01*
X153694805Y-110252753D01*
X153711993Y-110130078D01*
X153711391Y-110123028D01*
X153703409Y-110029559D01*
X153703408Y-110029557D01*
X153701635Y-110008791D01*
X153702083Y-110006528D01*
X153697527Y-109999725D01*
X153695359Y-109988842D01*
X153695152Y-109986550D01*
X153695289Y-109985856D01*
X153695175Y-109985066D01*
X153693874Y-109981384D01*
X153114990Y-107075109D01*
X153116482Y-107074812D01*
X153115545Y-107072304D01*
X153117083Y-107064528D01*
X153115797Y-107062608D01*
X153087396Y-106973822D01*
X153080865Y-106953404D01*
X153080864Y-106953402D01*
X153078711Y-106946671D01*
X153015663Y-106840043D01*
X153010795Y-106834905D01*
X153010793Y-106834902D01*
X152935335Y-106755255D01*
X152935334Y-106755254D01*
X152930468Y-106750118D01*
X152853540Y-106698832D01*
X152833291Y-106685332D01*
X152833288Y-106685331D01*
X152827400Y-106681405D01*
X152805877Y-106673215D01*
X152718240Y-106639868D01*
X152718239Y-106639868D01*
X152711625Y-106637351D01*
X152588950Y-106620163D01*
X152581901Y-106620765D01*
X152581900Y-106620765D01*
X152488430Y-106628747D01*
X152488428Y-106628748D01*
X152467663Y-106630521D01*
X152465400Y-106630073D01*
X152458584Y-106634638D01*
X152447856Y-106636784D01*
X152445307Y-106637014D01*
X152444643Y-106636883D01*
X152444034Y-106636971D01*
X152440284Y-106638298D01*
X151985961Y-106729162D01*
X151985658Y-106727646D01*
X151983113Y-106728598D01*
X151975400Y-106727073D01*
X151973484Y-106728356D01*
X151955973Y-106733958D01*
X151955968Y-106733958D01*
X151864285Y-106763286D01*
X151864279Y-106763289D01*
X151857541Y-106765444D01*
X151800848Y-106798967D01*
X151757003Y-106824892D01*
X151757001Y-106824894D01*
X151750912Y-106828494D01*
X151740751Y-106838121D01*
X151666971Y-106908022D01*
X151660987Y-106913691D01*
X151657059Y-106919583D01*
X151628198Y-106962876D01*
X151592275Y-107016761D01*
X151589761Y-107023368D01*
X151589760Y-107023370D01*
X151556938Y-107109630D01*
X151548221Y-107132538D01*
X151531034Y-107255214D01*
X150245677Y-107255214D01*
X150241113Y-107247950D01*
X150186509Y-107161048D01*
X150186509Y-107161047D01*
X150182742Y-107155053D01*
X150095103Y-107067414D01*
X149990160Y-107001474D01*
X149873175Y-106960539D01*
X149752137Y-106946901D01*
X149750014Y-106946022D01*
X149740172Y-106950098D01*
X149729038Y-106948903D01*
X149720423Y-106950142D01*
X149259961Y-106950142D01*
X149259961Y-106948594D01*
X149257275Y-106949029D01*
X149250014Y-106946022D01*
X149247891Y-106946901D01*
X149219127Y-106950142D01*
X149133878Y-106959747D01*
X149133875Y-106959748D01*
X149126852Y-106960539D01*
X149009865Y-107001475D01*
X148904922Y-107067417D01*
X148817282Y-107155057D01*
X148813515Y-107161053D01*
X148813513Y-107161055D01*
X148755107Y-107254011D01*
X148751343Y-107260002D01*
X148710409Y-107376989D01*
X148707373Y-107403940D01*
X148699142Y-107477003D01*
X148696773Y-107498029D01*
X148695894Y-107500152D01*
X148699971Y-107509993D01*
X148698775Y-107521129D01*
X148700014Y-107529743D01*
X148700014Y-110490195D01*
X148698466Y-110490195D01*
X148698901Y-110492881D01*
X148695894Y-110500142D01*
X146799717Y-110500142D01*
X146835977Y-110438543D01*
X146872821Y-110322576D01*
X146874104Y-110320652D01*
X146872499Y-110312623D01*
X146874668Y-110301715D01*
X146875340Y-110299562D01*
X146875734Y-110298971D01*
X146875943Y-110298152D01*
X146876149Y-110294269D01*
X147454111Y-107387667D01*
X147455650Y-107387973D01*
X147455749Y-107385218D01*
X147460087Y-107378735D01*
X147459643Y-107376494D01*
X147469974Y-107254962D01*
X147452707Y-107132075D01*
X147426058Y-107062125D01*
X147411048Y-107022725D01*
X147411047Y-107022723D01*
X147408528Y-107016111D01*
X147398763Y-107001475D01*
X147343579Y-106918769D01*
X147339653Y-106912885D01*
X147249534Y-106827574D01*
X147193570Y-106794512D01*
X147148783Y-106768053D01*
X147148780Y-106768052D01*
X147142692Y-106764455D01*
X147097812Y-106750118D01*
X147046419Y-106733700D01*
X147046418Y-106733700D01*
X147026506Y-106727339D01*
X147024607Y-106726069D01*
X147014155Y-106728141D01*
X147005333Y-106725374D01*
X146991310Y-106724611D01*
X146928416Y-106712032D01*
X146543563Y-106635061D01*
X146543863Y-106633559D01*
X146541170Y-106633460D01*
X146534607Y-106629069D01*
X146532370Y-106629512D01*
X146410833Y-106619181D01*
X146403823Y-106620166D01*
X146403821Y-106620166D01*
X146294958Y-106635462D01*
X146294954Y-106635463D01*
X146287944Y-106636448D01*
X146171979Y-106680628D01*
X146068752Y-106749506D01*
X145983441Y-106839627D01*
X145920323Y-106946472D01*
X145883209Y-107062660D01*
X145881939Y-107064559D01*
X145884011Y-107075011D01*
X145881270Y-107083752D01*
X145880509Y-107097846D01*
X145329976Y-109861784D01*
X145302922Y-109997610D01*
X145301394Y-109997306D01*
X145301295Y-110000042D01*
X145296941Y-110006549D01*
X145297385Y-110008790D01*
X145287054Y-110130322D01*
X139280079Y-110130322D01*
X138843441Y-109865167D01*
X138845040Y-109862534D01*
X138840322Y-109860502D01*
X138838072Y-109857136D01*
X138837363Y-109856995D01*
X138836947Y-109856405D01*
X138818692Y-109853246D01*
X138815640Y-109852678D01*
X138814213Y-109852395D01*
X138814212Y-109852395D01*
X138797444Y-109849064D01*
X138796844Y-109849465D01*
X138796131Y-109849342D01*
X138785677Y-109856712D01*
X138780989Y-109860017D01*
X138778415Y-109861784D01*
X138777244Y-109862567D01*
X138777243Y-109862569D01*
X138771959Y-109866101D01*
X138771603Y-109866634D01*
X138762277Y-109873209D01*
X138760551Y-109883182D01*
X138758835Y-109885751D01*
X138751561Y-109894912D01*
X138748949Y-109900553D01*
X138212961Y-110703096D01*
X138211666Y-110702231D01*
X138210528Y-110704722D01*
X138204017Y-110709072D01*
X138202423Y-110717082D01*
X138201642Y-110717972D01*
X138201638Y-110717975D01*
X138140857Y-110787274D01*
X138116127Y-110808959D01*
X138045964Y-110855835D01*
X138016461Y-110870382D01*
X137936550Y-110897502D01*
X137904290Y-110903917D01*
X137891588Y-110904749D01*
X137820082Y-110909431D01*
X137787265Y-110907278D01*
X137704494Y-110890809D01*
X137673361Y-110880239D01*
X137597667Y-110842905D01*
X137570326Y-110824633D01*
X137563152Y-110818340D01*
X137506884Y-110768988D01*
X137485199Y-110744258D01*
X137455810Y-110700269D01*
X137438320Y-110674090D01*
X137423774Y-110644589D01*
X137396654Y-110564678D01*
X137390239Y-110532418D01*
X137384725Y-110448210D01*
X137386879Y-110415388D01*
X137403346Y-110332629D01*
X137413920Y-110301483D01*
X137414833Y-110299632D01*
X137453817Y-110220593D01*
X137456015Y-110217218D01*
X137462011Y-110213212D01*
X137463502Y-110205721D01*
X137470142Y-110195525D01*
X137471242Y-110194209D01*
X137475012Y-110186328D01*
X137497223Y-110153072D01*
X138011193Y-109383494D01*
X138013476Y-109385019D01*
X138015475Y-109380786D01*
X138020727Y-109377463D01*
X138025090Y-109358077D01*
X138025845Y-109354724D01*
X138025845Y-109354723D01*
X138029822Y-109337052D01*
X138029043Y-109335820D01*
X138029092Y-109335572D01*
X138025247Y-109329820D01*
X138007677Y-109302047D01*
X138006505Y-109301783D01*
X138006072Y-109301136D01*
X137997006Y-109299335D01*
X137996132Y-109298695D01*
X137985976Y-109289767D01*
X137979447Y-109286469D01*
X137729796Y-109103546D01*
X142019501Y-109103546D01*
X142040341Y-109225704D01*
X142043052Y-109232236D01*
X142043053Y-109232240D01*
X142077563Y-109315393D01*
X142087843Y-109340162D01*
X142091938Y-109345925D01*
X142091939Y-109345927D01*
X142149428Y-109426835D01*
X142159622Y-109441181D01*
X142252081Y-109523694D01*
X142358709Y-109582531D01*
X142360337Y-109584156D01*
X142370992Y-109584149D01*
X142381022Y-109589614D01*
X142389282Y-109591724D01*
X142814685Y-109768515D01*
X142814115Y-109769887D01*
X142816663Y-109770490D01*
X142822337Y-109776156D01*
X142824633Y-109776155D01*
X142842323Y-109781238D01*
X142842324Y-109781239D01*
X142934880Y-109807836D01*
X142934884Y-109807837D01*
X142941685Y-109809791D01*
X143065418Y-109816655D01*
X143072387Y-109815466D01*
X143072389Y-109815466D01*
X143180601Y-109797005D01*
X143180602Y-109797005D01*
X143187576Y-109795815D01*
X143194108Y-109793104D01*
X143194112Y-109793103D01*
X143295502Y-109751024D01*
X143295503Y-109751024D01*
X143302034Y-109748313D01*
X143403053Y-109676534D01*
X143485566Y-109584075D01*
X143521483Y-109518985D01*
X143534313Y-109495733D01*
X143534313Y-109495732D01*
X143544403Y-109477447D01*
X143546028Y-109475819D01*
X143546021Y-109465165D01*
X143551417Y-109455261D01*
X143553550Y-109446889D01*
X144686409Y-106711449D01*
X144687817Y-106712032D01*
X144688433Y-106709422D01*
X144694028Y-106703819D01*
X144694027Y-106701523D01*
X144699808Y-106681405D01*
X144725708Y-106591276D01*
X144725709Y-106591272D01*
X144727663Y-106584471D01*
X144734527Y-106460745D01*
X154265500Y-106460745D01*
X154272367Y-106584479D01*
X154306004Y-106701528D01*
X154306003Y-106703828D01*
X154313531Y-106711366D01*
X154316664Y-106722053D01*
X154321129Y-106729583D01*
X155454007Y-109465069D01*
X155452558Y-109465669D01*
X155454005Y-109468013D01*
X155454000Y-109475819D01*
X155455625Y-109477447D01*
X155514462Y-109584075D01*
X155596975Y-109676534D01*
X155697994Y-109748313D01*
X155704525Y-109751024D01*
X155704526Y-109751024D01*
X155805916Y-109793103D01*
X155805920Y-109793104D01*
X155812452Y-109795815D01*
X155819426Y-109797005D01*
X155819427Y-109797005D01*
X155927639Y-109815466D01*
X155927641Y-109815466D01*
X155934610Y-109816655D01*
X156058343Y-109809791D01*
X156065144Y-109807837D01*
X156065148Y-109807836D01*
X156119576Y-109792195D01*
X156175395Y-109776155D01*
X156177691Y-109776156D01*
X156185231Y-109768627D01*
X156195781Y-109765534D01*
X156203400Y-109761011D01*
X156628973Y-109584149D01*
X156629590Y-109585633D01*
X156631988Y-109584151D01*
X156639691Y-109584156D01*
X156641319Y-109582531D01*
X156747947Y-109523694D01*
X156840406Y-109441181D01*
X156850600Y-109426835D01*
X156908089Y-109345927D01*
X156908090Y-109345925D01*
X156912185Y-109340162D01*
X156922465Y-109315393D01*
X156956975Y-109232240D01*
X156956976Y-109232236D01*
X156959687Y-109225704D01*
X156980527Y-109103546D01*
X156973663Y-108979813D01*
X156940027Y-108862761D01*
X156940028Y-108860465D01*
X156932499Y-108852926D01*
X156929367Y-108842239D01*
X156924903Y-108834711D01*
X156677975Y-108238469D01*
X155792003Y-106099172D01*
X155793396Y-106098595D01*
X155792000Y-106096338D01*
X155791990Y-106088373D01*
X155790367Y-106086753D01*
X155731287Y-105980152D01*
X155698518Y-105943569D01*
X155653269Y-105893054D01*
X155653266Y-105893051D01*
X155648546Y-105887782D01*
X155547325Y-105816140D01*
X155432700Y-105768818D01*
X155425727Y-105767642D01*
X155425725Y-105767641D01*
X155365317Y-105757450D01*
X155310418Y-105748188D01*
X155303352Y-105748593D01*
X155303350Y-105748593D01*
X155263928Y-105750853D01*
X155186612Y-105755286D01*
X155137587Y-105769472D01*
X155089595Y-105783359D01*
X155089594Y-105783359D01*
X155069538Y-105789163D01*
X155067245Y-105789166D01*
X155059721Y-105796708D01*
X155049528Y-105799715D01*
X155040390Y-105805140D01*
X154617102Y-105980135D01*
X154616511Y-105978705D01*
X154614196Y-105980133D01*
X154606337Y-105980128D01*
X154604709Y-105981753D01*
X154498079Y-106040591D01*
X154492804Y-106045298D01*
X154492802Y-106045300D01*
X154460462Y-106074162D01*
X154405620Y-106123105D01*
X154395397Y-106137493D01*
X154338190Y-106218005D01*
X154333841Y-106224125D01*
X154286340Y-106338585D01*
X154265500Y-106460745D01*
X144734527Y-106460745D01*
X144734527Y-106460738D01*
X144713687Y-106338580D01*
X144710976Y-106332048D01*
X144710975Y-106332044D01*
X144668896Y-106230654D01*
X144668896Y-106230653D01*
X144666185Y-106224122D01*
X144658604Y-106213452D01*
X144598501Y-106128866D01*
X144598500Y-106128865D01*
X144594406Y-106123103D01*
X144501947Y-106040590D01*
X144476585Y-106026595D01*
X144413605Y-105991843D01*
X144413604Y-105991843D01*
X144395319Y-105981753D01*
X144393691Y-105980128D01*
X144383037Y-105980135D01*
X144373196Y-105974773D01*
X144364772Y-105972630D01*
X144327694Y-105957301D01*
X143939310Y-105796736D01*
X143939900Y-105795309D01*
X143937257Y-105794686D01*
X143931691Y-105789128D01*
X143929391Y-105789129D01*
X143911706Y-105784047D01*
X143911704Y-105784046D01*
X143819150Y-105757450D01*
X143819147Y-105757450D01*
X143812342Y-105755494D01*
X143688607Y-105748630D01*
X143598774Y-105763957D01*
X143573422Y-105768282D01*
X143573421Y-105768282D01*
X143566448Y-105769472D01*
X143531331Y-105784046D01*
X143458528Y-105814260D01*
X143458526Y-105814261D01*
X143451989Y-105816974D01*
X143350971Y-105888755D01*
X143319025Y-105924553D01*
X143274109Y-105974884D01*
X143268458Y-105981216D01*
X143262594Y-105991843D01*
X143235697Y-106040590D01*
X143209621Y-106087847D01*
X143207996Y-106089474D01*
X143208003Y-106099225D01*
X143206457Y-106102958D01*
X143202244Y-106110685D01*
X143200624Y-106117043D01*
X142067619Y-108852835D01*
X142066211Y-108852252D01*
X142065595Y-108854862D01*
X142060000Y-108860465D01*
X142060001Y-108862761D01*
X142026365Y-108979813D01*
X142019501Y-109103546D01*
X137729796Y-109103546D01*
X137418438Y-108875409D01*
X137414770Y-108872617D01*
X136845832Y-108422862D01*
X136842269Y-108419938D01*
X136290141Y-107949653D01*
X136286722Y-107946631D01*
X135757978Y-107461794D01*
X135760066Y-107459517D01*
X135758816Y-107458656D01*
X139018150Y-107458656D01*
X139019531Y-107465600D01*
X139019531Y-107465602D01*
X139031042Y-107523491D01*
X139042337Y-107580292D01*
X139092983Y-107693495D01*
X139167550Y-107792590D01*
X139172953Y-107797153D01*
X139172954Y-107797154D01*
X139233760Y-107848506D01*
X139260670Y-107871232D01*
X139261944Y-107873139D01*
X139272388Y-107875218D01*
X139280822Y-107882267D01*
X139288821Y-107886086D01*
X139547043Y-108058027D01*
X139671999Y-108141231D01*
X139671121Y-108142549D01*
X139673652Y-108143702D01*
X139677969Y-108150156D01*
X139680245Y-108150608D01*
X139696550Y-108159021D01*
X139696551Y-108159022D01*
X139726143Y-108174291D01*
X139788260Y-108206343D01*
X139795108Y-108208106D01*
X139795111Y-108208107D01*
X139901205Y-108235419D01*
X139901207Y-108235419D01*
X139908058Y-108237183D01*
X140031716Y-108240591D01*
X140153031Y-108216398D01*
X140159482Y-108213508D01*
X140159484Y-108213507D01*
X140259466Y-108168710D01*
X140259469Y-108168708D01*
X140265922Y-108165817D01*
X140275344Y-108158719D01*
X140359073Y-108095642D01*
X140359075Y-108095640D01*
X140364726Y-108091383D01*
X140376682Y-108077210D01*
X140429663Y-108014405D01*
X140429664Y-108014403D01*
X140443098Y-107998478D01*
X140445028Y-107997187D01*
X140446698Y-107988772D01*
X140451894Y-107980999D01*
X140454494Y-107977884D01*
X140454849Y-107977647D01*
X140455264Y-107977091D01*
X140457173Y-107973101D01*
X142104058Y-105509194D01*
X142105339Y-105510051D01*
X142106466Y-105507585D01*
X142113011Y-105503212D01*
X142113458Y-105500963D01*
X142169408Y-105392679D01*
X142200392Y-105272595D01*
X142203878Y-105148633D01*
X156796149Y-105148633D01*
X156799637Y-105272602D01*
X156830623Y-105392687D01*
X156886575Y-105500971D01*
X156887022Y-105503220D01*
X156895872Y-105509132D01*
X156901041Y-105519017D01*
X156906882Y-105525519D01*
X158551892Y-107986621D01*
X158550558Y-107987512D01*
X158552475Y-107989573D01*
X158553967Y-107997137D01*
X158555879Y-107998419D01*
X158634281Y-108091567D01*
X158639928Y-108095831D01*
X158639930Y-108095833D01*
X158683981Y-108129095D01*
X158733152Y-108166224D01*
X158817452Y-108204108D01*
X158838367Y-108213507D01*
X158846157Y-108217008D01*
X158887022Y-108225204D01*
X158960697Y-108239982D01*
X158960700Y-108239982D01*
X158967629Y-108241372D01*
X159091478Y-108238096D01*
X159098337Y-108236338D01*
X159098340Y-108236338D01*
X159204639Y-108209099D01*
X159211492Y-108207343D01*
X159219742Y-108203098D01*
X159279475Y-108172360D01*
X159319750Y-108151635D01*
X159322009Y-108151189D01*
X159327942Y-108142341D01*
X159336367Y-108137949D01*
X159346254Y-108129095D01*
X159400916Y-108092698D01*
X159727483Y-107875249D01*
X159728310Y-107876491D01*
X159730235Y-107874701D01*
X159738084Y-107873139D01*
X159739358Y-107871232D01*
X159832478Y-107792590D01*
X159907045Y-107693495D01*
X159957691Y-107580292D01*
X159968986Y-107523491D01*
X159980497Y-107465602D01*
X159980497Y-107465600D01*
X159981878Y-107458656D01*
X159978392Y-107334689D01*
X159956078Y-107248205D01*
X159949178Y-107221465D01*
X159947408Y-107214605D01*
X159930532Y-107181944D01*
X159901035Y-107124855D01*
X159901034Y-107124853D01*
X159891458Y-107106321D01*
X159891011Y-107104072D01*
X159882158Y-107098157D01*
X159876989Y-107088272D01*
X159871152Y-107081774D01*
X159860259Y-107065476D01*
X158226120Y-104620639D01*
X158227423Y-104619768D01*
X158225547Y-104617753D01*
X158224028Y-104610097D01*
X158222098Y-104608806D01*
X158210269Y-104594783D01*
X158210267Y-104594780D01*
X158148295Y-104521316D01*
X158148290Y-104521311D01*
X158143726Y-104515901D01*
X158127332Y-104503550D01*
X158050573Y-104445724D01*
X158050572Y-104445723D01*
X158044922Y-104441467D01*
X158038469Y-104438576D01*
X158038466Y-104438574D01*
X157938484Y-104393777D01*
X157938482Y-104393776D01*
X157932031Y-104390886D01*
X157810716Y-104366693D01*
X157687058Y-104370101D01*
X157680207Y-104371865D01*
X157680205Y-104371865D01*
X157574111Y-104399177D01*
X157574108Y-104399178D01*
X157567260Y-104400941D01*
X157560972Y-104404186D01*
X157560971Y-104404186D01*
X157490550Y-104440523D01*
X157459245Y-104456676D01*
X157456969Y-104457128D01*
X157451802Y-104464852D01*
X157446662Y-104468275D01*
X157439998Y-104471758D01*
X157435860Y-104475467D01*
X157134425Y-104676182D01*
X157050545Y-104732035D01*
X157049718Y-104730793D01*
X157047793Y-104732583D01*
X157039944Y-104734145D01*
X157038670Y-104736052D01*
X156945549Y-104814695D01*
X156870982Y-104913791D01*
X156868094Y-104920247D01*
X156868092Y-104920251D01*
X156828495Y-105008758D01*
X156820335Y-105026996D01*
X156796149Y-105148633D01*
X142203878Y-105148633D01*
X142203878Y-105148628D01*
X142197493Y-105116515D01*
X142181071Y-105033932D01*
X142179691Y-105026992D01*
X142129045Y-104913789D01*
X142054478Y-104814694D01*
X142046538Y-104807988D01*
X141977302Y-104749517D01*
X141961358Y-104736052D01*
X141960084Y-104734145D01*
X141949640Y-104732066D01*
X141941206Y-104725017D01*
X141933206Y-104721197D01*
X141871448Y-104680074D01*
X141550065Y-104466077D01*
X141550975Y-104464711D01*
X141548359Y-104463517D01*
X141544134Y-104457178D01*
X141541868Y-104456724D01*
X141433826Y-104400748D01*
X141426975Y-104398972D01*
X141426972Y-104398971D01*
X141376291Y-104385835D01*
X141313957Y-104369677D01*
X141306886Y-104369470D01*
X141306883Y-104369470D01*
X141245829Y-104367686D01*
X141190179Y-104366060D01*
X141183240Y-104367432D01*
X141183237Y-104367432D01*
X141130202Y-104377917D01*
X141068699Y-104390076D01*
X140955610Y-104440523D01*
X140949954Y-104444769D01*
X140949951Y-104444771D01*
X140903148Y-104479909D01*
X140856581Y-104514869D01*
X140777967Y-104607748D01*
X140776045Y-104609029D01*
X140773955Y-104619471D01*
X140767574Y-104627088D01*
X140762448Y-104637784D01*
X139117970Y-107098090D01*
X139116689Y-107097233D01*
X139115562Y-107099699D01*
X139109017Y-107104072D01*
X139108570Y-107106321D01*
X139052620Y-107214605D01*
X139050850Y-107221465D01*
X139043951Y-107248205D01*
X139021636Y-107334689D01*
X139018150Y-107458656D01*
X135758816Y-107458656D01*
X135755825Y-107456595D01*
X135754283Y-107452873D01*
X135753609Y-107452594D01*
X135753314Y-107451929D01*
X135735996Y-107445257D01*
X135733110Y-107444103D01*
X135731804Y-107443562D01*
X135716014Y-107437022D01*
X135715342Y-107437300D01*
X135714661Y-107437038D01*
X135705642Y-107441041D01*
X135705641Y-107441041D01*
X135697725Y-107444554D01*
X135694842Y-107445791D01*
X135687692Y-107448753D01*
X135687233Y-107449212D01*
X135676801Y-107453842D01*
X135673165Y-107463280D01*
X135670953Y-107465492D01*
X135662035Y-107473054D01*
X135658384Y-107478061D01*
X134976665Y-108159780D01*
X134975604Y-108158719D01*
X134974060Y-108160863D01*
X134966691Y-108163928D01*
X134963576Y-108171478D01*
X134889673Y-108228352D01*
X134861214Y-108244837D01*
X134798610Y-108270872D01*
X134783394Y-108277200D01*
X134751637Y-108285757D01*
X134668094Y-108296877D01*
X134635201Y-108296924D01*
X134551627Y-108286041D01*
X134519846Y-108277573D01*
X134441937Y-108245431D01*
X134413428Y-108229025D01*
X134346495Y-108177816D01*
X134323207Y-108154595D01*
X134271800Y-108087796D01*
X134255319Y-108059342D01*
X134222956Y-107981522D01*
X134214399Y-107949765D01*
X134203279Y-107866222D01*
X134203232Y-107833326D01*
X134205427Y-107816477D01*
X134214115Y-107749755D01*
X134222583Y-107717974D01*
X134254725Y-107640065D01*
X134271131Y-107611556D01*
X134325865Y-107540016D01*
X134328681Y-107537124D01*
X134335337Y-107534356D01*
X134338249Y-107527298D01*
X134346737Y-107518580D01*
X134348227Y-107517376D01*
X134353365Y-107510502D01*
X135036009Y-106827858D01*
X135037941Y-106829790D01*
X135040713Y-106826046D01*
X135046521Y-106823808D01*
X135063324Y-106785948D01*
X135062872Y-106784775D01*
X135063134Y-106784142D01*
X135056464Y-106768038D01*
X135055332Y-106765203D01*
X135048432Y-106747295D01*
X135047746Y-106746990D01*
X135047283Y-106745873D01*
X135038021Y-106742037D01*
X135037764Y-106741756D01*
X135029176Y-106730538D01*
X135023154Y-106725824D01*
X134553728Y-106213909D01*
X134550675Y-106210455D01*
X134409994Y-106045300D01*
X134080374Y-105658335D01*
X134077478Y-105654806D01*
X133765507Y-105260183D01*
X136398383Y-105260183D01*
X136399958Y-105267083D01*
X136424197Y-105373281D01*
X136425994Y-105381155D01*
X136429062Y-105387525D01*
X136429062Y-105387526D01*
X136446366Y-105423457D01*
X136479832Y-105492949D01*
X136555869Y-105588296D01*
X136556745Y-105590411D01*
X136566583Y-105594486D01*
X136572691Y-105602066D01*
X136582781Y-105609620D01*
X136906651Y-105933489D01*
X136905589Y-105934551D01*
X136907735Y-105936096D01*
X136910800Y-105943465D01*
X136912926Y-105944342D01*
X136927324Y-105955791D01*
X136927325Y-105955792D01*
X136956141Y-105978705D01*
X137008248Y-106020139D01*
X137014631Y-106023202D01*
X137014633Y-106023203D01*
X137023574Y-106027493D01*
X137119975Y-106073749D01*
X137126872Y-106075313D01*
X137126875Y-106075314D01*
X137177324Y-106086753D01*
X137240830Y-106101153D01*
X137332042Y-106101024D01*
X137357673Y-106100988D01*
X137364753Y-106100978D01*
X137485530Y-106073232D01*
X137597105Y-106019306D01*
X137602627Y-106014889D01*
X137602631Y-106014887D01*
X137675926Y-105956266D01*
X137675927Y-105956265D01*
X137692211Y-105943241D01*
X137694337Y-105942357D01*
X137697729Y-105934134D01*
X137703344Y-105928517D01*
X137707557Y-105925112D01*
X137707742Y-105925035D01*
X137708278Y-105924553D01*
X137711159Y-105920698D01*
X139805340Y-103825530D01*
X139806441Y-103826630D01*
X139808040Y-103824412D01*
X139815283Y-103821411D01*
X139816170Y-103819270D01*
X139829225Y-103802900D01*
X139887579Y-103729726D01*
X139887580Y-103729725D01*
X139891992Y-103724192D01*
X139945691Y-103612685D01*
X139973231Y-103492024D01*
X139973231Y-103491331D01*
X159026003Y-103491331D01*
X159053409Y-103612187D01*
X159056467Y-103618559D01*
X159056468Y-103618563D01*
X159097477Y-103704025D01*
X159107021Y-103723915D01*
X159182822Y-103819240D01*
X159183698Y-103821363D01*
X159193533Y-103825453D01*
X159199556Y-103832948D01*
X159209720Y-103840570D01*
X161301622Y-105933457D01*
X161300534Y-105934545D01*
X161302729Y-105936128D01*
X161305745Y-105943411D01*
X161307860Y-105944287D01*
X161322259Y-105955770D01*
X161322260Y-105955771D01*
X161322881Y-105956266D01*
X161403207Y-106020324D01*
X161515001Y-106074162D01*
X161521891Y-106075735D01*
X161521895Y-106075736D01*
X161582087Y-106089474D01*
X161635973Y-106101773D01*
X161760055Y-106101773D01*
X161813941Y-106089474D01*
X161874133Y-106075736D01*
X161874137Y-106075735D01*
X161881027Y-106074162D01*
X161992821Y-106020324D01*
X162088168Y-105944287D01*
X162090283Y-105943411D01*
X162094358Y-105933573D01*
X162101938Y-105927465D01*
X162109492Y-105917375D01*
X162433361Y-105593505D01*
X162434423Y-105594567D01*
X162435968Y-105592421D01*
X162443337Y-105589356D01*
X162444214Y-105587230D01*
X162456344Y-105571976D01*
X162479646Y-105542671D01*
X162520011Y-105491908D01*
X162573621Y-105380181D01*
X162601025Y-105259326D01*
X162600850Y-105135403D01*
X162573104Y-105014626D01*
X162519178Y-104903051D01*
X162514761Y-104897529D01*
X162514759Y-104897525D01*
X162456138Y-104824230D01*
X162456137Y-104824229D01*
X162443113Y-104807945D01*
X162442229Y-104805819D01*
X162434006Y-104802427D01*
X162428389Y-104796812D01*
X162424984Y-104792599D01*
X162424907Y-104792414D01*
X162424427Y-104791880D01*
X162420573Y-104789000D01*
X160325401Y-102694814D01*
X160325401Y-102694813D01*
X160326499Y-102693715D01*
X160324284Y-102692118D01*
X160321283Y-102684873D01*
X160319142Y-102683986D01*
X160224064Y-102608164D01*
X160112557Y-102554465D01*
X159991896Y-102526925D01*
X159868132Y-102526925D01*
X159747471Y-102554465D01*
X159635964Y-102608164D01*
X159540886Y-102683986D01*
X159538745Y-102684873D01*
X159535332Y-102693113D01*
X159529840Y-102698605D01*
X159525382Y-102702198D01*
X159525230Y-102702261D01*
X159524883Y-102702573D01*
X159521937Y-102706508D01*
X159194718Y-103033727D01*
X159193591Y-103032600D01*
X159191953Y-103034868D01*
X159184799Y-103037819D01*
X159183915Y-103039945D01*
X159107849Y-103135052D01*
X159104768Y-103141427D01*
X159057991Y-103238212D01*
X159053923Y-103246628D01*
X159052338Y-103253526D01*
X159052338Y-103253527D01*
X159033840Y-103334051D01*
X159026177Y-103367407D01*
X159026003Y-103491331D01*
X139973231Y-103491331D01*
X139973231Y-103368260D01*
X139945691Y-103247599D01*
X139891992Y-103136092D01*
X139875500Y-103115411D01*
X139829168Y-103057313D01*
X139816170Y-103041014D01*
X139815283Y-103038873D01*
X139807043Y-103035460D01*
X139801551Y-103029968D01*
X139797958Y-103025510D01*
X139797895Y-103025358D01*
X139797583Y-103025011D01*
X139793648Y-103022065D01*
X139466429Y-102694846D01*
X139467556Y-102693719D01*
X139465288Y-102692081D01*
X139462337Y-102684927D01*
X139460211Y-102684043D01*
X139365104Y-102607977D01*
X139253528Y-102554051D01*
X139246630Y-102552466D01*
X139246629Y-102552466D01*
X139139650Y-102527890D01*
X139139647Y-102527890D01*
X139132749Y-102526305D01*
X139125671Y-102526295D01*
X139125670Y-102526295D01*
X139074358Y-102526223D01*
X139008825Y-102526131D01*
X138887969Y-102553537D01*
X138881597Y-102556595D01*
X138881593Y-102556596D01*
X138782622Y-102604087D01*
X138776241Y-102607149D01*
X138680916Y-102682950D01*
X138678793Y-102683826D01*
X138674703Y-102693660D01*
X138667209Y-102699683D01*
X138659585Y-102709850D01*
X136964450Y-104404186D01*
X136566699Y-104801750D01*
X136565611Y-104800662D01*
X136564028Y-104802857D01*
X136556745Y-104805873D01*
X136555869Y-104807988D01*
X136544386Y-104822387D01*
X136544385Y-104822388D01*
X136540864Y-104826803D01*
X136479832Y-104903335D01*
X136425994Y-105015129D01*
X136424421Y-105022019D01*
X136424420Y-105022023D01*
X136409958Y-105085386D01*
X136398383Y-105136101D01*
X136398383Y-105260183D01*
X133765507Y-105260183D01*
X133627688Y-105085851D01*
X133624900Y-105082189D01*
X133624403Y-105081510D01*
X133200901Y-104503550D01*
X133203401Y-104501718D01*
X133199801Y-104498015D01*
X133199020Y-104494084D01*
X133198408Y-104493675D01*
X133198247Y-104492958D01*
X133182535Y-104483019D01*
X133180005Y-104481372D01*
X133164584Y-104471064D01*
X133163863Y-104471207D01*
X133163241Y-104470814D01*
X133153624Y-104472979D01*
X133153622Y-104472978D01*
X133145163Y-104474882D01*
X133142053Y-104475541D01*
X133134517Y-104477038D01*
X133133973Y-104477401D01*
X133122830Y-104479909D01*
X133117425Y-104488453D01*
X133114789Y-104490213D01*
X133104574Y-104495887D01*
X133100035Y-104500067D01*
X132297510Y-105036042D01*
X132296651Y-105034755D01*
X132294657Y-105036610D01*
X132286944Y-105038145D01*
X132282407Y-105044936D01*
X132203099Y-105084053D01*
X132198673Y-105086236D01*
X132167527Y-105096810D01*
X132084768Y-105113277D01*
X132051946Y-105115431D01*
X131980440Y-105110749D01*
X131967738Y-105109917D01*
X131935478Y-105103502D01*
X131855567Y-105076382D01*
X131826064Y-105061835D01*
X131802875Y-105046342D01*
X131778435Y-105030014D01*
X131755898Y-105014957D01*
X131731168Y-104993272D01*
X131675523Y-104929830D01*
X131657251Y-104902489D01*
X131619917Y-104826795D01*
X131609347Y-104795662D01*
X131592878Y-104712891D01*
X131590725Y-104680074D01*
X131596239Y-104595866D01*
X131602654Y-104563606D01*
X131629774Y-104483695D01*
X131644321Y-104454192D01*
X131648276Y-104448273D01*
X131680027Y-104400748D01*
X131691197Y-104384029D01*
X131712882Y-104359299D01*
X131780690Y-104299825D01*
X131784014Y-104297546D01*
X131791084Y-104296139D01*
X131795326Y-104289790D01*
X131805363Y-104282908D01*
X131806943Y-104282082D01*
X131813402Y-104276280D01*
X132616929Y-103739635D01*
X132618343Y-103741752D01*
X132621559Y-103738834D01*
X132627421Y-103737819D01*
X132651288Y-103703964D01*
X132651076Y-103702737D01*
X132651092Y-103702712D01*
X132650932Y-103701906D01*
X132644225Y-103663149D01*
X132643070Y-103662335D01*
X132643020Y-103662084D01*
X132637127Y-103658145D01*
X132635800Y-103657209D01*
X132634840Y-103655628D01*
X132629193Y-103644142D01*
X132624673Y-103638886D01*
X132263106Y-103043497D01*
X132260786Y-103039514D01*
X131941593Y-102467757D01*
X134258784Y-102467757D01*
X134262060Y-102591606D01*
X134263818Y-102598465D01*
X134263818Y-102598468D01*
X134285959Y-102684873D01*
X134292813Y-102711620D01*
X134348521Y-102819878D01*
X134348967Y-102822137D01*
X134357815Y-102828070D01*
X134362207Y-102836495D01*
X134371061Y-102846382D01*
X134535668Y-103093591D01*
X134624907Y-103227611D01*
X134623665Y-103228438D01*
X134625455Y-103230363D01*
X134627017Y-103238212D01*
X134628924Y-103239486D01*
X134707566Y-103332606D01*
X134806661Y-103407173D01*
X134919864Y-103457819D01*
X134926804Y-103459199D01*
X135034554Y-103480625D01*
X135034556Y-103480625D01*
X135041500Y-103482006D01*
X135048578Y-103481807D01*
X135103483Y-103480263D01*
X135165467Y-103478520D01*
X135172322Y-103476751D01*
X135172324Y-103476751D01*
X135278691Y-103449306D01*
X135285551Y-103447536D01*
X135320440Y-103429509D01*
X135375301Y-103401163D01*
X135375303Y-103401162D01*
X135393835Y-103391586D01*
X135396084Y-103391139D01*
X135401999Y-103382286D01*
X135411884Y-103377117D01*
X135418382Y-103371280D01*
X135422901Y-103368260D01*
X137879517Y-101726248D01*
X137880388Y-101727551D01*
X137882403Y-101725675D01*
X137890059Y-101724156D01*
X137891350Y-101722226D01*
X137905373Y-101710397D01*
X137905376Y-101710395D01*
X137978840Y-101648423D01*
X137978845Y-101648418D01*
X137984255Y-101643854D01*
X137992749Y-101632580D01*
X138054432Y-101550701D01*
X138054433Y-101550700D01*
X138058689Y-101545050D01*
X138078365Y-101501137D01*
X138106379Y-101438612D01*
X138106380Y-101438610D01*
X138109270Y-101432159D01*
X138133463Y-101310844D01*
X138133439Y-101309977D01*
X160865932Y-101309977D01*
X160889948Y-101431457D01*
X160940395Y-101544546D01*
X160944641Y-101550202D01*
X160944643Y-101550205D01*
X160988706Y-101608896D01*
X161014741Y-101643575D01*
X161107620Y-101722189D01*
X161108901Y-101724111D01*
X161119343Y-101726201D01*
X161126960Y-101732582D01*
X161137656Y-101737708D01*
X162756742Y-102819911D01*
X163597962Y-103382186D01*
X163597105Y-103383467D01*
X163599571Y-103384594D01*
X163603944Y-103391139D01*
X163606193Y-103391586D01*
X163714477Y-103447536D01*
X163721337Y-103449306D01*
X163827704Y-103476751D01*
X163827706Y-103476751D01*
X163834561Y-103478520D01*
X163896545Y-103480263D01*
X163951450Y-103481807D01*
X163958528Y-103482006D01*
X163965472Y-103480625D01*
X163965474Y-103480625D01*
X164073224Y-103459199D01*
X164080164Y-103457819D01*
X164193367Y-103407173D01*
X164292462Y-103332606D01*
X164313297Y-103307936D01*
X164357639Y-103255430D01*
X164371104Y-103239486D01*
X164373011Y-103238212D01*
X164375090Y-103227768D01*
X164382139Y-103219334D01*
X164385959Y-103211334D01*
X164402774Y-103186082D01*
X164641103Y-102828157D01*
X164642421Y-102829035D01*
X164643574Y-102826504D01*
X164650028Y-102822187D01*
X164650480Y-102819911D01*
X164660074Y-102801319D01*
X164702970Y-102718185D01*
X164702970Y-102718184D01*
X164706215Y-102711896D01*
X164708051Y-102704767D01*
X164735291Y-102598951D01*
X164735291Y-102598949D01*
X164737055Y-102592098D01*
X164740463Y-102468440D01*
X164716270Y-102347125D01*
X164713379Y-102340672D01*
X164668582Y-102240690D01*
X164668580Y-102240687D01*
X164665689Y-102234234D01*
X164661432Y-102228583D01*
X164595514Y-102141083D01*
X164595512Y-102141081D01*
X164591255Y-102135430D01*
X164585846Y-102130867D01*
X164585844Y-102130865D01*
X164514277Y-102070493D01*
X164514275Y-102070492D01*
X164498350Y-102057058D01*
X164497059Y-102055128D01*
X164488644Y-102053458D01*
X164480871Y-102048262D01*
X164477756Y-102045662D01*
X164477519Y-102045307D01*
X164476963Y-102044892D01*
X164472973Y-102042983D01*
X162009066Y-100396098D01*
X162009923Y-100394817D01*
X162007457Y-100393690D01*
X162003084Y-100387145D01*
X162000835Y-100386698D01*
X161892551Y-100330748D01*
X161863898Y-100323355D01*
X161779324Y-100301533D01*
X161779322Y-100301533D01*
X161772467Y-100299764D01*
X161710484Y-100298021D01*
X161655578Y-100296477D01*
X161648500Y-100296278D01*
X161641556Y-100297659D01*
X161641554Y-100297659D01*
X161534259Y-100318995D01*
X161526864Y-100320465D01*
X161413661Y-100371111D01*
X161314566Y-100445678D01*
X161310005Y-100451079D01*
X161310002Y-100451082D01*
X161293728Y-100470352D01*
X161235924Y-100538798D01*
X161234017Y-100540072D01*
X161231938Y-100550516D01*
X161224889Y-100558950D01*
X161221070Y-100566949D01*
X160965949Y-100950091D01*
X160964583Y-100949181D01*
X160963389Y-100951797D01*
X160957050Y-100956022D01*
X160956596Y-100958288D01*
X160900620Y-101066330D01*
X160898844Y-101073181D01*
X160898843Y-101073184D01*
X160890602Y-101104977D01*
X160869549Y-101186199D01*
X160869342Y-101193270D01*
X160869342Y-101193273D01*
X160868146Y-101234218D01*
X160865932Y-101309977D01*
X138133439Y-101309977D01*
X138130055Y-101187186D01*
X138128291Y-101180333D01*
X138100979Y-101074239D01*
X138100978Y-101074236D01*
X138099215Y-101067388D01*
X138072834Y-101016262D01*
X138053040Y-100977900D01*
X138053039Y-100977899D01*
X138043480Y-100959373D01*
X138043028Y-100957097D01*
X138035304Y-100951930D01*
X138031881Y-100946790D01*
X138028398Y-100940126D01*
X138024689Y-100935988D01*
X137768121Y-100550673D01*
X137769363Y-100549846D01*
X137767573Y-100547921D01*
X137766011Y-100540072D01*
X137764104Y-100538798D01*
X137685461Y-100445677D01*
X137586365Y-100371110D01*
X137517115Y-100340128D01*
X137479620Y-100323353D01*
X137479619Y-100323353D01*
X137473160Y-100320463D01*
X137351523Y-100296277D01*
X137344450Y-100296476D01*
X137338845Y-100296634D01*
X137227554Y-100299765D01*
X137107469Y-100330751D01*
X137101184Y-100333999D01*
X137101183Y-100333999D01*
X137089322Y-100340128D01*
X136999185Y-100386703D01*
X136996936Y-100387150D01*
X136991024Y-100396000D01*
X136981139Y-100401169D01*
X136974637Y-100407010D01*
X135922005Y-101110593D01*
X134513535Y-102052020D01*
X134512644Y-102050686D01*
X134510583Y-102052603D01*
X134503019Y-102054095D01*
X134501737Y-102056007D01*
X134408589Y-102134409D01*
X134333932Y-102233280D01*
X134283148Y-102346285D01*
X134274952Y-102387150D01*
X134261747Y-102452986D01*
X134258784Y-102467757D01*
X131941593Y-102467757D01*
X131907270Y-102406276D01*
X131905097Y-102402210D01*
X131574989Y-101756481D01*
X131572966Y-101752339D01*
X131566150Y-101737708D01*
X131270016Y-101102089D01*
X131272825Y-101100780D01*
X131270017Y-101096447D01*
X131270018Y-101092441D01*
X131269499Y-101091922D01*
X131269481Y-101091188D01*
X131262337Y-101084393D01*
X131262337Y-101084392D01*
X131256067Y-101078428D01*
X131253815Y-101076232D01*
X131240735Y-101063145D01*
X131240001Y-101063145D01*
X131239469Y-101062639D01*
X131229614Y-101062886D01*
X131229613Y-101062885D01*
X131220957Y-101063102D01*
X131217794Y-101063142D01*
X131210080Y-101063140D01*
X131209478Y-101063389D01*
X131198060Y-101063675D01*
X131191091Y-101071001D01*
X131188171Y-101072210D01*
X131177041Y-101075783D01*
X131171770Y-101079000D01*
X130280044Y-101448154D01*
X130279577Y-101447027D01*
X130277749Y-101448157D01*
X130270245Y-101448166D01*
X130264476Y-101453948D01*
X130202371Y-101470667D01*
X130174333Y-101478215D01*
X130141727Y-101482547D01*
X130099834Y-101482596D01*
X130057346Y-101482646D01*
X130024735Y-101478392D01*
X129943202Y-101456647D01*
X129912800Y-101444095D01*
X129839676Y-101401991D01*
X129813560Y-101382000D01*
X129753821Y-101322401D01*
X129733774Y-101296338D01*
X129691495Y-101223306D01*
X129678874Y-101192934D01*
X129656941Y-101111460D01*
X129652609Y-101078855D01*
X129652510Y-100994477D01*
X129656764Y-100961863D01*
X129678509Y-100880330D01*
X129691061Y-100849928D01*
X129733165Y-100776804D01*
X129753156Y-100750688D01*
X129812754Y-100690950D01*
X129838819Y-100670901D01*
X129916874Y-100625715D01*
X129920571Y-100624127D01*
X129927783Y-100624118D01*
X129933178Y-100618710D01*
X129944353Y-100613909D01*
X129946191Y-100613367D01*
X129953570Y-100608984D01*
X130845477Y-100239753D01*
X130846478Y-100242172D01*
X130850305Y-100239874D01*
X130856354Y-100240025D01*
X130865242Y-100231571D01*
X130865651Y-100232001D01*
X130866611Y-100231266D01*
X130867082Y-100231882D01*
X130867447Y-100231785D01*
X130866293Y-100230572D01*
X130873772Y-100223458D01*
X130886368Y-100211477D01*
X130886393Y-100210481D01*
X130887011Y-100209863D01*
X130887015Y-100189758D01*
X130887015Y-100187136D01*
X130887022Y-100186572D01*
X130887015Y-100186548D01*
X130887015Y-100185563D01*
X130887402Y-100170069D01*
X130887018Y-100169665D01*
X130887018Y-100168441D01*
X130879793Y-100161213D01*
X130879663Y-100160856D01*
X130876015Y-100147176D01*
X130872244Y-100140495D01*
X130872023Y-100139887D01*
X130634481Y-99487938D01*
X130632983Y-99483578D01*
X130617186Y-99434738D01*
X132683501Y-99434738D01*
X132690365Y-99558471D01*
X132724001Y-99675523D01*
X132724000Y-99677819D01*
X132731529Y-99685359D01*
X132734622Y-99695909D01*
X132739145Y-99703528D01*
X132900095Y-100090813D01*
X132916007Y-100129101D01*
X132914523Y-100129718D01*
X132916005Y-100132116D01*
X132916000Y-100139819D01*
X132917625Y-100141447D01*
X132976462Y-100248075D01*
X133058975Y-100340534D01*
X133064737Y-100344628D01*
X133064738Y-100344629D01*
X133152531Y-100407010D01*
X133159994Y-100412313D01*
X133166525Y-100415024D01*
X133166526Y-100415024D01*
X133267916Y-100457103D01*
X133267920Y-100457104D01*
X133274452Y-100459815D01*
X133281426Y-100461005D01*
X133281427Y-100461005D01*
X133389639Y-100479466D01*
X133389641Y-100479466D01*
X133396610Y-100480655D01*
X133520343Y-100473791D01*
X133527144Y-100471837D01*
X133527148Y-100471836D01*
X133599369Y-100451082D01*
X133637395Y-100440155D01*
X133639691Y-100440156D01*
X133647230Y-100432627D01*
X133657917Y-100429495D01*
X133665445Y-100425031D01*
X133673455Y-100421714D01*
X136400985Y-99292131D01*
X136401561Y-99293522D01*
X136403816Y-99292128D01*
X136411783Y-99292118D01*
X136413403Y-99290495D01*
X136520004Y-99231415D01*
X136555337Y-99199765D01*
X136607102Y-99153397D01*
X136607105Y-99153394D01*
X136612374Y-99148674D01*
X136679272Y-99054156D01*
X136679931Y-99053225D01*
X136679932Y-99053223D01*
X136684016Y-99047453D01*
X136722542Y-98954135D01*
X136728639Y-98939366D01*
X136728639Y-98939365D01*
X136731338Y-98932828D01*
X136751799Y-98811549D01*
X162248502Y-98811549D01*
X162269344Y-98933708D01*
X162278493Y-98955753D01*
X162301493Y-99011172D01*
X162316846Y-99048167D01*
X162388627Y-99149185D01*
X162481088Y-99231698D01*
X162587719Y-99290535D01*
X162589346Y-99292160D01*
X162599098Y-99292153D01*
X162602825Y-99293697D01*
X162610558Y-99297913D01*
X162616919Y-99299534D01*
X165352707Y-100432537D01*
X165352124Y-100433945D01*
X165354734Y-100434561D01*
X165360337Y-100440156D01*
X165362633Y-100440155D01*
X165380327Y-100445240D01*
X165380328Y-100445240D01*
X165472880Y-100471836D01*
X165472884Y-100471837D01*
X165479685Y-100473791D01*
X165603418Y-100480655D01*
X165610387Y-100479466D01*
X165610389Y-100479466D01*
X165718601Y-100461005D01*
X165718602Y-100461005D01*
X165725576Y-100459815D01*
X165732108Y-100457104D01*
X165732112Y-100457103D01*
X165833502Y-100415024D01*
X165833503Y-100415024D01*
X165840034Y-100412313D01*
X165847498Y-100407010D01*
X165935290Y-100344629D01*
X165935291Y-100344628D01*
X165941053Y-100340534D01*
X166023566Y-100248075D01*
X166031183Y-100234272D01*
X166072313Y-100159733D01*
X166072313Y-100159732D01*
X166082403Y-100141447D01*
X166084028Y-100139819D01*
X166084021Y-100129164D01*
X166089486Y-100119134D01*
X166091596Y-100110874D01*
X166268387Y-99685471D01*
X166269759Y-99686041D01*
X166270362Y-99683493D01*
X166276028Y-99677819D01*
X166276027Y-99675523D01*
X166281111Y-99657832D01*
X166307708Y-99565276D01*
X166307709Y-99565272D01*
X166309663Y-99558471D01*
X166316527Y-99434738D01*
X166295687Y-99312580D01*
X166292976Y-99306048D01*
X166292975Y-99306044D01*
X166250896Y-99204654D01*
X166250896Y-99204653D01*
X166248185Y-99198122D01*
X166243928Y-99192130D01*
X166180501Y-99102866D01*
X166180500Y-99102865D01*
X166176406Y-99097103D01*
X166114244Y-99041628D01*
X166089224Y-99019299D01*
X166089222Y-99019298D01*
X166083947Y-99014590D01*
X165977319Y-98955753D01*
X165975691Y-98954128D01*
X165965037Y-98954135D01*
X165955133Y-98948739D01*
X165946765Y-98946607D01*
X163211321Y-97813747D01*
X163211904Y-97812339D01*
X163209294Y-97811723D01*
X163203691Y-97806128D01*
X163201395Y-97806129D01*
X163183701Y-97801044D01*
X163183700Y-97801044D01*
X163091148Y-97774448D01*
X163091144Y-97774447D01*
X163084343Y-97772493D01*
X162960610Y-97765629D01*
X162953641Y-97766818D01*
X162953639Y-97766818D01*
X162845427Y-97785279D01*
X162838452Y-97786469D01*
X162831920Y-97789180D01*
X162831916Y-97789181D01*
X162730536Y-97831256D01*
X162723994Y-97833971D01*
X162718231Y-97838066D01*
X162718229Y-97838067D01*
X162670324Y-97872106D01*
X162622975Y-97905750D01*
X162540462Y-97998209D01*
X162481625Y-98104837D01*
X162480000Y-98106465D01*
X162480007Y-98117119D01*
X162474645Y-98126960D01*
X162472502Y-98135383D01*
X162296608Y-98560846D01*
X162295181Y-98560256D01*
X162294558Y-98562899D01*
X162289000Y-98568465D01*
X162289001Y-98570765D01*
X162283919Y-98588450D01*
X162283918Y-98588452D01*
X162257322Y-98681006D01*
X162255366Y-98687814D01*
X162248502Y-98811549D01*
X136751799Y-98811549D01*
X136751968Y-98810546D01*
X136750847Y-98790983D01*
X136746825Y-98720843D01*
X136744870Y-98686740D01*
X136724284Y-98615598D01*
X136716797Y-98589723D01*
X136716797Y-98589722D01*
X136710993Y-98569666D01*
X136710990Y-98567373D01*
X136703448Y-98559849D01*
X136700441Y-98549656D01*
X136695016Y-98540518D01*
X136520021Y-98117230D01*
X136521451Y-98116639D01*
X136520023Y-98114324D01*
X136520028Y-98106465D01*
X136518403Y-98104837D01*
X136459565Y-97998207D01*
X136426698Y-97961378D01*
X136381761Y-97911026D01*
X136377051Y-97905748D01*
X136276031Y-97833969D01*
X136161571Y-97786468D01*
X136091118Y-97774449D01*
X136046383Y-97766817D01*
X136046380Y-97766817D01*
X136039411Y-97765628D01*
X136032347Y-97766020D01*
X136032346Y-97766020D01*
X135990038Y-97768368D01*
X135915677Y-97772495D01*
X135798628Y-97806132D01*
X135796328Y-97806131D01*
X135788790Y-97813659D01*
X135778103Y-97816792D01*
X135770573Y-97821257D01*
X133035088Y-98954135D01*
X133034488Y-98952685D01*
X133032142Y-98954133D01*
X133024337Y-98954128D01*
X133022709Y-98955753D01*
X132916081Y-99014590D01*
X132910806Y-99019298D01*
X132910804Y-99019299D01*
X132885784Y-99041628D01*
X132823622Y-99097103D01*
X132819528Y-99102865D01*
X132819527Y-99102866D01*
X132756101Y-99192130D01*
X132751843Y-99198122D01*
X132749132Y-99204653D01*
X132749132Y-99204654D01*
X132707053Y-99306044D01*
X132707052Y-99306048D01*
X132704341Y-99312580D01*
X132683501Y-99434738D01*
X130617186Y-99434738D01*
X130409800Y-98793545D01*
X130408462Y-98789134D01*
X130210664Y-98091387D01*
X130209488Y-98086930D01*
X130039213Y-97390061D01*
X130042229Y-97389324D01*
X130040318Y-97384518D01*
X130041098Y-97380601D01*
X130040688Y-97379987D01*
X130040814Y-97379260D01*
X130032358Y-97367264D01*
X130030142Y-97364120D01*
X130028360Y-97361523D01*
X130018096Y-97346152D01*
X130017372Y-97346008D01*
X130016947Y-97345405D01*
X129998751Y-97342256D01*
X129995650Y-97341680D01*
X129988032Y-97340162D01*
X129987388Y-97340290D01*
X129976132Y-97338342D01*
X129967871Y-97344166D01*
X129964754Y-97344785D01*
X129953143Y-97346117D01*
X129947353Y-97348240D01*
X129001496Y-97536070D01*
X129001230Y-97534732D01*
X128998979Y-97535572D01*
X128991400Y-97534073D01*
X128984613Y-97538618D01*
X128891619Y-97544811D01*
X128858794Y-97542693D01*
X128857359Y-97542409D01*
X128838024Y-97538584D01*
X128776180Y-97526349D01*
X128745023Y-97515809D01*
X128669450Y-97478639D01*
X128642082Y-97460394D01*
X128578705Y-97404931D01*
X128556991Y-97380223D01*
X128510126Y-97310243D01*
X128495547Y-97280758D01*
X128468393Y-97201039D01*
X128461943Y-97168786D01*
X128456346Y-97084748D01*
X128458463Y-97051922D01*
X128474807Y-96969308D01*
X128485347Y-96938151D01*
X128522517Y-96862578D01*
X128540762Y-96835210D01*
X128596225Y-96771833D01*
X128620933Y-96750119D01*
X128690913Y-96703254D01*
X128720396Y-96688676D01*
X128805610Y-96659650D01*
X128809554Y-96658812D01*
X128816628Y-96660211D01*
X128822973Y-96655962D01*
X128834870Y-96653435D01*
X128836661Y-96653273D01*
X128844844Y-96650378D01*
X129221298Y-96575240D01*
X129791584Y-96461414D01*
X129792084Y-96463921D01*
X129796184Y-96462449D01*
X129801879Y-96463730D01*
X129811974Y-96457344D01*
X129812272Y-96457815D01*
X129812778Y-96457567D01*
X129812552Y-96457230D01*
X129812555Y-96457228D01*
X129818103Y-96453516D01*
X129820767Y-96451782D01*
X129836885Y-96441586D01*
X129837054Y-96440835D01*
X129838033Y-96440180D01*
X129840940Y-96425518D01*
X129842568Y-96417302D01*
X129842568Y-96417301D01*
X129844186Y-96409137D01*
X129845978Y-96401175D01*
X129845816Y-96400918D01*
X129846087Y-96399549D01*
X129840204Y-96390756D01*
X129840200Y-96390729D01*
X129840154Y-96390136D01*
X129839259Y-96376218D01*
X129836816Y-96368793D01*
X129803509Y-96152882D01*
X131733281Y-96152882D01*
X131737587Y-96204742D01*
X131741249Y-96248836D01*
X131743370Y-96274385D01*
X131742920Y-96276631D01*
X131748824Y-96285492D01*
X131749610Y-96294417D01*
X131754362Y-96307901D01*
X131844036Y-96757185D01*
X131842532Y-96757485D01*
X131843477Y-96760012D01*
X131841945Y-96767756D01*
X131843231Y-96769676D01*
X131848828Y-96787173D01*
X131878162Y-96878878D01*
X131878164Y-96878883D01*
X131880317Y-96885613D01*
X131943365Y-96992241D01*
X131948233Y-96997379D01*
X131948235Y-96997382D01*
X132023693Y-97077029D01*
X132028560Y-97082166D01*
X132080091Y-97116520D01*
X132125737Y-97146952D01*
X132125740Y-97146953D01*
X132131628Y-97150879D01*
X132138244Y-97153396D01*
X132138245Y-97153397D01*
X132178688Y-97168786D01*
X132247403Y-97194933D01*
X132370078Y-97212121D01*
X132377127Y-97211519D01*
X132377128Y-97211519D01*
X132470597Y-97203537D01*
X132470599Y-97203536D01*
X132491365Y-97201763D01*
X132493628Y-97202211D01*
X132500431Y-97197655D01*
X132511314Y-97195487D01*
X132513606Y-97195280D01*
X132514300Y-97195417D01*
X132515090Y-97195303D01*
X132518772Y-97194002D01*
X135425047Y-96615118D01*
X135425344Y-96616610D01*
X135427852Y-96615673D01*
X135435628Y-96617211D01*
X135437548Y-96615925D01*
X135510246Y-96592670D01*
X135546752Y-96580993D01*
X135546754Y-96580992D01*
X135553485Y-96578839D01*
X135660113Y-96515791D01*
X135665251Y-96510923D01*
X135665254Y-96510921D01*
X135744901Y-96435463D01*
X135744902Y-96435462D01*
X135750038Y-96430596D01*
X135818751Y-96327528D01*
X135839692Y-96272496D01*
X135860288Y-96218368D01*
X135860288Y-96218367D01*
X135862805Y-96211753D01*
X135879959Y-96089323D01*
X163119053Y-96089323D01*
X163120038Y-96096333D01*
X163120038Y-96096335D01*
X163128975Y-96159935D01*
X163136320Y-96212212D01*
X163180500Y-96328177D01*
X163249378Y-96431404D01*
X163254514Y-96436266D01*
X163254515Y-96436267D01*
X163272165Y-96452975D01*
X163339499Y-96516715D01*
X163446344Y-96579833D01*
X163562532Y-96616947D01*
X163564431Y-96618217D01*
X163574883Y-96616145D01*
X163583624Y-96618886D01*
X163597718Y-96619647D01*
X166497482Y-97197234D01*
X166497178Y-97198762D01*
X166499914Y-97198861D01*
X166506421Y-97203215D01*
X166508662Y-97202771D01*
X166630194Y-97213102D01*
X166637204Y-97212117D01*
X166637206Y-97212117D01*
X166679188Y-97206218D01*
X166753081Y-97195835D01*
X166824081Y-97168786D01*
X166862431Y-97154176D01*
X166862433Y-97154175D01*
X166869045Y-97151656D01*
X166876096Y-97146952D01*
X166966387Y-97086707D01*
X166972271Y-97082781D01*
X167057582Y-96992662D01*
X167120701Y-96885820D01*
X167157817Y-96769634D01*
X167159087Y-96767735D01*
X167157015Y-96757284D01*
X167159768Y-96748504D01*
X167160530Y-96734443D01*
X167166756Y-96703254D01*
X167250108Y-96285643D01*
X167251578Y-96285936D01*
X167251672Y-96283298D01*
X167256104Y-96276652D01*
X167255651Y-96274384D01*
X167265767Y-96153126D01*
X167248345Y-96030528D01*
X167227544Y-95976184D01*
X167206608Y-95921490D01*
X167206607Y-95921488D01*
X167204078Y-95914881D01*
X167199712Y-95908359D01*
X167139121Y-95817858D01*
X167139119Y-95817856D01*
X167135188Y-95811984D01*
X167085242Y-95764851D01*
X167050268Y-95731846D01*
X167050265Y-95731844D01*
X167045128Y-95726996D01*
X166938415Y-95664179D01*
X166931674Y-95662037D01*
X166931671Y-95662036D01*
X166842318Y-95633648D01*
X166822448Y-95627335D01*
X166820524Y-95626052D01*
X166812495Y-95627657D01*
X166801587Y-95625488D01*
X166799434Y-95624816D01*
X166798843Y-95624422D01*
X166798024Y-95624213D01*
X166794141Y-95624007D01*
X163887539Y-95046045D01*
X163887845Y-95044506D01*
X163885090Y-95044407D01*
X163878607Y-95040069D01*
X163876366Y-95040513D01*
X163754834Y-95030182D01*
X163747824Y-95031167D01*
X163747822Y-95031167D01*
X163705840Y-95037066D01*
X163631947Y-95047449D01*
X163585846Y-95065012D01*
X163522597Y-95089108D01*
X163522595Y-95089109D01*
X163515983Y-95091628D01*
X163510096Y-95095556D01*
X163510094Y-95095557D01*
X163451873Y-95134404D01*
X163412757Y-95160503D01*
X163327446Y-95250622D01*
X163264327Y-95357464D01*
X163227211Y-95473650D01*
X163225941Y-95475549D01*
X163228013Y-95486001D01*
X163225246Y-95494823D01*
X163224483Y-95508846D01*
X163134933Y-95956593D01*
X163133431Y-95956293D01*
X163133332Y-95958986D01*
X163128941Y-95965549D01*
X163129384Y-95967786D01*
X163119053Y-96089323D01*
X135879959Y-96089323D01*
X135879993Y-96089078D01*
X135874390Y-96023471D01*
X135871409Y-95988558D01*
X135871408Y-95988556D01*
X135869635Y-95967791D01*
X135870083Y-95965528D01*
X135865518Y-95958712D01*
X135863372Y-95947984D01*
X135863142Y-95945435D01*
X135863273Y-95944771D01*
X135863185Y-95944162D01*
X135861858Y-95940412D01*
X135770994Y-95486089D01*
X135772510Y-95485786D01*
X135771558Y-95483241D01*
X135773083Y-95475528D01*
X135771800Y-95473612D01*
X135766198Y-95456101D01*
X135766198Y-95456096D01*
X135736870Y-95364413D01*
X135736867Y-95364407D01*
X135734712Y-95357669D01*
X135671662Y-95251040D01*
X135586465Y-95161115D01*
X135483395Y-95092403D01*
X135476788Y-95089889D01*
X135476786Y-95089888D01*
X135374231Y-95050865D01*
X135374229Y-95050864D01*
X135367618Y-95048349D01*
X135244942Y-95031162D01*
X135237894Y-95031764D01*
X135237892Y-95031764D01*
X135208359Y-95034287D01*
X135123653Y-95041522D01*
X135121390Y-95041075D01*
X135114593Y-95045627D01*
X135103576Y-95047818D01*
X135101514Y-95048005D01*
X135100797Y-95047863D01*
X135099833Y-95048003D01*
X135096216Y-95049281D01*
X132190050Y-95627156D01*
X132189740Y-95625597D01*
X132187125Y-95626570D01*
X132179525Y-95625048D01*
X132177619Y-95626318D01*
X132061407Y-95663191D01*
X131954479Y-95726078D01*
X131864225Y-95811183D01*
X131795172Y-95914237D01*
X131750782Y-96030073D01*
X131749785Y-96037069D01*
X131749784Y-96037073D01*
X131741339Y-96096335D01*
X131733281Y-96152882D01*
X129803509Y-96152882D01*
X129730995Y-95682810D01*
X129730376Y-95678242D01*
X129708189Y-95488611D01*
X129646097Y-94957895D01*
X129645646Y-94953322D01*
X129645626Y-94953063D01*
X129612649Y-94541127D01*
X129587774Y-94230382D01*
X129587490Y-94225782D01*
X129556439Y-93509062D01*
X129559527Y-93508928D01*
X129558593Y-93503862D01*
X129560134Y-93500142D01*
X129559855Y-93499469D01*
X129560117Y-93498789D01*
X129552605Y-93481862D01*
X129551386Y-93479022D01*
X129544283Y-93461873D01*
X129543610Y-93461594D01*
X129543314Y-93460928D01*
X129526004Y-93454260D01*
X129523138Y-93453114D01*
X129521831Y-93452573D01*
X129521830Y-93452573D01*
X129515961Y-93450142D01*
X129515313Y-93450142D01*
X129504661Y-93446039D01*
X129495416Y-93450142D01*
X129492279Y-93450142D01*
X129480632Y-93449184D01*
X129474514Y-93450142D01*
X128509961Y-93450142D01*
X128509961Y-93448596D01*
X128507278Y-93449031D01*
X128500014Y-93446022D01*
X128492466Y-93449148D01*
X128399991Y-93436974D01*
X128368218Y-93428460D01*
X128290342Y-93396202D01*
X128261857Y-93379756D01*
X128194977Y-93328437D01*
X128171719Y-93305179D01*
X128129487Y-93250142D01*
X131445894Y-93250142D01*
X131446773Y-93252265D01*
X131460411Y-93373303D01*
X131501346Y-93490288D01*
X131567286Y-93595231D01*
X131654925Y-93682870D01*
X131759868Y-93748810D01*
X131876853Y-93789745D01*
X131997891Y-93803383D01*
X132000014Y-93804262D01*
X132009856Y-93800186D01*
X132020990Y-93801381D01*
X132029605Y-93800142D01*
X134990067Y-93800142D01*
X134990067Y-93801690D01*
X134992753Y-93801255D01*
X135000014Y-93804262D01*
X135002137Y-93803383D01*
X135123175Y-93789745D01*
X135240160Y-93748810D01*
X135345103Y-93682870D01*
X135432742Y-93595231D01*
X135498682Y-93490288D01*
X135539617Y-93373303D01*
X135553255Y-93252265D01*
X135554134Y-93250142D01*
X135550058Y-93240300D01*
X135551253Y-93229166D01*
X135550014Y-93220551D01*
X135550014Y-93000142D01*
X146194318Y-93000142D01*
X146214956Y-93156904D01*
X146275464Y-93302983D01*
X146371718Y-93428424D01*
X146378264Y-93433447D01*
X146407918Y-93456201D01*
X146497159Y-93524678D01*
X146643238Y-93585186D01*
X146651426Y-93586264D01*
X146719538Y-93595231D01*
X146800000Y-93605824D01*
X146808188Y-93604746D01*
X146842423Y-93600239D01*
X146880462Y-93595231D01*
X146948574Y-93586264D01*
X146956762Y-93585186D01*
X147102841Y-93524678D01*
X147192082Y-93456201D01*
X147221736Y-93433447D01*
X147228282Y-93428424D01*
X147324536Y-93302983D01*
X147385044Y-93156904D01*
X147399266Y-93048880D01*
X147959648Y-93048880D01*
X147960174Y-93053700D01*
X147960174Y-93053703D01*
X147983833Y-93270547D01*
X147985349Y-93284439D01*
X148046858Y-93513273D01*
X148048819Y-93517706D01*
X148129083Y-93699148D01*
X148142719Y-93729974D01*
X148270668Y-93929417D01*
X148427679Y-94106888D01*
X148610041Y-94258191D01*
X148614197Y-94260675D01*
X148614203Y-94260679D01*
X148809278Y-94377262D01*
X148809283Y-94377265D01*
X148813442Y-94379750D01*
X148923258Y-94424220D01*
X149028576Y-94466870D01*
X149028582Y-94466872D01*
X149033074Y-94468691D01*
X149263744Y-94522910D01*
X149268582Y-94523283D01*
X149268588Y-94523284D01*
X149495163Y-94540754D01*
X149500000Y-94541127D01*
X149504837Y-94540754D01*
X149731412Y-94523284D01*
X149731418Y-94523283D01*
X149736256Y-94522910D01*
X149966926Y-94468691D01*
X149971418Y-94466872D01*
X149971424Y-94466870D01*
X150076742Y-94424220D01*
X150186558Y-94379750D01*
X150190717Y-94377265D01*
X150190722Y-94377262D01*
X150385797Y-94260679D01*
X150385803Y-94260675D01*
X150389959Y-94258191D01*
X150572321Y-94106888D01*
X150729332Y-93929417D01*
X150857281Y-93729974D01*
X150870918Y-93699148D01*
X150951181Y-93517706D01*
X150953142Y-93513273D01*
X151014651Y-93284439D01*
X151016167Y-93270547D01*
X151039826Y-93053703D01*
X151039826Y-93053700D01*
X151040352Y-93048880D01*
X151038146Y-93000142D01*
X151594318Y-93000142D01*
X151614956Y-93156904D01*
X151675464Y-93302983D01*
X151771718Y-93428424D01*
X151778264Y-93433447D01*
X151807918Y-93456201D01*
X151897159Y-93524678D01*
X152043238Y-93585186D01*
X152051426Y-93586264D01*
X152119538Y-93595231D01*
X152200000Y-93605824D01*
X152208188Y-93604746D01*
X152242423Y-93600239D01*
X152280462Y-93595231D01*
X152348574Y-93586264D01*
X152356762Y-93585186D01*
X152502841Y-93524678D01*
X152592082Y-93456201D01*
X152621736Y-93433447D01*
X152628282Y-93428424D01*
X152724536Y-93302983D01*
X152746423Y-93250142D01*
X163445894Y-93250142D01*
X163446773Y-93252265D01*
X163448833Y-93270547D01*
X163455356Y-93328437D01*
X163460411Y-93373304D01*
X163501347Y-93490291D01*
X163567289Y-93595234D01*
X163654929Y-93682874D01*
X163660925Y-93686641D01*
X163660927Y-93686643D01*
X163736397Y-93734062D01*
X163759874Y-93748813D01*
X163876861Y-93789747D01*
X163943776Y-93797285D01*
X163977154Y-93801046D01*
X163977155Y-93801046D01*
X163997901Y-93803383D01*
X164000024Y-93804262D01*
X164009865Y-93800185D01*
X164021001Y-93801381D01*
X164029615Y-93800142D01*
X166990067Y-93800142D01*
X166990067Y-93801690D01*
X166992753Y-93801255D01*
X167000014Y-93804262D01*
X167002137Y-93803383D01*
X167123175Y-93789745D01*
X167240160Y-93748810D01*
X167345103Y-93682870D01*
X167432742Y-93595231D01*
X167498682Y-93490288D01*
X167539617Y-93373303D01*
X167553255Y-93252265D01*
X167554134Y-93250142D01*
X167550058Y-93240300D01*
X167551253Y-93229166D01*
X167550014Y-93220551D01*
X167550014Y-92760089D01*
X167551562Y-92760089D01*
X167551127Y-92757403D01*
X167554134Y-92750142D01*
X167553255Y-92748019D01*
X167539617Y-92626981D01*
X167498682Y-92509996D01*
X167432742Y-92405053D01*
X167345103Y-92317414D01*
X167240160Y-92251474D01*
X167123175Y-92210539D01*
X167002137Y-92196901D01*
X167000014Y-92196022D01*
X166990172Y-92200098D01*
X166979038Y-92198903D01*
X166970423Y-92200142D01*
X164009961Y-92200142D01*
X164009961Y-92198594D01*
X164007275Y-92199029D01*
X164000014Y-92196022D01*
X163997891Y-92196901D01*
X163876853Y-92210539D01*
X163759868Y-92251474D01*
X163654925Y-92317414D01*
X163567286Y-92405053D01*
X163501346Y-92509996D01*
X163460411Y-92626981D01*
X163446773Y-92748019D01*
X163445894Y-92750142D01*
X163449970Y-92759984D01*
X163448775Y-92771118D01*
X163450014Y-92779733D01*
X163450014Y-93240195D01*
X163448466Y-93240195D01*
X163448901Y-93242881D01*
X163445894Y-93250142D01*
X152746423Y-93250142D01*
X152785044Y-93156904D01*
X152805682Y-93000142D01*
X152785044Y-92843380D01*
X152724536Y-92697301D01*
X152628282Y-92571860D01*
X152599979Y-92550142D01*
X152567395Y-92525140D01*
X152502841Y-92475606D01*
X152356762Y-92415098D01*
X152325992Y-92411047D01*
X152278381Y-92404779D01*
X152200000Y-92394460D01*
X152121619Y-92404779D01*
X152074009Y-92411047D01*
X152043238Y-92415098D01*
X151897159Y-92475606D01*
X151832605Y-92525140D01*
X151800022Y-92550142D01*
X151771718Y-92571860D01*
X151675464Y-92697301D01*
X151614956Y-92843380D01*
X151594318Y-93000142D01*
X151038146Y-93000142D01*
X151029637Y-92812165D01*
X150982761Y-92579891D01*
X150953949Y-92501699D01*
X150902507Y-92362094D01*
X150902506Y-92362091D01*
X150900832Y-92357549D01*
X150785785Y-92150395D01*
X150782809Y-92146567D01*
X150651462Y-91977628D01*
X150651461Y-91977627D01*
X150640342Y-91963326D01*
X150640045Y-91963596D01*
X150638798Y-91963009D01*
X150638269Y-91961731D01*
X150630741Y-91958613D01*
X150630739Y-91958611D01*
X150622964Y-91955391D01*
X150619109Y-91953686D01*
X150618961Y-91953663D01*
X150602573Y-91945942D01*
X150592552Y-91949545D01*
X150586085Y-91948536D01*
X150573842Y-91950000D01*
X148408718Y-91950001D01*
X148408718Y-91949883D01*
X148408502Y-91949923D01*
X148397427Y-91945942D01*
X148387793Y-91950481D01*
X148387792Y-91950481D01*
X148382479Y-91952984D01*
X148377002Y-91955407D01*
X148361732Y-91961732D01*
X148361204Y-91963008D01*
X148359955Y-91963596D01*
X148359658Y-91963326D01*
X148349836Y-91975959D01*
X148349835Y-91975960D01*
X148217191Y-92146567D01*
X148214215Y-92150395D01*
X148099168Y-92357549D01*
X148097494Y-92362091D01*
X148097493Y-92362094D01*
X148046051Y-92501699D01*
X148017239Y-92579891D01*
X147970363Y-92812165D01*
X147959648Y-93048880D01*
X147399266Y-93048880D01*
X147405682Y-93000142D01*
X147385044Y-92843380D01*
X147324536Y-92697301D01*
X147228282Y-92571860D01*
X147199979Y-92550142D01*
X147167395Y-92525140D01*
X147102841Y-92475606D01*
X146956762Y-92415098D01*
X146925992Y-92411047D01*
X146878381Y-92404779D01*
X146800000Y-92394460D01*
X146721619Y-92404779D01*
X146674009Y-92411047D01*
X146643238Y-92415098D01*
X146497159Y-92475606D01*
X146432605Y-92525140D01*
X146400022Y-92550142D01*
X146371718Y-92571860D01*
X146275464Y-92697301D01*
X146214956Y-92843380D01*
X146194318Y-93000142D01*
X135550014Y-93000142D01*
X135550014Y-92760089D01*
X135551562Y-92760089D01*
X135551127Y-92757403D01*
X135554134Y-92750142D01*
X135553255Y-92748019D01*
X135545810Y-92681944D01*
X135540409Y-92634006D01*
X135540408Y-92634003D01*
X135539617Y-92626980D01*
X135498681Y-92509993D01*
X135432739Y-92405050D01*
X135345099Y-92317410D01*
X135339103Y-92313643D01*
X135339101Y-92313641D01*
X135246145Y-92255235D01*
X135246143Y-92255234D01*
X135240154Y-92251471D01*
X135123167Y-92210537D01*
X135056252Y-92202999D01*
X135022874Y-92199238D01*
X135022873Y-92199238D01*
X135002127Y-92196901D01*
X135000004Y-92196022D01*
X134990163Y-92200099D01*
X134979027Y-92198903D01*
X134970413Y-92200142D01*
X132009961Y-92200142D01*
X132009961Y-92198594D01*
X132007275Y-92199029D01*
X132000014Y-92196022D01*
X131997891Y-92196901D01*
X131876853Y-92210539D01*
X131759868Y-92251474D01*
X131654925Y-92317414D01*
X131567286Y-92405053D01*
X131501346Y-92509996D01*
X131460411Y-92626981D01*
X131446773Y-92748019D01*
X131445894Y-92750142D01*
X131449970Y-92759984D01*
X131448775Y-92771118D01*
X131450014Y-92779733D01*
X131450014Y-93240195D01*
X131448466Y-93240195D01*
X131448901Y-93242881D01*
X131445894Y-93250142D01*
X128129487Y-93250142D01*
X128120400Y-93238299D01*
X128103954Y-93209814D01*
X128071696Y-93131938D01*
X128063182Y-93100165D01*
X128052179Y-93016588D01*
X128052179Y-92983696D01*
X128063182Y-92900119D01*
X128071696Y-92868346D01*
X128103954Y-92790470D01*
X128120400Y-92761985D01*
X128171719Y-92695105D01*
X128194977Y-92671847D01*
X128261857Y-92620528D01*
X128290342Y-92604082D01*
X128368218Y-92571824D01*
X128399991Y-92563310D01*
X128412695Y-92561638D01*
X128489321Y-92551550D01*
X128493349Y-92551502D01*
X128500014Y-92554262D01*
X128507073Y-92551338D01*
X128519229Y-92551193D01*
X128520982Y-92551381D01*
X128529602Y-92550142D01*
X129495352Y-92550142D01*
X129495352Y-92552693D01*
X129499653Y-92552051D01*
X129505059Y-92554450D01*
X129514996Y-92550622D01*
X129514997Y-92550622D01*
X129521880Y-92547970D01*
X129543712Y-92539560D01*
X129544208Y-92538442D01*
X129544283Y-92538411D01*
X129545138Y-92536346D01*
X129560514Y-92501699D01*
X129560020Y-92500417D01*
X129560134Y-92500142D01*
X129556990Y-92492552D01*
X129556808Y-92492079D01*
X129556888Y-92490242D01*
X129558580Y-92477505D01*
X129557739Y-92470590D01*
X129587879Y-91774721D01*
X129588163Y-91770120D01*
X129646025Y-91047221D01*
X129646476Y-91042633D01*
X129646507Y-91042374D01*
X129696450Y-90615464D01*
X129730752Y-90322257D01*
X129731372Y-90317690D01*
X129803952Y-89847158D01*
X131734261Y-89847158D01*
X131751683Y-89969756D01*
X131754210Y-89976359D01*
X131754211Y-89976361D01*
X131784509Y-90055513D01*
X131795950Y-90085403D01*
X131799886Y-90091282D01*
X131799887Y-90091284D01*
X131860907Y-90182426D01*
X131864840Y-90188300D01*
X131870835Y-90193957D01*
X131949760Y-90268438D01*
X131949763Y-90268440D01*
X131954900Y-90273288D01*
X132061613Y-90336105D01*
X132068354Y-90338247D01*
X132068357Y-90338248D01*
X132141171Y-90361382D01*
X132177580Y-90372949D01*
X132179504Y-90374232D01*
X132187533Y-90372627D01*
X132198441Y-90374796D01*
X132200594Y-90375468D01*
X132201185Y-90375862D01*
X132202004Y-90376071D01*
X132205887Y-90376277D01*
X135112489Y-90954239D01*
X135112183Y-90955778D01*
X135114938Y-90955877D01*
X135121421Y-90960215D01*
X135123662Y-90959771D01*
X135245194Y-90970102D01*
X135252204Y-90969117D01*
X135252206Y-90969117D01*
X135294188Y-90963218D01*
X135368081Y-90952835D01*
X135414182Y-90935272D01*
X135477431Y-90911176D01*
X135477433Y-90911175D01*
X135484045Y-90908656D01*
X135491087Y-90903958D01*
X135581387Y-90843707D01*
X135587271Y-90839781D01*
X135672582Y-90749662D01*
X135735701Y-90642820D01*
X135772817Y-90526634D01*
X135774087Y-90524735D01*
X135772015Y-90514283D01*
X135774782Y-90505461D01*
X135775545Y-90491438D01*
X135819703Y-90270652D01*
X135865095Y-90043691D01*
X135866597Y-90043991D01*
X135866696Y-90041298D01*
X135871087Y-90034735D01*
X135870644Y-90032498D01*
X135880954Y-89911206D01*
X163120035Y-89911206D01*
X163120637Y-89918255D01*
X163120637Y-89918256D01*
X163128194Y-90006741D01*
X163130393Y-90032493D01*
X163129945Y-90034756D01*
X163134510Y-90041572D01*
X163136656Y-90052300D01*
X163136886Y-90054849D01*
X163136755Y-90055513D01*
X163136843Y-90056122D01*
X163138170Y-90059872D01*
X163229034Y-90514195D01*
X163227518Y-90514498D01*
X163228470Y-90517043D01*
X163226945Y-90524756D01*
X163228228Y-90526672D01*
X163233830Y-90544183D01*
X163233830Y-90544188D01*
X163263158Y-90635871D01*
X163263161Y-90635877D01*
X163265316Y-90642615D01*
X163328366Y-90749244D01*
X163413563Y-90839169D01*
X163516633Y-90907881D01*
X163523240Y-90910395D01*
X163523242Y-90910396D01*
X163625797Y-90949419D01*
X163625799Y-90949420D01*
X163632410Y-90951935D01*
X163755086Y-90969122D01*
X163762134Y-90968520D01*
X163762136Y-90968520D01*
X163791669Y-90965997D01*
X163876375Y-90958762D01*
X163878638Y-90959209D01*
X163885435Y-90954657D01*
X163896452Y-90952466D01*
X163898514Y-90952279D01*
X163899231Y-90952421D01*
X163900195Y-90952281D01*
X163903812Y-90951003D01*
X166809978Y-90373128D01*
X166810288Y-90374687D01*
X166812903Y-90373714D01*
X166820503Y-90375236D01*
X166822409Y-90373966D01*
X166938621Y-90337093D01*
X167045549Y-90274206D01*
X167135803Y-90189101D01*
X167204856Y-90086047D01*
X167249246Y-89970211D01*
X167256685Y-89918016D01*
X167265749Y-89854408D01*
X167265749Y-89854405D01*
X167266747Y-89847402D01*
X167261271Y-89781452D01*
X167258385Y-89746694D01*
X167258385Y-89746693D01*
X167256658Y-89725899D01*
X167257108Y-89723653D01*
X167251204Y-89714792D01*
X167250418Y-89705867D01*
X167245666Y-89692383D01*
X167155992Y-89243100D01*
X167157496Y-89242800D01*
X167156551Y-89240273D01*
X167158083Y-89232528D01*
X167156797Y-89230608D01*
X167135834Y-89165074D01*
X167121866Y-89121406D01*
X167121864Y-89121401D01*
X167119711Y-89114671D01*
X167056663Y-89008043D01*
X167051795Y-89002905D01*
X167051793Y-89002902D01*
X166976335Y-88923255D01*
X166976334Y-88923254D01*
X166971468Y-88918118D01*
X166887120Y-88861885D01*
X166874291Y-88853332D01*
X166874288Y-88853331D01*
X166868400Y-88849405D01*
X166859736Y-88846108D01*
X166759240Y-88807868D01*
X166759239Y-88807868D01*
X166752625Y-88805351D01*
X166629950Y-88788163D01*
X166622901Y-88788765D01*
X166622900Y-88788765D01*
X166529431Y-88796747D01*
X166529429Y-88796748D01*
X166508663Y-88798521D01*
X166506400Y-88798073D01*
X166499597Y-88802629D01*
X166488714Y-88804797D01*
X166486422Y-88805004D01*
X166485728Y-88804867D01*
X166484938Y-88804981D01*
X166481256Y-88806282D01*
X163574981Y-89385166D01*
X163574684Y-89383674D01*
X163572176Y-89384611D01*
X163564400Y-89383073D01*
X163562480Y-89384359D01*
X163499063Y-89404645D01*
X163453276Y-89419291D01*
X163453274Y-89419292D01*
X163446543Y-89421445D01*
X163339915Y-89484493D01*
X163334777Y-89489361D01*
X163334774Y-89489363D01*
X163260797Y-89559449D01*
X163249990Y-89569688D01*
X163181277Y-89672756D01*
X163178760Y-89679372D01*
X163178759Y-89679373D01*
X163139917Y-89781452D01*
X163137223Y-89788531D01*
X163120035Y-89911206D01*
X135880954Y-89911206D01*
X135880975Y-89910961D01*
X135879990Y-89903949D01*
X135864694Y-89795086D01*
X135864693Y-89795082D01*
X135863708Y-89788072D01*
X135819528Y-89672107D01*
X135750650Y-89568880D01*
X135741497Y-89560215D01*
X135714789Y-89534933D01*
X135660529Y-89483569D01*
X135553684Y-89420451D01*
X135437496Y-89383337D01*
X135435597Y-89382067D01*
X135425145Y-89384139D01*
X135416404Y-89381398D01*
X135402310Y-89380637D01*
X132502546Y-88803050D01*
X132502850Y-88801522D01*
X132500114Y-88801423D01*
X132493607Y-88797069D01*
X132491366Y-88797513D01*
X132369834Y-88787182D01*
X132362824Y-88788167D01*
X132362822Y-88788167D01*
X132320840Y-88794066D01*
X132246947Y-88804449D01*
X132240337Y-88806967D01*
X132240338Y-88806967D01*
X132137597Y-88846108D01*
X132137595Y-88846109D01*
X132130983Y-88848628D01*
X132125096Y-88852556D01*
X132125094Y-88852557D01*
X132049171Y-88903215D01*
X132027757Y-88917503D01*
X131942446Y-89007622D01*
X131879327Y-89114464D01*
X131842211Y-89230650D01*
X131840941Y-89232549D01*
X131843012Y-89243002D01*
X131840259Y-89251782D01*
X131839497Y-89265839D01*
X131824685Y-89340052D01*
X131749920Y-89714641D01*
X131748450Y-89714348D01*
X131748356Y-89716986D01*
X131743924Y-89723632D01*
X131744377Y-89725900D01*
X131734261Y-89847158D01*
X129803952Y-89847158D01*
X129840727Y-89608745D01*
X129843808Y-89609220D01*
X129843883Y-89604029D01*
X129846087Y-89600735D01*
X129845942Y-89600003D01*
X129846342Y-89599370D01*
X129842284Y-89581339D01*
X129841620Y-89578201D01*
X129841363Y-89576903D01*
X129841362Y-89576902D01*
X129838033Y-89560104D01*
X129837412Y-89559689D01*
X129837248Y-89558958D01*
X129828928Y-89553695D01*
X129821624Y-89549074D01*
X129818911Y-89547309D01*
X129817811Y-89546573D01*
X129817810Y-89546573D01*
X129812555Y-89543056D01*
X129811904Y-89542926D01*
X129802242Y-89536814D01*
X129792390Y-89539031D01*
X129789212Y-89538397D01*
X129777981Y-89535186D01*
X129771858Y-89534933D01*
X129707378Y-89522063D01*
X128826943Y-89346333D01*
X128827266Y-89344717D01*
X128824364Y-89344613D01*
X128817524Y-89340052D01*
X128809514Y-89341653D01*
X128808375Y-89341267D01*
X128808371Y-89341265D01*
X128721282Y-89311792D01*
X128691769Y-89297272D01*
X128689931Y-89296047D01*
X128621740Y-89250573D01*
X128596997Y-89228914D01*
X128541440Y-89165680D01*
X128523142Y-89138349D01*
X128485844Y-89062892D01*
X128475244Y-89031759D01*
X128458747Y-88949217D01*
X128456565Y-88916403D01*
X128456703Y-88914281D01*
X128461993Y-88832404D01*
X128468381Y-88800139D01*
X128495364Y-88720410D01*
X128509884Y-88690897D01*
X128511109Y-88689059D01*
X128556583Y-88620868D01*
X128578242Y-88596125D01*
X128641476Y-88540568D01*
X128668807Y-88522270D01*
X128744264Y-88484972D01*
X128775400Y-88474371D01*
X128857938Y-88457875D01*
X128890750Y-88455693D01*
X128980538Y-88461495D01*
X128984505Y-88462232D01*
X128990504Y-88466232D01*
X128997992Y-88464735D01*
X129009954Y-88466956D01*
X129011689Y-88467498D01*
X129020338Y-88467956D01*
X129967395Y-88656024D01*
X129966880Y-88658616D01*
X129971379Y-88658832D01*
X129976301Y-88662302D01*
X129994272Y-88659192D01*
X129999267Y-88658328D01*
X129999268Y-88658328D01*
X130017116Y-88655239D01*
X130017864Y-88654178D01*
X130018096Y-88654132D01*
X130021678Y-88648767D01*
X130023251Y-88646536D01*
X130023253Y-88646535D01*
X130030619Y-88636085D01*
X130030620Y-88636082D01*
X130040982Y-88621383D01*
X130040772Y-88620171D01*
X130041098Y-88619683D01*
X130039328Y-88610799D01*
X130039660Y-88609438D01*
X130043936Y-88596892D01*
X130044474Y-88589738D01*
X130131230Y-88234655D01*
X130209649Y-87913696D01*
X130210810Y-87909296D01*
X130408606Y-87211511D01*
X130409939Y-87207115D01*
X130463888Y-87040307D01*
X130617436Y-86565546D01*
X132683501Y-86565546D01*
X132704341Y-86687704D01*
X132707052Y-86694236D01*
X132707053Y-86694240D01*
X132737908Y-86768586D01*
X132751843Y-86802162D01*
X132755938Y-86807925D01*
X132755939Y-86807927D01*
X132756191Y-86808281D01*
X132823622Y-86903181D01*
X132871602Y-86946000D01*
X132886581Y-86959367D01*
X132916081Y-86985694D01*
X133022709Y-87044531D01*
X133024337Y-87046156D01*
X133034991Y-87046149D01*
X133044895Y-87051545D01*
X133053267Y-87053678D01*
X135788707Y-88186537D01*
X135788124Y-88187945D01*
X135790734Y-88188561D01*
X135796337Y-88194156D01*
X135798633Y-88194155D01*
X135816327Y-88199240D01*
X135816328Y-88199240D01*
X135908880Y-88225836D01*
X135908884Y-88225837D01*
X135915685Y-88227791D01*
X136039418Y-88234655D01*
X136046387Y-88233466D01*
X136046389Y-88233466D01*
X136154601Y-88215005D01*
X136154602Y-88215005D01*
X136161576Y-88213815D01*
X136168108Y-88211104D01*
X136168112Y-88211103D01*
X136269502Y-88169024D01*
X136269503Y-88169024D01*
X136276034Y-88166313D01*
X136329703Y-88128179D01*
X136371290Y-88098629D01*
X136371291Y-88098628D01*
X136377053Y-88094534D01*
X136459566Y-88002075D01*
X136518403Y-87895447D01*
X136520028Y-87893819D01*
X136520021Y-87883165D01*
X136525383Y-87873324D01*
X136527526Y-87864900D01*
X136529291Y-87860632D01*
X136703420Y-87439438D01*
X136704847Y-87440028D01*
X136705470Y-87437385D01*
X136711028Y-87431819D01*
X136711027Y-87429519D01*
X136719157Y-87401230D01*
X136742706Y-87319278D01*
X136742706Y-87319275D01*
X136744662Y-87312470D01*
X136751470Y-87189738D01*
X162248060Y-87189738D01*
X162248465Y-87196804D01*
X162248465Y-87196806D01*
X162249309Y-87211526D01*
X162255158Y-87313544D01*
X162257126Y-87320344D01*
X162280518Y-87401183D01*
X162289035Y-87430618D01*
X162289038Y-87432911D01*
X162296580Y-87440435D01*
X162299587Y-87450628D01*
X162305012Y-87459766D01*
X162480007Y-87883054D01*
X162478577Y-87883645D01*
X162480005Y-87885960D01*
X162480000Y-87893819D01*
X162481625Y-87895447D01*
X162540463Y-88002077D01*
X162545170Y-88007352D01*
X162545172Y-88007354D01*
X162587403Y-88054675D01*
X162622977Y-88094536D01*
X162723997Y-88166315D01*
X162838457Y-88213816D01*
X162899537Y-88224236D01*
X162953645Y-88233467D01*
X162953648Y-88233467D01*
X162960617Y-88234656D01*
X162967681Y-88234264D01*
X162967682Y-88234264D01*
X163009990Y-88231916D01*
X163084351Y-88227789D01*
X163201400Y-88194152D01*
X163203700Y-88194153D01*
X163211238Y-88186625D01*
X163221925Y-88183492D01*
X163229455Y-88179027D01*
X165964941Y-87046149D01*
X165965541Y-87047598D01*
X165967885Y-87046151D01*
X165975691Y-87046156D01*
X165977319Y-87044531D01*
X166083947Y-86985694D01*
X166113448Y-86959367D01*
X166128426Y-86946000D01*
X166176406Y-86903181D01*
X166243837Y-86808281D01*
X166244089Y-86807927D01*
X166244090Y-86807925D01*
X166248185Y-86802162D01*
X166262120Y-86768586D01*
X166292975Y-86694240D01*
X166292976Y-86694236D01*
X166295687Y-86687704D01*
X166316527Y-86565546D01*
X166309663Y-86441813D01*
X166276027Y-86324761D01*
X166276028Y-86322465D01*
X166268499Y-86314925D01*
X166265406Y-86304375D01*
X166260883Y-86296756D01*
X166084021Y-85871183D01*
X166085505Y-85870566D01*
X166084023Y-85868168D01*
X166084028Y-85860465D01*
X166082403Y-85858837D01*
X166023566Y-85752209D01*
X165941053Y-85659750D01*
X165876077Y-85613581D01*
X165845799Y-85592067D01*
X165845797Y-85592066D01*
X165840034Y-85587971D01*
X165833502Y-85585260D01*
X165732112Y-85543181D01*
X165732108Y-85543180D01*
X165725576Y-85540469D01*
X165718601Y-85539279D01*
X165610389Y-85520818D01*
X165610387Y-85520818D01*
X165603418Y-85519629D01*
X165479685Y-85526493D01*
X165472884Y-85528447D01*
X165472880Y-85528448D01*
X165435190Y-85539279D01*
X165362633Y-85560129D01*
X165360337Y-85560128D01*
X165352798Y-85567657D01*
X165342111Y-85570789D01*
X165334584Y-85575253D01*
X162599044Y-86708153D01*
X162598467Y-86706760D01*
X162596210Y-86708156D01*
X162588245Y-86708166D01*
X162586625Y-86709789D01*
X162480024Y-86768869D01*
X162474756Y-86773588D01*
X162392926Y-86846887D01*
X162392923Y-86846890D01*
X162387654Y-86851610D01*
X162359579Y-86891277D01*
X162320542Y-86946431D01*
X162316012Y-86952831D01*
X162313314Y-86959367D01*
X162277484Y-87046156D01*
X162268690Y-87067456D01*
X162248060Y-87189738D01*
X136751470Y-87189738D01*
X136751526Y-87188735D01*
X136730684Y-87066576D01*
X136712450Y-87022641D01*
X136685896Y-86958656D01*
X136685895Y-86958654D01*
X136683182Y-86952117D01*
X136611401Y-86851099D01*
X136518940Y-86768586D01*
X136412309Y-86709749D01*
X136410682Y-86708124D01*
X136400931Y-86708131D01*
X136397198Y-86706585D01*
X136389471Y-86702372D01*
X136383113Y-86700752D01*
X133647321Y-85567747D01*
X133647904Y-85566339D01*
X133645294Y-85565723D01*
X133639691Y-85560128D01*
X133637395Y-85560129D01*
X133619701Y-85555044D01*
X133619700Y-85555044D01*
X133527148Y-85528448D01*
X133527144Y-85528447D01*
X133520343Y-85526493D01*
X133396610Y-85519629D01*
X133389641Y-85520818D01*
X133389639Y-85520818D01*
X133281427Y-85539279D01*
X133274452Y-85540469D01*
X133267920Y-85543180D01*
X133267916Y-85543181D01*
X133166526Y-85585260D01*
X133159994Y-85587971D01*
X133154231Y-85592066D01*
X133154229Y-85592067D01*
X133123951Y-85613581D01*
X133058975Y-85659750D01*
X132976462Y-85752209D01*
X132973045Y-85758402D01*
X132973044Y-85758403D01*
X132928751Y-85838673D01*
X132917625Y-85858837D01*
X132916000Y-85860465D01*
X132916007Y-85871120D01*
X132910542Y-85881150D01*
X132908432Y-85889410D01*
X132731641Y-86314813D01*
X132730269Y-86314243D01*
X132729666Y-86316791D01*
X132724000Y-86322465D01*
X132724001Y-86324761D01*
X132718918Y-86342451D01*
X132718917Y-86342452D01*
X132718232Y-86344838D01*
X132690365Y-86441813D01*
X132683501Y-86565546D01*
X130617436Y-86565546D01*
X130633126Y-86517034D01*
X130634621Y-86512688D01*
X130646205Y-86480895D01*
X130880191Y-85838673D01*
X130883087Y-85839728D01*
X130884159Y-85834703D01*
X130887018Y-85831843D01*
X130887018Y-85831121D01*
X130887517Y-85830596D01*
X130887120Y-85814745D01*
X130887053Y-85812053D01*
X130887014Y-85808921D01*
X130887014Y-85807551D01*
X130887011Y-85790421D01*
X130886499Y-85789909D01*
X130886481Y-85789187D01*
X130873486Y-85776826D01*
X130873051Y-85776412D01*
X130870821Y-85774238D01*
X130869828Y-85773246D01*
X130865329Y-85768749D01*
X130864736Y-85768504D01*
X130856468Y-85760639D01*
X130846350Y-85760892D01*
X130843512Y-85759717D01*
X130833102Y-85754366D01*
X130827049Y-85752902D01*
X129937025Y-85384451D01*
X129937719Y-85382775D01*
X129934615Y-85382044D01*
X129928691Y-85376128D01*
X129920524Y-85376133D01*
X129839732Y-85329560D01*
X129813622Y-85309554D01*
X129753987Y-85250000D01*
X129733949Y-85223924D01*
X129691759Y-85150962D01*
X129679152Y-85120584D01*
X129657283Y-85039188D01*
X129652968Y-85006582D01*
X129652927Y-84946751D01*
X129652910Y-84922306D01*
X129657182Y-84889691D01*
X129678941Y-84808269D01*
X129691508Y-84777872D01*
X129733597Y-84704859D01*
X129753601Y-84678752D01*
X129813155Y-84619116D01*
X129839232Y-84599077D01*
X129912194Y-84556887D01*
X129942572Y-84544280D01*
X130023968Y-84522411D01*
X130056574Y-84518096D01*
X130098615Y-84518067D01*
X130140850Y-84518038D01*
X130173465Y-84522310D01*
X130260494Y-84545567D01*
X130264236Y-84547062D01*
X130269337Y-84552156D01*
X130276973Y-84552151D01*
X130288273Y-84556666D01*
X130289856Y-84557529D01*
X130298256Y-84559669D01*
X131190290Y-84928951D01*
X131189313Y-84931310D01*
X131193535Y-84932362D01*
X131197583Y-84936618D01*
X131209532Y-84936917D01*
X131209518Y-84937476D01*
X131210077Y-84937551D01*
X131210077Y-84937144D01*
X131210080Y-84937144D01*
X131216968Y-84937143D01*
X131220103Y-84937182D01*
X131238992Y-84937654D01*
X131239533Y-84937139D01*
X131240735Y-84937139D01*
X131248586Y-84929285D01*
X131257201Y-84920666D01*
X131263972Y-84913892D01*
X131269004Y-84909105D01*
X131269010Y-84908851D01*
X131270018Y-84907843D01*
X131270016Y-84897222D01*
X131271073Y-84895342D01*
X131277294Y-84884596D01*
X131279395Y-84877048D01*
X131572500Y-84247910D01*
X131574506Y-84243803D01*
X131904615Y-83598058D01*
X131906782Y-83594002D01*
X131941482Y-83531844D01*
X134259565Y-83531844D01*
X134283758Y-83653159D01*
X134286648Y-83659610D01*
X134286649Y-83659612D01*
X134287025Y-83660450D01*
X134334339Y-83766050D01*
X134338595Y-83771700D01*
X134338596Y-83771701D01*
X134339310Y-83772648D01*
X134408773Y-83864854D01*
X134414182Y-83869417D01*
X134414184Y-83869419D01*
X134485751Y-83929791D01*
X134485753Y-83929792D01*
X134501678Y-83943226D01*
X134502969Y-83945156D01*
X134511384Y-83946826D01*
X134519157Y-83952022D01*
X134522272Y-83954622D01*
X134522509Y-83954977D01*
X134523065Y-83955392D01*
X134527055Y-83957301D01*
X136990962Y-85604186D01*
X136990105Y-85605467D01*
X136992571Y-85606594D01*
X136996944Y-85613139D01*
X136999193Y-85613586D01*
X137107477Y-85669536D01*
X137114337Y-85671306D01*
X137220704Y-85698751D01*
X137220706Y-85698751D01*
X137227561Y-85700520D01*
X137289545Y-85702263D01*
X137344450Y-85703807D01*
X137351528Y-85704006D01*
X137358472Y-85702625D01*
X137358474Y-85702625D01*
X137466224Y-85681199D01*
X137473164Y-85679819D01*
X137586367Y-85629173D01*
X137685462Y-85554606D01*
X137706297Y-85529936D01*
X137750639Y-85477430D01*
X137764104Y-85461486D01*
X137766011Y-85460212D01*
X137768090Y-85449768D01*
X137775139Y-85441334D01*
X137778959Y-85433334D01*
X137794128Y-85410554D01*
X138034079Y-85050193D01*
X138035445Y-85051103D01*
X138036639Y-85048487D01*
X138042978Y-85044262D01*
X138043432Y-85041996D01*
X138099408Y-84933954D01*
X138101719Y-84925041D01*
X138128594Y-84821357D01*
X138130479Y-84814085D01*
X138131564Y-84776976D01*
X138133889Y-84697383D01*
X138134096Y-84690307D01*
X138133925Y-84689440D01*
X160866565Y-84689440D01*
X160869973Y-84813098D01*
X160871737Y-84819949D01*
X160871737Y-84819951D01*
X160897963Y-84921824D01*
X160900813Y-84932896D01*
X160904058Y-84939184D01*
X160904058Y-84939185D01*
X160938435Y-85005807D01*
X160956548Y-85040911D01*
X160957000Y-85043187D01*
X160964724Y-85048354D01*
X160968147Y-85053494D01*
X160971630Y-85060158D01*
X160975339Y-85064296D01*
X161231907Y-85449611D01*
X161230665Y-85450438D01*
X161232455Y-85452363D01*
X161234017Y-85460212D01*
X161235924Y-85461486D01*
X161314567Y-85554607D01*
X161413663Y-85629174D01*
X161420123Y-85632064D01*
X161503873Y-85669533D01*
X161526868Y-85679821D01*
X161648505Y-85704007D01*
X161655614Y-85703807D01*
X161661183Y-85703650D01*
X161772474Y-85700519D01*
X161892559Y-85669533D01*
X161901282Y-85665026D01*
X161921877Y-85654384D01*
X162000843Y-85613581D01*
X162003092Y-85613134D01*
X162009004Y-85604284D01*
X162018889Y-85599115D01*
X162025391Y-85593274D01*
X164486493Y-83948264D01*
X164487384Y-83949598D01*
X164489445Y-83947681D01*
X164497009Y-83946189D01*
X164498291Y-83944277D01*
X164591439Y-83865875D01*
X164666096Y-83767004D01*
X164716880Y-83653999D01*
X164728097Y-83598074D01*
X164739854Y-83539459D01*
X164739854Y-83539456D01*
X164741244Y-83532527D01*
X164737968Y-83408678D01*
X164734513Y-83395192D01*
X164708971Y-83295517D01*
X164707215Y-83288664D01*
X164651507Y-83180406D01*
X164651061Y-83178147D01*
X164642213Y-83172214D01*
X164637821Y-83163789D01*
X164628967Y-83153902D01*
X164464389Y-82906736D01*
X164375121Y-82772673D01*
X164376363Y-82771846D01*
X164374573Y-82769921D01*
X164373011Y-82762072D01*
X164371104Y-82760798D01*
X164292462Y-82667678D01*
X164193367Y-82593111D01*
X164080164Y-82542465D01*
X164072769Y-82540995D01*
X163965474Y-82519659D01*
X163965472Y-82519659D01*
X163958528Y-82518278D01*
X163951450Y-82518477D01*
X163896545Y-82520021D01*
X163834561Y-82521764D01*
X163827706Y-82523533D01*
X163827704Y-82523533D01*
X163743130Y-82545355D01*
X163714477Y-82552748D01*
X163708184Y-82556000D01*
X163708183Y-82556000D01*
X163624727Y-82599121D01*
X163624725Y-82599122D01*
X163606193Y-82608698D01*
X163603944Y-82609145D01*
X163598029Y-82617998D01*
X163588144Y-82623167D01*
X163581647Y-82629003D01*
X161120511Y-84274036D01*
X161119640Y-84272733D01*
X161117625Y-84274609D01*
X161109969Y-84276128D01*
X161108678Y-84278058D01*
X161094655Y-84289887D01*
X161094652Y-84289889D01*
X161021188Y-84351861D01*
X161021183Y-84351866D01*
X161015773Y-84356430D01*
X161011516Y-84362081D01*
X161011514Y-84362083D01*
X160973543Y-84412486D01*
X160941339Y-84455234D01*
X160938448Y-84461687D01*
X160938446Y-84461690D01*
X160893649Y-84561672D01*
X160890758Y-84568125D01*
X160866565Y-84689440D01*
X138133925Y-84689440D01*
X138110080Y-84568827D01*
X138059633Y-84455738D01*
X138055013Y-84449583D01*
X137989536Y-84362369D01*
X137985287Y-84356709D01*
X137892408Y-84278095D01*
X137891127Y-84276173D01*
X137880685Y-84274083D01*
X137873068Y-84267702D01*
X137862371Y-84262576D01*
X137769516Y-84200511D01*
X135402066Y-82618098D01*
X135402923Y-82616817D01*
X135400457Y-82615690D01*
X135396084Y-82609145D01*
X135393835Y-82608698D01*
X135285551Y-82552748D01*
X135256898Y-82545355D01*
X135172324Y-82523533D01*
X135172322Y-82523533D01*
X135165467Y-82521764D01*
X135103483Y-82520021D01*
X135048578Y-82518477D01*
X135041500Y-82518278D01*
X135034556Y-82519659D01*
X135034554Y-82519659D01*
X134927259Y-82540995D01*
X134919864Y-82542465D01*
X134806661Y-82593111D01*
X134707566Y-82667678D01*
X134703006Y-82673078D01*
X134703002Y-82673082D01*
X134680996Y-82699139D01*
X134628924Y-82760798D01*
X134627017Y-82762072D01*
X134624938Y-82772516D01*
X134617889Y-82780950D01*
X134614070Y-82788949D01*
X134358925Y-83172127D01*
X134357607Y-83171249D01*
X134356454Y-83173780D01*
X134350000Y-83178097D01*
X134349548Y-83180373D01*
X134341135Y-83196678D01*
X134341134Y-83196679D01*
X134318877Y-83239814D01*
X134293813Y-83288388D01*
X134292050Y-83295236D01*
X134292049Y-83295239D01*
X134266059Y-83396197D01*
X134262973Y-83408186D01*
X134259565Y-83531844D01*
X131941482Y-83531844D01*
X132260322Y-82960704D01*
X132262643Y-82956721D01*
X132634989Y-82343569D01*
X132637622Y-82345168D01*
X132639654Y-82340450D01*
X132643020Y-82338200D01*
X132643161Y-82337491D01*
X132643751Y-82337075D01*
X132646910Y-82318820D01*
X132647478Y-82315768D01*
X132647761Y-82314341D01*
X132647761Y-82314340D01*
X132651092Y-82297572D01*
X132650691Y-82296972D01*
X132650814Y-82296259D01*
X132640139Y-82281117D01*
X132638372Y-82278543D01*
X132637589Y-82277372D01*
X132637587Y-82277371D01*
X132634055Y-82272087D01*
X132633522Y-82271731D01*
X132626947Y-82262405D01*
X132616974Y-82260679D01*
X132614405Y-82258963D01*
X132605244Y-82251689D01*
X132599603Y-82249077D01*
X131797060Y-81713089D01*
X131797925Y-81711794D01*
X131795434Y-81710656D01*
X131791084Y-81704145D01*
X131783074Y-81702551D01*
X131782184Y-81701770D01*
X131782181Y-81701766D01*
X131712882Y-81640985D01*
X131691197Y-81616255D01*
X131667759Y-81581173D01*
X131644320Y-81546090D01*
X131629774Y-81516589D01*
X131602654Y-81436678D01*
X131596239Y-81404418D01*
X131590725Y-81320210D01*
X131592878Y-81287393D01*
X131609347Y-81204622D01*
X131619917Y-81173489D01*
X131657251Y-81097795D01*
X131675523Y-81070454D01*
X131731168Y-81007012D01*
X131755898Y-80985327D01*
X131799459Y-80956224D01*
X131826066Y-80938448D01*
X131855567Y-80923902D01*
X131935478Y-80896782D01*
X131967738Y-80890367D01*
X131980440Y-80889535D01*
X132051946Y-80884853D01*
X132084768Y-80887007D01*
X132167527Y-80903474D01*
X132198672Y-80914047D01*
X132279563Y-80953945D01*
X132282938Y-80956143D01*
X132286944Y-80962139D01*
X132294435Y-80963630D01*
X132304631Y-80970270D01*
X132305947Y-80971370D01*
X132313827Y-80975140D01*
X133029603Y-81453178D01*
X133116662Y-81511321D01*
X133115137Y-81513604D01*
X133119370Y-81515603D01*
X133122693Y-81520855D01*
X133137178Y-81524115D01*
X133145432Y-81525973D01*
X133145433Y-81525973D01*
X133163104Y-81529950D01*
X133164336Y-81529171D01*
X133164584Y-81529220D01*
X133170336Y-81525375D01*
X133198109Y-81507805D01*
X133198373Y-81506633D01*
X133199020Y-81506200D01*
X133200821Y-81497134D01*
X133201461Y-81496260D01*
X133210389Y-81486104D01*
X133213687Y-81479575D01*
X133624747Y-80918566D01*
X133627539Y-80914898D01*
X133765041Y-80740958D01*
X136399003Y-80740958D01*
X136399178Y-80864881D01*
X136426924Y-80985658D01*
X136480850Y-81097233D01*
X136485267Y-81102755D01*
X136485269Y-81102759D01*
X136542688Y-81174551D01*
X136556915Y-81192339D01*
X136557799Y-81194465D01*
X136566022Y-81197857D01*
X136571639Y-81203472D01*
X136575044Y-81207685D01*
X136575121Y-81207870D01*
X136575603Y-81208406D01*
X136579458Y-81211287D01*
X138347223Y-82978219D01*
X138674626Y-83305468D01*
X138673526Y-83306569D01*
X138675744Y-83308168D01*
X138678745Y-83315411D01*
X138680886Y-83316298D01*
X138775964Y-83392120D01*
X138887471Y-83445819D01*
X139008132Y-83473359D01*
X139131896Y-83473359D01*
X139252557Y-83445819D01*
X139364064Y-83392120D01*
X139459142Y-83316298D01*
X139461283Y-83315411D01*
X139464696Y-83307171D01*
X139470188Y-83301679D01*
X139474646Y-83298086D01*
X139474798Y-83298023D01*
X139475145Y-83297711D01*
X139478091Y-83293776D01*
X139805310Y-82966557D01*
X139806437Y-82967684D01*
X139808075Y-82965416D01*
X139815229Y-82962465D01*
X139816113Y-82960339D01*
X139892179Y-82865232D01*
X139929047Y-82788950D01*
X139943025Y-82760029D01*
X139943025Y-82760028D01*
X139946105Y-82753656D01*
X139947696Y-82746731D01*
X139972266Y-82639778D01*
X139972266Y-82639775D01*
X139973851Y-82632877D01*
X139973852Y-82632024D01*
X159026797Y-82632024D01*
X159054337Y-82752685D01*
X159108036Y-82864192D01*
X159112448Y-82869725D01*
X159112449Y-82869726D01*
X159125283Y-82885819D01*
X159183858Y-82959270D01*
X159184745Y-82961411D01*
X159192985Y-82964824D01*
X159198477Y-82970316D01*
X159202070Y-82974774D01*
X159202133Y-82974926D01*
X159202445Y-82975273D01*
X159206380Y-82978219D01*
X159533599Y-83305438D01*
X159532472Y-83306565D01*
X159534740Y-83308203D01*
X159537691Y-83315357D01*
X159539817Y-83316241D01*
X159554178Y-83327727D01*
X159554179Y-83327728D01*
X159556140Y-83329296D01*
X159634924Y-83392307D01*
X159746500Y-83446233D01*
X159753398Y-83447818D01*
X159753399Y-83447818D01*
X159860378Y-83472394D01*
X159860381Y-83472394D01*
X159867279Y-83473979D01*
X159874357Y-83473989D01*
X159874358Y-83473989D01*
X159925670Y-83474061D01*
X159991203Y-83474153D01*
X160112059Y-83446747D01*
X160118431Y-83443689D01*
X160118435Y-83443688D01*
X160217406Y-83396197D01*
X160217407Y-83396197D01*
X160223787Y-83393135D01*
X160319112Y-83317334D01*
X160321235Y-83316458D01*
X160325325Y-83306623D01*
X160332820Y-83300600D01*
X160340442Y-83290436D01*
X162433329Y-81198534D01*
X162434417Y-81199622D01*
X162436000Y-81197427D01*
X162443283Y-81194411D01*
X162444159Y-81192296D01*
X162458311Y-81174551D01*
X162495580Y-81127816D01*
X162520196Y-81096949D01*
X162574034Y-80985155D01*
X162577181Y-80971370D01*
X162597175Y-80883769D01*
X162601645Y-80864183D01*
X162601645Y-80740101D01*
X162589185Y-80685510D01*
X162575608Y-80626023D01*
X162575607Y-80626019D01*
X162574034Y-80619129D01*
X162568481Y-80607597D01*
X162523264Y-80513706D01*
X162520196Y-80507335D01*
X162444159Y-80411988D01*
X162443283Y-80409873D01*
X162433446Y-80405798D01*
X162427337Y-80398218D01*
X162417245Y-80390663D01*
X162259226Y-80232643D01*
X162093376Y-80066793D01*
X162094437Y-80065732D01*
X162092293Y-80064188D01*
X162089228Y-80056819D01*
X162087102Y-80055942D01*
X162072703Y-80044493D01*
X162072702Y-80044491D01*
X161997325Y-79984553D01*
X161997318Y-79984549D01*
X161991780Y-79980145D01*
X161985397Y-79977082D01*
X161985395Y-79977081D01*
X161887545Y-79930130D01*
X161880053Y-79926535D01*
X161873156Y-79924971D01*
X161873153Y-79924970D01*
X161815559Y-79911911D01*
X161759198Y-79899131D01*
X161667986Y-79899260D01*
X161642355Y-79899296D01*
X161635275Y-79899306D01*
X161514498Y-79927052D01*
X161402923Y-79980978D01*
X161397401Y-79985395D01*
X161397397Y-79985397D01*
X161324102Y-80044018D01*
X161307817Y-80057043D01*
X161305691Y-80057927D01*
X161302299Y-80066150D01*
X161296684Y-80071767D01*
X161292471Y-80075172D01*
X161292286Y-80075249D01*
X161291752Y-80075729D01*
X161288872Y-80079583D01*
X159194686Y-82174755D01*
X159194685Y-82174755D01*
X159193587Y-82173657D01*
X159191990Y-82175872D01*
X159184745Y-82178873D01*
X159183858Y-82181014D01*
X159172412Y-82195367D01*
X159122040Y-82258532D01*
X159108036Y-82276092D01*
X159054337Y-82387599D01*
X159026797Y-82508260D01*
X159026797Y-82632024D01*
X139973852Y-82632024D01*
X139974025Y-82508953D01*
X139946619Y-82388097D01*
X139943320Y-82381220D01*
X139896069Y-82282750D01*
X139896069Y-82282749D01*
X139893007Y-82276369D01*
X139817206Y-82181044D01*
X139816330Y-82178921D01*
X139806496Y-82174831D01*
X139800473Y-82167337D01*
X139790306Y-82159713D01*
X137698406Y-80066827D01*
X137699494Y-80065739D01*
X137697299Y-80064156D01*
X137694283Y-80056873D01*
X137692168Y-80055997D01*
X137596821Y-79979960D01*
X137485027Y-79926122D01*
X137478137Y-79924549D01*
X137478133Y-79924548D01*
X137392478Y-79904998D01*
X137364055Y-79898511D01*
X137239973Y-79898511D01*
X137211550Y-79904998D01*
X137125895Y-79924548D01*
X137125891Y-79924549D01*
X137119001Y-79926122D01*
X137007207Y-79979960D01*
X136911860Y-80055997D01*
X136909745Y-80056873D01*
X136905670Y-80066710D01*
X136898090Y-80072819D01*
X136890535Y-80082911D01*
X136566665Y-80406780D01*
X136565604Y-80405719D01*
X136564060Y-80407863D01*
X136556691Y-80410928D01*
X136555814Y-80413054D01*
X136544365Y-80427453D01*
X136544363Y-80427454D01*
X136484425Y-80502831D01*
X136484421Y-80502838D01*
X136480017Y-80508376D01*
X136426407Y-80620103D01*
X136399003Y-80740958D01*
X133765041Y-80740958D01*
X133973358Y-80477438D01*
X134077298Y-80345955D01*
X134080218Y-80342397D01*
X134080614Y-80341932D01*
X134550503Y-79790269D01*
X134553525Y-79786850D01*
X135038362Y-79258106D01*
X135040639Y-79260194D01*
X135043561Y-79255953D01*
X135047283Y-79254411D01*
X135047562Y-79253737D01*
X135048227Y-79253442D01*
X135054899Y-79236124D01*
X135056053Y-79233238D01*
X135056594Y-79231932D01*
X135063134Y-79216142D01*
X135062856Y-79215470D01*
X135063118Y-79214789D01*
X135059115Y-79205769D01*
X135055602Y-79197853D01*
X135054363Y-79194966D01*
X135053834Y-79193689D01*
X135051403Y-79187820D01*
X135050944Y-79187361D01*
X135046314Y-79176929D01*
X135036876Y-79173293D01*
X135034664Y-79171081D01*
X135027102Y-79162163D01*
X135022095Y-79158512D01*
X134340376Y-78476793D01*
X134341437Y-78475732D01*
X134339293Y-78474188D01*
X134336228Y-78466819D01*
X134328678Y-78463704D01*
X134271804Y-78389801D01*
X134255319Y-78361342D01*
X134222956Y-78283522D01*
X134214399Y-78251765D01*
X134203279Y-78168222D01*
X134203232Y-78135326D01*
X134203544Y-78132936D01*
X134214115Y-78051755D01*
X134222583Y-78019974D01*
X134254725Y-77942065D01*
X134271131Y-77913556D01*
X134322340Y-77846623D01*
X134345561Y-77823335D01*
X134412360Y-77771928D01*
X134440814Y-77755447D01*
X134518633Y-77723084D01*
X134550391Y-77714527D01*
X134633934Y-77703407D01*
X134666827Y-77703360D01*
X134750401Y-77714243D01*
X134782182Y-77722711D01*
X134860091Y-77754853D01*
X134888600Y-77771259D01*
X134960140Y-77825993D01*
X134963032Y-77828809D01*
X134965800Y-77835465D01*
X134972858Y-77838377D01*
X134981576Y-77846865D01*
X134982780Y-77848355D01*
X134989654Y-77853493D01*
X135672298Y-78536137D01*
X135670366Y-78538069D01*
X135674110Y-78540841D01*
X135676348Y-78546649D01*
X135714208Y-78563452D01*
X135715381Y-78563000D01*
X135716014Y-78563262D01*
X135732118Y-78556592D01*
X135734953Y-78555460D01*
X135752861Y-78548560D01*
X135753166Y-78547874D01*
X135754283Y-78547411D01*
X135756678Y-78541628D01*
X139018150Y-78541628D01*
X139018349Y-78548706D01*
X139018571Y-78556606D01*
X139021636Y-78665595D01*
X139023405Y-78672450D01*
X139023405Y-78672452D01*
X139044016Y-78752334D01*
X139052620Y-78785679D01*
X139055872Y-78791972D01*
X139055872Y-78791973D01*
X139098993Y-78875429D01*
X139098994Y-78875431D01*
X139108570Y-78893963D01*
X139109017Y-78896212D01*
X139117870Y-78902127D01*
X139123039Y-78912012D01*
X139128875Y-78918509D01*
X140698040Y-81266139D01*
X140773908Y-81379645D01*
X140772605Y-81380516D01*
X140774481Y-81382531D01*
X140776000Y-81390187D01*
X140777930Y-81391478D01*
X140789759Y-81405501D01*
X140789761Y-81405504D01*
X140851733Y-81478968D01*
X140851738Y-81478973D01*
X140856302Y-81484383D01*
X140861953Y-81488640D01*
X140861955Y-81488642D01*
X140947607Y-81553168D01*
X140955106Y-81558817D01*
X140961559Y-81561708D01*
X140961562Y-81561710D01*
X141061544Y-81606507D01*
X141061546Y-81606508D01*
X141067997Y-81609398D01*
X141189312Y-81633591D01*
X141312970Y-81630183D01*
X141319821Y-81628419D01*
X141319823Y-81628419D01*
X141425917Y-81601107D01*
X141425920Y-81601106D01*
X141432768Y-81599343D01*
X141505701Y-81561710D01*
X141522256Y-81553168D01*
X141522257Y-81553167D01*
X141540783Y-81543608D01*
X141543059Y-81543156D01*
X141548226Y-81535432D01*
X141553366Y-81532009D01*
X141560030Y-81528526D01*
X141564168Y-81524817D01*
X141949483Y-81268249D01*
X141950310Y-81269491D01*
X141952235Y-81267701D01*
X141960084Y-81266139D01*
X141961358Y-81264232D01*
X142054479Y-81185589D01*
X142129046Y-81086493D01*
X142171310Y-80992026D01*
X142176803Y-80979748D01*
X142176803Y-80979747D01*
X142179693Y-80973288D01*
X142203878Y-80851656D01*
X156796150Y-80851656D01*
X156797531Y-80858600D01*
X156797531Y-80858602D01*
X156809085Y-80916704D01*
X156820337Y-80973292D01*
X156870983Y-81086495D01*
X156945550Y-81185590D01*
X156950953Y-81190153D01*
X156950954Y-81190154D01*
X156975980Y-81211289D01*
X157038670Y-81264232D01*
X157039944Y-81266139D01*
X157050388Y-81268218D01*
X157058822Y-81275267D01*
X157066821Y-81279086D01*
X157396437Y-81498566D01*
X157449963Y-81534207D01*
X157449053Y-81535573D01*
X157451669Y-81536767D01*
X157455894Y-81543106D01*
X157458160Y-81543560D01*
X157566202Y-81599536D01*
X157573053Y-81601312D01*
X157573056Y-81601313D01*
X157623737Y-81614449D01*
X157686071Y-81630607D01*
X157693142Y-81630814D01*
X157693145Y-81630814D01*
X157754199Y-81632598D01*
X157809849Y-81634224D01*
X157816788Y-81632852D01*
X157816791Y-81632852D01*
X157869826Y-81622367D01*
X157931329Y-81610208D01*
X158044418Y-81559761D01*
X158050074Y-81555515D01*
X158050077Y-81555513D01*
X158113623Y-81507805D01*
X158143447Y-81485415D01*
X158222061Y-81392536D01*
X158223983Y-81391255D01*
X158226073Y-81380813D01*
X158232454Y-81373196D01*
X158237580Y-81362499D01*
X158301988Y-81266139D01*
X159882058Y-78902194D01*
X159883339Y-78903051D01*
X159884466Y-78900585D01*
X159891011Y-78896212D01*
X159891458Y-78893963D01*
X159947408Y-78785679D01*
X159956012Y-78752334D01*
X159976623Y-78672452D01*
X159976623Y-78672450D01*
X159978392Y-78665595D01*
X159981457Y-78556606D01*
X159981679Y-78548706D01*
X159981878Y-78541628D01*
X159979428Y-78529304D01*
X159959071Y-78426932D01*
X159957691Y-78419992D01*
X159907045Y-78306789D01*
X159832478Y-78207694D01*
X159804194Y-78183807D01*
X159755302Y-78142517D01*
X159739358Y-78129052D01*
X159738084Y-78127145D01*
X159727640Y-78125066D01*
X159719206Y-78118017D01*
X159711206Y-78114197D01*
X159645420Y-78070392D01*
X159328029Y-77859053D01*
X159328907Y-77857735D01*
X159326376Y-77856582D01*
X159322059Y-77850128D01*
X159319783Y-77849676D01*
X159300171Y-77839556D01*
X159218057Y-77797186D01*
X159218056Y-77797186D01*
X159211768Y-77793941D01*
X159204920Y-77792178D01*
X159204917Y-77792177D01*
X159098823Y-77764865D01*
X159098821Y-77764865D01*
X159091970Y-77763101D01*
X158968312Y-77759693D01*
X158846997Y-77783886D01*
X158840546Y-77786776D01*
X158840544Y-77786777D01*
X158740562Y-77831574D01*
X158740559Y-77831576D01*
X158734106Y-77834467D01*
X158728456Y-77838723D01*
X158728455Y-77838724D01*
X158667103Y-77884944D01*
X158635302Y-77908901D01*
X158630739Y-77914310D01*
X158630737Y-77914312D01*
X158570365Y-77985879D01*
X158570364Y-77985881D01*
X158556930Y-78001806D01*
X158555000Y-78003097D01*
X158553330Y-78011512D01*
X158548134Y-78019285D01*
X158545534Y-78022400D01*
X158545179Y-78022637D01*
X158544764Y-78023193D01*
X158542855Y-78027183D01*
X157090155Y-80200569D01*
X156895970Y-80491090D01*
X156894689Y-80490233D01*
X156893562Y-80492699D01*
X156887017Y-80497072D01*
X156886570Y-80499321D01*
X156830620Y-80607605D01*
X156799636Y-80727689D01*
X156796150Y-80851656D01*
X142203878Y-80851656D01*
X142203879Y-80851651D01*
X142200391Y-80727682D01*
X142169405Y-80607597D01*
X142113453Y-80499313D01*
X142113006Y-80497064D01*
X142104156Y-80491152D01*
X142098987Y-80481267D01*
X142093146Y-80474765D01*
X140448136Y-78013663D01*
X140449470Y-78012772D01*
X140447553Y-78010711D01*
X140446061Y-78003147D01*
X140444149Y-78001865D01*
X140365747Y-77908717D01*
X140360100Y-77904453D01*
X140360098Y-77904451D01*
X140283834Y-77846865D01*
X140266876Y-77834060D01*
X140170003Y-77790526D01*
X140160322Y-77786175D01*
X140153871Y-77783276D01*
X140086908Y-77769845D01*
X140039331Y-77760302D01*
X140039328Y-77760302D01*
X140032399Y-77758912D01*
X139908550Y-77762188D01*
X139901691Y-77763946D01*
X139901688Y-77763946D01*
X139831678Y-77781886D01*
X139788536Y-77792941D01*
X139782250Y-77796175D01*
X139782249Y-77796176D01*
X139757550Y-77808886D01*
X139680278Y-77848649D01*
X139678019Y-77849095D01*
X139672086Y-77857943D01*
X139663661Y-77862335D01*
X139653774Y-77871189D01*
X139272545Y-78125035D01*
X139271718Y-78123793D01*
X139269793Y-78125583D01*
X139261944Y-78127145D01*
X139260670Y-78129052D01*
X139167550Y-78207694D01*
X139092983Y-78306789D01*
X139042337Y-78419992D01*
X139040957Y-78426932D01*
X139020601Y-78529304D01*
X139018150Y-78541628D01*
X135756678Y-78541628D01*
X135758119Y-78538149D01*
X135758400Y-78537892D01*
X135769618Y-78529304D01*
X135774332Y-78523282D01*
X136286247Y-78053856D01*
X136289701Y-78050803D01*
X136436652Y-77925629D01*
X136841821Y-77580502D01*
X136845350Y-77577606D01*
X137414305Y-77127816D01*
X137417967Y-77125028D01*
X137729519Y-76896738D01*
X142019501Y-76896738D01*
X142026365Y-77020471D01*
X142060001Y-77137523D01*
X142060000Y-77139819D01*
X142067529Y-77147358D01*
X142070661Y-77158045D01*
X142075125Y-77165572D01*
X142945240Y-79266584D01*
X143208025Y-79901113D01*
X143206634Y-79901689D01*
X143208028Y-79903944D01*
X143208038Y-79911911D01*
X143209661Y-79913531D01*
X143268741Y-80020132D01*
X143273460Y-80025400D01*
X143346759Y-80107230D01*
X143346762Y-80107233D01*
X143351482Y-80112502D01*
X143452703Y-80184144D01*
X143567328Y-80231466D01*
X143574301Y-80232642D01*
X143574303Y-80232643D01*
X143615900Y-80239660D01*
X143689610Y-80252096D01*
X143696676Y-80251691D01*
X143696678Y-80251691D01*
X143736100Y-80249431D01*
X143813416Y-80244998D01*
X143873380Y-80227647D01*
X143910433Y-80216925D01*
X143910434Y-80216925D01*
X143930490Y-80211121D01*
X143932783Y-80211118D01*
X143940307Y-80203576D01*
X143950500Y-80200569D01*
X143959638Y-80195144D01*
X144382926Y-80020149D01*
X144383517Y-80021579D01*
X144385832Y-80020151D01*
X144393691Y-80020156D01*
X144395319Y-80018531D01*
X144501949Y-79959693D01*
X144507224Y-79954986D01*
X144507226Y-79954984D01*
X144567837Y-79900892D01*
X144594408Y-79877179D01*
X144661837Y-79782281D01*
X144662088Y-79781928D01*
X144662088Y-79781927D01*
X144666187Y-79776159D01*
X144713688Y-79661699D01*
X144734527Y-79539546D01*
X154265501Y-79539546D01*
X154286341Y-79661704D01*
X154289052Y-79668236D01*
X154289053Y-79668240D01*
X154310574Y-79720095D01*
X154333843Y-79776162D01*
X154337938Y-79781925D01*
X154337939Y-79781927D01*
X154401522Y-79871411D01*
X154405622Y-79877181D01*
X154498081Y-79959694D01*
X154504274Y-79963111D01*
X154504275Y-79963112D01*
X154569709Y-79999218D01*
X154604709Y-80018531D01*
X154606337Y-80020156D01*
X154616991Y-80020149D01*
X154626832Y-80025511D01*
X154635255Y-80027654D01*
X155018330Y-80186024D01*
X155060718Y-80203548D01*
X155060128Y-80204975D01*
X155062771Y-80205598D01*
X155068337Y-80211156D01*
X155070637Y-80211155D01*
X155088322Y-80216237D01*
X155088324Y-80216238D01*
X155180878Y-80242834D01*
X155180881Y-80242834D01*
X155187686Y-80244790D01*
X155311421Y-80251654D01*
X155401254Y-80236327D01*
X155426606Y-80232002D01*
X155426607Y-80232002D01*
X155433580Y-80230812D01*
X155501014Y-80202826D01*
X155541500Y-80186024D01*
X155541502Y-80186023D01*
X155548039Y-80183310D01*
X155649057Y-80111529D01*
X155695207Y-80059815D01*
X155726862Y-80024344D01*
X155726863Y-80024342D01*
X155731570Y-80019068D01*
X155757105Y-79972791D01*
X155780330Y-79930700D01*
X155780330Y-79930699D01*
X155790407Y-79912437D01*
X155792032Y-79910810D01*
X155792025Y-79901058D01*
X155793569Y-79897331D01*
X155797785Y-79889598D01*
X155799406Y-79883237D01*
X156932409Y-77147449D01*
X156933817Y-77148032D01*
X156934433Y-77145422D01*
X156940028Y-77139819D01*
X156940027Y-77137523D01*
X156973663Y-77020471D01*
X156980527Y-76896738D01*
X156959687Y-76774580D01*
X156956976Y-76768048D01*
X156956975Y-76768044D01*
X156914896Y-76666654D01*
X156914896Y-76666653D01*
X156912185Y-76660122D01*
X156907658Y-76653750D01*
X156844501Y-76564866D01*
X156844500Y-76564865D01*
X156840406Y-76559103D01*
X156747947Y-76476590D01*
X156641319Y-76417753D01*
X156639691Y-76416128D01*
X156629036Y-76416135D01*
X156619006Y-76410670D01*
X156610746Y-76408560D01*
X156185343Y-76231769D01*
X156185913Y-76230397D01*
X156183365Y-76229794D01*
X156177691Y-76224128D01*
X156175395Y-76224129D01*
X156157705Y-76219046D01*
X156157704Y-76219045D01*
X156065148Y-76192448D01*
X156065144Y-76192447D01*
X156058343Y-76190493D01*
X155934610Y-76183629D01*
X155927641Y-76184818D01*
X155927639Y-76184818D01*
X155819427Y-76203279D01*
X155812452Y-76204469D01*
X155805920Y-76207180D01*
X155805916Y-76207181D01*
X155704526Y-76249260D01*
X155697994Y-76251971D01*
X155596975Y-76323750D01*
X155514462Y-76416209D01*
X155511045Y-76422402D01*
X155511044Y-76422403D01*
X155465715Y-76504551D01*
X155455625Y-76522837D01*
X155454000Y-76524465D01*
X155454007Y-76535119D01*
X155448611Y-76545023D01*
X155446479Y-76553391D01*
X154313619Y-79288835D01*
X154312211Y-79288252D01*
X154311595Y-79290862D01*
X154306000Y-79296465D01*
X154306001Y-79298761D01*
X154300916Y-79316455D01*
X154300916Y-79316456D01*
X154282512Y-79380503D01*
X154272365Y-79415813D01*
X154265501Y-79539546D01*
X144734527Y-79539546D01*
X144734528Y-79539539D01*
X144727661Y-79415805D01*
X144694024Y-79298756D01*
X144694025Y-79296456D01*
X144686497Y-79288918D01*
X144683364Y-79278231D01*
X144678899Y-79270701D01*
X143546021Y-76535216D01*
X143547471Y-76534616D01*
X143546023Y-76532270D01*
X143546028Y-76524465D01*
X143544403Y-76522837D01*
X143485566Y-76416209D01*
X143403053Y-76323750D01*
X143302034Y-76251971D01*
X143295502Y-76249260D01*
X143194112Y-76207181D01*
X143194108Y-76207180D01*
X143187576Y-76204469D01*
X143180601Y-76203279D01*
X143072389Y-76184818D01*
X143072387Y-76184818D01*
X143065418Y-76183629D01*
X142941685Y-76190493D01*
X142934884Y-76192447D01*
X142934880Y-76192448D01*
X142897190Y-76203279D01*
X142824633Y-76224129D01*
X142822337Y-76224128D01*
X142814797Y-76231657D01*
X142804247Y-76234750D01*
X142796628Y-76239273D01*
X142371055Y-76416135D01*
X142370438Y-76414651D01*
X142368040Y-76416133D01*
X142360337Y-76416128D01*
X142358709Y-76417753D01*
X142252081Y-76476590D01*
X142159622Y-76559103D01*
X142155528Y-76564865D01*
X142155527Y-76564866D01*
X142092371Y-76653750D01*
X142087843Y-76660122D01*
X142085132Y-76666653D01*
X142085132Y-76666654D01*
X142043053Y-76768044D01*
X142043052Y-76768048D01*
X142040341Y-76774580D01*
X142019501Y-76896738D01*
X137729519Y-76896738D01*
X137996606Y-76701029D01*
X137998438Y-76703529D01*
X138002141Y-76699929D01*
X138006072Y-76699148D01*
X138006481Y-76698536D01*
X138007198Y-76698375D01*
X138017137Y-76682663D01*
X138018784Y-76680133D01*
X138029092Y-76664712D01*
X138028949Y-76663991D01*
X138029342Y-76663369D01*
X138027177Y-76653752D01*
X138027178Y-76653750D01*
X138025274Y-76645291D01*
X138024615Y-76642181D01*
X138024353Y-76640863D01*
X138023118Y-76634645D01*
X138022755Y-76634101D01*
X138020247Y-76622958D01*
X138011703Y-76617553D01*
X138009943Y-76614917D01*
X138004269Y-76604702D01*
X138000088Y-76600162D01*
X137982248Y-76573449D01*
X137464114Y-75797638D01*
X137465401Y-75796779D01*
X137463546Y-75794785D01*
X137462011Y-75787072D01*
X137455220Y-75782535D01*
X137413919Y-75698800D01*
X137403346Y-75667655D01*
X137386879Y-75584896D01*
X137384725Y-75552074D01*
X137390239Y-75467866D01*
X137396654Y-75435606D01*
X137423774Y-75355695D01*
X137438321Y-75326192D01*
X137446781Y-75313530D01*
X137468635Y-75280818D01*
X137485199Y-75256026D01*
X137506884Y-75231296D01*
X137531455Y-75209745D01*
X137570328Y-75175650D01*
X137597667Y-75157379D01*
X137673361Y-75120045D01*
X137704494Y-75109475D01*
X137787265Y-75093006D01*
X137820082Y-75090853D01*
X137891588Y-75095535D01*
X137904290Y-75096367D01*
X137936550Y-75102782D01*
X138016461Y-75129902D01*
X138045964Y-75144449D01*
X138116127Y-75191325D01*
X138140857Y-75213010D01*
X138200331Y-75280818D01*
X138202610Y-75284142D01*
X138204017Y-75291212D01*
X138210366Y-75295454D01*
X138217248Y-75305491D01*
X138218074Y-75307071D01*
X138223876Y-75313530D01*
X138760521Y-76117057D01*
X138758404Y-76118471D01*
X138761322Y-76121687D01*
X138762337Y-76127549D01*
X138796192Y-76151416D01*
X138797419Y-76151204D01*
X138797444Y-76151220D01*
X138798250Y-76151060D01*
X138837007Y-76144353D01*
X138837821Y-76143198D01*
X138838072Y-76143148D01*
X138842011Y-76137255D01*
X138842947Y-76135928D01*
X138844528Y-76134968D01*
X138856014Y-76129321D01*
X138861270Y-76124801D01*
X139280509Y-75870206D01*
X145288035Y-75870206D01*
X145288637Y-75877255D01*
X145288637Y-75877256D01*
X145296194Y-75965741D01*
X145298393Y-75991493D01*
X145297945Y-75993756D01*
X145302501Y-76000559D01*
X145304669Y-76011442D01*
X145304876Y-76013734D01*
X145304739Y-76014428D01*
X145304853Y-76015218D01*
X145306154Y-76018900D01*
X145885038Y-78925175D01*
X145883546Y-78925472D01*
X145884483Y-78927980D01*
X145882945Y-78935756D01*
X145884231Y-78937676D01*
X145907486Y-79010374D01*
X145916134Y-79037409D01*
X145921317Y-79053613D01*
X145984365Y-79160241D01*
X145989233Y-79165379D01*
X145989235Y-79165382D01*
X146057476Y-79237411D01*
X146069560Y-79250166D01*
X146107820Y-79275673D01*
X146166737Y-79314952D01*
X146166740Y-79314953D01*
X146172628Y-79318879D01*
X146179244Y-79321396D01*
X146179245Y-79321397D01*
X146281788Y-79360416D01*
X146288403Y-79362933D01*
X146411078Y-79380121D01*
X146418127Y-79379519D01*
X146418128Y-79379519D01*
X146511598Y-79371537D01*
X146511600Y-79371536D01*
X146532365Y-79369763D01*
X146534628Y-79370211D01*
X146541444Y-79365646D01*
X146552172Y-79363500D01*
X146554721Y-79363270D01*
X146555385Y-79363401D01*
X146555994Y-79363313D01*
X146559744Y-79361986D01*
X147014067Y-79271122D01*
X147014370Y-79272638D01*
X147016915Y-79271686D01*
X147024628Y-79273211D01*
X147026544Y-79271928D01*
X147044055Y-79266326D01*
X147044060Y-79266326D01*
X147135743Y-79236998D01*
X147135749Y-79236995D01*
X147142487Y-79234840D01*
X147216162Y-79191276D01*
X147243025Y-79175392D01*
X147243027Y-79175390D01*
X147249116Y-79171790D01*
X147299553Y-79124005D01*
X147333901Y-79091463D01*
X147333902Y-79091462D01*
X147339041Y-79086593D01*
X147342969Y-79080701D01*
X147403830Y-78989408D01*
X147403831Y-78989406D01*
X147407753Y-78983523D01*
X147420833Y-78949148D01*
X147449291Y-78874359D01*
X147449292Y-78874357D01*
X147451807Y-78867746D01*
X147468994Y-78745070D01*
X147467292Y-78725137D01*
X147462791Y-78672452D01*
X147458634Y-78623781D01*
X147459081Y-78621518D01*
X147454529Y-78614721D01*
X147452338Y-78603704D01*
X147452151Y-78601642D01*
X147452293Y-78600925D01*
X147452153Y-78599961D01*
X147450875Y-78596344D01*
X147431746Y-78500142D01*
X148695894Y-78500142D01*
X148696773Y-78502265D01*
X148710411Y-78623303D01*
X148751346Y-78740288D01*
X148755111Y-78746280D01*
X148763153Y-78759078D01*
X148817286Y-78845231D01*
X148904925Y-78932870D01*
X149009868Y-78998810D01*
X149126853Y-79039745D01*
X149247891Y-79053383D01*
X149250014Y-79054262D01*
X149259856Y-79050186D01*
X149270990Y-79051381D01*
X149279605Y-79050142D01*
X149740067Y-79050142D01*
X149740067Y-79051690D01*
X149742753Y-79051255D01*
X149750014Y-79054262D01*
X149752137Y-79053383D01*
X149792066Y-79048884D01*
X149866150Y-79040537D01*
X149866153Y-79040536D01*
X149873176Y-79039745D01*
X149990163Y-78998809D01*
X150095106Y-78932867D01*
X150182746Y-78845227D01*
X150188499Y-78836072D01*
X150244921Y-78746273D01*
X150244922Y-78746271D01*
X150245518Y-78745322D01*
X151530054Y-78745322D01*
X151547321Y-78868209D01*
X151557133Y-78893963D01*
X151588735Y-78976914D01*
X151591500Y-78984173D01*
X151595428Y-78990060D01*
X151595429Y-78990062D01*
X151601266Y-78998810D01*
X151660375Y-79087399D01*
X151750494Y-79172710D01*
X151788167Y-79194966D01*
X151851245Y-79232231D01*
X151851248Y-79232232D01*
X151857336Y-79235829D01*
X151864077Y-79237982D01*
X151864076Y-79237982D01*
X151953609Y-79266584D01*
X151953610Y-79266584D01*
X151973522Y-79272945D01*
X151975421Y-79274215D01*
X151985873Y-79272143D01*
X151994695Y-79274910D01*
X152008718Y-79275673D01*
X152237336Y-79321397D01*
X152456465Y-79365223D01*
X152456165Y-79366725D01*
X152458858Y-79366824D01*
X152465421Y-79371215D01*
X152467658Y-79370772D01*
X152589195Y-79381103D01*
X152596205Y-79380118D01*
X152596207Y-79380118D01*
X152705070Y-79364822D01*
X152705074Y-79364821D01*
X152712084Y-79363836D01*
X152828049Y-79319656D01*
X152931276Y-79250778D01*
X153016587Y-79160657D01*
X153079705Y-79053812D01*
X153116819Y-78937624D01*
X153118089Y-78935725D01*
X153116017Y-78925273D01*
X153118758Y-78916532D01*
X153119519Y-78902438D01*
X153697106Y-76002674D01*
X153698634Y-76002978D01*
X153698733Y-76000242D01*
X153703087Y-75993735D01*
X153702643Y-75991494D01*
X153712974Y-75869962D01*
X153709778Y-75847212D01*
X153706090Y-75820968D01*
X153695707Y-75747075D01*
X153668985Y-75676932D01*
X153654048Y-75637725D01*
X153654047Y-75637723D01*
X153651528Y-75631111D01*
X153623046Y-75588423D01*
X153586579Y-75533769D01*
X153582653Y-75527885D01*
X153492534Y-75442574D01*
X153432165Y-75406910D01*
X153391783Y-75383053D01*
X153391780Y-75383052D01*
X153385692Y-75379455D01*
X153340343Y-75364968D01*
X153289419Y-75348700D01*
X153289418Y-75348700D01*
X153269506Y-75342339D01*
X153267607Y-75341069D01*
X153257154Y-75343140D01*
X153248374Y-75340387D01*
X153234317Y-75339625D01*
X152785515Y-75250048D01*
X152785808Y-75248578D01*
X152783170Y-75248484D01*
X152776524Y-75244052D01*
X152774256Y-75244505D01*
X152652998Y-75234389D01*
X152530400Y-75251811D01*
X152523797Y-75254338D01*
X152523795Y-75254339D01*
X152421362Y-75293548D01*
X152421360Y-75293549D01*
X152414753Y-75296078D01*
X152408874Y-75300014D01*
X152408872Y-75300015D01*
X152318156Y-75360750D01*
X152311856Y-75364968D01*
X152272276Y-75406910D01*
X152231718Y-75449888D01*
X152231716Y-75449891D01*
X152226868Y-75455028D01*
X152164051Y-75561741D01*
X152127207Y-75677708D01*
X152125924Y-75679632D01*
X152127529Y-75687661D01*
X152125360Y-75698569D01*
X152124688Y-75700722D01*
X152124294Y-75701313D01*
X152124085Y-75702132D01*
X152123879Y-75706015D01*
X151559638Y-78543615D01*
X151545917Y-78612617D01*
X151544378Y-78612311D01*
X151544279Y-78615066D01*
X151539941Y-78621549D01*
X151540385Y-78623790D01*
X151530054Y-78745322D01*
X150245518Y-78745322D01*
X150248685Y-78740282D01*
X150289619Y-78623295D01*
X150298116Y-78547874D01*
X150300918Y-78523002D01*
X150300918Y-78523001D01*
X150303255Y-78502255D01*
X150304134Y-78500132D01*
X150300057Y-78490291D01*
X150301253Y-78479155D01*
X150300014Y-78470541D01*
X150300014Y-75510089D01*
X150301562Y-75510089D01*
X150301127Y-75507403D01*
X150304134Y-75500142D01*
X150303255Y-75498019D01*
X150289617Y-75376981D01*
X150285414Y-75364968D01*
X150277852Y-75343359D01*
X150248682Y-75259996D01*
X150242346Y-75249912D01*
X150186509Y-75161048D01*
X150186509Y-75161047D01*
X150182742Y-75155053D01*
X150095103Y-75067414D01*
X149990160Y-75001474D01*
X149873175Y-74960539D01*
X149752137Y-74946901D01*
X149750014Y-74946022D01*
X149740172Y-74950098D01*
X149729038Y-74948903D01*
X149720423Y-74950142D01*
X149259961Y-74950142D01*
X149259961Y-74948594D01*
X149257275Y-74949029D01*
X149250014Y-74946022D01*
X149247891Y-74946901D01*
X149126853Y-74960539D01*
X149009868Y-75001474D01*
X148904925Y-75067414D01*
X148817286Y-75155053D01*
X148813519Y-75161047D01*
X148813519Y-75161048D01*
X148757682Y-75249912D01*
X148751346Y-75259996D01*
X148722176Y-75343359D01*
X148714615Y-75364968D01*
X148710411Y-75376981D01*
X148696773Y-75498019D01*
X148695894Y-75500142D01*
X148699970Y-75509984D01*
X148698775Y-75521118D01*
X148700014Y-75529733D01*
X148700014Y-78490195D01*
X148698466Y-78490195D01*
X148698901Y-78492881D01*
X148695894Y-78500142D01*
X147431746Y-78500142D01*
X146873000Y-75690178D01*
X146874559Y-75689868D01*
X146873586Y-75687253D01*
X146875108Y-75679653D01*
X146873838Y-75677747D01*
X146836965Y-75561535D01*
X146774078Y-75454607D01*
X146688973Y-75364353D01*
X146585919Y-75295300D01*
X146470083Y-75250910D01*
X146463087Y-75249913D01*
X146463083Y-75249912D01*
X146354280Y-75234407D01*
X146354277Y-75234407D01*
X146347274Y-75233409D01*
X146288520Y-75238288D01*
X146246566Y-75241771D01*
X146246565Y-75241771D01*
X146225771Y-75243498D01*
X146223525Y-75243048D01*
X146214664Y-75248952D01*
X146205739Y-75249738D01*
X146192255Y-75254490D01*
X145936731Y-75305491D01*
X145742972Y-75344164D01*
X145742672Y-75342660D01*
X145740145Y-75343605D01*
X145732400Y-75342073D01*
X145730480Y-75343359D01*
X145691916Y-75355695D01*
X145621278Y-75378290D01*
X145621273Y-75378292D01*
X145614543Y-75380445D01*
X145507915Y-75443493D01*
X145502777Y-75448361D01*
X145502774Y-75448363D01*
X145423127Y-75523821D01*
X145417990Y-75528688D01*
X145349277Y-75631756D01*
X145346760Y-75638372D01*
X145346759Y-75638373D01*
X145322498Y-75702132D01*
X145305223Y-75747531D01*
X145288035Y-75870206D01*
X139280509Y-75870206D01*
X139456659Y-75763234D01*
X139460642Y-75760914D01*
X140093880Y-75407398D01*
X140097946Y-75405225D01*
X140743675Y-75075117D01*
X140747817Y-75073094D01*
X140749260Y-75072422D01*
X141398067Y-74770144D01*
X141399376Y-74772953D01*
X141403709Y-74770145D01*
X141407715Y-74770146D01*
X141408234Y-74769627D01*
X141408968Y-74769609D01*
X141415763Y-74762465D01*
X141415764Y-74762465D01*
X141421728Y-74756195D01*
X141423924Y-74753943D01*
X141437011Y-74740863D01*
X141437011Y-74740129D01*
X141437517Y-74739597D01*
X141437270Y-74729742D01*
X141437271Y-74729741D01*
X141437054Y-74721085D01*
X141437014Y-74717895D01*
X141437016Y-74710208D01*
X141436767Y-74709606D01*
X141436481Y-74698188D01*
X141429155Y-74691219D01*
X141427946Y-74688299D01*
X141424373Y-74677169D01*
X141421156Y-74671897D01*
X141303435Y-74387530D01*
X141052002Y-73780172D01*
X141053129Y-73779705D01*
X141051999Y-73777877D01*
X141051990Y-73770373D01*
X141046208Y-73764604D01*
X141029489Y-73702499D01*
X141021941Y-73674461D01*
X141017609Y-73641855D01*
X141017510Y-73557477D01*
X141021764Y-73524863D01*
X141043509Y-73443330D01*
X141056061Y-73412928D01*
X141098165Y-73339804D01*
X141118156Y-73313688D01*
X141177755Y-73253949D01*
X141203818Y-73233902D01*
X141276850Y-73191623D01*
X141307222Y-73179002D01*
X141388696Y-73157069D01*
X141421301Y-73152737D01*
X141463194Y-73152688D01*
X141505682Y-73152638D01*
X141538293Y-73156892D01*
X141601798Y-73173829D01*
X141619826Y-73178637D01*
X141650228Y-73191189D01*
X141723352Y-73233293D01*
X141749468Y-73253284D01*
X141809206Y-73312882D01*
X141829255Y-73338947D01*
X141833305Y-73345944D01*
X141874441Y-73417002D01*
X141876029Y-73420699D01*
X141876038Y-73427911D01*
X141881446Y-73433306D01*
X141886247Y-73444481D01*
X141886789Y-73446319D01*
X141891172Y-73453698D01*
X142260403Y-74345605D01*
X142257984Y-74346606D01*
X142260282Y-74350433D01*
X142260131Y-74356482D01*
X142267471Y-74364199D01*
X142268585Y-74365370D01*
X142268155Y-74365779D01*
X142268890Y-74366739D01*
X142268274Y-74367210D01*
X142268371Y-74367575D01*
X142269584Y-74366421D01*
X142288679Y-74386496D01*
X142289675Y-74386521D01*
X142290293Y-74387139D01*
X142299977Y-74387141D01*
X142299978Y-74387141D01*
X142313020Y-74387143D01*
X142313584Y-74387150D01*
X142313608Y-74387143D01*
X142314593Y-74387143D01*
X142330087Y-74387530D01*
X142330491Y-74387146D01*
X142331715Y-74387146D01*
X142338943Y-74379921D01*
X142339300Y-74379791D01*
X142352980Y-74376143D01*
X142359660Y-74372373D01*
X143012218Y-74134609D01*
X143016578Y-74133111D01*
X143706611Y-73909928D01*
X143711022Y-73908590D01*
X144408769Y-73710792D01*
X144413226Y-73709616D01*
X145110095Y-73539341D01*
X145110832Y-73542357D01*
X145115638Y-73540446D01*
X145119555Y-73541226D01*
X145120169Y-73540816D01*
X145120896Y-73540942D01*
X145128951Y-73535264D01*
X145136036Y-73530270D01*
X145138633Y-73528488D01*
X145154004Y-73518224D01*
X145154148Y-73517500D01*
X145154751Y-73517075D01*
X145157900Y-73498879D01*
X145158479Y-73495764D01*
X145158755Y-73494379D01*
X145159994Y-73488160D01*
X145159866Y-73487516D01*
X145161814Y-73476260D01*
X145155990Y-73467999D01*
X145155371Y-73464882D01*
X145154039Y-73453271D01*
X145151916Y-73447481D01*
X144964086Y-72501624D01*
X144965424Y-72501358D01*
X144964584Y-72499107D01*
X144966083Y-72491528D01*
X144961538Y-72484741D01*
X144955345Y-72391747D01*
X144957463Y-72358922D01*
X144973807Y-72276308D01*
X144984347Y-72245151D01*
X145021517Y-72169578D01*
X145039762Y-72142210D01*
X145095225Y-72078833D01*
X145119933Y-72057119D01*
X145189913Y-72010254D01*
X145219398Y-71995675D01*
X145299117Y-71968521D01*
X145331370Y-71962071D01*
X145415408Y-71956474D01*
X145448233Y-71958591D01*
X145465824Y-71962071D01*
X145530848Y-71974935D01*
X145562005Y-71985475D01*
X145637578Y-72022645D01*
X145664946Y-72040890D01*
X145728323Y-72096353D01*
X145750037Y-72121061D01*
X145796902Y-72191041D01*
X145811480Y-72220524D01*
X145820491Y-72246975D01*
X145840506Y-72305736D01*
X145841344Y-72309682D01*
X145839945Y-72316756D01*
X145844194Y-72323101D01*
X145846721Y-72334998D01*
X145846883Y-72336789D01*
X145849778Y-72344972D01*
X146038742Y-73291712D01*
X146036235Y-73292212D01*
X146037707Y-73296312D01*
X146036426Y-73302007D01*
X146042120Y-73311008D01*
X146042812Y-73312102D01*
X146042341Y-73312400D01*
X146042589Y-73312906D01*
X146042926Y-73312680D01*
X146046631Y-73318217D01*
X146048374Y-73320895D01*
X146058570Y-73337013D01*
X146059321Y-73337182D01*
X146059976Y-73338161D01*
X146069826Y-73340113D01*
X146069827Y-73340114D01*
X146082854Y-73342696D01*
X146082855Y-73342696D01*
X146091019Y-73344314D01*
X146098981Y-73346106D01*
X146099238Y-73345944D01*
X146100607Y-73346215D01*
X146109400Y-73340332D01*
X146109427Y-73340328D01*
X146110020Y-73340282D01*
X146123938Y-73339387D01*
X146131363Y-73336944D01*
X146814902Y-73231500D01*
X146817347Y-73231123D01*
X146821914Y-73230504D01*
X147542261Y-73146225D01*
X147546819Y-73145775D01*
X147844954Y-73121909D01*
X148269774Y-73087902D01*
X148274374Y-73087618D01*
X148991094Y-73056567D01*
X148991228Y-73059655D01*
X148996294Y-73058721D01*
X149000014Y-73060262D01*
X149000687Y-73059983D01*
X149001367Y-73060245D01*
X149018294Y-73052733D01*
X149021134Y-73051514D01*
X149038283Y-73044411D01*
X149038562Y-73043738D01*
X149039228Y-73043442D01*
X149045896Y-73026132D01*
X149047042Y-73023266D01*
X149047583Y-73021959D01*
X149047583Y-73021958D01*
X149050014Y-73016089D01*
X149050014Y-73015441D01*
X149054117Y-73004789D01*
X149050014Y-72995544D01*
X149050014Y-72992407D01*
X149050972Y-72980760D01*
X149050014Y-72974642D01*
X149050014Y-72010089D01*
X149051560Y-72010089D01*
X149051125Y-72007406D01*
X149054134Y-72000142D01*
X149051008Y-71992594D01*
X149063182Y-71900119D01*
X149071696Y-71868346D01*
X149103954Y-71790470D01*
X149120400Y-71761985D01*
X149171719Y-71695105D01*
X149194977Y-71671847D01*
X149261857Y-71620528D01*
X149290342Y-71604082D01*
X149368218Y-71571824D01*
X149399991Y-71563310D01*
X149441780Y-71557808D01*
X149483569Y-71552307D01*
X149516459Y-71552307D01*
X149558248Y-71557808D01*
G37*
G04 #@! TD.AperFunction*
M02*
