G04 #@! TF.GenerationSoftware,KiCad,Pcbnew,(6.0.1-0)*
G04 #@! TF.CreationDate,2022-10-06T13:30:19-04:00*
G04 #@! TF.ProjectId,feederFloor,66656564-6572-4466-9c6f-6f722e6b6963,rev?*
G04 #@! TF.SameCoordinates,Original*
G04 #@! TF.FileFunction,Copper,L1,Top*
G04 #@! TF.FilePolarity,Positive*
%FSLAX46Y46*%
G04 Gerber Fmt 4.6, Leading zero omitted, Abs format (unit mm)*
G04 Created by KiCad (PCBNEW (6.0.1-0)) date 2022-10-06 13:30:19*
%MOMM*%
%LPD*%
G01*
G04 APERTURE LIST*
G04 Aperture macros list*
%AMRoundRect*
0 Rectangle with rounded corners*
0 $1 Rounding radius*
0 $2 $3 $4 $5 $6 $7 $8 $9 X,Y pos of 4 corners*
0 Add a 4 corners polygon primitive as box body*
4,1,4,$2,$3,$4,$5,$6,$7,$8,$9,$2,$3,0*
0 Add four circle primitives for the rounded corners*
1,1,$1+$1,$2,$3*
1,1,$1+$1,$4,$5*
1,1,$1+$1,$6,$7*
1,1,$1+$1,$8,$9*
0 Add four rect primitives between the rounded corners*
20,1,$1+$1,$2,$3,$4,$5,0*
20,1,$1+$1,$4,$5,$6,$7,0*
20,1,$1+$1,$6,$7,$8,$9,0*
20,1,$1+$1,$8,$9,$2,$3,0*%
G04 Aperture macros list end*
G04 #@! TA.AperFunction,SMDPad,CuDef*
%ADD10R,3.150000X1.000000*%
G04 #@! TD*
G04 #@! TA.AperFunction,SMDPad,CuDef*
%ADD11RoundRect,0.150000X-0.587500X-0.150000X0.587500X-0.150000X0.587500X0.150000X-0.587500X0.150000X0*%
G04 #@! TD*
G04 #@! TA.AperFunction,SMDPad,CuDef*
%ADD12RoundRect,0.250000X-0.262500X-0.450000X0.262500X-0.450000X0.262500X0.450000X-0.262500X0.450000X0*%
G04 #@! TD*
G04 #@! TA.AperFunction,SMDPad,CuDef*
%ADD13RoundRect,0.250000X-0.450000X0.262500X-0.450000X-0.262500X0.450000X-0.262500X0.450000X0.262500X0*%
G04 #@! TD*
G04 #@! TA.AperFunction,ViaPad*
%ADD14C,0.800000*%
G04 #@! TD*
G04 #@! TA.AperFunction,Conductor*
%ADD15C,1.000000*%
G04 #@! TD*
G04 #@! TA.AperFunction,Conductor*
%ADD16C,0.200000*%
G04 #@! TD*
G04 #@! TA.AperFunction,Conductor*
%ADD17C,0.250000*%
G04 #@! TD*
G04 APERTURE END LIST*
D10*
X29475000Y-50840000D03*
X24425000Y-50840000D03*
X29475000Y-48300000D03*
X24425000Y-48300000D03*
X29475000Y-45760000D03*
X24425000Y-45760000D03*
D11*
X26662500Y-28550000D03*
X26662500Y-30450000D03*
X28537500Y-29500000D03*
D12*
X25137500Y-32600000D03*
X26962500Y-32600000D03*
D13*
X24550000Y-28587500D03*
X24550000Y-30412500D03*
D14*
X31750000Y-49400000D03*
X30850000Y-39000000D03*
X32050000Y-39000000D03*
X33350000Y-39000000D03*
X30200000Y-36400000D03*
X30200000Y-34050000D03*
X30200000Y-35200000D03*
X31800000Y-52300000D03*
X22100000Y-49400000D03*
X22100000Y-52300000D03*
X30250000Y-27100000D03*
X30200000Y-29650000D03*
X30200000Y-32100000D03*
D15*
X29475000Y-48300000D02*
X30409022Y-48300000D01*
X31800000Y-39250000D02*
X32050000Y-39000000D01*
X30409022Y-48300000D02*
X31800000Y-46909022D01*
X31800000Y-46909022D02*
X31800000Y-39250000D01*
X26950000Y-48300000D02*
X24425000Y-48300000D01*
D16*
X28600000Y-35300000D02*
X28600000Y-43650000D01*
X26962500Y-32600000D02*
X26962500Y-32762500D01*
X26962500Y-32762500D02*
X29150000Y-34950000D01*
D15*
X26950000Y-48300000D02*
X29475000Y-48300000D01*
D16*
X29150000Y-34950000D02*
X29150000Y-45435000D01*
X29150000Y-45435000D02*
X29475000Y-45760000D01*
X26300000Y-33850000D02*
X27150000Y-33850000D01*
X25137500Y-32600000D02*
X25137500Y-32687500D01*
X25137500Y-32687500D02*
X26300000Y-33850000D01*
X28600000Y-43650000D02*
X26490000Y-45760000D01*
X27150000Y-33850000D02*
X28600000Y-35300000D01*
X26490000Y-45760000D02*
X24425000Y-45760000D01*
D15*
X33350000Y-39000000D02*
X30850000Y-39000000D01*
D16*
X30200000Y-32100000D02*
X29450000Y-31350000D01*
X29450000Y-31350000D02*
X26150000Y-31350000D01*
X26150000Y-31350000D02*
X25137500Y-32362500D01*
X25137500Y-32362500D02*
X25137500Y-32600000D01*
X30200000Y-29650000D02*
X31150000Y-30600000D01*
X31150000Y-30600000D02*
X31150000Y-32400000D01*
X31150000Y-32400000D02*
X30700000Y-32850000D01*
X30700000Y-32850000D02*
X27212500Y-32850000D01*
X27212500Y-32850000D02*
X26962500Y-32600000D01*
D17*
X30550000Y-34050000D02*
X31800000Y-32800000D01*
X25237500Y-30412500D02*
X26150000Y-29500000D01*
X24550000Y-28587500D02*
X26625000Y-28587500D01*
X30200000Y-34050000D02*
X30550000Y-34050000D01*
X26625000Y-28587500D02*
X26662500Y-28550000D01*
X26150000Y-29500000D02*
X28537500Y-29500000D01*
X30250000Y-27100000D02*
X28800000Y-28550000D01*
X28800000Y-28550000D02*
X26662500Y-28550000D01*
X24550000Y-30412500D02*
X25237500Y-30412500D01*
X30800000Y-28650000D02*
X29650000Y-28650000D01*
X31800000Y-32800000D02*
X31800000Y-29650000D01*
X31800000Y-29650000D02*
X30800000Y-28650000D01*
X29650000Y-28650000D02*
X28800000Y-29500000D01*
X28800000Y-29500000D02*
X28537500Y-29500000D01*
G04 #@! TA.AperFunction,Conductor*
G36*
X34309305Y-25432594D02*
G01*
X34345269Y-25482094D01*
X34350114Y-25512687D01*
X34350114Y-38967788D01*
X34339633Y-39000046D01*
X34350114Y-39040283D01*
X34350114Y-40201000D01*
X34331207Y-40259191D01*
X34281707Y-40295155D01*
X34251114Y-40300000D01*
X32705733Y-40300000D01*
X32696075Y-40299528D01*
X32689842Y-40298917D01*
X32633773Y-40274423D01*
X32602810Y-40221650D01*
X32600500Y-40200389D01*
X32600500Y-39899500D01*
X32619407Y-39841309D01*
X32668907Y-39805345D01*
X32699500Y-39800500D01*
X33395155Y-39800500D01*
X33397909Y-39800191D01*
X33397911Y-39800191D01*
X33425291Y-39797120D01*
X33528472Y-39785546D01*
X33698073Y-39726485D01*
X33735979Y-39702799D01*
X33845685Y-39634247D01*
X33845687Y-39634245D01*
X33850375Y-39631316D01*
X33977807Y-39504770D01*
X33980774Y-39500095D01*
X34071071Y-39357810D01*
X34071072Y-39357809D01*
X34074037Y-39353136D01*
X34134281Y-39183951D01*
X34152810Y-39028561D01*
X34163299Y-39005862D01*
X34152656Y-38978136D01*
X34142851Y-38884850D01*
X34136773Y-38827017D01*
X34114458Y-38761466D01*
X34080682Y-38662249D01*
X34080680Y-38662245D01*
X34078897Y-38657007D01*
X34075999Y-38652297D01*
X34075997Y-38652292D01*
X33987691Y-38508754D01*
X33984794Y-38504045D01*
X33859141Y-38375732D01*
X33708183Y-38278446D01*
X33539422Y-38217022D01*
X33400717Y-38199500D01*
X32058991Y-38199500D01*
X32057954Y-38199495D01*
X32052712Y-38199440D01*
X31968593Y-38198559D01*
X31965411Y-38199247D01*
X31960417Y-38199500D01*
X30804845Y-38199500D01*
X30802091Y-38199809D01*
X30802089Y-38199809D01*
X30774709Y-38202880D01*
X30671528Y-38214454D01*
X30501927Y-38273515D01*
X30497234Y-38276447D01*
X30497235Y-38276447D01*
X30354315Y-38365753D01*
X30354313Y-38365755D01*
X30349625Y-38368684D01*
X30345700Y-38372582D01*
X30234501Y-38483008D01*
X30222193Y-38495230D01*
X30219227Y-38499904D01*
X30219226Y-38499905D01*
X30219106Y-38500095D01*
X30125963Y-38646864D01*
X30065719Y-38816049D01*
X30065065Y-38821536D01*
X30065064Y-38821539D01*
X30055656Y-38900439D01*
X30044455Y-38994376D01*
X30063227Y-39172983D01*
X30121103Y-39342993D01*
X30124001Y-39347703D01*
X30124003Y-39347708D01*
X30130218Y-39357810D01*
X30215206Y-39495955D01*
X30340859Y-39624268D01*
X30491817Y-39721554D01*
X30660578Y-39782978D01*
X30799283Y-39800500D01*
X30900500Y-39800500D01*
X30958691Y-39819407D01*
X30994655Y-39868907D01*
X30999500Y-39899500D01*
X30999500Y-44860500D01*
X30980593Y-44918691D01*
X30931093Y-44954655D01*
X30900500Y-44959500D01*
X29649500Y-44959500D01*
X29591309Y-44940593D01*
X29555345Y-44891093D01*
X29550500Y-44860500D01*
X29550500Y-34886567D01*
X29543044Y-34863620D01*
X29539419Y-34848519D01*
X29536865Y-34832391D01*
X29536864Y-34832389D01*
X29535646Y-34824696D01*
X29524695Y-34803203D01*
X29518752Y-34788857D01*
X29513704Y-34773319D01*
X29513702Y-34773315D01*
X29511296Y-34765910D01*
X29497111Y-34746386D01*
X29489004Y-34733156D01*
X29478050Y-34711658D01*
X29388342Y-34621950D01*
X28185897Y-33419504D01*
X28158120Y-33364987D01*
X28167691Y-33304555D01*
X28210956Y-33261290D01*
X28255901Y-33250500D01*
X30763433Y-33250500D01*
X30786380Y-33243044D01*
X30801481Y-33239419D01*
X30817609Y-33236865D01*
X30817611Y-33236864D01*
X30825304Y-33235646D01*
X30846797Y-33224695D01*
X30861143Y-33218752D01*
X30876679Y-33213704D01*
X30884090Y-33211296D01*
X30903607Y-33197116D01*
X30916846Y-33189002D01*
X30938342Y-33178050D01*
X30960905Y-33155487D01*
X30960909Y-33155484D01*
X31455483Y-32660909D01*
X31478050Y-32638342D01*
X31489004Y-32616844D01*
X31497111Y-32603614D01*
X31511296Y-32584090D01*
X31513702Y-32576685D01*
X31513704Y-32576681D01*
X31518752Y-32561143D01*
X31524695Y-32546797D01*
X31535646Y-32525304D01*
X31539419Y-32501481D01*
X31543045Y-32486375D01*
X31550500Y-32463433D01*
X31550500Y-30536567D01*
X31543044Y-30513620D01*
X31539419Y-30498519D01*
X31536865Y-30482391D01*
X31536864Y-30482389D01*
X31535646Y-30474696D01*
X31524695Y-30453203D01*
X31518752Y-30438857D01*
X31513704Y-30423321D01*
X31511296Y-30415910D01*
X31497116Y-30396393D01*
X31489002Y-30383154D01*
X31478050Y-30361658D01*
X31455487Y-30339095D01*
X31455484Y-30339091D01*
X30924979Y-29808586D01*
X30897202Y-29754069D01*
X30896971Y-29724632D01*
X30903053Y-29681904D01*
X30905490Y-29664778D01*
X30905645Y-29650000D01*
X30893409Y-29548891D01*
X30885993Y-29487602D01*
X30885992Y-29487599D01*
X30885276Y-29481680D01*
X30825345Y-29323077D01*
X30819387Y-29314407D01*
X30732692Y-29188267D01*
X30729312Y-29183349D01*
X30602721Y-29070560D01*
X30452881Y-28991224D01*
X30348572Y-28965023D01*
X30294231Y-28951373D01*
X30294228Y-28951373D01*
X30288441Y-28949919D01*
X30202841Y-28949471D01*
X30124861Y-28949062D01*
X30124859Y-28949062D01*
X30118895Y-28949031D01*
X30113099Y-28950423D01*
X30113095Y-28950423D01*
X30008646Y-28975500D01*
X29954032Y-28988612D01*
X29857969Y-29038194D01*
X29823862Y-29055798D01*
X29763481Y-29065686D01*
X29708820Y-29038194D01*
X29693242Y-29018219D01*
X29652226Y-28948863D01*
X29644654Y-28939101D01*
X29535899Y-28830346D01*
X29526140Y-28822776D01*
X29388400Y-28741318D01*
X29389621Y-28739253D01*
X29351396Y-28705564D01*
X29338039Y-28645854D01*
X29362329Y-28589697D01*
X29366597Y-28585151D01*
X30123014Y-27828734D01*
X30177531Y-27800957D01*
X30194573Y-27799750D01*
X30256921Y-27800729D01*
X30323760Y-27801779D01*
X30329575Y-27800447D01*
X30329577Y-27800447D01*
X30483206Y-27765262D01*
X30483209Y-27765261D01*
X30489029Y-27763928D01*
X30640498Y-27687747D01*
X30645035Y-27683872D01*
X30645038Y-27683870D01*
X30764888Y-27581508D01*
X30764891Y-27581505D01*
X30769423Y-27577634D01*
X30868361Y-27439947D01*
X30931601Y-27282634D01*
X30932442Y-27276727D01*
X30955034Y-27117985D01*
X30955034Y-27117979D01*
X30955490Y-27114778D01*
X30955645Y-27100000D01*
X30935276Y-26931680D01*
X30875345Y-26773077D01*
X30779312Y-26633349D01*
X30652721Y-26520560D01*
X30502881Y-26441224D01*
X30420661Y-26420571D01*
X30344231Y-26401373D01*
X30344228Y-26401373D01*
X30338441Y-26399919D01*
X30252841Y-26399471D01*
X30174861Y-26399062D01*
X30174859Y-26399062D01*
X30168895Y-26399031D01*
X30163099Y-26400423D01*
X30163095Y-26400423D01*
X30055703Y-26426207D01*
X30004032Y-26438612D01*
X29928700Y-26477494D01*
X29858675Y-26513636D01*
X29858673Y-26513638D01*
X29853369Y-26516375D01*
X29725604Y-26627831D01*
X29628113Y-26766547D01*
X29566524Y-26924513D01*
X29544394Y-27092611D01*
X29545049Y-27098544D01*
X29545049Y-27098548D01*
X29550238Y-27145544D01*
X29537831Y-27205458D01*
X29521840Y-27226412D01*
X28652748Y-28095504D01*
X28598231Y-28123281D01*
X28582744Y-28124500D01*
X27656560Y-28124500D01*
X27598369Y-28105593D01*
X27576925Y-28084315D01*
X27576549Y-28083806D01*
X27572150Y-28077850D01*
X27463184Y-27997366D01*
X27335369Y-27952481D01*
X27329362Y-27951913D01*
X27329361Y-27951913D01*
X27306145Y-27949718D01*
X27306135Y-27949718D01*
X27303834Y-27949500D01*
X26021166Y-27949500D01*
X26018865Y-27949718D01*
X26018855Y-27949718D01*
X25995639Y-27951913D01*
X25995638Y-27951913D01*
X25989631Y-27952481D01*
X25861816Y-27997366D01*
X25752850Y-28077850D01*
X25748456Y-28083799D01*
X25748452Y-28083803D01*
X25720374Y-28121818D01*
X25670593Y-28157392D01*
X25640741Y-28162000D01*
X25594859Y-28162000D01*
X25536668Y-28143093D01*
X25502811Y-28099444D01*
X25486598Y-28058493D01*
X25486597Y-28058492D01*
X25484113Y-28052217D01*
X25445816Y-28001762D01*
X25397005Y-27937457D01*
X25392922Y-27932078D01*
X25387543Y-27927995D01*
X25278160Y-27844968D01*
X25278158Y-27844967D01*
X25272783Y-27840887D01*
X25132547Y-27785364D01*
X25042772Y-27774500D01*
X24057228Y-27774500D01*
X23967453Y-27785364D01*
X23827217Y-27840887D01*
X23821842Y-27844967D01*
X23821840Y-27844968D01*
X23712457Y-27927995D01*
X23707078Y-27932078D01*
X23702995Y-27937457D01*
X23654185Y-28001762D01*
X23615887Y-28052217D01*
X23560364Y-28192453D01*
X23549500Y-28282228D01*
X23549500Y-28892772D01*
X23560364Y-28982547D01*
X23615887Y-29122783D01*
X23619967Y-29128158D01*
X23619968Y-29128160D01*
X23702995Y-29237543D01*
X23707078Y-29242922D01*
X23712457Y-29247005D01*
X23712460Y-29247008D01*
X23780061Y-29298320D01*
X23814981Y-29348562D01*
X23813699Y-29409734D01*
X23772301Y-29461361D01*
X23630855Y-29548891D01*
X23621902Y-29555987D01*
X23505153Y-29672939D01*
X23498073Y-29681904D01*
X23411359Y-29822580D01*
X23406531Y-29832934D01*
X23354398Y-29990110D01*
X23352145Y-30000621D01*
X23342259Y-30097112D01*
X23342000Y-30102171D01*
X23342000Y-30142820D01*
X23346122Y-30155505D01*
X23350243Y-30158500D01*
X24705000Y-30158500D01*
X24763191Y-30177407D01*
X24799155Y-30226907D01*
X24804000Y-30257500D01*
X24804000Y-31417319D01*
X24808284Y-31430505D01*
X24843660Y-31479195D01*
X24843660Y-31540381D01*
X24807696Y-31589881D01*
X24761400Y-31608071D01*
X24753083Y-31609078D01*
X24742453Y-31610364D01*
X24602217Y-31665887D01*
X24596842Y-31669967D01*
X24596840Y-31669968D01*
X24490744Y-31750500D01*
X24482078Y-31757078D01*
X24390887Y-31877217D01*
X24335364Y-32017453D01*
X24324500Y-32107228D01*
X24324500Y-33092772D01*
X24335364Y-33182547D01*
X24390887Y-33322783D01*
X24394967Y-33328158D01*
X24394968Y-33328160D01*
X24464303Y-33419504D01*
X24482078Y-33442922D01*
X24487457Y-33447005D01*
X24596840Y-33530032D01*
X24596842Y-33530033D01*
X24602217Y-33534113D01*
X24742453Y-33589636D01*
X24832228Y-33600500D01*
X25442772Y-33600500D01*
X25442772Y-33602163D01*
X25496229Y-33615957D01*
X25513083Y-33629477D01*
X25971949Y-34088342D01*
X26056145Y-34172538D01*
X26056149Y-34172541D01*
X26061658Y-34178050D01*
X26083156Y-34189004D01*
X26096386Y-34197111D01*
X26115910Y-34211296D01*
X26123320Y-34213704D01*
X26123321Y-34213704D01*
X26138855Y-34218751D01*
X26153204Y-34224695D01*
X26174696Y-34235646D01*
X26182392Y-34236865D01*
X26198524Y-34239420D01*
X26213627Y-34243046D01*
X26229157Y-34248092D01*
X26229160Y-34248093D01*
X26236567Y-34250499D01*
X26268477Y-34250499D01*
X26268481Y-34250500D01*
X26943099Y-34250500D01*
X27001290Y-34269407D01*
X27013103Y-34279496D01*
X28170504Y-35436897D01*
X28198281Y-35491414D01*
X28199500Y-35506901D01*
X28199500Y-43443099D01*
X28180593Y-43501290D01*
X28170504Y-43513103D01*
X26459323Y-45224284D01*
X26404806Y-45252061D01*
X26344374Y-45242490D01*
X26301109Y-45199225D01*
X26297460Y-45189811D01*
X26297382Y-45189154D01*
X26251939Y-45086847D01*
X26172713Y-45007759D01*
X26143591Y-44994884D01*
X26077136Y-44965504D01*
X26077134Y-44965504D01*
X26070327Y-44962494D01*
X26056322Y-44960861D01*
X26047494Y-44959832D01*
X26047493Y-44959832D01*
X26044646Y-44959500D01*
X22805354Y-44959500D01*
X22788951Y-44961452D01*
X22786531Y-44961740D01*
X22786530Y-44961740D01*
X22779154Y-44962618D01*
X22676847Y-45008061D01*
X22597759Y-45087287D01*
X22552494Y-45189673D01*
X22549500Y-45215354D01*
X22549500Y-46304646D01*
X22552618Y-46330846D01*
X22598061Y-46433153D01*
X22677287Y-46512241D01*
X22685645Y-46515936D01*
X22772864Y-46554496D01*
X22772866Y-46554496D01*
X22779673Y-46557506D01*
X22787067Y-46558368D01*
X22802378Y-46560153D01*
X22805354Y-46560500D01*
X26044646Y-46560500D01*
X26062561Y-46558368D01*
X26063469Y-46558260D01*
X26063470Y-46558260D01*
X26070846Y-46557382D01*
X26173153Y-46511939D01*
X26252241Y-46432713D01*
X26297506Y-46330327D01*
X26300500Y-46304646D01*
X26300500Y-46259500D01*
X26319407Y-46201309D01*
X26368907Y-46165345D01*
X26399500Y-46160500D01*
X26553433Y-46160500D01*
X26576380Y-46153044D01*
X26591481Y-46149419D01*
X26607609Y-46146865D01*
X26607611Y-46146864D01*
X26615304Y-46145646D01*
X26636797Y-46134695D01*
X26651143Y-46128752D01*
X26666679Y-46123704D01*
X26674090Y-46121296D01*
X26693607Y-46107116D01*
X26706846Y-46099002D01*
X26728342Y-46088050D01*
X26750905Y-46065487D01*
X26750909Y-46065484D01*
X27430496Y-45385897D01*
X27485013Y-45358120D01*
X27545445Y-45367691D01*
X27588710Y-45410956D01*
X27599500Y-45455901D01*
X27599500Y-46304646D01*
X27602618Y-46330846D01*
X27648061Y-46433153D01*
X27727287Y-46512241D01*
X27735645Y-46515936D01*
X27822864Y-46554496D01*
X27822866Y-46554496D01*
X27829673Y-46557506D01*
X27837067Y-46558368D01*
X27852378Y-46560153D01*
X27855354Y-46560500D01*
X30777436Y-46560500D01*
X30835627Y-46579407D01*
X30871591Y-46628907D01*
X30871591Y-46690093D01*
X30847440Y-46729504D01*
X30106440Y-47470504D01*
X30051923Y-47498281D01*
X30036436Y-47499500D01*
X22805354Y-47499500D01*
X22788951Y-47501452D01*
X22786531Y-47501740D01*
X22786530Y-47501740D01*
X22779154Y-47502618D01*
X22676847Y-47548061D01*
X22597759Y-47627287D01*
X22552494Y-47729673D01*
X22549500Y-47755354D01*
X22549500Y-48844646D01*
X22552618Y-48870846D01*
X22598061Y-48973153D01*
X22677287Y-49052241D01*
X22685645Y-49055936D01*
X22772864Y-49094496D01*
X22772866Y-49094496D01*
X22779673Y-49097506D01*
X22787067Y-49098368D01*
X22802378Y-49100153D01*
X22805354Y-49100500D01*
X30400031Y-49100500D01*
X30401069Y-49100505D01*
X30490429Y-49101441D01*
X30493611Y-49100753D01*
X30498605Y-49100500D01*
X31094646Y-49100500D01*
X31112561Y-49098368D01*
X31113469Y-49098260D01*
X31113470Y-49098260D01*
X31120846Y-49097382D01*
X31223153Y-49051939D01*
X31302241Y-48972713D01*
X31347506Y-48870327D01*
X31350500Y-48844646D01*
X31350500Y-48531608D01*
X31369407Y-48473417D01*
X31379496Y-48461604D01*
X32181058Y-47660042D01*
X32235575Y-47632265D01*
X32296007Y-47641836D01*
X32339272Y-47685101D01*
X32350062Y-47730047D01*
X32350003Y-55801001D01*
X32331095Y-55859191D01*
X32281595Y-55895155D01*
X32251003Y-55900000D01*
X21649001Y-55900000D01*
X21590810Y-55881093D01*
X21554846Y-55831593D01*
X21550001Y-55801000D01*
X21550018Y-51390751D01*
X21550018Y-51385411D01*
X22342001Y-51385411D01*
X22342290Y-51390751D01*
X22348078Y-51444035D01*
X22350927Y-51456020D01*
X22397351Y-51579855D01*
X22404059Y-51592108D01*
X22482863Y-51697256D01*
X22492744Y-51707137D01*
X22597892Y-51785941D01*
X22610145Y-51792649D01*
X22733978Y-51839072D01*
X22745967Y-51841923D01*
X22799252Y-51847711D01*
X22804586Y-51848000D01*
X24155320Y-51848000D01*
X24168005Y-51843878D01*
X24171000Y-51839757D01*
X24171000Y-51832319D01*
X24679000Y-51832319D01*
X24683122Y-51845004D01*
X24687243Y-51847999D01*
X26045411Y-51847999D01*
X26050751Y-51847710D01*
X26104035Y-51841922D01*
X26116020Y-51839073D01*
X26239855Y-51792649D01*
X26252108Y-51785941D01*
X26357256Y-51707137D01*
X26367137Y-51697256D01*
X26445941Y-51592108D01*
X26452649Y-51579855D01*
X26499072Y-51456022D01*
X26501923Y-51444033D01*
X26507711Y-51390748D01*
X26508000Y-51385414D01*
X26508000Y-51385411D01*
X27392001Y-51385411D01*
X27392290Y-51390751D01*
X27398078Y-51444035D01*
X27400927Y-51456020D01*
X27447351Y-51579855D01*
X27454059Y-51592108D01*
X27532863Y-51697256D01*
X27542744Y-51707137D01*
X27647892Y-51785941D01*
X27660145Y-51792649D01*
X27783978Y-51839072D01*
X27795967Y-51841923D01*
X27849252Y-51847711D01*
X27854586Y-51848000D01*
X29205320Y-51848000D01*
X29218005Y-51843878D01*
X29221000Y-51839757D01*
X29221000Y-51832319D01*
X29729000Y-51832319D01*
X29733122Y-51845004D01*
X29737243Y-51847999D01*
X31095411Y-51847999D01*
X31100751Y-51847710D01*
X31154035Y-51841922D01*
X31166020Y-51839073D01*
X31289855Y-51792649D01*
X31302108Y-51785941D01*
X31407256Y-51707137D01*
X31417137Y-51697256D01*
X31495941Y-51592108D01*
X31502649Y-51579855D01*
X31549072Y-51456022D01*
X31551923Y-51444033D01*
X31557711Y-51390748D01*
X31558000Y-51385414D01*
X31558000Y-51109680D01*
X31553878Y-51096995D01*
X31549757Y-51094000D01*
X29744680Y-51094000D01*
X29731995Y-51098122D01*
X29729000Y-51102243D01*
X29729000Y-51832319D01*
X29221000Y-51832319D01*
X29221000Y-51109680D01*
X29216878Y-51096995D01*
X29212757Y-51094000D01*
X27407681Y-51094000D01*
X27394996Y-51098122D01*
X27392001Y-51102243D01*
X27392001Y-51385411D01*
X26508000Y-51385411D01*
X26508000Y-51109680D01*
X26503878Y-51096995D01*
X26499757Y-51094000D01*
X24694680Y-51094000D01*
X24681995Y-51098122D01*
X24679000Y-51102243D01*
X24679000Y-51832319D01*
X24171000Y-51832319D01*
X24171000Y-51109680D01*
X24166878Y-51096995D01*
X24162757Y-51094000D01*
X22357681Y-51094000D01*
X22344996Y-51098122D01*
X22342001Y-51102243D01*
X22342001Y-51385411D01*
X21550018Y-51385411D01*
X21550021Y-50570320D01*
X22342000Y-50570320D01*
X22346122Y-50583005D01*
X22350243Y-50586000D01*
X24155320Y-50586000D01*
X24168005Y-50581878D01*
X24171000Y-50577757D01*
X24171000Y-50570320D01*
X24679000Y-50570320D01*
X24683122Y-50583005D01*
X24687243Y-50586000D01*
X26492319Y-50586000D01*
X26505004Y-50581878D01*
X26507999Y-50577757D01*
X26507999Y-50570320D01*
X27392000Y-50570320D01*
X27396122Y-50583005D01*
X27400243Y-50586000D01*
X29205320Y-50586000D01*
X29218005Y-50581878D01*
X29221000Y-50577757D01*
X29221000Y-50570320D01*
X29729000Y-50570320D01*
X29733122Y-50583005D01*
X29737243Y-50586000D01*
X31542319Y-50586000D01*
X31555004Y-50581878D01*
X31557999Y-50577757D01*
X31557999Y-50294589D01*
X31557710Y-50289249D01*
X31551922Y-50235965D01*
X31549073Y-50223980D01*
X31502649Y-50100145D01*
X31495941Y-50087892D01*
X31417137Y-49982744D01*
X31407256Y-49972863D01*
X31302108Y-49894059D01*
X31289855Y-49887351D01*
X31166022Y-49840928D01*
X31154033Y-49838077D01*
X31100748Y-49832289D01*
X31095414Y-49832000D01*
X29744680Y-49832000D01*
X29731995Y-49836122D01*
X29729000Y-49840243D01*
X29729000Y-50570320D01*
X29221000Y-50570320D01*
X29221000Y-49847681D01*
X29216878Y-49834996D01*
X29212757Y-49832001D01*
X27854589Y-49832001D01*
X27849249Y-49832290D01*
X27795965Y-49838078D01*
X27783980Y-49840927D01*
X27660145Y-49887351D01*
X27647892Y-49894059D01*
X27542744Y-49972863D01*
X27532863Y-49982744D01*
X27454059Y-50087892D01*
X27447351Y-50100145D01*
X27400928Y-50223978D01*
X27398077Y-50235967D01*
X27392289Y-50289252D01*
X27392000Y-50294586D01*
X27392000Y-50570320D01*
X26507999Y-50570320D01*
X26507999Y-50294589D01*
X26507710Y-50289249D01*
X26501922Y-50235965D01*
X26499073Y-50223980D01*
X26452649Y-50100145D01*
X26445941Y-50087892D01*
X26367137Y-49982744D01*
X26357256Y-49972863D01*
X26252108Y-49894059D01*
X26239855Y-49887351D01*
X26116022Y-49840928D01*
X26104033Y-49838077D01*
X26050748Y-49832289D01*
X26045414Y-49832000D01*
X24694680Y-49832000D01*
X24681995Y-49836122D01*
X24679000Y-49840243D01*
X24679000Y-50570320D01*
X24171000Y-50570320D01*
X24171000Y-49847681D01*
X24166878Y-49834996D01*
X24162757Y-49832001D01*
X22804589Y-49832001D01*
X22799249Y-49832290D01*
X22745965Y-49838078D01*
X22733980Y-49840927D01*
X22610145Y-49887351D01*
X22597892Y-49894059D01*
X22492744Y-49972863D01*
X22482863Y-49982744D01*
X22404059Y-50087892D01*
X22397351Y-50100145D01*
X22350928Y-50223978D01*
X22348077Y-50235967D01*
X22342289Y-50289252D01*
X22342000Y-50294586D01*
X22342000Y-50570320D01*
X21550021Y-50570320D01*
X21550062Y-39172983D01*
X21550070Y-37043233D01*
X23294906Y-37043233D01*
X23295246Y-37046795D01*
X23295246Y-37046802D01*
X23313274Y-37235748D01*
X23321102Y-37317792D01*
X23386657Y-37585694D01*
X23490199Y-37841326D01*
X23629558Y-38079335D01*
X23801816Y-38294732D01*
X24003364Y-38483008D01*
X24229979Y-38640216D01*
X24233184Y-38641811D01*
X24233190Y-38641814D01*
X24473699Y-38761466D01*
X24473704Y-38761468D01*
X24476914Y-38763065D01*
X24480325Y-38764183D01*
X24480327Y-38764184D01*
X24735593Y-38847864D01*
X24735596Y-38847865D01*
X24738998Y-38848980D01*
X25010738Y-38896162D01*
X25061160Y-38898672D01*
X25096644Y-38900439D01*
X25096657Y-38900439D01*
X25097876Y-38900500D01*
X25270070Y-38900500D01*
X25475083Y-38885625D01*
X25505490Y-38878912D01*
X25740904Y-38826937D01*
X25740910Y-38826935D01*
X25744403Y-38826164D01*
X25747752Y-38824895D01*
X25747756Y-38824894D01*
X25910951Y-38763065D01*
X26002319Y-38728449D01*
X26243428Y-38594525D01*
X26462678Y-38427198D01*
X26655477Y-38229974D01*
X26677659Y-38199500D01*
X26815682Y-38009876D01*
X26817787Y-38006984D01*
X26946206Y-37762899D01*
X27038045Y-37502832D01*
X27091380Y-37232232D01*
X27105094Y-36956767D01*
X27104754Y-36953205D01*
X27104754Y-36953198D01*
X27079239Y-36685779D01*
X27079238Y-36685775D01*
X27078898Y-36682208D01*
X27013343Y-36414306D01*
X26909801Y-36158674D01*
X26770442Y-35920665D01*
X26598184Y-35705268D01*
X26396636Y-35516992D01*
X26170021Y-35359784D01*
X26166816Y-35358189D01*
X26166810Y-35358186D01*
X25926301Y-35238534D01*
X25926296Y-35238532D01*
X25923086Y-35236935D01*
X25919675Y-35235817D01*
X25919673Y-35235816D01*
X25664407Y-35152136D01*
X25664404Y-35152135D01*
X25661002Y-35151020D01*
X25389262Y-35103838D01*
X25338840Y-35101328D01*
X25303356Y-35099561D01*
X25303343Y-35099561D01*
X25302124Y-35099500D01*
X25129930Y-35099500D01*
X24924917Y-35114375D01*
X24921406Y-35115150D01*
X24921407Y-35115150D01*
X24659096Y-35173063D01*
X24659090Y-35173065D01*
X24655597Y-35173836D01*
X24652248Y-35175105D01*
X24652244Y-35175106D01*
X24548185Y-35214530D01*
X24397681Y-35271551D01*
X24156572Y-35405475D01*
X23937322Y-35572802D01*
X23744523Y-35770026D01*
X23742414Y-35772923D01*
X23742411Y-35772927D01*
X23584318Y-35990124D01*
X23582213Y-35993016D01*
X23453794Y-36237101D01*
X23361955Y-36497168D01*
X23308620Y-36767768D01*
X23294906Y-37043233D01*
X21550070Y-37043233D01*
X21550094Y-30722792D01*
X23342001Y-30722792D01*
X23342267Y-30727922D01*
X23352409Y-30825673D01*
X23354682Y-30836200D01*
X23407086Y-30993277D01*
X23411933Y-31003624D01*
X23498891Y-31144145D01*
X23505987Y-31153098D01*
X23622939Y-31269847D01*
X23631904Y-31276927D01*
X23772580Y-31363641D01*
X23782934Y-31368469D01*
X23940110Y-31420602D01*
X23950621Y-31422855D01*
X24047112Y-31432741D01*
X24052170Y-31433000D01*
X24280320Y-31433000D01*
X24293005Y-31428878D01*
X24296000Y-31424757D01*
X24296000Y-30682180D01*
X24291878Y-30669495D01*
X24287757Y-30666500D01*
X23357681Y-30666500D01*
X23344996Y-30670622D01*
X23342001Y-30674743D01*
X23342001Y-30722792D01*
X21550094Y-30722792D01*
X21550113Y-25512687D01*
X21569021Y-25454496D01*
X21618521Y-25418532D01*
X21649113Y-25413687D01*
X34251114Y-25413687D01*
X34309305Y-25432594D01*
G37*
G04 #@! TD.AperFunction*
G04 #@! TA.AperFunction,Conductor*
G36*
X25766682Y-29032367D02*
G01*
X25811793Y-29065686D01*
X25825156Y-29075556D01*
X25861816Y-29102634D01*
X25989631Y-29147519D01*
X25995638Y-29148087D01*
X25995639Y-29148087D01*
X26018855Y-29150282D01*
X26018865Y-29150282D01*
X26021166Y-29150500D01*
X27200916Y-29150500D01*
X27259107Y-29169407D01*
X27295071Y-29218907D01*
X27299226Y-29242719D01*
X27309892Y-29246000D01*
X28692500Y-29246000D01*
X28750691Y-29264907D01*
X28786655Y-29314407D01*
X28791500Y-29345000D01*
X28791500Y-30292319D01*
X28795622Y-30305004D01*
X28799743Y-30307999D01*
X29189505Y-30307999D01*
X29193402Y-30307846D01*
X29223704Y-30305462D01*
X29233614Y-30303653D01*
X29382421Y-30260419D01*
X29393759Y-30255513D01*
X29526140Y-30177224D01*
X29535899Y-30169654D01*
X29561688Y-30143865D01*
X29616205Y-30116088D01*
X29676637Y-30125659D01*
X29698314Y-30140641D01*
X29791233Y-30225191D01*
X29940235Y-30306092D01*
X29999680Y-30321687D01*
X30098464Y-30347603D01*
X30098468Y-30347604D01*
X30104233Y-30349116D01*
X30110194Y-30349210D01*
X30110197Y-30349210D01*
X30187080Y-30350417D01*
X30273760Y-30351779D01*
X30279575Y-30350447D01*
X30281908Y-30350202D01*
X30341757Y-30362922D01*
X30362262Y-30378655D01*
X30720504Y-30736897D01*
X30748281Y-30791414D01*
X30749500Y-30806901D01*
X30749500Y-31434078D01*
X30730593Y-31492269D01*
X30681093Y-31528233D01*
X30619907Y-31528233D01*
X30603082Y-31519878D01*
X30602721Y-31520560D01*
X30452881Y-31441224D01*
X30370006Y-31420407D01*
X30294231Y-31401373D01*
X30294228Y-31401373D01*
X30288441Y-31399919D01*
X30201133Y-31399462D01*
X30124859Y-31399062D01*
X30124857Y-31399062D01*
X30118895Y-31399031D01*
X30117450Y-31399378D01*
X30059178Y-31387627D01*
X30037775Y-31371382D01*
X29710909Y-31044516D01*
X29710905Y-31044513D01*
X29688342Y-31021950D01*
X29666846Y-31010998D01*
X29653605Y-31002883D01*
X29653263Y-31002634D01*
X29634090Y-30988704D01*
X29611143Y-30981248D01*
X29596797Y-30975305D01*
X29575304Y-30964354D01*
X29567611Y-30963136D01*
X29567609Y-30963135D01*
X29551481Y-30960581D01*
X29536380Y-30956956D01*
X29513433Y-30949500D01*
X27743652Y-30949500D01*
X27685461Y-30930593D01*
X27649497Y-30881093D01*
X27649497Y-30819907D01*
X27651954Y-30814105D01*
X27652634Y-30813184D01*
X27697519Y-30685369D01*
X27698087Y-30679361D01*
X27700282Y-30656145D01*
X27700282Y-30656135D01*
X27700500Y-30653834D01*
X27700500Y-30394577D01*
X27719407Y-30336386D01*
X27768907Y-30300422D01*
X27827121Y-30299508D01*
X27841393Y-30303655D01*
X27851288Y-30305462D01*
X27881601Y-30307847D01*
X27885493Y-30308000D01*
X28267820Y-30308000D01*
X28280505Y-30303878D01*
X28283500Y-30299757D01*
X28283500Y-29769680D01*
X28279378Y-29756995D01*
X28275257Y-29754000D01*
X27310687Y-29754000D01*
X27298002Y-29758122D01*
X27296745Y-29759851D01*
X27279597Y-29809940D01*
X27229539Y-29845123D01*
X27200427Y-29849500D01*
X26021166Y-29849500D01*
X26018865Y-29849718D01*
X26018855Y-29849718D01*
X25995639Y-29851913D01*
X25995638Y-29851913D01*
X25989631Y-29852481D01*
X25861816Y-29897366D01*
X25855863Y-29901763D01*
X25853484Y-29903520D01*
X25850943Y-29904368D01*
X25849324Y-29905225D01*
X25849181Y-29904956D01*
X25795444Y-29922885D01*
X25737106Y-29904436D01*
X25700754Y-29855220D01*
X25692916Y-29831729D01*
X25688067Y-29821376D01*
X25601109Y-29680855D01*
X25594013Y-29671902D01*
X25477061Y-29555153D01*
X25468096Y-29548073D01*
X25327723Y-29461546D01*
X25288108Y-29414916D01*
X25283467Y-29353907D01*
X25319815Y-29298414D01*
X25387543Y-29247005D01*
X25392922Y-29242922D01*
X25397005Y-29237543D01*
X25480032Y-29128160D01*
X25480033Y-29128158D01*
X25484113Y-29122783D01*
X25502812Y-29075555D01*
X25541811Y-29028412D01*
X25594859Y-29013000D01*
X25707865Y-29013000D01*
X25766682Y-29032367D01*
G37*
G04 #@! TD.AperFunction*
M02*
