G04 #@! TF.GenerationSoftware,KiCad,Pcbnew,(6.0.1-0)*
G04 #@! TF.CreationDate,2022-10-06T13:30:19-04:00*
G04 #@! TF.ProjectId,feederFloor,66656564-6572-4466-9c6f-6f722e6b6963,rev?*
G04 #@! TF.SameCoordinates,Original*
G04 #@! TF.FileFunction,Legend,Top*
G04 #@! TF.FilePolarity,Positive*
%FSLAX46Y46*%
G04 Gerber Fmt 4.6, Leading zero omitted, Abs format (unit mm)*
G04 Created by KiCad (PCBNEW (6.0.1-0)) date 2022-10-06 13:30:19*
%MOMM*%
%LPD*%
G01*
G04 APERTURE LIST*
%ADD10C,0.100000*%
%ADD11C,0.120000*%
G04 APERTURE END LIST*
D10*
X33257321Y-26393571D02*
X33257321Y-26143571D01*
X32864464Y-26143571D02*
X33614464Y-26143571D01*
X33614464Y-26500714D01*
X32900178Y-27072142D02*
X32864464Y-27000714D01*
X32864464Y-26857857D01*
X32900178Y-26786428D01*
X32971607Y-26750714D01*
X33257321Y-26750714D01*
X33328750Y-26786428D01*
X33364464Y-26857857D01*
X33364464Y-27000714D01*
X33328750Y-27072142D01*
X33257321Y-27107857D01*
X33185892Y-27107857D01*
X33114464Y-26750714D01*
X32900178Y-27715000D02*
X32864464Y-27643571D01*
X32864464Y-27500714D01*
X32900178Y-27429285D01*
X32971607Y-27393571D01*
X33257321Y-27393571D01*
X33328750Y-27429285D01*
X33364464Y-27500714D01*
X33364464Y-27643571D01*
X33328750Y-27715000D01*
X33257321Y-27750714D01*
X33185892Y-27750714D01*
X33114464Y-27393571D01*
X32864464Y-28393571D02*
X33614464Y-28393571D01*
X32900178Y-28393571D02*
X32864464Y-28322142D01*
X32864464Y-28179285D01*
X32900178Y-28107857D01*
X32935892Y-28072142D01*
X33007321Y-28036428D01*
X33221607Y-28036428D01*
X33293035Y-28072142D01*
X33328750Y-28107857D01*
X33364464Y-28179285D01*
X33364464Y-28322142D01*
X33328750Y-28393571D01*
X32900178Y-29036428D02*
X32864464Y-28965000D01*
X32864464Y-28822142D01*
X32900178Y-28750714D01*
X32971607Y-28715000D01*
X33257321Y-28715000D01*
X33328750Y-28750714D01*
X33364464Y-28822142D01*
X33364464Y-28965000D01*
X33328750Y-29036428D01*
X33257321Y-29072142D01*
X33185892Y-29072142D01*
X33114464Y-28715000D01*
X32864464Y-29393571D02*
X33364464Y-29393571D01*
X33221607Y-29393571D02*
X33293035Y-29429285D01*
X33328750Y-29465000D01*
X33364464Y-29536428D01*
X33364464Y-29607857D01*
X33257321Y-30679285D02*
X33257321Y-30429285D01*
X32864464Y-30429285D02*
X33614464Y-30429285D01*
X33614464Y-30786428D01*
X32864464Y-31179285D02*
X32900178Y-31107857D01*
X32971607Y-31072142D01*
X33614464Y-31072142D01*
X32864464Y-31572142D02*
X32900178Y-31500714D01*
X32935892Y-31465000D01*
X33007321Y-31429285D01*
X33221607Y-31429285D01*
X33293035Y-31465000D01*
X33328750Y-31500714D01*
X33364464Y-31572142D01*
X33364464Y-31679285D01*
X33328750Y-31750714D01*
X33293035Y-31786428D01*
X33221607Y-31822142D01*
X33007321Y-31822142D01*
X32935892Y-31786428D01*
X32900178Y-31750714D01*
X32864464Y-31679285D01*
X32864464Y-31572142D01*
X32864464Y-32250714D02*
X32900178Y-32179285D01*
X32935892Y-32143571D01*
X33007321Y-32107857D01*
X33221607Y-32107857D01*
X33293035Y-32143571D01*
X33328750Y-32179285D01*
X33364464Y-32250714D01*
X33364464Y-32357857D01*
X33328750Y-32429285D01*
X33293035Y-32465000D01*
X33221607Y-32500714D01*
X33007321Y-32500714D01*
X32935892Y-32465000D01*
X32900178Y-32429285D01*
X32864464Y-32357857D01*
X32864464Y-32250714D01*
X32864464Y-32822142D02*
X33364464Y-32822142D01*
X33221607Y-32822142D02*
X33293035Y-32857857D01*
X33328750Y-32893571D01*
X33364464Y-32965000D01*
X33364464Y-33036428D01*
X31656964Y-26572142D02*
X32014107Y-26322142D01*
X31656964Y-26143571D02*
X32406964Y-26143571D01*
X32406964Y-26429285D01*
X32371250Y-26500714D01*
X32335535Y-26536428D01*
X32264107Y-26572142D01*
X32156964Y-26572142D01*
X32085535Y-26536428D01*
X32049821Y-26500714D01*
X32014107Y-26429285D01*
X32014107Y-26143571D01*
X32049821Y-26893571D02*
X32049821Y-27143571D01*
X31656964Y-27250714D02*
X31656964Y-26893571D01*
X32406964Y-26893571D01*
X32406964Y-27250714D01*
X32406964Y-27465000D02*
X31656964Y-27715000D01*
X32406964Y-27965000D01*
X32406964Y-28357857D02*
X32406964Y-28429285D01*
X32371250Y-28500714D01*
X32335535Y-28536428D01*
X32264107Y-28572142D01*
X32121250Y-28607857D01*
X31942678Y-28607857D01*
X31799821Y-28572142D01*
X31728392Y-28536428D01*
X31692678Y-28500714D01*
X31656964Y-28429285D01*
X31656964Y-28357857D01*
X31692678Y-28286428D01*
X31728392Y-28250714D01*
X31799821Y-28215000D01*
X31942678Y-28179285D01*
X32121250Y-28179285D01*
X32264107Y-28215000D01*
X32335535Y-28250714D01*
X32371250Y-28286428D01*
X32406964Y-28357857D01*
X32156964Y-29250714D02*
X31656964Y-29250714D01*
X32442678Y-29072142D02*
X31906964Y-28893571D01*
X31906964Y-29357857D01*
X26783333Y-45526190D02*
X26783333Y-45883333D01*
X26759523Y-45954761D01*
X26711904Y-46002380D01*
X26640476Y-46026190D01*
X26592857Y-46026190D01*
X27283333Y-46026190D02*
X26997619Y-46026190D01*
X27140476Y-46026190D02*
X27140476Y-45526190D01*
X27092857Y-45597619D01*
X27045238Y-45645238D01*
X26997619Y-45669047D01*
X27219047Y-27226190D02*
X27219047Y-27630952D01*
X27242857Y-27678571D01*
X27266666Y-27702380D01*
X27314285Y-27726190D01*
X27409523Y-27726190D01*
X27457142Y-27702380D01*
X27480952Y-27678571D01*
X27504761Y-27630952D01*
X27504761Y-27226190D01*
X28004761Y-27726190D02*
X27719047Y-27726190D01*
X27861904Y-27726190D02*
X27861904Y-27226190D01*
X27814285Y-27297619D01*
X27766666Y-27345238D01*
X27719047Y-27369047D01*
X25966666Y-31576190D02*
X25800000Y-31338095D01*
X25680952Y-31576190D02*
X25680952Y-31076190D01*
X25871428Y-31076190D01*
X25919047Y-31100000D01*
X25942857Y-31123809D01*
X25966666Y-31171428D01*
X25966666Y-31242857D01*
X25942857Y-31290476D01*
X25919047Y-31314285D01*
X25871428Y-31338095D01*
X25680952Y-31338095D01*
X26442857Y-31576190D02*
X26157142Y-31576190D01*
X26300000Y-31576190D02*
X26300000Y-31076190D01*
X26252380Y-31147619D01*
X26204761Y-31195238D01*
X26157142Y-31219047D01*
X24466666Y-27776190D02*
X24300000Y-27538095D01*
X24180952Y-27776190D02*
X24180952Y-27276190D01*
X24371428Y-27276190D01*
X24419047Y-27300000D01*
X24442857Y-27323809D01*
X24466666Y-27371428D01*
X24466666Y-27442857D01*
X24442857Y-27490476D01*
X24419047Y-27514285D01*
X24371428Y-27538095D01*
X24180952Y-27538095D01*
X24657142Y-27323809D02*
X24680952Y-27300000D01*
X24728571Y-27276190D01*
X24847619Y-27276190D01*
X24895238Y-27300000D01*
X24919047Y-27323809D01*
X24942857Y-27371428D01*
X24942857Y-27419047D01*
X24919047Y-27490476D01*
X24633333Y-27776190D01*
X24942857Y-27776190D01*
D11*
X24350000Y-47540000D02*
X24350000Y-46520000D01*
X29550000Y-45000000D02*
X29550000Y-44430000D01*
X30990000Y-51600000D02*
X29550000Y-51600000D01*
X29550000Y-44430000D02*
X24350000Y-44430000D01*
X24350000Y-45000000D02*
X24350000Y-44430000D01*
X29550000Y-52170000D02*
X29550000Y-51600000D01*
X29550000Y-50080000D02*
X29550000Y-49060000D01*
X29550000Y-47540000D02*
X29550000Y-46520000D01*
X24350000Y-50080000D02*
X24350000Y-49060000D01*
X29550000Y-52170000D02*
X24350000Y-52170000D01*
X24350000Y-52170000D02*
X24350000Y-51600000D01*
X27600000Y-27940000D02*
X25925000Y-27940000D01*
X27600000Y-31060000D02*
X26950000Y-31060000D01*
X27600000Y-27940000D02*
X28250000Y-27940000D01*
X27600000Y-31060000D02*
X28250000Y-31060000D01*
X25822936Y-33335000D02*
X26277064Y-33335000D01*
X25822936Y-31865000D02*
X26277064Y-31865000D01*
X25285000Y-29272936D02*
X25285000Y-29727064D01*
X23815000Y-29272936D02*
X23815000Y-29727064D01*
M02*
