G04 #@! TF.GenerationSoftware,KiCad,Pcbnew,(6.0.1-0)*
G04 #@! TF.CreationDate,2022-10-06T13:30:19-04:00*
G04 #@! TF.ProjectId,feederFloor,66656564-6572-4466-9c6f-6f722e6b6963,rev?*
G04 #@! TF.SameCoordinates,Original*
G04 #@! TF.FileFunction,Legend,Bot*
G04 #@! TF.FilePolarity,Positive*
%FSLAX46Y46*%
G04 Gerber Fmt 4.6, Leading zero omitted, Abs format (unit mm)*
G04 Created by KiCad (PCBNEW (6.0.1-0)) date 2022-10-06 13:30:19*
%MOMM*%
%LPD*%
G01*
G04 APERTURE LIST*
%ADD10C,0.120000*%
%ADD11C,0.010000*%
G04 APERTURE END LIST*
D10*
X28200000Y-37000000D02*
G75*
G03*
X28200000Y-37000000I-3000000J0D01*
G01*
X30850114Y-39113687D02*
X34650114Y-39113687D01*
X30850114Y-25113687D02*
X30850114Y-39113687D01*
X34650114Y-25113687D02*
X34650114Y-39113687D01*
X30850114Y-25113687D02*
X34650114Y-25113687D01*
D11*
X26780667Y-47956102D02*
X26686131Y-47965788D01*
X26686131Y-47965788D02*
X26427040Y-48006461D01*
X26427040Y-48006461D02*
X26171730Y-48075028D01*
X26171730Y-48075028D02*
X25920021Y-48171540D01*
X25920021Y-48171540D02*
X25799945Y-48228050D01*
X25799945Y-48228050D02*
X25657326Y-48303651D01*
X25657326Y-48303651D02*
X25530466Y-48381262D01*
X25530466Y-48381262D02*
X25412187Y-48466129D01*
X25412187Y-48466129D02*
X25295309Y-48563492D01*
X25295309Y-48563492D02*
X25172655Y-48678597D01*
X25172655Y-48678597D02*
X25143446Y-48707557D01*
X25143446Y-48707557D02*
X25023614Y-48832508D01*
X25023614Y-48832508D02*
X24922706Y-48950062D01*
X24922706Y-48950062D02*
X24835478Y-49067398D01*
X24835478Y-49067398D02*
X24756688Y-49191694D01*
X24756688Y-49191694D02*
X24681091Y-49330130D01*
X24681091Y-49330130D02*
X24663939Y-49364055D01*
X24663939Y-49364055D02*
X24553939Y-49614092D01*
X24553939Y-49614092D02*
X24471911Y-49867644D01*
X24471911Y-49867644D02*
X24417801Y-50124891D01*
X24417801Y-50124891D02*
X24401677Y-50250241D01*
X24401677Y-50250241D02*
X24391992Y-50344778D01*
X24391992Y-50344778D02*
X24099556Y-50344778D01*
X24099556Y-50344778D02*
X24099556Y-50669333D01*
X24099556Y-50669333D02*
X24392601Y-50669333D01*
X24392601Y-50669333D02*
X24402465Y-50764583D01*
X24402465Y-50764583D02*
X24442341Y-51021009D01*
X24442341Y-51021009D02*
X24508523Y-51271033D01*
X24508523Y-51271033D02*
X24601764Y-51517208D01*
X24601764Y-51517208D02*
X24663939Y-51650055D01*
X24663939Y-51650055D02*
X24739540Y-51792674D01*
X24739540Y-51792674D02*
X24817152Y-51919534D01*
X24817152Y-51919534D02*
X24902018Y-52037813D01*
X24902018Y-52037813D02*
X24999381Y-52154691D01*
X24999381Y-52154691D02*
X25114486Y-52277345D01*
X25114486Y-52277345D02*
X25143446Y-52306554D01*
X25143446Y-52306554D02*
X25268397Y-52426386D01*
X25268397Y-52426386D02*
X25385951Y-52527294D01*
X25385951Y-52527294D02*
X25503287Y-52614522D01*
X25503287Y-52614522D02*
X25627584Y-52693312D01*
X25627584Y-52693312D02*
X25766020Y-52768909D01*
X25766020Y-52768909D02*
X25799945Y-52786061D01*
X25799945Y-52786061D02*
X26049981Y-52896061D01*
X26049981Y-52896061D02*
X26303534Y-52978089D01*
X26303534Y-52978089D02*
X26560780Y-53032199D01*
X26560780Y-53032199D02*
X26686131Y-53048323D01*
X26686131Y-53048323D02*
X26780667Y-53058008D01*
X26780667Y-53058008D02*
X26780667Y-53350444D01*
X26780667Y-53350444D02*
X27105222Y-53350444D01*
X27105222Y-53350444D02*
X27105222Y-53058008D01*
X27105222Y-53058008D02*
X27199759Y-53048323D01*
X27199759Y-53048323D02*
X27458849Y-53007649D01*
X27458849Y-53007649D02*
X27714160Y-52939083D01*
X27714160Y-52939083D02*
X27965868Y-52842570D01*
X27965868Y-52842570D02*
X28085945Y-52786061D01*
X28085945Y-52786061D02*
X28228563Y-52710460D01*
X28228563Y-52710460D02*
X28355423Y-52632848D01*
X28355423Y-52632848D02*
X28473702Y-52547982D01*
X28473702Y-52547982D02*
X28590580Y-52450619D01*
X28590580Y-52450619D02*
X28713235Y-52335514D01*
X28713235Y-52335514D02*
X28742443Y-52306554D01*
X28742443Y-52306554D02*
X28862275Y-52181603D01*
X28862275Y-52181603D02*
X28963183Y-52064049D01*
X28963183Y-52064049D02*
X29050411Y-51946713D01*
X29050411Y-51946713D02*
X29129202Y-51822416D01*
X29129202Y-51822416D02*
X29204798Y-51683980D01*
X29204798Y-51683980D02*
X29221950Y-51650055D01*
X29221950Y-51650055D02*
X29331950Y-51400019D01*
X29331950Y-51400019D02*
X29413979Y-51146466D01*
X29413979Y-51146466D02*
X29468088Y-50889220D01*
X29468088Y-50889220D02*
X29484212Y-50763869D01*
X29484212Y-50763869D02*
X29493898Y-50669333D01*
X29493898Y-50669333D02*
X29786333Y-50669333D01*
X29786333Y-50669333D02*
X29786333Y-50344778D01*
X29786333Y-50344778D02*
X29493898Y-50344778D01*
X29493898Y-50344778D02*
X29155231Y-50344778D01*
X29155231Y-50344778D02*
X27740222Y-50344778D01*
X27740222Y-50344778D02*
X27740222Y-50669333D01*
X27740222Y-50669333D02*
X29155231Y-50669333D01*
X29155231Y-50669333D02*
X29145524Y-50764583D01*
X29145524Y-50764583D02*
X29109639Y-50984313D01*
X29109639Y-50984313D02*
X29047594Y-51204567D01*
X29047594Y-51204567D02*
X28961111Y-51421475D01*
X28961111Y-51421475D02*
X28851907Y-51631165D01*
X28851907Y-51631165D02*
X28721704Y-51829766D01*
X28721704Y-51829766D02*
X28609801Y-51970858D01*
X28609801Y-51970858D02*
X28456596Y-52128821D01*
X28456596Y-52128821D02*
X28281950Y-52273377D01*
X28281950Y-52273377D02*
X28090543Y-52401804D01*
X28090543Y-52401804D02*
X27887055Y-52511383D01*
X27887055Y-52511383D02*
X27676165Y-52599390D01*
X27676165Y-52599390D02*
X27462554Y-52663106D01*
X27462554Y-52663106D02*
X27393468Y-52678102D01*
X27393468Y-52678102D02*
X27320237Y-52692329D01*
X27320237Y-52692329D02*
X27267880Y-52701925D01*
X27267880Y-52701925D02*
X27229620Y-52707910D01*
X27229620Y-52707910D02*
X27198682Y-52711303D01*
X27198682Y-52711303D02*
X27168287Y-52713125D01*
X27168287Y-52713125D02*
X27158139Y-52713523D01*
X27158139Y-52713523D02*
X27105222Y-52715444D01*
X27105222Y-52715444D02*
X27105222Y-52221555D01*
X27105222Y-52221555D02*
X26780667Y-52221555D01*
X26780667Y-52221555D02*
X26780667Y-52719342D01*
X26780667Y-52719342D02*
X26685417Y-52709635D01*
X26685417Y-52709635D02*
X26466702Y-52673883D01*
X26466702Y-52673883D02*
X26247910Y-52612335D01*
X26247910Y-52612335D02*
X26033091Y-52527114D01*
X26033091Y-52527114D02*
X25826294Y-52420343D01*
X25826294Y-52420343D02*
X25631569Y-52294146D01*
X25631569Y-52294146D02*
X25452967Y-52150645D01*
X25452967Y-52150645D02*
X25294537Y-51991964D01*
X25294537Y-51991964D02*
X25276088Y-51970858D01*
X25276088Y-51970858D02*
X25131078Y-51783270D01*
X25131078Y-51783270D02*
X25005763Y-51581651D01*
X25005763Y-51581651D02*
X24901861Y-51369873D01*
X24901861Y-51369873D02*
X24821093Y-51151808D01*
X24821093Y-51151808D02*
X24765176Y-50931326D01*
X24765176Y-50931326D02*
X24740365Y-50764583D01*
X24740365Y-50764583D02*
X24730658Y-50669333D01*
X24730658Y-50669333D02*
X25228445Y-50669333D01*
X25228445Y-50669333D02*
X25228445Y-50344778D01*
X25228445Y-50344778D02*
X24730658Y-50344778D01*
X24730658Y-50344778D02*
X24740365Y-50249528D01*
X24740365Y-50249528D02*
X24776251Y-50029798D01*
X24776251Y-50029798D02*
X24838295Y-49809544D01*
X24838295Y-49809544D02*
X24924778Y-49592636D01*
X24924778Y-49592636D02*
X25033982Y-49382946D01*
X25033982Y-49382946D02*
X25164186Y-49184345D01*
X25164186Y-49184345D02*
X25276088Y-49043253D01*
X25276088Y-49043253D02*
X25431669Y-48882797D01*
X25431669Y-48882797D02*
X25607937Y-48737253D01*
X25607937Y-48737253D02*
X25800841Y-48608743D01*
X25800841Y-48608743D02*
X26006331Y-48499391D01*
X26006331Y-48499391D02*
X26220357Y-48411319D01*
X26220357Y-48411319D02*
X26438869Y-48346651D01*
X26438869Y-48346651D02*
X26657818Y-48307509D01*
X26657818Y-48307509D02*
X26685417Y-48304476D01*
X26685417Y-48304476D02*
X26780667Y-48294769D01*
X26780667Y-48294769D02*
X26780667Y-49709778D01*
X26780667Y-49709778D02*
X27105222Y-49709778D01*
X27105222Y-49709778D02*
X27105222Y-48294769D01*
X27105222Y-48294769D02*
X27200472Y-48304476D01*
X27200472Y-48304476D02*
X27419187Y-48340228D01*
X27419187Y-48340228D02*
X27637979Y-48401776D01*
X27637979Y-48401776D02*
X27852798Y-48486997D01*
X27852798Y-48486997D02*
X28059595Y-48593767D01*
X28059595Y-48593767D02*
X28254320Y-48719965D01*
X28254320Y-48719965D02*
X28432922Y-48863466D01*
X28432922Y-48863466D02*
X28591352Y-49022147D01*
X28591352Y-49022147D02*
X28609801Y-49043253D01*
X28609801Y-49043253D02*
X28754811Y-49230841D01*
X28754811Y-49230841D02*
X28880126Y-49432460D01*
X28880126Y-49432460D02*
X28984028Y-49644238D01*
X28984028Y-49644238D02*
X29064796Y-49862303D01*
X29064796Y-49862303D02*
X29120713Y-50082784D01*
X29120713Y-50082784D02*
X29145524Y-50249528D01*
X29145524Y-50249528D02*
X29155231Y-50344778D01*
X29155231Y-50344778D02*
X29493898Y-50344778D01*
X29493898Y-50344778D02*
X29484212Y-50250241D01*
X29484212Y-50250241D02*
X29443539Y-49991151D01*
X29443539Y-49991151D02*
X29374972Y-49735840D01*
X29374972Y-49735840D02*
X29278460Y-49484132D01*
X29278460Y-49484132D02*
X29221950Y-49364055D01*
X29221950Y-49364055D02*
X29146349Y-49221437D01*
X29146349Y-49221437D02*
X29068738Y-49094577D01*
X29068738Y-49094577D02*
X28983871Y-48976298D01*
X28983871Y-48976298D02*
X28886508Y-48859420D01*
X28886508Y-48859420D02*
X28771403Y-48736765D01*
X28771403Y-48736765D02*
X28742443Y-48707557D01*
X28742443Y-48707557D02*
X28617492Y-48587725D01*
X28617492Y-48587725D02*
X28499938Y-48486817D01*
X28499938Y-48486817D02*
X28382602Y-48399589D01*
X28382602Y-48399589D02*
X28258306Y-48320798D01*
X28258306Y-48320798D02*
X28119870Y-48245202D01*
X28119870Y-48245202D02*
X28085945Y-48228050D01*
X28085945Y-48228050D02*
X27835908Y-48118050D01*
X27835908Y-48118050D02*
X27582356Y-48036021D01*
X27582356Y-48036021D02*
X27325109Y-47981912D01*
X27325109Y-47981912D02*
X27199759Y-47965788D01*
X27199759Y-47965788D02*
X27105222Y-47956102D01*
X27105222Y-47956102D02*
X27105222Y-47663667D01*
X27105222Y-47663667D02*
X26780667Y-47663667D01*
X26780667Y-47663667D02*
X26780667Y-47956102D01*
X26780667Y-47956102D02*
X26780667Y-47956102D01*
G36*
X29786333Y-50669333D02*
G01*
X29493898Y-50669333D01*
X29484212Y-50763869D01*
X29468088Y-50889220D01*
X29413979Y-51146466D01*
X29331950Y-51400019D01*
X29221950Y-51650055D01*
X29204798Y-51683980D01*
X29129202Y-51822416D01*
X29050411Y-51946713D01*
X28963183Y-52064049D01*
X28862275Y-52181603D01*
X28742443Y-52306554D01*
X28713235Y-52335514D01*
X28590580Y-52450619D01*
X28473702Y-52547982D01*
X28355423Y-52632848D01*
X28228563Y-52710460D01*
X28085945Y-52786061D01*
X27965868Y-52842570D01*
X27714160Y-52939083D01*
X27458849Y-53007649D01*
X27199759Y-53048323D01*
X27105222Y-53058008D01*
X27105222Y-53350444D01*
X26780667Y-53350444D01*
X26780667Y-53058008D01*
X26686131Y-53048323D01*
X26560780Y-53032199D01*
X26303534Y-52978089D01*
X26049981Y-52896061D01*
X25799945Y-52786061D01*
X25766020Y-52768909D01*
X25627584Y-52693312D01*
X25503287Y-52614522D01*
X25385951Y-52527294D01*
X25268397Y-52426386D01*
X25143446Y-52306554D01*
X25114486Y-52277345D01*
X24999381Y-52154691D01*
X24902018Y-52037813D01*
X24817152Y-51919534D01*
X24739540Y-51792674D01*
X24663939Y-51650055D01*
X24601764Y-51517208D01*
X24508523Y-51271033D01*
X24442341Y-51021009D01*
X24402465Y-50764583D01*
X24392601Y-50669333D01*
X24730658Y-50669333D01*
X24740365Y-50764583D01*
X24765176Y-50931326D01*
X24821093Y-51151808D01*
X24901861Y-51369873D01*
X25005763Y-51581651D01*
X25131078Y-51783270D01*
X25276088Y-51970858D01*
X25294537Y-51991964D01*
X25452967Y-52150645D01*
X25631569Y-52294146D01*
X25826294Y-52420343D01*
X26033091Y-52527114D01*
X26247910Y-52612335D01*
X26466702Y-52673883D01*
X26685417Y-52709635D01*
X26780667Y-52719342D01*
X26780667Y-52221555D01*
X27105222Y-52221555D01*
X27105222Y-52715444D01*
X27158139Y-52713523D01*
X27168287Y-52713125D01*
X27198682Y-52711303D01*
X27229620Y-52707910D01*
X27267880Y-52701925D01*
X27320237Y-52692329D01*
X27393468Y-52678102D01*
X27462554Y-52663106D01*
X27676165Y-52599390D01*
X27887055Y-52511383D01*
X28090543Y-52401804D01*
X28281950Y-52273377D01*
X28456596Y-52128821D01*
X28609801Y-51970858D01*
X28721704Y-51829766D01*
X28851907Y-51631165D01*
X28961111Y-51421475D01*
X29047594Y-51204567D01*
X29109639Y-50984313D01*
X29145524Y-50764583D01*
X29155231Y-50669333D01*
X27740222Y-50669333D01*
X27740222Y-50344778D01*
X29155231Y-50344778D01*
X29145524Y-50249528D01*
X29120713Y-50082784D01*
X29064796Y-49862303D01*
X28984028Y-49644238D01*
X28880126Y-49432460D01*
X28754811Y-49230841D01*
X28609801Y-49043253D01*
X28591352Y-49022147D01*
X28432922Y-48863466D01*
X28254320Y-48719965D01*
X28059595Y-48593767D01*
X27852798Y-48486997D01*
X27637979Y-48401776D01*
X27419187Y-48340228D01*
X27200472Y-48304476D01*
X27105222Y-48294769D01*
X27105222Y-49709778D01*
X26780667Y-49709778D01*
X26780667Y-48294769D01*
X26685417Y-48304476D01*
X26657818Y-48307509D01*
X26438869Y-48346651D01*
X26220357Y-48411319D01*
X26006331Y-48499391D01*
X25800841Y-48608743D01*
X25607937Y-48737253D01*
X25431669Y-48882797D01*
X25276088Y-49043253D01*
X25164186Y-49184345D01*
X25033982Y-49382946D01*
X24924778Y-49592636D01*
X24838295Y-49809544D01*
X24776251Y-50029798D01*
X24740365Y-50249528D01*
X24730658Y-50344778D01*
X25228445Y-50344778D01*
X25228445Y-50669333D01*
X24730658Y-50669333D01*
X24392601Y-50669333D01*
X24099556Y-50669333D01*
X24099556Y-50344778D01*
X24391992Y-50344778D01*
X24401677Y-50250241D01*
X24417801Y-50124891D01*
X24471911Y-49867644D01*
X24553939Y-49614092D01*
X24663939Y-49364055D01*
X24681091Y-49330130D01*
X24756688Y-49191694D01*
X24835478Y-49067398D01*
X24922706Y-48950062D01*
X25023614Y-48832508D01*
X25143446Y-48707557D01*
X25172655Y-48678597D01*
X25295309Y-48563492D01*
X25412187Y-48466129D01*
X25530466Y-48381262D01*
X25657326Y-48303651D01*
X25799945Y-48228050D01*
X25920021Y-48171540D01*
X26171730Y-48075028D01*
X26427040Y-48006461D01*
X26686131Y-47965788D01*
X26780667Y-47956102D01*
X26780667Y-47663667D01*
X27105222Y-47663667D01*
X27105222Y-47956102D01*
X27199759Y-47965788D01*
X27325109Y-47981912D01*
X27582356Y-48036021D01*
X27835908Y-48118050D01*
X28085945Y-48228050D01*
X28119870Y-48245202D01*
X28258306Y-48320798D01*
X28382602Y-48399589D01*
X28499938Y-48486817D01*
X28617492Y-48587725D01*
X28742443Y-48707557D01*
X28771403Y-48736765D01*
X28886508Y-48859420D01*
X28983871Y-48976298D01*
X29068738Y-49094577D01*
X29146349Y-49221437D01*
X29221950Y-49364055D01*
X29278460Y-49484132D01*
X29374972Y-49735840D01*
X29443539Y-49991151D01*
X29484212Y-50250241D01*
X29493898Y-50344778D01*
X29786333Y-50344778D01*
X29786333Y-50669333D01*
G37*
X29786333Y-50669333D02*
X29493898Y-50669333D01*
X29484212Y-50763869D01*
X29468088Y-50889220D01*
X29413979Y-51146466D01*
X29331950Y-51400019D01*
X29221950Y-51650055D01*
X29204798Y-51683980D01*
X29129202Y-51822416D01*
X29050411Y-51946713D01*
X28963183Y-52064049D01*
X28862275Y-52181603D01*
X28742443Y-52306554D01*
X28713235Y-52335514D01*
X28590580Y-52450619D01*
X28473702Y-52547982D01*
X28355423Y-52632848D01*
X28228563Y-52710460D01*
X28085945Y-52786061D01*
X27965868Y-52842570D01*
X27714160Y-52939083D01*
X27458849Y-53007649D01*
X27199759Y-53048323D01*
X27105222Y-53058008D01*
X27105222Y-53350444D01*
X26780667Y-53350444D01*
X26780667Y-53058008D01*
X26686131Y-53048323D01*
X26560780Y-53032199D01*
X26303534Y-52978089D01*
X26049981Y-52896061D01*
X25799945Y-52786061D01*
X25766020Y-52768909D01*
X25627584Y-52693312D01*
X25503287Y-52614522D01*
X25385951Y-52527294D01*
X25268397Y-52426386D01*
X25143446Y-52306554D01*
X25114486Y-52277345D01*
X24999381Y-52154691D01*
X24902018Y-52037813D01*
X24817152Y-51919534D01*
X24739540Y-51792674D01*
X24663939Y-51650055D01*
X24601764Y-51517208D01*
X24508523Y-51271033D01*
X24442341Y-51021009D01*
X24402465Y-50764583D01*
X24392601Y-50669333D01*
X24730658Y-50669333D01*
X24740365Y-50764583D01*
X24765176Y-50931326D01*
X24821093Y-51151808D01*
X24901861Y-51369873D01*
X25005763Y-51581651D01*
X25131078Y-51783270D01*
X25276088Y-51970858D01*
X25294537Y-51991964D01*
X25452967Y-52150645D01*
X25631569Y-52294146D01*
X25826294Y-52420343D01*
X26033091Y-52527114D01*
X26247910Y-52612335D01*
X26466702Y-52673883D01*
X26685417Y-52709635D01*
X26780667Y-52719342D01*
X26780667Y-52221555D01*
X27105222Y-52221555D01*
X27105222Y-52715444D01*
X27158139Y-52713523D01*
X27168287Y-52713125D01*
X27198682Y-52711303D01*
X27229620Y-52707910D01*
X27267880Y-52701925D01*
X27320237Y-52692329D01*
X27393468Y-52678102D01*
X27462554Y-52663106D01*
X27676165Y-52599390D01*
X27887055Y-52511383D01*
X28090543Y-52401804D01*
X28281950Y-52273377D01*
X28456596Y-52128821D01*
X28609801Y-51970858D01*
X28721704Y-51829766D01*
X28851907Y-51631165D01*
X28961111Y-51421475D01*
X29047594Y-51204567D01*
X29109639Y-50984313D01*
X29145524Y-50764583D01*
X29155231Y-50669333D01*
X27740222Y-50669333D01*
X27740222Y-50344778D01*
X29155231Y-50344778D01*
X29145524Y-50249528D01*
X29120713Y-50082784D01*
X29064796Y-49862303D01*
X28984028Y-49644238D01*
X28880126Y-49432460D01*
X28754811Y-49230841D01*
X28609801Y-49043253D01*
X28591352Y-49022147D01*
X28432922Y-48863466D01*
X28254320Y-48719965D01*
X28059595Y-48593767D01*
X27852798Y-48486997D01*
X27637979Y-48401776D01*
X27419187Y-48340228D01*
X27200472Y-48304476D01*
X27105222Y-48294769D01*
X27105222Y-49709778D01*
X26780667Y-49709778D01*
X26780667Y-48294769D01*
X26685417Y-48304476D01*
X26657818Y-48307509D01*
X26438869Y-48346651D01*
X26220357Y-48411319D01*
X26006331Y-48499391D01*
X25800841Y-48608743D01*
X25607937Y-48737253D01*
X25431669Y-48882797D01*
X25276088Y-49043253D01*
X25164186Y-49184345D01*
X25033982Y-49382946D01*
X24924778Y-49592636D01*
X24838295Y-49809544D01*
X24776251Y-50029798D01*
X24740365Y-50249528D01*
X24730658Y-50344778D01*
X25228445Y-50344778D01*
X25228445Y-50669333D01*
X24730658Y-50669333D01*
X24392601Y-50669333D01*
X24099556Y-50669333D01*
X24099556Y-50344778D01*
X24391992Y-50344778D01*
X24401677Y-50250241D01*
X24417801Y-50124891D01*
X24471911Y-49867644D01*
X24553939Y-49614092D01*
X24663939Y-49364055D01*
X24681091Y-49330130D01*
X24756688Y-49191694D01*
X24835478Y-49067398D01*
X24922706Y-48950062D01*
X25023614Y-48832508D01*
X25143446Y-48707557D01*
X25172655Y-48678597D01*
X25295309Y-48563492D01*
X25412187Y-48466129D01*
X25530466Y-48381262D01*
X25657326Y-48303651D01*
X25799945Y-48228050D01*
X25920021Y-48171540D01*
X26171730Y-48075028D01*
X26427040Y-48006461D01*
X26686131Y-47965788D01*
X26780667Y-47956102D01*
X26780667Y-47663667D01*
X27105222Y-47663667D01*
X27105222Y-47956102D01*
X27199759Y-47965788D01*
X27325109Y-47981912D01*
X27582356Y-48036021D01*
X27835908Y-48118050D01*
X28085945Y-48228050D01*
X28119870Y-48245202D01*
X28258306Y-48320798D01*
X28382602Y-48399589D01*
X28499938Y-48486817D01*
X28617492Y-48587725D01*
X28742443Y-48707557D01*
X28771403Y-48736765D01*
X28886508Y-48859420D01*
X28983871Y-48976298D01*
X29068738Y-49094577D01*
X29146349Y-49221437D01*
X29221950Y-49364055D01*
X29278460Y-49484132D01*
X29374972Y-49735840D01*
X29443539Y-49991151D01*
X29484212Y-50250241D01*
X29493898Y-50344778D01*
X29786333Y-50344778D01*
X29786333Y-50669333D01*
X26777561Y-50157805D02*
X26773611Y-50337722D01*
X26773611Y-50337722D02*
X26593695Y-50341671D01*
X26593695Y-50341671D02*
X26413778Y-50345621D01*
X26413778Y-50345621D02*
X26413778Y-50668490D01*
X26413778Y-50668490D02*
X26593695Y-50672439D01*
X26593695Y-50672439D02*
X26773611Y-50676389D01*
X26773611Y-50676389D02*
X26777561Y-50856305D01*
X26777561Y-50856305D02*
X26781510Y-51036222D01*
X26781510Y-51036222D02*
X27104379Y-51036222D01*
X27104379Y-51036222D02*
X27108329Y-50856305D01*
X27108329Y-50856305D02*
X27112278Y-50676389D01*
X27112278Y-50676389D02*
X27292195Y-50672439D01*
X27292195Y-50672439D02*
X27472111Y-50668490D01*
X27472111Y-50668490D02*
X27472111Y-50345621D01*
X27472111Y-50345621D02*
X27292195Y-50341671D01*
X27292195Y-50341671D02*
X27112278Y-50337722D01*
X27112278Y-50337722D02*
X27108329Y-50157805D01*
X27108329Y-50157805D02*
X27104379Y-49977889D01*
X27104379Y-49977889D02*
X26781510Y-49977889D01*
X26781510Y-49977889D02*
X26777561Y-50157805D01*
X26777561Y-50157805D02*
X26777561Y-50157805D01*
G36*
X27108329Y-50157805D02*
G01*
X27112278Y-50337722D01*
X27292195Y-50341671D01*
X27472111Y-50345621D01*
X27472111Y-50668490D01*
X27292195Y-50672439D01*
X27112278Y-50676389D01*
X27108329Y-50856305D01*
X27104379Y-51036222D01*
X26781510Y-51036222D01*
X26777561Y-50856305D01*
X26773611Y-50676389D01*
X26593695Y-50672439D01*
X26413778Y-50668490D01*
X26413778Y-50345621D01*
X26593695Y-50341671D01*
X26773611Y-50337722D01*
X26777561Y-50157805D01*
X26781510Y-49977889D01*
X27104379Y-49977889D01*
X27108329Y-50157805D01*
G37*
X27108329Y-50157805D02*
X27112278Y-50337722D01*
X27292195Y-50341671D01*
X27472111Y-50345621D01*
X27472111Y-50668490D01*
X27292195Y-50672439D01*
X27112278Y-50676389D01*
X27108329Y-50856305D01*
X27104379Y-51036222D01*
X26781510Y-51036222D01*
X26777561Y-50856305D01*
X26773611Y-50676389D01*
X26593695Y-50672439D01*
X26413778Y-50668490D01*
X26413778Y-50345621D01*
X26593695Y-50341671D01*
X26773611Y-50337722D01*
X26777561Y-50157805D01*
X26781510Y-49977889D01*
X27104379Y-49977889D01*
X27108329Y-50157805D01*
M02*
