G04 #@! TF.GenerationSoftware,KiCad,Pcbnew,(6.0.1-0)*
G04 #@! TF.CreationDate,2022-04-24T19:17:24-04:00*
G04 #@! TF.ProjectId,mobo,6d6f626f-2e6b-4696-9361-645f70636258,rev?*
G04 #@! TF.SameCoordinates,Original*
G04 #@! TF.FileFunction,Legend,Top*
G04 #@! TF.FilePolarity,Positive*
%FSLAX46Y46*%
G04 Gerber Fmt 4.6, Leading zero omitted, Abs format (unit mm)*
G04 Created by KiCad (PCBNEW (6.0.1-0)) date 2022-04-24 19:17:24*
%MOMM*%
%LPD*%
G01*
G04 APERTURE LIST*
%ADD10C,0.120000*%
%ADD11C,0.300000*%
%ADD12C,0.150000*%
G04 APERTURE END LIST*
D10*
X-40000000Y33000000D02*
X0Y33000000D01*
X0Y0D02*
X-40000000Y0D01*
D11*
X-23347857Y39522142D02*
X-23847857Y39522142D01*
X-23847857Y38736428D02*
X-23847857Y40236428D01*
X-23133571Y40236428D01*
X-21990714Y38807857D02*
X-22133571Y38736428D01*
X-22419285Y38736428D01*
X-22562142Y38807857D01*
X-22633571Y38950714D01*
X-22633571Y39522142D01*
X-22562142Y39665000D01*
X-22419285Y39736428D01*
X-22133571Y39736428D01*
X-21990714Y39665000D01*
X-21919285Y39522142D01*
X-21919285Y39379285D01*
X-22633571Y39236428D01*
X-20705000Y38807857D02*
X-20847857Y38736428D01*
X-21133571Y38736428D01*
X-21276428Y38807857D01*
X-21347857Y38950714D01*
X-21347857Y39522142D01*
X-21276428Y39665000D01*
X-21133571Y39736428D01*
X-20847857Y39736428D01*
X-20705000Y39665000D01*
X-20633571Y39522142D01*
X-20633571Y39379285D01*
X-21347857Y39236428D01*
X-19347857Y38736428D02*
X-19347857Y40236428D01*
X-19347857Y38807857D02*
X-19490714Y38736428D01*
X-19776428Y38736428D01*
X-19919285Y38807857D01*
X-19990714Y38879285D01*
X-20062142Y39022142D01*
X-20062142Y39450714D01*
X-19990714Y39593571D01*
X-19919285Y39665000D01*
X-19776428Y39736428D01*
X-19490714Y39736428D01*
X-19347857Y39665000D01*
X-18062142Y38807857D02*
X-18205000Y38736428D01*
X-18490714Y38736428D01*
X-18633571Y38807857D01*
X-18705000Y38950714D01*
X-18705000Y39522142D01*
X-18633571Y39665000D01*
X-18490714Y39736428D01*
X-18205000Y39736428D01*
X-18062142Y39665000D01*
X-17990714Y39522142D01*
X-17990714Y39379285D01*
X-18705000Y39236428D01*
X-17347857Y38736428D02*
X-17347857Y39736428D01*
X-17347857Y39450714D02*
X-17276428Y39593571D01*
X-17205000Y39665000D01*
X-17062142Y39736428D01*
X-16919285Y39736428D01*
X-15276428Y38736428D02*
X-15276428Y40236428D01*
X-14776428Y39165000D01*
X-14276428Y40236428D01*
X-14276428Y38736428D01*
X-13347857Y38736428D02*
X-13490714Y38807857D01*
X-13562142Y38879285D01*
X-13633571Y39022142D01*
X-13633571Y39450714D01*
X-13562142Y39593571D01*
X-13490714Y39665000D01*
X-13347857Y39736428D01*
X-13133571Y39736428D01*
X-12990714Y39665000D01*
X-12919285Y39593571D01*
X-12847857Y39450714D01*
X-12847857Y39022142D01*
X-12919285Y38879285D01*
X-12990714Y38807857D01*
X-13133571Y38736428D01*
X-13347857Y38736428D01*
X-12205000Y38736428D02*
X-12205000Y40236428D01*
X-12205000Y39665000D02*
X-12062142Y39736428D01*
X-11776428Y39736428D01*
X-11633571Y39665000D01*
X-11562142Y39593571D01*
X-11490714Y39450714D01*
X-11490714Y39022142D01*
X-11562142Y38879285D01*
X-11633571Y38807857D01*
X-11776428Y38736428D01*
X-12062142Y38736428D01*
X-12205000Y38807857D01*
X-10633571Y38736428D02*
X-10776428Y38807857D01*
X-10847857Y38879285D01*
X-10919285Y39022142D01*
X-10919285Y39450714D01*
X-10847857Y39593571D01*
X-10776428Y39665000D01*
X-10633571Y39736428D01*
X-10419285Y39736428D01*
X-10276428Y39665000D01*
X-10205000Y39593571D01*
X-10133571Y39450714D01*
X-10133571Y39022142D01*
X-10205000Y38879285D01*
X-10276428Y38807857D01*
X-10419285Y38736428D01*
X-10633571Y38736428D01*
X-22990714Y36321428D02*
X-23490714Y37035714D01*
X-23847857Y36321428D02*
X-23847857Y37821428D01*
X-23276428Y37821428D01*
X-23133571Y37750000D01*
X-23062142Y37678571D01*
X-22990714Y37535714D01*
X-22990714Y37321428D01*
X-23062142Y37178571D01*
X-23133571Y37107142D01*
X-23276428Y37035714D01*
X-23847857Y37035714D01*
X-22347857Y37107142D02*
X-21847857Y37107142D01*
X-21633571Y36321428D02*
X-22347857Y36321428D01*
X-22347857Y37821428D01*
X-21633571Y37821428D01*
X-21205000Y37821428D02*
X-20705000Y36321428D01*
X-20205000Y37821428D01*
X-19419285Y37821428D02*
X-19276428Y37821428D01*
X-19133571Y37750000D01*
X-19062142Y37678571D01*
X-18990714Y37535714D01*
X-18919285Y37250000D01*
X-18919285Y36892857D01*
X-18990714Y36607142D01*
X-19062142Y36464285D01*
X-19133571Y36392857D01*
X-19276428Y36321428D01*
X-19419285Y36321428D01*
X-19562142Y36392857D01*
X-19633571Y36464285D01*
X-19705000Y36607142D01*
X-19776428Y36892857D01*
X-19776428Y37250000D01*
X-19705000Y37535714D01*
X-19633571Y37678571D01*
X-19562142Y37750000D01*
X-19419285Y37821428D01*
X-17633571Y37821428D02*
X-17919285Y37821428D01*
X-18062142Y37750000D01*
X-18133571Y37678571D01*
X-18276428Y37464285D01*
X-18347857Y37178571D01*
X-18347857Y36607142D01*
X-18276428Y36464285D01*
X-18205000Y36392857D01*
X-18062142Y36321428D01*
X-17776428Y36321428D01*
X-17633571Y36392857D01*
X-17562142Y36464285D01*
X-17490714Y36607142D01*
X-17490714Y36964285D01*
X-17562142Y37107142D01*
X-17633571Y37178571D01*
X-17776428Y37250000D01*
X-18062142Y37250000D01*
X-18205000Y37178571D01*
X-18276428Y37107142D01*
X-18347857Y36964285D01*
X-16847857Y36892857D02*
X-15705000Y36892857D01*
X-14490714Y37107142D02*
X-14276428Y37035714D01*
X-14205000Y36964285D01*
X-14133571Y36821428D01*
X-14133571Y36607142D01*
X-14205000Y36464285D01*
X-14276428Y36392857D01*
X-14419285Y36321428D01*
X-14990714Y36321428D01*
X-14990714Y37821428D01*
X-14490714Y37821428D01*
X-14347857Y37750000D01*
X-14276428Y37678571D01*
X-14205000Y37535714D01*
X-14205000Y37392857D01*
X-14276428Y37250000D01*
X-14347857Y37178571D01*
X-14490714Y37107142D01*
X-14990714Y37107142D01*
X-13490714Y37107142D02*
X-12990714Y37107142D01*
X-12776428Y36321428D02*
X-13490714Y36321428D01*
X-13490714Y37821428D01*
X-12776428Y37821428D01*
X-12347857Y37821428D02*
X-11490714Y37821428D01*
X-11919285Y36321428D02*
X-11919285Y37821428D01*
X-11062142Y36750000D02*
X-10347857Y36750000D01*
X-11205000Y36321428D02*
X-10705000Y37821428D01*
X-10205000Y36321428D01*
X-9419285Y37821428D02*
X-9276428Y37821428D01*
X-9133571Y37750000D01*
X-9062142Y37678571D01*
X-8990714Y37535714D01*
X-8919285Y37250000D01*
X-8919285Y36892857D01*
X-8990714Y36607142D01*
X-9062142Y36464285D01*
X-9133571Y36392857D01*
X-9276428Y36321428D01*
X-9419285Y36321428D01*
X-9562142Y36392857D01*
X-9633571Y36464285D01*
X-9705000Y36607142D01*
X-9776428Y36892857D01*
X-9776428Y37250000D01*
X-9705000Y37535714D01*
X-9633571Y37678571D01*
X-9562142Y37750000D01*
X-9419285Y37821428D01*
X-23562142Y35406428D02*
X-23276428Y35406428D01*
X-23133571Y35335000D01*
X-22990714Y35192142D01*
X-22919285Y34906428D01*
X-22919285Y34406428D01*
X-22990714Y34120714D01*
X-23133571Y33977857D01*
X-23276428Y33906428D01*
X-23562142Y33906428D01*
X-23705000Y33977857D01*
X-23847857Y34120714D01*
X-23919285Y34406428D01*
X-23919285Y34906428D01*
X-23847857Y35192142D01*
X-23705000Y35335000D01*
X-23562142Y35406428D01*
X-22276428Y34906428D02*
X-22276428Y33406428D01*
X-22276428Y34835000D02*
X-22133571Y34906428D01*
X-21847857Y34906428D01*
X-21705000Y34835000D01*
X-21633571Y34763571D01*
X-21562142Y34620714D01*
X-21562142Y34192142D01*
X-21633571Y34049285D01*
X-21705000Y33977857D01*
X-21847857Y33906428D01*
X-22133571Y33906428D01*
X-22276428Y33977857D01*
X-20276428Y34906428D02*
X-20276428Y33906428D01*
X-20919285Y34906428D02*
X-20919285Y34120714D01*
X-20847857Y33977857D01*
X-20705000Y33906428D01*
X-20490714Y33906428D01*
X-20347857Y33977857D01*
X-20276428Y34049285D01*
X-19347857Y33906428D02*
X-19490714Y33977857D01*
X-19562142Y34120714D01*
X-19562142Y35406428D01*
X-18562142Y33906428D02*
X-18705000Y33977857D01*
X-18776428Y34049285D01*
X-18847857Y34192142D01*
X-18847857Y34620714D01*
X-18776428Y34763571D01*
X-18705000Y34835000D01*
X-18562142Y34906428D01*
X-18347857Y34906428D01*
X-18205000Y34835000D01*
X-18133571Y34763571D01*
X-18062142Y34620714D01*
X-18062142Y34192142D01*
X-18133571Y34049285D01*
X-18205000Y33977857D01*
X-18347857Y33906428D01*
X-18562142Y33906428D01*
X-16276428Y33906428D02*
X-16276428Y35406428D01*
X-15562142Y34906428D02*
X-15562142Y33906428D01*
X-15562142Y34763571D02*
X-15490714Y34835000D01*
X-15347857Y34906428D01*
X-15133571Y34906428D01*
X-14990714Y34835000D01*
X-14919285Y34692142D01*
X-14919285Y33906428D01*
X-13562142Y33977857D02*
X-13705000Y33906428D01*
X-13990714Y33906428D01*
X-14133571Y33977857D01*
X-14205000Y34049285D01*
X-14276428Y34192142D01*
X-14276428Y34620714D01*
X-14205000Y34763571D01*
X-14133571Y34835000D01*
X-13990714Y34906428D01*
X-13705000Y34906428D01*
X-13562142Y34835000D01*
X-12919285Y34049285D02*
X-12847857Y33977857D01*
X-12919285Y33906428D01*
X-12990714Y33977857D01*
X-12919285Y34049285D01*
X-12919285Y33906428D01*
D12*
X-1066666Y-26552380D02*
X-1542857Y-26552380D01*
X-1542857Y-25552380D01*
X-209523Y-26552380D02*
X-780952Y-26552380D01*
X-495238Y-26552380D02*
X-495238Y-25552380D01*
X-590476Y-25695238D01*
X-685714Y-25790476D01*
X-780952Y-25838095D01*
X-21542857Y-19807142D02*
X-21590476Y-19854761D01*
X-21733333Y-19902380D01*
X-21828571Y-19902380D01*
X-21971428Y-19854761D01*
X-22066666Y-19759523D01*
X-22114285Y-19664285D01*
X-22161904Y-19473809D01*
X-22161904Y-19330952D01*
X-22114285Y-19140476D01*
X-22066666Y-19045238D01*
X-21971428Y-18950000D01*
X-21828571Y-18902380D01*
X-21733333Y-18902380D01*
X-21590476Y-18950000D01*
X-21542857Y-18997619D01*
X-21161904Y-18997619D02*
X-21114285Y-18950000D01*
X-21019047Y-18902380D01*
X-20780952Y-18902380D01*
X-20685714Y-18950000D01*
X-20638095Y-18997619D01*
X-20590476Y-19092857D01*
X-20590476Y-19188095D01*
X-20638095Y-19330952D01*
X-21209523Y-19902380D01*
X-20590476Y-19902380D01*
X-19971428Y-18902380D02*
X-19876190Y-18902380D01*
X-19780952Y-18950000D01*
X-19733333Y-18997619D01*
X-19685714Y-19092857D01*
X-19638095Y-19283333D01*
X-19638095Y-19521428D01*
X-19685714Y-19711904D01*
X-19733333Y-19807142D01*
X-19780952Y-19854761D01*
X-19876190Y-19902380D01*
X-19971428Y-19902380D01*
X-20066666Y-19854761D01*
X-20114285Y-19807142D01*
X-20161904Y-19711904D01*
X-20209523Y-19521428D01*
X-20209523Y-19283333D01*
X-20161904Y-19092857D01*
X-20114285Y-18997619D01*
X-20066666Y-18950000D01*
X-19971428Y-18902380D01*
X-31592857Y-15107142D02*
X-31640476Y-15154761D01*
X-31783333Y-15202380D01*
X-31878571Y-15202380D01*
X-32021428Y-15154761D01*
X-32116666Y-15059523D01*
X-32164285Y-14964285D01*
X-32211904Y-14773809D01*
X-32211904Y-14630952D01*
X-32164285Y-14440476D01*
X-32116666Y-14345238D01*
X-32021428Y-14250000D01*
X-31878571Y-14202380D01*
X-31783333Y-14202380D01*
X-31640476Y-14250000D01*
X-31592857Y-14297619D01*
X-30640476Y-15202380D02*
X-31211904Y-15202380D01*
X-30926190Y-15202380D02*
X-30926190Y-14202380D01*
X-31021428Y-14345238D01*
X-31116666Y-14440476D01*
X-31211904Y-14488095D01*
X-30164285Y-15202380D02*
X-29973809Y-15202380D01*
X-29878571Y-15154761D01*
X-29830952Y-15107142D01*
X-29735714Y-14964285D01*
X-29688095Y-14773809D01*
X-29688095Y-14392857D01*
X-29735714Y-14297619D01*
X-29783333Y-14250000D01*
X-29878571Y-14202380D01*
X-30069047Y-14202380D01*
X-30164285Y-14250000D01*
X-30211904Y-14297619D01*
X-30259523Y-14392857D01*
X-30259523Y-14630952D01*
X-30211904Y-14726190D01*
X-30164285Y-14773809D01*
X-30069047Y-14821428D01*
X-29878571Y-14821428D01*
X-29783333Y-14773809D01*
X-29735714Y-14726190D01*
X-29688095Y-14630952D01*
X-28242857Y-20892857D02*
X-28195238Y-20940476D01*
X-28147619Y-21083333D01*
X-28147619Y-21178571D01*
X-28195238Y-21321428D01*
X-28290476Y-21416666D01*
X-28385714Y-21464285D01*
X-28576190Y-21511904D01*
X-28719047Y-21511904D01*
X-28909523Y-21464285D01*
X-29004761Y-21416666D01*
X-29100000Y-21321428D01*
X-29147619Y-21178571D01*
X-29147619Y-21083333D01*
X-29100000Y-20940476D01*
X-29052380Y-20892857D01*
X-28147619Y-19940476D02*
X-28147619Y-20511904D01*
X-28147619Y-20226190D02*
X-29147619Y-20226190D01*
X-29004761Y-20321428D01*
X-28909523Y-20416666D01*
X-28861904Y-20511904D01*
X-28719047Y-19369047D02*
X-28766666Y-19464285D01*
X-28814285Y-19511904D01*
X-28909523Y-19559523D01*
X-28957142Y-19559523D01*
X-29052380Y-19511904D01*
X-29100000Y-19464285D01*
X-29147619Y-19369047D01*
X-29147619Y-19178571D01*
X-29100000Y-19083333D01*
X-29052380Y-19035714D01*
X-28957142Y-18988095D01*
X-28909523Y-18988095D01*
X-28814285Y-19035714D01*
X-28766666Y-19083333D01*
X-28719047Y-19178571D01*
X-28719047Y-19369047D01*
X-28671428Y-19464285D01*
X-28623809Y-19511904D01*
X-28528571Y-19559523D01*
X-28338095Y-19559523D01*
X-28242857Y-19511904D01*
X-28195238Y-19464285D01*
X-28147619Y-19369047D01*
X-28147619Y-19178571D01*
X-28195238Y-19083333D01*
X-28242857Y-19035714D01*
X-28338095Y-18988095D01*
X-28528571Y-18988095D01*
X-28623809Y-19035714D01*
X-28671428Y-19083333D01*
X-28719047Y-19178571D01*
X-24192857Y-15107142D02*
X-24240476Y-15154761D01*
X-24383333Y-15202380D01*
X-24478571Y-15202380D01*
X-24621428Y-15154761D01*
X-24716666Y-15059523D01*
X-24764285Y-14964285D01*
X-24811904Y-14773809D01*
X-24811904Y-14630952D01*
X-24764285Y-14440476D01*
X-24716666Y-14345238D01*
X-24621428Y-14250000D01*
X-24478571Y-14202380D01*
X-24383333Y-14202380D01*
X-24240476Y-14250000D01*
X-24192857Y-14297619D01*
X-23240476Y-15202380D02*
X-23811904Y-15202380D01*
X-23526190Y-15202380D02*
X-23526190Y-14202380D01*
X-23621428Y-14345238D01*
X-23716666Y-14440476D01*
X-23811904Y-14488095D01*
X-22907142Y-14202380D02*
X-22240476Y-14202380D01*
X-22669047Y-15202380D01*
X-36561904Y-16502380D02*
X-36561904Y-17311904D01*
X-36514285Y-17407142D01*
X-36466666Y-17454761D01*
X-36371428Y-17502380D01*
X-36180952Y-17502380D01*
X-36085714Y-17454761D01*
X-36038095Y-17407142D01*
X-35990476Y-17311904D01*
X-35990476Y-16502380D01*
X-35371428Y-16930952D02*
X-35466666Y-16883333D01*
X-35514285Y-16835714D01*
X-35561904Y-16740476D01*
X-35561904Y-16692857D01*
X-35514285Y-16597619D01*
X-35466666Y-16550000D01*
X-35371428Y-16502380D01*
X-35180952Y-16502380D01*
X-35085714Y-16550000D01*
X-35038095Y-16597619D01*
X-34990476Y-16692857D01*
X-34990476Y-16740476D01*
X-35038095Y-16835714D01*
X-35085714Y-16883333D01*
X-35180952Y-16930952D01*
X-35371428Y-16930952D01*
X-35466666Y-16978571D01*
X-35514285Y-17026190D01*
X-35561904Y-17121428D01*
X-35561904Y-17311904D01*
X-35514285Y-17407142D01*
X-35466666Y-17454761D01*
X-35371428Y-17502380D01*
X-35180952Y-17502380D01*
X-35085714Y-17454761D01*
X-35038095Y-17407142D01*
X-34990476Y-17311904D01*
X-34990476Y-17121428D01*
X-35038095Y-17026190D01*
X-35085714Y-16978571D01*
X-35180952Y-16930952D01*
X-27311904Y-14302380D02*
X-27311904Y-15111904D01*
X-27264285Y-15207142D01*
X-27216666Y-15254761D01*
X-27121428Y-15302380D01*
X-26930952Y-15302380D01*
X-26835714Y-15254761D01*
X-26788095Y-15207142D01*
X-26740476Y-15111904D01*
X-26740476Y-14302380D01*
X-26359523Y-14302380D02*
X-25692857Y-14302380D01*
X-26121428Y-15302380D01*
X-35292857Y-20502380D02*
X-35626190Y-20026190D01*
X-35864285Y-20502380D02*
X-35864285Y-19502380D01*
X-35483333Y-19502380D01*
X-35388095Y-19550000D01*
X-35340476Y-19597619D01*
X-35292857Y-19692857D01*
X-35292857Y-19835714D01*
X-35340476Y-19930952D01*
X-35388095Y-19978571D01*
X-35483333Y-20026190D01*
X-35864285Y-20026190D01*
X-34340476Y-20502380D02*
X-34911904Y-20502380D01*
X-34626190Y-20502380D02*
X-34626190Y-19502380D01*
X-34721428Y-19645238D01*
X-34816666Y-19740476D01*
X-34911904Y-19788095D01*
X-33388095Y-20502380D02*
X-33959523Y-20502380D01*
X-33673809Y-20502380D02*
X-33673809Y-19502380D01*
X-33769047Y-19645238D01*
X-33864285Y-19740476D01*
X-33959523Y-19788095D01*
X-24842857Y-22252380D02*
X-25176190Y-21776190D01*
X-25414285Y-22252380D02*
X-25414285Y-21252380D01*
X-25033333Y-21252380D01*
X-24938095Y-21300000D01*
X-24890476Y-21347619D01*
X-24842857Y-21442857D01*
X-24842857Y-21585714D01*
X-24890476Y-21680952D01*
X-24938095Y-21728571D01*
X-25033333Y-21776190D01*
X-25414285Y-21776190D01*
X-23890476Y-22252380D02*
X-24461904Y-22252380D01*
X-24176190Y-22252380D02*
X-24176190Y-21252380D01*
X-24271428Y-21395238D01*
X-24366666Y-21490476D01*
X-24461904Y-21538095D01*
X-23271428Y-21252380D02*
X-23176190Y-21252380D01*
X-23080952Y-21300000D01*
X-23033333Y-21347619D01*
X-22985714Y-21442857D01*
X-22938095Y-21633333D01*
X-22938095Y-21871428D01*
X-22985714Y-22061904D01*
X-23033333Y-22157142D01*
X-23080952Y-22204761D01*
X-23176190Y-22252380D01*
X-23271428Y-22252380D01*
X-23366666Y-22204761D01*
X-23414285Y-22157142D01*
X-23461904Y-22061904D01*
X-23509523Y-21871428D01*
X-23509523Y-21633333D01*
X-23461904Y-21442857D01*
X-23414285Y-21347619D01*
X-23366666Y-21300000D01*
X-23271428Y-21252380D01*
X-15997619Y-10493333D02*
X-15283333Y-10493333D01*
X-15140476Y-10540952D01*
X-15045238Y-10636190D01*
X-14997619Y-10779047D01*
X-14997619Y-10874285D01*
X-15664285Y-9588571D02*
X-14997619Y-9588571D01*
X-16045238Y-9826666D02*
X-15330952Y-10064761D01*
X-15330952Y-9445714D01*
X-15997619Y-13033333D02*
X-15283333Y-13033333D01*
X-15140476Y-13080952D01*
X-15045238Y-13176190D01*
X-14997619Y-13319047D01*
X-14997619Y-13414285D01*
X-15997619Y-12652380D02*
X-15997619Y-12033333D01*
X-15616666Y-12366666D01*
X-15616666Y-12223809D01*
X-15569047Y-12128571D01*
X-15521428Y-12080952D01*
X-15426190Y-12033333D01*
X-15188095Y-12033333D01*
X-15092857Y-12080952D01*
X-15045238Y-12128571D01*
X-14997619Y-12223809D01*
X-14997619Y-12509523D01*
X-15045238Y-12604761D01*
X-15092857Y-12652380D01*
X-22461904Y-25202380D02*
X-22461904Y-26011904D01*
X-22414285Y-26107142D01*
X-22366666Y-26154761D01*
X-22271428Y-26202380D01*
X-22080952Y-26202380D01*
X-21985714Y-26154761D01*
X-21938095Y-26107142D01*
X-21890476Y-26011904D01*
X-21890476Y-25202380D01*
X-21461904Y-25297619D02*
X-21414285Y-25250000D01*
X-21319047Y-25202380D01*
X-21080952Y-25202380D01*
X-20985714Y-25250000D01*
X-20938095Y-25297619D01*
X-20890476Y-25392857D01*
X-20890476Y-25488095D01*
X-20938095Y-25630952D01*
X-21509523Y-26202380D01*
X-20890476Y-26202380D01*
X-14588095Y-28402380D02*
X-14588095Y-27402380D01*
X-14350000Y-27402380D01*
X-14207142Y-27450000D01*
X-14111904Y-27545238D01*
X-14064285Y-27640476D01*
X-14016666Y-27830952D01*
X-14016666Y-27973809D01*
X-14064285Y-28164285D01*
X-14111904Y-28259523D01*
X-14207142Y-28354761D01*
X-14350000Y-28402380D01*
X-14588095Y-28402380D01*
X-13159523Y-27402380D02*
X-13350000Y-27402380D01*
X-13445238Y-27450000D01*
X-13492857Y-27497619D01*
X-13588095Y-27640476D01*
X-13635714Y-27830952D01*
X-13635714Y-28211904D01*
X-13588095Y-28307142D01*
X-13540476Y-28354761D01*
X-13445238Y-28402380D01*
X-13254761Y-28402380D01*
X-13159523Y-28354761D01*
X-13111904Y-28307142D01*
X-13064285Y-28211904D01*
X-13064285Y-27973809D01*
X-13111904Y-27878571D01*
X-13159523Y-27830952D01*
X-13254761Y-27783333D01*
X-13445238Y-27783333D01*
X-13540476Y-27830952D01*
X-13588095Y-27878571D01*
X-13635714Y-27973809D01*
X-1547619Y-12983333D02*
X-833333Y-12983333D01*
X-690476Y-13030952D01*
X-595238Y-13126190D01*
X-547619Y-13269047D01*
X-547619Y-13364285D01*
X-1547619Y-12030952D02*
X-1547619Y-12507142D01*
X-1071428Y-12554761D01*
X-1119047Y-12507142D01*
X-1166666Y-12411904D01*
X-1166666Y-12173809D01*
X-1119047Y-12078571D01*
X-1071428Y-12030952D01*
X-976190Y-11983333D01*
X-738095Y-11983333D01*
X-642857Y-12030952D01*
X-595238Y-12078571D01*
X-547619Y-12173809D01*
X-547619Y-12411904D01*
X-595238Y-12507142D01*
X-642857Y-12554761D01*
X-6166666Y41247619D02*
X-6500000Y41723809D01*
X-6738095Y41247619D02*
X-6738095Y42247619D01*
X-6357142Y42247619D01*
X-6261904Y42200000D01*
X-6214285Y42152380D01*
X-6166666Y42057142D01*
X-6166666Y41914285D01*
X-6214285Y41819047D01*
X-6261904Y41771428D01*
X-6357142Y41723809D01*
X-6738095Y41723809D01*
X-5595238Y41819047D02*
X-5690476Y41866666D01*
X-5738095Y41914285D01*
X-5785714Y42009523D01*
X-5785714Y42057142D01*
X-5738095Y42152380D01*
X-5690476Y42200000D01*
X-5595238Y42247619D01*
X-5404761Y42247619D01*
X-5309523Y42200000D01*
X-5261904Y42152380D01*
X-5214285Y42057142D01*
X-5214285Y42009523D01*
X-5261904Y41914285D01*
X-5309523Y41866666D01*
X-5404761Y41819047D01*
X-5595238Y41819047D01*
X-5690476Y41771428D01*
X-5738095Y41723809D01*
X-5785714Y41628571D01*
X-5785714Y41438095D01*
X-5738095Y41342857D01*
X-5690476Y41295238D01*
X-5595238Y41247619D01*
X-5404761Y41247619D01*
X-5309523Y41295238D01*
X-5261904Y41342857D01*
X-5214285Y41438095D01*
X-5214285Y41628571D01*
X-5261904Y41723809D01*
X-5309523Y41771428D01*
X-5404761Y41819047D01*
X-3747619Y-17166666D02*
X-4223809Y-17500000D01*
X-3747619Y-17738095D02*
X-4747619Y-17738095D01*
X-4747619Y-17357142D01*
X-4700000Y-17261904D01*
X-4652380Y-17214285D01*
X-4557142Y-17166666D01*
X-4414285Y-17166666D01*
X-4319047Y-17214285D01*
X-4271428Y-17261904D01*
X-4223809Y-17357142D01*
X-4223809Y-17738095D01*
X-3747619Y-16690476D02*
X-3747619Y-16500000D01*
X-3795238Y-16404761D01*
X-3842857Y-16357142D01*
X-3985714Y-16261904D01*
X-4176190Y-16214285D01*
X-4557142Y-16214285D01*
X-4652380Y-16261904D01*
X-4700000Y-16309523D01*
X-4747619Y-16404761D01*
X-4747619Y-16595238D01*
X-4700000Y-16690476D01*
X-4652380Y-16738095D01*
X-4557142Y-16785714D01*
X-4319047Y-16785714D01*
X-4223809Y-16738095D01*
X-4176190Y-16690476D01*
X-4128571Y-16595238D01*
X-4128571Y-16404761D01*
X-4176190Y-16309523D01*
X-4223809Y-16261904D01*
X-4319047Y-16214285D01*
X-11166666Y-32057142D02*
X-11214285Y-32104761D01*
X-11357142Y-32152380D01*
X-11452380Y-32152380D01*
X-11595238Y-32104761D01*
X-11690476Y-32009523D01*
X-11738095Y-31914285D01*
X-11785714Y-31723809D01*
X-11785714Y-31580952D01*
X-11738095Y-31390476D01*
X-11690476Y-31295238D01*
X-11595238Y-31200000D01*
X-11452380Y-31152380D01*
X-11357142Y-31152380D01*
X-11214285Y-31200000D01*
X-11166666Y-31247619D01*
X-10690476Y-32152380D02*
X-10500000Y-32152380D01*
X-10404761Y-32104761D01*
X-10357142Y-32057142D01*
X-10261904Y-31914285D01*
X-10214285Y-31723809D01*
X-10214285Y-31342857D01*
X-10261904Y-31247619D01*
X-10309523Y-31200000D01*
X-10404761Y-31152380D01*
X-10595238Y-31152380D01*
X-10690476Y-31200000D01*
X-10738095Y-31247619D01*
X-10785714Y-31342857D01*
X-10785714Y-31580952D01*
X-10738095Y-31676190D01*
X-10690476Y-31723809D01*
X-10595238Y-31771428D01*
X-10404761Y-31771428D01*
X-10309523Y-31723809D01*
X-10261904Y-31676190D01*
X-10214285Y-31580952D01*
X-11392857Y-38166666D02*
X-11345238Y-38214285D01*
X-11297619Y-38357142D01*
X-11297619Y-38452380D01*
X-11345238Y-38595238D01*
X-11440476Y-38690476D01*
X-11535714Y-38738095D01*
X-11726190Y-38785714D01*
X-11869047Y-38785714D01*
X-12059523Y-38738095D01*
X-12154761Y-38690476D01*
X-12250000Y-38595238D01*
X-12297619Y-38452380D01*
X-12297619Y-38357142D01*
X-12250000Y-38214285D01*
X-12202380Y-38166666D01*
X-11964285Y-37309523D02*
X-11297619Y-37309523D01*
X-12345238Y-37547619D02*
X-11630952Y-37785714D01*
X-11630952Y-37166666D01*
X-30561904Y-25102380D02*
X-30561904Y-25911904D01*
X-30514285Y-26007142D01*
X-30466666Y-26054761D01*
X-30371428Y-26102380D01*
X-30180952Y-26102380D01*
X-30085714Y-26054761D01*
X-30038095Y-26007142D01*
X-29990476Y-25911904D01*
X-29990476Y-25102380D01*
X-28990476Y-26102380D02*
X-29561904Y-26102380D01*
X-29276190Y-26102380D02*
X-29276190Y-25102380D01*
X-29371428Y-25245238D01*
X-29466666Y-25340476D01*
X-29561904Y-25388095D01*
X-16666666Y41247619D02*
X-17000000Y41723809D01*
X-17238095Y41247619D02*
X-17238095Y42247619D01*
X-16857142Y42247619D01*
X-16761904Y42200000D01*
X-16714285Y42152380D01*
X-16666666Y42057142D01*
X-16666666Y41914285D01*
X-16714285Y41819047D01*
X-16761904Y41771428D01*
X-16857142Y41723809D01*
X-17238095Y41723809D01*
X-16333333Y42247619D02*
X-15714285Y42247619D01*
X-16047619Y41866666D01*
X-15904761Y41866666D01*
X-15809523Y41819047D01*
X-15761904Y41771428D01*
X-15714285Y41676190D01*
X-15714285Y41438095D01*
X-15761904Y41342857D01*
X-15809523Y41295238D01*
X-15904761Y41247619D01*
X-16190476Y41247619D01*
X-16285714Y41295238D01*
X-16333333Y41342857D01*
X-14297619Y44211904D02*
X-15297619Y44211904D01*
X-15297619Y44450000D01*
X-15250000Y44592857D01*
X-15154761Y44688095D01*
X-15059523Y44735714D01*
X-14869047Y44783333D01*
X-14726190Y44783333D01*
X-14535714Y44735714D01*
X-14440476Y44688095D01*
X-14345238Y44592857D01*
X-14297619Y44450000D01*
X-14297619Y44211904D01*
X-15297619Y45116666D02*
X-15297619Y45735714D01*
X-14916666Y45402380D01*
X-14916666Y45545238D01*
X-14869047Y45640476D01*
X-14821428Y45688095D01*
X-14726190Y45735714D01*
X-14488095Y45735714D01*
X-14392857Y45688095D01*
X-14345238Y45640476D01*
X-14297619Y45545238D01*
X-14297619Y45259523D01*
X-14345238Y45164285D01*
X-14392857Y45116666D01*
X-20166666Y41247619D02*
X-20500000Y41723809D01*
X-20738095Y41247619D02*
X-20738095Y42247619D01*
X-20357142Y42247619D01*
X-20261904Y42200000D01*
X-20214285Y42152380D01*
X-20166666Y42057142D01*
X-20166666Y41914285D01*
X-20214285Y41819047D01*
X-20261904Y41771428D01*
X-20357142Y41723809D01*
X-20738095Y41723809D01*
X-19785714Y42152380D02*
X-19738095Y42200000D01*
X-19642857Y42247619D01*
X-19404761Y42247619D01*
X-19309523Y42200000D01*
X-19261904Y42152380D01*
X-19214285Y42057142D01*
X-19214285Y41961904D01*
X-19261904Y41819047D01*
X-19833333Y41247619D01*
X-19214285Y41247619D01*
X-8561904Y-38352380D02*
X-8561904Y-39161904D01*
X-8514285Y-39257142D01*
X-8466666Y-39304761D01*
X-8371428Y-39352380D01*
X-8180952Y-39352380D01*
X-8085714Y-39304761D01*
X-8038095Y-39257142D01*
X-7990476Y-39161904D01*
X-7990476Y-38352380D01*
X-7085714Y-38685714D02*
X-7085714Y-39352380D01*
X-7323809Y-38304761D02*
X-7561904Y-39019047D01*
X-6942857Y-39019047D01*
X-38923809Y-31026190D02*
X-38447619Y-31026190D01*
X-39447619Y-31359523D02*
X-38923809Y-31026190D01*
X-39447619Y-30692857D01*
X-38447619Y-29835714D02*
X-38447619Y-30407142D01*
X-38447619Y-30121428D02*
X-39447619Y-30121428D01*
X-39304761Y-30216666D01*
X-39209523Y-30311904D01*
X-39161904Y-30407142D01*
X-36016666Y-22827142D02*
X-36064285Y-22874761D01*
X-36207142Y-22922380D01*
X-36302380Y-22922380D01*
X-36445238Y-22874761D01*
X-36540476Y-22779523D01*
X-36588095Y-22684285D01*
X-36635714Y-22493809D01*
X-36635714Y-22350952D01*
X-36588095Y-22160476D01*
X-36540476Y-22065238D01*
X-36445238Y-21970000D01*
X-36302380Y-21922380D01*
X-36207142Y-21922380D01*
X-36064285Y-21970000D01*
X-36016666Y-22017619D01*
X-35683333Y-21922380D02*
X-35016666Y-21922380D01*
X-35445238Y-22922380D01*
X-5566666Y-14452380D02*
X-5900000Y-13976190D01*
X-6138095Y-14452380D02*
X-6138095Y-13452380D01*
X-5757142Y-13452380D01*
X-5661904Y-13500000D01*
X-5614285Y-13547619D01*
X-5566666Y-13642857D01*
X-5566666Y-13785714D01*
X-5614285Y-13880952D01*
X-5661904Y-13928571D01*
X-5757142Y-13976190D01*
X-6138095Y-13976190D01*
X-4709523Y-13452380D02*
X-4900000Y-13452380D01*
X-4995238Y-13500000D01*
X-5042857Y-13547619D01*
X-5138095Y-13690476D01*
X-5185714Y-13880952D01*
X-5185714Y-14261904D01*
X-5138095Y-14357142D01*
X-5090476Y-14404761D01*
X-4995238Y-14452380D01*
X-4804761Y-14452380D01*
X-4709523Y-14404761D01*
X-4661904Y-14357142D01*
X-4614285Y-14261904D01*
X-4614285Y-14023809D01*
X-4661904Y-13928571D01*
X-4709523Y-13880952D01*
X-4804761Y-13833333D01*
X-4995238Y-13833333D01*
X-5090476Y-13880952D01*
X-5138095Y-13928571D01*
X-5185714Y-14023809D01*
X-9666666Y41147619D02*
X-10000000Y41623809D01*
X-10238095Y41147619D02*
X-10238095Y42147619D01*
X-9857142Y42147619D01*
X-9761904Y42100000D01*
X-9714285Y42052380D01*
X-9666666Y41957142D01*
X-9666666Y41814285D01*
X-9714285Y41719047D01*
X-9761904Y41671428D01*
X-9857142Y41623809D01*
X-10238095Y41623809D01*
X-9333333Y42147619D02*
X-8666666Y42147619D01*
X-9095238Y41147619D01*
X-7042857Y-10357142D02*
X-7090476Y-10404761D01*
X-7233333Y-10452380D01*
X-7328571Y-10452380D01*
X-7471428Y-10404761D01*
X-7566666Y-10309523D01*
X-7614285Y-10214285D01*
X-7661904Y-10023809D01*
X-7661904Y-9880952D01*
X-7614285Y-9690476D01*
X-7566666Y-9595238D01*
X-7471428Y-9500000D01*
X-7328571Y-9452380D01*
X-7233333Y-9452380D01*
X-7090476Y-9500000D01*
X-7042857Y-9547619D01*
X-6090476Y-10452380D02*
X-6661904Y-10452380D01*
X-6376190Y-10452380D02*
X-6376190Y-9452380D01*
X-6471428Y-9595238D01*
X-6566666Y-9690476D01*
X-6661904Y-9738095D01*
X-5709523Y-9547619D02*
X-5661904Y-9500000D01*
X-5566666Y-9452380D01*
X-5328571Y-9452380D01*
X-5233333Y-9500000D01*
X-5185714Y-9547619D01*
X-5138095Y-9642857D01*
X-5138095Y-9738095D01*
X-5185714Y-9880952D01*
X-5757142Y-10452380D01*
X-5138095Y-10452380D01*
X-8992857Y-32057142D02*
X-9040476Y-32104761D01*
X-9183333Y-32152380D01*
X-9278571Y-32152380D01*
X-9421428Y-32104761D01*
X-9516666Y-32009523D01*
X-9564285Y-31914285D01*
X-9611904Y-31723809D01*
X-9611904Y-31580952D01*
X-9564285Y-31390476D01*
X-9516666Y-31295238D01*
X-9421428Y-31200000D01*
X-9278571Y-31152380D01*
X-9183333Y-31152380D01*
X-9040476Y-31200000D01*
X-8992857Y-31247619D01*
X-8040476Y-32152380D02*
X-8611904Y-32152380D01*
X-8326190Y-32152380D02*
X-8326190Y-31152380D01*
X-8421428Y-31295238D01*
X-8516666Y-31390476D01*
X-8611904Y-31438095D01*
X-7183333Y-31152380D02*
X-7373809Y-31152380D01*
X-7469047Y-31200000D01*
X-7516666Y-31247619D01*
X-7611904Y-31390476D01*
X-7659523Y-31580952D01*
X-7659523Y-31961904D01*
X-7611904Y-32057142D01*
X-7564285Y-32104761D01*
X-7469047Y-32152380D01*
X-7278571Y-32152380D01*
X-7183333Y-32104761D01*
X-7135714Y-32057142D01*
X-7088095Y-31961904D01*
X-7088095Y-31723809D01*
X-7135714Y-31628571D01*
X-7183333Y-31580952D01*
X-7278571Y-31533333D01*
X-7469047Y-31533333D01*
X-7564285Y-31580952D01*
X-7611904Y-31628571D01*
X-7659523Y-31723809D01*
X-35321428Y-7128571D02*
X-35654761Y-7128571D01*
X-35654761Y-7652380D02*
X-35654761Y-6652380D01*
X-35178571Y-6652380D01*
X-34797619Y-7652380D02*
X-34797619Y-6652380D01*
X-34321428Y-7652380D02*
X-34321428Y-6652380D01*
X-34083333Y-6652380D01*
X-33940476Y-6700000D01*
X-33845238Y-6795238D01*
X-33797619Y-6890476D01*
X-33750000Y-7080952D01*
X-33750000Y-7223809D01*
X-33797619Y-7414285D01*
X-33845238Y-7509523D01*
X-33940476Y-7604761D01*
X-34083333Y-7652380D01*
X-34321428Y-7652380D01*
X-32797619Y-7652380D02*
X-33369047Y-7652380D01*
X-33083333Y-7652380D02*
X-33083333Y-6652380D01*
X-33178571Y-6795238D01*
X-33273809Y-6890476D01*
X-33369047Y-6938095D01*
X3228571Y-37078571D02*
X2895238Y-37078571D01*
X2895238Y-37602380D02*
X2895238Y-36602380D01*
X3371428Y-36602380D01*
X3752380Y-37602380D02*
X3752380Y-36602380D01*
X4228571Y-37602380D02*
X4228571Y-36602380D01*
X4466666Y-36602380D01*
X4609523Y-36650000D01*
X4704761Y-36745238D01*
X4752380Y-36840476D01*
X4800000Y-37030952D01*
X4800000Y-37173809D01*
X4752380Y-37364285D01*
X4704761Y-37459523D01*
X4609523Y-37554761D01*
X4466666Y-37602380D01*
X4228571Y-37602380D01*
X5180952Y-36697619D02*
X5228571Y-36650000D01*
X5323809Y-36602380D01*
X5561904Y-36602380D01*
X5657142Y-36650000D01*
X5704761Y-36697619D01*
X5752380Y-36792857D01*
X5752380Y-36888095D01*
X5704761Y-37030952D01*
X5133333Y-37602380D01*
X5752380Y-37602380D01*
X-37333333Y-38404761D02*
X-37190476Y-38452380D01*
X-36952380Y-38452380D01*
X-36857142Y-38404761D01*
X-36809523Y-38357142D01*
X-36761904Y-38261904D01*
X-36761904Y-38166666D01*
X-36809523Y-38071428D01*
X-36857142Y-38023809D01*
X-36952380Y-37976190D01*
X-37142857Y-37928571D01*
X-37238095Y-37880952D01*
X-37285714Y-37833333D01*
X-37333333Y-37738095D01*
X-37333333Y-37642857D01*
X-37285714Y-37547619D01*
X-37238095Y-37500000D01*
X-37142857Y-37452380D01*
X-36904761Y-37452380D01*
X-36761904Y-37500000D01*
X-36428571Y-37452380D02*
X-36190476Y-38452380D01*
X-36000000Y-37738095D01*
X-35809523Y-38452380D01*
X-35571428Y-37452380D01*
X-34666666Y-38452380D02*
X-35238095Y-38452380D01*
X-34952380Y-38452380D02*
X-34952380Y-37452380D01*
X-35047619Y-37595238D01*
X-35142857Y-37690476D01*
X-35238095Y-37738095D01*
X-25703046Y40117428D02*
X-25568359Y40184771D01*
X-25400000Y40353130D01*
X-25366328Y40454145D01*
X-25366328Y40521489D01*
X-25400000Y40622504D01*
X-25467343Y40689847D01*
X-25568359Y40723519D01*
X-25635702Y40723519D01*
X-25736717Y40689847D01*
X-25905076Y40588832D01*
X-26006091Y40555160D01*
X-26073435Y40555160D01*
X-26174450Y40588832D01*
X-26241794Y40656176D01*
X-26275465Y40757191D01*
X-26275465Y40824534D01*
X-26241794Y40925550D01*
X-26073435Y41093908D01*
X-25938748Y41161252D01*
X-25736717Y41430626D02*
X-24861252Y40891878D01*
X-25231641Y41531641D01*
X-24591878Y41161252D01*
X-25130626Y42036717D01*
X-24928595Y42238748D02*
X-24490863Y42676481D01*
X-24457191Y42171404D01*
X-24356176Y42272420D01*
X-24255160Y42306091D01*
X-24187817Y42306091D01*
X-24086802Y42272420D01*
X-23918443Y42104061D01*
X-23884771Y42003046D01*
X-23884771Y41935702D01*
X-23918443Y41834687D01*
X-24120473Y41632656D01*
X-24221489Y41598985D01*
X-24288832Y41598985D01*
X-18792857Y-38066666D02*
X-18745238Y-38114285D01*
X-18697619Y-38257142D01*
X-18697619Y-38352380D01*
X-18745238Y-38495238D01*
X-18840476Y-38590476D01*
X-18935714Y-38638095D01*
X-19126190Y-38685714D01*
X-19269047Y-38685714D01*
X-19459523Y-38638095D01*
X-19554761Y-38590476D01*
X-19650000Y-38495238D01*
X-19697619Y-38352380D01*
X-19697619Y-38257142D01*
X-19650000Y-38114285D01*
X-19602380Y-38066666D01*
X-19697619Y-37733333D02*
X-19697619Y-37114285D01*
X-19316666Y-37447619D01*
X-19316666Y-37304761D01*
X-19269047Y-37209523D01*
X-19221428Y-37161904D01*
X-19126190Y-37114285D01*
X-18888095Y-37114285D01*
X-18792857Y-37161904D01*
X-18745238Y-37209523D01*
X-18697619Y-37304761D01*
X-18697619Y-37590476D01*
X-18745238Y-37685714D01*
X-18792857Y-37733333D01*
X-9642857Y-24907142D02*
X-9690476Y-24954761D01*
X-9833333Y-25002380D01*
X-9928571Y-25002380D01*
X-10071428Y-24954761D01*
X-10166666Y-24859523D01*
X-10214285Y-24764285D01*
X-10261904Y-24573809D01*
X-10261904Y-24430952D01*
X-10214285Y-24240476D01*
X-10166666Y-24145238D01*
X-10071428Y-24050000D01*
X-9928571Y-24002380D01*
X-9833333Y-24002380D01*
X-9690476Y-24050000D01*
X-9642857Y-24097619D01*
X-8690476Y-25002380D02*
X-9261904Y-25002380D01*
X-8976190Y-25002380D02*
X-8976190Y-24002380D01*
X-9071428Y-24145238D01*
X-9166666Y-24240476D01*
X-9261904Y-24288095D01*
X-7833333Y-24335714D02*
X-7833333Y-25002380D01*
X-8071428Y-23954761D02*
X-8309523Y-24669047D01*
X-7690476Y-24669047D01*
X-16092857Y-30507142D02*
X-16140476Y-30554761D01*
X-16283333Y-30602380D01*
X-16378571Y-30602380D01*
X-16521428Y-30554761D01*
X-16616666Y-30459523D01*
X-16664285Y-30364285D01*
X-16711904Y-30173809D01*
X-16711904Y-30030952D01*
X-16664285Y-29840476D01*
X-16616666Y-29745238D01*
X-16521428Y-29650000D01*
X-16378571Y-29602380D01*
X-16283333Y-29602380D01*
X-16140476Y-29650000D01*
X-16092857Y-29697619D01*
X-15140476Y-30602380D02*
X-15711904Y-30602380D01*
X-15426190Y-30602380D02*
X-15426190Y-29602380D01*
X-15521428Y-29745238D01*
X-15616666Y-29840476D01*
X-15711904Y-29888095D01*
X-14807142Y-29602380D02*
X-14188095Y-29602380D01*
X-14521428Y-29983333D01*
X-14378571Y-29983333D01*
X-14283333Y-30030952D01*
X-14235714Y-30078571D01*
X-14188095Y-30173809D01*
X-14188095Y-30411904D01*
X-14235714Y-30507142D01*
X-14283333Y-30554761D01*
X-14378571Y-30602380D01*
X-14664285Y-30602380D01*
X-14759523Y-30554761D01*
X-14807142Y-30507142D01*
X-32216666Y-22807142D02*
X-32264285Y-22854761D01*
X-32407142Y-22902380D01*
X-32502380Y-22902380D01*
X-32645238Y-22854761D01*
X-32740476Y-22759523D01*
X-32788095Y-22664285D01*
X-32835714Y-22473809D01*
X-32835714Y-22330952D01*
X-32788095Y-22140476D01*
X-32740476Y-22045238D01*
X-32645238Y-21950000D01*
X-32502380Y-21902380D01*
X-32407142Y-21902380D01*
X-32264285Y-21950000D01*
X-32216666Y-21997619D01*
X-31311904Y-21902380D02*
X-31788095Y-21902380D01*
X-31835714Y-22378571D01*
X-31788095Y-22330952D01*
X-31692857Y-22283333D01*
X-31454761Y-22283333D01*
X-31359523Y-22330952D01*
X-31311904Y-22378571D01*
X-31264285Y-22473809D01*
X-31264285Y-22711904D01*
X-31311904Y-22807142D01*
X-31359523Y-22854761D01*
X-31454761Y-22902380D01*
X-31692857Y-22902380D01*
X-31788095Y-22854761D01*
X-31835714Y-22807142D01*
X-17797619Y44211904D02*
X-18797619Y44211904D01*
X-18797619Y44450000D01*
X-18750000Y44592857D01*
X-18654761Y44688095D01*
X-18559523Y44735714D01*
X-18369047Y44783333D01*
X-18226190Y44783333D01*
X-18035714Y44735714D01*
X-17940476Y44688095D01*
X-17845238Y44592857D01*
X-17797619Y44450000D01*
X-17797619Y44211904D01*
X-18702380Y45164285D02*
X-18750000Y45211904D01*
X-18797619Y45307142D01*
X-18797619Y45545238D01*
X-18750000Y45640476D01*
X-18702380Y45688095D01*
X-18607142Y45735714D01*
X-18511904Y45735714D01*
X-18369047Y45688095D01*
X-17797619Y45116666D01*
X-17797619Y45735714D01*
X-10911904Y-2502380D02*
X-10911904Y-3311904D01*
X-10864285Y-3407142D01*
X-10816666Y-3454761D01*
X-10721428Y-3502380D01*
X-10530952Y-3502380D01*
X-10435714Y-3454761D01*
X-10388095Y-3407142D01*
X-10340476Y-3311904D01*
X-10340476Y-2502380D01*
X-9435714Y-2502380D02*
X-9626190Y-2502380D01*
X-9721428Y-2550000D01*
X-9769047Y-2597619D01*
X-9864285Y-2740476D01*
X-9911904Y-2930952D01*
X-9911904Y-3311904D01*
X-9864285Y-3407142D01*
X-9816666Y-3454761D01*
X-9721428Y-3502380D01*
X-9530952Y-3502380D01*
X-9435714Y-3454761D01*
X-9388095Y-3407142D01*
X-9340476Y-3311904D01*
X-9340476Y-3073809D01*
X-9388095Y-2978571D01*
X-9435714Y-2930952D01*
X-9530952Y-2883333D01*
X-9721428Y-2883333D01*
X-9816666Y-2930952D01*
X-9864285Y-2978571D01*
X-9911904Y-3073809D01*
X-32616666Y-31802380D02*
X-32950000Y-31326190D01*
X-33188095Y-31802380D02*
X-33188095Y-30802380D01*
X-32807142Y-30802380D01*
X-32711904Y-30850000D01*
X-32664285Y-30897619D01*
X-32616666Y-30992857D01*
X-32616666Y-31135714D01*
X-32664285Y-31230952D01*
X-32711904Y-31278571D01*
X-32807142Y-31326190D01*
X-33188095Y-31326190D01*
X-31664285Y-31802380D02*
X-32235714Y-31802380D01*
X-31950000Y-31802380D02*
X-31950000Y-30802380D01*
X-32045238Y-30945238D01*
X-32140476Y-31040476D01*
X-32235714Y-31088095D01*
X-38011904Y-8302380D02*
X-38011904Y-9111904D01*
X-37964285Y-9207142D01*
X-37916666Y-9254761D01*
X-37821428Y-9302380D01*
X-37630952Y-9302380D01*
X-37535714Y-9254761D01*
X-37488095Y-9207142D01*
X-37440476Y-9111904D01*
X-37440476Y-8302380D01*
X-37059523Y-8302380D02*
X-36440476Y-8302380D01*
X-36773809Y-8683333D01*
X-36630952Y-8683333D01*
X-36535714Y-8730952D01*
X-36488095Y-8778571D01*
X-36440476Y-8873809D01*
X-36440476Y-9111904D01*
X-36488095Y-9207142D01*
X-36535714Y-9254761D01*
X-36630952Y-9302380D01*
X-36916666Y-9302380D01*
X-37011904Y-9254761D01*
X-37059523Y-9207142D01*
X-32842857Y-30007142D02*
X-32890476Y-30054761D01*
X-33033333Y-30102380D01*
X-33128571Y-30102380D01*
X-33271428Y-30054761D01*
X-33366666Y-29959523D01*
X-33414285Y-29864285D01*
X-33461904Y-29673809D01*
X-33461904Y-29530952D01*
X-33414285Y-29340476D01*
X-33366666Y-29245238D01*
X-33271428Y-29150000D01*
X-33128571Y-29102380D01*
X-33033333Y-29102380D01*
X-32890476Y-29150000D01*
X-32842857Y-29197619D01*
X-31890476Y-30102380D02*
X-32461904Y-30102380D01*
X-32176190Y-30102380D02*
X-32176190Y-29102380D01*
X-32271428Y-29245238D01*
X-32366666Y-29340476D01*
X-32461904Y-29388095D01*
X-30938095Y-30102380D02*
X-31509523Y-30102380D01*
X-31223809Y-30102380D02*
X-31223809Y-29102380D01*
X-31319047Y-29245238D01*
X-31414285Y-29340476D01*
X-31509523Y-29388095D01*
X-31306599Y34470981D02*
X-31171912Y34538324D01*
X-31003553Y34706683D01*
X-30969881Y34807698D01*
X-30969881Y34875042D01*
X-31003553Y34976057D01*
X-31070896Y35043400D01*
X-31171912Y35077072D01*
X-31239255Y35077072D01*
X-31340270Y35043400D01*
X-31508629Y34942385D01*
X-31609644Y34908713D01*
X-31676988Y34908713D01*
X-31778003Y34942385D01*
X-31845347Y35009729D01*
X-31879018Y35110744D01*
X-31879018Y35178087D01*
X-31845347Y35279103D01*
X-31676988Y35447461D01*
X-31542301Y35514805D01*
X-31340270Y35784179D02*
X-30464805Y35245431D01*
X-30835194Y35885194D01*
X-30195431Y35514805D01*
X-30734179Y36390270D01*
X-30431133Y36558629D02*
X-30431133Y36625973D01*
X-30397461Y36726988D01*
X-30229103Y36895347D01*
X-30128087Y36929018D01*
X-30060744Y36929018D01*
X-29959729Y36895347D01*
X-29892385Y36828003D01*
X-29825042Y36693316D01*
X-29825042Y35885194D01*
X-29387309Y36322927D01*
X-21347619Y44161904D02*
X-22347619Y44161904D01*
X-22347619Y44400000D01*
X-22300000Y44542857D01*
X-22204761Y44638095D01*
X-22109523Y44685714D01*
X-21919047Y44733333D01*
X-21776190Y44733333D01*
X-21585714Y44685714D01*
X-21490476Y44638095D01*
X-21395238Y44542857D01*
X-21347619Y44400000D01*
X-21347619Y44161904D01*
X-21347619Y45685714D02*
X-21347619Y45114285D01*
X-21347619Y45400000D02*
X-22347619Y45400000D01*
X-22204761Y45304761D01*
X-22109523Y45209523D01*
X-22061904Y45114285D01*
X-38716666Y-26807142D02*
X-38764285Y-26854761D01*
X-38907142Y-26902380D01*
X-39002380Y-26902380D01*
X-39145238Y-26854761D01*
X-39240476Y-26759523D01*
X-39288095Y-26664285D01*
X-39335714Y-26473809D01*
X-39335714Y-26330952D01*
X-39288095Y-26140476D01*
X-39240476Y-26045238D01*
X-39145238Y-25950000D01*
X-39002380Y-25902380D01*
X-38907142Y-25902380D01*
X-38764285Y-25950000D01*
X-38716666Y-25997619D01*
X-37764285Y-26902380D02*
X-38335714Y-26902380D01*
X-38050000Y-26902380D02*
X-38050000Y-25902380D01*
X-38145238Y-26045238D01*
X-38240476Y-26140476D01*
X-38335714Y-26188095D01*
X-29166666Y-38357142D02*
X-29214285Y-38404761D01*
X-29357142Y-38452380D01*
X-29452380Y-38452380D01*
X-29595238Y-38404761D01*
X-29690476Y-38309523D01*
X-29738095Y-38214285D01*
X-29785714Y-38023809D01*
X-29785714Y-37880952D01*
X-29738095Y-37690476D01*
X-29690476Y-37595238D01*
X-29595238Y-37500000D01*
X-29452380Y-37452380D01*
X-29357142Y-37452380D01*
X-29214285Y-37500000D01*
X-29166666Y-37547619D01*
X-28309523Y-37452380D02*
X-28500000Y-37452380D01*
X-28595238Y-37500000D01*
X-28642857Y-37547619D01*
X-28738095Y-37690476D01*
X-28785714Y-37880952D01*
X-28785714Y-38261904D01*
X-28738095Y-38357142D01*
X-28690476Y-38404761D01*
X-28595238Y-38452380D01*
X-28404761Y-38452380D01*
X-28309523Y-38404761D01*
X-28261904Y-38357142D01*
X-28214285Y-38261904D01*
X-28214285Y-38023809D01*
X-28261904Y-37928571D01*
X-28309523Y-37880952D01*
X-28404761Y-37833333D01*
X-28595238Y-37833333D01*
X-28690476Y-37880952D01*
X-28738095Y-37928571D01*
X-28785714Y-38023809D01*
X-7247619Y44211904D02*
X-8247619Y44211904D01*
X-8247619Y44450000D01*
X-8200000Y44592857D01*
X-8104761Y44688095D01*
X-8009523Y44735714D01*
X-7819047Y44783333D01*
X-7676190Y44783333D01*
X-7485714Y44735714D01*
X-7390476Y44688095D01*
X-7295238Y44592857D01*
X-7247619Y44450000D01*
X-7247619Y44211904D01*
X-8247619Y45688095D02*
X-8247619Y45211904D01*
X-7771428Y45164285D01*
X-7819047Y45211904D01*
X-7866666Y45307142D01*
X-7866666Y45545238D01*
X-7819047Y45640476D01*
X-7771428Y45688095D01*
X-7676190Y45735714D01*
X-7438095Y45735714D01*
X-7342857Y45688095D01*
X-7295238Y45640476D01*
X-7247619Y45545238D01*
X-7247619Y45307142D01*
X-7295238Y45211904D01*
X-7342857Y45164285D01*
X-16142857Y-38216666D02*
X-16095238Y-38264285D01*
X-16047619Y-38407142D01*
X-16047619Y-38502380D01*
X-16095238Y-38645238D01*
X-16190476Y-38740476D01*
X-16285714Y-38788095D01*
X-16476190Y-38835714D01*
X-16619047Y-38835714D01*
X-16809523Y-38788095D01*
X-16904761Y-38740476D01*
X-17000000Y-38645238D01*
X-17047619Y-38502380D01*
X-17047619Y-38407142D01*
X-17000000Y-38264285D01*
X-16952380Y-38216666D01*
X-16619047Y-37645238D02*
X-16666666Y-37740476D01*
X-16714285Y-37788095D01*
X-16809523Y-37835714D01*
X-16857142Y-37835714D01*
X-16952380Y-37788095D01*
X-17000000Y-37740476D01*
X-17047619Y-37645238D01*
X-17047619Y-37454761D01*
X-17000000Y-37359523D01*
X-16952380Y-37311904D01*
X-16857142Y-37264285D01*
X-16809523Y-37264285D01*
X-16714285Y-37311904D01*
X-16666666Y-37359523D01*
X-16619047Y-37454761D01*
X-16619047Y-37645238D01*
X-16571428Y-37740476D01*
X-16523809Y-37788095D01*
X-16428571Y-37835714D01*
X-16238095Y-37835714D01*
X-16142857Y-37788095D01*
X-16095238Y-37740476D01*
X-16047619Y-37645238D01*
X-16047619Y-37454761D01*
X-16095238Y-37359523D01*
X-16142857Y-37311904D01*
X-16238095Y-37264285D01*
X-16428571Y-37264285D01*
X-16523809Y-37311904D01*
X-16571428Y-37359523D01*
X-16619047Y-37454761D01*
X-38816666Y-34857142D02*
X-38864285Y-34904761D01*
X-39007142Y-34952380D01*
X-39102380Y-34952380D01*
X-39245238Y-34904761D01*
X-39340476Y-34809523D01*
X-39388095Y-34714285D01*
X-39435714Y-34523809D01*
X-39435714Y-34380952D01*
X-39388095Y-34190476D01*
X-39340476Y-34095238D01*
X-39245238Y-34000000D01*
X-39102380Y-33952380D01*
X-39007142Y-33952380D01*
X-38864285Y-34000000D01*
X-38816666Y-34047619D01*
X-38435714Y-34047619D02*
X-38388095Y-34000000D01*
X-38292857Y-33952380D01*
X-38054761Y-33952380D01*
X-37959523Y-34000000D01*
X-37911904Y-34047619D01*
X-37864285Y-34142857D01*
X-37864285Y-34238095D01*
X-37911904Y-34380952D01*
X-38483333Y-34952380D01*
X-37864285Y-34952380D01*
X-3871428Y42821428D02*
X-4204761Y42821428D01*
X-4204761Y42297619D02*
X-4204761Y43297619D01*
X-3728571Y43297619D01*
X-3347619Y42297619D02*
X-3347619Y43297619D01*
X-2871428Y42297619D02*
X-2871428Y43297619D01*
X-2633333Y43297619D01*
X-2490476Y43250000D01*
X-2395238Y43154761D01*
X-2347619Y43059523D01*
X-2300000Y42869047D01*
X-2300000Y42726190D01*
X-2347619Y42535714D01*
X-2395238Y42440476D01*
X-2490476Y42345238D01*
X-2633333Y42297619D01*
X-2871428Y42297619D01*
X-1966666Y43297619D02*
X-1347619Y43297619D01*
X-1680952Y42916666D01*
X-1538095Y42916666D01*
X-1442857Y42869047D01*
X-1395238Y42821428D01*
X-1347619Y42726190D01*
X-1347619Y42488095D01*
X-1395238Y42392857D01*
X-1442857Y42345238D01*
X-1538095Y42297619D01*
X-1823809Y42297619D01*
X-1919047Y42345238D01*
X-1966666Y42392857D01*
X-13792857Y-38992857D02*
X-13745238Y-39040476D01*
X-13697619Y-39183333D01*
X-13697619Y-39278571D01*
X-13745238Y-39421428D01*
X-13840476Y-39516666D01*
X-13935714Y-39564285D01*
X-14126190Y-39611904D01*
X-14269047Y-39611904D01*
X-14459523Y-39564285D01*
X-14554761Y-39516666D01*
X-14650000Y-39421428D01*
X-14697619Y-39278571D01*
X-14697619Y-39183333D01*
X-14650000Y-39040476D01*
X-14602380Y-38992857D01*
X-13697619Y-38040476D02*
X-13697619Y-38611904D01*
X-13697619Y-38326190D02*
X-14697619Y-38326190D01*
X-14554761Y-38421428D01*
X-14459523Y-38516666D01*
X-14411904Y-38611904D01*
X-14697619Y-37421428D02*
X-14697619Y-37326190D01*
X-14650000Y-37230952D01*
X-14602380Y-37183333D01*
X-14507142Y-37135714D01*
X-14316666Y-37088095D01*
X-14078571Y-37088095D01*
X-13888095Y-37135714D01*
X-13792857Y-37183333D01*
X-13745238Y-37230952D01*
X-13697619Y-37326190D01*
X-13697619Y-37421428D01*
X-13745238Y-37516666D01*
X-13792857Y-37564285D01*
X-13888095Y-37611904D01*
X-14078571Y-37659523D01*
X-14316666Y-37659523D01*
X-14507142Y-37611904D01*
X-14602380Y-37564285D01*
X-14650000Y-37516666D01*
X-14697619Y-37421428D01*
X-10747619Y44211904D02*
X-11747619Y44211904D01*
X-11747619Y44450000D01*
X-11700000Y44592857D01*
X-11604761Y44688095D01*
X-11509523Y44735714D01*
X-11319047Y44783333D01*
X-11176190Y44783333D01*
X-10985714Y44735714D01*
X-10890476Y44688095D01*
X-10795238Y44592857D01*
X-10747619Y44450000D01*
X-10747619Y44211904D01*
X-11414285Y45640476D02*
X-10747619Y45640476D01*
X-11795238Y45402380D02*
X-11080952Y45164285D01*
X-11080952Y45783333D01*
X-14411904Y-16902380D02*
X-14411904Y-17711904D01*
X-14364285Y-17807142D01*
X-14316666Y-17854761D01*
X-14221428Y-17902380D01*
X-14030952Y-17902380D01*
X-13935714Y-17854761D01*
X-13888095Y-17807142D01*
X-13840476Y-17711904D01*
X-13840476Y-16902380D01*
X-12888095Y-16902380D02*
X-13364285Y-16902380D01*
X-13411904Y-17378571D01*
X-13364285Y-17330952D01*
X-13269047Y-17283333D01*
X-13030952Y-17283333D01*
X-12935714Y-17330952D01*
X-12888095Y-17378571D01*
X-12840476Y-17473809D01*
X-12840476Y-17711904D01*
X-12888095Y-17807142D01*
X-12935714Y-17854761D01*
X-13030952Y-17902380D01*
X-13269047Y-17902380D01*
X-13364285Y-17854761D01*
X-13411904Y-17807142D01*
X-17833333Y-26737380D02*
X-17833333Y-27451666D01*
X-17880952Y-27594523D01*
X-17976190Y-27689761D01*
X-18119047Y-27737380D01*
X-18214285Y-27737380D01*
X-16833333Y-27737380D02*
X-17404761Y-27737380D01*
X-17119047Y-27737380D02*
X-17119047Y-26737380D01*
X-17214285Y-26880238D01*
X-17309523Y-26975476D01*
X-17404761Y-27023095D01*
X-13166666Y41247619D02*
X-13500000Y41723809D01*
X-13738095Y41247619D02*
X-13738095Y42247619D01*
X-13357142Y42247619D01*
X-13261904Y42200000D01*
X-13214285Y42152380D01*
X-13166666Y42057142D01*
X-13166666Y41914285D01*
X-13214285Y41819047D01*
X-13261904Y41771428D01*
X-13357142Y41723809D01*
X-13738095Y41723809D01*
X-12261904Y42247619D02*
X-12738095Y42247619D01*
X-12785714Y41771428D01*
X-12738095Y41819047D01*
X-12642857Y41866666D01*
X-12404761Y41866666D01*
X-12309523Y41819047D01*
X-12261904Y41771428D01*
X-12214285Y41676190D01*
X-12214285Y41438095D01*
X-12261904Y41342857D01*
X-12309523Y41295238D01*
X-12404761Y41247619D01*
X-12642857Y41247619D01*
X-12738095Y41295238D01*
X-12785714Y41342857D01*
D10*
X-500000Y-18750000D02*
X-500000Y-25350000D01*
X-500000Y-25350000D02*
X-2200000Y-25350000D01*
X-6900000Y-25350000D02*
X-6900000Y-18750000D01*
X-6900000Y-18750000D02*
X-5200000Y-18750000D01*
X-5200000Y-25350000D02*
X-6900000Y-25350000D01*
X-2200000Y-18750000D02*
X-500000Y-18750000D01*
X-21885000Y-16763748D02*
X-21885000Y-17286252D01*
X-20415000Y-16763748D02*
X-20415000Y-17286252D01*
X-30177500Y-17286252D02*
X-30177500Y-16763748D01*
X-31647500Y-17286252D02*
X-31647500Y-16763748D01*
X-29347500Y-16763748D02*
X-29347500Y-17286252D01*
X-27877500Y-16763748D02*
X-27877500Y-17286252D01*
X-22765000Y-17286252D02*
X-22765000Y-16763748D01*
X-24235000Y-17286252D02*
X-24235000Y-16763748D01*
X-32392500Y-15525000D02*
X-32392500Y-17525000D01*
X-34632500Y-17525000D02*
X-34632500Y-16525000D01*
X-24930000Y-15525000D02*
X-24930000Y-17525000D01*
X-27170000Y-17525000D02*
X-27170000Y-16525000D01*
X-31839564Y-19240000D02*
X-31385436Y-19240000D01*
X-31839564Y-20710000D02*
X-31385436Y-20710000D01*
X-24427064Y-19340000D02*
X-23972936Y-19340000D01*
X-24427064Y-20810000D02*
X-23972936Y-20810000D01*
X-19050000Y-8830000D02*
X-31810000Y-8830000D01*
X-17780000Y-8830000D02*
X-16450000Y-8830000D01*
X-16450000Y-8830000D02*
X-16450000Y-10160000D01*
X-19050000Y-8830000D02*
X-19050000Y-11490000D01*
X-31810000Y-8830000D02*
X-31810000Y-11490000D01*
X-19050000Y-11490000D02*
X-31810000Y-11490000D01*
X-19050000Y-11370000D02*
X-31810000Y-11370000D01*
X-17780000Y-11370000D02*
X-16450000Y-11370000D01*
X-16450000Y-11370000D02*
X-16450000Y-12700000D01*
X-19050000Y-11370000D02*
X-19050000Y-14030000D01*
X-31810000Y-11370000D02*
X-31810000Y-14030000D01*
X-19050000Y-14030000D02*
X-31810000Y-14030000D01*
X-22640000Y-26997500D02*
X-22640000Y-27472500D01*
X-27860000Y-32217500D02*
X-27860000Y-31742500D01*
X-22640000Y-32217500D02*
X-22640000Y-31742500D01*
X-23115000Y-32217500D02*
X-22640000Y-32217500D01*
X-23115000Y-26997500D02*
X-22640000Y-26997500D01*
X-27385000Y-32217500D02*
X-27860000Y-32217500D01*
X-27385000Y-26997500D02*
X-27860000Y-26997500D01*
X-10700000Y-24050000D02*
X-10700000Y-27950000D01*
X-10700000Y-24050000D02*
X-12700000Y-24050000D01*
X-12700000Y-24050000D02*
X-12700000Y-27950000D01*
X-100000Y-13750000D02*
X-3550000Y-13750000D01*
X-3550000Y-13750000D02*
X-3550000Y-1750000D01*
X-3550000Y-1750000D02*
X-100000Y-1750000D01*
X-100000Y-1750000D02*
X-100000Y-13750000D01*
X-6735000Y44227064D02*
X-6735000Y43772936D01*
X-5265000Y44227064D02*
X-5265000Y43772936D01*
X-2377064Y-17685000D02*
X-1922936Y-17685000D01*
X-2377064Y-16215000D02*
X-1922936Y-16215000D01*
X-9538748Y-30735000D02*
X-10061252Y-30735000D01*
X-9538748Y-29265000D02*
X-10061252Y-29265000D01*
X-11015000Y-35441252D02*
X-11015000Y-34918748D01*
X-12485000Y-35441252D02*
X-12485000Y-34918748D01*
X-28910000Y-33717500D02*
X-29360000Y-33717500D01*
X-22140000Y-26497500D02*
X-22140000Y-26947500D01*
X-22590000Y-33717500D02*
X-22140000Y-33717500D01*
X-28910000Y-26497500D02*
X-29360000Y-26497500D01*
X-22590000Y-26497500D02*
X-22140000Y-26497500D01*
X-29360000Y-26497500D02*
X-29360000Y-26947500D01*
X-29360000Y-26947500D02*
X-30650000Y-26947500D01*
X-22140000Y-33717500D02*
X-22140000Y-33267500D01*
X-29360000Y-33717500D02*
X-29360000Y-33267500D01*
X-15765000Y44227064D02*
X-15765000Y43772936D01*
X-17235000Y44227064D02*
X-17235000Y43772936D01*
X-13000000Y47960000D02*
X-15685000Y47960000D01*
X-15685000Y46040000D02*
X-13000000Y46040000D01*
X-15685000Y47960000D02*
X-15685000Y46040000D01*
X-19265000Y44227064D02*
X-19265000Y43772936D01*
X-20735000Y44227064D02*
X-20735000Y43772936D01*
X-6610000Y-39510000D02*
X-6610000Y-38250000D01*
X-6610000Y-32690000D02*
X-6610000Y-33950000D01*
X-600000Y-39510000D02*
X-6610000Y-39510000D01*
X-2850000Y-32690000D02*
X-6610000Y-32690000D01*
X-33600000Y-27700000D02*
X-38100000Y-27700000D01*
X-38100000Y-27700000D02*
X-38100000Y-33100000D01*
X-36111252Y-23415000D02*
X-35588748Y-23415000D01*
X-36111252Y-24885000D02*
X-35588748Y-24885000D01*
X-4915000Y-16377064D02*
X-4915000Y-15922936D01*
X-6385000Y-16377064D02*
X-6385000Y-15922936D01*
X-8765000Y44139564D02*
X-8765000Y43685436D01*
X-10235000Y44139564D02*
X-10235000Y43685436D01*
X-7190000Y-11054437D02*
X-8254437Y-9990000D01*
X-7190000Y-14445563D02*
X-7190000Y-13810000D01*
X-7190000Y-11054437D02*
X-7190000Y-11690000D01*
X-8254437Y-9990000D02*
X-12710000Y-9990000D01*
X-7190000Y-14445563D02*
X-8254437Y-15510000D01*
X-12710000Y-9990000D02*
X-12710000Y-11690000D01*
X-12710000Y-15510000D02*
X-12710000Y-13810000D01*
X-8254437Y-15510000D02*
X-12710000Y-15510000D01*
X-2354437Y-31910000D02*
X-6810000Y-31910000D01*
X-6810000Y-31910000D02*
X-6810000Y-30210000D01*
X-1290000Y-27454437D02*
X-1290000Y-28090000D01*
X-1290000Y-30845563D02*
X-1290000Y-30210000D01*
X-2354437Y-26390000D02*
X-6810000Y-26390000D01*
X-6810000Y-26390000D02*
X-6810000Y-28090000D01*
X-1290000Y-30845563D02*
X-2354437Y-31910000D01*
X-1290000Y-27454437D02*
X-2354437Y-26390000D01*
X-34575000Y-39850000D02*
X-33650000Y-39850000D01*
X-38350000Y-39850000D02*
X-37425000Y-39850000D01*
X-38350000Y-36150000D02*
X-33650000Y-36150000D01*
X-33550000Y-37725000D02*
X-33550000Y-38275000D01*
X-38450000Y-37725000D02*
X-38450000Y-38275000D01*
X-24969581Y44934404D02*
X-25358490Y45323313D01*
X-26542894Y46366295D02*
X-27196967Y45712222D01*
X-23926599Y43750000D02*
X-27250000Y40426599D01*
X-29212222Y43696967D02*
X-29866295Y43042894D01*
X-28434404Y41469581D02*
X-28823313Y41858490D01*
X-19705000Y-35461252D02*
X-19705000Y-34938748D01*
X-18235000Y-35461252D02*
X-18235000Y-34938748D01*
X-8365000Y-27211252D02*
X-8365000Y-26688748D01*
X-9835000Y-27211252D02*
X-9835000Y-26688748D01*
X-13735000Y-31401252D02*
X-13735000Y-30878748D01*
X-12265000Y-31401252D02*
X-12265000Y-30878748D01*
X-31938748Y-24885000D02*
X-32461252Y-24885000D01*
X-31938748Y-23415000D02*
X-32461252Y-23415000D01*
X-19185000Y47960000D02*
X-19185000Y46040000D01*
X-16500000Y47960000D02*
X-19185000Y47960000D01*
X-19185000Y46040000D02*
X-16500000Y46040000D01*
X-10150000Y-9010000D02*
X-8200000Y-9010000D01*
X-10150000Y-9010000D02*
X-12100000Y-9010000D01*
X-10150000Y-3890000D02*
X-8200000Y-3890000D01*
X-10150000Y-3890000D02*
X-13600000Y-3890000D01*
X-32935000Y-33372936D02*
X-32935000Y-33827064D01*
X-31465000Y-33372936D02*
X-31465000Y-33827064D01*
X-38750000Y-9740000D02*
X-36175000Y-9740000D01*
X-36175000Y-12050000D02*
X-36175000Y-12960000D01*
X-38325000Y-12960000D02*
X-36175000Y-12960000D01*
X-36175000Y-9740000D02*
X-36175000Y-10650000D01*
X-31465000Y-27008748D02*
X-31465000Y-27531252D01*
X-32935000Y-27008748D02*
X-32935000Y-27531252D01*
X-34037957Y35823134D02*
X-34426866Y36212043D01*
X-34815775Y38050520D02*
X-35469848Y37396447D01*
X-30573134Y39287957D02*
X-30962043Y39676866D01*
X-29530152Y38103553D02*
X-32853553Y34780152D01*
X-32146447Y40719848D02*
X-32800520Y40065775D01*
X-22685000Y46040000D02*
X-20000000Y46040000D01*
X-22685000Y47960000D02*
X-22685000Y46040000D01*
X-20000000Y47960000D02*
X-22685000Y47960000D01*
X-36111252Y-25665000D02*
X-35588748Y-25665000D01*
X-36111252Y-27135000D02*
X-35588748Y-27135000D01*
X-31735000Y-37738748D02*
X-31735000Y-38261252D01*
X-30265000Y-37738748D02*
X-30265000Y-38261252D01*
X-8685000Y47960000D02*
X-8685000Y46040000D01*
X-8685000Y46040000D02*
X-6000000Y46040000D01*
X-6000000Y47960000D02*
X-8685000Y47960000D01*
X-15835000Y-35461252D02*
X-15835000Y-34938748D01*
X-17305000Y-35461252D02*
X-17305000Y-34938748D01*
X-35588748Y-33665000D02*
X-36111252Y-33665000D01*
X-35588748Y-35135000D02*
X-36111252Y-35135000D01*
X-13415000Y-35461252D02*
X-13415000Y-34938748D01*
X-14885000Y-35461252D02*
X-14885000Y-34938748D01*
X-12185000Y47960000D02*
X-12185000Y46040000D01*
X-12185000Y46040000D02*
X-9500000Y46040000D01*
X-9500000Y47960000D02*
X-12185000Y47960000D01*
X-12660000Y-19950000D02*
X-12660000Y-18000000D01*
X-12660000Y-19950000D02*
X-12660000Y-23400000D01*
X-7540000Y-19950000D02*
X-7540000Y-18000000D01*
X-7540000Y-19950000D02*
X-7540000Y-21900000D01*
X-15735000Y-19815000D02*
X-19265000Y-19815000D01*
X-14410000Y-26220000D02*
X-15735000Y-26220000D01*
X-15735000Y-26285000D02*
X-19265000Y-26285000D01*
X-15735000Y-26285000D02*
X-15735000Y-26220000D01*
X-19265000Y-19880000D02*
X-19265000Y-19815000D01*
X-19265000Y-26285000D02*
X-19265000Y-26220000D01*
X-15735000Y-19880000D02*
X-15735000Y-19815000D01*
X-13735000Y44227064D02*
X-13735000Y43772936D01*
X-12265000Y44227064D02*
X-12265000Y43772936D01*
M02*
