G04 #@! TF.GenerationSoftware,KiCad,Pcbnew,(6.0.1-0)*
G04 #@! TF.CreationDate,2022-04-24T19:17:23-04:00*
G04 #@! TF.ProjectId,mobo,6d6f626f-2e6b-4696-9361-645f70636258,rev?*
G04 #@! TF.SameCoordinates,Original*
G04 #@! TF.FileFunction,Paste,Top*
G04 #@! TF.FilePolarity,Positive*
%FSLAX46Y46*%
G04 Gerber Fmt 4.6, Leading zero omitted, Abs format (unit mm)*
G04 Created by KiCad (PCBNEW (6.0.1-0)) date 2022-04-24 19:17:23*
%MOMM*%
%LPD*%
G01*
G04 APERTURE LIST*
G04 Aperture macros list*
%AMRoundRect*
0 Rectangle with rounded corners*
0 $1 Rounding radius*
0 $2 $3 $4 $5 $6 $7 $8 $9 X,Y pos of 4 corners*
0 Add a 4 corners polygon primitive as box body*
4,1,4,$2,$3,$4,$5,$6,$7,$8,$9,$2,$3,0*
0 Add four circle primitives for the rounded corners*
1,1,$1+$1,$2,$3*
1,1,$1+$1,$4,$5*
1,1,$1+$1,$6,$7*
1,1,$1+$1,$8,$9*
0 Add four rect primitives between the rounded corners*
20,1,$1+$1,$2,$3,$4,$5,0*
20,1,$1+$1,$4,$5,$6,$7,0*
20,1,$1+$1,$6,$7,$8,$9,0*
20,1,$1+$1,$8,$9,$2,$3,0*%
%AMRotRect*
0 Rectangle, with rotation*
0 The origin of the aperture is its center*
0 $1 length*
0 $2 width*
0 $3 Rotation angle, in degrees counterclockwise*
0 Add horizontal line*
21,1,$1,$2,0,0,$3*%
G04 Aperture macros list end*
%ADD10R,2.400000X1.500000*%
%ADD11RoundRect,0.250000X-0.475000X0.250000X-0.475000X-0.250000X0.475000X-0.250000X0.475000X0.250000X0*%
%ADD12RoundRect,0.250000X0.475000X-0.250000X0.475000X0.250000X-0.475000X0.250000X-0.475000X-0.250000X0*%
%ADD13R,0.650000X0.750000*%
%ADD14R,0.250000X0.500000*%
%ADD15RoundRect,0.250000X-0.262500X-0.450000X0.262500X-0.450000X0.262500X0.450000X-0.262500X0.450000X0*%
%ADD16RoundRect,0.232500X-0.232500X-0.232500X0.232500X-0.232500X0.232500X0.232500X-0.232500X0.232500X0*%
%ADD17RoundRect,0.062500X-0.375000X-0.062500X0.375000X-0.062500X0.375000X0.062500X-0.375000X0.062500X0*%
%ADD18RoundRect,0.062500X-0.062500X-0.375000X0.062500X-0.375000X0.062500X0.375000X-0.062500X0.375000X0*%
%ADD19R,1.200000X0.900000*%
%ADD20RoundRect,0.250000X0.250000X-0.400000X0.250000X0.400000X-0.250000X0.400000X-0.250000X-0.400000X0*%
%ADD21RoundRect,0.150000X0.925000X-0.600000X0.925000X0.600000X-0.925000X0.600000X-0.925000X-0.600000X0*%
%ADD22RoundRect,0.250000X-0.450000X0.262500X-0.450000X-0.262500X0.450000X-0.262500X0.450000X0.262500X0*%
%ADD23RoundRect,0.250000X0.250000X0.475000X-0.250000X0.475000X-0.250000X-0.475000X0.250000X-0.475000X0*%
%ADD24RoundRect,0.075000X-0.662500X-0.075000X0.662500X-0.075000X0.662500X0.075000X-0.662500X0.075000X0*%
%ADD25RoundRect,0.075000X-0.075000X-0.662500X0.075000X-0.662500X0.075000X0.662500X-0.075000X0.662500X0*%
%ADD26RoundRect,0.075000X-0.575000X-0.075000X0.575000X-0.075000X0.575000X0.075000X-0.575000X0.075000X0*%
%ADD27RoundRect,0.075000X-0.075000X-0.575000X0.075000X-0.575000X0.075000X0.575000X-0.075000X0.575000X0*%
%ADD28RoundRect,0.243750X-0.243750X-0.456250X0.243750X-0.456250X0.243750X0.456250X-0.243750X0.456250X0*%
%ADD29R,2.000000X1.500000*%
%ADD30R,2.000000X3.800000*%
%ADD31R,1.800000X2.100000*%
%ADD32RoundRect,0.250000X-0.250000X-0.475000X0.250000X-0.475000X0.250000X0.475000X-0.250000X0.475000X0*%
%ADD33RoundRect,0.250000X0.450000X-0.262500X0.450000X0.262500X-0.450000X0.262500X-0.450000X-0.262500X0*%
%ADD34RoundRect,0.250000X1.137500X0.550000X-1.137500X0.550000X-1.137500X-0.550000X1.137500X-0.550000X0*%
%ADD35R,1.550000X1.000000*%
%ADD36RotRect,1.550000X1.000000X225.000000*%
%ADD37RoundRect,0.150000X-0.825000X-0.150000X0.825000X-0.150000X0.825000X0.150000X-0.825000X0.150000X0*%
%ADD38R,1.000000X0.700000*%
%ADD39RoundRect,0.150000X0.150000X-0.825000X0.150000X0.825000X-0.150000X0.825000X-0.150000X-0.825000X0*%
%ADD40R,2.400000X0.740000*%
G04 APERTURE END LIST*
D10*
X-3700000Y-19300000D03*
X-3700000Y-24800000D03*
D11*
X-21150000Y-16075000D03*
X-21150000Y-17975000D03*
D12*
X-30912500Y-17975000D03*
X-30912500Y-16075000D03*
D11*
X-28612500Y-16075000D03*
X-28612500Y-17975000D03*
D12*
X-23500000Y-17975000D03*
X-23500000Y-16075000D03*
D13*
X-33912500Y-17025000D03*
X-33112500Y-17025000D03*
D14*
X-32762500Y-16075000D03*
X-33262500Y-16075000D03*
X-33762500Y-16075000D03*
X-34262500Y-16075000D03*
X-34262500Y-17975000D03*
X-33762500Y-17975000D03*
X-33262500Y-17975000D03*
X-32762500Y-17975000D03*
D13*
X-26450000Y-17025000D03*
X-25650000Y-17025000D03*
D14*
X-25300000Y-16075000D03*
X-25800000Y-16075000D03*
X-26300000Y-16075000D03*
X-26800000Y-16075000D03*
X-26800000Y-17975000D03*
X-26300000Y-17975000D03*
X-25800000Y-17975000D03*
X-25300000Y-17975000D03*
D15*
X-32525000Y-19975000D03*
X-30700000Y-19975000D03*
X-25112500Y-20075000D03*
X-23287500Y-20075000D03*
D16*
X-25250000Y-29607500D03*
D17*
X-27687500Y-27857500D03*
X-27687500Y-28357500D03*
X-27687500Y-28857500D03*
X-27687500Y-29357500D03*
X-27687500Y-29857500D03*
X-27687500Y-30357500D03*
X-27687500Y-30857500D03*
X-27687500Y-31357500D03*
D18*
X-27000000Y-32045000D03*
X-26500000Y-32045000D03*
X-26000000Y-32045000D03*
X-25500000Y-32045000D03*
X-25000000Y-32045000D03*
X-24500000Y-32045000D03*
X-24000000Y-32045000D03*
X-23500000Y-32045000D03*
D17*
X-22812500Y-31357500D03*
X-22812500Y-30857500D03*
X-22812500Y-30357500D03*
X-22812500Y-29857500D03*
X-22812500Y-29357500D03*
X-22812500Y-28857500D03*
X-22812500Y-28357500D03*
X-22812500Y-27857500D03*
D18*
X-23500000Y-27170000D03*
X-24000000Y-27170000D03*
X-24500000Y-27170000D03*
X-25000000Y-27170000D03*
X-25500000Y-27170000D03*
X-26000000Y-27170000D03*
X-26500000Y-27170000D03*
X-27000000Y-27170000D03*
D19*
X-11700000Y-24650000D03*
X-11700000Y-27950000D03*
D20*
X-4250000Y-12750000D03*
X-4250000Y-10250000D03*
X-4250000Y-7750000D03*
X-4250000Y-5250000D03*
X-4250000Y-2750000D03*
D21*
X-2100000Y-14650000D03*
X-2100000Y-850000D03*
D22*
X-6000000Y43087500D03*
X-6000000Y44912500D03*
D15*
X-3062500Y-16950000D03*
X-1237500Y-16950000D03*
D23*
X-8850000Y-30000000D03*
X-10750000Y-30000000D03*
D12*
X-11750000Y-36130000D03*
X-11750000Y-34230000D03*
D24*
X-29912500Y-27357500D03*
X-29912500Y-27857500D03*
X-29912500Y-28357500D03*
X-29912500Y-28857500D03*
X-29912500Y-29357500D03*
X-29912500Y-29857500D03*
X-29912500Y-30357500D03*
X-29912500Y-30857500D03*
X-29912500Y-31357500D03*
X-29912500Y-31857500D03*
X-29912500Y-32357500D03*
X-29912500Y-32857500D03*
D25*
X-28500000Y-34270000D03*
X-28000000Y-34270000D03*
X-27500000Y-34270000D03*
X-27000000Y-34270000D03*
X-26500000Y-34270000D03*
X-26000000Y-34270000D03*
X-25500000Y-34270000D03*
X-25000000Y-34270000D03*
X-24500000Y-34270000D03*
X-24000000Y-34270000D03*
X-23500000Y-34270000D03*
X-23000000Y-34270000D03*
D24*
X-21587500Y-32857500D03*
X-21587500Y-32357500D03*
X-21587500Y-31857500D03*
D26*
X-21500000Y-31357500D03*
X-21500000Y-30857500D03*
X-21500000Y-30357500D03*
X-21500000Y-29857500D03*
X-21500000Y-29357500D03*
X-21500000Y-28857500D03*
X-21500000Y-28357500D03*
X-21500000Y-27857500D03*
D24*
X-21587500Y-27357500D03*
D25*
X-23000000Y-25945000D03*
D27*
X-23500000Y-25855000D03*
X-24000000Y-25855000D03*
X-24500000Y-25855000D03*
X-25000000Y-25855000D03*
X-25500000Y-25855000D03*
X-26000000Y-25855000D03*
X-26500000Y-25855000D03*
X-27000000Y-25855000D03*
D25*
X-27500000Y-25945000D03*
X-28000000Y-25945000D03*
X-28500000Y-25945000D03*
D22*
X-16500000Y43087500D03*
X-16500000Y44912500D03*
D28*
X-13062500Y47000000D03*
X-14937500Y47000000D03*
D22*
X-20000000Y44912500D03*
X-20000000Y43087500D03*
D29*
X-1550000Y-38400000D03*
D30*
X-7850000Y-36100000D03*
D29*
X-1550000Y-36100000D03*
X-1550000Y-33800000D03*
D31*
X-37000000Y-28950000D03*
X-37000000Y-31850000D03*
X-34700000Y-31850000D03*
X-34700000Y-28950000D03*
D32*
X-36800000Y-24150000D03*
X-34900000Y-24150000D03*
D33*
X-5650000Y-17062500D03*
X-5650000Y-15237500D03*
D22*
X-9500000Y43000000D03*
X-9500000Y44825000D03*
D34*
X-7887500Y-12750000D03*
X-12012500Y-12750000D03*
X-1987500Y-29150000D03*
X-6112500Y-29150000D03*
D35*
X-38625000Y-38850000D03*
X-33375000Y-38850000D03*
X-38625000Y-37150000D03*
X-33375000Y-37150000D03*
D36*
X-25641332Y45853643D03*
X-29353643Y42141332D03*
X-28151562Y40939251D03*
X-24439251Y44651562D03*
D12*
X-18970000Y-34250000D03*
X-18970000Y-36150000D03*
X-9100000Y-27900000D03*
X-9100000Y-26000000D03*
X-13000000Y-30190000D03*
X-13000000Y-32090000D03*
D23*
X-31250000Y-24150000D03*
X-33150000Y-24150000D03*
D28*
X-16562500Y47000000D03*
X-18437500Y47000000D03*
D37*
X-12625000Y-4545000D03*
X-12625000Y-5815000D03*
X-12625000Y-7085000D03*
X-12625000Y-8355000D03*
X-7675000Y-8355000D03*
X-7675000Y-7085000D03*
X-7675000Y-5815000D03*
X-7675000Y-4545000D03*
D22*
X-32200000Y-32687500D03*
X-32200000Y-34512500D03*
D38*
X-38450000Y-10400000D03*
X-38450000Y-12300000D03*
X-36050000Y-11350000D03*
D11*
X-32200000Y-26320000D03*
X-32200000Y-28220000D03*
D36*
X-34957196Y36494885D03*
X-31244885Y40207196D03*
X-33755115Y35292804D03*
X-30042804Y39005115D03*
D28*
X-20062500Y47000000D03*
X-21937500Y47000000D03*
D32*
X-36800000Y-26400000D03*
X-34900000Y-26400000D03*
D11*
X-31000000Y-37050000D03*
X-31000000Y-38950000D03*
D28*
X-6062500Y47000000D03*
X-7937500Y47000000D03*
D12*
X-16570000Y-34250000D03*
X-16570000Y-36150000D03*
D23*
X-34900000Y-34400000D03*
X-36800000Y-34400000D03*
D12*
X-14150000Y-36150000D03*
X-14150000Y-34250000D03*
D28*
X-9562500Y47000000D03*
X-11437500Y47000000D03*
D39*
X-12005000Y-22425000D03*
X-10735000Y-22425000D03*
X-9465000Y-22425000D03*
X-8195000Y-22425000D03*
X-8195000Y-17475000D03*
X-9465000Y-17475000D03*
X-10735000Y-17475000D03*
X-12005000Y-17475000D03*
D40*
X-15550000Y-25590000D03*
X-19450000Y-25590000D03*
X-15550000Y-24320000D03*
X-19450000Y-24320000D03*
X-15550000Y-23050000D03*
X-19450000Y-23050000D03*
X-15550000Y-21780000D03*
X-19450000Y-21780000D03*
X-15550000Y-20510000D03*
X-19450000Y-20510000D03*
D22*
X-13000000Y43087500D03*
X-13000000Y44912500D03*
M02*
