<?xml version="1.0" encoding="UTF-8" standalone="no"?>
<!DOCTYPE svg PUBLIC "-//W3C//DTD SVG 1.1//EN"
 "http://www.w3.org/Graphics/SVG/1.1/DTD/svg11.dtd">
<!-- Generated by graphviz version 6.0.1 (20220911.1526)
 -->
<!-- Pages: 1 -->
<svg width="2740pt" height="484pt"
 viewBox="0.00 0.00 2740.00 483.50" xmlns="http://www.w3.org/2000/svg" xmlns:xlink="http://www.w3.org/1999/xlink">
<g id="graph0" class="graph" transform="scale(1 1) rotate(0) translate(4 479.5)">
<polygon fill="#ffffff" stroke="none" points="-4,4 -4,-479.5 2736,-479.5 2736,4 -4,4"/>
<!-- X0 -->
<g id="node1" class="node">
<title>X0</title>
<polygon fill="#ffffff" stroke="black" points="233,-440 0,-440 0,0 233,0 233,-440"/>
<polygon fill="none" stroke="black" points="0.5,-417 0.5,-440 233.5,-440 233.5,-417 0.5,-417"/>
<text text-anchor="start" x="108.5" y="-424.8" font-family="arial" font-size="14.00">X0</text>
<polygon fill="none" stroke="black" points="0.5,-394 0.5,-417 70.5,-417 70.5,-394 0.5,-394"/>
<text text-anchor="start" x="23.5" y="-401.8" font-family="arial" font-size="14.00">IDC</text>
<polygon fill="none" stroke="black" points="70.5,-394 70.5,-417 157.5,-417 157.5,-394 70.5,-394"/>
<text text-anchor="start" x="93" y="-401.8" font-family="arial" font-size="14.00">female</text>
<polygon fill="none" stroke="black" points="157.5,-394 157.5,-417 233.5,-417 233.5,-394 157.5,-394"/>
<text text-anchor="start" x="180" y="-401.8" font-family="arial" font-size="14.00">6&#45;pin</text>
<polygon fill="none" stroke="black" points="0.5,-371 0.5,-394 128.5,-394 128.5,-371 0.5,-371"/>
<text text-anchor="start" x="49" y="-378.8" font-family="arial" font-size="14.00">GND</text>
<polygon fill="none" stroke="black" points="128.5,-371 128.5,-394 233.5,-394 233.5,-371 128.5,-371"/>
<text text-anchor="start" x="177" y="-378.8" font-family="arial" font-size="14.00">1</text>
<polygon fill="none" stroke="black" points="0.5,-348 0.5,-371 128.5,-371 128.5,-348 0.5,-348"/>
<text text-anchor="start" x="49" y="-355.8" font-family="arial" font-size="14.00">GND</text>
<polygon fill="none" stroke="black" points="128.5,-348 128.5,-371 233.5,-371 233.5,-348 128.5,-348"/>
<text text-anchor="start" x="177" y="-355.8" font-family="arial" font-size="14.00">2</text>
<polygon fill="none" stroke="black" points="0.5,-325 0.5,-348 128.5,-348 128.5,-325 0.5,-325"/>
<text text-anchor="start" x="50" y="-332.8" font-family="arial" font-size="14.00">VDC</text>
<polygon fill="none" stroke="black" points="128.5,-325 128.5,-348 233.5,-348 233.5,-325 128.5,-325"/>
<text text-anchor="start" x="177" y="-332.8" font-family="arial" font-size="14.00">3</text>
<polygon fill="none" stroke="black" points="0.5,-302 0.5,-325 128.5,-325 128.5,-302 0.5,-302"/>
<text text-anchor="start" x="50" y="-309.8" font-family="arial" font-size="14.00">VDC</text>
<polygon fill="none" stroke="black" points="128.5,-302 128.5,-325 233.5,-325 233.5,-302 128.5,-302"/>
<text text-anchor="start" x="177" y="-309.8" font-family="arial" font-size="14.00">4</text>
<polygon fill="none" stroke="black" points="0.5,-279 0.5,-302 128.5,-302 128.5,-279 0.5,-279"/>
<text text-anchor="start" x="59.5" y="-286.8" font-family="arial" font-size="14.00">A</text>
<polygon fill="none" stroke="black" points="128.5,-279 128.5,-302 233.5,-302 233.5,-279 128.5,-279"/>
<text text-anchor="start" x="177" y="-286.8" font-family="arial" font-size="14.00">5</text>
<polygon fill="none" stroke="black" points="0.5,-256 0.5,-279 128.5,-279 128.5,-256 0.5,-256"/>
<text text-anchor="start" x="59.5" y="-263.8" font-family="arial" font-size="14.00">B</text>
<polygon fill="none" stroke="black" points="128.5,-256 128.5,-279 233.5,-279 233.5,-256 128.5,-256"/>
<text text-anchor="start" x="177" y="-263.8" font-family="arial" font-size="14.00">6</text>
<polyline fill="none" stroke="black" points="233.5,-23 233.5,-256 0.5,-256 0.5,-23"/>
<image xlink:href="../resources/idc.jpeg" width="225px" height="225px" preserveAspectRatio="xMinYMin meet" x="4.5" y="-252"/>
<polyline fill="none" stroke="black" points="0.5,-23 0.5,0 233.5,0 233.5,-23"/>
<text text-anchor="start" x="59.5" y="-7.8" font-family="arial" font-size="14.00">2x3 IDC Connector</text>
</g>
<!-- W1 -->
<g id="node5" class="node">
<title>W1</title>
<polygon fill="#ffffff" stroke="black" stroke-dasharray="5,2" points="689,-475.5 377,-475.5 377,-218.5 689,-218.5 689,-475.5"/>
<polygon fill="none" stroke="black" points="377,-452 377,-475 689,-475 689,-452 377,-452"/>
<text text-anchor="start" x="522" y="-459.8" font-family="arial" font-size="14.00">W1</text>
<polygon fill="none" stroke="black" points="377,-429 377,-452 555,-452 555,-429 377,-429"/>
<text text-anchor="start" x="381" y="-436.8" font-family="arial" font-size="14.00">1.27mm Pitch Ribbon Cable</text>
<polygon fill="none" stroke="black" points="555,-429 555,-452 578,-452 578,-429 555,-429"/>
<text text-anchor="start" x="559" y="-436.8" font-family="arial" font-size="14.00">6x</text>
<polygon fill="none" stroke="black" points="578,-429 578,-452 638,-452 638,-429 578,-429"/>
<text text-anchor="start" x="582" y="-436.8" font-family="arial" font-size="14.00">26 AWG</text>
<polygon fill="none" stroke="black" points="638,-429 638,-452 689,-452 689,-429 638,-429"/>
<text text-anchor="start" x="642" y="-436.8" font-family="arial" font-size="14.00">0.26 m</text>
<text text-anchor="start" x="428.5" y="-415.8" font-family="arial" font-size="14.00"> </text>
<text text-anchor="start" x="399" y="-396.8" font-family="arial" font-size="14.00">X0:1:GND</text>
<text text-anchor="start" x="506.5" y="-396.8" font-family="arial" font-size="14.00"> &#160;&#160;&#160;&#160;RD &#160;&#160;&#160;</text>
<text text-anchor="start" x="604.5" y="-396.8" font-family="arial" font-size="14.00">X1:1:GND</text>
<polygon fill="#000000" stroke="none" points="377,-389 377,-391 689,-391 689,-389 377,-389"/>
<polygon fill="#ff0000" stroke="none" points="377,-387 377,-389 689,-389 689,-387 377,-387"/>
<polygon fill="#000000" stroke="none" points="377,-385 377,-387 689,-387 689,-385 377,-385"/>
<text text-anchor="start" x="399" y="-371.8" font-family="arial" font-size="14.00">X0:2:GND</text>
<text text-anchor="start" x="506" y="-371.8" font-family="arial" font-size="14.00"> &#160;&#160;&#160;&#160;GY &#160;&#160;&#160;</text>
<text text-anchor="start" x="604.5" y="-371.8" font-family="arial" font-size="14.00">X1:2:GND</text>
<polygon fill="#000000" stroke="none" points="377,-364 377,-366 689,-366 689,-364 377,-364"/>
<polygon fill="#999999" stroke="none" points="377,-362 377,-364 689,-364 689,-362 377,-362"/>
<polygon fill="#000000" stroke="none" points="377,-360 377,-362 689,-362 689,-360 377,-360"/>
<text text-anchor="start" x="400" y="-346.8" font-family="arial" font-size="14.00">X0:3:VDC</text>
<text text-anchor="start" x="506" y="-346.8" font-family="arial" font-size="14.00"> &#160;&#160;&#160;&#160;GY &#160;&#160;&#160;</text>
<text text-anchor="start" x="605.5" y="-346.8" font-family="arial" font-size="14.00">X1:3:VDC</text>
<polygon fill="#000000" stroke="none" points="377,-339 377,-341 689,-341 689,-339 377,-339"/>
<polygon fill="#999999" stroke="none" points="377,-337 377,-339 689,-339 689,-337 377,-337"/>
<polygon fill="#000000" stroke="none" points="377,-335 377,-337 689,-337 689,-335 377,-335"/>
<text text-anchor="start" x="400" y="-321.8" font-family="arial" font-size="14.00">X0:4:VDC</text>
<text text-anchor="start" x="506" y="-321.8" font-family="arial" font-size="14.00"> &#160;&#160;&#160;&#160;GY &#160;&#160;&#160;</text>
<text text-anchor="start" x="605.5" y="-321.8" font-family="arial" font-size="14.00">X1:4:VDC</text>
<polygon fill="#000000" stroke="none" points="377,-314 377,-316 689,-316 689,-314 377,-314"/>
<polygon fill="#999999" stroke="none" points="377,-312 377,-314 689,-314 689,-312 377,-312"/>
<polygon fill="#000000" stroke="none" points="377,-310 377,-312 689,-312 689,-310 377,-310"/>
<text text-anchor="start" x="410" y="-296.8" font-family="arial" font-size="14.00">X0:5:A</text>
<text text-anchor="start" x="506" y="-296.8" font-family="arial" font-size="14.00"> &#160;&#160;&#160;&#160;GY &#160;&#160;&#160;</text>
<text text-anchor="start" x="615.5" y="-296.8" font-family="arial" font-size="14.00">X1:5:A</text>
<polygon fill="#000000" stroke="none" points="377,-289 377,-291 689,-291 689,-289 377,-289"/>
<polygon fill="#999999" stroke="none" points="377,-287 377,-289 689,-289 689,-287 377,-287"/>
<polygon fill="#000000" stroke="none" points="377,-285 377,-287 689,-287 689,-285 377,-285"/>
<text text-anchor="start" x="410" y="-271.8" font-family="arial" font-size="14.00">X0:6:B</text>
<text text-anchor="start" x="506" y="-271.8" font-family="arial" font-size="14.00"> &#160;&#160;&#160;&#160;GY &#160;&#160;&#160;</text>
<text text-anchor="start" x="615.5" y="-271.8" font-family="arial" font-size="14.00">X1:6:B</text>
<polygon fill="#000000" stroke="none" points="377,-264 377,-266 689,-266 689,-264 377,-264"/>
<polygon fill="#999999" stroke="none" points="377,-262 377,-264 689,-264 689,-262 377,-262"/>
<polygon fill="#000000" stroke="none" points="377,-260 377,-262 689,-262 689,-260 377,-260"/>
<text text-anchor="start" x="428.5" y="-246.8" font-family="arial" font-size="14.00"> </text>
<polygon fill="none" stroke="black" points="377,-218 377,-241 689,-241 689,-218 377,-218"/>
<text text-anchor="start" x="433.5" y="-225.8" font-family="arial" font-size="14.00">This cable is longer than the rest.</text>
</g>
<!-- X0&#45;&#45;W1 -->
<g id="edge1" class="edge">
<title>X0:e&#45;&#45;W1:w</title>
<path fill="none" stroke="#000000" stroke-width="2" d="M233,-381C297.64,-381.09 313.56,-386.09 377,-386"/>
<path fill="none" stroke="#ff0000" stroke-width="2" d="M233,-383C297.04,-383 312.96,-388 377,-388"/>
<path fill="none" stroke="#000000" stroke-width="2" d="M233,-385C296.44,-384.91 312.36,-389.91 377,-390"/>
</g>
<!-- X0&#45;&#45;W1 -->
<g id="edge3" class="edge">
<title>X0:e&#45;&#45;W1:w</title>
<path fill="none" stroke="#000000" stroke-width="2" d="M233,-358C297.38,-358.03 313.36,-361.03 377,-361"/>
<path fill="none" stroke="#999999" stroke-width="2" d="M233,-360C297.01,-360 312.99,-363 377,-363"/>
<path fill="none" stroke="#000000" stroke-width="2" d="M233,-362C296.64,-361.97 312.62,-364.97 377,-365"/>
</g>
<!-- X0&#45;&#45;W1 -->
<g id="edge5" class="edge">
<title>X0:e&#45;&#45;W1:w</title>
<path fill="none" stroke="#000000" stroke-width="2" d="M233,-335C297.13,-335 313.12,-336 377,-336"/>
<path fill="none" stroke="#999999" stroke-width="2" d="M233,-337C297,-337 313,-338 377,-338"/>
<path fill="none" stroke="#000000" stroke-width="2" d="M233,-339C296.88,-339 312.87,-340 377,-340"/>
</g>
<!-- X0&#45;&#45;W1 -->
<g id="edge7" class="edge">
<title>X0:e&#45;&#45;W1:w</title>
<path fill="none" stroke="#000000" stroke-width="2" d="M233,-312C296.88,-312 312.87,-311 377,-311"/>
<path fill="none" stroke="#999999" stroke-width="2" d="M233,-314C297,-314 313,-313 377,-313"/>
<path fill="none" stroke="#000000" stroke-width="2" d="M233,-316C297.13,-316 313.12,-315 377,-315"/>
</g>
<!-- X0&#45;&#45;W1 -->
<g id="edge9" class="edge">
<title>X0:e&#45;&#45;W1:w</title>
<path fill="none" stroke="#000000" stroke-width="2" d="M233,-289C296.64,-289.03 312.62,-286.03 377,-286"/>
<path fill="none" stroke="#999999" stroke-width="2" d="M233,-291C297.01,-291 312.99,-288 377,-288"/>
<path fill="none" stroke="#000000" stroke-width="2" d="M233,-293C297.38,-292.97 313.36,-289.97 377,-290"/>
</g>
<!-- X0&#45;&#45;W1 -->
<g id="edge11" class="edge">
<title>X0:e&#45;&#45;W1:w</title>
<path fill="none" stroke="#000000" stroke-width="2" d="M233,-266C296.44,-266.09 312.36,-261.09 377,-261"/>
<path fill="none" stroke="#999999" stroke-width="2" d="M233,-268C297.04,-268 312.96,-263 377,-263"/>
<path fill="none" stroke="#000000" stroke-width="2" d="M233,-270C297.64,-269.91 313.56,-264.91 377,-265"/>
</g>
<!-- X1 -->
<g id="node2" class="node">
<title>X1</title>
<polygon fill="#ffffff" stroke="black" points="1066,-440 833,-440 833,0 1066,0 1066,-440"/>
<polygon fill="none" stroke="black" points="833.5,-417 833.5,-440 1066.5,-440 1066.5,-417 833.5,-417"/>
<text text-anchor="start" x="941.5" y="-424.8" font-family="arial" font-size="14.00">X1</text>
<polygon fill="none" stroke="black" points="833.5,-394 833.5,-417 903.5,-417 903.5,-394 833.5,-394"/>
<text text-anchor="start" x="856.5" y="-401.8" font-family="arial" font-size="14.00">IDC</text>
<polygon fill="none" stroke="black" points="903.5,-394 903.5,-417 990.5,-417 990.5,-394 903.5,-394"/>
<text text-anchor="start" x="926" y="-401.8" font-family="arial" font-size="14.00">female</text>
<polygon fill="none" stroke="black" points="990.5,-394 990.5,-417 1066.5,-417 1066.5,-394 990.5,-394"/>
<text text-anchor="start" x="1013" y="-401.8" font-family="arial" font-size="14.00">6&#45;pin</text>
<polygon fill="none" stroke="black" points="833.5,-371 833.5,-394 903.5,-394 903.5,-371 833.5,-371"/>
<text text-anchor="start" x="864.5" y="-378.8" font-family="arial" font-size="14.00">1</text>
<polygon fill="none" stroke="black" points="903.5,-371 903.5,-394 996.5,-394 996.5,-371 903.5,-371"/>
<text text-anchor="start" x="934.5" y="-378.8" font-family="arial" font-size="14.00">GND</text>
<polygon fill="none" stroke="black" points="996.5,-371 996.5,-394 1066.5,-394 1066.5,-371 996.5,-371"/>
<text text-anchor="start" x="1027.5" y="-378.8" font-family="arial" font-size="14.00">1</text>
<polygon fill="none" stroke="black" points="833.5,-348 833.5,-371 903.5,-371 903.5,-348 833.5,-348"/>
<text text-anchor="start" x="864.5" y="-355.8" font-family="arial" font-size="14.00">2</text>
<polygon fill="none" stroke="black" points="903.5,-348 903.5,-371 996.5,-371 996.5,-348 903.5,-348"/>
<text text-anchor="start" x="934.5" y="-355.8" font-family="arial" font-size="14.00">GND</text>
<polygon fill="none" stroke="black" points="996.5,-348 996.5,-371 1066.5,-371 1066.5,-348 996.5,-348"/>
<text text-anchor="start" x="1027.5" y="-355.8" font-family="arial" font-size="14.00">2</text>
<polygon fill="none" stroke="black" points="833.5,-325 833.5,-348 903.5,-348 903.5,-325 833.5,-325"/>
<text text-anchor="start" x="864.5" y="-332.8" font-family="arial" font-size="14.00">3</text>
<polygon fill="none" stroke="black" points="903.5,-325 903.5,-348 996.5,-348 996.5,-325 903.5,-325"/>
<text text-anchor="start" x="935.5" y="-332.8" font-family="arial" font-size="14.00">VDC</text>
<polygon fill="none" stroke="black" points="996.5,-325 996.5,-348 1066.5,-348 1066.5,-325 996.5,-325"/>
<text text-anchor="start" x="1027.5" y="-332.8" font-family="arial" font-size="14.00">3</text>
<polygon fill="none" stroke="black" points="833.5,-302 833.5,-325 903.5,-325 903.5,-302 833.5,-302"/>
<text text-anchor="start" x="864.5" y="-309.8" font-family="arial" font-size="14.00">4</text>
<polygon fill="none" stroke="black" points="903.5,-302 903.5,-325 996.5,-325 996.5,-302 903.5,-302"/>
<text text-anchor="start" x="935.5" y="-309.8" font-family="arial" font-size="14.00">VDC</text>
<polygon fill="none" stroke="black" points="996.5,-302 996.5,-325 1066.5,-325 1066.5,-302 996.5,-302"/>
<text text-anchor="start" x="1027.5" y="-309.8" font-family="arial" font-size="14.00">4</text>
<polygon fill="none" stroke="black" points="833.5,-279 833.5,-302 903.5,-302 903.5,-279 833.5,-279"/>
<text text-anchor="start" x="864.5" y="-286.8" font-family="arial" font-size="14.00">5</text>
<polygon fill="none" stroke="black" points="903.5,-279 903.5,-302 996.5,-302 996.5,-279 903.5,-279"/>
<text text-anchor="start" x="945" y="-286.8" font-family="arial" font-size="14.00">A</text>
<polygon fill="none" stroke="black" points="996.5,-279 996.5,-302 1066.5,-302 1066.5,-279 996.5,-279"/>
<text text-anchor="start" x="1027.5" y="-286.8" font-family="arial" font-size="14.00">5</text>
<polygon fill="none" stroke="black" points="833.5,-256 833.5,-279 903.5,-279 903.5,-256 833.5,-256"/>
<text text-anchor="start" x="864.5" y="-263.8" font-family="arial" font-size="14.00">6</text>
<polygon fill="none" stroke="black" points="903.5,-256 903.5,-279 996.5,-279 996.5,-256 903.5,-256"/>
<text text-anchor="start" x="945" y="-263.8" font-family="arial" font-size="14.00">B</text>
<polygon fill="none" stroke="black" points="996.5,-256 996.5,-279 1066.5,-279 1066.5,-256 996.5,-256"/>
<text text-anchor="start" x="1027.5" y="-263.8" font-family="arial" font-size="14.00">6</text>
<polyline fill="none" stroke="black" points="1066.5,-23 1066.5,-256 833.5,-256 833.5,-23"/>
<image xlink:href="../resources/idc.jpeg" width="225px" height="225px" preserveAspectRatio="xMinYMin meet" x="837.5" y="-252"/>
<polyline fill="none" stroke="black" points="833.5,-23 833.5,0 1066.5,0 1066.5,-23"/>
<text text-anchor="start" x="892.5" y="-7.8" font-family="arial" font-size="14.00">2x3 IDC Connector</text>
</g>
<!-- W2 -->
<g id="node6" class="node">
<title>W2</title>
<polygon fill="#ffffff" stroke="black" stroke-dasharray="5,2" points="1522,-475 1210,-475 1210,-241 1522,-241 1522,-475"/>
<polygon fill="none" stroke="black" points="1210,-452 1210,-475 1522,-475 1522,-452 1210,-452"/>
<text text-anchor="start" x="1355" y="-459.8" font-family="arial" font-size="14.00">W2</text>
<polygon fill="none" stroke="black" points="1210,-429 1210,-452 1388,-452 1388,-429 1210,-429"/>
<text text-anchor="start" x="1214" y="-436.8" font-family="arial" font-size="14.00">1.27mm Pitch Ribbon Cable</text>
<polygon fill="none" stroke="black" points="1388,-429 1388,-452 1411,-452 1411,-429 1388,-429"/>
<text text-anchor="start" x="1392" y="-436.8" font-family="arial" font-size="14.00">6x</text>
<polygon fill="none" stroke="black" points="1411,-429 1411,-452 1471,-452 1471,-429 1411,-429"/>
<text text-anchor="start" x="1415" y="-436.8" font-family="arial" font-size="14.00">26 AWG</text>
<polygon fill="none" stroke="black" points="1471,-429 1471,-452 1522,-452 1522,-429 1471,-429"/>
<text text-anchor="start" x="1475" y="-436.8" font-family="arial" font-size="14.00">0.03 m</text>
<text text-anchor="start" x="1261.5" y="-415.8" font-family="arial" font-size="14.00"> </text>
<text text-anchor="start" x="1232" y="-396.8" font-family="arial" font-size="14.00">X1:1:GND</text>
<text text-anchor="start" x="1339.5" y="-396.8" font-family="arial" font-size="14.00"> &#160;&#160;&#160;&#160;RD &#160;&#160;&#160;</text>
<text text-anchor="start" x="1437.5" y="-396.8" font-family="arial" font-size="14.00">X2:1:GND</text>
<polygon fill="#000000" stroke="none" points="1210,-389 1210,-391 1522,-391 1522,-389 1210,-389"/>
<polygon fill="#ff0000" stroke="none" points="1210,-387 1210,-389 1522,-389 1522,-387 1210,-387"/>
<polygon fill="#000000" stroke="none" points="1210,-385 1210,-387 1522,-387 1522,-385 1210,-385"/>
<text text-anchor="start" x="1232" y="-371.8" font-family="arial" font-size="14.00">X1:2:GND</text>
<text text-anchor="start" x="1339" y="-371.8" font-family="arial" font-size="14.00"> &#160;&#160;&#160;&#160;GY &#160;&#160;&#160;</text>
<text text-anchor="start" x="1437.5" y="-371.8" font-family="arial" font-size="14.00">X2:2:GND</text>
<polygon fill="#000000" stroke="none" points="1210,-364 1210,-366 1522,-366 1522,-364 1210,-364"/>
<polygon fill="#999999" stroke="none" points="1210,-362 1210,-364 1522,-364 1522,-362 1210,-362"/>
<polygon fill="#000000" stroke="none" points="1210,-360 1210,-362 1522,-362 1522,-360 1210,-360"/>
<text text-anchor="start" x="1233" y="-346.8" font-family="arial" font-size="14.00">X1:3:VDC</text>
<text text-anchor="start" x="1339" y="-346.8" font-family="arial" font-size="14.00"> &#160;&#160;&#160;&#160;GY &#160;&#160;&#160;</text>
<text text-anchor="start" x="1438.5" y="-346.8" font-family="arial" font-size="14.00">X2:3:VDC</text>
<polygon fill="#000000" stroke="none" points="1210,-339 1210,-341 1522,-341 1522,-339 1210,-339"/>
<polygon fill="#999999" stroke="none" points="1210,-337 1210,-339 1522,-339 1522,-337 1210,-337"/>
<polygon fill="#000000" stroke="none" points="1210,-335 1210,-337 1522,-337 1522,-335 1210,-335"/>
<text text-anchor="start" x="1233" y="-321.8" font-family="arial" font-size="14.00">X1:4:VDC</text>
<text text-anchor="start" x="1339" y="-321.8" font-family="arial" font-size="14.00"> &#160;&#160;&#160;&#160;GY &#160;&#160;&#160;</text>
<text text-anchor="start" x="1438.5" y="-321.8" font-family="arial" font-size="14.00">X2:4:VDC</text>
<polygon fill="#000000" stroke="none" points="1210,-314 1210,-316 1522,-316 1522,-314 1210,-314"/>
<polygon fill="#999999" stroke="none" points="1210,-312 1210,-314 1522,-314 1522,-312 1210,-312"/>
<polygon fill="#000000" stroke="none" points="1210,-310 1210,-312 1522,-312 1522,-310 1210,-310"/>
<text text-anchor="start" x="1243" y="-296.8" font-family="arial" font-size="14.00">X1:5:A</text>
<text text-anchor="start" x="1339" y="-296.8" font-family="arial" font-size="14.00"> &#160;&#160;&#160;&#160;GY &#160;&#160;&#160;</text>
<text text-anchor="start" x="1448.5" y="-296.8" font-family="arial" font-size="14.00">X2:5:A</text>
<polygon fill="#000000" stroke="none" points="1210,-289 1210,-291 1522,-291 1522,-289 1210,-289"/>
<polygon fill="#999999" stroke="none" points="1210,-287 1210,-289 1522,-289 1522,-287 1210,-287"/>
<polygon fill="#000000" stroke="none" points="1210,-285 1210,-287 1522,-287 1522,-285 1210,-285"/>
<text text-anchor="start" x="1243" y="-271.8" font-family="arial" font-size="14.00">X1:6:B</text>
<text text-anchor="start" x="1339" y="-271.8" font-family="arial" font-size="14.00"> &#160;&#160;&#160;&#160;GY &#160;&#160;&#160;</text>
<text text-anchor="start" x="1448.5" y="-271.8" font-family="arial" font-size="14.00">X2:6:B</text>
<polygon fill="#000000" stroke="none" points="1210,-264 1210,-266 1522,-266 1522,-264 1210,-264"/>
<polygon fill="#999999" stroke="none" points="1210,-262 1210,-264 1522,-264 1522,-262 1210,-262"/>
<polygon fill="#000000" stroke="none" points="1210,-260 1210,-262 1522,-262 1522,-260 1210,-260"/>
<text text-anchor="start" x="1261.5" y="-246.8" font-family="arial" font-size="14.00"> </text>
</g>
<!-- X1&#45;&#45;W2 -->
<g id="edge13" class="edge">
<title>X1:e&#45;&#45;W2:w</title>
<path fill="none" stroke="#000000" stroke-width="2" d="M1066,-381C1130.64,-381.09 1146.56,-386.09 1210,-386"/>
<path fill="none" stroke="#ff0000" stroke-width="2" d="M1066,-383C1130.04,-383 1145.96,-388 1210,-388"/>
<path fill="none" stroke="#000000" stroke-width="2" d="M1066,-385C1129.44,-384.91 1145.36,-389.91 1210,-390"/>
</g>
<!-- X1&#45;&#45;W2 -->
<g id="edge15" class="edge">
<title>X1:e&#45;&#45;W2:w</title>
<path fill="none" stroke="#000000" stroke-width="2" d="M1066,-358C1130.38,-358.03 1146.36,-361.03 1210,-361"/>
<path fill="none" stroke="#999999" stroke-width="2" d="M1066,-360C1130.01,-360 1145.99,-363 1210,-363"/>
<path fill="none" stroke="#000000" stroke-width="2" d="M1066,-362C1129.64,-361.97 1145.62,-364.97 1210,-365"/>
</g>
<!-- X1&#45;&#45;W2 -->
<g id="edge17" class="edge">
<title>X1:e&#45;&#45;W2:w</title>
<path fill="none" stroke="#000000" stroke-width="2" d="M1066,-335C1130.13,-335 1146.12,-336 1210,-336"/>
<path fill="none" stroke="#999999" stroke-width="2" d="M1066,-337C1130,-337 1146,-338 1210,-338"/>
<path fill="none" stroke="#000000" stroke-width="2" d="M1066,-339C1129.88,-339 1145.87,-340 1210,-340"/>
</g>
<!-- X1&#45;&#45;W2 -->
<g id="edge19" class="edge">
<title>X1:e&#45;&#45;W2:w</title>
<path fill="none" stroke="#000000" stroke-width="2" d="M1066,-312C1129.88,-312 1145.87,-311 1210,-311"/>
<path fill="none" stroke="#999999" stroke-width="2" d="M1066,-314C1130,-314 1146,-313 1210,-313"/>
<path fill="none" stroke="#000000" stroke-width="2" d="M1066,-316C1130.13,-316 1146.12,-315 1210,-315"/>
</g>
<!-- X1&#45;&#45;W2 -->
<g id="edge21" class="edge">
<title>X1:e&#45;&#45;W2:w</title>
<path fill="none" stroke="#000000" stroke-width="2" d="M1066,-289C1129.64,-289.03 1145.62,-286.03 1210,-286"/>
<path fill="none" stroke="#999999" stroke-width="2" d="M1066,-291C1130.01,-291 1145.99,-288 1210,-288"/>
<path fill="none" stroke="#000000" stroke-width="2" d="M1066,-293C1130.38,-292.97 1146.36,-289.97 1210,-290"/>
</g>
<!-- X1&#45;&#45;W2 -->
<g id="edge23" class="edge">
<title>X1:e&#45;&#45;W2:w</title>
<path fill="none" stroke="#000000" stroke-width="2" d="M1066,-266C1129.44,-266.09 1145.36,-261.09 1210,-261"/>
<path fill="none" stroke="#999999" stroke-width="2" d="M1066,-268C1130.04,-268 1145.96,-263 1210,-263"/>
<path fill="none" stroke="#000000" stroke-width="2" d="M1066,-270C1130.64,-269.91 1146.56,-264.91 1210,-265"/>
</g>
<!-- X2 -->
<g id="node3" class="node">
<title>X2</title>
<polygon fill="#ffffff" stroke="black" points="1899,-440 1666,-440 1666,0 1899,0 1899,-440"/>
<polygon fill="none" stroke="black" points="1666.5,-417 1666.5,-440 1899.5,-440 1899.5,-417 1666.5,-417"/>
<text text-anchor="start" x="1774.5" y="-424.8" font-family="arial" font-size="14.00">X2</text>
<polygon fill="none" stroke="black" points="1666.5,-394 1666.5,-417 1736.5,-417 1736.5,-394 1666.5,-394"/>
<text text-anchor="start" x="1689.5" y="-401.8" font-family="arial" font-size="14.00">IDC</text>
<polygon fill="none" stroke="black" points="1736.5,-394 1736.5,-417 1823.5,-417 1823.5,-394 1736.5,-394"/>
<text text-anchor="start" x="1759" y="-401.8" font-family="arial" font-size="14.00">female</text>
<polygon fill="none" stroke="black" points="1823.5,-394 1823.5,-417 1899.5,-417 1899.5,-394 1823.5,-394"/>
<text text-anchor="start" x="1846" y="-401.8" font-family="arial" font-size="14.00">6&#45;pin</text>
<polygon fill="none" stroke="black" points="1666.5,-371 1666.5,-394 1736.5,-394 1736.5,-371 1666.5,-371"/>
<text text-anchor="start" x="1697.5" y="-378.8" font-family="arial" font-size="14.00">1</text>
<polygon fill="none" stroke="black" points="1736.5,-371 1736.5,-394 1829.5,-394 1829.5,-371 1736.5,-371"/>
<text text-anchor="start" x="1767.5" y="-378.8" font-family="arial" font-size="14.00">GND</text>
<polygon fill="none" stroke="black" points="1829.5,-371 1829.5,-394 1899.5,-394 1899.5,-371 1829.5,-371"/>
<text text-anchor="start" x="1860.5" y="-378.8" font-family="arial" font-size="14.00">1</text>
<polygon fill="none" stroke="black" points="1666.5,-348 1666.5,-371 1736.5,-371 1736.5,-348 1666.5,-348"/>
<text text-anchor="start" x="1697.5" y="-355.8" font-family="arial" font-size="14.00">2</text>
<polygon fill="none" stroke="black" points="1736.5,-348 1736.5,-371 1829.5,-371 1829.5,-348 1736.5,-348"/>
<text text-anchor="start" x="1767.5" y="-355.8" font-family="arial" font-size="14.00">GND</text>
<polygon fill="none" stroke="black" points="1829.5,-348 1829.5,-371 1899.5,-371 1899.5,-348 1829.5,-348"/>
<text text-anchor="start" x="1860.5" y="-355.8" font-family="arial" font-size="14.00">2</text>
<polygon fill="none" stroke="black" points="1666.5,-325 1666.5,-348 1736.5,-348 1736.5,-325 1666.5,-325"/>
<text text-anchor="start" x="1697.5" y="-332.8" font-family="arial" font-size="14.00">3</text>
<polygon fill="none" stroke="black" points="1736.5,-325 1736.5,-348 1829.5,-348 1829.5,-325 1736.5,-325"/>
<text text-anchor="start" x="1768.5" y="-332.8" font-family="arial" font-size="14.00">VDC</text>
<polygon fill="none" stroke="black" points="1829.5,-325 1829.5,-348 1899.5,-348 1899.5,-325 1829.5,-325"/>
<text text-anchor="start" x="1860.5" y="-332.8" font-family="arial" font-size="14.00">3</text>
<polygon fill="none" stroke="black" points="1666.5,-302 1666.5,-325 1736.5,-325 1736.5,-302 1666.5,-302"/>
<text text-anchor="start" x="1697.5" y="-309.8" font-family="arial" font-size="14.00">4</text>
<polygon fill="none" stroke="black" points="1736.5,-302 1736.5,-325 1829.5,-325 1829.5,-302 1736.5,-302"/>
<text text-anchor="start" x="1768.5" y="-309.8" font-family="arial" font-size="14.00">VDC</text>
<polygon fill="none" stroke="black" points="1829.5,-302 1829.5,-325 1899.5,-325 1899.5,-302 1829.5,-302"/>
<text text-anchor="start" x="1860.5" y="-309.8" font-family="arial" font-size="14.00">4</text>
<polygon fill="none" stroke="black" points="1666.5,-279 1666.5,-302 1736.5,-302 1736.5,-279 1666.5,-279"/>
<text text-anchor="start" x="1697.5" y="-286.8" font-family="arial" font-size="14.00">5</text>
<polygon fill="none" stroke="black" points="1736.5,-279 1736.5,-302 1829.5,-302 1829.5,-279 1736.5,-279"/>
<text text-anchor="start" x="1778" y="-286.8" font-family="arial" font-size="14.00">A</text>
<polygon fill="none" stroke="black" points="1829.5,-279 1829.5,-302 1899.5,-302 1899.5,-279 1829.5,-279"/>
<text text-anchor="start" x="1860.5" y="-286.8" font-family="arial" font-size="14.00">5</text>
<polygon fill="none" stroke="black" points="1666.5,-256 1666.5,-279 1736.5,-279 1736.5,-256 1666.5,-256"/>
<text text-anchor="start" x="1697.5" y="-263.8" font-family="arial" font-size="14.00">6</text>
<polygon fill="none" stroke="black" points="1736.5,-256 1736.5,-279 1829.5,-279 1829.5,-256 1736.5,-256"/>
<text text-anchor="start" x="1778" y="-263.8" font-family="arial" font-size="14.00">B</text>
<polygon fill="none" stroke="black" points="1829.5,-256 1829.5,-279 1899.5,-279 1899.5,-256 1829.5,-256"/>
<text text-anchor="start" x="1860.5" y="-263.8" font-family="arial" font-size="14.00">6</text>
<polyline fill="none" stroke="black" points="1899.5,-23 1899.5,-256 1666.5,-256 1666.5,-23"/>
<image xlink:href="../resources/idc.jpeg" width="225px" height="225px" preserveAspectRatio="xMinYMin meet" x="1670.5" y="-252"/>
<polyline fill="none" stroke="black" points="1666.5,-23 1666.5,0 1899.5,0 1899.5,-23"/>
<text text-anchor="start" x="1725.5" y="-7.8" font-family="arial" font-size="14.00">2x3 IDC Connector</text>
</g>
<!-- W3 -->
<g id="node7" class="node">
<title>W3</title>
<polygon fill="#ffffff" stroke="black" stroke-dasharray="5,2" points="2355,-475 2043,-475 2043,-241 2355,-241 2355,-475"/>
<polygon fill="none" stroke="black" points="2043,-452 2043,-475 2355,-475 2355,-452 2043,-452"/>
<text text-anchor="start" x="2188" y="-459.8" font-family="arial" font-size="14.00">W3</text>
<polygon fill="none" stroke="black" points="2043,-429 2043,-452 2221,-452 2221,-429 2043,-429"/>
<text text-anchor="start" x="2047" y="-436.8" font-family="arial" font-size="14.00">1.27mm Pitch Ribbon Cable</text>
<polygon fill="none" stroke="black" points="2221,-429 2221,-452 2244,-452 2244,-429 2221,-429"/>
<text text-anchor="start" x="2225" y="-436.8" font-family="arial" font-size="14.00">6x</text>
<polygon fill="none" stroke="black" points="2244,-429 2244,-452 2304,-452 2304,-429 2244,-429"/>
<text text-anchor="start" x="2248" y="-436.8" font-family="arial" font-size="14.00">26 AWG</text>
<polygon fill="none" stroke="black" points="2304,-429 2304,-452 2355,-452 2355,-429 2304,-429"/>
<text text-anchor="start" x="2308" y="-436.8" font-family="arial" font-size="14.00">0.03 m</text>
<text text-anchor="start" x="2094.5" y="-415.8" font-family="arial" font-size="14.00"> </text>
<text text-anchor="start" x="2065" y="-396.8" font-family="arial" font-size="14.00">X2:1:GND</text>
<text text-anchor="start" x="2172.5" y="-396.8" font-family="arial" font-size="14.00"> &#160;&#160;&#160;&#160;RD &#160;&#160;&#160;</text>
<text text-anchor="start" x="2270.5" y="-396.8" font-family="arial" font-size="14.00">X3:1:GND</text>
<polygon fill="#000000" stroke="none" points="2043,-389 2043,-391 2355,-391 2355,-389 2043,-389"/>
<polygon fill="#ff0000" stroke="none" points="2043,-387 2043,-389 2355,-389 2355,-387 2043,-387"/>
<polygon fill="#000000" stroke="none" points="2043,-385 2043,-387 2355,-387 2355,-385 2043,-385"/>
<text text-anchor="start" x="2065" y="-371.8" font-family="arial" font-size="14.00">X2:2:GND</text>
<text text-anchor="start" x="2172" y="-371.8" font-family="arial" font-size="14.00"> &#160;&#160;&#160;&#160;GY &#160;&#160;&#160;</text>
<text text-anchor="start" x="2270.5" y="-371.8" font-family="arial" font-size="14.00">X3:2:GND</text>
<polygon fill="#000000" stroke="none" points="2043,-364 2043,-366 2355,-366 2355,-364 2043,-364"/>
<polygon fill="#999999" stroke="none" points="2043,-362 2043,-364 2355,-364 2355,-362 2043,-362"/>
<polygon fill="#000000" stroke="none" points="2043,-360 2043,-362 2355,-362 2355,-360 2043,-360"/>
<text text-anchor="start" x="2066" y="-346.8" font-family="arial" font-size="14.00">X2:3:VDC</text>
<text text-anchor="start" x="2172" y="-346.8" font-family="arial" font-size="14.00"> &#160;&#160;&#160;&#160;GY &#160;&#160;&#160;</text>
<text text-anchor="start" x="2271.5" y="-346.8" font-family="arial" font-size="14.00">X3:3:VDC</text>
<polygon fill="#000000" stroke="none" points="2043,-339 2043,-341 2355,-341 2355,-339 2043,-339"/>
<polygon fill="#999999" stroke="none" points="2043,-337 2043,-339 2355,-339 2355,-337 2043,-337"/>
<polygon fill="#000000" stroke="none" points="2043,-335 2043,-337 2355,-337 2355,-335 2043,-335"/>
<text text-anchor="start" x="2066" y="-321.8" font-family="arial" font-size="14.00">X2:4:VDC</text>
<text text-anchor="start" x="2172" y="-321.8" font-family="arial" font-size="14.00"> &#160;&#160;&#160;&#160;GY &#160;&#160;&#160;</text>
<text text-anchor="start" x="2271.5" y="-321.8" font-family="arial" font-size="14.00">X3:4:VDC</text>
<polygon fill="#000000" stroke="none" points="2043,-314 2043,-316 2355,-316 2355,-314 2043,-314"/>
<polygon fill="#999999" stroke="none" points="2043,-312 2043,-314 2355,-314 2355,-312 2043,-312"/>
<polygon fill="#000000" stroke="none" points="2043,-310 2043,-312 2355,-312 2355,-310 2043,-310"/>
<text text-anchor="start" x="2076" y="-296.8" font-family="arial" font-size="14.00">X2:5:A</text>
<text text-anchor="start" x="2172" y="-296.8" font-family="arial" font-size="14.00"> &#160;&#160;&#160;&#160;GY &#160;&#160;&#160;</text>
<text text-anchor="start" x="2281.5" y="-296.8" font-family="arial" font-size="14.00">X3:5:A</text>
<polygon fill="#000000" stroke="none" points="2043,-289 2043,-291 2355,-291 2355,-289 2043,-289"/>
<polygon fill="#999999" stroke="none" points="2043,-287 2043,-289 2355,-289 2355,-287 2043,-287"/>
<polygon fill="#000000" stroke="none" points="2043,-285 2043,-287 2355,-287 2355,-285 2043,-285"/>
<text text-anchor="start" x="2076" y="-271.8" font-family="arial" font-size="14.00">X2:6:B</text>
<text text-anchor="start" x="2172" y="-271.8" font-family="arial" font-size="14.00"> &#160;&#160;&#160;&#160;GY &#160;&#160;&#160;</text>
<text text-anchor="start" x="2281.5" y="-271.8" font-family="arial" font-size="14.00">X3:6:B</text>
<polygon fill="#000000" stroke="none" points="2043,-264 2043,-266 2355,-266 2355,-264 2043,-264"/>
<polygon fill="#999999" stroke="none" points="2043,-262 2043,-264 2355,-264 2355,-262 2043,-262"/>
<polygon fill="#000000" stroke="none" points="2043,-260 2043,-262 2355,-262 2355,-260 2043,-260"/>
<text text-anchor="start" x="2094.5" y="-246.8" font-family="arial" font-size="14.00"> </text>
</g>
<!-- X2&#45;&#45;W3 -->
<g id="edge25" class="edge">
<title>X2:e&#45;&#45;W3:w</title>
<path fill="none" stroke="#000000" stroke-width="2" d="M1899,-381C1963.64,-381.09 1979.56,-386.09 2043,-386"/>
<path fill="none" stroke="#ff0000" stroke-width="2" d="M1899,-383C1963.04,-383 1978.96,-388 2043,-388"/>
<path fill="none" stroke="#000000" stroke-width="2" d="M1899,-385C1962.44,-384.91 1978.36,-389.91 2043,-390"/>
</g>
<!-- X2&#45;&#45;W3 -->
<g id="edge27" class="edge">
<title>X2:e&#45;&#45;W3:w</title>
<path fill="none" stroke="#000000" stroke-width="2" d="M1899,-358C1963.38,-358.03 1979.36,-361.03 2043,-361"/>
<path fill="none" stroke="#999999" stroke-width="2" d="M1899,-360C1963.01,-360 1978.99,-363 2043,-363"/>
<path fill="none" stroke="#000000" stroke-width="2" d="M1899,-362C1962.64,-361.97 1978.62,-364.97 2043,-365"/>
</g>
<!-- X2&#45;&#45;W3 -->
<g id="edge29" class="edge">
<title>X2:e&#45;&#45;W3:w</title>
<path fill="none" stroke="#000000" stroke-width="2" d="M1899,-335C1963.13,-335 1979.12,-336 2043,-336"/>
<path fill="none" stroke="#999999" stroke-width="2" d="M1899,-337C1963,-337 1979,-338 2043,-338"/>
<path fill="none" stroke="#000000" stroke-width="2" d="M1899,-339C1962.88,-339 1978.87,-340 2043,-340"/>
</g>
<!-- X2&#45;&#45;W3 -->
<g id="edge31" class="edge">
<title>X2:e&#45;&#45;W3:w</title>
<path fill="none" stroke="#000000" stroke-width="2" d="M1899,-312C1962.88,-312 1978.87,-311 2043,-311"/>
<path fill="none" stroke="#999999" stroke-width="2" d="M1899,-314C1963,-314 1979,-313 2043,-313"/>
<path fill="none" stroke="#000000" stroke-width="2" d="M1899,-316C1963.13,-316 1979.12,-315 2043,-315"/>
</g>
<!-- X2&#45;&#45;W3 -->
<g id="edge33" class="edge">
<title>X2:e&#45;&#45;W3:w</title>
<path fill="none" stroke="#000000" stroke-width="2" d="M1899,-289C1962.64,-289.03 1978.62,-286.03 2043,-286"/>
<path fill="none" stroke="#999999" stroke-width="2" d="M1899,-291C1963.01,-291 1978.99,-288 2043,-288"/>
<path fill="none" stroke="#000000" stroke-width="2" d="M1899,-293C1963.38,-292.97 1979.36,-289.97 2043,-290"/>
</g>
<!-- X2&#45;&#45;W3 -->
<g id="edge35" class="edge">
<title>X2:e&#45;&#45;W3:w</title>
<path fill="none" stroke="#000000" stroke-width="2" d="M1899,-266C1962.44,-266.09 1978.36,-261.09 2043,-261"/>
<path fill="none" stroke="#999999" stroke-width="2" d="M1899,-268C1963.04,-268 1978.96,-263 2043,-263"/>
<path fill="none" stroke="#000000" stroke-width="2" d="M1899,-270C1963.64,-269.91 1979.56,-264.91 2043,-265"/>
</g>
<!-- X3 -->
<g id="node4" class="node">
<title>X3</title>
<polygon fill="#ffffff" stroke="black" points="2732,-440 2499,-440 2499,0 2732,0 2732,-440"/>
<polygon fill="none" stroke="black" points="2499.5,-417 2499.5,-440 2732.5,-440 2732.5,-417 2499.5,-417"/>
<text text-anchor="start" x="2607.5" y="-424.8" font-family="arial" font-size="14.00">X3</text>
<polygon fill="none" stroke="black" points="2499.5,-394 2499.5,-417 2569.5,-417 2569.5,-394 2499.5,-394"/>
<text text-anchor="start" x="2522.5" y="-401.8" font-family="arial" font-size="14.00">IDC</text>
<polygon fill="none" stroke="black" points="2569.5,-394 2569.5,-417 2656.5,-417 2656.5,-394 2569.5,-394"/>
<text text-anchor="start" x="2592" y="-401.8" font-family="arial" font-size="14.00">female</text>
<polygon fill="none" stroke="black" points="2656.5,-394 2656.5,-417 2732.5,-417 2732.5,-394 2656.5,-394"/>
<text text-anchor="start" x="2679" y="-401.8" font-family="arial" font-size="14.00">6&#45;pin</text>
<polygon fill="none" stroke="black" points="2499.5,-371 2499.5,-394 2604.5,-394 2604.5,-371 2499.5,-371"/>
<text text-anchor="start" x="2548" y="-378.8" font-family="arial" font-size="14.00">1</text>
<polygon fill="none" stroke="black" points="2604.5,-371 2604.5,-394 2732.5,-394 2732.5,-371 2604.5,-371"/>
<text text-anchor="start" x="2653" y="-378.8" font-family="arial" font-size="14.00">GND</text>
<polygon fill="none" stroke="black" points="2499.5,-348 2499.5,-371 2604.5,-371 2604.5,-348 2499.5,-348"/>
<text text-anchor="start" x="2548" y="-355.8" font-family="arial" font-size="14.00">2</text>
<polygon fill="none" stroke="black" points="2604.5,-348 2604.5,-371 2732.5,-371 2732.5,-348 2604.5,-348"/>
<text text-anchor="start" x="2653" y="-355.8" font-family="arial" font-size="14.00">GND</text>
<polygon fill="none" stroke="black" points="2499.5,-325 2499.5,-348 2604.5,-348 2604.5,-325 2499.5,-325"/>
<text text-anchor="start" x="2548" y="-332.8" font-family="arial" font-size="14.00">3</text>
<polygon fill="none" stroke="black" points="2604.5,-325 2604.5,-348 2732.5,-348 2732.5,-325 2604.5,-325"/>
<text text-anchor="start" x="2654" y="-332.8" font-family="arial" font-size="14.00">VDC</text>
<polygon fill="none" stroke="black" points="2499.5,-302 2499.5,-325 2604.5,-325 2604.5,-302 2499.5,-302"/>
<text text-anchor="start" x="2548" y="-309.8" font-family="arial" font-size="14.00">4</text>
<polygon fill="none" stroke="black" points="2604.5,-302 2604.5,-325 2732.5,-325 2732.5,-302 2604.5,-302"/>
<text text-anchor="start" x="2654" y="-309.8" font-family="arial" font-size="14.00">VDC</text>
<polygon fill="none" stroke="black" points="2499.5,-279 2499.5,-302 2604.5,-302 2604.5,-279 2499.5,-279"/>
<text text-anchor="start" x="2548" y="-286.8" font-family="arial" font-size="14.00">5</text>
<polygon fill="none" stroke="black" points="2604.5,-279 2604.5,-302 2732.5,-302 2732.5,-279 2604.5,-279"/>
<text text-anchor="start" x="2663.5" y="-286.8" font-family="arial" font-size="14.00">A</text>
<polygon fill="none" stroke="black" points="2499.5,-256 2499.5,-279 2604.5,-279 2604.5,-256 2499.5,-256"/>
<text text-anchor="start" x="2548" y="-263.8" font-family="arial" font-size="14.00">6</text>
<polygon fill="none" stroke="black" points="2604.5,-256 2604.5,-279 2732.5,-279 2732.5,-256 2604.5,-256"/>
<text text-anchor="start" x="2663.5" y="-263.8" font-family="arial" font-size="14.00">B</text>
<polyline fill="none" stroke="black" points="2732.5,-23 2732.5,-256 2499.5,-256 2499.5,-23"/>
<image xlink:href="../resources/idc.jpeg" width="225px" height="225px" preserveAspectRatio="xMinYMin meet" x="2503.5" y="-252"/>
<polyline fill="none" stroke="black" points="2499.5,-23 2499.5,0 2732.5,0 2732.5,-23"/>
<text text-anchor="start" x="2558.5" y="-7.8" font-family="arial" font-size="14.00">2x3 IDC Connector</text>
</g>
<!-- W1&#45;&#45;X1 -->
<g id="edge2" class="edge">
<title>W1:e&#45;&#45;X1:w</title>
<path fill="none" stroke="#000000" stroke-width="2" d="M689,-386C752.44,-386.09 768.36,-381.09 833,-381"/>
<path fill="none" stroke="#ff0000" stroke-width="2" d="M689,-388C753.04,-388 768.96,-383 833,-383"/>
<path fill="none" stroke="#000000" stroke-width="2" d="M689,-390C753.64,-389.91 769.56,-384.91 833,-385"/>
</g>
<!-- W1&#45;&#45;X1 -->
<g id="edge4" class="edge">
<title>W1:e&#45;&#45;X1:w</title>
<path fill="none" stroke="#000000" stroke-width="2" d="M689,-361C752.64,-361.03 768.62,-358.03 833,-358"/>
<path fill="none" stroke="#999999" stroke-width="2" d="M689,-363C753.01,-363 768.99,-360 833,-360"/>
<path fill="none" stroke="#000000" stroke-width="2" d="M689,-365C753.38,-364.97 769.36,-361.97 833,-362"/>
</g>
<!-- W1&#45;&#45;X1 -->
<g id="edge6" class="edge">
<title>W1:e&#45;&#45;X1:w</title>
<path fill="none" stroke="#000000" stroke-width="2" d="M689,-336C752.88,-336 768.87,-335 833,-335"/>
<path fill="none" stroke="#999999" stroke-width="2" d="M689,-338C753,-338 769,-337 833,-337"/>
<path fill="none" stroke="#000000" stroke-width="2" d="M689,-340C753.13,-340 769.12,-339 833,-339"/>
</g>
<!-- W1&#45;&#45;X1 -->
<g id="edge8" class="edge">
<title>W1:e&#45;&#45;X1:w</title>
<path fill="none" stroke="#000000" stroke-width="2" d="M689,-311C753.13,-311 769.12,-312 833,-312"/>
<path fill="none" stroke="#999999" stroke-width="2" d="M689,-313C753,-313 769,-314 833,-314"/>
<path fill="none" stroke="#000000" stroke-width="2" d="M689,-315C752.88,-315 768.87,-316 833,-316"/>
</g>
<!-- W1&#45;&#45;X1 -->
<g id="edge10" class="edge">
<title>W1:e&#45;&#45;X1:w</title>
<path fill="none" stroke="#000000" stroke-width="2" d="M689,-286C753.38,-286.03 769.36,-289.03 833,-289"/>
<path fill="none" stroke="#999999" stroke-width="2" d="M689,-288C753.01,-288 768.99,-291 833,-291"/>
<path fill="none" stroke="#000000" stroke-width="2" d="M689,-290C752.64,-289.97 768.62,-292.97 833,-293"/>
</g>
<!-- W1&#45;&#45;X1 -->
<g id="edge12" class="edge">
<title>W1:e&#45;&#45;X1:w</title>
<path fill="none" stroke="#000000" stroke-width="2" d="M689,-261C753.64,-261.09 769.56,-266.09 833,-266"/>
<path fill="none" stroke="#999999" stroke-width="2" d="M689,-263C753.04,-263 768.96,-268 833,-268"/>
<path fill="none" stroke="#000000" stroke-width="2" d="M689,-265C752.44,-264.91 768.36,-269.91 833,-270"/>
</g>
<!-- W2&#45;&#45;X2 -->
<g id="edge14" class="edge">
<title>W2:e&#45;&#45;X2:w</title>
<path fill="none" stroke="#000000" stroke-width="2" d="M1522,-386C1585.44,-386.09 1601.36,-381.09 1666,-381"/>
<path fill="none" stroke="#ff0000" stroke-width="2" d="M1522,-388C1586.04,-388 1601.96,-383 1666,-383"/>
<path fill="none" stroke="#000000" stroke-width="2" d="M1522,-390C1586.64,-389.91 1602.56,-384.91 1666,-385"/>
</g>
<!-- W2&#45;&#45;X2 -->
<g id="edge16" class="edge">
<title>W2:e&#45;&#45;X2:w</title>
<path fill="none" stroke="#000000" stroke-width="2" d="M1522,-361C1585.64,-361.03 1601.62,-358.03 1666,-358"/>
<path fill="none" stroke="#999999" stroke-width="2" d="M1522,-363C1586.01,-363 1601.99,-360 1666,-360"/>
<path fill="none" stroke="#000000" stroke-width="2" d="M1522,-365C1586.38,-364.97 1602.36,-361.97 1666,-362"/>
</g>
<!-- W2&#45;&#45;X2 -->
<g id="edge18" class="edge">
<title>W2:e&#45;&#45;X2:w</title>
<path fill="none" stroke="#000000" stroke-width="2" d="M1522,-336C1585.88,-336 1601.87,-335 1666,-335"/>
<path fill="none" stroke="#999999" stroke-width="2" d="M1522,-338C1586,-338 1602,-337 1666,-337"/>
<path fill="none" stroke="#000000" stroke-width="2" d="M1522,-340C1586.13,-340 1602.12,-339 1666,-339"/>
</g>
<!-- W2&#45;&#45;X2 -->
<g id="edge20" class="edge">
<title>W2:e&#45;&#45;X2:w</title>
<path fill="none" stroke="#000000" stroke-width="2" d="M1522,-311C1586.13,-311 1602.12,-312 1666,-312"/>
<path fill="none" stroke="#999999" stroke-width="2" d="M1522,-313C1586,-313 1602,-314 1666,-314"/>
<path fill="none" stroke="#000000" stroke-width="2" d="M1522,-315C1585.88,-315 1601.87,-316 1666,-316"/>
</g>
<!-- W2&#45;&#45;X2 -->
<g id="edge22" class="edge">
<title>W2:e&#45;&#45;X2:w</title>
<path fill="none" stroke="#000000" stroke-width="2" d="M1522,-286C1586.38,-286.03 1602.36,-289.03 1666,-289"/>
<path fill="none" stroke="#999999" stroke-width="2" d="M1522,-288C1586.01,-288 1601.99,-291 1666,-291"/>
<path fill="none" stroke="#000000" stroke-width="2" d="M1522,-290C1585.64,-289.97 1601.62,-292.97 1666,-293"/>
</g>
<!-- W2&#45;&#45;X2 -->
<g id="edge24" class="edge">
<title>W2:e&#45;&#45;X2:w</title>
<path fill="none" stroke="#000000" stroke-width="2" d="M1522,-261C1586.64,-261.09 1602.56,-266.09 1666,-266"/>
<path fill="none" stroke="#999999" stroke-width="2" d="M1522,-263C1586.04,-263 1601.96,-268 1666,-268"/>
<path fill="none" stroke="#000000" stroke-width="2" d="M1522,-265C1585.44,-264.91 1601.36,-269.91 1666,-270"/>
</g>
<!-- W3&#45;&#45;X3 -->
<g id="edge26" class="edge">
<title>W3:e&#45;&#45;X3:w</title>
<path fill="none" stroke="#000000" stroke-width="2" d="M2355,-386C2418.44,-386.09 2434.36,-381.09 2499,-381"/>
<path fill="none" stroke="#ff0000" stroke-width="2" d="M2355,-388C2419.04,-388 2434.96,-383 2499,-383"/>
<path fill="none" stroke="#000000" stroke-width="2" d="M2355,-390C2419.64,-389.91 2435.56,-384.91 2499,-385"/>
</g>
<!-- W3&#45;&#45;X3 -->
<g id="edge28" class="edge">
<title>W3:e&#45;&#45;X3:w</title>
<path fill="none" stroke="#000000" stroke-width="2" d="M2355,-361C2418.64,-361.03 2434.62,-358.03 2499,-358"/>
<path fill="none" stroke="#999999" stroke-width="2" d="M2355,-363C2419.01,-363 2434.99,-360 2499,-360"/>
<path fill="none" stroke="#000000" stroke-width="2" d="M2355,-365C2419.38,-364.97 2435.36,-361.97 2499,-362"/>
</g>
<!-- W3&#45;&#45;X3 -->
<g id="edge30" class="edge">
<title>W3:e&#45;&#45;X3:w</title>
<path fill="none" stroke="#000000" stroke-width="2" d="M2355,-336C2418.88,-336 2434.87,-335 2499,-335"/>
<path fill="none" stroke="#999999" stroke-width="2" d="M2355,-338C2419,-338 2435,-337 2499,-337"/>
<path fill="none" stroke="#000000" stroke-width="2" d="M2355,-340C2419.13,-340 2435.12,-339 2499,-339"/>
</g>
<!-- W3&#45;&#45;X3 -->
<g id="edge32" class="edge">
<title>W3:e&#45;&#45;X3:w</title>
<path fill="none" stroke="#000000" stroke-width="2" d="M2355,-311C2419.13,-311 2435.12,-312 2499,-312"/>
<path fill="none" stroke="#999999" stroke-width="2" d="M2355,-313C2419,-313 2435,-314 2499,-314"/>
<path fill="none" stroke="#000000" stroke-width="2" d="M2355,-315C2418.88,-315 2434.87,-316 2499,-316"/>
</g>
<!-- W3&#45;&#45;X3 -->
<g id="edge34" class="edge">
<title>W3:e&#45;&#45;X3:w</title>
<path fill="none" stroke="#000000" stroke-width="2" d="M2355,-286C2419.38,-286.03 2435.36,-289.03 2499,-289"/>
<path fill="none" stroke="#999999" stroke-width="2" d="M2355,-288C2419.01,-288 2434.99,-291 2499,-291"/>
<path fill="none" stroke="#000000" stroke-width="2" d="M2355,-290C2418.64,-289.97 2434.62,-292.97 2499,-293"/>
</g>
<!-- W3&#45;&#45;X3 -->
<g id="edge36" class="edge">
<title>W3:e&#45;&#45;X3:w</title>
<path fill="none" stroke="#000000" stroke-width="2" d="M2355,-261C2419.64,-261.09 2435.56,-266.09 2499,-266"/>
<path fill="none" stroke="#999999" stroke-width="2" d="M2355,-263C2419.04,-263 2434.96,-268 2499,-268"/>
<path fill="none" stroke="#000000" stroke-width="2" d="M2355,-265C2418.44,-264.91 2434.36,-269.91 2499,-270"/>
</g>
</g>
</svg>
